%TF.GenerationSoftware,KiCad,Pcbnew,8.0.8-8.0.8-0~ubuntu22.04.1*%
%TF.CreationDate,2025-03-18T00:56:53+00:00*%
%TF.ProjectId,miniv_motor_controller_board,6d696e69-765f-46d6-9f74-6f725f636f6e,rev?*%
%TF.SameCoordinates,Original*%
%TF.FileFunction,Copper,L1,Top*%
%TF.FilePolarity,Positive*%
%FSLAX46Y46*%
G04 Gerber Fmt 4.6, Leading zero omitted, Abs format (unit mm)*
G04 Created by KiCad (PCBNEW 8.0.8-8.0.8-0~ubuntu22.04.1) date 2025-03-18 00:56:53*
%MOMM*%
%LPD*%
G01*
G04 APERTURE LIST*
G04 Aperture macros list*
%AMRoundRect*
0 Rectangle with rounded corners*
0 $1 Rounding radius*
0 $2 $3 $4 $5 $6 $7 $8 $9 X,Y pos of 4 corners*
0 Add a 4 corners polygon primitive as box body*
4,1,4,$2,$3,$4,$5,$6,$7,$8,$9,$2,$3,0*
0 Add four circle primitives for the rounded corners*
1,1,$1+$1,$2,$3*
1,1,$1+$1,$4,$5*
1,1,$1+$1,$6,$7*
1,1,$1+$1,$8,$9*
0 Add four rect primitives between the rounded corners*
20,1,$1+$1,$2,$3,$4,$5,0*
20,1,$1+$1,$4,$5,$6,$7,0*
20,1,$1+$1,$6,$7,$8,$9,0*
20,1,$1+$1,$8,$9,$2,$3,0*%
G04 Aperture macros list end*
%TA.AperFunction,ComponentPad*%
%ADD10C,1.600000*%
%TD*%
%TA.AperFunction,ComponentPad*%
%ADD11O,1.600000X1.600000*%
%TD*%
%TA.AperFunction,ComponentPad*%
%ADD12RoundRect,0.250000X-0.750000X0.600000X-0.750000X-0.600000X0.750000X-0.600000X0.750000X0.600000X0*%
%TD*%
%TA.AperFunction,ComponentPad*%
%ADD13O,2.000000X1.700000*%
%TD*%
%TA.AperFunction,ComponentPad*%
%ADD14RoundRect,0.250000X-0.550000X-0.550000X0.550000X-0.550000X0.550000X0.550000X-0.550000X0.550000X0*%
%TD*%
%TA.AperFunction,ComponentPad*%
%ADD15R,1.600000X1.600000*%
%TD*%
%TA.AperFunction,ComponentPad*%
%ADD16R,0.900000X2.000000*%
%TD*%
%TA.AperFunction,ComponentPad*%
%ADD17RoundRect,1.025000X-1.025000X-1.025000X1.025000X-1.025000X1.025000X1.025000X-1.025000X1.025000X0*%
%TD*%
%TA.AperFunction,ComponentPad*%
%ADD18C,4.100000*%
%TD*%
%TA.AperFunction,ComponentPad*%
%ADD19R,1.300000X1.300000*%
%TD*%
%TA.AperFunction,ComponentPad*%
%ADD20C,1.300000*%
%TD*%
%TA.AperFunction,ComponentPad*%
%ADD21C,1.400000*%
%TD*%
%TA.AperFunction,ComponentPad*%
%ADD22RoundRect,0.770000X0.980000X-0.980000X0.980000X0.980000X-0.980000X0.980000X-0.980000X-0.980000X0*%
%TD*%
%TA.AperFunction,ComponentPad*%
%ADD23C,3.500000*%
%TD*%
%TA.AperFunction,ComponentPad*%
%ADD24RoundRect,0.250001X-0.799999X-0.799999X0.799999X-0.799999X0.799999X0.799999X-0.799999X0.799999X0*%
%TD*%
%TA.AperFunction,ComponentPad*%
%ADD25C,2.180000*%
%TD*%
%TA.AperFunction,ComponentPad*%
%ADD26C,1.800000*%
%TD*%
%TA.AperFunction,ComponentPad*%
%ADD27C,2.040000*%
%TD*%
%TA.AperFunction,ComponentPad*%
%ADD28C,1.524000*%
%TD*%
%TA.AperFunction,ComponentPad*%
%ADD29C,2.400000*%
%TD*%
%TA.AperFunction,ComponentPad*%
%ADD30C,3.400000*%
%TD*%
%TA.AperFunction,ComponentPad*%
%ADD31R,1.800000X1.800000*%
%TD*%
%TA.AperFunction,Conductor*%
%ADD32C,1.000000*%
%TD*%
%TA.AperFunction,Conductor*%
%ADD33C,6.000000*%
%TD*%
%TA.AperFunction,Conductor*%
%ADD34C,0.127000*%
%TD*%
%TA.AperFunction,Conductor*%
%ADD35C,0.500000*%
%TD*%
%TA.AperFunction,Conductor*%
%ADD36C,3.000000*%
%TD*%
G04 APERTURE END LIST*
D10*
%TO.P,R5,1*%
%TO.N,Net-(R5-Pad1)*%
X68000000Y-144000000D03*
D11*
%TO.P,R5,2*%
%TO.N,Net-(R5-Pad2)*%
X68000000Y-133840000D03*
%TD*%
D12*
%TO.P,J4,1,Pin_1*%
%TO.N,Net-(J4-Pin_1)*%
X114000000Y-81000000D03*
D13*
%TO.P,J4,2,Pin_2*%
%TO.N,Net-(J4-Pin_2)*%
X114000000Y-83500000D03*
%TD*%
D14*
%TO.P,JP4,1,A*%
%TO.N,Net-(JP4-A)*%
X44000000Y-112000000D03*
%TD*%
D15*
%TO.P,U2,1*%
%TO.N,Net-(R5-Pad2)*%
X74000000Y-140000000D03*
D11*
%TO.P,U2,2*%
%TO.N,Net-(SW1-A-Pad1)*%
X74000000Y-142540000D03*
%TO.P,U2,3*%
%TO.N,Net-(SW1-C-Pad3)*%
X81620000Y-142540000D03*
%TO.P,U2,4*%
%TO.N,Net-(SW1-C-Pad6)*%
X81620000Y-140000000D03*
%TD*%
D16*
%TO.P,J2,*%
%TO.N,*%
X78650000Y-52000000D03*
X92150000Y-52000000D03*
D17*
%TO.P,J2,1,Pin_1*%
%TO.N,GNDREF_Bat*%
X89000000Y-58000000D03*
D18*
%TO.P,J2,2,Pin_2*%
%TO.N,Net-(J2-Pin_2)*%
X81800000Y-58000000D03*
%TD*%
D14*
%TO.P,JP6,1,A*%
%TO.N,+12V*%
X50500000Y-65500000D03*
%TD*%
D15*
%TO.P,U1,1,GND*%
%TO.N,GNDREF*%
X118210000Y-107380000D03*
D10*
%TO.P,U1,2,0_RX1_CRX2_CS1*%
%TO.N,unconnected-(U1-0_RX1_CRX2_CS1-Pad2)*%
X115670000Y-107380000D03*
%TO.P,U1,3,1_TX1_CTX2_MISO1*%
%TO.N,unconnected-(U1-1_TX1_CTX2_MISO1-Pad3)*%
X113130000Y-107380000D03*
%TO.P,U1,4,2_OUT2*%
%TO.N,unconnected-(U1-2_OUT2-Pad4)*%
X110590000Y-107380000D03*
%TO.P,U1,5,3_LRCLK2*%
%TO.N,unconnected-(U1-3_LRCLK2-Pad5)*%
X108050000Y-107380000D03*
%TO.P,U1,6,4_BCLK2*%
%TO.N,unconnected-(U1-4_BCLK2-Pad6)*%
X105510000Y-107380000D03*
%TO.P,U1,7,5_IN2*%
%TO.N,unconnected-(U1-5_IN2-Pad7)*%
X102970000Y-107380000D03*
%TO.P,U1,8,6_OUT1D*%
%TO.N,unconnected-(U1-6_OUT1D-Pad8)*%
X100430000Y-107380000D03*
%TO.P,U1,9,7_RX2_OUT1A*%
%TO.N,unconnected-(U1-7_RX2_OUT1A-Pad9)*%
X97890000Y-107380000D03*
%TO.P,U1,10,8_TX2_IN1*%
%TO.N,unconnected-(U1-8_TX2_IN1-Pad10)*%
X95350000Y-107380000D03*
%TO.P,U1,11,9_OUT1C*%
%TO.N,unconnected-(U1-9_OUT1C-Pad11)*%
X92810000Y-107380000D03*
%TO.P,U1,12,10_CS_MQSR*%
%TO.N,unconnected-(U1-10_CS_MQSR-Pad12)*%
X90270000Y-107380000D03*
%TO.P,U1,13,11_MOSI_CTX1*%
%TO.N,unconnected-(U1-11_MOSI_CTX1-Pad13)*%
X87730000Y-107380000D03*
%TO.P,U1,14,12_MISO_MQSL*%
%TO.N,unconnected-(U1-12_MISO_MQSL-Pad14)*%
X85190000Y-107380000D03*
%TO.P,U1,15,3V3*%
%TO.N,unconnected-(U1-3V3-Pad15)*%
X82650000Y-107380000D03*
%TO.P,U1,16,24_A10_TX6_SCL2*%
%TO.N,unconnected-(U1-24_A10_TX6_SCL2-Pad16)*%
X80110000Y-107380000D03*
%TO.P,U1,17,25_A11_RX6_SDA2*%
%TO.N,unconnected-(U1-25_A11_RX6_SDA2-Pad17)*%
X77570000Y-107380000D03*
%TO.P,U1,18,26_A12_MOSI1*%
%TO.N,unconnected-(U1-26_A12_MOSI1-Pad18)*%
X75030000Y-107380000D03*
%TO.P,U1,19,27_A13_SCK1*%
%TO.N,unconnected-(U1-27_A13_SCK1-Pad19)*%
X72490000Y-107380000D03*
%TO.P,U1,20,28_RX7*%
%TO.N,unconnected-(U1-28_RX7-Pad20)*%
X69950000Y-107380000D03*
%TO.P,U1,21,29_TX7*%
%TO.N,unconnected-(U1-29_TX7-Pad21)*%
X67410000Y-107380000D03*
%TO.P,U1,22,30_CRX3*%
%TO.N,unconnected-(U1-30_CRX3-Pad22)*%
X64870000Y-107380000D03*
%TO.P,U1,23,31_CTX3*%
%TO.N,unconnected-(U1-31_CTX3-Pad23)*%
X62330000Y-107380000D03*
%TO.P,U1,24,32_OUT1B*%
%TO.N,unconnected-(U1-32_OUT1B-Pad24)*%
X59790000Y-107380000D03*
%TO.P,U1,25,33_MCLK2*%
%TO.N,unconnected-(U1-33_MCLK2-Pad25)*%
X59790000Y-122620000D03*
%TO.P,U1,26,34_RX8*%
%TO.N,unconnected-(U1-34_RX8-Pad26)*%
X62330000Y-122620000D03*
%TO.P,U1,27,35_TX8*%
%TO.N,unconnected-(U1-35_TX8-Pad27)*%
X64870000Y-122620000D03*
%TO.P,U1,28,36_CS*%
%TO.N,unconnected-(U1-36_CS-Pad28)*%
X67410000Y-122620000D03*
%TO.P,U1,29,37_CS*%
%TO.N,unconnected-(U1-37_CS-Pad29)*%
X69950000Y-122620000D03*
%TO.P,U1,30,38_CS1_IN1*%
%TO.N,unconnected-(U1-38_CS1_IN1-Pad30)*%
X72490000Y-122620000D03*
%TO.P,U1,31,39_MISO1_OUT1A*%
%TO.N,unconnected-(U1-39_MISO1_OUT1A-Pad31)*%
X75030000Y-122620000D03*
%TO.P,U1,32,40_A16*%
%TO.N,unconnected-(U1-40_A16-Pad32)*%
X77570000Y-122620000D03*
%TO.P,U1,33,41_A17*%
%TO.N,Net-(U1-41_A17)*%
X80110000Y-122620000D03*
%TO.P,U1,34,GND*%
%TO.N,Net-(SW1-A-Pad1)*%
X82650000Y-122620000D03*
%TO.P,U1,35,13_SCK_LED*%
%TO.N,unconnected-(U1-13_SCK_LED-Pad35)*%
X85190000Y-122620000D03*
%TO.P,U1,36,14_A0_TX3_SPDIF_OUT*%
%TO.N,unconnected-(U1-14_A0_TX3_SPDIF_OUT-Pad36)*%
X87730000Y-122620000D03*
%TO.P,U1,37,15_A1_RX3_SPDIF_IN*%
%TO.N,unconnected-(U1-15_A1_RX3_SPDIF_IN-Pad37)*%
X90270000Y-122620000D03*
%TO.P,U1,38,16_A2_RX4_SCL1*%
%TO.N,unconnected-(U1-16_A2_RX4_SCL1-Pad38)*%
X92810000Y-122620000D03*
%TO.P,U1,39,17_A3_TX4_SDA1*%
%TO.N,unconnected-(U1-17_A3_TX4_SDA1-Pad39)*%
X95350000Y-122620000D03*
%TO.P,U1,40,18_A4_SDA*%
%TO.N,unconnected-(U1-18_A4_SDA-Pad40)*%
X97890000Y-122620000D03*
%TO.P,U1,41,19_A5_SCL*%
%TO.N,unconnected-(U1-19_A5_SCL-Pad41)*%
X100430000Y-122620000D03*
%TO.P,U1,42,20_A6_TX5_LRCLK1*%
%TO.N,unconnected-(U1-20_A6_TX5_LRCLK1-Pad42)*%
X102970000Y-122620000D03*
%TO.P,U1,43,21_A7_RX5_BCLK1*%
%TO.N,unconnected-(U1-21_A7_RX5_BCLK1-Pad43)*%
X105510000Y-122620000D03*
%TO.P,U1,44,22_A8_CTX1*%
%TO.N,unconnected-(U1-22_A8_CTX1-Pad44)*%
X108050000Y-122620000D03*
%TO.P,U1,45,23_A9_CRX1_MCLK1*%
%TO.N,unconnected-(U1-23_A9_CRX1_MCLK1-Pad45)*%
X110590000Y-122620000D03*
%TO.P,U1,46,3V3*%
%TO.N,unconnected-(U1-3V3-Pad46)*%
X113130000Y-122620000D03*
%TO.P,U1,47,GND*%
%TO.N,unconnected-(U1-GND-Pad47)*%
X115670000Y-122620000D03*
%TO.P,U1,48,VIN*%
%TO.N,Net-(M78AR05-1-Vout)*%
X118210000Y-122620000D03*
%TO.P,U1,49,VUSB*%
%TO.N,unconnected-(U1-VUSB-Pad49)*%
X115670000Y-120080000D03*
D15*
%TO.P,U1,55,5V*%
%TO.N,unconnected-(U1-5V-Pad55)*%
X111910800Y-110430800D03*
D10*
%TO.P,U1,56,D-*%
%TO.N,unconnected-(U1-D--Pad56)*%
X109370800Y-110430800D03*
%TO.P,U1,57,D+*%
%TO.N,unconnected-(U1-D+-Pad57)*%
X106830800Y-110430800D03*
%TO.P,U1,58,GND*%
%TO.N,unconnected-(U1-GND-Pad58)*%
X104290800Y-110430800D03*
%TO.P,U1,59,GND*%
%TO.N,unconnected-(U1-GND-Pad59)*%
X101750800Y-110430800D03*
D19*
%TO.P,U1,60,R+*%
%TO.N,Net-(U1-R+)*%
X105240000Y-120181600D03*
D20*
%TO.P,U1,61,LED*%
%TO.N,Net-(U1-LED)*%
X105240000Y-118181600D03*
%TO.P,U1,62,T-*%
%TO.N,Net-(U1-T-)*%
X105240000Y-116181600D03*
%TO.P,U1,63,T+*%
%TO.N,Net-(U1-T+)*%
X103240000Y-116181600D03*
%TO.P,U1,64,GND*%
%TO.N,Net-(U5-GND)*%
X103240000Y-118181600D03*
%TO.P,U1,65,R-*%
%TO.N,Net-(U1-R-)*%
X103240000Y-120181600D03*
%TO.P,U1,66,D-*%
%TO.N,unconnected-(U1-D--Pad66)*%
X117480000Y-116270000D03*
%TO.P,U1,67,D+*%
%TO.N,unconnected-(U1-D+-Pad67)*%
X117480000Y-113730000D03*
%TD*%
D21*
%TO.P,J3,*%
%TO.N,*%
X46000000Y-140000000D03*
X46000000Y-129000000D03*
D22*
%TO.P,J3,1,Pin_1*%
%TO.N,Net-(J3-Pin_1)*%
X51000000Y-137000000D03*
D23*
%TO.P,J3,2,Pin_2*%
%TO.N,Net-(J3-Pin_2)*%
X51000000Y-132000000D03*
%TD*%
D10*
%TO.P,R1,1*%
%TO.N,Net-(SW2-B)*%
X60500000Y-97000000D03*
D11*
%TO.P,R1,2*%
%TO.N,Net-(U6-1A)*%
X50340000Y-97000000D03*
%TD*%
D16*
%TO.P,J1,*%
%TO.N,*%
X96650000Y-52000000D03*
X110150000Y-52000000D03*
D17*
%TO.P,J1,1,Pin_1*%
%TO.N,GNDREF_Bat*%
X107000000Y-58000000D03*
D18*
%TO.P,J1,2,Pin_2*%
%TO.N,Net-(J1-Pin_2)*%
X99800000Y-58000000D03*
%TD*%
D24*
%TO.P,JP7,1,A*%
%TO.N,Net-(J1-Pin_2)*%
X100000000Y-62500000D03*
%TD*%
D15*
%TO.P,U6,1,1A*%
%TO.N,Net-(U6-1A)*%
X47500000Y-107000000D03*
D11*
%TO.P,U6,2,1B*%
%TO.N,Net-(U6-1B)*%
X47500000Y-109540000D03*
%TO.P,U6,3,1Y*%
%TO.N,Net-(JP4-A)*%
X47500000Y-112080000D03*
%TO.P,U6,4,2A*%
%TO.N,unconnected-(U6-2A-Pad4)*%
X47500000Y-114620000D03*
%TO.P,U6,5,2B*%
%TO.N,unconnected-(U6-2B-Pad5)*%
X47500000Y-117160000D03*
%TO.P,U6,6,2Y*%
%TO.N,unconnected-(U6-2Y-Pad6)*%
X47500000Y-119700000D03*
%TO.P,U6,7,GND*%
%TO.N,GNDREF*%
X47500000Y-122240000D03*
%TO.P,U6,8,3Y*%
%TO.N,unconnected-(U6-3Y-Pad8)*%
X55120000Y-122240000D03*
%TO.P,U6,9,3A*%
%TO.N,unconnected-(U6-3A-Pad9)*%
X55120000Y-119700000D03*
%TO.P,U6,10,3B*%
%TO.N,unconnected-(U6-3B-Pad10)*%
X55120000Y-117160000D03*
%TO.P,U6,11,4Y*%
%TO.N,unconnected-(U6-4Y-Pad11)*%
X55120000Y-114620000D03*
%TO.P,U6,12,4A*%
%TO.N,unconnected-(U6-4A-Pad12)*%
X55120000Y-112080000D03*
%TO.P,U6,13,4B*%
%TO.N,unconnected-(U6-4B-Pad13)*%
X55120000Y-109540000D03*
%TO.P,U6,14,Vcc*%
%TO.N,Net-(M78AR05-1-Vout)*%
X55120000Y-107000000D03*
%TD*%
D25*
%TO.P,SW1,1,A*%
%TO.N,Net-(SW1-A-Pad1)*%
X82540000Y-127460000D03*
%TO.P,SW1,2,B*%
%TO.N,Net-(J3-Pin_1)*%
X82540000Y-130000000D03*
%TO.P,SW1,3,C*%
%TO.N,Net-(SW1-C-Pad3)*%
X82540000Y-132540000D03*
%TO.P,SW1,4,A*%
%TO.N,Net-(U1-41_A17)*%
X77460000Y-127460000D03*
%TO.P,SW1,5,B*%
%TO.N,Net-(J3-Pin_2)*%
X77460000Y-130000000D03*
%TO.P,SW1,6,C*%
%TO.N,Net-(SW1-C-Pad6)*%
X77460000Y-132540000D03*
%TD*%
D26*
%TO.P,U5,*%
%TO.N,*%
X93250000Y-135950000D03*
D23*
X95285000Y-139000000D03*
X106715000Y-139000000D03*
D26*
X108750000Y-135950000D03*
%TO.P,U5,1,TD+*%
%TO.N,Net-(U1-T+)*%
X96555000Y-132650000D03*
%TO.P,U5,2,TD-*%
%TO.N,Net-(U1-T-)*%
X97825000Y-130110000D03*
%TO.P,U5,3,RD+*%
%TO.N,Net-(U1-R+)*%
X99095000Y-132650000D03*
%TO.P,U5,4,CT*%
%TO.N,Net-(C1-Pad2)*%
X100365000Y-130110000D03*
%TO.P,U5,5,CT*%
X101635000Y-132650000D03*
%TO.P,U5,6,RD-*%
%TO.N,Net-(U1-R-)*%
X102905000Y-130110000D03*
%TO.P,U5,7*%
%TO.N,unconnected-(U5-Pad7)*%
X104175000Y-132650000D03*
%TO.P,U5,8,GND*%
%TO.N,Net-(U5-GND)*%
X105445000Y-130110000D03*
D27*
%TO.P,U5,9*%
X94675000Y-144080000D03*
%TO.P,U5,10*%
%TO.N,Net-(U1-LED)*%
X97215000Y-142380000D03*
%TO.P,U5,11*%
%TO.N,unconnected-(U5-Pad11)*%
X104785000Y-144080000D03*
%TO.P,U5,12*%
%TO.N,unconnected-(U5-Pad12)*%
X107325000Y-142380000D03*
%TD*%
D28*
%TO.P,M78AR05-1,1,Vin*%
%TO.N,+12V*%
X60500000Y-72710000D03*
%TO.P,M78AR05-1,2,GND*%
%TO.N,GNDREF*%
X60500000Y-75250000D03*
%TO.P,M78AR05-1,3,Vout*%
%TO.N,Net-(M78AR05-1-Vout)*%
X60516000Y-77790000D03*
%TD*%
D29*
%TO.P,F1,1*%
%TO.N,Net-(J2-Pin_2)*%
X71735000Y-56700000D03*
X71735000Y-53300000D03*
%TO.P,F1,2*%
%TO.N,Net-(JP2-A)*%
X58265000Y-56700000D03*
X58265000Y-53300000D03*
%TD*%
D10*
%TO.P,R2,1*%
%TO.N,Net-(R2-Pad1)*%
X49000000Y-83000000D03*
D11*
%TO.P,R2,2*%
%TO.N,Net-(U6-1B)*%
X49000000Y-93160000D03*
%TD*%
D14*
%TO.P,JP5,1,A*%
%TO.N,GNDREF*%
X118000000Y-102500000D03*
%TD*%
D30*
%TO.P,U4,*%
%TO.N,*%
X105000000Y-91500000D03*
X105000000Y-67500000D03*
X57000000Y-91500000D03*
X57000000Y-67500000D03*
%TD*%
D15*
%TO.P,U3,1*%
%TO.N,Net-(R7-Pad1)*%
X52000000Y-71500000D03*
D11*
%TO.P,U3,2*%
%TO.N,Net-(J4-Pin_1)*%
X49460000Y-71500000D03*
%TO.P,U3,3*%
%TO.N,Net-(R2-Pad1)*%
X49460000Y-79120000D03*
%TO.P,U3,4*%
%TO.N,Net-(M78AR05-1-Vout)*%
X52000000Y-79120000D03*
%TD*%
D24*
%TO.P,JP2,1,A*%
%TO.N,Net-(JP2-A)*%
X52000000Y-55000000D03*
%TD*%
D10*
%TO.P,SW2,1,A*%
%TO.N,GNDREF*%
X65000000Y-97000000D03*
%TO.P,SW2,2,B*%
%TO.N,Net-(SW2-B)*%
X67500000Y-97000000D03*
%TO.P,SW2,3,C*%
%TO.N,Net-(M78AR05-1-Vout)*%
X70000000Y-97000000D03*
%TD*%
%TO.P,R8,1*%
%TO.N,Net-(R7-Pad2)*%
X75000000Y-92000000D03*
D11*
%TO.P,R8,2*%
%TO.N,Net-(J4-Pin_2)*%
X85160000Y-92000000D03*
%TD*%
D21*
%TO.P,U7,*%
%TO.N,*%
X73680000Y-86110000D03*
%TO.P,U7,2,-Vin*%
%TO.N,GNDREF_Bat*%
X91460000Y-86110000D03*
%TO.P,U7,3,-Vin*%
X88920000Y-86110000D03*
%TO.P,U7,11,NC*%
%TO.N,unconnected-(U7-NC-Pad11)*%
X68600000Y-86110000D03*
%TO.P,U7,14,+Vout*%
%TO.N,+12V*%
X68600000Y-70890000D03*
%TO.P,U7,16,-Vout*%
%TO.N,GNDREF*%
X73680000Y-70890000D03*
%TO.P,U7,22,+Vin*%
%TO.N,Net-(J1-Pin_2)*%
X88920000Y-70890000D03*
%TO.P,U7,23,+Vin*%
X91460000Y-70890000D03*
%TD*%
D10*
%TO.P,R6,1*%
%TO.N,Net-(U1-41_A17)*%
X63000000Y-127500000D03*
D11*
%TO.P,R6,2*%
%TO.N,Net-(R5-Pad1)*%
X63000000Y-137660000D03*
%TD*%
D31*
%TO.P,D2,1,K*%
%TO.N,GNDREF*%
X79500000Y-102000000D03*
D26*
%TO.P,D2,2,A*%
%TO.N,Net-(D2-A)*%
X76960000Y-102000000D03*
%TD*%
D10*
%TO.P,R7,1*%
%TO.N,Net-(R7-Pad1)*%
X62000000Y-92000000D03*
D11*
%TO.P,R7,2*%
%TO.N,Net-(R7-Pad2)*%
X72160000Y-92000000D03*
%TD*%
D10*
%TO.P,C1,1*%
%TO.N,Net-(U5-GND)*%
X106000000Y-126000000D03*
%TO.P,C1,2*%
%TO.N,Net-(C1-Pad2)*%
X101000000Y-126000000D03*
%TD*%
%TO.P,R4,1*%
%TO.N,Net-(D2-A)*%
X60500000Y-102000000D03*
D11*
%TO.P,R4,2*%
%TO.N,Net-(JP4-A)*%
X50340000Y-102000000D03*
%TD*%
D32*
%TO.N,Net-(D2-A)*%
X60500000Y-102000000D02*
X76960000Y-102000000D01*
D33*
%TO.N,Net-(J2-Pin_2)*%
X73035000Y-58000000D02*
X71735000Y-56700000D01*
X81800000Y-58000000D02*
X73035000Y-58000000D01*
X71735000Y-56700000D02*
X71735000Y-53500000D01*
D32*
%TO.N,+12V*%
X60500000Y-72710000D02*
X60500000Y-64000000D01*
X50500000Y-63500000D02*
X50500000Y-65500000D01*
X68600000Y-70890000D02*
X62320000Y-70890000D01*
X62320000Y-70890000D02*
X60500000Y-72710000D01*
X60500000Y-64000000D02*
X58500000Y-62000000D01*
X58500000Y-62000000D02*
X52000000Y-62000000D01*
X52000000Y-62000000D02*
X50500000Y-63500000D01*
%TO.N,Net-(J3-Pin_2)*%
X77460000Y-130000000D02*
X53000000Y-130000000D01*
X53000000Y-130000000D02*
X51000000Y-132000000D01*
%TO.N,Net-(J4-Pin_1)*%
X48660001Y-62339999D02*
X50200000Y-60800000D01*
X48660001Y-70700001D02*
X48660001Y-62339999D01*
X90802410Y-81000000D02*
X114000000Y-81000000D01*
X70602410Y-60800000D02*
X90802410Y-81000000D01*
X49460000Y-71500000D02*
X48660001Y-70700001D01*
X50200000Y-60800000D02*
X70602410Y-60800000D01*
%TO.N,Net-(J4-Pin_2)*%
X114000000Y-83500000D02*
X107000000Y-83500000D01*
X107000000Y-83500000D02*
X98500000Y-92000000D01*
X98500000Y-92000000D02*
X85160000Y-92000000D01*
%TO.N,Net-(M78AR05-1-Vout)*%
X118210000Y-122620000D02*
X120330000Y-120500000D01*
X55120000Y-105258679D02*
X57000000Y-103378679D01*
X59000000Y-100000000D02*
X67000000Y-100000000D01*
X57000000Y-103378679D02*
X57000000Y-102000000D01*
X55120000Y-107000000D02*
X55120000Y-105258679D01*
X60516000Y-77790000D02*
X53330000Y-77790000D01*
X120500000Y-120500000D02*
X120500000Y-100000000D01*
X117500000Y-97000000D02*
X70000000Y-97000000D01*
X53330000Y-77790000D02*
X52000000Y-79120000D01*
X120500000Y-100000000D02*
X117500000Y-97000000D01*
X67000000Y-100000000D02*
X70000000Y-97000000D01*
X120330000Y-120500000D02*
X120500000Y-120500000D01*
X57000000Y-102000000D02*
X59000000Y-100000000D01*
%TO.N,Net-(JP4-A)*%
X44080000Y-112080000D02*
X44000000Y-112000000D01*
X50340000Y-109240000D02*
X47500000Y-112080000D01*
X47500000Y-112080000D02*
X44080000Y-112080000D01*
X50340000Y-102000000D02*
X50340000Y-109240000D01*
D34*
%TO.N,Net-(U1-T+)*%
X103240000Y-114946000D02*
X103886000Y-114300000D01*
X98988500Y-129841062D02*
X98988500Y-130754500D01*
X100330000Y-113538000D02*
X99366500Y-114501500D01*
X103240000Y-116181600D02*
X103240000Y-114946000D01*
X103886000Y-113919000D02*
X103505000Y-113538000D01*
X98988500Y-130754500D02*
X97093000Y-132650000D01*
X99366500Y-129463062D02*
X98988500Y-129841062D01*
X103505000Y-113538000D02*
X100330000Y-113538000D01*
X97093000Y-132650000D02*
X96555000Y-132650000D01*
X103886000Y-114300000D02*
X103886000Y-113919000D01*
X99366500Y-114501500D02*
X99366500Y-129463062D01*
%TO.N,Net-(U1-LED)*%
X110490000Y-142240000D02*
X106426000Y-146304000D01*
X110490000Y-135382000D02*
X110490000Y-142240000D01*
X106426000Y-146304000D02*
X101139000Y-146304000D01*
X108021600Y-118181600D02*
X109220000Y-119380000D01*
X105240000Y-118181600D02*
X108021600Y-118181600D01*
X109220000Y-134112000D02*
X110490000Y-135382000D01*
X101139000Y-146304000D02*
X97215000Y-142380000D01*
X109220000Y-119380000D02*
X109220000Y-134112000D01*
%TO.N,Net-(U1-T-)*%
X104394000Y-113792000D02*
X103632000Y-113030000D01*
X99039500Y-128895500D02*
X97825000Y-130110000D01*
X99039500Y-114320500D02*
X99039500Y-128895500D01*
X104394000Y-114300000D02*
X104394000Y-113792000D01*
X100330000Y-113030000D02*
X99039500Y-114320500D01*
X103632000Y-113030000D02*
X100330000Y-113030000D01*
X105240000Y-115146000D02*
X104394000Y-114300000D01*
X105240000Y-116181600D02*
X105240000Y-115146000D01*
D35*
%TO.N,Net-(U5-GND)*%
X106000000Y-126000000D02*
X106000000Y-129555000D01*
X106760000Y-122102233D02*
X106760000Y-125240000D01*
X102140000Y-119281600D02*
X102140000Y-120637235D01*
X105939367Y-121281600D02*
X106760000Y-122102233D01*
X106000000Y-129555000D02*
X105445000Y-130110000D01*
X102784365Y-121281600D02*
X105939367Y-121281600D01*
X103240000Y-118181600D02*
X102140000Y-119281600D01*
D34*
X105445000Y-130110000D02*
X105445000Y-130845000D01*
D35*
X102140000Y-120637235D02*
X102784365Y-121281600D01*
X106760000Y-125240000D02*
X106000000Y-126000000D01*
D34*
%TO.N,Net-(U1-R+)*%
X105240000Y-120181600D02*
X105240000Y-120693000D01*
D32*
%TO.N,Net-(R5-Pad1)*%
X68000000Y-144000000D02*
X68000000Y-142660000D01*
X68000000Y-142660000D02*
X63000000Y-137660000D01*
%TO.N,Net-(R5-Pad2)*%
X68000000Y-134000000D02*
X74000000Y-140000000D01*
D35*
X74000000Y-139840000D02*
X74000000Y-140000000D01*
D32*
X68000000Y-133840000D02*
X68000000Y-134000000D01*
%TO.N,Net-(R7-Pad2)*%
X75000000Y-92000000D02*
X72160000Y-92000000D01*
D33*
%TO.N,Net-(JP2-A)*%
X53700000Y-56700000D02*
X52000000Y-55000000D01*
X58265000Y-56700000D02*
X53700000Y-56700000D01*
X58265000Y-56700000D02*
X58265000Y-53500000D01*
D34*
%TO.N,Net-(C1-Pad2)*%
X101635000Y-131380000D02*
X101635000Y-132650000D01*
X100365000Y-130110000D02*
X101635000Y-131380000D01*
X101000000Y-129475000D02*
X100365000Y-130110000D01*
X101000000Y-126000000D02*
X101000000Y-129475000D01*
D32*
%TO.N,Net-(U6-1B)*%
X49000000Y-105500000D02*
X49000000Y-108500000D01*
X49000000Y-108500000D02*
X47960000Y-109540000D01*
X46000000Y-96160000D02*
X46000000Y-102500000D01*
X46000000Y-102500000D02*
X49000000Y-105500000D01*
X47960000Y-109540000D02*
X47500000Y-109540000D01*
X49000000Y-93160000D02*
X46000000Y-96160000D01*
%TO.N,Net-(SW1-A-Pad1)*%
X74500000Y-147000000D02*
X84500000Y-147000000D01*
X86000000Y-145500000D02*
X86000000Y-130920000D01*
X86000000Y-130920000D02*
X82540000Y-127460000D01*
X74000000Y-146500000D02*
X74500000Y-147000000D01*
X74000000Y-142540000D02*
X74000000Y-146500000D01*
X82650000Y-122620000D02*
X82650000Y-127350000D01*
X82650000Y-127350000D02*
X82540000Y-127460000D01*
X84500000Y-147000000D02*
X86000000Y-145500000D01*
%TO.N,Net-(U1-41_A17)*%
X63000000Y-127500000D02*
X77420000Y-127500000D01*
X77420000Y-127500000D02*
X77460000Y-127460000D01*
X80110000Y-122620000D02*
X80110000Y-124810000D01*
X80110000Y-124810000D02*
X77460000Y-127460000D01*
D33*
%TO.N,Net-(J1-Pin_2)*%
X88920000Y-70890000D02*
X91460000Y-70890000D01*
X99800000Y-58000000D02*
X99800000Y-62300000D01*
X99850000Y-62500000D02*
X91460000Y-70890000D01*
X100000000Y-62500000D02*
X99850000Y-62500000D01*
X99800000Y-62300000D02*
X100000000Y-62500000D01*
D32*
%TO.N,GNDREF*%
X118000000Y-107170000D02*
X118210000Y-107380000D01*
X65000000Y-79570000D02*
X65000000Y-97000000D01*
X73680000Y-70890000D02*
X69320000Y-75250000D01*
X80000000Y-102500000D02*
X79500000Y-102000000D01*
X118000000Y-102500000D02*
X118000000Y-107170000D01*
X118000000Y-102500000D02*
X80000000Y-102500000D01*
X69320000Y-75250000D02*
X60500000Y-75250000D01*
X69320000Y-75250000D02*
X65000000Y-79570000D01*
%TO.N,Net-(SW1-C-Pad3)*%
X82540000Y-132540000D02*
X83629999Y-133629999D01*
X83629999Y-140530001D02*
X81620000Y-142540000D01*
X83629999Y-133629999D02*
X83629999Y-140530001D01*
D36*
%TO.N,GNDREF_Bat*%
X88920000Y-86110000D02*
X91460000Y-86110000D01*
D32*
%TO.N,Net-(SW1-C-Pad6)*%
X81620000Y-136700000D02*
X77460000Y-132540000D01*
X81620000Y-140000000D02*
X81620000Y-136700000D01*
%TO.N,Net-(R2-Pad1)*%
X49460000Y-79120000D02*
X49460000Y-82540000D01*
X49460000Y-82540000D02*
X49000000Y-83000000D01*
%TD*%
M02*
