%TF.GenerationSoftware,KiCad,Pcbnew,8.0.8-8.0.8-0~ubuntu22.04.1*%
%TF.CreationDate,2025-03-22T00:56:03+00:00*%
%TF.ProjectId,miniv_motor_controller_board,6d696e69-765f-46d6-9f74-6f725f636f6e,rev?*%
%TF.SameCoordinates,Original*%
%TF.FileFunction,Legend,Top*%
%TF.FilePolarity,Positive*%
%FSLAX46Y46*%
G04 Gerber Fmt 4.6, Leading zero omitted, Abs format (unit mm)*
G04 Created by KiCad (PCBNEW 8.0.8-8.0.8-0~ubuntu22.04.1) date 2025-03-22 00:56:03*
%MOMM*%
%LPD*%
G01*
G04 APERTURE LIST*
%ADD10C,0.150000*%
%ADD11C,0.100000*%
%ADD12C,0.120000*%
G04 APERTURE END LIST*
D10*
X66084819Y-139086666D02*
X65608628Y-139419999D01*
X66084819Y-139658094D02*
X65084819Y-139658094D01*
X65084819Y-139658094D02*
X65084819Y-139277142D01*
X65084819Y-139277142D02*
X65132438Y-139181904D01*
X65132438Y-139181904D02*
X65180057Y-139134285D01*
X65180057Y-139134285D02*
X65275295Y-139086666D01*
X65275295Y-139086666D02*
X65418152Y-139086666D01*
X65418152Y-139086666D02*
X65513390Y-139134285D01*
X65513390Y-139134285D02*
X65561009Y-139181904D01*
X65561009Y-139181904D02*
X65608628Y-139277142D01*
X65608628Y-139277142D02*
X65608628Y-139658094D01*
X65084819Y-138181904D02*
X65084819Y-138658094D01*
X65084819Y-138658094D02*
X65561009Y-138705713D01*
X65561009Y-138705713D02*
X65513390Y-138658094D01*
X65513390Y-138658094D02*
X65465771Y-138562856D01*
X65465771Y-138562856D02*
X65465771Y-138324761D01*
X65465771Y-138324761D02*
X65513390Y-138229523D01*
X65513390Y-138229523D02*
X65561009Y-138181904D01*
X65561009Y-138181904D02*
X65656247Y-138134285D01*
X65656247Y-138134285D02*
X65894342Y-138134285D01*
X65894342Y-138134285D02*
X65989580Y-138181904D01*
X65989580Y-138181904D02*
X66037200Y-138229523D01*
X66037200Y-138229523D02*
X66084819Y-138324761D01*
X66084819Y-138324761D02*
X66084819Y-138562856D01*
X66084819Y-138562856D02*
X66037200Y-138658094D01*
X66037200Y-138658094D02*
X65989580Y-138705713D01*
X117004819Y-82583333D02*
X117719104Y-82583333D01*
X117719104Y-82583333D02*
X117861961Y-82630952D01*
X117861961Y-82630952D02*
X117957200Y-82726190D01*
X117957200Y-82726190D02*
X118004819Y-82869047D01*
X118004819Y-82869047D02*
X118004819Y-82964285D01*
X117338152Y-81678571D02*
X118004819Y-81678571D01*
X116957200Y-81916666D02*
X117671485Y-82154761D01*
X117671485Y-82154761D02*
X117671485Y-81535714D01*
X43166666Y-109454819D02*
X43166666Y-110169104D01*
X43166666Y-110169104D02*
X43119047Y-110311961D01*
X43119047Y-110311961D02*
X43023809Y-110407200D01*
X43023809Y-110407200D02*
X42880952Y-110454819D01*
X42880952Y-110454819D02*
X42785714Y-110454819D01*
X43642857Y-110454819D02*
X43642857Y-109454819D01*
X43642857Y-109454819D02*
X44023809Y-109454819D01*
X44023809Y-109454819D02*
X44119047Y-109502438D01*
X44119047Y-109502438D02*
X44166666Y-109550057D01*
X44166666Y-109550057D02*
X44214285Y-109645295D01*
X44214285Y-109645295D02*
X44214285Y-109788152D01*
X44214285Y-109788152D02*
X44166666Y-109883390D01*
X44166666Y-109883390D02*
X44119047Y-109931009D01*
X44119047Y-109931009D02*
X44023809Y-109978628D01*
X44023809Y-109978628D02*
X43642857Y-109978628D01*
X45071428Y-109788152D02*
X45071428Y-110454819D01*
X44833333Y-109407200D02*
X44595238Y-110121485D01*
X44595238Y-110121485D02*
X45214285Y-110121485D01*
X77048095Y-137124819D02*
X77048095Y-137934342D01*
X77048095Y-137934342D02*
X77095714Y-138029580D01*
X77095714Y-138029580D02*
X77143333Y-138077200D01*
X77143333Y-138077200D02*
X77238571Y-138124819D01*
X77238571Y-138124819D02*
X77429047Y-138124819D01*
X77429047Y-138124819D02*
X77524285Y-138077200D01*
X77524285Y-138077200D02*
X77571904Y-138029580D01*
X77571904Y-138029580D02*
X77619523Y-137934342D01*
X77619523Y-137934342D02*
X77619523Y-137124819D01*
X78048095Y-137220057D02*
X78095714Y-137172438D01*
X78095714Y-137172438D02*
X78190952Y-137124819D01*
X78190952Y-137124819D02*
X78429047Y-137124819D01*
X78429047Y-137124819D02*
X78524285Y-137172438D01*
X78524285Y-137172438D02*
X78571904Y-137220057D01*
X78571904Y-137220057D02*
X78619523Y-137315295D01*
X78619523Y-137315295D02*
X78619523Y-137410533D01*
X78619523Y-137410533D02*
X78571904Y-137553390D01*
X78571904Y-137553390D02*
X78000476Y-138124819D01*
X78000476Y-138124819D02*
X78619523Y-138124819D01*
X85066666Y-40954819D02*
X85066666Y-41669104D01*
X85066666Y-41669104D02*
X85019047Y-41811961D01*
X85019047Y-41811961D02*
X84923809Y-41907200D01*
X84923809Y-41907200D02*
X84780952Y-41954819D01*
X84780952Y-41954819D02*
X84685714Y-41954819D01*
X85495238Y-41050057D02*
X85542857Y-41002438D01*
X85542857Y-41002438D02*
X85638095Y-40954819D01*
X85638095Y-40954819D02*
X85876190Y-40954819D01*
X85876190Y-40954819D02*
X85971428Y-41002438D01*
X85971428Y-41002438D02*
X86019047Y-41050057D01*
X86019047Y-41050057D02*
X86066666Y-41145295D01*
X86066666Y-41145295D02*
X86066666Y-41240533D01*
X86066666Y-41240533D02*
X86019047Y-41383390D01*
X86019047Y-41383390D02*
X85447619Y-41954819D01*
X85447619Y-41954819D02*
X86066666Y-41954819D01*
X91419048Y-60573866D02*
X92180953Y-60573866D01*
X78928571Y-60614700D02*
X80071429Y-60614700D01*
X79500000Y-61186128D02*
X79500000Y-60043271D01*
X49666666Y-62954819D02*
X49666666Y-63669104D01*
X49666666Y-63669104D02*
X49619047Y-63811961D01*
X49619047Y-63811961D02*
X49523809Y-63907200D01*
X49523809Y-63907200D02*
X49380952Y-63954819D01*
X49380952Y-63954819D02*
X49285714Y-63954819D01*
X50142857Y-63954819D02*
X50142857Y-62954819D01*
X50142857Y-62954819D02*
X50523809Y-62954819D01*
X50523809Y-62954819D02*
X50619047Y-63002438D01*
X50619047Y-63002438D02*
X50666666Y-63050057D01*
X50666666Y-63050057D02*
X50714285Y-63145295D01*
X50714285Y-63145295D02*
X50714285Y-63288152D01*
X50714285Y-63288152D02*
X50666666Y-63383390D01*
X50666666Y-63383390D02*
X50619047Y-63431009D01*
X50619047Y-63431009D02*
X50523809Y-63478628D01*
X50523809Y-63478628D02*
X50142857Y-63478628D01*
X51571428Y-62954819D02*
X51380952Y-62954819D01*
X51380952Y-62954819D02*
X51285714Y-63002438D01*
X51285714Y-63002438D02*
X51238095Y-63050057D01*
X51238095Y-63050057D02*
X51142857Y-63192914D01*
X51142857Y-63192914D02*
X51095238Y-63383390D01*
X51095238Y-63383390D02*
X51095238Y-63764342D01*
X51095238Y-63764342D02*
X51142857Y-63859580D01*
X51142857Y-63859580D02*
X51190476Y-63907200D01*
X51190476Y-63907200D02*
X51285714Y-63954819D01*
X51285714Y-63954819D02*
X51476190Y-63954819D01*
X51476190Y-63954819D02*
X51571428Y-63907200D01*
X51571428Y-63907200D02*
X51619047Y-63859580D01*
X51619047Y-63859580D02*
X51666666Y-63764342D01*
X51666666Y-63764342D02*
X51666666Y-63526247D01*
X51666666Y-63526247D02*
X51619047Y-63431009D01*
X51619047Y-63431009D02*
X51571428Y-63383390D01*
X51571428Y-63383390D02*
X51476190Y-63335771D01*
X51476190Y-63335771D02*
X51285714Y-63335771D01*
X51285714Y-63335771D02*
X51190476Y-63383390D01*
X51190476Y-63383390D02*
X51142857Y-63431009D01*
X51142857Y-63431009D02*
X51095238Y-63526247D01*
X88238095Y-124614819D02*
X88238095Y-125424342D01*
X88238095Y-125424342D02*
X88285714Y-125519580D01*
X88285714Y-125519580D02*
X88333333Y-125567200D01*
X88333333Y-125567200D02*
X88428571Y-125614819D01*
X88428571Y-125614819D02*
X88619047Y-125614819D01*
X88619047Y-125614819D02*
X88714285Y-125567200D01*
X88714285Y-125567200D02*
X88761904Y-125519580D01*
X88761904Y-125519580D02*
X88809523Y-125424342D01*
X88809523Y-125424342D02*
X88809523Y-124614819D01*
X89809523Y-125614819D02*
X89238095Y-125614819D01*
X89523809Y-125614819D02*
X89523809Y-124614819D01*
X89523809Y-124614819D02*
X89428571Y-124757676D01*
X89428571Y-124757676D02*
X89333333Y-124852914D01*
X89333333Y-124852914D02*
X89238095Y-124900533D01*
X90586033Y-118083333D02*
X89886033Y-118083333D01*
X89886033Y-118083333D02*
X90386033Y-117850000D01*
X90386033Y-117850000D02*
X89886033Y-117616666D01*
X89886033Y-117616666D02*
X90586033Y-117616666D01*
X90586033Y-117283333D02*
X89886033Y-117283333D01*
X90586033Y-116950000D02*
X89886033Y-116950000D01*
X89886033Y-116950000D02*
X90386033Y-116716667D01*
X90386033Y-116716667D02*
X89886033Y-116483333D01*
X89886033Y-116483333D02*
X90586033Y-116483333D01*
X89886033Y-116216667D02*
X90586033Y-115750000D01*
X89886033Y-115750000D02*
X90586033Y-116216667D01*
X90586033Y-115083333D02*
X90252700Y-115316666D01*
X90586033Y-115483333D02*
X89886033Y-115483333D01*
X89886033Y-115483333D02*
X89886033Y-115216666D01*
X89886033Y-115216666D02*
X89919366Y-115150000D01*
X89919366Y-115150000D02*
X89952700Y-115116666D01*
X89952700Y-115116666D02*
X90019366Y-115083333D01*
X90019366Y-115083333D02*
X90119366Y-115083333D01*
X90119366Y-115083333D02*
X90186033Y-115116666D01*
X90186033Y-115116666D02*
X90219366Y-115150000D01*
X90219366Y-115150000D02*
X90252700Y-115216666D01*
X90252700Y-115216666D02*
X90252700Y-115483333D01*
X89886033Y-114883333D02*
X89886033Y-114483333D01*
X90586033Y-114683333D02*
X89886033Y-114683333D01*
X90586033Y-113883333D02*
X90586033Y-114283333D01*
X90586033Y-114083333D02*
X89886033Y-114083333D01*
X89886033Y-114083333D02*
X89986033Y-114150000D01*
X89986033Y-114150000D02*
X90052700Y-114216667D01*
X90052700Y-114216667D02*
X90086033Y-114283333D01*
X89886033Y-113450000D02*
X89886033Y-113383333D01*
X89886033Y-113383333D02*
X89919366Y-113316666D01*
X89919366Y-113316666D02*
X89952700Y-113283333D01*
X89952700Y-113283333D02*
X90019366Y-113250000D01*
X90019366Y-113250000D02*
X90152700Y-113216666D01*
X90152700Y-113216666D02*
X90319366Y-113216666D01*
X90319366Y-113216666D02*
X90452700Y-113250000D01*
X90452700Y-113250000D02*
X90519366Y-113283333D01*
X90519366Y-113283333D02*
X90552700Y-113316666D01*
X90552700Y-113316666D02*
X90586033Y-113383333D01*
X90586033Y-113383333D02*
X90586033Y-113450000D01*
X90586033Y-113450000D02*
X90552700Y-113516666D01*
X90552700Y-113516666D02*
X90519366Y-113550000D01*
X90519366Y-113550000D02*
X90452700Y-113583333D01*
X90452700Y-113583333D02*
X90319366Y-113616666D01*
X90319366Y-113616666D02*
X90152700Y-113616666D01*
X90152700Y-113616666D02*
X90019366Y-113583333D01*
X90019366Y-113583333D02*
X89952700Y-113550000D01*
X89952700Y-113550000D02*
X89919366Y-113516666D01*
X89919366Y-113516666D02*
X89886033Y-113450000D01*
X89886033Y-112616666D02*
X89886033Y-112749999D01*
X89886033Y-112749999D02*
X89919366Y-112816666D01*
X89919366Y-112816666D02*
X89952700Y-112849999D01*
X89952700Y-112849999D02*
X90052700Y-112916666D01*
X90052700Y-112916666D02*
X90186033Y-112949999D01*
X90186033Y-112949999D02*
X90452700Y-112949999D01*
X90452700Y-112949999D02*
X90519366Y-112916666D01*
X90519366Y-112916666D02*
X90552700Y-112883333D01*
X90552700Y-112883333D02*
X90586033Y-112816666D01*
X90586033Y-112816666D02*
X90586033Y-112683333D01*
X90586033Y-112683333D02*
X90552700Y-112616666D01*
X90552700Y-112616666D02*
X90519366Y-112583333D01*
X90519366Y-112583333D02*
X90452700Y-112549999D01*
X90452700Y-112549999D02*
X90286033Y-112549999D01*
X90286033Y-112549999D02*
X90219366Y-112583333D01*
X90219366Y-112583333D02*
X90186033Y-112616666D01*
X90186033Y-112616666D02*
X90152700Y-112683333D01*
X90152700Y-112683333D02*
X90152700Y-112816666D01*
X90152700Y-112816666D02*
X90186033Y-112883333D01*
X90186033Y-112883333D02*
X90219366Y-112916666D01*
X90219366Y-112916666D02*
X90286033Y-112949999D01*
X89952700Y-112283332D02*
X89919366Y-112249999D01*
X89919366Y-112249999D02*
X89886033Y-112183332D01*
X89886033Y-112183332D02*
X89886033Y-112016666D01*
X89886033Y-112016666D02*
X89919366Y-111949999D01*
X89919366Y-111949999D02*
X89952700Y-111916666D01*
X89952700Y-111916666D02*
X90019366Y-111883332D01*
X90019366Y-111883332D02*
X90086033Y-111883332D01*
X90086033Y-111883332D02*
X90186033Y-111916666D01*
X90186033Y-111916666D02*
X90586033Y-112316666D01*
X90586033Y-112316666D02*
X90586033Y-111883332D01*
X61750952Y-115454819D02*
X61750952Y-114454819D01*
X61750952Y-114454819D02*
X62084285Y-115169104D01*
X62084285Y-115169104D02*
X62417618Y-114454819D01*
X62417618Y-114454819D02*
X62417618Y-115454819D01*
X62893809Y-115454819D02*
X62893809Y-114788152D01*
X62893809Y-114454819D02*
X62846190Y-114502438D01*
X62846190Y-114502438D02*
X62893809Y-114550057D01*
X62893809Y-114550057D02*
X62941428Y-114502438D01*
X62941428Y-114502438D02*
X62893809Y-114454819D01*
X62893809Y-114454819D02*
X62893809Y-114550057D01*
X63798570Y-115407200D02*
X63703332Y-115454819D01*
X63703332Y-115454819D02*
X63512856Y-115454819D01*
X63512856Y-115454819D02*
X63417618Y-115407200D01*
X63417618Y-115407200D02*
X63369999Y-115359580D01*
X63369999Y-115359580D02*
X63322380Y-115264342D01*
X63322380Y-115264342D02*
X63322380Y-114978628D01*
X63322380Y-114978628D02*
X63369999Y-114883390D01*
X63369999Y-114883390D02*
X63417618Y-114835771D01*
X63417618Y-114835771D02*
X63512856Y-114788152D01*
X63512856Y-114788152D02*
X63703332Y-114788152D01*
X63703332Y-114788152D02*
X63798570Y-114835771D01*
X64227142Y-115454819D02*
X64227142Y-114788152D01*
X64227142Y-114978628D02*
X64274761Y-114883390D01*
X64274761Y-114883390D02*
X64322380Y-114835771D01*
X64322380Y-114835771D02*
X64417618Y-114788152D01*
X64417618Y-114788152D02*
X64512856Y-114788152D01*
X64989047Y-115454819D02*
X64893809Y-115407200D01*
X64893809Y-115407200D02*
X64846190Y-115359580D01*
X64846190Y-115359580D02*
X64798571Y-115264342D01*
X64798571Y-115264342D02*
X64798571Y-114978628D01*
X64798571Y-114978628D02*
X64846190Y-114883390D01*
X64846190Y-114883390D02*
X64893809Y-114835771D01*
X64893809Y-114835771D02*
X64989047Y-114788152D01*
X64989047Y-114788152D02*
X65131904Y-114788152D01*
X65131904Y-114788152D02*
X65227142Y-114835771D01*
X65227142Y-114835771D02*
X65274761Y-114883390D01*
X65274761Y-114883390D02*
X65322380Y-114978628D01*
X65322380Y-114978628D02*
X65322380Y-115264342D01*
X65322380Y-115264342D02*
X65274761Y-115359580D01*
X65274761Y-115359580D02*
X65227142Y-115407200D01*
X65227142Y-115407200D02*
X65131904Y-115454819D01*
X65131904Y-115454819D02*
X64989047Y-115454819D01*
X66465238Y-115407200D02*
X66608095Y-115454819D01*
X66608095Y-115454819D02*
X66846190Y-115454819D01*
X66846190Y-115454819D02*
X66941428Y-115407200D01*
X66941428Y-115407200D02*
X66989047Y-115359580D01*
X66989047Y-115359580D02*
X67036666Y-115264342D01*
X67036666Y-115264342D02*
X67036666Y-115169104D01*
X67036666Y-115169104D02*
X66989047Y-115073866D01*
X66989047Y-115073866D02*
X66941428Y-115026247D01*
X66941428Y-115026247D02*
X66846190Y-114978628D01*
X66846190Y-114978628D02*
X66655714Y-114931009D01*
X66655714Y-114931009D02*
X66560476Y-114883390D01*
X66560476Y-114883390D02*
X66512857Y-114835771D01*
X66512857Y-114835771D02*
X66465238Y-114740533D01*
X66465238Y-114740533D02*
X66465238Y-114645295D01*
X66465238Y-114645295D02*
X66512857Y-114550057D01*
X66512857Y-114550057D02*
X66560476Y-114502438D01*
X66560476Y-114502438D02*
X66655714Y-114454819D01*
X66655714Y-114454819D02*
X66893809Y-114454819D01*
X66893809Y-114454819D02*
X67036666Y-114502438D01*
X67465238Y-115454819D02*
X67465238Y-114454819D01*
X67465238Y-114454819D02*
X67703333Y-114454819D01*
X67703333Y-114454819D02*
X67846190Y-114502438D01*
X67846190Y-114502438D02*
X67941428Y-114597676D01*
X67941428Y-114597676D02*
X67989047Y-114692914D01*
X67989047Y-114692914D02*
X68036666Y-114883390D01*
X68036666Y-114883390D02*
X68036666Y-115026247D01*
X68036666Y-115026247D02*
X67989047Y-115216723D01*
X67989047Y-115216723D02*
X67941428Y-115311961D01*
X67941428Y-115311961D02*
X67846190Y-115407200D01*
X67846190Y-115407200D02*
X67703333Y-115454819D01*
X67703333Y-115454819D02*
X67465238Y-115454819D01*
X115124819Y-116261904D02*
X115934342Y-116261904D01*
X115934342Y-116261904D02*
X116029580Y-116214285D01*
X116029580Y-116214285D02*
X116077200Y-116166666D01*
X116077200Y-116166666D02*
X116124819Y-116071428D01*
X116124819Y-116071428D02*
X116124819Y-115880952D01*
X116124819Y-115880952D02*
X116077200Y-115785714D01*
X116077200Y-115785714D02*
X116029580Y-115738095D01*
X116029580Y-115738095D02*
X115934342Y-115690476D01*
X115934342Y-115690476D02*
X115124819Y-115690476D01*
X116077200Y-115261904D02*
X116124819Y-115119047D01*
X116124819Y-115119047D02*
X116124819Y-114880952D01*
X116124819Y-114880952D02*
X116077200Y-114785714D01*
X116077200Y-114785714D02*
X116029580Y-114738095D01*
X116029580Y-114738095D02*
X115934342Y-114690476D01*
X115934342Y-114690476D02*
X115839104Y-114690476D01*
X115839104Y-114690476D02*
X115743866Y-114738095D01*
X115743866Y-114738095D02*
X115696247Y-114785714D01*
X115696247Y-114785714D02*
X115648628Y-114880952D01*
X115648628Y-114880952D02*
X115601009Y-115071428D01*
X115601009Y-115071428D02*
X115553390Y-115166666D01*
X115553390Y-115166666D02*
X115505771Y-115214285D01*
X115505771Y-115214285D02*
X115410533Y-115261904D01*
X115410533Y-115261904D02*
X115315295Y-115261904D01*
X115315295Y-115261904D02*
X115220057Y-115214285D01*
X115220057Y-115214285D02*
X115172438Y-115166666D01*
X115172438Y-115166666D02*
X115124819Y-115071428D01*
X115124819Y-115071428D02*
X115124819Y-114833333D01*
X115124819Y-114833333D02*
X115172438Y-114690476D01*
X115601009Y-113928571D02*
X115648628Y-113785714D01*
X115648628Y-113785714D02*
X115696247Y-113738095D01*
X115696247Y-113738095D02*
X115791485Y-113690476D01*
X115791485Y-113690476D02*
X115934342Y-113690476D01*
X115934342Y-113690476D02*
X116029580Y-113738095D01*
X116029580Y-113738095D02*
X116077200Y-113785714D01*
X116077200Y-113785714D02*
X116124819Y-113880952D01*
X116124819Y-113880952D02*
X116124819Y-114261904D01*
X116124819Y-114261904D02*
X115124819Y-114261904D01*
X115124819Y-114261904D02*
X115124819Y-113928571D01*
X115124819Y-113928571D02*
X115172438Y-113833333D01*
X115172438Y-113833333D02*
X115220057Y-113785714D01*
X115220057Y-113785714D02*
X115315295Y-113738095D01*
X115315295Y-113738095D02*
X115410533Y-113738095D01*
X115410533Y-113738095D02*
X115505771Y-113785714D01*
X115505771Y-113785714D02*
X115553390Y-113833333D01*
X115553390Y-113833333D02*
X115601009Y-113928571D01*
X115601009Y-113928571D02*
X115601009Y-114261904D01*
X100996009Y-121133743D02*
X100996009Y-120800410D01*
X101519819Y-120657553D02*
X101519819Y-121133743D01*
X101519819Y-121133743D02*
X100519819Y-121133743D01*
X100519819Y-121133743D02*
X100519819Y-120657553D01*
X100853152Y-120371838D02*
X100853152Y-119990886D01*
X100519819Y-120228981D02*
X101376961Y-120228981D01*
X101376961Y-120228981D02*
X101472200Y-120181362D01*
X101472200Y-120181362D02*
X101519819Y-120086124D01*
X101519819Y-120086124D02*
X101519819Y-119990886D01*
X101519819Y-119657552D02*
X100519819Y-119657552D01*
X101519819Y-119228981D02*
X100996009Y-119228981D01*
X100996009Y-119228981D02*
X100900771Y-119276600D01*
X100900771Y-119276600D02*
X100853152Y-119371838D01*
X100853152Y-119371838D02*
X100853152Y-119514695D01*
X100853152Y-119514695D02*
X100900771Y-119609933D01*
X100900771Y-119609933D02*
X100948390Y-119657552D01*
X101472200Y-118371838D02*
X101519819Y-118467076D01*
X101519819Y-118467076D02*
X101519819Y-118657552D01*
X101519819Y-118657552D02*
X101472200Y-118752790D01*
X101472200Y-118752790D02*
X101376961Y-118800409D01*
X101376961Y-118800409D02*
X100996009Y-118800409D01*
X100996009Y-118800409D02*
X100900771Y-118752790D01*
X100900771Y-118752790D02*
X100853152Y-118657552D01*
X100853152Y-118657552D02*
X100853152Y-118467076D01*
X100853152Y-118467076D02*
X100900771Y-118371838D01*
X100900771Y-118371838D02*
X100996009Y-118324219D01*
X100996009Y-118324219D02*
X101091247Y-118324219D01*
X101091247Y-118324219D02*
X101186485Y-118800409D01*
X101519819Y-117895647D02*
X100853152Y-117895647D01*
X101043628Y-117895647D02*
X100948390Y-117848028D01*
X100948390Y-117848028D02*
X100900771Y-117800409D01*
X100900771Y-117800409D02*
X100853152Y-117705171D01*
X100853152Y-117705171D02*
X100853152Y-117609933D01*
X100853152Y-117276599D02*
X101519819Y-117276599D01*
X100948390Y-117276599D02*
X100900771Y-117228980D01*
X100900771Y-117228980D02*
X100853152Y-117133742D01*
X100853152Y-117133742D02*
X100853152Y-116990885D01*
X100853152Y-116990885D02*
X100900771Y-116895647D01*
X100900771Y-116895647D02*
X100996009Y-116848028D01*
X100996009Y-116848028D02*
X101519819Y-116848028D01*
X101472200Y-115990885D02*
X101519819Y-116086123D01*
X101519819Y-116086123D02*
X101519819Y-116276599D01*
X101519819Y-116276599D02*
X101472200Y-116371837D01*
X101472200Y-116371837D02*
X101376961Y-116419456D01*
X101376961Y-116419456D02*
X100996009Y-116419456D01*
X100996009Y-116419456D02*
X100900771Y-116371837D01*
X100900771Y-116371837D02*
X100853152Y-116276599D01*
X100853152Y-116276599D02*
X100853152Y-116086123D01*
X100853152Y-116086123D02*
X100900771Y-115990885D01*
X100900771Y-115990885D02*
X100996009Y-115943266D01*
X100996009Y-115943266D02*
X101091247Y-115943266D01*
X101091247Y-115943266D02*
X101186485Y-116419456D01*
X100853152Y-115657551D02*
X100853152Y-115276599D01*
X100519819Y-115514694D02*
X101376961Y-115514694D01*
X101376961Y-115514694D02*
X101472200Y-115467075D01*
X101472200Y-115467075D02*
X101519819Y-115371837D01*
X101519819Y-115371837D02*
X101519819Y-115276599D01*
X104156276Y-111965619D02*
X104156276Y-112775142D01*
X104156276Y-112775142D02*
X104203895Y-112870380D01*
X104203895Y-112870380D02*
X104251514Y-112918000D01*
X104251514Y-112918000D02*
X104346752Y-112965619D01*
X104346752Y-112965619D02*
X104537228Y-112965619D01*
X104537228Y-112965619D02*
X104632466Y-112918000D01*
X104632466Y-112918000D02*
X104680085Y-112870380D01*
X104680085Y-112870380D02*
X104727704Y-112775142D01*
X104727704Y-112775142D02*
X104727704Y-111965619D01*
X105156276Y-112918000D02*
X105299133Y-112965619D01*
X105299133Y-112965619D02*
X105537228Y-112965619D01*
X105537228Y-112965619D02*
X105632466Y-112918000D01*
X105632466Y-112918000D02*
X105680085Y-112870380D01*
X105680085Y-112870380D02*
X105727704Y-112775142D01*
X105727704Y-112775142D02*
X105727704Y-112679904D01*
X105727704Y-112679904D02*
X105680085Y-112584666D01*
X105680085Y-112584666D02*
X105632466Y-112537047D01*
X105632466Y-112537047D02*
X105537228Y-112489428D01*
X105537228Y-112489428D02*
X105346752Y-112441809D01*
X105346752Y-112441809D02*
X105251514Y-112394190D01*
X105251514Y-112394190D02*
X105203895Y-112346571D01*
X105203895Y-112346571D02*
X105156276Y-112251333D01*
X105156276Y-112251333D02*
X105156276Y-112156095D01*
X105156276Y-112156095D02*
X105203895Y-112060857D01*
X105203895Y-112060857D02*
X105251514Y-112013238D01*
X105251514Y-112013238D02*
X105346752Y-111965619D01*
X105346752Y-111965619D02*
X105584847Y-111965619D01*
X105584847Y-111965619D02*
X105727704Y-112013238D01*
X106489609Y-112441809D02*
X106632466Y-112489428D01*
X106632466Y-112489428D02*
X106680085Y-112537047D01*
X106680085Y-112537047D02*
X106727704Y-112632285D01*
X106727704Y-112632285D02*
X106727704Y-112775142D01*
X106727704Y-112775142D02*
X106680085Y-112870380D01*
X106680085Y-112870380D02*
X106632466Y-112918000D01*
X106632466Y-112918000D02*
X106537228Y-112965619D01*
X106537228Y-112965619D02*
X106156276Y-112965619D01*
X106156276Y-112965619D02*
X106156276Y-111965619D01*
X106156276Y-111965619D02*
X106489609Y-111965619D01*
X106489609Y-111965619D02*
X106584847Y-112013238D01*
X106584847Y-112013238D02*
X106632466Y-112060857D01*
X106632466Y-112060857D02*
X106680085Y-112156095D01*
X106680085Y-112156095D02*
X106680085Y-112251333D01*
X106680085Y-112251333D02*
X106632466Y-112346571D01*
X106632466Y-112346571D02*
X106584847Y-112394190D01*
X106584847Y-112394190D02*
X106489609Y-112441809D01*
X106489609Y-112441809D02*
X106156276Y-112441809D01*
X107918181Y-112965619D02*
X107918181Y-111965619D01*
X107918181Y-112441809D02*
X108489609Y-112441809D01*
X108489609Y-112965619D02*
X108489609Y-111965619D01*
X109108657Y-112965619D02*
X109013419Y-112918000D01*
X109013419Y-112918000D02*
X108965800Y-112870380D01*
X108965800Y-112870380D02*
X108918181Y-112775142D01*
X108918181Y-112775142D02*
X108918181Y-112489428D01*
X108918181Y-112489428D02*
X108965800Y-112394190D01*
X108965800Y-112394190D02*
X109013419Y-112346571D01*
X109013419Y-112346571D02*
X109108657Y-112298952D01*
X109108657Y-112298952D02*
X109251514Y-112298952D01*
X109251514Y-112298952D02*
X109346752Y-112346571D01*
X109346752Y-112346571D02*
X109394371Y-112394190D01*
X109394371Y-112394190D02*
X109441990Y-112489428D01*
X109441990Y-112489428D02*
X109441990Y-112775142D01*
X109441990Y-112775142D02*
X109394371Y-112870380D01*
X109394371Y-112870380D02*
X109346752Y-112918000D01*
X109346752Y-112918000D02*
X109251514Y-112965619D01*
X109251514Y-112965619D02*
X109108657Y-112965619D01*
X109822943Y-112918000D02*
X109918181Y-112965619D01*
X109918181Y-112965619D02*
X110108657Y-112965619D01*
X110108657Y-112965619D02*
X110203895Y-112918000D01*
X110203895Y-112918000D02*
X110251514Y-112822761D01*
X110251514Y-112822761D02*
X110251514Y-112775142D01*
X110251514Y-112775142D02*
X110203895Y-112679904D01*
X110203895Y-112679904D02*
X110108657Y-112632285D01*
X110108657Y-112632285D02*
X109965800Y-112632285D01*
X109965800Y-112632285D02*
X109870562Y-112584666D01*
X109870562Y-112584666D02*
X109822943Y-112489428D01*
X109822943Y-112489428D02*
X109822943Y-112441809D01*
X109822943Y-112441809D02*
X109870562Y-112346571D01*
X109870562Y-112346571D02*
X109965800Y-112298952D01*
X109965800Y-112298952D02*
X110108657Y-112298952D01*
X110108657Y-112298952D02*
X110203895Y-112346571D01*
X110537229Y-112298952D02*
X110918181Y-112298952D01*
X110680086Y-111965619D02*
X110680086Y-112822761D01*
X110680086Y-112822761D02*
X110727705Y-112918000D01*
X110727705Y-112918000D02*
X110822943Y-112965619D01*
X110822943Y-112965619D02*
X110918181Y-112965619D01*
X91856033Y-116563333D02*
X91156033Y-116563333D01*
X91156033Y-116563333D02*
X91156033Y-116396666D01*
X91156033Y-116396666D02*
X91189366Y-116296666D01*
X91189366Y-116296666D02*
X91256033Y-116230000D01*
X91256033Y-116230000D02*
X91322700Y-116196666D01*
X91322700Y-116196666D02*
X91456033Y-116163333D01*
X91456033Y-116163333D02*
X91556033Y-116163333D01*
X91556033Y-116163333D02*
X91689366Y-116196666D01*
X91689366Y-116196666D02*
X91756033Y-116230000D01*
X91756033Y-116230000D02*
X91822700Y-116296666D01*
X91822700Y-116296666D02*
X91856033Y-116396666D01*
X91856033Y-116396666D02*
X91856033Y-116563333D01*
X91156033Y-115963333D02*
X91856033Y-115730000D01*
X91856033Y-115730000D02*
X91156033Y-115496666D01*
X91156033Y-115063333D02*
X91656033Y-115063333D01*
X91656033Y-115063333D02*
X91756033Y-115096666D01*
X91756033Y-115096666D02*
X91822700Y-115163333D01*
X91822700Y-115163333D02*
X91856033Y-115263333D01*
X91856033Y-115263333D02*
X91856033Y-115330000D01*
X91156033Y-114430000D02*
X91156033Y-114563333D01*
X91156033Y-114563333D02*
X91189366Y-114630000D01*
X91189366Y-114630000D02*
X91222700Y-114663333D01*
X91222700Y-114663333D02*
X91322700Y-114730000D01*
X91322700Y-114730000D02*
X91456033Y-114763333D01*
X91456033Y-114763333D02*
X91722700Y-114763333D01*
X91722700Y-114763333D02*
X91789366Y-114730000D01*
X91789366Y-114730000D02*
X91822700Y-114696667D01*
X91822700Y-114696667D02*
X91856033Y-114630000D01*
X91856033Y-114630000D02*
X91856033Y-114496667D01*
X91856033Y-114496667D02*
X91822700Y-114430000D01*
X91822700Y-114430000D02*
X91789366Y-114396667D01*
X91789366Y-114396667D02*
X91722700Y-114363333D01*
X91722700Y-114363333D02*
X91556033Y-114363333D01*
X91556033Y-114363333D02*
X91489366Y-114396667D01*
X91489366Y-114396667D02*
X91456033Y-114430000D01*
X91456033Y-114430000D02*
X91422700Y-114496667D01*
X91422700Y-114496667D02*
X91422700Y-114630000D01*
X91422700Y-114630000D02*
X91456033Y-114696667D01*
X91456033Y-114696667D02*
X91489366Y-114730000D01*
X91489366Y-114730000D02*
X91556033Y-114763333D01*
X91656033Y-114096666D02*
X91656033Y-113763333D01*
X91856033Y-114163333D02*
X91156033Y-113930000D01*
X91156033Y-113930000D02*
X91856033Y-113696666D01*
X34954819Y-134833333D02*
X35669104Y-134833333D01*
X35669104Y-134833333D02*
X35811961Y-134880952D01*
X35811961Y-134880952D02*
X35907200Y-134976190D01*
X35907200Y-134976190D02*
X35954819Y-135119047D01*
X35954819Y-135119047D02*
X35954819Y-135214285D01*
X34954819Y-134452380D02*
X34954819Y-133833333D01*
X34954819Y-133833333D02*
X35335771Y-134166666D01*
X35335771Y-134166666D02*
X35335771Y-134023809D01*
X35335771Y-134023809D02*
X35383390Y-133928571D01*
X35383390Y-133928571D02*
X35431009Y-133880952D01*
X35431009Y-133880952D02*
X35526247Y-133833333D01*
X35526247Y-133833333D02*
X35764342Y-133833333D01*
X35764342Y-133833333D02*
X35859580Y-133880952D01*
X35859580Y-133880952D02*
X35907200Y-133928571D01*
X35907200Y-133928571D02*
X35954819Y-134023809D01*
X35954819Y-134023809D02*
X35954819Y-134309523D01*
X35954819Y-134309523D02*
X35907200Y-134404761D01*
X35907200Y-134404761D02*
X35859580Y-134452380D01*
X51114700Y-140571428D02*
X51114700Y-139428571D01*
X51114700Y-129571428D02*
X51114700Y-128428571D01*
X51686128Y-128999999D02*
X50543271Y-128999999D01*
X55253333Y-99824819D02*
X54920000Y-99348628D01*
X54681905Y-99824819D02*
X54681905Y-98824819D01*
X54681905Y-98824819D02*
X55062857Y-98824819D01*
X55062857Y-98824819D02*
X55158095Y-98872438D01*
X55158095Y-98872438D02*
X55205714Y-98920057D01*
X55205714Y-98920057D02*
X55253333Y-99015295D01*
X55253333Y-99015295D02*
X55253333Y-99158152D01*
X55253333Y-99158152D02*
X55205714Y-99253390D01*
X55205714Y-99253390D02*
X55158095Y-99301009D01*
X55158095Y-99301009D02*
X55062857Y-99348628D01*
X55062857Y-99348628D02*
X54681905Y-99348628D01*
X56205714Y-99824819D02*
X55634286Y-99824819D01*
X55920000Y-99824819D02*
X55920000Y-98824819D01*
X55920000Y-98824819D02*
X55824762Y-98967676D01*
X55824762Y-98967676D02*
X55729524Y-99062914D01*
X55729524Y-99062914D02*
X55634286Y-99110533D01*
X103066666Y-40954819D02*
X103066666Y-41669104D01*
X103066666Y-41669104D02*
X103019047Y-41811961D01*
X103019047Y-41811961D02*
X102923809Y-41907200D01*
X102923809Y-41907200D02*
X102780952Y-41954819D01*
X102780952Y-41954819D02*
X102685714Y-41954819D01*
X104066666Y-41954819D02*
X103495238Y-41954819D01*
X103780952Y-41954819D02*
X103780952Y-40954819D01*
X103780952Y-40954819D02*
X103685714Y-41097676D01*
X103685714Y-41097676D02*
X103590476Y-41192914D01*
X103590476Y-41192914D02*
X103495238Y-41240533D01*
X96928571Y-60614700D02*
X98071429Y-60614700D01*
X97500000Y-61186128D02*
X97500000Y-60043271D01*
X109419048Y-60573866D02*
X110180953Y-60573866D01*
X99166666Y-59704819D02*
X99166666Y-60419104D01*
X99166666Y-60419104D02*
X99119047Y-60561961D01*
X99119047Y-60561961D02*
X99023809Y-60657200D01*
X99023809Y-60657200D02*
X98880952Y-60704819D01*
X98880952Y-60704819D02*
X98785714Y-60704819D01*
X99642857Y-60704819D02*
X99642857Y-59704819D01*
X99642857Y-59704819D02*
X100023809Y-59704819D01*
X100023809Y-59704819D02*
X100119047Y-59752438D01*
X100119047Y-59752438D02*
X100166666Y-59800057D01*
X100166666Y-59800057D02*
X100214285Y-59895295D01*
X100214285Y-59895295D02*
X100214285Y-60038152D01*
X100214285Y-60038152D02*
X100166666Y-60133390D01*
X100166666Y-60133390D02*
X100119047Y-60181009D01*
X100119047Y-60181009D02*
X100023809Y-60228628D01*
X100023809Y-60228628D02*
X99642857Y-60228628D01*
X100547619Y-59704819D02*
X101214285Y-59704819D01*
X101214285Y-59704819D02*
X100785714Y-60704819D01*
X50548095Y-104124819D02*
X50548095Y-104934342D01*
X50548095Y-104934342D02*
X50595714Y-105029580D01*
X50595714Y-105029580D02*
X50643333Y-105077200D01*
X50643333Y-105077200D02*
X50738571Y-105124819D01*
X50738571Y-105124819D02*
X50929047Y-105124819D01*
X50929047Y-105124819D02*
X51024285Y-105077200D01*
X51024285Y-105077200D02*
X51071904Y-105029580D01*
X51071904Y-105029580D02*
X51119523Y-104934342D01*
X51119523Y-104934342D02*
X51119523Y-104124819D01*
X52024285Y-104124819D02*
X51833809Y-104124819D01*
X51833809Y-104124819D02*
X51738571Y-104172438D01*
X51738571Y-104172438D02*
X51690952Y-104220057D01*
X51690952Y-104220057D02*
X51595714Y-104362914D01*
X51595714Y-104362914D02*
X51548095Y-104553390D01*
X51548095Y-104553390D02*
X51548095Y-104934342D01*
X51548095Y-104934342D02*
X51595714Y-105029580D01*
X51595714Y-105029580D02*
X51643333Y-105077200D01*
X51643333Y-105077200D02*
X51738571Y-105124819D01*
X51738571Y-105124819D02*
X51929047Y-105124819D01*
X51929047Y-105124819D02*
X52024285Y-105077200D01*
X52024285Y-105077200D02*
X52071904Y-105029580D01*
X52071904Y-105029580D02*
X52119523Y-104934342D01*
X52119523Y-104934342D02*
X52119523Y-104696247D01*
X52119523Y-104696247D02*
X52071904Y-104601009D01*
X52071904Y-104601009D02*
X52024285Y-104553390D01*
X52024285Y-104553390D02*
X51929047Y-104505771D01*
X51929047Y-104505771D02*
X51738571Y-104505771D01*
X51738571Y-104505771D02*
X51643333Y-104553390D01*
X51643333Y-104553390D02*
X51595714Y-104601009D01*
X51595714Y-104601009D02*
X51548095Y-104696247D01*
D11*
X78666667Y-129909800D02*
X78809524Y-129957419D01*
X78809524Y-129957419D02*
X79047619Y-129957419D01*
X79047619Y-129957419D02*
X79142857Y-129909800D01*
X79142857Y-129909800D02*
X79190476Y-129862180D01*
X79190476Y-129862180D02*
X79238095Y-129766942D01*
X79238095Y-129766942D02*
X79238095Y-129671704D01*
X79238095Y-129671704D02*
X79190476Y-129576466D01*
X79190476Y-129576466D02*
X79142857Y-129528847D01*
X79142857Y-129528847D02*
X79047619Y-129481228D01*
X79047619Y-129481228D02*
X78857143Y-129433609D01*
X78857143Y-129433609D02*
X78761905Y-129385990D01*
X78761905Y-129385990D02*
X78714286Y-129338371D01*
X78714286Y-129338371D02*
X78666667Y-129243133D01*
X78666667Y-129243133D02*
X78666667Y-129147895D01*
X78666667Y-129147895D02*
X78714286Y-129052657D01*
X78714286Y-129052657D02*
X78761905Y-129005038D01*
X78761905Y-129005038D02*
X78857143Y-128957419D01*
X78857143Y-128957419D02*
X79095238Y-128957419D01*
X79095238Y-128957419D02*
X79238095Y-129005038D01*
X79571429Y-128957419D02*
X79809524Y-129957419D01*
X79809524Y-129957419D02*
X80000000Y-129243133D01*
X80000000Y-129243133D02*
X80190476Y-129957419D01*
X80190476Y-129957419D02*
X80428572Y-128957419D01*
X81333333Y-129957419D02*
X80761905Y-129957419D01*
X81047619Y-129957419D02*
X81047619Y-128957419D01*
X81047619Y-128957419D02*
X80952381Y-129100276D01*
X80952381Y-129100276D02*
X80857143Y-129195514D01*
X80857143Y-129195514D02*
X80761905Y-129243133D01*
X100238095Y-137957419D02*
X100238095Y-138766942D01*
X100238095Y-138766942D02*
X100285714Y-138862180D01*
X100285714Y-138862180D02*
X100333333Y-138909800D01*
X100333333Y-138909800D02*
X100428571Y-138957419D01*
X100428571Y-138957419D02*
X100619047Y-138957419D01*
X100619047Y-138957419D02*
X100714285Y-138909800D01*
X100714285Y-138909800D02*
X100761904Y-138862180D01*
X100761904Y-138862180D02*
X100809523Y-138766942D01*
X100809523Y-138766942D02*
X100809523Y-137957419D01*
X101761904Y-137957419D02*
X101285714Y-137957419D01*
X101285714Y-137957419D02*
X101238095Y-138433609D01*
X101238095Y-138433609D02*
X101285714Y-138385990D01*
X101285714Y-138385990D02*
X101380952Y-138338371D01*
X101380952Y-138338371D02*
X101619047Y-138338371D01*
X101619047Y-138338371D02*
X101714285Y-138385990D01*
X101714285Y-138385990D02*
X101761904Y-138433609D01*
X101761904Y-138433609D02*
X101809523Y-138528847D01*
X101809523Y-138528847D02*
X101809523Y-138766942D01*
X101809523Y-138766942D02*
X101761904Y-138862180D01*
X101761904Y-138862180D02*
X101714285Y-138909800D01*
X101714285Y-138909800D02*
X101619047Y-138957419D01*
X101619047Y-138957419D02*
X101380952Y-138957419D01*
X101380952Y-138957419D02*
X101285714Y-138909800D01*
X101285714Y-138909800D02*
X101238095Y-138862180D01*
X100405312Y-148992419D02*
X100071979Y-148516228D01*
X99833884Y-148992419D02*
X99833884Y-147992419D01*
X99833884Y-147992419D02*
X100214836Y-147992419D01*
X100214836Y-147992419D02*
X100310074Y-148040038D01*
X100310074Y-148040038D02*
X100357693Y-148087657D01*
X100357693Y-148087657D02*
X100405312Y-148182895D01*
X100405312Y-148182895D02*
X100405312Y-148325752D01*
X100405312Y-148325752D02*
X100357693Y-148420990D01*
X100357693Y-148420990D02*
X100310074Y-148468609D01*
X100310074Y-148468609D02*
X100214836Y-148516228D01*
X100214836Y-148516228D02*
X99833884Y-148516228D01*
X101119598Y-147992419D02*
X101119598Y-148706704D01*
X101119598Y-148706704D02*
X101071979Y-148849561D01*
X101071979Y-148849561D02*
X100976741Y-148944800D01*
X100976741Y-148944800D02*
X100833884Y-148992419D01*
X100833884Y-148992419D02*
X100738646Y-148992419D01*
X102024360Y-148325752D02*
X102024360Y-148992419D01*
X101786265Y-147944800D02*
X101548170Y-148659085D01*
X101548170Y-148659085D02*
X102167217Y-148659085D01*
X103024360Y-147992419D02*
X102548170Y-147992419D01*
X102548170Y-147992419D02*
X102500551Y-148468609D01*
X102500551Y-148468609D02*
X102548170Y-148420990D01*
X102548170Y-148420990D02*
X102643408Y-148373371D01*
X102643408Y-148373371D02*
X102881503Y-148373371D01*
X102881503Y-148373371D02*
X102976741Y-148420990D01*
X102976741Y-148420990D02*
X103024360Y-148468609D01*
X103024360Y-148468609D02*
X103071979Y-148563847D01*
X103071979Y-148563847D02*
X103071979Y-148801942D01*
X103071979Y-148801942D02*
X103024360Y-148897180D01*
X103024360Y-148897180D02*
X102976741Y-148944800D01*
X102976741Y-148944800D02*
X102881503Y-148992419D01*
X102881503Y-148992419D02*
X102643408Y-148992419D01*
X102643408Y-148992419D02*
X102548170Y-148944800D01*
X102548170Y-148944800D02*
X102500551Y-148897180D01*
X59042580Y-71238095D02*
X60042580Y-71238095D01*
X60042580Y-71238095D02*
X59328295Y-71571428D01*
X59328295Y-71571428D02*
X60042580Y-71904761D01*
X60042580Y-71904761D02*
X59042580Y-71904761D01*
X60042580Y-72285714D02*
X60042580Y-72952380D01*
X60042580Y-72952380D02*
X59042580Y-72523809D01*
X59614009Y-73476190D02*
X59661628Y-73380952D01*
X59661628Y-73380952D02*
X59709247Y-73333333D01*
X59709247Y-73333333D02*
X59804485Y-73285714D01*
X59804485Y-73285714D02*
X59852104Y-73285714D01*
X59852104Y-73285714D02*
X59947342Y-73333333D01*
X59947342Y-73333333D02*
X59994961Y-73380952D01*
X59994961Y-73380952D02*
X60042580Y-73476190D01*
X60042580Y-73476190D02*
X60042580Y-73666666D01*
X60042580Y-73666666D02*
X59994961Y-73761904D01*
X59994961Y-73761904D02*
X59947342Y-73809523D01*
X59947342Y-73809523D02*
X59852104Y-73857142D01*
X59852104Y-73857142D02*
X59804485Y-73857142D01*
X59804485Y-73857142D02*
X59709247Y-73809523D01*
X59709247Y-73809523D02*
X59661628Y-73761904D01*
X59661628Y-73761904D02*
X59614009Y-73666666D01*
X59614009Y-73666666D02*
X59614009Y-73476190D01*
X59614009Y-73476190D02*
X59566390Y-73380952D01*
X59566390Y-73380952D02*
X59518771Y-73333333D01*
X59518771Y-73333333D02*
X59423533Y-73285714D01*
X59423533Y-73285714D02*
X59233057Y-73285714D01*
X59233057Y-73285714D02*
X59137819Y-73333333D01*
X59137819Y-73333333D02*
X59090200Y-73380952D01*
X59090200Y-73380952D02*
X59042580Y-73476190D01*
X59042580Y-73476190D02*
X59042580Y-73666666D01*
X59042580Y-73666666D02*
X59090200Y-73761904D01*
X59090200Y-73761904D02*
X59137819Y-73809523D01*
X59137819Y-73809523D02*
X59233057Y-73857142D01*
X59233057Y-73857142D02*
X59423533Y-73857142D01*
X59423533Y-73857142D02*
X59518771Y-73809523D01*
X59518771Y-73809523D02*
X59566390Y-73761904D01*
X59566390Y-73761904D02*
X59614009Y-73666666D01*
X59328295Y-74238095D02*
X59328295Y-74714285D01*
X59042580Y-74142857D02*
X60042580Y-74476190D01*
X60042580Y-74476190D02*
X59042580Y-74809523D01*
X59042580Y-75714285D02*
X59518771Y-75380952D01*
X59042580Y-75142857D02*
X60042580Y-75142857D01*
X60042580Y-75142857D02*
X60042580Y-75523809D01*
X60042580Y-75523809D02*
X59994961Y-75619047D01*
X59994961Y-75619047D02*
X59947342Y-75666666D01*
X59947342Y-75666666D02*
X59852104Y-75714285D01*
X59852104Y-75714285D02*
X59709247Y-75714285D01*
X59709247Y-75714285D02*
X59614009Y-75666666D01*
X59614009Y-75666666D02*
X59566390Y-75619047D01*
X59566390Y-75619047D02*
X59518771Y-75523809D01*
X59518771Y-75523809D02*
X59518771Y-75142857D01*
X60042580Y-76333333D02*
X60042580Y-76428571D01*
X60042580Y-76428571D02*
X59994961Y-76523809D01*
X59994961Y-76523809D02*
X59947342Y-76571428D01*
X59947342Y-76571428D02*
X59852104Y-76619047D01*
X59852104Y-76619047D02*
X59661628Y-76666666D01*
X59661628Y-76666666D02*
X59423533Y-76666666D01*
X59423533Y-76666666D02*
X59233057Y-76619047D01*
X59233057Y-76619047D02*
X59137819Y-76571428D01*
X59137819Y-76571428D02*
X59090200Y-76523809D01*
X59090200Y-76523809D02*
X59042580Y-76428571D01*
X59042580Y-76428571D02*
X59042580Y-76333333D01*
X59042580Y-76333333D02*
X59090200Y-76238095D01*
X59090200Y-76238095D02*
X59137819Y-76190476D01*
X59137819Y-76190476D02*
X59233057Y-76142857D01*
X59233057Y-76142857D02*
X59423533Y-76095238D01*
X59423533Y-76095238D02*
X59661628Y-76095238D01*
X59661628Y-76095238D02*
X59852104Y-76142857D01*
X59852104Y-76142857D02*
X59947342Y-76190476D01*
X59947342Y-76190476D02*
X59994961Y-76238095D01*
X59994961Y-76238095D02*
X60042580Y-76333333D01*
X60042580Y-77571428D02*
X60042580Y-77095238D01*
X60042580Y-77095238D02*
X59566390Y-77047619D01*
X59566390Y-77047619D02*
X59614009Y-77095238D01*
X59614009Y-77095238D02*
X59661628Y-77190476D01*
X59661628Y-77190476D02*
X59661628Y-77428571D01*
X59661628Y-77428571D02*
X59614009Y-77523809D01*
X59614009Y-77523809D02*
X59566390Y-77571428D01*
X59566390Y-77571428D02*
X59471152Y-77619047D01*
X59471152Y-77619047D02*
X59233057Y-77619047D01*
X59233057Y-77619047D02*
X59137819Y-77571428D01*
X59137819Y-77571428D02*
X59090200Y-77523809D01*
X59090200Y-77523809D02*
X59042580Y-77428571D01*
X59042580Y-77428571D02*
X59042580Y-77190476D01*
X59042580Y-77190476D02*
X59090200Y-77095238D01*
X59090200Y-77095238D02*
X59137819Y-77047619D01*
X59423533Y-78047619D02*
X59423533Y-78809524D01*
X59042580Y-79809523D02*
X59042580Y-79238095D01*
X59042580Y-79523809D02*
X60042580Y-79523809D01*
X60042580Y-79523809D02*
X59899723Y-79428571D01*
X59899723Y-79428571D02*
X59804485Y-79333333D01*
X59804485Y-79333333D02*
X59756866Y-79238095D01*
X65333333Y-55566390D02*
X65666666Y-55566390D01*
X65666666Y-55042580D02*
X65666666Y-56042580D01*
X65666666Y-56042580D02*
X65190476Y-56042580D01*
X64285714Y-55042580D02*
X64857142Y-55042580D01*
X64571428Y-55042580D02*
X64571428Y-56042580D01*
X64571428Y-56042580D02*
X64666666Y-55899723D01*
X64666666Y-55899723D02*
X64761904Y-55804485D01*
X64761904Y-55804485D02*
X64857142Y-55756866D01*
D10*
X51824819Y-88246666D02*
X51348628Y-88579999D01*
X51824819Y-88818094D02*
X50824819Y-88818094D01*
X50824819Y-88818094D02*
X50824819Y-88437142D01*
X50824819Y-88437142D02*
X50872438Y-88341904D01*
X50872438Y-88341904D02*
X50920057Y-88294285D01*
X50920057Y-88294285D02*
X51015295Y-88246666D01*
X51015295Y-88246666D02*
X51158152Y-88246666D01*
X51158152Y-88246666D02*
X51253390Y-88294285D01*
X51253390Y-88294285D02*
X51301009Y-88341904D01*
X51301009Y-88341904D02*
X51348628Y-88437142D01*
X51348628Y-88437142D02*
X51348628Y-88818094D01*
X50920057Y-87865713D02*
X50872438Y-87818094D01*
X50872438Y-87818094D02*
X50824819Y-87722856D01*
X50824819Y-87722856D02*
X50824819Y-87484761D01*
X50824819Y-87484761D02*
X50872438Y-87389523D01*
X50872438Y-87389523D02*
X50920057Y-87341904D01*
X50920057Y-87341904D02*
X51015295Y-87294285D01*
X51015295Y-87294285D02*
X51110533Y-87294285D01*
X51110533Y-87294285D02*
X51253390Y-87341904D01*
X51253390Y-87341904D02*
X51824819Y-87913332D01*
X51824819Y-87913332D02*
X51824819Y-87294285D01*
X117166666Y-99954819D02*
X117166666Y-100669104D01*
X117166666Y-100669104D02*
X117119047Y-100811961D01*
X117119047Y-100811961D02*
X117023809Y-100907200D01*
X117023809Y-100907200D02*
X116880952Y-100954819D01*
X116880952Y-100954819D02*
X116785714Y-100954819D01*
X117642857Y-100954819D02*
X117642857Y-99954819D01*
X117642857Y-99954819D02*
X118023809Y-99954819D01*
X118023809Y-99954819D02*
X118119047Y-100002438D01*
X118119047Y-100002438D02*
X118166666Y-100050057D01*
X118166666Y-100050057D02*
X118214285Y-100145295D01*
X118214285Y-100145295D02*
X118214285Y-100288152D01*
X118214285Y-100288152D02*
X118166666Y-100383390D01*
X118166666Y-100383390D02*
X118119047Y-100431009D01*
X118119047Y-100431009D02*
X118023809Y-100478628D01*
X118023809Y-100478628D02*
X117642857Y-100478628D01*
X119119047Y-99954819D02*
X118642857Y-99954819D01*
X118642857Y-99954819D02*
X118595238Y-100431009D01*
X118595238Y-100431009D02*
X118642857Y-100383390D01*
X118642857Y-100383390D02*
X118738095Y-100335771D01*
X118738095Y-100335771D02*
X118976190Y-100335771D01*
X118976190Y-100335771D02*
X119071428Y-100383390D01*
X119071428Y-100383390D02*
X119119047Y-100431009D01*
X119119047Y-100431009D02*
X119166666Y-100526247D01*
X119166666Y-100526247D02*
X119166666Y-100764342D01*
X119166666Y-100764342D02*
X119119047Y-100859580D01*
X119119047Y-100859580D02*
X119071428Y-100907200D01*
X119071428Y-100907200D02*
X118976190Y-100954819D01*
X118976190Y-100954819D02*
X118738095Y-100954819D01*
X118738095Y-100954819D02*
X118642857Y-100907200D01*
X118642857Y-100907200D02*
X118595238Y-100859580D01*
D11*
X81761904Y-80542580D02*
X81761904Y-79733057D01*
X81761904Y-79733057D02*
X81714285Y-79637819D01*
X81714285Y-79637819D02*
X81666666Y-79590200D01*
X81666666Y-79590200D02*
X81571428Y-79542580D01*
X81571428Y-79542580D02*
X81380952Y-79542580D01*
X81380952Y-79542580D02*
X81285714Y-79590200D01*
X81285714Y-79590200D02*
X81238095Y-79637819D01*
X81238095Y-79637819D02*
X81190476Y-79733057D01*
X81190476Y-79733057D02*
X81190476Y-80542580D01*
X80285714Y-80209247D02*
X80285714Y-79542580D01*
X80523809Y-80590200D02*
X80761904Y-79875914D01*
X80761904Y-79875914D02*
X80142857Y-79875914D01*
D10*
X53784819Y-76071904D02*
X54594342Y-76071904D01*
X54594342Y-76071904D02*
X54689580Y-76024285D01*
X54689580Y-76024285D02*
X54737200Y-75976666D01*
X54737200Y-75976666D02*
X54784819Y-75881428D01*
X54784819Y-75881428D02*
X54784819Y-75690952D01*
X54784819Y-75690952D02*
X54737200Y-75595714D01*
X54737200Y-75595714D02*
X54689580Y-75548095D01*
X54689580Y-75548095D02*
X54594342Y-75500476D01*
X54594342Y-75500476D02*
X53784819Y-75500476D01*
X53784819Y-75119523D02*
X53784819Y-74500476D01*
X53784819Y-74500476D02*
X54165771Y-74833809D01*
X54165771Y-74833809D02*
X54165771Y-74690952D01*
X54165771Y-74690952D02*
X54213390Y-74595714D01*
X54213390Y-74595714D02*
X54261009Y-74548095D01*
X54261009Y-74548095D02*
X54356247Y-74500476D01*
X54356247Y-74500476D02*
X54594342Y-74500476D01*
X54594342Y-74500476D02*
X54689580Y-74548095D01*
X54689580Y-74548095D02*
X54737200Y-74595714D01*
X54737200Y-74595714D02*
X54784819Y-74690952D01*
X54784819Y-74690952D02*
X54784819Y-74976666D01*
X54784819Y-74976666D02*
X54737200Y-75071904D01*
X54737200Y-75071904D02*
X54689580Y-75119523D01*
X47666666Y-54454819D02*
X47666666Y-55169104D01*
X47666666Y-55169104D02*
X47619047Y-55311961D01*
X47619047Y-55311961D02*
X47523809Y-55407200D01*
X47523809Y-55407200D02*
X47380952Y-55454819D01*
X47380952Y-55454819D02*
X47285714Y-55454819D01*
X48142857Y-55454819D02*
X48142857Y-54454819D01*
X48142857Y-54454819D02*
X48523809Y-54454819D01*
X48523809Y-54454819D02*
X48619047Y-54502438D01*
X48619047Y-54502438D02*
X48666666Y-54550057D01*
X48666666Y-54550057D02*
X48714285Y-54645295D01*
X48714285Y-54645295D02*
X48714285Y-54788152D01*
X48714285Y-54788152D02*
X48666666Y-54883390D01*
X48666666Y-54883390D02*
X48619047Y-54931009D01*
X48619047Y-54931009D02*
X48523809Y-54978628D01*
X48523809Y-54978628D02*
X48142857Y-54978628D01*
X49095238Y-54550057D02*
X49142857Y-54502438D01*
X49142857Y-54502438D02*
X49238095Y-54454819D01*
X49238095Y-54454819D02*
X49476190Y-54454819D01*
X49476190Y-54454819D02*
X49571428Y-54502438D01*
X49571428Y-54502438D02*
X49619047Y-54550057D01*
X49619047Y-54550057D02*
X49666666Y-54645295D01*
X49666666Y-54645295D02*
X49666666Y-54740533D01*
X49666666Y-54740533D02*
X49619047Y-54883390D01*
X49619047Y-54883390D02*
X49047619Y-55454819D01*
X49047619Y-55454819D02*
X49666666Y-55454819D01*
D11*
X66166667Y-94409800D02*
X66309524Y-94457419D01*
X66309524Y-94457419D02*
X66547619Y-94457419D01*
X66547619Y-94457419D02*
X66642857Y-94409800D01*
X66642857Y-94409800D02*
X66690476Y-94362180D01*
X66690476Y-94362180D02*
X66738095Y-94266942D01*
X66738095Y-94266942D02*
X66738095Y-94171704D01*
X66738095Y-94171704D02*
X66690476Y-94076466D01*
X66690476Y-94076466D02*
X66642857Y-94028847D01*
X66642857Y-94028847D02*
X66547619Y-93981228D01*
X66547619Y-93981228D02*
X66357143Y-93933609D01*
X66357143Y-93933609D02*
X66261905Y-93885990D01*
X66261905Y-93885990D02*
X66214286Y-93838371D01*
X66214286Y-93838371D02*
X66166667Y-93743133D01*
X66166667Y-93743133D02*
X66166667Y-93647895D01*
X66166667Y-93647895D02*
X66214286Y-93552657D01*
X66214286Y-93552657D02*
X66261905Y-93505038D01*
X66261905Y-93505038D02*
X66357143Y-93457419D01*
X66357143Y-93457419D02*
X66595238Y-93457419D01*
X66595238Y-93457419D02*
X66738095Y-93505038D01*
X67071429Y-93457419D02*
X67309524Y-94457419D01*
X67309524Y-94457419D02*
X67500000Y-93743133D01*
X67500000Y-93743133D02*
X67690476Y-94457419D01*
X67690476Y-94457419D02*
X67928572Y-93457419D01*
X68261905Y-93552657D02*
X68309524Y-93505038D01*
X68309524Y-93505038D02*
X68404762Y-93457419D01*
X68404762Y-93457419D02*
X68642857Y-93457419D01*
X68642857Y-93457419D02*
X68738095Y-93505038D01*
X68738095Y-93505038D02*
X68785714Y-93552657D01*
X68785714Y-93552657D02*
X68833333Y-93647895D01*
X68833333Y-93647895D02*
X68833333Y-93743133D01*
X68833333Y-93743133D02*
X68785714Y-93885990D01*
X68785714Y-93885990D02*
X68214286Y-94457419D01*
X68214286Y-94457419D02*
X68833333Y-94457419D01*
D10*
X79913333Y-90084819D02*
X79580000Y-89608628D01*
X79341905Y-90084819D02*
X79341905Y-89084819D01*
X79341905Y-89084819D02*
X79722857Y-89084819D01*
X79722857Y-89084819D02*
X79818095Y-89132438D01*
X79818095Y-89132438D02*
X79865714Y-89180057D01*
X79865714Y-89180057D02*
X79913333Y-89275295D01*
X79913333Y-89275295D02*
X79913333Y-89418152D01*
X79913333Y-89418152D02*
X79865714Y-89513390D01*
X79865714Y-89513390D02*
X79818095Y-89561009D01*
X79818095Y-89561009D02*
X79722857Y-89608628D01*
X79722857Y-89608628D02*
X79341905Y-89608628D01*
X80484762Y-89513390D02*
X80389524Y-89465771D01*
X80389524Y-89465771D02*
X80341905Y-89418152D01*
X80341905Y-89418152D02*
X80294286Y-89322914D01*
X80294286Y-89322914D02*
X80294286Y-89275295D01*
X80294286Y-89275295D02*
X80341905Y-89180057D01*
X80341905Y-89180057D02*
X80389524Y-89132438D01*
X80389524Y-89132438D02*
X80484762Y-89084819D01*
X80484762Y-89084819D02*
X80675238Y-89084819D01*
X80675238Y-89084819D02*
X80770476Y-89132438D01*
X80770476Y-89132438D02*
X80818095Y-89180057D01*
X80818095Y-89180057D02*
X80865714Y-89275295D01*
X80865714Y-89275295D02*
X80865714Y-89322914D01*
X80865714Y-89322914D02*
X80818095Y-89418152D01*
X80818095Y-89418152D02*
X80770476Y-89465771D01*
X80770476Y-89465771D02*
X80675238Y-89513390D01*
X80675238Y-89513390D02*
X80484762Y-89513390D01*
X80484762Y-89513390D02*
X80389524Y-89561009D01*
X80389524Y-89561009D02*
X80341905Y-89608628D01*
X80341905Y-89608628D02*
X80294286Y-89703866D01*
X80294286Y-89703866D02*
X80294286Y-89894342D01*
X80294286Y-89894342D02*
X80341905Y-89989580D01*
X80341905Y-89989580D02*
X80389524Y-90037200D01*
X80389524Y-90037200D02*
X80484762Y-90084819D01*
X80484762Y-90084819D02*
X80675238Y-90084819D01*
X80675238Y-90084819D02*
X80770476Y-90037200D01*
X80770476Y-90037200D02*
X80818095Y-89989580D01*
X80818095Y-89989580D02*
X80865714Y-89894342D01*
X80865714Y-89894342D02*
X80865714Y-89703866D01*
X80865714Y-89703866D02*
X80818095Y-89608628D01*
X80818095Y-89608628D02*
X80770476Y-89561009D01*
X80770476Y-89561009D02*
X80675238Y-89513390D01*
D11*
X80761904Y-79542580D02*
X80761904Y-78733057D01*
X80761904Y-78733057D02*
X80714285Y-78637819D01*
X80714285Y-78637819D02*
X80666666Y-78590200D01*
X80666666Y-78590200D02*
X80571428Y-78542580D01*
X80571428Y-78542580D02*
X80380952Y-78542580D01*
X80380952Y-78542580D02*
X80285714Y-78590200D01*
X80285714Y-78590200D02*
X80238095Y-78637819D01*
X80238095Y-78637819D02*
X80190476Y-78733057D01*
X80190476Y-78733057D02*
X80190476Y-79542580D01*
X79809523Y-79542580D02*
X79142857Y-79542580D01*
X79142857Y-79542580D02*
X79571428Y-78542580D01*
D10*
X65824819Y-132746666D02*
X65348628Y-133079999D01*
X65824819Y-133318094D02*
X64824819Y-133318094D01*
X64824819Y-133318094D02*
X64824819Y-132937142D01*
X64824819Y-132937142D02*
X64872438Y-132841904D01*
X64872438Y-132841904D02*
X64920057Y-132794285D01*
X64920057Y-132794285D02*
X65015295Y-132746666D01*
X65015295Y-132746666D02*
X65158152Y-132746666D01*
X65158152Y-132746666D02*
X65253390Y-132794285D01*
X65253390Y-132794285D02*
X65301009Y-132841904D01*
X65301009Y-132841904D02*
X65348628Y-132937142D01*
X65348628Y-132937142D02*
X65348628Y-133318094D01*
X64824819Y-131889523D02*
X64824819Y-132079999D01*
X64824819Y-132079999D02*
X64872438Y-132175237D01*
X64872438Y-132175237D02*
X64920057Y-132222856D01*
X64920057Y-132222856D02*
X65062914Y-132318094D01*
X65062914Y-132318094D02*
X65253390Y-132365713D01*
X65253390Y-132365713D02*
X65634342Y-132365713D01*
X65634342Y-132365713D02*
X65729580Y-132318094D01*
X65729580Y-132318094D02*
X65777200Y-132270475D01*
X65777200Y-132270475D02*
X65824819Y-132175237D01*
X65824819Y-132175237D02*
X65824819Y-131984761D01*
X65824819Y-131984761D02*
X65777200Y-131889523D01*
X65777200Y-131889523D02*
X65729580Y-131841904D01*
X65729580Y-131841904D02*
X65634342Y-131794285D01*
X65634342Y-131794285D02*
X65396247Y-131794285D01*
X65396247Y-131794285D02*
X65301009Y-131841904D01*
X65301009Y-131841904D02*
X65253390Y-131889523D01*
X65253390Y-131889523D02*
X65205771Y-131984761D01*
X65205771Y-131984761D02*
X65205771Y-132175237D01*
X65205771Y-132175237D02*
X65253390Y-132270475D01*
X65253390Y-132270475D02*
X65301009Y-132318094D01*
X65301009Y-132318094D02*
X65396247Y-132365713D01*
X77491905Y-105414819D02*
X77491905Y-104414819D01*
X77491905Y-104414819D02*
X77730000Y-104414819D01*
X77730000Y-104414819D02*
X77872857Y-104462438D01*
X77872857Y-104462438D02*
X77968095Y-104557676D01*
X77968095Y-104557676D02*
X78015714Y-104652914D01*
X78015714Y-104652914D02*
X78063333Y-104843390D01*
X78063333Y-104843390D02*
X78063333Y-104986247D01*
X78063333Y-104986247D02*
X78015714Y-105176723D01*
X78015714Y-105176723D02*
X77968095Y-105271961D01*
X77968095Y-105271961D02*
X77872857Y-105367200D01*
X77872857Y-105367200D02*
X77730000Y-105414819D01*
X77730000Y-105414819D02*
X77491905Y-105414819D01*
X78444286Y-104510057D02*
X78491905Y-104462438D01*
X78491905Y-104462438D02*
X78587143Y-104414819D01*
X78587143Y-104414819D02*
X78825238Y-104414819D01*
X78825238Y-104414819D02*
X78920476Y-104462438D01*
X78920476Y-104462438D02*
X78968095Y-104510057D01*
X78968095Y-104510057D02*
X79015714Y-104605295D01*
X79015714Y-104605295D02*
X79015714Y-104700533D01*
X79015714Y-104700533D02*
X78968095Y-104843390D01*
X78968095Y-104843390D02*
X78396667Y-105414819D01*
X78396667Y-105414819D02*
X79015714Y-105414819D01*
X66913333Y-90084819D02*
X66580000Y-89608628D01*
X66341905Y-90084819D02*
X66341905Y-89084819D01*
X66341905Y-89084819D02*
X66722857Y-89084819D01*
X66722857Y-89084819D02*
X66818095Y-89132438D01*
X66818095Y-89132438D02*
X66865714Y-89180057D01*
X66865714Y-89180057D02*
X66913333Y-89275295D01*
X66913333Y-89275295D02*
X66913333Y-89418152D01*
X66913333Y-89418152D02*
X66865714Y-89513390D01*
X66865714Y-89513390D02*
X66818095Y-89561009D01*
X66818095Y-89561009D02*
X66722857Y-89608628D01*
X66722857Y-89608628D02*
X66341905Y-89608628D01*
X67246667Y-89084819D02*
X67913333Y-89084819D01*
X67913333Y-89084819D02*
X67484762Y-90084819D01*
X103333333Y-129209580D02*
X103285714Y-129257200D01*
X103285714Y-129257200D02*
X103142857Y-129304819D01*
X103142857Y-129304819D02*
X103047619Y-129304819D01*
X103047619Y-129304819D02*
X102904762Y-129257200D01*
X102904762Y-129257200D02*
X102809524Y-129161961D01*
X102809524Y-129161961D02*
X102761905Y-129066723D01*
X102761905Y-129066723D02*
X102714286Y-128876247D01*
X102714286Y-128876247D02*
X102714286Y-128733390D01*
X102714286Y-128733390D02*
X102761905Y-128542914D01*
X102761905Y-128542914D02*
X102809524Y-128447676D01*
X102809524Y-128447676D02*
X102904762Y-128352438D01*
X102904762Y-128352438D02*
X103047619Y-128304819D01*
X103047619Y-128304819D02*
X103142857Y-128304819D01*
X103142857Y-128304819D02*
X103285714Y-128352438D01*
X103285714Y-128352438D02*
X103333333Y-128400057D01*
X104285714Y-129304819D02*
X103714286Y-129304819D01*
X104000000Y-129304819D02*
X104000000Y-128304819D01*
X104000000Y-128304819D02*
X103904762Y-128447676D01*
X103904762Y-128447676D02*
X103809524Y-128542914D01*
X103809524Y-128542914D02*
X103714286Y-128590533D01*
X55253333Y-104824819D02*
X54920000Y-104348628D01*
X54681905Y-104824819D02*
X54681905Y-103824819D01*
X54681905Y-103824819D02*
X55062857Y-103824819D01*
X55062857Y-103824819D02*
X55158095Y-103872438D01*
X55158095Y-103872438D02*
X55205714Y-103920057D01*
X55205714Y-103920057D02*
X55253333Y-104015295D01*
X55253333Y-104015295D02*
X55253333Y-104158152D01*
X55253333Y-104158152D02*
X55205714Y-104253390D01*
X55205714Y-104253390D02*
X55158095Y-104301009D01*
X55158095Y-104301009D02*
X55062857Y-104348628D01*
X55062857Y-104348628D02*
X54681905Y-104348628D01*
X56110476Y-104158152D02*
X56110476Y-104824819D01*
X55872381Y-103777200D02*
X55634286Y-104491485D01*
X55634286Y-104491485D02*
X56253333Y-104491485D01*
D12*
%TO.C,R5*%
X66630000Y-135650000D02*
X66630000Y-142190000D01*
X66630000Y-142190000D02*
X69370000Y-142190000D01*
X68000000Y-134880000D02*
X68000000Y-135650000D01*
X68000000Y-142960000D02*
X68000000Y-142190000D01*
X69370000Y-135650000D02*
X66630000Y-135650000D01*
X69370000Y-142190000D02*
X69370000Y-135650000D01*
%TO.C,J4*%
X110490000Y-78440000D02*
X110490000Y-86060000D01*
X110490000Y-86060000D02*
X116460000Y-86060000D01*
X111250000Y-79200000D02*
X111250000Y-82250000D01*
X111250000Y-85300000D02*
X111250000Y-82250000D01*
X114200000Y-78450000D02*
X114200000Y-79200000D01*
X114200000Y-79200000D02*
X111250000Y-79200000D01*
X114200000Y-85300000D02*
X111250000Y-85300000D01*
X114200000Y-86050000D02*
X114200000Y-85300000D01*
X115700000Y-78450000D02*
X115700000Y-80250000D01*
X115700000Y-80250000D02*
X116450000Y-80250000D01*
X115700000Y-81750000D02*
X115700000Y-82750000D01*
X115700000Y-82750000D02*
X116450000Y-82750000D01*
X115700000Y-84250000D02*
X115700000Y-86050000D01*
X115700000Y-86050000D02*
X116450000Y-86050000D01*
X116450000Y-78450000D02*
X115700000Y-78450000D01*
X116450000Y-80250000D02*
X116450000Y-78450000D01*
X116450000Y-81750000D02*
X115700000Y-81750000D01*
X116450000Y-82750000D02*
X116450000Y-81750000D01*
X116450000Y-84250000D02*
X115700000Y-84250000D01*
X116450000Y-86050000D02*
X116450000Y-84250000D01*
X116460000Y-78440000D02*
X110490000Y-78440000D01*
X116460000Y-86060000D02*
X116460000Y-78440000D01*
X116750000Y-78150000D02*
X115500000Y-78150000D01*
X116750000Y-79400000D02*
X116750000Y-78150000D01*
%TO.C,U2*%
X75160000Y-138670000D02*
X75160000Y-143870000D01*
X75160000Y-143870000D02*
X80460000Y-143870000D01*
X76810000Y-138670000D02*
X75160000Y-138670000D01*
X80460000Y-138670000D02*
X78810000Y-138670000D01*
X80460000Y-143870000D02*
X80460000Y-138670000D01*
X78810000Y-138670000D02*
G75*
G02*
X76810000Y-138670000I-1000000J0D01*
G01*
%TO.C,J2*%
X77540000Y-50240000D02*
X77540000Y-55850000D01*
X77540000Y-50240000D02*
X78390000Y-50240000D01*
X78390000Y-42540000D02*
X78390000Y-50240000D01*
X78390000Y-42540000D02*
X92410000Y-42540000D01*
X82950000Y-59960000D02*
X86690000Y-59960000D01*
X92410000Y-42540000D02*
X92410000Y-50240000D01*
X92410000Y-50240000D02*
X93260000Y-50240000D01*
X93260000Y-50240000D02*
X93260000Y-55850000D01*
X80410100Y-59808718D02*
G75*
G02*
X77540000Y-55850000I1239898J3918716D01*
G01*
X93260000Y-55850000D02*
G75*
G02*
X91266806Y-59372958I-4110000J0D01*
G01*
D10*
%TO.C,U1*%
X58520000Y-106110000D02*
X119480000Y-106110000D01*
X58520000Y-120080000D02*
X59790000Y-120080000D01*
X58520000Y-121350000D02*
X71220000Y-121350000D01*
X58520000Y-123890000D02*
X58520000Y-106110000D01*
X59790000Y-109920000D02*
X58520000Y-109920000D01*
X59790000Y-120080000D02*
X59790000Y-109920000D01*
X71220000Y-108650000D02*
X58520000Y-108650000D01*
X71220000Y-121350000D02*
X71220000Y-108650000D01*
X75030000Y-113730000D02*
X78840000Y-113730000D01*
X75030000Y-116270000D02*
X75030000Y-113730000D01*
X78840000Y-113730000D02*
X78840000Y-116270000D01*
X78840000Y-116270000D02*
X75030000Y-116270000D01*
X83920000Y-108650000D02*
X83920000Y-121350000D01*
X83920000Y-121350000D02*
X96620000Y-121350000D01*
X96620000Y-108650000D02*
X83920000Y-108650000D01*
X96620000Y-121350000D02*
X96620000Y-108650000D01*
X100480800Y-109160800D02*
X113180800Y-109160800D01*
X100480800Y-111700800D02*
X100480800Y-109160800D01*
X102250000Y-115101600D02*
X102250000Y-121351600D01*
X102250000Y-121351600D02*
X106250000Y-121351600D01*
X106250000Y-115101600D02*
X102250000Y-115101600D01*
X106250000Y-121101600D02*
X106250000Y-115101600D01*
X106250000Y-121351600D02*
X106250000Y-121101600D01*
X110640800Y-111700800D02*
X110640800Y-109160800D01*
X113180800Y-109160800D02*
X113180800Y-111700800D01*
X113180800Y-111700800D02*
X100480800Y-111700800D01*
X113180800Y-111700800D02*
X110640800Y-111700800D01*
X114400000Y-111190000D02*
X114400000Y-118810000D01*
X114400000Y-111190000D02*
X119480000Y-111190000D01*
X114400000Y-118810000D02*
X119480000Y-118810000D01*
X119480000Y-106110000D02*
X119480000Y-123890000D01*
X119480000Y-111190000D02*
X120750000Y-111190000D01*
X119480000Y-123890000D02*
X58520000Y-123890000D01*
X120750000Y-111190000D02*
X120750000Y-118810000D01*
X120750000Y-118810000D02*
X119480000Y-118810000D01*
X77833026Y-115000000D02*
G75*
G02*
X76036974Y-115000000I-898026J0D01*
G01*
X76036974Y-115000000D02*
G75*
G02*
X77833026Y-115000000I898026J0D01*
G01*
D11*
X86311000Y-115434000D02*
X86057000Y-115688000D01*
X85803000Y-115307000D01*
X86057000Y-115053000D01*
X86311000Y-115434000D01*
G36*
X86311000Y-115434000D02*
G01*
X86057000Y-115688000D01*
X85803000Y-115307000D01*
X86057000Y-115053000D01*
X86311000Y-115434000D01*
G37*
X86692000Y-115053000D02*
X86438000Y-115307000D01*
X86184000Y-114926000D01*
X86438000Y-114672000D01*
X86692000Y-115053000D01*
G36*
X86692000Y-115053000D02*
G01*
X86438000Y-115307000D01*
X86184000Y-114926000D01*
X86438000Y-114672000D01*
X86692000Y-115053000D01*
G37*
X87073000Y-114672000D02*
X86819000Y-114926000D01*
X86565000Y-114545000D01*
X86819000Y-114291000D01*
X87073000Y-114672000D01*
G36*
X87073000Y-114672000D02*
G01*
X86819000Y-114926000D01*
X86565000Y-114545000D01*
X86819000Y-114291000D01*
X87073000Y-114672000D01*
G37*
X87454000Y-115180000D02*
X87200000Y-115434000D01*
X86946000Y-115053000D01*
X87200000Y-114799000D01*
X87454000Y-115180000D01*
G36*
X87454000Y-115180000D02*
G01*
X87200000Y-115434000D01*
X86946000Y-115053000D01*
X87200000Y-114799000D01*
X87454000Y-115180000D01*
G37*
X87835000Y-114799000D02*
X87581000Y-115053000D01*
X87327000Y-114672000D01*
X87581000Y-114418000D01*
X87835000Y-114799000D01*
G36*
X87835000Y-114799000D02*
G01*
X87581000Y-115053000D01*
X87327000Y-114672000D01*
X87581000Y-114418000D01*
X87835000Y-114799000D01*
G37*
X87835000Y-115688000D02*
X87581000Y-115942000D01*
X87327000Y-115561000D01*
X87581000Y-115307000D01*
X87835000Y-115688000D01*
G36*
X87835000Y-115688000D02*
G01*
X87581000Y-115942000D01*
X87327000Y-115561000D01*
X87581000Y-115307000D01*
X87835000Y-115688000D01*
G37*
X88216000Y-115307000D02*
X87962000Y-115561000D01*
X87708000Y-115180000D01*
X87962000Y-114926000D01*
X88216000Y-115307000D01*
G36*
X88216000Y-115307000D02*
G01*
X87962000Y-115561000D01*
X87708000Y-115180000D01*
X87962000Y-114926000D01*
X88216000Y-115307000D01*
G37*
X88597000Y-115815000D02*
X88343000Y-116069000D01*
X88089000Y-115688000D01*
X88343000Y-115434000D01*
X88597000Y-115815000D01*
G36*
X88597000Y-115815000D02*
G01*
X88343000Y-116069000D01*
X88089000Y-115688000D01*
X88343000Y-115434000D01*
X88597000Y-115815000D01*
G37*
D12*
%TO.C,J3*%
X36840000Y-129970000D02*
X42840000Y-129970000D01*
X36840000Y-139030000D02*
X36840000Y-130000000D01*
X36840000Y-139030000D02*
X42840000Y-139030000D01*
X42840000Y-129440000D02*
X44890000Y-129440000D01*
X42840000Y-129970000D02*
X42840000Y-129440000D01*
X42840000Y-139560000D02*
X42840000Y-139030000D01*
X42840000Y-139560000D02*
X44890000Y-139560000D01*
X44890000Y-129440000D02*
X44890000Y-128740000D01*
X44890000Y-140260000D02*
X44890000Y-139560000D01*
X47110000Y-140260000D02*
X47110000Y-128740000D01*
X44890000Y-128850000D02*
G75*
G02*
X47110000Y-128850000I1110000J0D01*
G01*
X47096635Y-140321729D02*
G75*
G02*
X44890000Y-140150000I-1096635J171730D01*
G01*
%TO.C,R1*%
X51380000Y-97000000D02*
X52150000Y-97000000D01*
X52150000Y-95630000D02*
X52150000Y-98370000D01*
X52150000Y-98370000D02*
X58690000Y-98370000D01*
X58690000Y-95630000D02*
X52150000Y-95630000D01*
X58690000Y-98370000D02*
X58690000Y-95630000D01*
X59460000Y-97000000D02*
X58690000Y-97000000D01*
%TO.C,J1*%
X95540000Y-50240000D02*
X95540000Y-55850000D01*
X95540000Y-50240000D02*
X96390000Y-50240000D01*
X96390000Y-42540000D02*
X96390000Y-50240000D01*
X96390000Y-42540000D02*
X110410000Y-42540000D01*
X100950000Y-59960000D02*
X104690000Y-59960000D01*
X110410000Y-42540000D02*
X110410000Y-50240000D01*
X110410000Y-50240000D02*
X111260000Y-50240000D01*
X111260000Y-50240000D02*
X111260000Y-55850000D01*
X98410100Y-59808718D02*
G75*
G02*
X95540000Y-55850000I1239898J3918716D01*
G01*
X111260000Y-55850000D02*
G75*
G02*
X109266806Y-59372958I-4110000J0D01*
G01*
%TO.C,U6*%
X48660000Y-105670000D02*
X48660000Y-123570000D01*
X48660000Y-123570000D02*
X53960000Y-123570000D01*
X50310000Y-105670000D02*
X48660000Y-105670000D01*
X53960000Y-105670000D02*
X52310000Y-105670000D01*
X53960000Y-123570000D02*
X53960000Y-105670000D01*
X52310000Y-105670000D02*
G75*
G02*
X50310000Y-105670000I-1000000J0D01*
G01*
%TO.C,SW1*%
D11*
X75935000Y-125430000D02*
X84065000Y-125430000D01*
X84065000Y-134570000D01*
X75935000Y-134570000D01*
X75935000Y-125430000D01*
%TO.C,U5*%
X91150000Y-128325000D02*
X110850000Y-128325000D01*
X110850000Y-149675000D01*
X91150000Y-149675000D01*
X91150000Y-128325000D01*
%TO.C,M78AR05-1*%
X63000000Y-69500000D02*
X55450000Y-69500000D01*
X55450000Y-81000000D01*
X63000000Y-81000000D01*
X63000000Y-69500000D01*
%TO.C,F1*%
X74905000Y-58365000D02*
X55095000Y-58365000D01*
X55095000Y-51635000D01*
X74905000Y-51635000D01*
X74905000Y-58365000D01*
D12*
%TO.C,R2*%
X47630000Y-84810000D02*
X47630000Y-91350000D01*
X47630000Y-91350000D02*
X50370000Y-91350000D01*
X49000000Y-84040000D02*
X49000000Y-84810000D01*
X49000000Y-92120000D02*
X49000000Y-91350000D01*
X50370000Y-84810000D02*
X47630000Y-84810000D01*
X50370000Y-91350000D02*
X50370000Y-84810000D01*
%TO.C,U4*%
D11*
X108000000Y-94500000D02*
X54000000Y-94500000D01*
X54000000Y-64500000D01*
X108000000Y-64500000D01*
X108000000Y-94500000D01*
X58600000Y-67500000D02*
G75*
G02*
X55400000Y-67500000I-1600000J0D01*
G01*
X55400000Y-67500000D02*
G75*
G02*
X58600000Y-67500000I1600000J0D01*
G01*
X58600000Y-91500000D02*
G75*
G02*
X55400000Y-91500000I-1600000J0D01*
G01*
X55400000Y-91500000D02*
G75*
G02*
X58600000Y-91500000I1600000J0D01*
G01*
X106600000Y-67500000D02*
G75*
G02*
X103400000Y-67500000I-1600000J0D01*
G01*
X103400000Y-67500000D02*
G75*
G02*
X106600000Y-67500000I1600000J0D01*
G01*
X106600000Y-91500000D02*
G75*
G02*
X103400000Y-91500000I-1600000J0D01*
G01*
X103400000Y-91500000D02*
G75*
G02*
X106600000Y-91500000I1600000J0D01*
G01*
D12*
%TO.C,U3*%
X48130000Y-72660000D02*
X48130000Y-77960000D01*
X48130000Y-77960000D02*
X53330000Y-77960000D01*
X53330000Y-72660000D02*
X48130000Y-72660000D01*
X53330000Y-74310000D02*
X53330000Y-72660000D01*
X53330000Y-77960000D02*
X53330000Y-76310000D01*
X53330000Y-76310000D02*
G75*
G02*
X53330000Y-74310000I0J1000000D01*
G01*
%TO.C,SW2*%
D11*
X63250000Y-95150000D02*
X71750000Y-95150000D01*
X71750000Y-98850000D01*
X63250000Y-98850000D01*
X63250000Y-95150000D01*
D12*
%TO.C,R8*%
X76040000Y-92000000D02*
X76810000Y-92000000D01*
X76810000Y-90630000D02*
X76810000Y-93370000D01*
X76810000Y-93370000D02*
X83350000Y-93370000D01*
X83350000Y-90630000D02*
X76810000Y-90630000D01*
X83350000Y-93370000D02*
X83350000Y-90630000D01*
X84120000Y-92000000D02*
X83350000Y-92000000D01*
%TO.C,U7*%
D11*
X95900000Y-88650000D02*
X64100000Y-88650000D01*
X64100000Y-68350000D01*
X95900000Y-68350000D01*
X95900000Y-88650000D01*
D12*
%TO.C,R6*%
X61630000Y-129310000D02*
X61630000Y-135850000D01*
X61630000Y-135850000D02*
X64370000Y-135850000D01*
X63000000Y-128540000D02*
X63000000Y-129310000D01*
X63000000Y-136620000D02*
X63000000Y-135850000D01*
X64370000Y-129310000D02*
X61630000Y-129310000D01*
X64370000Y-135850000D02*
X64370000Y-129310000D01*
%TO.C,D2*%
X79790000Y-100920000D02*
X79790000Y-100764000D01*
X79790000Y-103236000D02*
X79790000Y-103080000D01*
X76557665Y-100921392D02*
G75*
G02*
X79790000Y-100764484I1672335J-1078608D01*
G01*
X77188870Y-100920163D02*
G75*
G02*
X79270961Y-100920000I1041130J-1079837D01*
G01*
X79270961Y-103080000D02*
G75*
G02*
X77188870Y-103079837I-1040961J1080000D01*
G01*
X79790000Y-103235516D02*
G75*
G02*
X76557665Y-103078608I-1560000J1235516D01*
G01*
%TO.C,R7*%
X63040000Y-92000000D02*
X63810000Y-92000000D01*
X63810000Y-90630000D02*
X63810000Y-93370000D01*
X63810000Y-93370000D02*
X70350000Y-93370000D01*
X70350000Y-90630000D02*
X63810000Y-90630000D01*
X70350000Y-93370000D02*
X70350000Y-90630000D01*
X71120000Y-92000000D02*
X70350000Y-92000000D01*
%TO.C,C1*%
X100830000Y-124945000D02*
X100830000Y-124279000D01*
X100830000Y-127721000D02*
X100830000Y-127055000D01*
X106170000Y-124279000D02*
X100830000Y-124279000D01*
X106170000Y-124945000D02*
X106170000Y-124279000D01*
X106170000Y-127721000D02*
X100830000Y-127721000D01*
X106170000Y-127721000D02*
X106170000Y-127055000D01*
%TO.C,R4*%
X51380000Y-102000000D02*
X52150000Y-102000000D01*
X52150000Y-100630000D02*
X52150000Y-103370000D01*
X52150000Y-103370000D02*
X58690000Y-103370000D01*
X58690000Y-100630000D02*
X52150000Y-100630000D01*
X58690000Y-103370000D02*
X58690000Y-100630000D01*
X59460000Y-102000000D02*
X58690000Y-102000000D01*
%TD*%
M02*
