<?xml version="1.0" standalone="no"?>
 <!DOCTYPE svg PUBLIC "-//W3C//DTD SVG 1.1//EN" 
 "http://www.w3.org/Graphics/SVG/1.1/DTD/svg11.dtd"> 
<svg
  xmlns:svg="http://www.w3.org/2000/svg"
  xmlns="http://www.w3.org/2000/svg"
  xmlns:xlink="http://www.w3.org/1999/xlink"
  version="1.1"
  width="297.0022mm" height="210.0072mm" viewBox="0.0000 0.0000 297.0022 210.0072">
<title>SVG Image created as computer_sensor_board-F_Fab.svg date 2024/11/12 00:52:09 </title>
  <desc>Image generated by PCBNEW </desc>
<g style="fill:#000000; fill-opacity:1.0000;stroke:#000000; stroke-opacity:1.0000;
stroke-linecap:round; stroke-linejoin:round;"
 transform="translate(0 0) scale(1 1)">
</g>
<g style="fill:none; 
stroke:#000000; stroke-width:0.1500; stroke-opacity:1; 
stroke-linecap:round; stroke-linejoin:round;">
<text x="207.5000" y="68.1500"
textLength="9.5833" font-size="1.3333" lengthAdjust="spacingAndGlyphs"
text-anchor="middle" opacity="0" stroke-opacity="0">Conn_Router</text>
<g class="stroked-text"><desc>Conn_Router</desc>
<path d="M203.6429 68.0096
L203.5952 68.0572
" />
<path d="M203.5952 68.0572
L203.4524 68.1048
" />
<path d="M203.4524 68.1048
L203.3571 68.1048
" />
<path d="M203.3571 68.1048
L203.2143 68.0572
" />
<path d="M203.2143 68.0572
L203.1190 67.9620
" />
<path d="M203.1190 67.9620
L203.0714 67.8667
" />
<path d="M203.0714 67.8667
L203.0238 67.6762
" />
<path d="M203.0238 67.6762
L203.0238 67.5334
" />
<path d="M203.0238 67.5334
L203.0714 67.3429
" />
<path d="M203.0714 67.3429
L203.1190 67.2477
" />
<path d="M203.1190 67.2477
L203.2143 67.1524
" />
<path d="M203.2143 67.1524
L203.3571 67.1048
" />
<path d="M203.3571 67.1048
L203.4524 67.1048
" />
<path d="M203.4524 67.1048
L203.5952 67.1524
" />
<path d="M203.5952 67.1524
L203.6429 67.2001
" />
<path d="M204.2143 68.1048
L204.1190 68.0572
" />
<path d="M204.1190 68.0572
L204.0714 68.0096
" />
<path d="M204.0714 68.0096
L204.0238 67.9143
" />
<path d="M204.0238 67.9143
L204.0238 67.6286
" />
<path d="M204.0238 67.6286
L204.0714 67.5334
" />
<path d="M204.0714 67.5334
L204.1190 67.4858
" />
<path d="M204.1190 67.4858
L204.2143 67.4382
" />
<path d="M204.2143 67.4382
L204.3571 67.4382
" />
<path d="M204.3571 67.4382
L204.4524 67.4858
" />
<path d="M204.4524 67.4858
L204.5000 67.5334
" />
<path d="M204.5000 67.5334
L204.5476 67.6286
" />
<path d="M204.5476 67.6286
L204.5476 67.9143
" />
<path d="M204.5476 67.9143
L204.5000 68.0096
" />
<path d="M204.5000 68.0096
L204.4524 68.0572
" />
<path d="M204.4524 68.0572
L204.3571 68.1048
" />
<path d="M204.3571 68.1048
L204.2143 68.1048
" />
<path d="M204.9762 67.4382
L204.9762 68.1048
" />
<path d="M204.9762 67.5334
L205.0238 67.4858
" />
<path d="M205.0238 67.4858
L205.1190 67.4382
" />
<path d="M205.1190 67.4382
L205.2619 67.4382
" />
<path d="M205.2619 67.4382
L205.3571 67.4858
" />
<path d="M205.3571 67.4858
L205.4048 67.5810
" />
<path d="M205.4048 67.5810
L205.4048 68.1048
" />
<path d="M205.8810 67.4382
L205.8810 68.1048
" />
<path d="M205.8810 67.5334
L205.9286 67.4858
" />
<path d="M205.9286 67.4858
L206.0238 67.4382
" />
<path d="M206.0238 67.4382
L206.1667 67.4382
" />
<path d="M206.1667 67.4382
L206.2619 67.4858
" />
<path d="M206.2619 67.4858
L206.3095 67.5810
" />
<path d="M206.3095 67.5810
L206.3095 68.1048
" />
<path d="M206.5476 68.2001
L207.3095 68.2001
" />
<path d="M208.1190 68.1048
L207.7857 67.6286
" />
<path d="M207.5476 68.1048
L207.5476 67.1048
" />
<path d="M207.5476 67.1048
L207.9286 67.1048
" />
<path d="M207.9286 67.1048
L208.0238 67.1524
" />
<path d="M208.0238 67.1524
L208.0714 67.2001
" />
<path d="M208.0714 67.2001
L208.1190 67.2953
" />
<path d="M208.1190 67.2953
L208.1190 67.4382
" />
<path d="M208.1190 67.4382
L208.0714 67.5334
" />
<path d="M208.0714 67.5334
L208.0238 67.5810
" />
<path d="M208.0238 67.5810
L207.9286 67.6286
" />
<path d="M207.9286 67.6286
L207.5476 67.6286
" />
<path d="M208.6905 68.1048
L208.5952 68.0572
" />
<path d="M208.5952 68.0572
L208.5476 68.0096
" />
<path d="M208.5476 68.0096
L208.5000 67.9143
" />
<path d="M208.5000 67.9143
L208.5000 67.6286
" />
<path d="M208.5000 67.6286
L208.5476 67.5334
" />
<path d="M208.5476 67.5334
L208.5952 67.4858
" />
<path d="M208.5952 67.4858
L208.6905 67.4382
" />
<path d="M208.6905 67.4382
L208.8333 67.4382
" />
<path d="M208.8333 67.4382
L208.9286 67.4858
" />
<path d="M208.9286 67.4858
L208.9762 67.5334
" />
<path d="M208.9762 67.5334
L209.0238 67.6286
" />
<path d="M209.0238 67.6286
L209.0238 67.9143
" />
<path d="M209.0238 67.9143
L208.9762 68.0096
" />
<path d="M208.9762 68.0096
L208.9286 68.0572
" />
<path d="M208.9286 68.0572
L208.8333 68.1048
" />
<path d="M208.8333 68.1048
L208.6905 68.1048
" />
<path d="M209.8810 67.4382
L209.8810 68.1048
" />
<path d="M209.4524 67.4382
L209.4524 67.9620
" />
<path d="M209.4524 67.9620
L209.5000 68.0572
" />
<path d="M209.5000 68.0572
L209.5952 68.1048
" />
<path d="M209.5952 68.1048
L209.7381 68.1048
" />
<path d="M209.7381 68.1048
L209.8333 68.0572
" />
<path d="M209.8333 68.0572
L209.8810 68.0096
" />
<path d="M210.2143 67.4382
L210.5952 67.4382
" />
<path d="M210.3571 67.1048
L210.3571 67.9620
" />
<path d="M210.3571 67.9620
L210.4048 68.0572
" />
<path d="M210.4048 68.0572
L210.5000 68.1048
" />
<path d="M210.5000 68.1048
L210.5952 68.1048
" />
<path d="M211.3095 68.0572
L211.2143 68.1048
" />
<path d="M211.2143 68.1048
L211.0238 68.1048
" />
<path d="M211.0238 68.1048
L210.9286 68.0572
" />
<path d="M210.9286 68.0572
L210.8810 67.9620
" />
<path d="M210.8810 67.9620
L210.8810 67.5810
" />
<path d="M210.8810 67.5810
L210.9286 67.4858
" />
<path d="M210.9286 67.4858
L211.0238 67.4382
" />
<path d="M211.0238 67.4382
L211.2143 67.4382
" />
<path d="M211.2143 67.4382
L211.3095 67.4858
" />
<path d="M211.3095 67.4858
L211.3571 67.5810
" />
<path d="M211.3571 67.5810
L211.3571 67.6762
" />
<path d="M211.3571 67.6762
L210.8810 67.7715
" />
<path d="M211.7857 68.1048
L211.7857 67.4382
" />
<path d="M211.7857 67.6286
L211.8333 67.5334
" />
<path d="M211.8333 67.5334
L211.8810 67.4858
" />
<path d="M211.8810 67.4858
L211.9762 67.4382
" />
<path d="M211.9762 67.4382
L212.0714 67.4382
" />
</g><text x="207.5000" y="61.6500"
textLength="1.9643" font-size="1.3333" lengthAdjust="spacingAndGlyphs"
text-anchor="middle" opacity="0" stroke-opacity="0">J7</text>
<g class="stroked-text"><desc>J7</desc>
<path d="M207.1667 60.6048
L207.1667 61.3191
" />
<path d="M207.1667 61.3191
L207.1190 61.4620
" />
<path d="M207.1190 61.4620
L207.0238 61.5572
" />
<path d="M207.0238 61.5572
L206.8810 61.6048
" />
<path d="M206.8810 61.6048
L206.7857 61.6048
" />
<path d="M207.5476 60.6048
L208.2143 60.6048
" />
<path d="M208.2143 60.6048
L207.7857 61.6048
" />
</g><g transform="rotate(-90.000000 200.0160 73.7900)">
<text x="200.0160" y="74.2900"
textLength="0.9643" font-size="1.3333" lengthAdjust="spacingAndGlyphs"
text-anchor="middle" opacity="0" stroke-opacity="0">~</text>
</g>
<g class="stroked-text"><desc>~</desc>
<path d="M200.0899 74.0519
L200.0422 74.0043
" />
<path d="M200.0422 74.0043
L199.9946 73.9090
" />
<path d="M199.9946 73.9090
L200.0899 73.7186
" />
<path d="M200.0899 73.7186
L200.0422 73.6233
" />
<path d="M200.0422 73.6233
L199.9946 73.5757
" />
</g><g transform="rotate(-90.000000 201.5160 73.7900)">
<text x="201.5160" y="74.2900"
textLength="9.2500" font-size="1.3333" lengthAdjust="spacingAndGlyphs"
text-anchor="middle" opacity="0" stroke-opacity="0">M78AR05-1</text>
</g>
<g class="stroked-text"><desc>M78AR05-1</desc>
<path d="M201.9708 78.0519
L200.9708 78.0519
" />
<path d="M200.9708 78.0519
L201.6851 77.7186
" />
<path d="M201.6851 77.7186
L200.9708 77.3852
" />
<path d="M200.9708 77.3852
L201.9708 77.3852
" />
<path d="M200.9708 77.0043
L200.9708 76.3376
" />
<path d="M200.9708 76.3376
L201.9708 76.7662
" />
<path d="M201.3994 75.8138
L201.3518 75.9090
" />
<path d="M201.3518 75.9090
L201.3042 75.9567
" />
<path d="M201.3042 75.9567
L201.2089 76.0043
" />
<path d="M201.2089 76.0043
L201.1613 76.0043
" />
<path d="M201.1613 76.0043
L201.0661 75.9567
" />
<path d="M201.0661 75.9567
L201.0184 75.9090
" />
<path d="M201.0184 75.9090
L200.9708 75.8138
" />
<path d="M200.9708 75.8138
L200.9708 75.6233
" />
<path d="M200.9708 75.6233
L201.0184 75.5281
" />
<path d="M201.0184 75.5281
L201.0661 75.4805
" />
<path d="M201.0661 75.4805
L201.1613 75.4329
" />
<path d="M201.1613 75.4329
L201.2089 75.4329
" />
<path d="M201.2089 75.4329
L201.3042 75.4805
" />
<path d="M201.3042 75.4805
L201.3518 75.5281
" />
<path d="M201.3518 75.5281
L201.3994 75.6233
" />
<path d="M201.3994 75.6233
L201.3994 75.8138
" />
<path d="M201.3994 75.8138
L201.4470 75.9090
" />
<path d="M201.4470 75.9090
L201.4946 75.9567
" />
<path d="M201.4946 75.9567
L201.5899 76.0043
" />
<path d="M201.5899 76.0043
L201.7803 76.0043
" />
<path d="M201.7803 76.0043
L201.8756 75.9567
" />
<path d="M201.8756 75.9567
L201.9232 75.9090
" />
<path d="M201.9232 75.9090
L201.9708 75.8138
" />
<path d="M201.9708 75.8138
L201.9708 75.6233
" />
<path d="M201.9708 75.6233
L201.9232 75.5281
" />
<path d="M201.9232 75.5281
L201.8756 75.4805
" />
<path d="M201.8756 75.4805
L201.7803 75.4329
" />
<path d="M201.7803 75.4329
L201.5899 75.4329
" />
<path d="M201.5899 75.4329
L201.4946 75.4805
" />
<path d="M201.4946 75.4805
L201.4470 75.5281
" />
<path d="M201.4470 75.5281
L201.3994 75.6233
" />
<path d="M201.6851 75.0519
L201.6851 74.5757
" />
<path d="M201.9708 75.1471
L200.9708 74.8138
" />
<path d="M200.9708 74.8138
L201.9708 74.4805
" />
<path d="M201.9708 73.5757
L201.4946 73.9090
" />
<path d="M201.9708 74.1471
L200.9708 74.1471
" />
<path d="M200.9708 74.1471
L200.9708 73.7662
" />
<path d="M200.9708 73.7662
L201.0184 73.6710
" />
<path d="M201.0184 73.6710
L201.0661 73.6233
" />
<path d="M201.0661 73.6233
L201.1613 73.5757
" />
<path d="M201.1613 73.5757
L201.3042 73.5757
" />
<path d="M201.3042 73.5757
L201.3994 73.6233
" />
<path d="M201.3994 73.6233
L201.4470 73.6710
" />
<path d="M201.4470 73.6710
L201.4946 73.7662
" />
<path d="M201.4946 73.7662
L201.4946 74.1471
" />
<path d="M200.9708 72.9567
L200.9708 72.8614
" />
<path d="M200.9708 72.8614
L201.0184 72.7662
" />
<path d="M201.0184 72.7662
L201.0661 72.7186
" />
<path d="M201.0661 72.7186
L201.1613 72.6710
" />
<path d="M201.1613 72.6710
L201.3518 72.6233
" />
<path d="M201.3518 72.6233
L201.5899 72.6233
" />
<path d="M201.5899 72.6233
L201.7803 72.6710
" />
<path d="M201.7803 72.6710
L201.8756 72.7186
" />
<path d="M201.8756 72.7186
L201.9232 72.7662
" />
<path d="M201.9232 72.7662
L201.9708 72.8614
" />
<path d="M201.9708 72.8614
L201.9708 72.9567
" />
<path d="M201.9708 72.9567
L201.9232 73.0519
" />
<path d="M201.9232 73.0519
L201.8756 73.0995
" />
<path d="M201.8756 73.0995
L201.7803 73.1471
" />
<path d="M201.7803 73.1471
L201.5899 73.1948
" />
<path d="M201.5899 73.1948
L201.3518 73.1948
" />
<path d="M201.3518 73.1948
L201.1613 73.1471
" />
<path d="M201.1613 73.1471
L201.0661 73.0995
" />
<path d="M201.0661 73.0995
L201.0184 73.0519
" />
<path d="M201.0184 73.0519
L200.9708 72.9567
" />
<path d="M200.9708 71.7186
L200.9708 72.1948
" />
<path d="M200.9708 72.1948
L201.4470 72.2424
" />
<path d="M201.4470 72.2424
L201.3994 72.1948
" />
<path d="M201.3994 72.1948
L201.3518 72.0995
" />
<path d="M201.3518 72.0995
L201.3518 71.8614
" />
<path d="M201.3518 71.8614
L201.3994 71.7662
" />
<path d="M201.3994 71.7662
L201.4470 71.7186
" />
<path d="M201.4470 71.7186
L201.5422 71.6710
" />
<path d="M201.5422 71.6710
L201.7803 71.6710
" />
<path d="M201.7803 71.6710
L201.8756 71.7186
" />
<path d="M201.8756 71.7186
L201.9232 71.7662
" />
<path d="M201.9232 71.7662
L201.9708 71.8614
" />
<path d="M201.9708 71.8614
L201.9708 72.0995
" />
<path d="M201.9708 72.0995
L201.9232 72.1948
" />
<path d="M201.9232 72.1948
L201.8756 72.2424
" />
<path d="M201.5899 71.2424
L201.5899 70.4805
" />
<path d="M201.9708 69.4805
L201.9708 70.0519
" />
<path d="M201.9708 69.7662
L200.9708 69.7662
" />
<path d="M200.9708 69.7662
L201.1137 69.8614
" />
<path d="M201.1137 69.8614
L201.2089 69.9567
" />
<path d="M201.2089 69.9567
L201.2565 70.0519
" />
</g><text x="203.9700" y="80.9900"
textLength="0.9643" font-size="1.3333" lengthAdjust="spacingAndGlyphs"
text-anchor="middle" opacity="0" stroke-opacity="0">~</text>
<g class="stroked-text"><desc>~</desc>
<path d="M203.7081 80.5639
L203.7557 80.5162
" />
<path d="M203.7557 80.5162
L203.8510 80.4686
" />
<path d="M203.8510 80.4686
L204.0414 80.5639
" />
<path d="M204.0414 80.5639
L204.1367 80.5162
" />
<path d="M204.1367 80.5162
L204.1843 80.4686
" />
</g><text x="203.9700" y="82.4900"
textLength="2.2500" font-size="1.3333" lengthAdjust="spacingAndGlyphs"
text-anchor="middle" opacity="0" stroke-opacity="0">U2</text>
<g class="stroked-text"><desc>U2</desc>
<path d="M203.2081 81.4448
L203.2081 82.2543
" />
<path d="M203.2081 82.2543
L203.2557 82.3496
" />
<path d="M203.2557 82.3496
L203.3033 82.3972
" />
<path d="M203.3033 82.3972
L203.3986 82.4448
" />
<path d="M203.3986 82.4448
L203.5890 82.4448
" />
<path d="M203.5890 82.4448
L203.6843 82.3972
" />
<path d="M203.6843 82.3972
L203.7319 82.3496
" />
<path d="M203.7319 82.3496
L203.7795 82.2543
" />
<path d="M203.7795 82.2543
L203.7795 81.4448
" />
<path d="M204.2081 81.5401
L204.2557 81.4924
" />
<path d="M204.2557 81.4924
L204.3510 81.4448
" />
<path d="M204.3510 81.4448
L204.5890 81.4448
" />
<path d="M204.5890 81.4448
L204.6843 81.4924
" />
<path d="M204.6843 81.4924
L204.7319 81.5401
" />
<path d="M204.7319 81.5401
L204.7795 81.6353
" />
<path d="M204.7795 81.6353
L204.7795 81.7305
" />
<path d="M204.7795 81.7305
L204.7319 81.8734
" />
<path d="M204.7319 81.8734
L204.1605 82.4448
" />
<path d="M204.1605 82.4448
L204.7795 82.4448
" />
</g><text x="222.5000" y="68.1500"
textLength="9.2976" font-size="1.3333" lengthAdjust="spacingAndGlyphs"
text-anchor="middle" opacity="0" stroke-opacity="0">Conn_VLP16</text>
<g class="stroked-text"><desc>Conn_VLP16</desc>
<path d="M218.7857 68.0096
L218.7381 68.0572
" />
<path d="M218.7381 68.0572
L218.5952 68.1048
" />
<path d="M218.5952 68.1048
L218.5000 68.1048
" />
<path d="M218.5000 68.1048
L218.3571 68.0572
" />
<path d="M218.3571 68.0572
L218.2619 67.9620
" />
<path d="M218.2619 67.9620
L218.2143 67.8667
" />
<path d="M218.2143 67.8667
L218.1667 67.6762
" />
<path d="M218.1667 67.6762
L218.1667 67.5334
" />
<path d="M218.1667 67.5334
L218.2143 67.3429
" />
<path d="M218.2143 67.3429
L218.2619 67.2477
" />
<path d="M218.2619 67.2477
L218.3571 67.1524
" />
<path d="M218.3571 67.1524
L218.5000 67.1048
" />
<path d="M218.5000 67.1048
L218.5952 67.1048
" />
<path d="M218.5952 67.1048
L218.7381 67.1524
" />
<path d="M218.7381 67.1524
L218.7857 67.2001
" />
<path d="M219.3571 68.1048
L219.2619 68.0572
" />
<path d="M219.2619 68.0572
L219.2143 68.0096
" />
<path d="M219.2143 68.0096
L219.1667 67.9143
" />
<path d="M219.1667 67.9143
L219.1667 67.6286
" />
<path d="M219.1667 67.6286
L219.2143 67.5334
" />
<path d="M219.2143 67.5334
L219.2619 67.4858
" />
<path d="M219.2619 67.4858
L219.3571 67.4382
" />
<path d="M219.3571 67.4382
L219.5000 67.4382
" />
<path d="M219.5000 67.4382
L219.5952 67.4858
" />
<path d="M219.5952 67.4858
L219.6429 67.5334
" />
<path d="M219.6429 67.5334
L219.6905 67.6286
" />
<path d="M219.6905 67.6286
L219.6905 67.9143
" />
<path d="M219.6905 67.9143
L219.6429 68.0096
" />
<path d="M219.6429 68.0096
L219.5952 68.0572
" />
<path d="M219.5952 68.0572
L219.5000 68.1048
" />
<path d="M219.5000 68.1048
L219.3571 68.1048
" />
<path d="M220.1190 67.4382
L220.1190 68.1048
" />
<path d="M220.1190 67.5334
L220.1667 67.4858
" />
<path d="M220.1667 67.4858
L220.2619 67.4382
" />
<path d="M220.2619 67.4382
L220.4048 67.4382
" />
<path d="M220.4048 67.4382
L220.5000 67.4858
" />
<path d="M220.5000 67.4858
L220.5476 67.5810
" />
<path d="M220.5476 67.5810
L220.5476 68.1048
" />
<path d="M221.0238 67.4382
L221.0238 68.1048
" />
<path d="M221.0238 67.5334
L221.0714 67.4858
" />
<path d="M221.0714 67.4858
L221.1667 67.4382
" />
<path d="M221.1667 67.4382
L221.3095 67.4382
" />
<path d="M221.3095 67.4382
L221.4048 67.4858
" />
<path d="M221.4048 67.4858
L221.4524 67.5810
" />
<path d="M221.4524 67.5810
L221.4524 68.1048
" />
<path d="M221.6905 68.2001
L222.4524 68.2001
" />
<path d="M222.5476 67.1048
L222.8810 68.1048
" />
<path d="M222.8810 68.1048
L223.2143 67.1048
" />
<path d="M224.0238 68.1048
L223.5476 68.1048
" />
<path d="M223.5476 68.1048
L223.5476 67.1048
" />
<path d="M224.3571 68.1048
L224.3571 67.1048
" />
<path d="M224.3571 67.1048
L224.7381 67.1048
" />
<path d="M224.7381 67.1048
L224.8333 67.1524
" />
<path d="M224.8333 67.1524
L224.8810 67.2001
" />
<path d="M224.8810 67.2001
L224.9286 67.2953
" />
<path d="M224.9286 67.2953
L224.9286 67.4382
" />
<path d="M224.9286 67.4382
L224.8810 67.5334
" />
<path d="M224.8810 67.5334
L224.8333 67.5810
" />
<path d="M224.8333 67.5810
L224.7381 67.6286
" />
<path d="M224.7381 67.6286
L224.3571 67.6286
" />
<path d="M225.8810 68.1048
L225.3095 68.1048
" />
<path d="M225.5952 68.1048
L225.5952 67.1048
" />
<path d="M225.5952 67.1048
L225.5000 67.2477
" />
<path d="M225.5000 67.2477
L225.4048 67.3429
" />
<path d="M225.4048 67.3429
L225.3095 67.3905
" />
<path d="M226.7381 67.1048
L226.5476 67.1048
" />
<path d="M226.5476 67.1048
L226.4524 67.1524
" />
<path d="M226.4524 67.1524
L226.4048 67.2001
" />
<path d="M226.4048 67.2001
L226.3095 67.3429
" />
<path d="M226.3095 67.3429
L226.2619 67.5334
" />
<path d="M226.2619 67.5334
L226.2619 67.9143
" />
<path d="M226.2619 67.9143
L226.3095 68.0096
" />
<path d="M226.3095 68.0096
L226.3571 68.0572
" />
<path d="M226.3571 68.0572
L226.4524 68.1048
" />
<path d="M226.4524 68.1048
L226.6429 68.1048
" />
<path d="M226.6429 68.1048
L226.7381 68.0572
" />
<path d="M226.7381 68.0572
L226.7857 68.0096
" />
<path d="M226.7857 68.0096
L226.8333 67.9143
" />
<path d="M226.8333 67.9143
L226.8333 67.6762
" />
<path d="M226.8333 67.6762
L226.7857 67.5810
" />
<path d="M226.7857 67.5810
L226.7381 67.5334
" />
<path d="M226.7381 67.5334
L226.6429 67.4858
" />
<path d="M226.6429 67.4858
L226.4524 67.4858
" />
<path d="M226.4524 67.4858
L226.3571 67.5334
" />
<path d="M226.3571 67.5334
L226.3095 67.5810
" />
<path d="M226.3095 67.5810
L226.2619 67.6762
" />
</g><text x="222.5000" y="61.6500"
textLength="1.9643" font-size="1.3333" lengthAdjust="spacingAndGlyphs"
text-anchor="middle" opacity="0" stroke-opacity="0">J5</text>
<g class="stroked-text"><desc>J5</desc>
<path d="M222.1667 60.6048
L222.1667 61.3191
" />
<path d="M222.1667 61.3191
L222.1190 61.4620
" />
<path d="M222.1190 61.4620
L222.0238 61.5572
" />
<path d="M222.0238 61.5572
L221.8810 61.6048
" />
<path d="M221.8810 61.6048
L221.7857 61.6048
" />
<path d="M223.1190 60.6048
L222.6429 60.6048
" />
<path d="M222.6429 60.6048
L222.5952 61.0810
" />
<path d="M222.5952 61.0810
L222.6429 61.0334
" />
<path d="M222.6429 61.0334
L222.7381 60.9858
" />
<path d="M222.7381 60.9858
L222.9762 60.9858
" />
<path d="M222.9762 60.9858
L223.0714 61.0334
" />
<path d="M223.0714 61.0334
L223.1190 61.0810
" />
<path d="M223.1190 61.0810
L223.1667 61.1762
" />
<path d="M223.1667 61.1762
L223.1667 61.4143
" />
<path d="M223.1667 61.4143
L223.1190 61.5096
" />
<path d="M223.1190 61.5096
L223.0714 61.5572
" />
<path d="M223.0714 61.5572
L222.9762 61.6048
" />
<path d="M222.9762 61.6048
L222.7381 61.6048
" />
<path d="M222.7381 61.6048
L222.6429 61.5572
" />
<path d="M222.6429 61.5572
L222.5952 61.5096
" />
</g><text x="220.9700" y="80.9900"
textLength="0.9643" font-size="1.3333" lengthAdjust="spacingAndGlyphs"
text-anchor="middle" opacity="0" stroke-opacity="0">~</text>
<g class="stroked-text"><desc>~</desc>
<path d="M220.7081 80.5639
L220.7557 80.5162
" />
<path d="M220.7557 80.5162
L220.8510 80.4686
" />
<path d="M220.8510 80.4686
L221.0414 80.5639
" />
<path d="M221.0414 80.5639
L221.1367 80.5162
" />
<path d="M221.1367 80.5162
L221.1843 80.4686
" />
</g><text x="220.9700" y="82.4900"
textLength="2.2500" font-size="1.3333" lengthAdjust="spacingAndGlyphs"
text-anchor="middle" opacity="0" stroke-opacity="0">U1</text>
<g class="stroked-text"><desc>U1</desc>
<path d="M220.2081 81.4448
L220.2081 82.2543
" />
<path d="M220.2081 82.2543
L220.2557 82.3496
" />
<path d="M220.2557 82.3496
L220.3033 82.3972
" />
<path d="M220.3033 82.3972
L220.3986 82.4448
" />
<path d="M220.3986 82.4448
L220.5890 82.4448
" />
<path d="M220.5890 82.4448
L220.6843 82.3972
" />
<path d="M220.6843 82.3972
L220.7319 82.3496
" />
<path d="M220.7319 82.3496
L220.7795 82.2543
" />
<path d="M220.7795 82.2543
L220.7795 81.4448
" />
<path d="M221.7795 82.4448
L221.2081 82.4448
" />
<path d="M221.4938 82.4448
L221.4938 81.4448
" />
<path d="M221.4938 81.4448
L221.3986 81.5877
" />
<path d="M221.3986 81.5877
L221.3033 81.6829
" />
<path d="M221.3033 81.6829
L221.2081 81.7305
" />
</g><g transform="rotate(-90.000000 204.0000 74.0000)">
<text x="204.0000" y="74.5000"
textLength="4.3929" font-size="1.3333" lengthAdjust="spacingAndGlyphs"
text-anchor="middle" opacity="0" stroke-opacity="0">3.3uF</text>
</g>
<g class="stroked-text"><desc>3.3uF</desc>
<path d="M203.4548 75.9286
L203.4548 75.3095
" />
<path d="M203.4548 75.3095
L203.8358 75.6429
" />
<path d="M203.8358 75.6429
L203.8358 75.5000
" />
<path d="M203.8358 75.5000
L203.8834 75.4048
" />
<path d="M203.8834 75.4048
L203.9310 75.3571
" />
<path d="M203.9310 75.3571
L204.0262 75.3095
" />
<path d="M204.0262 75.3095
L204.2643 75.3095
" />
<path d="M204.2643 75.3095
L204.3596 75.3571
" />
<path d="M204.3596 75.3571
L204.4072 75.4048
" />
<path d="M204.4072 75.4048
L204.4548 75.5000
" />
<path d="M204.4548 75.5000
L204.4548 75.7857
" />
<path d="M204.4548 75.7857
L204.4072 75.8810
" />
<path d="M204.4072 75.8810
L204.3596 75.9286
" />
<path d="M204.3596 74.8810
L204.4072 74.8333
" />
<path d="M204.4072 74.8333
L204.4548 74.8810
" />
<path d="M204.4548 74.8810
L204.4072 74.9286
" />
<path d="M204.4072 74.9286
L204.3596 74.8810
" />
<path d="M204.3596 74.8810
L204.4548 74.8810
" />
<path d="M203.4548 74.5000
L203.4548 73.8810
" />
<path d="M203.4548 73.8810
L203.8358 74.2143
" />
<path d="M203.8358 74.2143
L203.8358 74.0714
" />
<path d="M203.8358 74.0714
L203.8834 73.9762
" />
<path d="M203.8834 73.9762
L203.9310 73.9286
" />
<path d="M203.9310 73.9286
L204.0262 73.8810
" />
<path d="M204.0262 73.8810
L204.2643 73.8810
" />
<path d="M204.2643 73.8810
L204.3596 73.9286
" />
<path d="M204.3596 73.9286
L204.4072 73.9762
" />
<path d="M204.4072 73.9762
L204.4548 74.0714
" />
<path d="M204.4548 74.0714
L204.4548 74.3571
" />
<path d="M204.4548 74.3571
L204.4072 74.4524
" />
<path d="M204.4072 74.4524
L204.3596 74.5000
" />
<path d="M203.7882 73.0238
L204.4548 73.0238
" />
<path d="M203.7882 73.4524
L204.3120 73.4524
" />
<path d="M204.3120 73.4524
L204.4072 73.4048
" />
<path d="M204.4072 73.4048
L204.4548 73.3095
" />
<path d="M204.4548 73.3095
L204.4548 73.1667
" />
<path d="M204.4548 73.1667
L204.4072 73.0714
" />
<path d="M204.4072 73.0714
L204.3596 73.0238
" />
<path d="M203.9310 72.2143
L203.9310 72.5476
" />
<path d="M204.4548 72.5476
L203.4548 72.5476
" />
<path d="M203.4548 72.5476
L203.4548 72.0714
" />
</g><g transform="rotate(-90.000000 207.5000 74.0000)">
<text x="207.5000" y="74.5000"
textLength="2.2024" font-size="1.3333" lengthAdjust="spacingAndGlyphs"
text-anchor="middle" opacity="0" stroke-opacity="0">C1</text>
</g>
<g class="stroked-text"><desc>C1</desc>
<path d="M207.8596 74.1667
L207.9072 74.2143
" />
<path d="M207.9072 74.2143
L207.9548 74.3571
" />
<path d="M207.9548 74.3571
L207.9548 74.4524
" />
<path d="M207.9548 74.4524
L207.9072 74.5952
" />
<path d="M207.9072 74.5952
L207.8120 74.6905
" />
<path d="M207.8120 74.6905
L207.7167 74.7381
" />
<path d="M207.7167 74.7381
L207.5262 74.7857
" />
<path d="M207.5262 74.7857
L207.3834 74.7857
" />
<path d="M207.3834 74.7857
L207.1929 74.7381
" />
<path d="M207.1929 74.7381
L207.0977 74.6905
" />
<path d="M207.0977 74.6905
L207.0024 74.5952
" />
<path d="M207.0024 74.5952
L206.9548 74.4524
" />
<path d="M206.9548 74.4524
L206.9548 74.3571
" />
<path d="M206.9548 74.3571
L207.0024 74.2143
" />
<path d="M207.0024 74.2143
L207.0501 74.1667
" />
<path d="M207.9548 73.2143
L207.9548 73.7857
" />
<path d="M207.9548 73.5000
L206.9548 73.5000
" />
<path d="M206.9548 73.5000
L207.0977 73.5952
" />
<path d="M207.0977 73.5952
L207.1929 73.6905
" />
<path d="M207.1929 73.6905
L207.2405 73.7857
" />
</g><text x="187.5000" y="78.0000"
textLength="9.5357" font-size="1.3333" lengthAdjust="spacingAndGlyphs"
text-anchor="middle" opacity="0" stroke-opacity="0">Conn_Jetson</text>
<g class="stroked-text"><desc>Conn_Jetson</desc>
<path d="M183.6667 77.8596
L183.6190 77.9072
" />
<path d="M183.6190 77.9072
L183.4762 77.9548
" />
<path d="M183.4762 77.9548
L183.3810 77.9548
" />
<path d="M183.3810 77.9548
L183.2381 77.9072
" />
<path d="M183.2381 77.9072
L183.1429 77.8120
" />
<path d="M183.1429 77.8120
L183.0952 77.7167
" />
<path d="M183.0952 77.7167
L183.0476 77.5262
" />
<path d="M183.0476 77.5262
L183.0476 77.3834
" />
<path d="M183.0476 77.3834
L183.0952 77.1929
" />
<path d="M183.0952 77.1929
L183.1429 77.0977
" />
<path d="M183.1429 77.0977
L183.2381 77.0024
" />
<path d="M183.2381 77.0024
L183.3810 76.9548
" />
<path d="M183.3810 76.9548
L183.4762 76.9548
" />
<path d="M183.4762 76.9548
L183.6190 77.0024
" />
<path d="M183.6190 77.0024
L183.6667 77.0501
" />
<path d="M184.2381 77.9548
L184.1429 77.9072
" />
<path d="M184.1429 77.9072
L184.0952 77.8596
" />
<path d="M184.0952 77.8596
L184.0476 77.7643
" />
<path d="M184.0476 77.7643
L184.0476 77.4786
" />
<path d="M184.0476 77.4786
L184.0952 77.3834
" />
<path d="M184.0952 77.3834
L184.1429 77.3358
" />
<path d="M184.1429 77.3358
L184.2381 77.2882
" />
<path d="M184.2381 77.2882
L184.3810 77.2882
" />
<path d="M184.3810 77.2882
L184.4762 77.3358
" />
<path d="M184.4762 77.3358
L184.5238 77.3834
" />
<path d="M184.5238 77.3834
L184.5714 77.4786
" />
<path d="M184.5714 77.4786
L184.5714 77.7643
" />
<path d="M184.5714 77.7643
L184.5238 77.8596
" />
<path d="M184.5238 77.8596
L184.4762 77.9072
" />
<path d="M184.4762 77.9072
L184.3810 77.9548
" />
<path d="M184.3810 77.9548
L184.2381 77.9548
" />
<path d="M185.0000 77.2882
L185.0000 77.9548
" />
<path d="M185.0000 77.3834
L185.0476 77.3358
" />
<path d="M185.0476 77.3358
L185.1429 77.2882
" />
<path d="M185.1429 77.2882
L185.2857 77.2882
" />
<path d="M185.2857 77.2882
L185.3810 77.3358
" />
<path d="M185.3810 77.3358
L185.4286 77.4310
" />
<path d="M185.4286 77.4310
L185.4286 77.9548
" />
<path d="M185.9048 77.2882
L185.9048 77.9548
" />
<path d="M185.9048 77.3834
L185.9524 77.3358
" />
<path d="M185.9524 77.3358
L186.0476 77.2882
" />
<path d="M186.0476 77.2882
L186.1905 77.2882
" />
<path d="M186.1905 77.2882
L186.2857 77.3358
" />
<path d="M186.2857 77.3358
L186.3333 77.4310
" />
<path d="M186.3333 77.4310
L186.3333 77.9548
" />
<path d="M186.5714 78.0501
L187.3333 78.0501
" />
<path d="M187.8571 76.9548
L187.8571 77.6691
" />
<path d="M187.8571 77.6691
L187.8095 77.8120
" />
<path d="M187.8095 77.8120
L187.7143 77.9072
" />
<path d="M187.7143 77.9072
L187.5714 77.9548
" />
<path d="M187.5714 77.9548
L187.4762 77.9548
" />
<path d="M188.7143 77.9072
L188.6190 77.9548
" />
<path d="M188.6190 77.9548
L188.4286 77.9548
" />
<path d="M188.4286 77.9548
L188.3333 77.9072
" />
<path d="M188.3333 77.9072
L188.2857 77.8120
" />
<path d="M188.2857 77.8120
L188.2857 77.4310
" />
<path d="M188.2857 77.4310
L188.3333 77.3358
" />
<path d="M188.3333 77.3358
L188.4286 77.2882
" />
<path d="M188.4286 77.2882
L188.6190 77.2882
" />
<path d="M188.6190 77.2882
L188.7143 77.3358
" />
<path d="M188.7143 77.3358
L188.7619 77.4310
" />
<path d="M188.7619 77.4310
L188.7619 77.5262
" />
<path d="M188.7619 77.5262
L188.2857 77.6215
" />
<path d="M189.0476 77.2882
L189.4286 77.2882
" />
<path d="M189.1905 76.9548
L189.1905 77.8120
" />
<path d="M189.1905 77.8120
L189.2381 77.9072
" />
<path d="M189.2381 77.9072
L189.3333 77.9548
" />
<path d="M189.3333 77.9548
L189.4286 77.9548
" />
<path d="M189.7143 77.9072
L189.8095 77.9548
" />
<path d="M189.8095 77.9548
L190.0000 77.9548
" />
<path d="M190.0000 77.9548
L190.0952 77.9072
" />
<path d="M190.0952 77.9072
L190.1429 77.8120
" />
<path d="M190.1429 77.8120
L190.1429 77.7643
" />
<path d="M190.1429 77.7643
L190.0952 77.6691
" />
<path d="M190.0952 77.6691
L190.0000 77.6215
" />
<path d="M190.0000 77.6215
L189.8571 77.6215
" />
<path d="M189.8571 77.6215
L189.7619 77.5739
" />
<path d="M189.7619 77.5739
L189.7143 77.4786
" />
<path d="M189.7143 77.4786
L189.7143 77.4310
" />
<path d="M189.7143 77.4310
L189.7619 77.3358
" />
<path d="M189.7619 77.3358
L189.8571 77.2882
" />
<path d="M189.8571 77.2882
L190.0000 77.2882
" />
<path d="M190.0000 77.2882
L190.0952 77.3358
" />
<path d="M190.7143 77.9548
L190.6190 77.9072
" />
<path d="M190.6190 77.9072
L190.5714 77.8596
" />
<path d="M190.5714 77.8596
L190.5238 77.7643
" />
<path d="M190.5238 77.7643
L190.5238 77.4786
" />
<path d="M190.5238 77.4786
L190.5714 77.3834
" />
<path d="M190.5714 77.3834
L190.6190 77.3358
" />
<path d="M190.6190 77.3358
L190.7143 77.2882
" />
<path d="M190.7143 77.2882
L190.8571 77.2882
" />
<path d="M190.8571 77.2882
L190.9524 77.3358
" />
<path d="M190.9524 77.3358
L191.0000 77.3834
" />
<path d="M191.0000 77.3834
L191.0476 77.4786
" />
<path d="M191.0476 77.4786
L191.0476 77.7643
" />
<path d="M191.0476 77.7643
L191.0000 77.8596
" />
<path d="M191.0000 77.8596
L190.9524 77.9072
" />
<path d="M190.9524 77.9072
L190.8571 77.9548
" />
<path d="M190.8571 77.9548
L190.7143 77.9548
" />
<path d="M191.4762 77.2882
L191.4762 77.9548
" />
<path d="M191.4762 77.3834
L191.5238 77.3358
" />
<path d="M191.5238 77.3358
L191.6190 77.2882
" />
<path d="M191.6190 77.2882
L191.7619 77.2882
" />
<path d="M191.7619 77.2882
L191.8571 77.3358
" />
<path d="M191.8571 77.3358
L191.9048 77.4310
" />
<path d="M191.9048 77.4310
L191.9048 77.9548
" />
</g><text x="187.5000" y="84.5000"
textLength="1.9643" font-size="1.3333" lengthAdjust="spacingAndGlyphs"
text-anchor="middle" opacity="0" stroke-opacity="0">J2</text>
<g class="stroked-text"><desc>J2</desc>
<path d="M187.1667 83.4548
L187.1667 84.1691
" />
<path d="M187.1667 84.1691
L187.1190 84.3120
" />
<path d="M187.1190 84.3120
L187.0238 84.4072
" />
<path d="M187.0238 84.4072
L186.8810 84.4548
" />
<path d="M186.8810 84.4548
L186.7857 84.4548
" />
<path d="M187.5952 83.5501
L187.6429 83.5024
" />
<path d="M187.6429 83.5024
L187.7381 83.4548
" />
<path d="M187.7381 83.4548
L187.9762 83.4548
" />
<path d="M187.9762 83.4548
L188.0714 83.5024
" />
<path d="M188.0714 83.5024
L188.1190 83.5501
" />
<path d="M188.1190 83.5501
L188.1667 83.6453
" />
<path d="M188.1667 83.6453
L188.1667 83.7405
" />
<path d="M188.1667 83.7405
L188.1190 83.8834
" />
<path d="M188.1190 83.8834
L187.5476 84.4548
" />
<path d="M187.5476 84.4548
L188.1667 84.4548
" />
</g><text x="187.5000" y="68.0000"
textLength="12.9167" font-size="1.3333" lengthAdjust="spacingAndGlyphs"
text-anchor="middle" opacity="0" stroke-opacity="0">Conn_Main_DCDC</text>
<g class="stroked-text"><desc>Conn_Main_DCDC</desc>
<path d="M181.9762 67.8596
L181.9286 67.9072
" />
<path d="M181.9286 67.9072
L181.7857 67.9548
" />
<path d="M181.7857 67.9548
L181.6905 67.9548
" />
<path d="M181.6905 67.9548
L181.5476 67.9072
" />
<path d="M181.5476 67.9072
L181.4524 67.8120
" />
<path d="M181.4524 67.8120
L181.4048 67.7167
" />
<path d="M181.4048 67.7167
L181.3571 67.5262
" />
<path d="M181.3571 67.5262
L181.3571 67.3834
" />
<path d="M181.3571 67.3834
L181.4048 67.1929
" />
<path d="M181.4048 67.1929
L181.4524 67.0977
" />
<path d="M181.4524 67.0977
L181.5476 67.0024
" />
<path d="M181.5476 67.0024
L181.6905 66.9548
" />
<path d="M181.6905 66.9548
L181.7857 66.9548
" />
<path d="M181.7857 66.9548
L181.9286 67.0024
" />
<path d="M181.9286 67.0024
L181.9762 67.0501
" />
<path d="M182.5476 67.9548
L182.4524 67.9072
" />
<path d="M182.4524 67.9072
L182.4048 67.8596
" />
<path d="M182.4048 67.8596
L182.3571 67.7643
" />
<path d="M182.3571 67.7643
L182.3571 67.4786
" />
<path d="M182.3571 67.4786
L182.4048 67.3834
" />
<path d="M182.4048 67.3834
L182.4524 67.3358
" />
<path d="M182.4524 67.3358
L182.5476 67.2882
" />
<path d="M182.5476 67.2882
L182.6905 67.2882
" />
<path d="M182.6905 67.2882
L182.7857 67.3358
" />
<path d="M182.7857 67.3358
L182.8333 67.3834
" />
<path d="M182.8333 67.3834
L182.8810 67.4786
" />
<path d="M182.8810 67.4786
L182.8810 67.7643
" />
<path d="M182.8810 67.7643
L182.8333 67.8596
" />
<path d="M182.8333 67.8596
L182.7857 67.9072
" />
<path d="M182.7857 67.9072
L182.6905 67.9548
" />
<path d="M182.6905 67.9548
L182.5476 67.9548
" />
<path d="M183.3095 67.2882
L183.3095 67.9548
" />
<path d="M183.3095 67.3834
L183.3571 67.3358
" />
<path d="M183.3571 67.3358
L183.4524 67.2882
" />
<path d="M183.4524 67.2882
L183.5952 67.2882
" />
<path d="M183.5952 67.2882
L183.6905 67.3358
" />
<path d="M183.6905 67.3358
L183.7381 67.4310
" />
<path d="M183.7381 67.4310
L183.7381 67.9548
" />
<path d="M184.2143 67.2882
L184.2143 67.9548
" />
<path d="M184.2143 67.3834
L184.2619 67.3358
" />
<path d="M184.2619 67.3358
L184.3571 67.2882
" />
<path d="M184.3571 67.2882
L184.5000 67.2882
" />
<path d="M184.5000 67.2882
L184.5952 67.3358
" />
<path d="M184.5952 67.3358
L184.6429 67.4310
" />
<path d="M184.6429 67.4310
L184.6429 67.9548
" />
<path d="M184.8810 68.0501
L185.6429 68.0501
" />
<path d="M185.8810 67.9548
L185.8810 66.9548
" />
<path d="M185.8810 66.9548
L186.2143 67.6691
" />
<path d="M186.2143 67.6691
L186.5476 66.9548
" />
<path d="M186.5476 66.9548
L186.5476 67.9548
" />
<path d="M187.4524 67.9548
L187.4524 67.4310
" />
<path d="M187.4524 67.4310
L187.4048 67.3358
" />
<path d="M187.4048 67.3358
L187.3095 67.2882
" />
<path d="M187.3095 67.2882
L187.1190 67.2882
" />
<path d="M187.1190 67.2882
L187.0238 67.3358
" />
<path d="M187.4524 67.9072
L187.3571 67.9548
" />
<path d="M187.3571 67.9548
L187.1190 67.9548
" />
<path d="M187.1190 67.9548
L187.0238 67.9072
" />
<path d="M187.0238 67.9072
L186.9762 67.8120
" />
<path d="M186.9762 67.8120
L186.9762 67.7167
" />
<path d="M186.9762 67.7167
L187.0238 67.6215
" />
<path d="M187.0238 67.6215
L187.1190 67.5739
" />
<path d="M187.1190 67.5739
L187.3571 67.5739
" />
<path d="M187.3571 67.5739
L187.4524 67.5262
" />
<path d="M187.9286 67.9548
L187.9286 67.2882
" />
<path d="M187.9286 66.9548
L187.8810 67.0024
" />
<path d="M187.8810 67.0024
L187.9286 67.0501
" />
<path d="M187.9286 67.0501
L187.9762 67.0024
" />
<path d="M187.9762 67.0024
L187.9286 66.9548
" />
<path d="M187.9286 66.9548
L187.9286 67.0501
" />
<path d="M188.4048 67.2882
L188.4048 67.9548
" />
<path d="M188.4048 67.3834
L188.4524 67.3358
" />
<path d="M188.4524 67.3358
L188.5476 67.2882
" />
<path d="M188.5476 67.2882
L188.6905 67.2882
" />
<path d="M188.6905 67.2882
L188.7857 67.3358
" />
<path d="M188.7857 67.3358
L188.8333 67.4310
" />
<path d="M188.8333 67.4310
L188.8333 67.9548
" />
<path d="M189.0714 68.0501
L189.8333 68.0501
" />
<path d="M190.0714 67.9548
L190.0714 66.9548
" />
<path d="M190.0714 66.9548
L190.3095 66.9548
" />
<path d="M190.3095 66.9548
L190.4524 67.0024
" />
<path d="M190.4524 67.0024
L190.5476 67.0977
" />
<path d="M190.5476 67.0977
L190.5952 67.1929
" />
<path d="M190.5952 67.1929
L190.6429 67.3834
" />
<path d="M190.6429 67.3834
L190.6429 67.5262
" />
<path d="M190.6429 67.5262
L190.5952 67.7167
" />
<path d="M190.5952 67.7167
L190.5476 67.8120
" />
<path d="M190.5476 67.8120
L190.4524 67.9072
" />
<path d="M190.4524 67.9072
L190.3095 67.9548
" />
<path d="M190.3095 67.9548
L190.0714 67.9548
" />
<path d="M191.6429 67.8596
L191.5952 67.9072
" />
<path d="M191.5952 67.9072
L191.4524 67.9548
" />
<path d="M191.4524 67.9548
L191.3571 67.9548
" />
<path d="M191.3571 67.9548
L191.2143 67.9072
" />
<path d="M191.2143 67.9072
L191.1190 67.8120
" />
<path d="M191.1190 67.8120
L191.0714 67.7167
" />
<path d="M191.0714 67.7167
L191.0238 67.5262
" />
<path d="M191.0238 67.5262
L191.0238 67.3834
" />
<path d="M191.0238 67.3834
L191.0714 67.1929
" />
<path d="M191.0714 67.1929
L191.1190 67.0977
" />
<path d="M191.1190 67.0977
L191.2143 67.0024
" />
<path d="M191.2143 67.0024
L191.3571 66.9548
" />
<path d="M191.3571 66.9548
L191.4524 66.9548
" />
<path d="M191.4524 66.9548
L191.5952 67.0024
" />
<path d="M191.5952 67.0024
L191.6429 67.0501
" />
<path d="M192.0714 67.9548
L192.0714 66.9548
" />
<path d="M192.0714 66.9548
L192.3095 66.9548
" />
<path d="M192.3095 66.9548
L192.4524 67.0024
" />
<path d="M192.4524 67.0024
L192.5476 67.0977
" />
<path d="M192.5476 67.0977
L192.5952 67.1929
" />
<path d="M192.5952 67.1929
L192.6429 67.3834
" />
<path d="M192.6429 67.3834
L192.6429 67.5262
" />
<path d="M192.6429 67.5262
L192.5952 67.7167
" />
<path d="M192.5952 67.7167
L192.5476 67.8120
" />
<path d="M192.5476 67.8120
L192.4524 67.9072
" />
<path d="M192.4524 67.9072
L192.3095 67.9548
" />
<path d="M192.3095 67.9548
L192.0714 67.9548
" />
<path d="M193.6429 67.8596
L193.5952 67.9072
" />
<path d="M193.5952 67.9072
L193.4524 67.9548
" />
<path d="M193.4524 67.9548
L193.3571 67.9548
" />
<path d="M193.3571 67.9548
L193.2143 67.9072
" />
<path d="M193.2143 67.9072
L193.1190 67.8120
" />
<path d="M193.1190 67.8120
L193.0714 67.7167
" />
<path d="M193.0714 67.7167
L193.0238 67.5262
" />
<path d="M193.0238 67.5262
L193.0238 67.3834
" />
<path d="M193.0238 67.3834
L193.0714 67.1929
" />
<path d="M193.0714 67.1929
L193.1190 67.0977
" />
<path d="M193.1190 67.0977
L193.2143 67.0024
" />
<path d="M193.2143 67.0024
L193.3571 66.9548
" />
<path d="M193.3571 66.9548
L193.4524 66.9548
" />
<path d="M193.4524 66.9548
L193.5952 67.0024
" />
<path d="M193.5952 67.0024
L193.6429 67.0501
" />
</g><text x="187.5000" y="61.5000"
textLength="1.9643" font-size="1.3333" lengthAdjust="spacingAndGlyphs"
text-anchor="middle" opacity="0" stroke-opacity="0">J6</text>
<g class="stroked-text"><desc>J6</desc>
<path d="M187.1667 60.4548
L187.1667 61.1691
" />
<path d="M187.1667 61.1691
L187.1190 61.3120
" />
<path d="M187.1190 61.3120
L187.0238 61.4072
" />
<path d="M187.0238 61.4072
L186.8810 61.4548
" />
<path d="M186.8810 61.4548
L186.7857 61.4548
" />
<path d="M188.0714 60.4548
L187.8810 60.4548
" />
<path d="M187.8810 60.4548
L187.7857 60.5024
" />
<path d="M187.7857 60.5024
L187.7381 60.5501
" />
<path d="M187.7381 60.5501
L187.6429 60.6929
" />
<path d="M187.6429 60.6929
L187.5952 60.8834
" />
<path d="M187.5952 60.8834
L187.5952 61.2643
" />
<path d="M187.5952 61.2643
L187.6429 61.3596
" />
<path d="M187.6429 61.3596
L187.6905 61.4072
" />
<path d="M187.6905 61.4072
L187.7857 61.4548
" />
<path d="M187.7857 61.4548
L187.9762 61.4548
" />
<path d="M187.9762 61.4548
L188.0714 61.4072
" />
<path d="M188.0714 61.4072
L188.1190 61.3596
" />
<path d="M188.1190 61.3596
L188.1667 61.2643
" />
<path d="M188.1667 61.2643
L188.1667 61.0262
" />
<path d="M188.1667 61.0262
L188.1190 60.9310
" />
<path d="M188.1190 60.9310
L188.0714 60.8834
" />
<path d="M188.0714 60.8834
L187.9762 60.8358
" />
<path d="M187.9762 60.8358
L187.7857 60.8358
" />
<path d="M187.7857 60.8358
L187.6905 60.8834
" />
<path d="M187.6905 60.8834
L187.6429 60.9310
" />
<path d="M187.6429 60.9310
L187.5952 61.0262
" />
</g></g>
<g style="fill:none; 
stroke:#000000; stroke-width:0.1000; stroke-opacity:1; 
stroke-linecap:round; stroke-linejoin:round;">
<path d="M201.8500 58.1500
L202.5500 58.1500
" />
<path d="M201.8500 60.1500
L213.1500 60.1500
" />
<path d="M202.5500 56.1000
L202.5500 58.1500
" />
<path d="M202.5500 56.1000
L212.4500 56.1000
" />
<path d="M203.0800 50.1000
L203.0800 56.1000
" />
<path d="M203.0800 50.1000
L211.9200 50.1000
" />
<path d="M211.9200 50.1000
L211.9200 56.1000
" />
<path d="M212.4500 56.1000
L212.4500 58.1000
" />
<path d="M212.4500 58.1500
L213.1500 58.1500
" />
<path d="M201.8500 58.1500 A1.0000 1.0000 0.0 0 0 201.8500 60.1500" />
<path d="M213.1500 60.1500 A1.0000 1.0000 0.0 0 0 213.1500 58.1500" />
<path d="M216.8500 58.1500
L217.5500 58.1500
" />
<path d="M216.8500 60.1500
L228.1500 60.1500
" />
<path d="M217.5500 56.1000
L217.5500 58.1500
" />
<path d="M217.5500 56.1000
L227.4500 56.1000
" />
<path d="M218.0800 50.1000
L218.0800 56.1000
" />
<path d="M218.0800 50.1000
L226.9200 50.1000
" />
<path d="M226.9200 50.1000
L226.9200 56.1000
" />
<path d="M227.4500 56.1000
L227.4500 58.1000
" />
<path d="M227.4500 58.1500
L228.1500 58.1500
" />
<path d="M216.8500 58.1500 A1.0000 1.0000 0.0 0 0 216.8500 60.1500" />
<path d="M228.1500 60.1500 A1.0000 1.0000 0.0 0 0 228.1500 58.1500" />
<path d="M205.2500 70.4000
L205.2500 77.6000
" />
<path d="M205.2500 77.6000
L209.7500 77.6000
" />
<path d="M209.7500 70.4000
L205.2500 70.4000
" />
<path d="M209.7500 77.6000
L209.7500 70.4000
" />
<path d="M182.5500 87.0000
L181.8500 87.0000
" />
<path d="M182.5500 89.0500
L182.5500 87.0500
" />
<path d="M183.0800 95.0500
L183.0800 89.0500
" />
<path d="M191.9200 95.0500
L183.0800 95.0500
" />
<path d="M191.9200 95.0500
L191.9200 89.0500
" />
<path d="M192.4500 89.0500
L182.5500 89.0500
" />
<path d="M192.4500 89.0500
L192.4500 87.0000
" />
<path d="M193.1500 85.0000
L181.8500 85.0000
" />
<path d="M193.1500 87.0000
L192.4500 87.0000
" />
<path d="M181.8500 85.0000 A1.0000 1.0000 0.0 0 0 181.8500 87.0000" />
<path d="M193.1500 87.0000 A1.0000 1.0000 0.0 0 0 193.1500 85.0000" />
<path d="M181.8500 58.0000
L182.5500 58.0000
" />
<path d="M181.8500 60.0000
L193.1500 60.0000
" />
<path d="M182.5500 55.9500
L182.5500 58.0000
" />
<path d="M182.5500 55.9500
L192.4500 55.9500
" />
<path d="M183.0800 49.9500
L183.0800 55.9500
" />
<path d="M183.0800 49.9500
L191.9200 49.9500
" />
<path d="M191.9200 49.9500
L191.9200 55.9500
" />
<path d="M192.4500 55.9500
L192.4500 57.9500
" />
<path d="M192.4500 58.0000
L193.1500 58.0000
" />
<path d="M181.8500 58.0000 A1.0000 1.0000 0.0 0 0 181.8500 60.0000" />
<path d="M193.1500 60.0000 A1.0000 1.0000 0.0 0 0 193.1500 58.0000" />
</g> 
</svg>
