<?xml version="1.0" standalone="no"?>
 <!DOCTYPE svg PUBLIC "-//W3C//DTD SVG 1.1//EN" 
 "http://www.w3.org/Graphics/SVG/1.1/DTD/svg11.dtd"> 
<svg
  xmlns:svg="http://www.w3.org/2000/svg"
  xmlns="http://www.w3.org/2000/svg"
  xmlns:xlink="http://www.w3.org/1999/xlink"
  version="1.1"
  width="297.0022mm" height="210.0072mm" viewBox="0.0000 0.0000 297.0022 210.0072">
<title>SVG Image created as computer_sensor_board-F_Fab.svg date 2024/12/15 02:21:30 </title>
  <desc>Image generated by PCBNEW </desc>
<g style="fill:#000000; fill-opacity:1.0000;stroke:#000000; stroke-opacity:1.0000;
stroke-linecap:round; stroke-linejoin:round;"
 transform="translate(0 0) scale(1 1)">
</g>
<g style="fill:none; 
stroke:#000000; stroke-width:0.1500; stroke-opacity:1; 
stroke-linecap:round; stroke-linejoin:round;">
<text x="175.0000" y="64.7000"
textLength="10.2976" font-size="1.3333" lengthAdjust="spacingAndGlyphs"
text-anchor="middle" opacity="0" stroke-opacity="0">MountingHole</text>
<g class="stroked-text"><desc>MountingHole</desc>
<path d="M170.2143 64.6548
L170.2143 63.6548
" />
<path d="M170.2143 63.6548
L170.5476 64.3691
" />
<path d="M170.5476 64.3691
L170.8810 63.6548
" />
<path d="M170.8810 63.6548
L170.8810 64.6548
" />
<path d="M171.5000 64.6548
L171.4048 64.6072
" />
<path d="M171.4048 64.6072
L171.3571 64.5596
" />
<path d="M171.3571 64.5596
L171.3095 64.4643
" />
<path d="M171.3095 64.4643
L171.3095 64.1786
" />
<path d="M171.3095 64.1786
L171.3571 64.0834
" />
<path d="M171.3571 64.0834
L171.4048 64.0358
" />
<path d="M171.4048 64.0358
L171.5000 63.9882
" />
<path d="M171.5000 63.9882
L171.6429 63.9882
" />
<path d="M171.6429 63.9882
L171.7381 64.0358
" />
<path d="M171.7381 64.0358
L171.7857 64.0834
" />
<path d="M171.7857 64.0834
L171.8333 64.1786
" />
<path d="M171.8333 64.1786
L171.8333 64.4643
" />
<path d="M171.8333 64.4643
L171.7857 64.5596
" />
<path d="M171.7857 64.5596
L171.7381 64.6072
" />
<path d="M171.7381 64.6072
L171.6429 64.6548
" />
<path d="M171.6429 64.6548
L171.5000 64.6548
" />
<path d="M172.6905 63.9882
L172.6905 64.6548
" />
<path d="M172.2619 63.9882
L172.2619 64.5120
" />
<path d="M172.2619 64.5120
L172.3095 64.6072
" />
<path d="M172.3095 64.6072
L172.4048 64.6548
" />
<path d="M172.4048 64.6548
L172.5476 64.6548
" />
<path d="M172.5476 64.6548
L172.6429 64.6072
" />
<path d="M172.6429 64.6072
L172.6905 64.5596
" />
<path d="M173.1667 63.9882
L173.1667 64.6548
" />
<path d="M173.1667 64.0834
L173.2143 64.0358
" />
<path d="M173.2143 64.0358
L173.3095 63.9882
" />
<path d="M173.3095 63.9882
L173.4524 63.9882
" />
<path d="M173.4524 63.9882
L173.5476 64.0358
" />
<path d="M173.5476 64.0358
L173.5952 64.1310
" />
<path d="M173.5952 64.1310
L173.5952 64.6548
" />
<path d="M173.9286 63.9882
L174.3095 63.9882
" />
<path d="M174.0714 63.6548
L174.0714 64.5120
" />
<path d="M174.0714 64.5120
L174.1190 64.6072
" />
<path d="M174.1190 64.6072
L174.2143 64.6548
" />
<path d="M174.2143 64.6548
L174.3095 64.6548
" />
<path d="M174.6429 64.6548
L174.6429 63.9882
" />
<path d="M174.6429 63.6548
L174.5952 63.7024
" />
<path d="M174.5952 63.7024
L174.6429 63.7501
" />
<path d="M174.6429 63.7501
L174.6905 63.7024
" />
<path d="M174.6905 63.7024
L174.6429 63.6548
" />
<path d="M174.6429 63.6548
L174.6429 63.7501
" />
<path d="M175.1190 63.9882
L175.1190 64.6548
" />
<path d="M175.1190 64.0834
L175.1667 64.0358
" />
<path d="M175.1667 64.0358
L175.2619 63.9882
" />
<path d="M175.2619 63.9882
L175.4048 63.9882
" />
<path d="M175.4048 63.9882
L175.5000 64.0358
" />
<path d="M175.5000 64.0358
L175.5476 64.1310
" />
<path d="M175.5476 64.1310
L175.5476 64.6548
" />
<path d="M176.4524 63.9882
L176.4524 64.7977
" />
<path d="M176.4524 64.7977
L176.4048 64.8929
" />
<path d="M176.4048 64.8929
L176.3571 64.9405
" />
<path d="M176.3571 64.9405
L176.2619 64.9882
" />
<path d="M176.2619 64.9882
L176.1190 64.9882
" />
<path d="M176.1190 64.9882
L176.0238 64.9405
" />
<path d="M176.4524 64.6072
L176.3571 64.6548
" />
<path d="M176.3571 64.6548
L176.1667 64.6548
" />
<path d="M176.1667 64.6548
L176.0714 64.6072
" />
<path d="M176.0714 64.6072
L176.0238 64.5596
" />
<path d="M176.0238 64.5596
L175.9762 64.4643
" />
<path d="M175.9762 64.4643
L175.9762 64.1786
" />
<path d="M175.9762 64.1786
L176.0238 64.0834
" />
<path d="M176.0238 64.0834
L176.0714 64.0358
" />
<path d="M176.0714 64.0358
L176.1667 63.9882
" />
<path d="M176.1667 63.9882
L176.3571 63.9882
" />
<path d="M176.3571 63.9882
L176.4524 64.0358
" />
<path d="M176.9286 64.6548
L176.9286 63.6548
" />
<path d="M176.9286 64.1310
L177.5000 64.1310
" />
<path d="M177.5000 64.6548
L177.5000 63.6548
" />
<path d="M178.1190 64.6548
L178.0238 64.6072
" />
<path d="M178.0238 64.6072
L177.9762 64.5596
" />
<path d="M177.9762 64.5596
L177.9286 64.4643
" />
<path d="M177.9286 64.4643
L177.9286 64.1786
" />
<path d="M177.9286 64.1786
L177.9762 64.0834
" />
<path d="M177.9762 64.0834
L178.0238 64.0358
" />
<path d="M178.0238 64.0358
L178.1190 63.9882
" />
<path d="M178.1190 63.9882
L178.2619 63.9882
" />
<path d="M178.2619 63.9882
L178.3571 64.0358
" />
<path d="M178.3571 64.0358
L178.4048 64.0834
" />
<path d="M178.4048 64.0834
L178.4524 64.1786
" />
<path d="M178.4524 64.1786
L178.4524 64.4643
" />
<path d="M178.4524 64.4643
L178.4048 64.5596
" />
<path d="M178.4048 64.5596
L178.3571 64.6072
" />
<path d="M178.3571 64.6072
L178.2619 64.6548
" />
<path d="M178.2619 64.6548
L178.1190 64.6548
" />
<path d="M179.0238 64.6548
L178.9286 64.6072
" />
<path d="M178.9286 64.6072
L178.8810 64.5120
" />
<path d="M178.8810 64.5120
L178.8810 63.6548
" />
<path d="M179.7857 64.6072
L179.6905 64.6548
" />
<path d="M179.6905 64.6548
L179.5000 64.6548
" />
<path d="M179.5000 64.6548
L179.4048 64.6072
" />
<path d="M179.4048 64.6072
L179.3571 64.5120
" />
<path d="M179.3571 64.5120
L179.3571 64.1310
" />
<path d="M179.3571 64.1310
L179.4048 64.0358
" />
<path d="M179.4048 64.0358
L179.5000 63.9882
" />
<path d="M179.5000 63.9882
L179.6905 63.9882
" />
<path d="M179.6905 63.9882
L179.7857 64.0358
" />
<path d="M179.7857 64.0358
L179.8333 64.1310
" />
<path d="M179.8333 64.1310
L179.8333 64.2262
" />
<path d="M179.8333 64.2262
L179.3571 64.3215
" />
</g><text x="175.0000" y="60.5000"
textLength="2.2500" font-size="1.3333" lengthAdjust="spacingAndGlyphs"
text-anchor="middle" opacity="0" stroke-opacity="0">H1</text>
<g class="stroked-text"><desc>H1</desc>
<path d="M174.2381 60.4548
L174.2381 59.4548
" />
<path d="M174.2381 59.9310
L174.8095 59.9310
" />
<path d="M174.8095 60.4548
L174.8095 59.4548
" />
<path d="M175.8095 60.4548
L175.2381 60.4548
" />
<path d="M175.5238 60.4548
L175.5238 59.4548
" />
<path d="M175.5238 59.4548
L175.4286 59.5977
" />
<path d="M175.4286 59.5977
L175.3333 59.6929
" />
<path d="M175.3333 59.6929
L175.2381 59.7405
" />
</g><text x="235.0000" y="64.7000"
textLength="10.2976" font-size="1.3333" lengthAdjust="spacingAndGlyphs"
text-anchor="middle" opacity="0" stroke-opacity="0">MountingHole</text>
<g class="stroked-text"><desc>MountingHole</desc>
<path d="M230.2143 64.6548
L230.2143 63.6548
" />
<path d="M230.2143 63.6548
L230.5476 64.3691
" />
<path d="M230.5476 64.3691
L230.8810 63.6548
" />
<path d="M230.8810 63.6548
L230.8810 64.6548
" />
<path d="M231.5000 64.6548
L231.4048 64.6072
" />
<path d="M231.4048 64.6072
L231.3571 64.5596
" />
<path d="M231.3571 64.5596
L231.3095 64.4643
" />
<path d="M231.3095 64.4643
L231.3095 64.1786
" />
<path d="M231.3095 64.1786
L231.3571 64.0834
" />
<path d="M231.3571 64.0834
L231.4048 64.0358
" />
<path d="M231.4048 64.0358
L231.5000 63.9882
" />
<path d="M231.5000 63.9882
L231.6429 63.9882
" />
<path d="M231.6429 63.9882
L231.7381 64.0358
" />
<path d="M231.7381 64.0358
L231.7857 64.0834
" />
<path d="M231.7857 64.0834
L231.8333 64.1786
" />
<path d="M231.8333 64.1786
L231.8333 64.4643
" />
<path d="M231.8333 64.4643
L231.7857 64.5596
" />
<path d="M231.7857 64.5596
L231.7381 64.6072
" />
<path d="M231.7381 64.6072
L231.6429 64.6548
" />
<path d="M231.6429 64.6548
L231.5000 64.6548
" />
<path d="M232.6905 63.9882
L232.6905 64.6548
" />
<path d="M232.2619 63.9882
L232.2619 64.5120
" />
<path d="M232.2619 64.5120
L232.3095 64.6072
" />
<path d="M232.3095 64.6072
L232.4048 64.6548
" />
<path d="M232.4048 64.6548
L232.5476 64.6548
" />
<path d="M232.5476 64.6548
L232.6429 64.6072
" />
<path d="M232.6429 64.6072
L232.6905 64.5596
" />
<path d="M233.1667 63.9882
L233.1667 64.6548
" />
<path d="M233.1667 64.0834
L233.2143 64.0358
" />
<path d="M233.2143 64.0358
L233.3095 63.9882
" />
<path d="M233.3095 63.9882
L233.4524 63.9882
" />
<path d="M233.4524 63.9882
L233.5476 64.0358
" />
<path d="M233.5476 64.0358
L233.5952 64.1310
" />
<path d="M233.5952 64.1310
L233.5952 64.6548
" />
<path d="M233.9286 63.9882
L234.3095 63.9882
" />
<path d="M234.0714 63.6548
L234.0714 64.5120
" />
<path d="M234.0714 64.5120
L234.1190 64.6072
" />
<path d="M234.1190 64.6072
L234.2143 64.6548
" />
<path d="M234.2143 64.6548
L234.3095 64.6548
" />
<path d="M234.6429 64.6548
L234.6429 63.9882
" />
<path d="M234.6429 63.6548
L234.5952 63.7024
" />
<path d="M234.5952 63.7024
L234.6429 63.7501
" />
<path d="M234.6429 63.7501
L234.6905 63.7024
" />
<path d="M234.6905 63.7024
L234.6429 63.6548
" />
<path d="M234.6429 63.6548
L234.6429 63.7501
" />
<path d="M235.1190 63.9882
L235.1190 64.6548
" />
<path d="M235.1190 64.0834
L235.1667 64.0358
" />
<path d="M235.1667 64.0358
L235.2619 63.9882
" />
<path d="M235.2619 63.9882
L235.4048 63.9882
" />
<path d="M235.4048 63.9882
L235.5000 64.0358
" />
<path d="M235.5000 64.0358
L235.5476 64.1310
" />
<path d="M235.5476 64.1310
L235.5476 64.6548
" />
<path d="M236.4524 63.9882
L236.4524 64.7977
" />
<path d="M236.4524 64.7977
L236.4048 64.8929
" />
<path d="M236.4048 64.8929
L236.3571 64.9405
" />
<path d="M236.3571 64.9405
L236.2619 64.9882
" />
<path d="M236.2619 64.9882
L236.1190 64.9882
" />
<path d="M236.1190 64.9882
L236.0238 64.9405
" />
<path d="M236.4524 64.6072
L236.3571 64.6548
" />
<path d="M236.3571 64.6548
L236.1667 64.6548
" />
<path d="M236.1667 64.6548
L236.0714 64.6072
" />
<path d="M236.0714 64.6072
L236.0238 64.5596
" />
<path d="M236.0238 64.5596
L235.9762 64.4643
" />
<path d="M235.9762 64.4643
L235.9762 64.1786
" />
<path d="M235.9762 64.1786
L236.0238 64.0834
" />
<path d="M236.0238 64.0834
L236.0714 64.0358
" />
<path d="M236.0714 64.0358
L236.1667 63.9882
" />
<path d="M236.1667 63.9882
L236.3571 63.9882
" />
<path d="M236.3571 63.9882
L236.4524 64.0358
" />
<path d="M236.9286 64.6548
L236.9286 63.6548
" />
<path d="M236.9286 64.1310
L237.5000 64.1310
" />
<path d="M237.5000 64.6548
L237.5000 63.6548
" />
<path d="M238.1190 64.6548
L238.0238 64.6072
" />
<path d="M238.0238 64.6072
L237.9762 64.5596
" />
<path d="M237.9762 64.5596
L237.9286 64.4643
" />
<path d="M237.9286 64.4643
L237.9286 64.1786
" />
<path d="M237.9286 64.1786
L237.9762 64.0834
" />
<path d="M237.9762 64.0834
L238.0238 64.0358
" />
<path d="M238.0238 64.0358
L238.1190 63.9882
" />
<path d="M238.1190 63.9882
L238.2619 63.9882
" />
<path d="M238.2619 63.9882
L238.3571 64.0358
" />
<path d="M238.3571 64.0358
L238.4048 64.0834
" />
<path d="M238.4048 64.0834
L238.4524 64.1786
" />
<path d="M238.4524 64.1786
L238.4524 64.4643
" />
<path d="M238.4524 64.4643
L238.4048 64.5596
" />
<path d="M238.4048 64.5596
L238.3571 64.6072
" />
<path d="M238.3571 64.6072
L238.2619 64.6548
" />
<path d="M238.2619 64.6548
L238.1190 64.6548
" />
<path d="M239.0238 64.6548
L238.9286 64.6072
" />
<path d="M238.9286 64.6072
L238.8810 64.5120
" />
<path d="M238.8810 64.5120
L238.8810 63.6548
" />
<path d="M239.7857 64.6072
L239.6905 64.6548
" />
<path d="M239.6905 64.6548
L239.5000 64.6548
" />
<path d="M239.5000 64.6548
L239.4048 64.6072
" />
<path d="M239.4048 64.6072
L239.3571 64.5120
" />
<path d="M239.3571 64.5120
L239.3571 64.1310
" />
<path d="M239.3571 64.1310
L239.4048 64.0358
" />
<path d="M239.4048 64.0358
L239.5000 63.9882
" />
<path d="M239.5000 63.9882
L239.6905 63.9882
" />
<path d="M239.6905 63.9882
L239.7857 64.0358
" />
<path d="M239.7857 64.0358
L239.8333 64.1310
" />
<path d="M239.8333 64.1310
L239.8333 64.2262
" />
<path d="M239.8333 64.2262
L239.3571 64.3215
" />
</g><text x="235.0000" y="60.5000"
textLength="2.2500" font-size="1.3333" lengthAdjust="spacingAndGlyphs"
text-anchor="middle" opacity="0" stroke-opacity="0">H2</text>
<g class="stroked-text"><desc>H2</desc>
<path d="M234.2381 60.4548
L234.2381 59.4548
" />
<path d="M234.2381 59.9310
L234.8095 59.9310
" />
<path d="M234.8095 60.4548
L234.8095 59.4548
" />
<path d="M235.2381 59.5501
L235.2857 59.5024
" />
<path d="M235.2857 59.5024
L235.3810 59.4548
" />
<path d="M235.3810 59.4548
L235.6190 59.4548
" />
<path d="M235.6190 59.4548
L235.7143 59.5024
" />
<path d="M235.7143 59.5024
L235.7619 59.5501
" />
<path d="M235.7619 59.5501
L235.8095 59.6453
" />
<path d="M235.8095 59.6453
L235.8095 59.7405
" />
<path d="M235.8095 59.7405
L235.7619 59.8834
" />
<path d="M235.7619 59.8834
L235.1905 60.4548
" />
<path d="M235.1905 60.4548
L235.8095 60.4548
" />
</g><text x="204.5000" y="68.0000"
textLength="9.5833" font-size="1.3333" lengthAdjust="spacingAndGlyphs"
text-anchor="middle" opacity="0" stroke-opacity="0">Conn_Router</text>
<g class="stroked-text"><desc>Conn_Router</desc>
<path d="M200.6429 67.8596
L200.5952 67.9072
" />
<path d="M200.5952 67.9072
L200.4524 67.9548
" />
<path d="M200.4524 67.9548
L200.3571 67.9548
" />
<path d="M200.3571 67.9548
L200.2143 67.9072
" />
<path d="M200.2143 67.9072
L200.1190 67.8120
" />
<path d="M200.1190 67.8120
L200.0714 67.7167
" />
<path d="M200.0714 67.7167
L200.0238 67.5262
" />
<path d="M200.0238 67.5262
L200.0238 67.3834
" />
<path d="M200.0238 67.3834
L200.0714 67.1929
" />
<path d="M200.0714 67.1929
L200.1190 67.0977
" />
<path d="M200.1190 67.0977
L200.2143 67.0024
" />
<path d="M200.2143 67.0024
L200.3571 66.9548
" />
<path d="M200.3571 66.9548
L200.4524 66.9548
" />
<path d="M200.4524 66.9548
L200.5952 67.0024
" />
<path d="M200.5952 67.0024
L200.6429 67.0501
" />
<path d="M201.2143 67.9548
L201.1190 67.9072
" />
<path d="M201.1190 67.9072
L201.0714 67.8596
" />
<path d="M201.0714 67.8596
L201.0238 67.7643
" />
<path d="M201.0238 67.7643
L201.0238 67.4786
" />
<path d="M201.0238 67.4786
L201.0714 67.3834
" />
<path d="M201.0714 67.3834
L201.1190 67.3358
" />
<path d="M201.1190 67.3358
L201.2143 67.2882
" />
<path d="M201.2143 67.2882
L201.3571 67.2882
" />
<path d="M201.3571 67.2882
L201.4524 67.3358
" />
<path d="M201.4524 67.3358
L201.5000 67.3834
" />
<path d="M201.5000 67.3834
L201.5476 67.4786
" />
<path d="M201.5476 67.4786
L201.5476 67.7643
" />
<path d="M201.5476 67.7643
L201.5000 67.8596
" />
<path d="M201.5000 67.8596
L201.4524 67.9072
" />
<path d="M201.4524 67.9072
L201.3571 67.9548
" />
<path d="M201.3571 67.9548
L201.2143 67.9548
" />
<path d="M201.9762 67.2882
L201.9762 67.9548
" />
<path d="M201.9762 67.3834
L202.0238 67.3358
" />
<path d="M202.0238 67.3358
L202.1190 67.2882
" />
<path d="M202.1190 67.2882
L202.2619 67.2882
" />
<path d="M202.2619 67.2882
L202.3571 67.3358
" />
<path d="M202.3571 67.3358
L202.4048 67.4310
" />
<path d="M202.4048 67.4310
L202.4048 67.9548
" />
<path d="M202.8810 67.2882
L202.8810 67.9548
" />
<path d="M202.8810 67.3834
L202.9286 67.3358
" />
<path d="M202.9286 67.3358
L203.0238 67.2882
" />
<path d="M203.0238 67.2882
L203.1667 67.2882
" />
<path d="M203.1667 67.2882
L203.2619 67.3358
" />
<path d="M203.2619 67.3358
L203.3095 67.4310
" />
<path d="M203.3095 67.4310
L203.3095 67.9548
" />
<path d="M203.5476 68.0501
L204.3095 68.0501
" />
<path d="M205.1190 67.9548
L204.7857 67.4786
" />
<path d="M204.5476 67.9548
L204.5476 66.9548
" />
<path d="M204.5476 66.9548
L204.9286 66.9548
" />
<path d="M204.9286 66.9548
L205.0238 67.0024
" />
<path d="M205.0238 67.0024
L205.0714 67.0501
" />
<path d="M205.0714 67.0501
L205.1190 67.1453
" />
<path d="M205.1190 67.1453
L205.1190 67.2882
" />
<path d="M205.1190 67.2882
L205.0714 67.3834
" />
<path d="M205.0714 67.3834
L205.0238 67.4310
" />
<path d="M205.0238 67.4310
L204.9286 67.4786
" />
<path d="M204.9286 67.4786
L204.5476 67.4786
" />
<path d="M205.6905 67.9548
L205.5952 67.9072
" />
<path d="M205.5952 67.9072
L205.5476 67.8596
" />
<path d="M205.5476 67.8596
L205.5000 67.7643
" />
<path d="M205.5000 67.7643
L205.5000 67.4786
" />
<path d="M205.5000 67.4786
L205.5476 67.3834
" />
<path d="M205.5476 67.3834
L205.5952 67.3358
" />
<path d="M205.5952 67.3358
L205.6905 67.2882
" />
<path d="M205.6905 67.2882
L205.8333 67.2882
" />
<path d="M205.8333 67.2882
L205.9286 67.3358
" />
<path d="M205.9286 67.3358
L205.9762 67.3834
" />
<path d="M205.9762 67.3834
L206.0238 67.4786
" />
<path d="M206.0238 67.4786
L206.0238 67.7643
" />
<path d="M206.0238 67.7643
L205.9762 67.8596
" />
<path d="M205.9762 67.8596
L205.9286 67.9072
" />
<path d="M205.9286 67.9072
L205.8333 67.9548
" />
<path d="M205.8333 67.9548
L205.6905 67.9548
" />
<path d="M206.8810 67.2882
L206.8810 67.9548
" />
<path d="M206.4524 67.2882
L206.4524 67.8120
" />
<path d="M206.4524 67.8120
L206.5000 67.9072
" />
<path d="M206.5000 67.9072
L206.5952 67.9548
" />
<path d="M206.5952 67.9548
L206.7381 67.9548
" />
<path d="M206.7381 67.9548
L206.8333 67.9072
" />
<path d="M206.8333 67.9072
L206.8810 67.8596
" />
<path d="M207.2143 67.2882
L207.5952 67.2882
" />
<path d="M207.3571 66.9548
L207.3571 67.8120
" />
<path d="M207.3571 67.8120
L207.4048 67.9072
" />
<path d="M207.4048 67.9072
L207.5000 67.9548
" />
<path d="M207.5000 67.9548
L207.5952 67.9548
" />
<path d="M208.3095 67.9072
L208.2143 67.9548
" />
<path d="M208.2143 67.9548
L208.0238 67.9548
" />
<path d="M208.0238 67.9548
L207.9286 67.9072
" />
<path d="M207.9286 67.9072
L207.8810 67.8120
" />
<path d="M207.8810 67.8120
L207.8810 67.4310
" />
<path d="M207.8810 67.4310
L207.9286 67.3358
" />
<path d="M207.9286 67.3358
L208.0238 67.2882
" />
<path d="M208.0238 67.2882
L208.2143 67.2882
" />
<path d="M208.2143 67.2882
L208.3095 67.3358
" />
<path d="M208.3095 67.3358
L208.3571 67.4310
" />
<path d="M208.3571 67.4310
L208.3571 67.5262
" />
<path d="M208.3571 67.5262
L207.8810 67.6215
" />
<path d="M208.7857 67.9548
L208.7857 67.2882
" />
<path d="M208.7857 67.4786
L208.8333 67.3834
" />
<path d="M208.8333 67.3834
L208.8810 67.3358
" />
<path d="M208.8810 67.3358
L208.9762 67.2882
" />
<path d="M208.9762 67.2882
L209.0714 67.2882
" />
</g><text x="204.5000" y="61.5000"
textLength="1.9643" font-size="1.3333" lengthAdjust="spacingAndGlyphs"
text-anchor="middle" opacity="0" stroke-opacity="0">J7</text>
<g class="stroked-text"><desc>J7</desc>
<path d="M204.1667 60.4548
L204.1667 61.1691
" />
<path d="M204.1667 61.1691
L204.1190 61.3120
" />
<path d="M204.1190 61.3120
L204.0238 61.4072
" />
<path d="M204.0238 61.4072
L203.8810 61.4548
" />
<path d="M203.8810 61.4548
L203.7857 61.4548
" />
<path d="M204.5476 60.4548
L205.2143 60.4548
" />
<path d="M205.2143 60.4548
L204.7857 61.4548
" />
</g><g transform="rotate(-90.000000 201.0000 73.0000)">
<text x="201.0000" y="73.5000"
textLength="0.9643" font-size="1.3333" lengthAdjust="spacingAndGlyphs"
text-anchor="middle" opacity="0" stroke-opacity="0">~</text>
</g>
<g class="stroked-text"><desc>~</desc>
<path d="M201.0739 73.2619
L201.0262 73.2143
" />
<path d="M201.0262 73.2143
L200.9786 73.1190
" />
<path d="M200.9786 73.1190
L201.0739 72.9286
" />
<path d="M201.0739 72.9286
L201.0262 72.8333
" />
<path d="M201.0262 72.8333
L200.9786 72.7857
" />
</g><g transform="rotate(-90.000000 202.5000 73.0000)">
<text x="202.5000" y="73.5000"
textLength="9.2500" font-size="1.3333" lengthAdjust="spacingAndGlyphs"
text-anchor="middle" opacity="0" stroke-opacity="0">M78AR05-1</text>
</g>
<g class="stroked-text"><desc>M78AR05-1</desc>
<path d="M202.9548 77.2619
L201.9548 77.2619
" />
<path d="M201.9548 77.2619
L202.6691 76.9286
" />
<path d="M202.6691 76.9286
L201.9548 76.5952
" />
<path d="M201.9548 76.5952
L202.9548 76.5952
" />
<path d="M201.9548 76.2143
L201.9548 75.5476
" />
<path d="M201.9548 75.5476
L202.9548 75.9762
" />
<path d="M202.3834 75.0238
L202.3358 75.1190
" />
<path d="M202.3358 75.1190
L202.2882 75.1667
" />
<path d="M202.2882 75.1667
L202.1929 75.2143
" />
<path d="M202.1929 75.2143
L202.1453 75.2143
" />
<path d="M202.1453 75.2143
L202.0501 75.1667
" />
<path d="M202.0501 75.1667
L202.0024 75.1190
" />
<path d="M202.0024 75.1190
L201.9548 75.0238
" />
<path d="M201.9548 75.0238
L201.9548 74.8333
" />
<path d="M201.9548 74.8333
L202.0024 74.7381
" />
<path d="M202.0024 74.7381
L202.0501 74.6905
" />
<path d="M202.0501 74.6905
L202.1453 74.6429
" />
<path d="M202.1453 74.6429
L202.1929 74.6429
" />
<path d="M202.1929 74.6429
L202.2882 74.6905
" />
<path d="M202.2882 74.6905
L202.3358 74.7381
" />
<path d="M202.3358 74.7381
L202.3834 74.8333
" />
<path d="M202.3834 74.8333
L202.3834 75.0238
" />
<path d="M202.3834 75.0238
L202.4310 75.1190
" />
<path d="M202.4310 75.1190
L202.4786 75.1667
" />
<path d="M202.4786 75.1667
L202.5739 75.2143
" />
<path d="M202.5739 75.2143
L202.7643 75.2143
" />
<path d="M202.7643 75.2143
L202.8596 75.1667
" />
<path d="M202.8596 75.1667
L202.9072 75.1190
" />
<path d="M202.9072 75.1190
L202.9548 75.0238
" />
<path d="M202.9548 75.0238
L202.9548 74.8333
" />
<path d="M202.9548 74.8333
L202.9072 74.7381
" />
<path d="M202.9072 74.7381
L202.8596 74.6905
" />
<path d="M202.8596 74.6905
L202.7643 74.6429
" />
<path d="M202.7643 74.6429
L202.5739 74.6429
" />
<path d="M202.5739 74.6429
L202.4786 74.6905
" />
<path d="M202.4786 74.6905
L202.4310 74.7381
" />
<path d="M202.4310 74.7381
L202.3834 74.8333
" />
<path d="M202.6691 74.2619
L202.6691 73.7857
" />
<path d="M202.9548 74.3571
L201.9548 74.0238
" />
<path d="M201.9548 74.0238
L202.9548 73.6905
" />
<path d="M202.9548 72.7857
L202.4786 73.1190
" />
<path d="M202.9548 73.3571
L201.9548 73.3571
" />
<path d="M201.9548 73.3571
L201.9548 72.9762
" />
<path d="M201.9548 72.9762
L202.0024 72.8810
" />
<path d="M202.0024 72.8810
L202.0501 72.8333
" />
<path d="M202.0501 72.8333
L202.1453 72.7857
" />
<path d="M202.1453 72.7857
L202.2882 72.7857
" />
<path d="M202.2882 72.7857
L202.3834 72.8333
" />
<path d="M202.3834 72.8333
L202.4310 72.8810
" />
<path d="M202.4310 72.8810
L202.4786 72.9762
" />
<path d="M202.4786 72.9762
L202.4786 73.3571
" />
<path d="M201.9548 72.1667
L201.9548 72.0714
" />
<path d="M201.9548 72.0714
L202.0024 71.9762
" />
<path d="M202.0024 71.9762
L202.0501 71.9286
" />
<path d="M202.0501 71.9286
L202.1453 71.8810
" />
<path d="M202.1453 71.8810
L202.3358 71.8333
" />
<path d="M202.3358 71.8333
L202.5739 71.8333
" />
<path d="M202.5739 71.8333
L202.7643 71.8810
" />
<path d="M202.7643 71.8810
L202.8596 71.9286
" />
<path d="M202.8596 71.9286
L202.9072 71.9762
" />
<path d="M202.9072 71.9762
L202.9548 72.0714
" />
<path d="M202.9548 72.0714
L202.9548 72.1667
" />
<path d="M202.9548 72.1667
L202.9072 72.2619
" />
<path d="M202.9072 72.2619
L202.8596 72.3095
" />
<path d="M202.8596 72.3095
L202.7643 72.3571
" />
<path d="M202.7643 72.3571
L202.5739 72.4048
" />
<path d="M202.5739 72.4048
L202.3358 72.4048
" />
<path d="M202.3358 72.4048
L202.1453 72.3571
" />
<path d="M202.1453 72.3571
L202.0501 72.3095
" />
<path d="M202.0501 72.3095
L202.0024 72.2619
" />
<path d="M202.0024 72.2619
L201.9548 72.1667
" />
<path d="M201.9548 70.9286
L201.9548 71.4048
" />
<path d="M201.9548 71.4048
L202.4310 71.4524
" />
<path d="M202.4310 71.4524
L202.3834 71.4048
" />
<path d="M202.3834 71.4048
L202.3358 71.3095
" />
<path d="M202.3358 71.3095
L202.3358 71.0714
" />
<path d="M202.3358 71.0714
L202.3834 70.9762
" />
<path d="M202.3834 70.9762
L202.4310 70.9286
" />
<path d="M202.4310 70.9286
L202.5262 70.8810
" />
<path d="M202.5262 70.8810
L202.7643 70.8810
" />
<path d="M202.7643 70.8810
L202.8596 70.9286
" />
<path d="M202.8596 70.9286
L202.9072 70.9762
" />
<path d="M202.9072 70.9762
L202.9548 71.0714
" />
<path d="M202.9548 71.0714
L202.9548 71.3095
" />
<path d="M202.9548 71.3095
L202.9072 71.4048
" />
<path d="M202.9072 71.4048
L202.8596 71.4524
" />
<path d="M202.5739 70.4524
L202.5739 69.6905
" />
<path d="M202.9548 68.6905
L202.9548 69.2619
" />
<path d="M202.9548 68.9762
L201.9548 68.9762
" />
<path d="M201.9548 68.9762
L202.0977 69.0714
" />
<path d="M202.0977 69.0714
L202.1929 69.1667
" />
<path d="M202.1929 69.1667
L202.2405 69.2619
" />
</g><text x="204.9700" y="80.9900"
textLength="0.9643" font-size="1.3333" lengthAdjust="spacingAndGlyphs"
text-anchor="middle" opacity="0" stroke-opacity="0">~</text>
<g class="stroked-text"><desc>~</desc>
<path d="M204.7081 80.5639
L204.7557 80.5162
" />
<path d="M204.7557 80.5162
L204.8510 80.4686
" />
<path d="M204.8510 80.4686
L205.0414 80.5639
" />
<path d="M205.0414 80.5639
L205.1367 80.5162
" />
<path d="M205.1367 80.5162
L205.1843 80.4686
" />
</g><text x="204.9700" y="82.4900"
textLength="2.2500" font-size="1.3333" lengthAdjust="spacingAndGlyphs"
text-anchor="middle" opacity="0" stroke-opacity="0">U2</text>
<g class="stroked-text"><desc>U2</desc>
<path d="M204.2081 81.4448
L204.2081 82.2543
" />
<path d="M204.2081 82.2543
L204.2557 82.3496
" />
<path d="M204.2557 82.3496
L204.3033 82.3972
" />
<path d="M204.3033 82.3972
L204.3986 82.4448
" />
<path d="M204.3986 82.4448
L204.5890 82.4448
" />
<path d="M204.5890 82.4448
L204.6843 82.3972
" />
<path d="M204.6843 82.3972
L204.7319 82.3496
" />
<path d="M204.7319 82.3496
L204.7795 82.2543
" />
<path d="M204.7795 82.2543
L204.7795 81.4448
" />
<path d="M205.2081 81.5401
L205.2557 81.4924
" />
<path d="M205.2557 81.4924
L205.3510 81.4448
" />
<path d="M205.3510 81.4448
L205.5890 81.4448
" />
<path d="M205.5890 81.4448
L205.6843 81.4924
" />
<path d="M205.6843 81.4924
L205.7319 81.5401
" />
<path d="M205.7319 81.5401
L205.7795 81.6353
" />
<path d="M205.7795 81.6353
L205.7795 81.7305
" />
<path d="M205.7795 81.7305
L205.7319 81.8734
" />
<path d="M205.7319 81.8734
L205.1605 82.4448
" />
<path d="M205.1605 82.4448
L205.7795 82.4448
" />
</g><g transform="rotate(-90.000000 182.3000 73.5000)">
<text x="182.3000" y="74.0000"
textLength="9.2976" font-size="1.3333" lengthAdjust="spacingAndGlyphs"
text-anchor="middle" opacity="0" stroke-opacity="0">Conn_VLP16</text>
</g>
<g class="stroked-text"><desc>Conn_VLP16</desc>
<path d="M182.6596 77.2143
L182.7072 77.2619
" />
<path d="M182.7072 77.2619
L182.7548 77.4048
" />
<path d="M182.7548 77.4048
L182.7548 77.5000
" />
<path d="M182.7548 77.5000
L182.7072 77.6429
" />
<path d="M182.7072 77.6429
L182.6120 77.7381
" />
<path d="M182.6120 77.7381
L182.5167 77.7857
" />
<path d="M182.5167 77.7857
L182.3262 77.8333
" />
<path d="M182.3262 77.8333
L182.1834 77.8333
" />
<path d="M182.1834 77.8333
L181.9929 77.7857
" />
<path d="M181.9929 77.7857
L181.8977 77.7381
" />
<path d="M181.8977 77.7381
L181.8024 77.6429
" />
<path d="M181.8024 77.6429
L181.7548 77.5000
" />
<path d="M181.7548 77.5000
L181.7548 77.4048
" />
<path d="M181.7548 77.4048
L181.8024 77.2619
" />
<path d="M181.8024 77.2619
L181.8501 77.2143
" />
<path d="M182.7548 76.6429
L182.7072 76.7381
" />
<path d="M182.7072 76.7381
L182.6596 76.7857
" />
<path d="M182.6596 76.7857
L182.5643 76.8333
" />
<path d="M182.5643 76.8333
L182.2786 76.8333
" />
<path d="M182.2786 76.8333
L182.1834 76.7857
" />
<path d="M182.1834 76.7857
L182.1358 76.7381
" />
<path d="M182.1358 76.7381
L182.0882 76.6429
" />
<path d="M182.0882 76.6429
L182.0882 76.5000
" />
<path d="M182.0882 76.5000
L182.1358 76.4048
" />
<path d="M182.1358 76.4048
L182.1834 76.3571
" />
<path d="M182.1834 76.3571
L182.2786 76.3095
" />
<path d="M182.2786 76.3095
L182.5643 76.3095
" />
<path d="M182.5643 76.3095
L182.6596 76.3571
" />
<path d="M182.6596 76.3571
L182.7072 76.4048
" />
<path d="M182.7072 76.4048
L182.7548 76.5000
" />
<path d="M182.7548 76.5000
L182.7548 76.6429
" />
<path d="M182.0882 75.8810
L182.7548 75.8810
" />
<path d="M182.1834 75.8810
L182.1358 75.8333
" />
<path d="M182.1358 75.8333
L182.0882 75.7381
" />
<path d="M182.0882 75.7381
L182.0882 75.5952
" />
<path d="M182.0882 75.5952
L182.1358 75.5000
" />
<path d="M182.1358 75.5000
L182.2310 75.4524
" />
<path d="M182.2310 75.4524
L182.7548 75.4524
" />
<path d="M182.0882 74.9762
L182.7548 74.9762
" />
<path d="M182.1834 74.9762
L182.1358 74.9286
" />
<path d="M182.1358 74.9286
L182.0882 74.8333
" />
<path d="M182.0882 74.8333
L182.0882 74.6905
" />
<path d="M182.0882 74.6905
L182.1358 74.5952
" />
<path d="M182.1358 74.5952
L182.2310 74.5476
" />
<path d="M182.2310 74.5476
L182.7548 74.5476
" />
<path d="M182.8501 74.3095
L182.8501 73.5476
" />
<path d="M181.7548 73.4524
L182.7548 73.1190
" />
<path d="M182.7548 73.1190
L181.7548 72.7857
" />
<path d="M182.7548 71.9762
L182.7548 72.4524
" />
<path d="M182.7548 72.4524
L181.7548 72.4524
" />
<path d="M182.7548 71.6429
L181.7548 71.6429
" />
<path d="M181.7548 71.6429
L181.7548 71.2619
" />
<path d="M181.7548 71.2619
L181.8024 71.1667
" />
<path d="M181.8024 71.1667
L181.8501 71.1190
" />
<path d="M181.8501 71.1190
L181.9453 71.0714
" />
<path d="M181.9453 71.0714
L182.0882 71.0714
" />
<path d="M182.0882 71.0714
L182.1834 71.1190
" />
<path d="M182.1834 71.1190
L182.2310 71.1667
" />
<path d="M182.2310 71.1667
L182.2786 71.2619
" />
<path d="M182.2786 71.2619
L182.2786 71.6429
" />
<path d="M182.7548 70.1190
L182.7548 70.6905
" />
<path d="M182.7548 70.4048
L181.7548 70.4048
" />
<path d="M181.7548 70.4048
L181.8977 70.5000
" />
<path d="M181.8977 70.5000
L181.9929 70.5952
" />
<path d="M181.9929 70.5952
L182.0405 70.6905
" />
<path d="M181.7548 69.2619
L181.7548 69.4524
" />
<path d="M181.7548 69.4524
L181.8024 69.5476
" />
<path d="M181.8024 69.5476
L181.8501 69.5952
" />
<path d="M181.8501 69.5952
L181.9929 69.6905
" />
<path d="M181.9929 69.6905
L182.1834 69.7381
" />
<path d="M182.1834 69.7381
L182.5643 69.7381
" />
<path d="M182.5643 69.7381
L182.6596 69.6905
" />
<path d="M182.6596 69.6905
L182.7072 69.6429
" />
<path d="M182.7072 69.6429
L182.7548 69.5476
" />
<path d="M182.7548 69.5476
L182.7548 69.3571
" />
<path d="M182.7548 69.3571
L182.7072 69.2619
" />
<path d="M182.7072 69.2619
L182.6596 69.2143
" />
<path d="M182.6596 69.2143
L182.5643 69.1667
" />
<path d="M182.5643 69.1667
L182.3262 69.1667
" />
<path d="M182.3262 69.1667
L182.2310 69.2143
" />
<path d="M182.2310 69.2143
L182.1834 69.2619
" />
<path d="M182.1834 69.2619
L182.1358 69.3571
" />
<path d="M182.1358 69.3571
L182.1358 69.5476
" />
<path d="M182.1358 69.5476
L182.1834 69.6429
" />
<path d="M182.1834 69.6429
L182.2310 69.6905
" />
<path d="M182.2310 69.6905
L182.3262 69.7381
" />
</g><g transform="rotate(-90.000000 175.8000 73.5000)">
<text x="175.8000" y="74.0000"
textLength="1.9643" font-size="1.3333" lengthAdjust="spacingAndGlyphs"
text-anchor="middle" opacity="0" stroke-opacity="0">J5</text>
</g>
<g class="stroked-text"><desc>J5</desc>
<path d="M175.2548 73.8333
L175.9691 73.8333
" />
<path d="M175.9691 73.8333
L176.1120 73.8810
" />
<path d="M176.1120 73.8810
L176.2072 73.9762
" />
<path d="M176.2072 73.9762
L176.2548 74.1190
" />
<path d="M176.2548 74.1190
L176.2548 74.2143
" />
<path d="M175.2548 72.8810
L175.2548 73.3571
" />
<path d="M175.2548 73.3571
L175.7310 73.4048
" />
<path d="M175.7310 73.4048
L175.6834 73.3571
" />
<path d="M175.6834 73.3571
L175.6358 73.2619
" />
<path d="M175.6358 73.2619
L175.6358 73.0238
" />
<path d="M175.6358 73.0238
L175.6834 72.9286
" />
<path d="M175.6834 72.9286
L175.7310 72.8810
" />
<path d="M175.7310 72.8810
L175.8262 72.8333
" />
<path d="M175.8262 72.8333
L176.0643 72.8333
" />
<path d="M176.0643 72.8333
L176.1596 72.8810
" />
<path d="M176.1596 72.8810
L176.2072 72.9286
" />
<path d="M176.2072 72.9286
L176.2548 73.0238
" />
<path d="M176.2548 73.0238
L176.2548 73.2619
" />
<path d="M176.2548 73.2619
L176.2072 73.3571
" />
<path d="M176.2072 73.3571
L176.1596 73.4048
" />
</g><text x="175.0000" y="89.7000"
textLength="10.2976" font-size="1.3333" lengthAdjust="spacingAndGlyphs"
text-anchor="middle" opacity="0" stroke-opacity="0">MountingHole</text>
<g class="stroked-text"><desc>MountingHole</desc>
<path d="M170.2143 89.6548
L170.2143 88.6548
" />
<path d="M170.2143 88.6548
L170.5476 89.3691
" />
<path d="M170.5476 89.3691
L170.8810 88.6548
" />
<path d="M170.8810 88.6548
L170.8810 89.6548
" />
<path d="M171.5000 89.6548
L171.4048 89.6072
" />
<path d="M171.4048 89.6072
L171.3571 89.5596
" />
<path d="M171.3571 89.5596
L171.3095 89.4643
" />
<path d="M171.3095 89.4643
L171.3095 89.1786
" />
<path d="M171.3095 89.1786
L171.3571 89.0834
" />
<path d="M171.3571 89.0834
L171.4048 89.0358
" />
<path d="M171.4048 89.0358
L171.5000 88.9882
" />
<path d="M171.5000 88.9882
L171.6429 88.9882
" />
<path d="M171.6429 88.9882
L171.7381 89.0358
" />
<path d="M171.7381 89.0358
L171.7857 89.0834
" />
<path d="M171.7857 89.0834
L171.8333 89.1786
" />
<path d="M171.8333 89.1786
L171.8333 89.4643
" />
<path d="M171.8333 89.4643
L171.7857 89.5596
" />
<path d="M171.7857 89.5596
L171.7381 89.6072
" />
<path d="M171.7381 89.6072
L171.6429 89.6548
" />
<path d="M171.6429 89.6548
L171.5000 89.6548
" />
<path d="M172.6905 88.9882
L172.6905 89.6548
" />
<path d="M172.2619 88.9882
L172.2619 89.5120
" />
<path d="M172.2619 89.5120
L172.3095 89.6072
" />
<path d="M172.3095 89.6072
L172.4048 89.6548
" />
<path d="M172.4048 89.6548
L172.5476 89.6548
" />
<path d="M172.5476 89.6548
L172.6429 89.6072
" />
<path d="M172.6429 89.6072
L172.6905 89.5596
" />
<path d="M173.1667 88.9882
L173.1667 89.6548
" />
<path d="M173.1667 89.0834
L173.2143 89.0358
" />
<path d="M173.2143 89.0358
L173.3095 88.9882
" />
<path d="M173.3095 88.9882
L173.4524 88.9882
" />
<path d="M173.4524 88.9882
L173.5476 89.0358
" />
<path d="M173.5476 89.0358
L173.5952 89.1310
" />
<path d="M173.5952 89.1310
L173.5952 89.6548
" />
<path d="M173.9286 88.9882
L174.3095 88.9882
" />
<path d="M174.0714 88.6548
L174.0714 89.5120
" />
<path d="M174.0714 89.5120
L174.1190 89.6072
" />
<path d="M174.1190 89.6072
L174.2143 89.6548
" />
<path d="M174.2143 89.6548
L174.3095 89.6548
" />
<path d="M174.6429 89.6548
L174.6429 88.9882
" />
<path d="M174.6429 88.6548
L174.5952 88.7024
" />
<path d="M174.5952 88.7024
L174.6429 88.7501
" />
<path d="M174.6429 88.7501
L174.6905 88.7024
" />
<path d="M174.6905 88.7024
L174.6429 88.6548
" />
<path d="M174.6429 88.6548
L174.6429 88.7501
" />
<path d="M175.1190 88.9882
L175.1190 89.6548
" />
<path d="M175.1190 89.0834
L175.1667 89.0358
" />
<path d="M175.1667 89.0358
L175.2619 88.9882
" />
<path d="M175.2619 88.9882
L175.4048 88.9882
" />
<path d="M175.4048 88.9882
L175.5000 89.0358
" />
<path d="M175.5000 89.0358
L175.5476 89.1310
" />
<path d="M175.5476 89.1310
L175.5476 89.6548
" />
<path d="M176.4524 88.9882
L176.4524 89.7977
" />
<path d="M176.4524 89.7977
L176.4048 89.8929
" />
<path d="M176.4048 89.8929
L176.3571 89.9405
" />
<path d="M176.3571 89.9405
L176.2619 89.9882
" />
<path d="M176.2619 89.9882
L176.1190 89.9882
" />
<path d="M176.1190 89.9882
L176.0238 89.9405
" />
<path d="M176.4524 89.6072
L176.3571 89.6548
" />
<path d="M176.3571 89.6548
L176.1667 89.6548
" />
<path d="M176.1667 89.6548
L176.0714 89.6072
" />
<path d="M176.0714 89.6072
L176.0238 89.5596
" />
<path d="M176.0238 89.5596
L175.9762 89.4643
" />
<path d="M175.9762 89.4643
L175.9762 89.1786
" />
<path d="M175.9762 89.1786
L176.0238 89.0834
" />
<path d="M176.0238 89.0834
L176.0714 89.0358
" />
<path d="M176.0714 89.0358
L176.1667 88.9882
" />
<path d="M176.1667 88.9882
L176.3571 88.9882
" />
<path d="M176.3571 88.9882
L176.4524 89.0358
" />
<path d="M176.9286 89.6548
L176.9286 88.6548
" />
<path d="M176.9286 89.1310
L177.5000 89.1310
" />
<path d="M177.5000 89.6548
L177.5000 88.6548
" />
<path d="M178.1190 89.6548
L178.0238 89.6072
" />
<path d="M178.0238 89.6072
L177.9762 89.5596
" />
<path d="M177.9762 89.5596
L177.9286 89.4643
" />
<path d="M177.9286 89.4643
L177.9286 89.1786
" />
<path d="M177.9286 89.1786
L177.9762 89.0834
" />
<path d="M177.9762 89.0834
L178.0238 89.0358
" />
<path d="M178.0238 89.0358
L178.1190 88.9882
" />
<path d="M178.1190 88.9882
L178.2619 88.9882
" />
<path d="M178.2619 88.9882
L178.3571 89.0358
" />
<path d="M178.3571 89.0358
L178.4048 89.0834
" />
<path d="M178.4048 89.0834
L178.4524 89.1786
" />
<path d="M178.4524 89.1786
L178.4524 89.4643
" />
<path d="M178.4524 89.4643
L178.4048 89.5596
" />
<path d="M178.4048 89.5596
L178.3571 89.6072
" />
<path d="M178.3571 89.6072
L178.2619 89.6548
" />
<path d="M178.2619 89.6548
L178.1190 89.6548
" />
<path d="M179.0238 89.6548
L178.9286 89.6072
" />
<path d="M178.9286 89.6072
L178.8810 89.5120
" />
<path d="M178.8810 89.5120
L178.8810 88.6548
" />
<path d="M179.7857 89.6072
L179.6905 89.6548
" />
<path d="M179.6905 89.6548
L179.5000 89.6548
" />
<path d="M179.5000 89.6548
L179.4048 89.6072
" />
<path d="M179.4048 89.6072
L179.3571 89.5120
" />
<path d="M179.3571 89.5120
L179.3571 89.1310
" />
<path d="M179.3571 89.1310
L179.4048 89.0358
" />
<path d="M179.4048 89.0358
L179.5000 88.9882
" />
<path d="M179.5000 88.9882
L179.6905 88.9882
" />
<path d="M179.6905 88.9882
L179.7857 89.0358
" />
<path d="M179.7857 89.0358
L179.8333 89.1310
" />
<path d="M179.8333 89.1310
L179.8333 89.2262
" />
<path d="M179.8333 89.2262
L179.3571 89.3215
" />
</g><text x="175.0000" y="85.5000"
textLength="2.2500" font-size="1.3333" lengthAdjust="spacingAndGlyphs"
text-anchor="middle" opacity="0" stroke-opacity="0">H3</text>
<g class="stroked-text"><desc>H3</desc>
<path d="M174.2381 85.4548
L174.2381 84.4548
" />
<path d="M174.2381 84.9310
L174.8095 84.9310
" />
<path d="M174.8095 85.4548
L174.8095 84.4548
" />
<path d="M175.1905 84.4548
L175.8095 84.4548
" />
<path d="M175.8095 84.4548
L175.4762 84.8358
" />
<path d="M175.4762 84.8358
L175.6190 84.8358
" />
<path d="M175.6190 84.8358
L175.7143 84.8834
" />
<path d="M175.7143 84.8834
L175.7619 84.9310
" />
<path d="M175.7619 84.9310
L175.8095 85.0262
" />
<path d="M175.8095 85.0262
L175.8095 85.2643
" />
<path d="M175.8095 85.2643
L175.7619 85.3596
" />
<path d="M175.7619 85.3596
L175.7143 85.4072
" />
<path d="M175.7143 85.4072
L175.6190 85.4548
" />
<path d="M175.6190 85.4548
L175.3333 85.4548
" />
<path d="M175.3333 85.4548
L175.2381 85.4072
" />
<path d="M175.2381 85.4072
L175.1905 85.3596
" />
</g><text x="219.5000" y="68.0000"
textLength="15.4405" font-size="1.3333" lengthAdjust="spacingAndGlyphs"
text-anchor="middle" opacity="0" stroke-opacity="0">Conn_Switching_Hub</text>
<g class="stroked-text"><desc>Conn_Switching_Hub</desc>
<path d="M212.7143 67.8596
L212.6667 67.9072
" />
<path d="M212.6667 67.9072
L212.5238 67.9548
" />
<path d="M212.5238 67.9548
L212.4286 67.9548
" />
<path d="M212.4286 67.9548
L212.2857 67.9072
" />
<path d="M212.2857 67.9072
L212.1905 67.8120
" />
<path d="M212.1905 67.8120
L212.1429 67.7167
" />
<path d="M212.1429 67.7167
L212.0952 67.5262
" />
<path d="M212.0952 67.5262
L212.0952 67.3834
" />
<path d="M212.0952 67.3834
L212.1429 67.1929
" />
<path d="M212.1429 67.1929
L212.1905 67.0977
" />
<path d="M212.1905 67.0977
L212.2857 67.0024
" />
<path d="M212.2857 67.0024
L212.4286 66.9548
" />
<path d="M212.4286 66.9548
L212.5238 66.9548
" />
<path d="M212.5238 66.9548
L212.6667 67.0024
" />
<path d="M212.6667 67.0024
L212.7143 67.0501
" />
<path d="M213.2857 67.9548
L213.1905 67.9072
" />
<path d="M213.1905 67.9072
L213.1429 67.8596
" />
<path d="M213.1429 67.8596
L213.0952 67.7643
" />
<path d="M213.0952 67.7643
L213.0952 67.4786
" />
<path d="M213.0952 67.4786
L213.1429 67.3834
" />
<path d="M213.1429 67.3834
L213.1905 67.3358
" />
<path d="M213.1905 67.3358
L213.2857 67.2882
" />
<path d="M213.2857 67.2882
L213.4286 67.2882
" />
<path d="M213.4286 67.2882
L213.5238 67.3358
" />
<path d="M213.5238 67.3358
L213.5714 67.3834
" />
<path d="M213.5714 67.3834
L213.6190 67.4786
" />
<path d="M213.6190 67.4786
L213.6190 67.7643
" />
<path d="M213.6190 67.7643
L213.5714 67.8596
" />
<path d="M213.5714 67.8596
L213.5238 67.9072
" />
<path d="M213.5238 67.9072
L213.4286 67.9548
" />
<path d="M213.4286 67.9548
L213.2857 67.9548
" />
<path d="M214.0476 67.2882
L214.0476 67.9548
" />
<path d="M214.0476 67.3834
L214.0952 67.3358
" />
<path d="M214.0952 67.3358
L214.1905 67.2882
" />
<path d="M214.1905 67.2882
L214.3333 67.2882
" />
<path d="M214.3333 67.2882
L214.4286 67.3358
" />
<path d="M214.4286 67.3358
L214.4762 67.4310
" />
<path d="M214.4762 67.4310
L214.4762 67.9548
" />
<path d="M214.9524 67.2882
L214.9524 67.9548
" />
<path d="M214.9524 67.3834
L215.0000 67.3358
" />
<path d="M215.0000 67.3358
L215.0952 67.2882
" />
<path d="M215.0952 67.2882
L215.2381 67.2882
" />
<path d="M215.2381 67.2882
L215.3333 67.3358
" />
<path d="M215.3333 67.3358
L215.3810 67.4310
" />
<path d="M215.3810 67.4310
L215.3810 67.9548
" />
<path d="M215.6190 68.0501
L216.3810 68.0501
" />
<path d="M216.5714 67.9072
L216.7143 67.9548
" />
<path d="M216.7143 67.9548
L216.9524 67.9548
" />
<path d="M216.9524 67.9548
L217.0476 67.9072
" />
<path d="M217.0476 67.9072
L217.0952 67.8596
" />
<path d="M217.0952 67.8596
L217.1429 67.7643
" />
<path d="M217.1429 67.7643
L217.1429 67.6691
" />
<path d="M217.1429 67.6691
L217.0952 67.5739
" />
<path d="M217.0952 67.5739
L217.0476 67.5262
" />
<path d="M217.0476 67.5262
L216.9524 67.4786
" />
<path d="M216.9524 67.4786
L216.7619 67.4310
" />
<path d="M216.7619 67.4310
L216.6667 67.3834
" />
<path d="M216.6667 67.3834
L216.6190 67.3358
" />
<path d="M216.6190 67.3358
L216.5714 67.2405
" />
<path d="M216.5714 67.2405
L216.5714 67.1453
" />
<path d="M216.5714 67.1453
L216.6190 67.0501
" />
<path d="M216.6190 67.0501
L216.6667 67.0024
" />
<path d="M216.6667 67.0024
L216.7619 66.9548
" />
<path d="M216.7619 66.9548
L217.0000 66.9548
" />
<path d="M217.0000 66.9548
L217.1429 67.0024
" />
<path d="M217.4762 67.2882
L217.6667 67.9548
" />
<path d="M217.6667 67.9548
L217.8571 67.4786
" />
<path d="M217.8571 67.4786
L218.0476 67.9548
" />
<path d="M218.0476 67.9548
L218.2381 67.2882
" />
<path d="M218.6190 67.9548
L218.6190 67.2882
" />
<path d="M218.6190 66.9548
L218.5714 67.0024
" />
<path d="M218.5714 67.0024
L218.6190 67.0501
" />
<path d="M218.6190 67.0501
L218.6667 67.0024
" />
<path d="M218.6667 67.0024
L218.6190 66.9548
" />
<path d="M218.6190 66.9548
L218.6190 67.0501
" />
<path d="M218.9524 67.2882
L219.3333 67.2882
" />
<path d="M219.0952 66.9548
L219.0952 67.8120
" />
<path d="M219.0952 67.8120
L219.1429 67.9072
" />
<path d="M219.1429 67.9072
L219.2381 67.9548
" />
<path d="M219.2381 67.9548
L219.3333 67.9548
" />
<path d="M220.0952 67.9072
L220.0000 67.9548
" />
<path d="M220.0000 67.9548
L219.8095 67.9548
" />
<path d="M219.8095 67.9548
L219.7143 67.9072
" />
<path d="M219.7143 67.9072
L219.6667 67.8596
" />
<path d="M219.6667 67.8596
L219.6190 67.7643
" />
<path d="M219.6190 67.7643
L219.6190 67.4786
" />
<path d="M219.6190 67.4786
L219.6667 67.3834
" />
<path d="M219.6667 67.3834
L219.7143 67.3358
" />
<path d="M219.7143 67.3358
L219.8095 67.2882
" />
<path d="M219.8095 67.2882
L220.0000 67.2882
" />
<path d="M220.0000 67.2882
L220.0952 67.3358
" />
<path d="M220.5238 67.9548
L220.5238 66.9548
" />
<path d="M220.9524 67.9548
L220.9524 67.4310
" />
<path d="M220.9524 67.4310
L220.9048 67.3358
" />
<path d="M220.9048 67.3358
L220.8095 67.2882
" />
<path d="M220.8095 67.2882
L220.6667 67.2882
" />
<path d="M220.6667 67.2882
L220.5714 67.3358
" />
<path d="M220.5714 67.3358
L220.5238 67.3834
" />
<path d="M221.4286 67.9548
L221.4286 67.2882
" />
<path d="M221.4286 66.9548
L221.3810 67.0024
" />
<path d="M221.3810 67.0024
L221.4286 67.0501
" />
<path d="M221.4286 67.0501
L221.4762 67.0024
" />
<path d="M221.4762 67.0024
L221.4286 66.9548
" />
<path d="M221.4286 66.9548
L221.4286 67.0501
" />
<path d="M221.9048 67.2882
L221.9048 67.9548
" />
<path d="M221.9048 67.3834
L221.9524 67.3358
" />
<path d="M221.9524 67.3358
L222.0476 67.2882
" />
<path d="M222.0476 67.2882
L222.1905 67.2882
" />
<path d="M222.1905 67.2882
L222.2857 67.3358
" />
<path d="M222.2857 67.3358
L222.3333 67.4310
" />
<path d="M222.3333 67.4310
L222.3333 67.9548
" />
<path d="M223.2381 67.2882
L223.2381 68.0977
" />
<path d="M223.2381 68.0977
L223.1905 68.1929
" />
<path d="M223.1905 68.1929
L223.1429 68.2405
" />
<path d="M223.1429 68.2405
L223.0476 68.2882
" />
<path d="M223.0476 68.2882
L222.9048 68.2882
" />
<path d="M222.9048 68.2882
L222.8095 68.2405
" />
<path d="M223.2381 67.9072
L223.1429 67.9548
" />
<path d="M223.1429 67.9548
L222.9524 67.9548
" />
<path d="M222.9524 67.9548
L222.8571 67.9072
" />
<path d="M222.8571 67.9072
L222.8095 67.8596
" />
<path d="M222.8095 67.8596
L222.7619 67.7643
" />
<path d="M222.7619 67.7643
L222.7619 67.4786
" />
<path d="M222.7619 67.4786
L222.8095 67.3834
" />
<path d="M222.8095 67.3834
L222.8571 67.3358
" />
<path d="M222.8571 67.3358
L222.9524 67.2882
" />
<path d="M222.9524 67.2882
L223.1429 67.2882
" />
<path d="M223.1429 67.2882
L223.2381 67.3358
" />
<path d="M223.4762 68.0501
L224.2381 68.0501
" />
<path d="M224.4762 67.9548
L224.4762 66.9548
" />
<path d="M224.4762 67.4310
L225.0476 67.4310
" />
<path d="M225.0476 67.9548
L225.0476 66.9548
" />
<path d="M225.9524 67.2882
L225.9524 67.9548
" />
<path d="M225.5238 67.2882
L225.5238 67.8120
" />
<path d="M225.5238 67.8120
L225.5714 67.9072
" />
<path d="M225.5714 67.9072
L225.6667 67.9548
" />
<path d="M225.6667 67.9548
L225.8095 67.9548
" />
<path d="M225.8095 67.9548
L225.9048 67.9072
" />
<path d="M225.9048 67.9072
L225.9524 67.8596
" />
<path d="M226.4286 67.9548
L226.4286 66.9548
" />
<path d="M226.4286 67.3358
L226.5238 67.2882
" />
<path d="M226.5238 67.2882
L226.7143 67.2882
" />
<path d="M226.7143 67.2882
L226.8095 67.3358
" />
<path d="M226.8095 67.3358
L226.8571 67.3834
" />
<path d="M226.8571 67.3834
L226.9048 67.4786
" />
<path d="M226.9048 67.4786
L226.9048 67.7643
" />
<path d="M226.9048 67.7643
L226.8571 67.8596
" />
<path d="M226.8571 67.8596
L226.8095 67.9072
" />
<path d="M226.8095 67.9072
L226.7143 67.9548
" />
<path d="M226.7143 67.9548
L226.5238 67.9548
" />
<path d="M226.5238 67.9548
L226.4286 67.9072
" />
</g><text x="219.5000" y="61.5000"
textLength="1.9643" font-size="1.3333" lengthAdjust="spacingAndGlyphs"
text-anchor="middle" opacity="0" stroke-opacity="0">J1</text>
<g class="stroked-text"><desc>J1</desc>
<path d="M219.1667 60.4548
L219.1667 61.1691
" />
<path d="M219.1667 61.1691
L219.1190 61.3120
" />
<path d="M219.1190 61.3120
L219.0238 61.4072
" />
<path d="M219.0238 61.4072
L218.8810 61.4548
" />
<path d="M218.8810 61.4548
L218.7857 61.4548
" />
<path d="M220.1667 61.4548
L219.5952 61.4548
" />
<path d="M219.8810 61.4548
L219.8810 60.4548
" />
<path d="M219.8810 60.4548
L219.7857 60.5977
" />
<path d="M219.7857 60.5977
L219.6905 60.6929
" />
<path d="M219.6905 60.6929
L219.5952 60.7405
" />
</g><text x="222.9700" y="80.9900"
textLength="0.9643" font-size="1.3333" lengthAdjust="spacingAndGlyphs"
text-anchor="middle" opacity="0" stroke-opacity="0">~</text>
<g class="stroked-text"><desc>~</desc>
<path d="M222.7081 80.5639
L222.7557 80.5162
" />
<path d="M222.7557 80.5162
L222.8510 80.4686
" />
<path d="M222.8510 80.4686
L223.0414 80.5639
" />
<path d="M223.0414 80.5639
L223.1367 80.5162
" />
<path d="M223.1367 80.5162
L223.1843 80.4686
" />
</g><text x="222.9700" y="82.4900"
textLength="2.2500" font-size="1.3333" lengthAdjust="spacingAndGlyphs"
text-anchor="middle" opacity="0" stroke-opacity="0">U1</text>
<g class="stroked-text"><desc>U1</desc>
<path d="M222.2081 81.4448
L222.2081 82.2543
" />
<path d="M222.2081 82.2543
L222.2557 82.3496
" />
<path d="M222.2557 82.3496
L222.3033 82.3972
" />
<path d="M222.3033 82.3972
L222.3986 82.4448
" />
<path d="M222.3986 82.4448
L222.5890 82.4448
" />
<path d="M222.5890 82.4448
L222.6843 82.3972
" />
<path d="M222.6843 82.3972
L222.7319 82.3496
" />
<path d="M222.7319 82.3496
L222.7795 82.2543
" />
<path d="M222.7795 82.2543
L222.7795 81.4448
" />
<path d="M223.7795 82.4448
L223.2081 82.4448
" />
<path d="M223.4938 82.4448
L223.4938 81.4448
" />
<path d="M223.4938 81.4448
L223.3986 81.5877
" />
<path d="M223.3986 81.5877
L223.3033 81.6829
" />
<path d="M223.3033 81.6829
L223.2081 81.7305
" />
</g><text x="235.0000" y="89.7000"
textLength="10.2976" font-size="1.3333" lengthAdjust="spacingAndGlyphs"
text-anchor="middle" opacity="0" stroke-opacity="0">MountingHole</text>
<g class="stroked-text"><desc>MountingHole</desc>
<path d="M230.2143 89.6548
L230.2143 88.6548
" />
<path d="M230.2143 88.6548
L230.5476 89.3691
" />
<path d="M230.5476 89.3691
L230.8810 88.6548
" />
<path d="M230.8810 88.6548
L230.8810 89.6548
" />
<path d="M231.5000 89.6548
L231.4048 89.6072
" />
<path d="M231.4048 89.6072
L231.3571 89.5596
" />
<path d="M231.3571 89.5596
L231.3095 89.4643
" />
<path d="M231.3095 89.4643
L231.3095 89.1786
" />
<path d="M231.3095 89.1786
L231.3571 89.0834
" />
<path d="M231.3571 89.0834
L231.4048 89.0358
" />
<path d="M231.4048 89.0358
L231.5000 88.9882
" />
<path d="M231.5000 88.9882
L231.6429 88.9882
" />
<path d="M231.6429 88.9882
L231.7381 89.0358
" />
<path d="M231.7381 89.0358
L231.7857 89.0834
" />
<path d="M231.7857 89.0834
L231.8333 89.1786
" />
<path d="M231.8333 89.1786
L231.8333 89.4643
" />
<path d="M231.8333 89.4643
L231.7857 89.5596
" />
<path d="M231.7857 89.5596
L231.7381 89.6072
" />
<path d="M231.7381 89.6072
L231.6429 89.6548
" />
<path d="M231.6429 89.6548
L231.5000 89.6548
" />
<path d="M232.6905 88.9882
L232.6905 89.6548
" />
<path d="M232.2619 88.9882
L232.2619 89.5120
" />
<path d="M232.2619 89.5120
L232.3095 89.6072
" />
<path d="M232.3095 89.6072
L232.4048 89.6548
" />
<path d="M232.4048 89.6548
L232.5476 89.6548
" />
<path d="M232.5476 89.6548
L232.6429 89.6072
" />
<path d="M232.6429 89.6072
L232.6905 89.5596
" />
<path d="M233.1667 88.9882
L233.1667 89.6548
" />
<path d="M233.1667 89.0834
L233.2143 89.0358
" />
<path d="M233.2143 89.0358
L233.3095 88.9882
" />
<path d="M233.3095 88.9882
L233.4524 88.9882
" />
<path d="M233.4524 88.9882
L233.5476 89.0358
" />
<path d="M233.5476 89.0358
L233.5952 89.1310
" />
<path d="M233.5952 89.1310
L233.5952 89.6548
" />
<path d="M233.9286 88.9882
L234.3095 88.9882
" />
<path d="M234.0714 88.6548
L234.0714 89.5120
" />
<path d="M234.0714 89.5120
L234.1190 89.6072
" />
<path d="M234.1190 89.6072
L234.2143 89.6548
" />
<path d="M234.2143 89.6548
L234.3095 89.6548
" />
<path d="M234.6429 89.6548
L234.6429 88.9882
" />
<path d="M234.6429 88.6548
L234.5952 88.7024
" />
<path d="M234.5952 88.7024
L234.6429 88.7501
" />
<path d="M234.6429 88.7501
L234.6905 88.7024
" />
<path d="M234.6905 88.7024
L234.6429 88.6548
" />
<path d="M234.6429 88.6548
L234.6429 88.7501
" />
<path d="M235.1190 88.9882
L235.1190 89.6548
" />
<path d="M235.1190 89.0834
L235.1667 89.0358
" />
<path d="M235.1667 89.0358
L235.2619 88.9882
" />
<path d="M235.2619 88.9882
L235.4048 88.9882
" />
<path d="M235.4048 88.9882
L235.5000 89.0358
" />
<path d="M235.5000 89.0358
L235.5476 89.1310
" />
<path d="M235.5476 89.1310
L235.5476 89.6548
" />
<path d="M236.4524 88.9882
L236.4524 89.7977
" />
<path d="M236.4524 89.7977
L236.4048 89.8929
" />
<path d="M236.4048 89.8929
L236.3571 89.9405
" />
<path d="M236.3571 89.9405
L236.2619 89.9882
" />
<path d="M236.2619 89.9882
L236.1190 89.9882
" />
<path d="M236.1190 89.9882
L236.0238 89.9405
" />
<path d="M236.4524 89.6072
L236.3571 89.6548
" />
<path d="M236.3571 89.6548
L236.1667 89.6548
" />
<path d="M236.1667 89.6548
L236.0714 89.6072
" />
<path d="M236.0714 89.6072
L236.0238 89.5596
" />
<path d="M236.0238 89.5596
L235.9762 89.4643
" />
<path d="M235.9762 89.4643
L235.9762 89.1786
" />
<path d="M235.9762 89.1786
L236.0238 89.0834
" />
<path d="M236.0238 89.0834
L236.0714 89.0358
" />
<path d="M236.0714 89.0358
L236.1667 88.9882
" />
<path d="M236.1667 88.9882
L236.3571 88.9882
" />
<path d="M236.3571 88.9882
L236.4524 89.0358
" />
<path d="M236.9286 89.6548
L236.9286 88.6548
" />
<path d="M236.9286 89.1310
L237.5000 89.1310
" />
<path d="M237.5000 89.6548
L237.5000 88.6548
" />
<path d="M238.1190 89.6548
L238.0238 89.6072
" />
<path d="M238.0238 89.6072
L237.9762 89.5596
" />
<path d="M237.9762 89.5596
L237.9286 89.4643
" />
<path d="M237.9286 89.4643
L237.9286 89.1786
" />
<path d="M237.9286 89.1786
L237.9762 89.0834
" />
<path d="M237.9762 89.0834
L238.0238 89.0358
" />
<path d="M238.0238 89.0358
L238.1190 88.9882
" />
<path d="M238.1190 88.9882
L238.2619 88.9882
" />
<path d="M238.2619 88.9882
L238.3571 89.0358
" />
<path d="M238.3571 89.0358
L238.4048 89.0834
" />
<path d="M238.4048 89.0834
L238.4524 89.1786
" />
<path d="M238.4524 89.1786
L238.4524 89.4643
" />
<path d="M238.4524 89.4643
L238.4048 89.5596
" />
<path d="M238.4048 89.5596
L238.3571 89.6072
" />
<path d="M238.3571 89.6072
L238.2619 89.6548
" />
<path d="M238.2619 89.6548
L238.1190 89.6548
" />
<path d="M239.0238 89.6548
L238.9286 89.6072
" />
<path d="M238.9286 89.6072
L238.8810 89.5120
" />
<path d="M238.8810 89.5120
L238.8810 88.6548
" />
<path d="M239.7857 89.6072
L239.6905 89.6548
" />
<path d="M239.6905 89.6548
L239.5000 89.6548
" />
<path d="M239.5000 89.6548
L239.4048 89.6072
" />
<path d="M239.4048 89.6072
L239.3571 89.5120
" />
<path d="M239.3571 89.5120
L239.3571 89.1310
" />
<path d="M239.3571 89.1310
L239.4048 89.0358
" />
<path d="M239.4048 89.0358
L239.5000 88.9882
" />
<path d="M239.5000 88.9882
L239.6905 88.9882
" />
<path d="M239.6905 88.9882
L239.7857 89.0358
" />
<path d="M239.7857 89.0358
L239.8333 89.1310
" />
<path d="M239.8333 89.1310
L239.8333 89.2262
" />
<path d="M239.8333 89.2262
L239.3571 89.3215
" />
</g><text x="235.0000" y="85.5000"
textLength="2.2500" font-size="1.3333" lengthAdjust="spacingAndGlyphs"
text-anchor="middle" opacity="0" stroke-opacity="0">H4</text>
<g class="stroked-text"><desc>H4</desc>
<path d="M234.2381 85.4548
L234.2381 84.4548
" />
<path d="M234.2381 84.9310
L234.8095 84.9310
" />
<path d="M234.8095 85.4548
L234.8095 84.4548
" />
<path d="M235.7143 84.7882
L235.7143 85.4548
" />
<path d="M235.4762 84.4072
L235.2381 85.1215
" />
<path d="M235.2381 85.1215
L235.8571 85.1215
" />
</g><g transform="rotate(-90.000000 204.0000 74.0000)">
<text x="204.0000" y="74.5000"
textLength="4.3929" font-size="1.3333" lengthAdjust="spacingAndGlyphs"
text-anchor="middle" opacity="0" stroke-opacity="0">3.3uF</text>
</g>
<g class="stroked-text"><desc>3.3uF</desc>
<path d="M203.4548 75.9286
L203.4548 75.3095
" />
<path d="M203.4548 75.3095
L203.8358 75.6429
" />
<path d="M203.8358 75.6429
L203.8358 75.5000
" />
<path d="M203.8358 75.5000
L203.8834 75.4048
" />
<path d="M203.8834 75.4048
L203.9310 75.3571
" />
<path d="M203.9310 75.3571
L204.0262 75.3095
" />
<path d="M204.0262 75.3095
L204.2643 75.3095
" />
<path d="M204.2643 75.3095
L204.3596 75.3571
" />
<path d="M204.3596 75.3571
L204.4072 75.4048
" />
<path d="M204.4072 75.4048
L204.4548 75.5000
" />
<path d="M204.4548 75.5000
L204.4548 75.7857
" />
<path d="M204.4548 75.7857
L204.4072 75.8810
" />
<path d="M204.4072 75.8810
L204.3596 75.9286
" />
<path d="M204.3596 74.8810
L204.4072 74.8333
" />
<path d="M204.4072 74.8333
L204.4548 74.8810
" />
<path d="M204.4548 74.8810
L204.4072 74.9286
" />
<path d="M204.4072 74.9286
L204.3596 74.8810
" />
<path d="M204.3596 74.8810
L204.4548 74.8810
" />
<path d="M203.4548 74.5000
L203.4548 73.8810
" />
<path d="M203.4548 73.8810
L203.8358 74.2143
" />
<path d="M203.8358 74.2143
L203.8358 74.0714
" />
<path d="M203.8358 74.0714
L203.8834 73.9762
" />
<path d="M203.8834 73.9762
L203.9310 73.9286
" />
<path d="M203.9310 73.9286
L204.0262 73.8810
" />
<path d="M204.0262 73.8810
L204.2643 73.8810
" />
<path d="M204.2643 73.8810
L204.3596 73.9286
" />
<path d="M204.3596 73.9286
L204.4072 73.9762
" />
<path d="M204.4072 73.9762
L204.4548 74.0714
" />
<path d="M204.4548 74.0714
L204.4548 74.3571
" />
<path d="M204.4548 74.3571
L204.4072 74.4524
" />
<path d="M204.4072 74.4524
L204.3596 74.5000
" />
<path d="M203.7882 73.0238
L204.4548 73.0238
" />
<path d="M203.7882 73.4524
L204.3120 73.4524
" />
<path d="M204.3120 73.4524
L204.4072 73.4048
" />
<path d="M204.4072 73.4048
L204.4548 73.3095
" />
<path d="M204.4548 73.3095
L204.4548 73.1667
" />
<path d="M204.4548 73.1667
L204.4072 73.0714
" />
<path d="M204.4072 73.0714
L204.3596 73.0238
" />
<path d="M203.9310 72.2143
L203.9310 72.5476
" />
<path d="M204.4548 72.5476
L203.4548 72.5476
" />
<path d="M203.4548 72.5476
L203.4548 72.0714
" />
</g><g transform="rotate(-90.000000 207.5000 74.0000)">
<text x="207.5000" y="74.5000"
textLength="2.2024" font-size="1.3333" lengthAdjust="spacingAndGlyphs"
text-anchor="middle" opacity="0" stroke-opacity="0">C1</text>
</g>
<g class="stroked-text"><desc>C1</desc>
<path d="M207.8596 74.1667
L207.9072 74.2143
" />
<path d="M207.9072 74.2143
L207.9548 74.3571
" />
<path d="M207.9548 74.3571
L207.9548 74.4524
" />
<path d="M207.9548 74.4524
L207.9072 74.5952
" />
<path d="M207.9072 74.5952
L207.8120 74.6905
" />
<path d="M207.8120 74.6905
L207.7167 74.7381
" />
<path d="M207.7167 74.7381
L207.5262 74.7857
" />
<path d="M207.5262 74.7857
L207.3834 74.7857
" />
<path d="M207.3834 74.7857
L207.1929 74.7381
" />
<path d="M207.1929 74.7381
L207.0977 74.6905
" />
<path d="M207.0977 74.6905
L207.0024 74.5952
" />
<path d="M207.0024 74.5952
L206.9548 74.4524
" />
<path d="M206.9548 74.4524
L206.9548 74.3571
" />
<path d="M206.9548 74.3571
L207.0024 74.2143
" />
<path d="M207.0024 74.2143
L207.0501 74.1667
" />
<path d="M207.9548 73.2143
L207.9548 73.7857
" />
<path d="M207.9548 73.5000
L206.9548 73.5000
" />
<path d="M206.9548 73.5000
L207.0977 73.5952
" />
<path d="M207.0977 73.5952
L207.1929 73.6905
" />
<path d="M207.1929 73.6905
L207.2405 73.7857
" />
</g><text x="188.5000" y="78.0000"
textLength="9.5357" font-size="1.3333" lengthAdjust="spacingAndGlyphs"
text-anchor="middle" opacity="0" stroke-opacity="0">Conn_Jetson</text>
<g class="stroked-text"><desc>Conn_Jetson</desc>
<path d="M184.6667 77.8596
L184.6190 77.9072
" />
<path d="M184.6190 77.9072
L184.4762 77.9548
" />
<path d="M184.4762 77.9548
L184.3810 77.9548
" />
<path d="M184.3810 77.9548
L184.2381 77.9072
" />
<path d="M184.2381 77.9072
L184.1429 77.8120
" />
<path d="M184.1429 77.8120
L184.0952 77.7167
" />
<path d="M184.0952 77.7167
L184.0476 77.5262
" />
<path d="M184.0476 77.5262
L184.0476 77.3834
" />
<path d="M184.0476 77.3834
L184.0952 77.1929
" />
<path d="M184.0952 77.1929
L184.1429 77.0977
" />
<path d="M184.1429 77.0977
L184.2381 77.0024
" />
<path d="M184.2381 77.0024
L184.3810 76.9548
" />
<path d="M184.3810 76.9548
L184.4762 76.9548
" />
<path d="M184.4762 76.9548
L184.6190 77.0024
" />
<path d="M184.6190 77.0024
L184.6667 77.0501
" />
<path d="M185.2381 77.9548
L185.1429 77.9072
" />
<path d="M185.1429 77.9072
L185.0952 77.8596
" />
<path d="M185.0952 77.8596
L185.0476 77.7643
" />
<path d="M185.0476 77.7643
L185.0476 77.4786
" />
<path d="M185.0476 77.4786
L185.0952 77.3834
" />
<path d="M185.0952 77.3834
L185.1429 77.3358
" />
<path d="M185.1429 77.3358
L185.2381 77.2882
" />
<path d="M185.2381 77.2882
L185.3810 77.2882
" />
<path d="M185.3810 77.2882
L185.4762 77.3358
" />
<path d="M185.4762 77.3358
L185.5238 77.3834
" />
<path d="M185.5238 77.3834
L185.5714 77.4786
" />
<path d="M185.5714 77.4786
L185.5714 77.7643
" />
<path d="M185.5714 77.7643
L185.5238 77.8596
" />
<path d="M185.5238 77.8596
L185.4762 77.9072
" />
<path d="M185.4762 77.9072
L185.3810 77.9548
" />
<path d="M185.3810 77.9548
L185.2381 77.9548
" />
<path d="M186.0000 77.2882
L186.0000 77.9548
" />
<path d="M186.0000 77.3834
L186.0476 77.3358
" />
<path d="M186.0476 77.3358
L186.1429 77.2882
" />
<path d="M186.1429 77.2882
L186.2857 77.2882
" />
<path d="M186.2857 77.2882
L186.3810 77.3358
" />
<path d="M186.3810 77.3358
L186.4286 77.4310
" />
<path d="M186.4286 77.4310
L186.4286 77.9548
" />
<path d="M186.9048 77.2882
L186.9048 77.9548
" />
<path d="M186.9048 77.3834
L186.9524 77.3358
" />
<path d="M186.9524 77.3358
L187.0476 77.2882
" />
<path d="M187.0476 77.2882
L187.1905 77.2882
" />
<path d="M187.1905 77.2882
L187.2857 77.3358
" />
<path d="M187.2857 77.3358
L187.3333 77.4310
" />
<path d="M187.3333 77.4310
L187.3333 77.9548
" />
<path d="M187.5714 78.0501
L188.3333 78.0501
" />
<path d="M188.8571 76.9548
L188.8571 77.6691
" />
<path d="M188.8571 77.6691
L188.8095 77.8120
" />
<path d="M188.8095 77.8120
L188.7143 77.9072
" />
<path d="M188.7143 77.9072
L188.5714 77.9548
" />
<path d="M188.5714 77.9548
L188.4762 77.9548
" />
<path d="M189.7143 77.9072
L189.6190 77.9548
" />
<path d="M189.6190 77.9548
L189.4286 77.9548
" />
<path d="M189.4286 77.9548
L189.3333 77.9072
" />
<path d="M189.3333 77.9072
L189.2857 77.8120
" />
<path d="M189.2857 77.8120
L189.2857 77.4310
" />
<path d="M189.2857 77.4310
L189.3333 77.3358
" />
<path d="M189.3333 77.3358
L189.4286 77.2882
" />
<path d="M189.4286 77.2882
L189.6190 77.2882
" />
<path d="M189.6190 77.2882
L189.7143 77.3358
" />
<path d="M189.7143 77.3358
L189.7619 77.4310
" />
<path d="M189.7619 77.4310
L189.7619 77.5262
" />
<path d="M189.7619 77.5262
L189.2857 77.6215
" />
<path d="M190.0476 77.2882
L190.4286 77.2882
" />
<path d="M190.1905 76.9548
L190.1905 77.8120
" />
<path d="M190.1905 77.8120
L190.2381 77.9072
" />
<path d="M190.2381 77.9072
L190.3333 77.9548
" />
<path d="M190.3333 77.9548
L190.4286 77.9548
" />
<path d="M190.7143 77.9072
L190.8095 77.9548
" />
<path d="M190.8095 77.9548
L191.0000 77.9548
" />
<path d="M191.0000 77.9548
L191.0952 77.9072
" />
<path d="M191.0952 77.9072
L191.1429 77.8120
" />
<path d="M191.1429 77.8120
L191.1429 77.7643
" />
<path d="M191.1429 77.7643
L191.0952 77.6691
" />
<path d="M191.0952 77.6691
L191.0000 77.6215
" />
<path d="M191.0000 77.6215
L190.8571 77.6215
" />
<path d="M190.8571 77.6215
L190.7619 77.5739
" />
<path d="M190.7619 77.5739
L190.7143 77.4786
" />
<path d="M190.7143 77.4786
L190.7143 77.4310
" />
<path d="M190.7143 77.4310
L190.7619 77.3358
" />
<path d="M190.7619 77.3358
L190.8571 77.2882
" />
<path d="M190.8571 77.2882
L191.0000 77.2882
" />
<path d="M191.0000 77.2882
L191.0952 77.3358
" />
<path d="M191.7143 77.9548
L191.6190 77.9072
" />
<path d="M191.6190 77.9072
L191.5714 77.8596
" />
<path d="M191.5714 77.8596
L191.5238 77.7643
" />
<path d="M191.5238 77.7643
L191.5238 77.4786
" />
<path d="M191.5238 77.4786
L191.5714 77.3834
" />
<path d="M191.5714 77.3834
L191.6190 77.3358
" />
<path d="M191.6190 77.3358
L191.7143 77.2882
" />
<path d="M191.7143 77.2882
L191.8571 77.2882
" />
<path d="M191.8571 77.2882
L191.9524 77.3358
" />
<path d="M191.9524 77.3358
L192.0000 77.3834
" />
<path d="M192.0000 77.3834
L192.0476 77.4786
" />
<path d="M192.0476 77.4786
L192.0476 77.7643
" />
<path d="M192.0476 77.7643
L192.0000 77.8596
" />
<path d="M192.0000 77.8596
L191.9524 77.9072
" />
<path d="M191.9524 77.9072
L191.8571 77.9548
" />
<path d="M191.8571 77.9548
L191.7143 77.9548
" />
<path d="M192.4762 77.2882
L192.4762 77.9548
" />
<path d="M192.4762 77.3834
L192.5238 77.3358
" />
<path d="M192.5238 77.3358
L192.6190 77.2882
" />
<path d="M192.6190 77.2882
L192.7619 77.2882
" />
<path d="M192.7619 77.2882
L192.8571 77.3358
" />
<path d="M192.8571 77.3358
L192.9048 77.4310
" />
<path d="M192.9048 77.4310
L192.9048 77.9548
" />
</g><text x="188.5000" y="84.5000"
textLength="1.9643" font-size="1.3333" lengthAdjust="spacingAndGlyphs"
text-anchor="middle" opacity="0" stroke-opacity="0">J2</text>
<g class="stroked-text"><desc>J2</desc>
<path d="M188.1667 83.4548
L188.1667 84.1691
" />
<path d="M188.1667 84.1691
L188.1190 84.3120
" />
<path d="M188.1190 84.3120
L188.0238 84.4072
" />
<path d="M188.0238 84.4072
L187.8810 84.4548
" />
<path d="M187.8810 84.4548
L187.7857 84.4548
" />
<path d="M188.5952 83.5501
L188.6429 83.5024
" />
<path d="M188.6429 83.5024
L188.7381 83.4548
" />
<path d="M188.7381 83.4548
L188.9762 83.4548
" />
<path d="M188.9762 83.4548
L189.0714 83.5024
" />
<path d="M189.0714 83.5024
L189.1190 83.5501
" />
<path d="M189.1190 83.5501
L189.1667 83.6453
" />
<path d="M189.1667 83.6453
L189.1667 83.7405
" />
<path d="M189.1667 83.7405
L189.1190 83.8834
" />
<path d="M189.1190 83.8834
L188.5476 84.4548
" />
<path d="M188.5476 84.4548
L189.1667 84.4548
" />
</g><text x="187.4000" y="67.5000"
textLength="12.9167" font-size="1.3333" lengthAdjust="spacingAndGlyphs"
text-anchor="middle" opacity="0" stroke-opacity="0">Conn_Main_DCDC</text>
<g class="stroked-text"><desc>Conn_Main_DCDC</desc>
<path d="M181.8762 67.3596
L181.8286 67.4072
" />
<path d="M181.8286 67.4072
L181.6857 67.4548
" />
<path d="M181.6857 67.4548
L181.5905 67.4548
" />
<path d="M181.5905 67.4548
L181.4476 67.4072
" />
<path d="M181.4476 67.4072
L181.3524 67.3120
" />
<path d="M181.3524 67.3120
L181.3048 67.2167
" />
<path d="M181.3048 67.2167
L181.2571 67.0262
" />
<path d="M181.2571 67.0262
L181.2571 66.8834
" />
<path d="M181.2571 66.8834
L181.3048 66.6929
" />
<path d="M181.3048 66.6929
L181.3524 66.5977
" />
<path d="M181.3524 66.5977
L181.4476 66.5024
" />
<path d="M181.4476 66.5024
L181.5905 66.4548
" />
<path d="M181.5905 66.4548
L181.6857 66.4548
" />
<path d="M181.6857 66.4548
L181.8286 66.5024
" />
<path d="M181.8286 66.5024
L181.8762 66.5501
" />
<path d="M182.4476 67.4548
L182.3524 67.4072
" />
<path d="M182.3524 67.4072
L182.3048 67.3596
" />
<path d="M182.3048 67.3596
L182.2571 67.2643
" />
<path d="M182.2571 67.2643
L182.2571 66.9786
" />
<path d="M182.2571 66.9786
L182.3048 66.8834
" />
<path d="M182.3048 66.8834
L182.3524 66.8358
" />
<path d="M182.3524 66.8358
L182.4476 66.7882
" />
<path d="M182.4476 66.7882
L182.5905 66.7882
" />
<path d="M182.5905 66.7882
L182.6857 66.8358
" />
<path d="M182.6857 66.8358
L182.7333 66.8834
" />
<path d="M182.7333 66.8834
L182.7810 66.9786
" />
<path d="M182.7810 66.9786
L182.7810 67.2643
" />
<path d="M182.7810 67.2643
L182.7333 67.3596
" />
<path d="M182.7333 67.3596
L182.6857 67.4072
" />
<path d="M182.6857 67.4072
L182.5905 67.4548
" />
<path d="M182.5905 67.4548
L182.4476 67.4548
" />
<path d="M183.2095 66.7882
L183.2095 67.4548
" />
<path d="M183.2095 66.8834
L183.2571 66.8358
" />
<path d="M183.2571 66.8358
L183.3524 66.7882
" />
<path d="M183.3524 66.7882
L183.4952 66.7882
" />
<path d="M183.4952 66.7882
L183.5905 66.8358
" />
<path d="M183.5905 66.8358
L183.6381 66.9310
" />
<path d="M183.6381 66.9310
L183.6381 67.4548
" />
<path d="M184.1143 66.7882
L184.1143 67.4548
" />
<path d="M184.1143 66.8834
L184.1619 66.8358
" />
<path d="M184.1619 66.8358
L184.2571 66.7882
" />
<path d="M184.2571 66.7882
L184.4000 66.7882
" />
<path d="M184.4000 66.7882
L184.4952 66.8358
" />
<path d="M184.4952 66.8358
L184.5429 66.9310
" />
<path d="M184.5429 66.9310
L184.5429 67.4548
" />
<path d="M184.7810 67.5501
L185.5429 67.5501
" />
<path d="M185.7810 67.4548
L185.7810 66.4548
" />
<path d="M185.7810 66.4548
L186.1143 67.1691
" />
<path d="M186.1143 67.1691
L186.4476 66.4548
" />
<path d="M186.4476 66.4548
L186.4476 67.4548
" />
<path d="M187.3524 67.4548
L187.3524 66.9310
" />
<path d="M187.3524 66.9310
L187.3048 66.8358
" />
<path d="M187.3048 66.8358
L187.2095 66.7882
" />
<path d="M187.2095 66.7882
L187.0190 66.7882
" />
<path d="M187.0190 66.7882
L186.9238 66.8358
" />
<path d="M187.3524 67.4072
L187.2571 67.4548
" />
<path d="M187.2571 67.4548
L187.0190 67.4548
" />
<path d="M187.0190 67.4548
L186.9238 67.4072
" />
<path d="M186.9238 67.4072
L186.8762 67.3120
" />
<path d="M186.8762 67.3120
L186.8762 67.2167
" />
<path d="M186.8762 67.2167
L186.9238 67.1215
" />
<path d="M186.9238 67.1215
L187.0190 67.0739
" />
<path d="M187.0190 67.0739
L187.2571 67.0739
" />
<path d="M187.2571 67.0739
L187.3524 67.0262
" />
<path d="M187.8286 67.4548
L187.8286 66.7882
" />
<path d="M187.8286 66.4548
L187.7810 66.5024
" />
<path d="M187.7810 66.5024
L187.8286 66.5501
" />
<path d="M187.8286 66.5501
L187.8762 66.5024
" />
<path d="M187.8762 66.5024
L187.8286 66.4548
" />
<path d="M187.8286 66.4548
L187.8286 66.5501
" />
<path d="M188.3048 66.7882
L188.3048 67.4548
" />
<path d="M188.3048 66.8834
L188.3524 66.8358
" />
<path d="M188.3524 66.8358
L188.4476 66.7882
" />
<path d="M188.4476 66.7882
L188.5905 66.7882
" />
<path d="M188.5905 66.7882
L188.6857 66.8358
" />
<path d="M188.6857 66.8358
L188.7333 66.9310
" />
<path d="M188.7333 66.9310
L188.7333 67.4548
" />
<path d="M188.9714 67.5501
L189.7333 67.5501
" />
<path d="M189.9714 67.4548
L189.9714 66.4548
" />
<path d="M189.9714 66.4548
L190.2095 66.4548
" />
<path d="M190.2095 66.4548
L190.3524 66.5024
" />
<path d="M190.3524 66.5024
L190.4476 66.5977
" />
<path d="M190.4476 66.5977
L190.4952 66.6929
" />
<path d="M190.4952 66.6929
L190.5429 66.8834
" />
<path d="M190.5429 66.8834
L190.5429 67.0262
" />
<path d="M190.5429 67.0262
L190.4952 67.2167
" />
<path d="M190.4952 67.2167
L190.4476 67.3120
" />
<path d="M190.4476 67.3120
L190.3524 67.4072
" />
<path d="M190.3524 67.4072
L190.2095 67.4548
" />
<path d="M190.2095 67.4548
L189.9714 67.4548
" />
<path d="M191.5429 67.3596
L191.4952 67.4072
" />
<path d="M191.4952 67.4072
L191.3524 67.4548
" />
<path d="M191.3524 67.4548
L191.2571 67.4548
" />
<path d="M191.2571 67.4548
L191.1143 67.4072
" />
<path d="M191.1143 67.4072
L191.0190 67.3120
" />
<path d="M191.0190 67.3120
L190.9714 67.2167
" />
<path d="M190.9714 67.2167
L190.9238 67.0262
" />
<path d="M190.9238 67.0262
L190.9238 66.8834
" />
<path d="M190.9238 66.8834
L190.9714 66.6929
" />
<path d="M190.9714 66.6929
L191.0190 66.5977
" />
<path d="M191.0190 66.5977
L191.1143 66.5024
" />
<path d="M191.1143 66.5024
L191.2571 66.4548
" />
<path d="M191.2571 66.4548
L191.3524 66.4548
" />
<path d="M191.3524 66.4548
L191.4952 66.5024
" />
<path d="M191.4952 66.5024
L191.5429 66.5501
" />
<path d="M191.9714 67.4548
L191.9714 66.4548
" />
<path d="M191.9714 66.4548
L192.2095 66.4548
" />
<path d="M192.2095 66.4548
L192.3524 66.5024
" />
<path d="M192.3524 66.5024
L192.4476 66.5977
" />
<path d="M192.4476 66.5977
L192.4952 66.6929
" />
<path d="M192.4952 66.6929
L192.5429 66.8834
" />
<path d="M192.5429 66.8834
L192.5429 67.0262
" />
<path d="M192.5429 67.0262
L192.4952 67.2167
" />
<path d="M192.4952 67.2167
L192.4476 67.3120
" />
<path d="M192.4476 67.3120
L192.3524 67.4072
" />
<path d="M192.3524 67.4072
L192.2095 67.4548
" />
<path d="M192.2095 67.4548
L191.9714 67.4548
" />
<path d="M193.5429 67.3596
L193.4952 67.4072
" />
<path d="M193.4952 67.4072
L193.3524 67.4548
" />
<path d="M193.3524 67.4548
L193.2571 67.4548
" />
<path d="M193.2571 67.4548
L193.1143 67.4072
" />
<path d="M193.1143 67.4072
L193.0190 67.3120
" />
<path d="M193.0190 67.3120
L192.9714 67.2167
" />
<path d="M192.9714 67.2167
L192.9238 67.0262
" />
<path d="M192.9238 67.0262
L192.9238 66.8834
" />
<path d="M192.9238 66.8834
L192.9714 66.6929
" />
<path d="M192.9714 66.6929
L193.0190 66.5977
" />
<path d="M193.0190 66.5977
L193.1143 66.5024
" />
<path d="M193.1143 66.5024
L193.2571 66.4548
" />
<path d="M193.2571 66.4548
L193.3524 66.4548
" />
<path d="M193.3524 66.4548
L193.4952 66.5024
" />
<path d="M193.4952 66.5024
L193.5429 66.5501
" />
</g><text x="187.4000" y="59.9000"
textLength="1.9643" font-size="1.3333" lengthAdjust="spacingAndGlyphs"
text-anchor="middle" opacity="0" stroke-opacity="0">J6</text>
<g class="stroked-text"><desc>J6</desc>
<path d="M187.0667 58.8548
L187.0667 59.5691
" />
<path d="M187.0667 59.5691
L187.0190 59.7120
" />
<path d="M187.0190 59.7120
L186.9238 59.8072
" />
<path d="M186.9238 59.8072
L186.7810 59.8548
" />
<path d="M186.7810 59.8548
L186.6857 59.8548
" />
<path d="M187.9714 58.8548
L187.7810 58.8548
" />
<path d="M187.7810 58.8548
L187.6857 58.9024
" />
<path d="M187.6857 58.9024
L187.6381 58.9501
" />
<path d="M187.6381 58.9501
L187.5429 59.0929
" />
<path d="M187.5429 59.0929
L187.4952 59.2834
" />
<path d="M187.4952 59.2834
L187.4952 59.6643
" />
<path d="M187.4952 59.6643
L187.5429 59.7596
" />
<path d="M187.5429 59.7596
L187.5905 59.8072
" />
<path d="M187.5905 59.8072
L187.6857 59.8548
" />
<path d="M187.6857 59.8548
L187.8762 59.8548
" />
<path d="M187.8762 59.8548
L187.9714 59.8072
" />
<path d="M187.9714 59.8072
L188.0190 59.7596
" />
<path d="M188.0190 59.7596
L188.0667 59.6643
" />
<path d="M188.0667 59.6643
L188.0667 59.4262
" />
<path d="M188.0667 59.4262
L188.0190 59.3310
" />
<path d="M188.0190 59.3310
L187.9714 59.2834
" />
<path d="M187.9714 59.2834
L187.8762 59.2358
" />
<path d="M187.8762 59.2358
L187.6857 59.2358
" />
<path d="M187.6857 59.2358
L187.5905 59.2834
" />
<path d="M187.5905 59.2834
L187.5429 59.3310
" />
<path d="M187.5429 59.3310
L187.4952 59.4262
" />
</g></g>
<g style="fill:none; 
stroke:#000000; stroke-width:0.1000; stroke-opacity:1; 
stroke-linecap:round; stroke-linejoin:round;">
<path d="M198.8500 58.0000
L199.5500 58.0000
" />
<path d="M198.8500 60.0000
L210.1500 60.0000
" />
<path d="M199.5500 55.9500
L199.5500 58.0000
" />
<path d="M199.5500 55.9500
L209.4500 55.9500
" />
<path d="M200.0800 49.9500
L200.0800 55.9500
" />
<path d="M200.0800 49.9500
L208.9200 49.9500
" />
<path d="M208.9200 49.9500
L208.9200 55.9500
" />
<path d="M209.4500 55.9500
L209.4500 57.9500
" />
<path d="M209.4500 58.0000
L210.1500 58.0000
" />
<path d="M198.8500 58.0000 A1.0000 1.0000 0.0 0 0 198.8500 60.0000" />
<path d="M210.1500 60.0000 A1.0000 1.0000 0.0 0 0 210.1500 58.0000" />
<path d="M164.7500 69.0800
L170.7500 69.0800
" />
<path d="M164.7500 77.9200
L164.7500 69.0800
" />
<path d="M164.7500 77.9200
L170.7500 77.9200
" />
<path d="M170.7500 68.5500
L172.7500 68.5500
" />
<path d="M170.7500 78.4500
L170.7500 68.5500
" />
<path d="M170.7500 78.4500
L172.8000 78.4500
" />
<path d="M172.8000 68.5500
L172.8000 67.8500
" />
<path d="M172.8000 79.1500
L172.8000 78.4500
" />
<path d="M174.8000 79.1500
L174.8000 67.8500
" />
<path d="M174.8000 67.8500 A1.0000 1.0000 0.0 0 0 172.8000 67.8500" />
<path d="M172.8000 79.1500 A1.0000 1.0000 0.0 0 0 174.8000 79.1500" />
<path d="M213.8500 58.0000
L214.5500 58.0000
" />
<path d="M213.8500 60.0000
L225.1500 60.0000
" />
<path d="M214.5500 55.9500
L214.5500 58.0000
" />
<path d="M214.5500 55.9500
L224.4500 55.9500
" />
<path d="M215.0800 49.9500
L215.0800 55.9500
" />
<path d="M215.0800 49.9500
L223.9200 49.9500
" />
<path d="M223.9200 49.9500
L223.9200 55.9500
" />
<path d="M224.4500 55.9500
L224.4500 57.9500
" />
<path d="M224.4500 58.0000
L225.1500 58.0000
" />
<path d="M213.8500 58.0000 A1.0000 1.0000 0.0 0 0 213.8500 60.0000" />
<path d="M225.1500 60.0000 A1.0000 1.0000 0.0 0 0 225.1500 58.0000" />
<path d="M205.2500 70.4000
L205.2500 77.6000
" />
<path d="M205.2500 77.6000
L209.7500 77.6000
" />
<path d="M209.7500 70.4000
L205.2500 70.4000
" />
<path d="M209.7500 77.6000
L209.7500 70.4000
" />
<path d="M183.5500 87.0000
L182.8500 87.0000
" />
<path d="M183.5500 89.0500
L183.5500 87.0500
" />
<path d="M184.0800 95.0500
L184.0800 89.0500
" />
<path d="M192.9200 95.0500
L184.0800 95.0500
" />
<path d="M192.9200 95.0500
L192.9200 89.0500
" />
<path d="M193.4500 89.0500
L183.5500 89.0500
" />
<path d="M193.4500 89.0500
L193.4500 87.0000
" />
<path d="M194.1500 85.0000
L182.8500 85.0000
" />
<path d="M194.1500 87.0000
L193.4500 87.0000
" />
<path d="M182.8500 85.0000 A1.0000 1.0000 0.0 0 0 182.8500 87.0000" />
<path d="M194.1500 87.0000 A1.0000 1.0000 0.0 0 0 194.1500 85.0000" />
<path d="M179.6500 55.3500
L179.6500 60.8500
" />
<path d="M179.6500 55.3500
L195.1500 55.3500
" />
<path d="M180.5000 47.6500
L194.3000 47.6500
" />
<path d="M180.5000 55.3500
L180.5000 47.6500
" />
<path d="M183.6500 64.8500
L191.1500 64.8500
" />
<path d="M194.3000 55.3500
L194.3000 47.6500
" />
<path d="M195.1500 55.3500
L195.1500 60.8500
" />
<path d="M179.6500 60.8500 A4.0002 4.0002 0.0 0 0 183.6150 64.8850" />
<path d="M191.1500 64.8500 A4.0000 4.0000 0.0 0 0 195.1500 60.8500" />
</g> 
</svg>
