<?xml version='1.0' encoding='ASCII' standalone='yes'?>
<svg xmlns="http://www.w3.org/2000/svg" version="1.1" width="297.0022mm" height="210.0072mm" viewBox="0.0000 0.0000 297.0022 210.0072">
            <title>Picture generated by PcbDraw </title>
            <desc>Picture generated by PcbDraw</desc>
        <defs><clipPath id="cut-off"><path d="M170.0000 90.0000 L170.0000 55.0000 M 240.0 55.0 L 240.0 90.0 L 170.0 90.0 L 170.0 55.0 L 240.0 55.0 " style="fill-rule: evenodd;"/></clipPath><mask id="pads-mask-silkscreen"><rect x="169.975" y="54.975" width="70.05" height="35.05" fill="white"/><g style="fill:#000000; fill-opacity:1.0000; stroke:none;">
<circle cx="175.0000" cy="60.0000" r="1.7000"/> 
</g>
<g style="fill:#000000; fill-opacity:1.0000; stroke:none;">
<circle cx="235.0000" cy="60.0000" r="1.7000"/> 
</g>
<g style="fill:#000000; fill-opacity:1.0000; stroke:none;">
<circle cx="202.0000" cy="59.1500" r="0.8000"/> 
</g>
<g style="fill:#000000; fill-opacity:1.0000; stroke:none;">
<circle cx="213.0000" cy="59.1500" r="0.8000"/> 
<path style="fill:#000000; fill-opacity:1.0000; stroke:none;fill-rule:evenodd;" d="M 203.1500,62.4000 203.1576,62.3617 203.1793,62.3293 203.2117,62.3076 203.2500,62.3000 206.7500,62.3000 206.7883,62.3076 206.8207,62.3293 206.8424,62.3617 206.8500,62.4000 206.8500,65.9000 206.8424,65.9383 206.8207,65.9707 206.7883,65.9924 206.7500,66.0000 203.2500,66.0000 203.2117,65.9924 203.1793,65.9707 203.1576,65.9383 203.1500,65.9000 Z"/> 
</g>
<g style="fill:#000000; fill-opacity:1.0000; stroke:none;">
<circle cx="210.0000" cy="64.1500" r="1.8500"/> 
</g>
<g style="fill:#000000; fill-opacity:1.0000; stroke:none;">
<circle cx="197.0160" cy="76.5800" r="0.8620"/> 
</g>
<g style="fill:#000000; fill-opacity:1.0000; stroke:none;">
<circle cx="197.0160" cy="74.0400" r="0.8620"/> 
</g>
<g style="fill:#000000; fill-opacity:1.0000; stroke:none;">
<circle cx="197.0160" cy="71.5000" r="0.8620"/> 
</g>
<g style="fill:#000000; fill-opacity:1.0000; stroke:none;">
<circle cx="197.4600" cy="87.2000" r="1.6500"/> 
</g>
<g style="fill:#000000; fill-opacity:1.0000; stroke:none;">
<circle cx="210.5400" cy="87.2000" r="1.6500"/> 
</g>
<g style="fill:#000000; fill-opacity:1.0000; stroke:none;">
<circle cx="200.5000" cy="84.5000" r="0.9600"/> 
</g>
<g style="fill:#000000; fill-opacity:1.0000; stroke:none;">
<circle cx="203.0000" cy="84.5000" r="0.9600"/> 
</g>
<g style="fill:#000000; fill-opacity:1.0000; stroke:none;">
<circle cx="205.0000" cy="84.5000" r="0.9600"/> 
</g>
<g style="fill:#000000; fill-opacity:1.0000; stroke:none;">
<circle cx="207.5000" cy="84.5000" r="0.9600"/> 
</g>
<g style="fill:#000000; fill-opacity:1.0000; stroke:none;">
<circle cx="217.0000" cy="59.1500" r="0.8000"/> 
</g>
<g style="fill:#000000; fill-opacity:1.0000; stroke:none;">
<circle cx="228.0000" cy="59.1500" r="0.8000"/> 
<path style="fill:#000000; fill-opacity:1.0000; stroke:none;fill-rule:evenodd;" d="M 218.1500,62.4000 218.1576,62.3617 218.1793,62.3293 218.2117,62.3076 218.2500,62.3000 221.7500,62.3000 221.7883,62.3076 221.8207,62.3293 221.8424,62.3617 221.8500,62.4000 221.8500,65.9000 221.8424,65.9383 221.8207,65.9707 221.7883,65.9924 221.7500,66.0000 218.2500,66.0000 218.2117,65.9924 218.1793,65.9707 218.1576,65.9383 218.1500,65.9000 Z"/> 
</g>
<g style="fill:#000000; fill-opacity:1.0000; stroke:none;">
<circle cx="225.0000" cy="64.1500" r="1.8500"/> 
</g>
<g style="fill:#000000; fill-opacity:1.0000; stroke:none;">
<circle cx="175.0000" cy="85.0000" r="1.7000"/> 
</g>
<g style="fill:#000000; fill-opacity:1.0000; stroke:none;">
<circle cx="214.4600" cy="87.2000" r="1.6500"/> 
</g>
<g style="fill:#000000; fill-opacity:1.0000; stroke:none;">
<circle cx="227.5400" cy="87.2000" r="1.6500"/> 
</g>
<g style="fill:#000000; fill-opacity:1.0000; stroke:none;">
<circle cx="217.5000" cy="84.5000" r="0.9600"/> 
</g>
<g style="fill:#000000; fill-opacity:1.0000; stroke:none;">
<circle cx="220.0000" cy="84.5000" r="0.9600"/> 
</g>
<g style="fill:#000000; fill-opacity:1.0000; stroke:none;">
<circle cx="222.0000" cy="84.5000" r="0.9600"/> 
</g>
<g style="fill:#000000; fill-opacity:1.0000; stroke:none;">
<circle cx="224.5000" cy="84.5000" r="0.9600"/> 
</g>
<g style="fill:#000000; fill-opacity:1.0000; stroke:none;">
<circle cx="235.0000" cy="85.0000" r="1.7000"/> 
</g>
<g style="fill:#000000; fill-opacity:1.0000; stroke:none;">
<circle cx="207.5000" cy="71.5000" r="0.9000"/> 
</g>
<g style="fill:#000000; fill-opacity:1.0000; stroke:none;">
<circle cx="207.5000" cy="76.5000" r="0.9000"/> 
</g>
<g style="fill:#000000; fill-opacity:1.0000; stroke:none;">
<circle cx="193.0000" cy="86.0000" r="0.8000"/> 
</g>
<g style="fill:#000000; fill-opacity:1.0000; stroke:none;">
<circle cx="182.0000" cy="86.0000" r="0.8000"/> 
<path style="fill:#000000; fill-opacity:1.0000; stroke:none;fill-rule:evenodd;" d="M 191.8500,82.7500 191.8424,82.7883 191.8207,82.8207 191.7883,82.8424 191.7500,82.8500 188.2500,82.8500 188.2117,82.8424 188.1793,82.8207 188.1576,82.7883 188.1500,82.7500 188.1500,79.2500 188.1576,79.2117 188.1793,79.1793 188.2117,79.1576 188.2500,79.1500 191.7500,79.1500 191.7883,79.1576 191.8207,79.1793 191.8424,79.2117 191.8500,79.2500 Z"/> 
</g>
<g style="fill:#000000; fill-opacity:1.0000; stroke:none;">
<circle cx="185.0000" cy="81.0000" r="1.8500"/> 
</g>
<g style="fill:#000000; fill-opacity:1.0000; stroke:none;">
<circle cx="182.0000" cy="59.0000" r="0.8000"/> 
</g>
<g style="fill:#000000; fill-opacity:1.0000; stroke:none;">
<circle cx="193.0000" cy="59.0000" r="0.8000"/> 
<path style="fill:#000000; fill-opacity:1.0000; stroke:none;fill-rule:evenodd;" d="M 183.1500,62.2500 183.1576,62.2117 183.1793,62.1793 183.2117,62.1576 183.2500,62.1500 186.7500,62.1500 186.7883,62.1576 186.8207,62.1793 186.8424,62.2117 186.8500,62.2500 186.8500,65.7500 186.8424,65.7883 186.8207,65.8207 186.7883,65.8424 186.7500,65.8500 183.2500,65.8500 183.2117,65.8424 183.1793,65.8207 183.1576,65.7883 183.1500,65.7500 Z"/> 
</g>
<g style="fill:#000000; fill-opacity:1.0000; stroke:none;">
<circle cx="190.0000" cy="64.0000" r="1.8500"/> 
</g> 
</mask></defs><g transform="scale(-1,1) translate(-297.0022,0)" id="boardContainer"><g id="substrate" clip-path="url(#cut-off)" mask="url(#pads-mask-silkscreen)"><g id="substrate-board" style="fill:#143324; fill-opacity:0.25098039215686274; stroke:#143324; stroke-width:0;"><path d="M170.0000 90.0000 L170.0000 55.0000 M 240.0 55.0 L 240.0 90.0 L 170.0 90.0 L 170.0 55.0 L 240.0 55.0 " style="fill-rule: evenodd;"/><g style="fill: #4ca06c;fill-opacity: 1.0000;stroke: #4ca06c;stroke-opacity: 1.0000;stroke-linecap: round;stroke-linejoin: round" transform="translate(0 0) scale(1 1)">
<path style="fill: none;stroke: #4ca06c;stroke-width: 0.0500;stroke-opacity: 1;stroke-linecap: round;stroke-linejoin: round" d="M 170.0000,55.0000 240.0000,55.0000 240.0000,90.0000 170.0000,90.0000 Z"/> 
</g> 
</g></g></g></svg>
