<?xml version="1.0" standalone="no"?>
 <!DOCTYPE svg PUBLIC "-//W3C//DTD SVG 1.1//EN" 
 "http://www.w3.org/Graphics/SVG/1.1/DTD/svg11.dtd"> 
<svg
  xmlns:svg="http://www.w3.org/2000/svg"
  xmlns="http://www.w3.org/2000/svg"
  xmlns:xlink="http://www.w3.org/1999/xlink"
  version="1.1"
  width="297.0022mm" height="210.0072mm" viewBox="0.0000 0.0000 297.0022 210.0072">
<title>SVG Image created as computer_sensor_board-B_Cu.svg date 2025/02/14 05:21:00 </title>
  <desc>Image generated by PCBNEW </desc>
<g style="fill:#000000; fill-opacity:1.0000;stroke:#000000; stroke-opacity:1.0000;
stroke-linecap:round; stroke-linejoin:round;"
 transform="translate(0 0) scale(1 1)">
</g>
<g style="fill:#000000; fill-opacity:1.0000; stroke:none;">
<circle cx="99.5822" cy="62.0000" r="0.8000" /> 
</g>
<g style="fill:#000000; fill-opacity:1.0000; stroke:none;">
<circle cx="89.4222" cy="62.0000" r="0.8000" /> 
<path style="fill:#000000; fill-opacity:1.0000; stroke:none;fill-rule:evenodd;"
d="M 97.9022,74.1000
96.1022,74.1000
96.1022,75.9000
97.9022,75.9000
Z" /> 
<circle cx="97.0022" cy="77.5400" r="0.9000" /> 
</g>
<g style="fill:#000000; fill-opacity:1.0000; stroke:none;">
<circle cx="114.5522" cy="68.7000" r="1.2000" /> 
</g>
<g style="fill:#000000; fill-opacity:1.0000; stroke:none;">
<circle cx="104.5522" cy="68.7000" r="1.2000" /> 
</g>
<g style="fill:#000000; fill-opacity:1.0000; stroke:none;">
<circle cx="98.0022" cy="49.0000" r="0.7000" /> 
</g>
<g style="fill:#000000; fill-opacity:1.0000; stroke:none;">
<circle cx="87.0022" cy="49.0000" r="0.7000" /> 
<path style="fill:#000000; fill-opacity:1.0000; stroke:none;fill-rule:evenodd;"
d="M 96.7522,55.7500
96.7522,52.2500
93.2522,52.2500
93.2522,55.7500
Z" /> 
</g>
<g style="fill:#000000; fill-opacity:1.0000; stroke:none;">
<circle cx="90.0022" cy="54.0000" r="1.7500" /> 
</g>
<g style="fill:#000000; fill-opacity:1.0000; stroke:none;">
<circle cx="83.0022" cy="77.7900" r="0.7620" /> 
</g>
<g style="fill:#000000; fill-opacity:1.0000; stroke:none;">
<circle cx="83.0022" cy="75.2500" r="0.7620" /> 
</g>
<g style="fill:#000000; fill-opacity:1.0000; stroke:none;">
<circle cx="83.0022" cy="72.7100" r="0.7620" /> 
</g>
<g style="fill:#000000; fill-opacity:1.0000; stroke:none;">
<circle cx="98.5422" cy="87.2000" r="1.5500" /> 
</g>
<g style="fill:#000000; fill-opacity:1.0000; stroke:none;">
<circle cx="85.4622" cy="87.2000" r="1.5500" /> 
</g>
<g style="fill:#000000; fill-opacity:1.0000; stroke:none;">
<circle cx="95.5022" cy="84.5000" r="0.8600" /> 
</g>
<g style="fill:#000000; fill-opacity:1.0000; stroke:none;">
<circle cx="93.0022" cy="84.5000" r="0.8600" /> 
</g>
<g style="fill:#000000; fill-opacity:1.0000; stroke:none;">
<circle cx="91.0022" cy="84.5000" r="0.8600" /> 
</g>
<g style="fill:#000000; fill-opacity:1.0000; stroke:none;">
<circle cx="88.5022" cy="84.5000" r="0.8600" /> 
</g>
<g style="fill:#000000; fill-opacity:1.0000; stroke:none;">
<circle cx="97.0022" cy="70.5000" r="0.8000" /> 
</g>
<g style="fill:#000000; fill-opacity:1.0000; stroke:none;">
<circle cx="86.8422" cy="70.5000" r="0.8000" /> 
<circle cx="83.0022" cy="49.0000" r="0.7000" /> 
</g>
<g style="fill:#000000; fill-opacity:1.0000; stroke:none;">
<circle cx="72.0022" cy="49.0000" r="0.7000" /> 
<path style="fill:#000000; fill-opacity:1.0000; stroke:none;fill-rule:evenodd;"
d="M 81.7522,53.0200
81.7363,52.8643
81.6801,52.6946
81.5862,52.5424
81.4598,52.4160
81.3076,52.3221
81.1379,52.2659
80.9822,52.2500
79.0222,52.2500
78.8665,52.2659
78.6968,52.3221
78.5446,52.4160
78.4182,52.5424
78.3243,52.6946
78.2681,52.8643
78.2522,53.0200
78.2522,54.9800
78.2681,55.1357
78.3243,55.3054
78.4182,55.4576
78.5446,55.5840
78.6968,55.6779
78.8665,55.7341
79.0222,55.7500
80.9822,55.7500
81.1379,55.7341
81.3076,55.6779
81.4598,55.5840
81.5862,55.4576
81.6801,55.3054
81.7363,55.1357
81.7522,54.9800
Z" /> 
</g>
<g style="fill:#000000; fill-opacity:1.0000; stroke:none;">
<circle cx="75.0022" cy="54.0000" r="1.7500" /> 
</g>
<g style="fill:#000000; fill-opacity:1.0000; stroke:none;">
<circle cx="80.5422" cy="87.2000" r="1.5500" /> 
</g>
<g style="fill:#000000; fill-opacity:1.0000; stroke:none;">
<circle cx="67.4622" cy="87.2000" r="1.5500" /> 
</g>
<g style="fill:#000000; fill-opacity:1.0000; stroke:none;">
<circle cx="77.5022" cy="84.5000" r="0.8600" /> 
</g>
<g style="fill:#000000; fill-opacity:1.0000; stroke:none;">
<circle cx="75.0022" cy="84.5000" r="0.8600" /> 
</g>
<g style="fill:#000000; fill-opacity:1.0000; stroke:none;">
<circle cx="73.0022" cy="84.5000" r="0.8600" /> 
</g>
<g style="fill:#000000; fill-opacity:1.0000; stroke:none;">
<circle cx="70.5022" cy="84.5000" r="0.8600" /> 
</g>
<g style="fill:#000000; fill-opacity:1.0000; stroke:none;">
<circle cx="61.0022" cy="66.5000" r="0.7000" /> 
</g>
<g style="fill:#000000; fill-opacity:1.0000; stroke:none;">
<circle cx="61.0022" cy="77.5000" r="0.7000" /> 
<path style="fill:#000000; fill-opacity:1.0000; stroke:none;fill-rule:evenodd;"
d="M 65.0222,67.7500
64.8665,67.7659
64.6968,67.8221
64.5446,67.9160
64.4182,68.0424
64.3243,68.1946
64.2681,68.3643
64.2522,68.5200
64.2522,70.4800
64.2681,70.6357
64.3243,70.8054
64.4182,70.9576
64.5446,71.0840
64.6968,71.1779
64.8665,71.2341
65.0222,71.2500
66.9822,71.2500
67.1379,71.2341
67.3076,71.1779
67.4598,71.0840
67.5862,70.9576
67.6801,70.8054
67.7363,70.6357
67.7522,70.4800
67.7522,68.5200
67.7363,68.3643
67.6801,68.1946
67.5862,68.0424
67.4598,67.9160
67.3076,67.8221
67.1379,67.7659
66.9822,67.7500
Z" /> 
</g>
<g style="fill:#000000; fill-opacity:1.0000; stroke:none;">
<circle cx="66.0022" cy="74.5000" r="1.7500" /> 
<path style="fill:#000000; fill-opacity:1.0000; stroke:none;fill-rule:evenodd;"
d="M 116.2522,77.7500
116.2522,73.2500
113.7522,73.2500
113.7522,77.7500
Z" /> 
</g>
<g style="fill:none; 
stroke:#000000; stroke-width:2.5000; stroke-opacity:1; 
stroke-linecap:round; stroke-linejoin:round;">
<path d="M109.5522 74.5000
L109.5522 76.5000
" />
<path d="M104.1022 74.5000
L104.1022 76.5000
" />
</g>
<g style="fill:#000000; fill-opacity:1.0000; stroke:none;">
<circle cx="74.0022" cy="70.5000" r="0.8000" /> 
</g>
<g style="fill:#000000; fill-opacity:1.0000; stroke:none;">
<circle cx="74.0022" cy="75.5000" r="0.8000" /> 
<path style="fill:#000000; fill-opacity:1.0000; stroke:none;fill-rule:evenodd;"
d="M 102.2022,87.0000
102.2022,89.0000
103.1022,89.0000
103.1022,87.0000
Z" /> 
<path style="fill:#000000; fill-opacity:1.0000; stroke:none;fill-rule:evenodd;"
d="M 115.7022,87.0000
115.7022,89.0000
116.6022,89.0000
116.6022,87.0000
Z" /> 
<path style="fill:#000000; fill-opacity:1.0000; stroke:none;fill-rule:evenodd;"
d="M 110.9522,83.0250
110.9719,83.2250
111.0302,83.4173
111.1249,83.5945
111.2524,83.7498
111.4077,83.8773
111.5849,83.9720
111.7772,84.0303
111.9772,84.0500
114.0272,84.0500
114.2272,84.0303
114.4195,83.9720
114.5967,83.8773
114.7520,83.7498
114.8795,83.5945
114.9742,83.4173
115.0325,83.2250
115.0522,83.0250
115.0522,80.9750
115.0325,80.7750
114.9742,80.5827
114.8795,80.4055
114.7520,80.2502
114.5967,80.1227
114.4195,80.0280
114.2272,79.9697
114.0272,79.9500
111.9772,79.9500
111.7772,79.9697
111.5849,80.0280
111.4077,80.1227
111.2524,80.2502
111.1249,80.4055
111.0302,80.5827
110.9719,80.7750
110.9522,80.9750
Z" /> 
</g>
<g style="fill:#000000; fill-opacity:1.0000; stroke:none;">
<circle cx="105.8022" cy="82.0000" r="2.0500" /> 
<path style="fill:#000000; fill-opacity:1.0000; stroke:none;fill-rule:evenodd;"
d="M 116.8022,48.0000
116.8022,46.0000
115.9022,46.0000
115.9022,48.0000
Z" /> 
<path style="fill:#000000; fill-opacity:1.0000; stroke:none;fill-rule:evenodd;"
d="M 103.3022,48.0000
103.3022,46.0000
102.4022,46.0000
102.4022,48.0000
Z" /> 
<path style="fill:#000000; fill-opacity:1.0000; stroke:none;fill-rule:evenodd;"
d="M 108.0522,51.9750
108.0325,51.7750
107.9742,51.5827
107.8795,51.4055
107.7520,51.2502
107.5967,51.1227
107.4195,51.0280
107.2272,50.9697
107.0272,50.9500
104.9772,50.9500
104.7772,50.9697
104.5849,51.0280
104.4077,51.1227
104.2524,51.2502
104.1249,51.4055
104.0302,51.5827
103.9719,51.7750
103.9522,51.9750
103.9522,54.0250
103.9719,54.2250
104.0302,54.4173
104.1249,54.5945
104.2524,54.7498
104.4077,54.8773
104.5849,54.9720
104.7772,55.0303
104.9772,55.0500
107.0272,55.0500
107.2272,55.0303
107.4195,54.9720
107.5967,54.8773
107.7520,54.7498
107.8795,54.5945
107.9742,54.4173
108.0325,54.2250
108.0522,54.0250
Z" /> 
</g>
<g style="fill:#000000; fill-opacity:1.0000; stroke:none;">
<circle cx="113.2022" cy="53.0000" r="2.0500" /> 
</g>
<g style="fill:none; 
stroke:#000000; stroke-width:1.0000; stroke-opacity:1; 
stroke-linecap:round; stroke-linejoin:round;">
<path d="M81.0022 81.0000
L77.5022 84.5000
" />
<path d="M88.0022 86.5000
L82.5022 81.0000
" />
<path d="M83.0022 72.7100
L81.0022 74.7100
" />
<path d="M95.0022 86.5000
L88.0022 86.5000
" />
<path d="M95.5022 86.0000
L95.0022 86.5000
" />
<path d="M82.5022 81.0000
L81.0022 81.0000
" />
<path d="M95.5022 84.5000
L95.5022 86.0000
" />
<path d="M81.0022 74.7100
L81.0022 81.0000
" />
</g>
<g style="fill:none; 
stroke:#000000; stroke-width:3.0000; stroke-opacity:1; 
stroke-linecap:round; stroke-linejoin:round;">
<path d="M106.0022 53.0000
L96.0022 53.0000
" />
</g>
<g style="fill:none; 
stroke:#000000; stroke-width:1.0000; stroke-opacity:1; 
stroke-linecap:round; stroke-linejoin:round;">
<path d="M86.8422 64.5800
L89.4222 62.0000
" />
<path d="M86.8422 70.5000
L86.8422 82.8400
" />
</g>
<g style="fill:none; 
stroke:#000000; stroke-width:3.0000; stroke-opacity:1; 
stroke-linecap:round; stroke-linejoin:round;">
<path d="M115.0022 80.0000
L113.0022 82.0000
" />
</g>
<g style="fill:none; 
stroke:#000000; stroke-width:1.0000; stroke-opacity:1; 
stroke-linecap:round; stroke-linejoin:round;">
<path d="M86.8422 82.8400
L88.5022 84.5000
" />
</g>
<g style="fill:none; 
stroke:#000000; stroke-width:3.0000; stroke-opacity:1; 
stroke-linecap:round; stroke-linejoin:round;">
<path d="M106.0022 65.5000
L115.0022 74.5000
" />
<path d="M106.0022 53.0000
L106.0022 65.5000
" />
<path d="M115.0022 75.5000
L115.0022 80.0000
" />
<path d="M115.0022 74.5000
L115.0022 75.5000
" />
<path d="M96.0022 53.0000
L95.0022 54.0000
" />
</g>
<g style="fill:none; 
stroke:#000000; stroke-width:1.0000; stroke-opacity:1; 
stroke-linecap:round; stroke-linejoin:round;">
<path d="M86.8422 70.5000
L86.5022 70.5000
" />
<path d="M86.8422 70.5000
L86.8422 64.5800
" />
</g>
<g style="fill:none; 
stroke:#000000; stroke-width:3.0000; stroke-opacity:1; 
stroke-linecap:round; stroke-linejoin:round;">
<path d="M75.0022 59.5000
L75.0273 59.5000
" />
<path d="M88.9577 58.0000
L76.5273 58.0000
" />
<path d="M94.4022 77.6000
L97.0022 77.6000
" />
<path d="M92.9022 68.1000
L91.0022 70.0000
" />
</g>
<g style="fill:none; 
stroke:#000000; stroke-width:5.0000; stroke-opacity:1; 
stroke-linecap:round; stroke-linejoin:round;">
<path d="M104.1022 75.5000
L104.1022 80.3000
" />
<path d="M104.1022 80.3000
L105.8022 82.0000
" />
</g>
<g style="fill:none; 
stroke:#000000; stroke-width:3.0000; stroke-opacity:1; 
stroke-linecap:round; stroke-linejoin:round;">
<path d="M75.0022 56.4749
L75.0022 54.0000
" />
<path d="M91.0022 74.2000
L94.4022 77.6000
" />
<path d="M91.0022 70.0000
L91.0022 74.2000
" />
<path d="M92.9022 61.9445
L92.9022 68.1000
" />
<path d="M92.9022 61.9445
L88.9577 58.0000
" />
<path d="M66.4667 74.5000
L66.0022 74.5000
" />
<path d="M75.0022 59.5000
L75.0022 54.0000
" />
</g>
<g style="fill:none; 
stroke:#000000; stroke-width:5.0000; stroke-opacity:1; 
stroke-linecap:round; stroke-linejoin:round;">
<path d="M104.1022 75.5000
L101.0022 78.6000
" />
</g>
<g style="fill:none; 
stroke:#000000; stroke-width:3.0000; stroke-opacity:1; 
stroke-linecap:round; stroke-linejoin:round;">
<path d="M75.0022 65.9645
L66.4667 74.5000
" />
<path d="M90.0022 59.0445
L90.0022 54.0000
" />
<path d="M76.5273 58.0000
L75.0022 56.4749
" />
<path d="M75.0022 65.9645
L75.0022 59.5000
" />
<path d="M92.9022 61.9445
L90.0022 59.0445
" />
<path d="M75.0273 59.5000
L76.5273 58.0000
" />
</g>
<g style="fill:none; 
stroke:#000000; stroke-width:5.0000; stroke-opacity:1; 
stroke-linecap:round; stroke-linejoin:round;">
<path d="M101.0022 78.6000
L97.0022 78.6000
" />
<path style="fill:#000000; fill-opacity:1.0000; stroke:none;fill-rule:evenodd;"
d="M 117.2342,45.5202
117.1884,45.5730
117.1785,45.6421
117.2019,45.6988
117.2220,45.7256
117.2460,45.7577
117.2460,45.7577
117.2963,45.8925
117.3027,45.9521
117.3027,45.9521
117.3027,45.9521
117.3027,48.0479
117.3027,48.0479
117.2963,48.1075
117.2460,48.2423
117.2460,48.2423
117.1597,48.3575
117.1597,48.3575
117.0445,48.4438
117.0445,48.4438
116.9097,48.4941
116.9097,48.4941
116.9028,48.4948
116.8501,48.5005
115.8543,48.5005
115.7947,48.4941
115.6599,48.4438
115.5447,48.3575
115.4584,48.2423
115.4081,48.1075
115.4017,48.0479
115.4017,45.9521
115.4081,45.8925
115.4584,45.7577
115.5025,45.6988
115.5269,45.6333
115.5120,45.5651
115.4626,45.5157
115.4032,45.5005
103.8012,45.5005
103.7342,45.5202
103.6884,45.5730
103.6785,45.6421
103.7019,45.6988
103.7220,45.7256
103.7460,45.7577
103.7460,45.7577
103.7963,45.8925
103.8027,45.9521
103.8027,45.9521
103.8027,45.9521
103.8027,48.0479
103.8027,48.0479
103.7963,48.1075
103.7460,48.2423
103.7460,48.2423
103.6597,48.3575
103.6597,48.3575
103.5445,48.4438
103.5445,48.4438
103.4097,48.4941
103.4097,48.4941
103.4028,48.4948
103.3501,48.5005
102.3543,48.5005
102.2947,48.4941
102.1599,48.4438
102.0447,48.3575
101.9584,48.2423
101.9081,48.1075
101.9017,48.0479
101.9017,45.9521
101.9081,45.8925
101.9584,45.7577
102.0025,45.6988
102.0269,45.6333
102.0120,45.5651
101.9626,45.5157
101.9032,45.5005
57.6267,45.5005
57.5597,45.5202
57.5139,45.5730
57.5027,45.6245
57.5027,89.3755
57.5224,89.4425
57.5752,89.4883
57.6267,89.4995
101.7032,89.4995
101.7702,89.4798
101.8160,89.4270
101.8259,89.3579
101.8025,89.3012
101.7584,89.2423
101.7081,89.1075
101.7017,89.0479
101.7017,87.2000
100.5975,87.2000
100.5783,87.4799
100.5213,87.7545
100.5213,87.7545
100.4273,88.0188
100.4273,88.0188
100.2983,88.2679
100.1365,88.4971
100.1365,88.4971
100.1365,88.4971
99.9450,88.7021
99.9450,88.7021
99.7274,88.8791
99.7274,88.8791
99.7274,88.8791
99.4878,89.0249
99.2976,89.1075
99.2305,89.1366
98.9604,89.2123
98.7160,89.2459
98.6825,89.2505
98.6825,89.2505
98.4019,89.2505
98.3720,89.2464
98.1240,89.2123
97.8539,89.1366
97.5966,89.0249
97.3570,88.8791
97.1394,88.7021
96.9479,88.4971
96.7861,88.2679
96.6571,88.0188
96.5631,87.7545
96.5631,87.7545
96.5631,87.7545
96.5061,87.4799
96.5033,87.4400
96.4869,87.2000
96.5061,86.9201
96.5631,86.6455
96.5638,86.6421
96.5582,86.5725
96.5158,86.5170
96.4501,86.4932
96.3820,86.5086
96.3393,86.5480
96.2793,86.6378
96.2793,86.6378
96.1357,86.7815
96.1356,86.7815
95.7825,87.1347
95.7824,87.1347
95.6400,87.2771
95.6400,87.2771
95.4761,87.3866
95.4761,87.3866
95.3474,87.4400
95.2940,87.4620
95.2940,87.4621
95.2045,87.4799
95.1786,87.4850
95.1007,87.5005
95.1007,87.5005
87.9037,87.5005
87.8345,87.4867
87.7999,87.4799
87.7104,87.4621
87.6570,87.4400
87.6570,87.4400
87.6569,87.4399
87.6568,87.4399
87.5874,87.4325
87.5249,87.4638
87.4893,87.5239
87.4881,87.5293
87.4413,87.7545
87.4413,87.7545
87.3473,88.0188
87.3473,88.0188
87.2183,88.2679
87.0565,88.4971
87.0565,88.4971
87.0565,88.4971
86.8650,88.7021
86.8650,88.7021
86.6474,88.8791
86.6474,88.8791
86.6474,88.8791
86.4078,89.0249
86.2176,89.1075
86.1505,89.1366
85.8804,89.2123
85.6360,89.2459
85.6025,89.2505
85.6025,89.2505
85.3219,89.2505
85.2920,89.2464
85.0440,89.2123
84.7739,89.1366
84.5166,89.0249
84.2770,88.8791
84.0594,88.7021
83.8679,88.4971
83.7061,88.2679
83.5771,88.0188
83.4831,87.7545
83.4831,87.7545
83.4831,87.7545
83.4261,87.4799
83.4233,87.4400
83.4069,87.2000
82.5975,87.2000
82.5783,87.4799
82.5213,87.7545
82.5213,87.7545
82.4273,88.0188
82.4273,88.0188
82.2983,88.2679
82.1365,88.4971
82.1365,88.4971
82.1365,88.4971
81.9450,88.7021
81.9450,88.7021
81.7274,88.8791
81.7274,88.8791
81.7274,88.8791
81.4878,89.0249
81.2976,89.1075
81.2305,89.1366
80.9604,89.2123
80.7160,89.2459
80.6825,89.2505
80.6825,89.2505
80.4019,89.2505
80.3720,89.2464
80.1240,89.2123
79.8539,89.1366
79.5966,89.0249
79.3570,88.8791
79.1394,88.7021
78.9479,88.4971
78.7861,88.2679
78.6571,88.0188
78.5631,87.7545
78.5631,87.7545
78.5631,87.7545
78.5061,87.4799
78.5033,87.4400
78.4869,87.2000
69.5175,87.2000
69.4983,87.4799
69.4413,87.7545
69.4413,87.7545
69.3473,88.0188
69.3473,88.0188
69.2183,88.2679
69.0565,88.4971
69.0565,88.4971
69.0565,88.4971
68.8650,88.7021
68.8650,88.7021
68.6474,88.8791
68.6474,88.8791
68.6474,88.8791
68.4078,89.0249
68.2176,89.1075
68.1505,89.1366
67.8804,89.2123
67.6360,89.2459
67.6025,89.2505
67.6025,89.2505
67.3219,89.2505
67.2920,89.2464
67.0440,89.2123
66.7739,89.1366
66.5166,89.0249
66.2770,88.8791
66.0594,88.7021
65.8679,88.4971
65.7061,88.2679
65.5771,88.0188
65.4831,87.7545
65.4831,87.7545
65.4831,87.7545
65.4261,87.4799
65.4233,87.4400
65.4069,87.2000
65.4261,86.9201
65.4558,86.7771
65.4831,86.6455
65.4831,86.6455
65.5199,86.5419
65.5771,86.3812
65.7061,86.1321
65.8679,85.9029
65.8679,85.9029
66.0594,85.6979
66.1270,85.6429
66.2770,85.5209
66.2770,85.5209
66.2770,85.5209
66.5166,85.3751
66.7739,85.2634
67.0440,85.1877
67.0440,85.1877
67.0440,85.1877
67.1830,85.1686
67.3219,85.1495
67.3219,85.1495
67.6025,85.1495
67.6025,85.1495
67.8804,85.1877
67.8804,85.1877
68.1505,85.2634
68.4078,85.3751
68.6474,85.5209
68.8650,85.6979
69.0565,85.9029
69.0565,85.9029
69.2183,86.1321
69.3473,86.3812
69.4413,86.6455
69.4413,86.6455
69.4983,86.9201
69.4983,86.9201
69.5175,87.2000
78.4869,87.2000
78.5061,86.9201
78.5358,86.7771
78.5631,86.6455
78.5631,86.6455
78.5999,86.5419
78.6571,86.3812
78.7861,86.1321
78.9479,85.9029
78.9479,85.9029
79.1394,85.6979
79.2070,85.6429
79.3570,85.5209
79.3570,85.5209
79.3570,85.5209
79.5966,85.3751
79.8539,85.2634
80.1240,85.1877
80.1240,85.1877
80.1240,85.1877
80.2630,85.1686
80.4019,85.1495
80.4019,85.1495
80.6825,85.1495
80.6825,85.1495
80.9604,85.1877
80.9604,85.1877
81.2305,85.2634
81.4878,85.3751
81.7274,85.5209
81.9450,85.6979
82.1365,85.9029
82.1365,85.9029
82.2983,86.1321
82.4273,86.3812
82.5213,86.6455
82.5213,86.6455
82.5783,86.9201
82.5783,86.9201
82.5975,87.2000
83.4069,87.2000
83.4261,86.9201
83.4558,86.7771
83.4831,86.6455
83.4831,86.6455
83.5199,86.5419
83.5771,86.3812
83.7061,86.1321
83.8679,85.9029
83.8679,85.9029
84.0594,85.6979
84.1270,85.6429
84.2770,85.5209
84.2770,85.5209
84.2770,85.5209
84.5166,85.3751
84.7739,85.2634
84.7739,85.2634
84.8821,85.2331
85.0203,85.1943
85.0796,85.1573
85.1094,85.0941
85.1003,85.0248
85.0745,84.9873
82.1241,82.0368
82.0628,82.0033
82.0364,82.0005
81.4680,82.0005
81.4009,82.0202
81.3803,82.0368
78.8950,84.5221
78.8615,84.5834
78.8591,84.5996
78.8487,84.7247
78.7934,84.9433
78.7028,85.1497
78.5795,85.3385
78.5795,85.3385
78.4268,85.5044
78.4268,85.5044
78.2489,85.6429
78.2489,85.6429
78.2489,85.6429
78.0506,85.7502
78.0506,85.7502
77.8373,85.8234
77.8373,85.8234
77.8373,85.8234
77.6149,85.8605
77.6149,85.8605
77.3895,85.8605
77.3895,85.8605
77.1671,85.8234
76.9538,85.7502
76.7555,85.6429
76.7550,85.6424
76.5988,85.5209
76.5776,85.5044
76.4249,85.3385
76.3560,85.2331
76.3029,85.1877
76.2336,85.1783
76.1703,85.2078
76.1484,85.2331
76.0795,85.3385
76.0795,85.3385
75.9268,85.5044
75.9268,85.5044
75.7489,85.6429
75.7489,85.6429
75.7489,85.6429
75.5506,85.7502
75.5506,85.7502
75.3373,85.8234
75.3373,85.8234
75.3373,85.8234
75.1149,85.8605
75.1149,85.8605
74.8895,85.8605
74.8895,85.8605
74.6671,85.8234
74.4538,85.7502
74.2555,85.6429
74.0784,85.5050
74.0134,85.4793
73.9448,85.4929
73.9260,85.5050
73.8090,85.5961
73.7494,85.6424
73.7489,85.6429
73.5506,85.7502
73.5506,85.7502
73.3373,85.8234
73.3373,85.8234
73.3373,85.8234
73.1149,85.8605
73.1149,85.8605
72.8895,85.8605
72.8895,85.8605
72.6671,85.8234
72.4538,85.7502
72.2555,85.6429
72.2550,85.6424
72.0988,85.5209
72.0776,85.5044
71.9249,85.3385
71.8557,85.2326
71.8026,85.1872
71.7333,85.1778
71.6700,85.2073
71.6481,85.2326
71.6245,85.2687
70.9525,84.5967
70.9309,84.6776
70.8703,84.7824
70.7846,84.8681
70.6798,84.9287
70.5990,84.9503
71.2725,85.6238
71.2725,85.6238
71.2486,85.6424
71.0504,85.7497
71.0504,85.7497
70.8372,85.8229
70.6149,85.8600
70.3895,85.8600
70.1672,85.8229
69.9540,85.7497
69.9540,85.7497
69.7558,85.6424
69.7319,85.6238
69.7319,85.6238
70.4055,84.9503
70.3246,84.9287
70.2198,84.8681
70.1341,84.7824
70.0735,84.6776
70.0519,84.5967
69.3799,85.2687
69.3020,85.1495
69.3020,85.1495
69.2115,84.9431
69.1952,84.8787
63.8527,84.8787
63.8527,85.1213
63.8210,85.3618
63.7583,85.5961
63.6946,85.7497
63.6654,85.8202
63.5441,86.0303
63.5441,86.0303
63.5441,86.0303
63.3965,86.2227
63.3965,86.2227
63.2249,86.3943
63.2249,86.3943
63.0325,86.5419
62.8224,86.6632
62.5983,86.7561
62.3640,86.8188
62.1836,86.8426
62.1235,86.8505
62.1235,86.8505
61.8809,86.8505
61.8328,86.8442
61.6404,86.8188
61.4061,86.7561
61.1820,86.6632
60.9719,86.5419
60.7795,86.3943
60.6079,86.2227
60.4603,86.0303
60.3390,85.8202
60.2461,85.5961
60.1834,85.3618
60.1517,85.1213
60.1517,84.8787
60.1834,84.6382
60.2461,84.4039
60.3390,84.1798
60.4603,83.9697
60.5212,83.8903
60.6079,83.7773
60.6079,83.7773
60.7795,83.6057
60.7795,83.6057
60.9719,83.4581
60.9719,83.4581
60.9719,83.4581
61.1820,83.3368
61.1820,83.3368
61.4061,83.2439
61.6404,83.1812
61.8809,83.1495
61.8809,83.1495
62.1235,83.1495
62.1235,83.1495
62.3640,83.1812
62.5983,83.2439
62.8224,83.3368
62.8224,83.3368
63.0325,83.4581
63.2249,83.6057
63.2249,83.6057
63.3965,83.7773
63.3965,83.7773
63.5441,83.9697
63.6654,84.1798
63.6654,84.1798
63.7583,84.4039
63.8210,84.6382
63.8527,84.8787
69.1952,84.8787
69.1562,84.7246
69.1375,84.5000
69.1375,84.5000
69.1562,84.2754
69.2115,84.0569
69.3020,83.8505
69.3799,83.7313
70.0519,84.4032
70.0735,84.3224
70.1341,84.2176
70.2198,84.1319
70.3246,84.0713
70.4055,84.0497
69.7319,83.3762
69.7319,83.3761
69.7558,83.3576
69.9540,83.2503
69.9540,83.2503
70.1672,83.1771
70.3895,83.1400
70.6149,83.1400
70.8372,83.1771
71.0504,83.2503
71.0504,83.2503
71.2486,83.3576
71.2725,83.3761
71.2725,83.3761
70.5989,84.0497
70.6798,84.0713
70.7846,84.1319
70.8703,84.2176
70.9309,84.3224
70.9525,84.4032
71.6245,83.7313
71.6481,83.7674
71.7012,83.8127
71.7705,83.8222
71.8338,83.7927
71.8557,83.7674
71.9249,83.6615
71.9249,83.6615
72.0776,83.4956
72.0776,83.4956
72.0776,83.4956
72.2555,83.3571
72.2555,83.3571
72.4538,83.2498
72.4538,83.2498
72.6671,83.1766
72.8339,83.1488
72.8895,83.1395
73.1149,83.1395
73.1594,83.1469
73.3373,83.1766
73.5506,83.2498
73.5506,83.2498
73.7489,83.3571
73.7489,83.3571
73.9260,83.4950
73.9910,83.5207
74.0596,83.5071
74.0784,83.4950
74.2555,83.3571
74.2555,83.3571
74.4538,83.2498
74.4538,83.2498
74.6671,83.1766
74.8339,83.1488
74.8895,83.1395
75.1149,83.1395
75.1594,83.1469
75.3373,83.1766
75.5506,83.2498
75.5506,83.2498
75.7489,83.3571
75.7489,83.3571
75.9268,83.4956
75.9268,83.4956
76.0795,83.6615
76.0795,83.6615
76.1484,83.7669
76.2015,83.8123
76.2708,83.8217
76.3341,83.7922
76.3560,83.7669
76.4249,83.6615
76.4249,83.6615
76.5776,83.4956
76.5776,83.4956
76.5776,83.4956
76.7555,83.3571
76.7555,83.3571
76.9538,83.2498
76.9538,83.2498
77.1671,83.1766
77.3339,83.1488
77.3895,83.1395
77.3895,83.1395
77.3964,83.1395
77.4635,83.1198
77.4841,83.1032
79.9654,80.6219
79.9989,80.5606
80.0017,80.5342
80.0017,77.5000
62.2078,77.5000
62.2078,77.5000
62.1873,77.7215
62.1873,77.7215
62.1264,77.9355
62.1264,77.9355
62.0273,78.1347
62.0273,78.1347
61.8932,78.3122
61.7288,78.4621
61.7288,78.4621
61.5396,78.5792
61.5396,78.5792
61.5396,78.5792
61.3321,78.6596
61.1134,78.7005
61.1134,78.7005
60.8910,78.7005
60.8910,78.7005
60.6723,78.6596
60.4648,78.5792
60.2756,78.4621
60.1112,78.3122
59.9771,78.1347
59.8780,77.9355
59.8171,77.7215
59.7966,77.5000
59.7989,77.4746
59.8171,77.2785
59.8171,77.2785
59.8178,77.2759
59.8780,77.0645
59.9019,77.0163
59.9771,76.8653
59.9771,76.8653
60.1112,76.6878
60.2756,76.5379
60.2756,76.5379
60.4648,76.4208
60.4648,76.4208
60.6723,76.3404
60.8910,76.2995
61.1134,76.2995
61.3321,76.3404
61.4633,76.3912
61.5396,76.4208
61.5396,76.4208
61.7288,76.5379
61.7288,76.5379
61.8932,76.6878
62.0273,76.8653
62.0273,76.8653
62.1264,77.0645
62.1264,77.0645
62.1873,77.2785
62.1873,77.2785
62.2078,77.5000
80.0017,77.5000
80.0017,75.5000
75.3072,75.5000
75.3072,75.5000
75.2873,75.7266
75.2873,75.7266
75.2285,75.9463
75.2285,75.9463
75.1323,76.1525
75.0812,76.2255
74.4022,75.5464
74.4022,75.5527
74.3749,75.6544
74.3223,75.7456
74.2478,75.8201
74.1566,75.8727
74.0549,75.9000
74.0486,75.9000
74.7277,76.5790
74.6547,76.6301
74.6547,76.6301
74.4485,76.7263
74.4485,76.7263
74.2288,76.7851
74.2288,76.7851
74.0022,76.8050
74.0022,76.8050
73.7756,76.7851
73.7756,76.7851
73.5559,76.7263
73.5559,76.7263
73.3497,76.6301
73.2767,76.5790
73.9558,75.9000
73.9495,75.9000
73.8478,75.8727
73.7566,75.8201
73.6821,75.7456
73.6295,75.6544
73.6022,75.5527
73.6022,75.5464
72.9232,76.2255
72.8721,76.1525
72.7759,75.9463
72.7759,75.9463
72.7171,75.7266
72.7171,75.7266
72.6972,75.5000
72.6972,75.5000
72.7171,75.2734
72.7171,75.2734
72.7759,75.0537
72.7759,75.0537
72.8721,74.8475
72.8721,74.8475
72.9232,74.7745
73.6022,75.4536
73.6022,75.4473
73.6295,75.3456
73.6821,75.2544
73.7566,75.1799
73.8478,75.1273
73.9495,75.1000
73.9558,75.1000
73.2767,74.4210
73.3497,74.3699
73.5559,74.2737
73.5559,74.2737
73.7756,74.2149
73.7756,74.2149
74.0022,74.1950
74.0022,74.1950
74.2288,74.2149
74.2288,74.2149
74.4485,74.2737
74.4485,74.2737
74.6547,74.3699
74.6547,74.3699
74.7277,74.4210
74.7277,74.4210
74.0486,75.1000
74.0549,75.1000
74.1566,75.1273
74.2478,75.1799
74.3223,75.2544
74.3749,75.3456
74.4022,75.4473
74.4022,75.4536
75.0812,74.7745
75.0812,74.7745
75.1323,74.8475
75.1323,74.8475
75.2285,75.0537
75.2285,75.0537
75.2873,75.2734
75.2873,75.2734
75.3072,75.5000
80.0017,75.5000
80.0017,74.6115
80.0401,74.4182
80.0401,74.4182
80.0401,74.4182
80.0538,74.3853
80.1156,74.2361
80.1156,74.2361
80.2251,74.0722
80.2251,74.0722
80.3675,73.9298
80.3675,73.9297
81.7171,72.5802
81.7506,72.5188
81.7530,72.5033
81.7541,72.4899
81.7541,72.4899
81.8113,72.2766
81.9047,72.0763
82.0314,71.8954
82.1876,71.7392
82.1876,71.7392
82.1876,71.7392
82.3685,71.6125
82.3685,71.6125
82.4188,71.5890
82.5687,71.5191
82.5688,71.5191
82.5688,71.5191
82.7821,71.4619
82.7821,71.4619
83.0022,71.4427
83.0022,71.4427
83.2223,71.4619
83.2223,71.4619
83.4356,71.5191
83.4357,71.5191
83.6359,71.6125
83.6359,71.6125
83.8168,71.7392
83.9730,71.8954
84.0997,72.0763
84.0997,72.0763
84.1931,72.2765
84.1931,72.2766
84.2503,72.4899
84.2503,72.4899
84.2695,72.7100
84.2695,72.7100
84.2503,72.9301
84.2503,72.9301
84.1931,73.1434
84.1931,73.1434
84.1931,73.1435
84.1391,73.2592
84.0997,73.3437
84.0997,73.3437
83.9730,73.5246
83.9730,73.5246
83.8168,73.6808
83.8168,73.6808
83.6359,73.8075
83.6359,73.8075
83.6359,73.8075
83.5283,73.8577
83.5064,73.8679
83.4540,73.9141
83.4348,73.9813
83.4550,74.0481
83.5064,74.0927
83.6356,74.1529
83.7004,74.1983
83.0296,74.8690
83.0524,74.8690
83.1493,74.8950
83.2361,74.9451
83.3071,75.0161
83.3572,75.1029
83.3832,75.1998
83.3832,75.2226
84.0539,74.5518
84.0993,74.6166
84.1926,74.8167
84.1926,74.8167
84.2498,75.0300
84.2498,75.0300
84.2690,75.2500
84.2690,75.2500
84.2498,75.4700
84.2498,75.4700
84.1926,75.6833
84.1926,75.6833
84.0993,75.8834
84.0993,75.8834
84.0539,75.9482
84.0539,75.9482
83.3832,75.2774
83.3832,75.3002
83.3572,75.3971
83.3071,75.4839
83.2361,75.5549
83.1493,75.6050
83.0524,75.6310
83.0296,75.6310
83.7004,76.3017
83.6356,76.3471
83.5064,76.4073
83.4540,76.4535
83.4348,76.5207
83.4550,76.5876
83.5064,76.6321
83.6359,76.6925
83.6359,76.6925
83.8168,76.8192
83.9730,76.9754
84.0997,77.1563
84.0997,77.1563
84.1931,77.3565
84.1931,77.3566
84.2503,77.5699
84.2503,77.5699
84.2695,77.7900
84.2695,77.7900
84.2503,78.0101
84.2503,78.0101
84.1931,78.2234
84.1931,78.2234
84.1931,78.2234
84.0997,78.4237
84.0997,78.4237
83.9730,78.6046
83.9730,78.6046
83.8168,78.7608
83.8168,78.7608
83.6359,78.8875
83.6359,78.8875
83.6359,78.8875
83.4356,78.9809
83.2223,79.0381
83.0651,79.0518
83.0022,79.0573
83.0022,79.0573
83.0022,79.0573
82.9472,79.0525
82.7821,79.0381
82.5687,78.9809
82.3685,78.8875
82.1978,78.7680
82.1316,78.7457
82.0639,78.7627
82.0160,78.8136
82.0027,78.8696
82.0027,79.8755
82.0224,79.9425
82.0752,79.9883
82.1267,79.9995
82.3975,79.9995
82.3975,79.9995
82.4037,79.9995
82.6007,79.9995
82.6007,79.9995
82.7940,80.0379
82.7940,80.0379
82.9761,80.1134
82.9761,80.1134
83.1400,80.2229
83.1400,80.2229
87.0107,84.0936
87.0721,84.1271
87.1418,84.1221
87.1977,84.0803
87.2120,84.0558
87.3020,83.8505
87.3799,83.7313
88.0519,84.4032
88.0735,84.3224
88.1341,84.2176
88.2198,84.1319
88.3246,84.0713
88.4055,84.0497
87.7319,83.3762
87.7319,83.3761
87.7558,83.3576
87.9540,83.2503
87.9540,83.2503
88.1672,83.1771
88.3895,83.1400
88.6149,83.1400
88.8372,83.1771
89.0504,83.2503
89.0504,83.2503
89.2486,83.3576
89.2725,83.3761
89.2725,83.3761
88.5989,84.0497
88.6798,84.0713
88.7846,84.1319
88.8703,84.2176
88.9309,84.3224
88.9525,84.4033
89.6245,83.7313
89.6481,83.7674
89.7012,83.8127
89.7705,83.8222
89.8338,83.7927
89.8557,83.7674
89.9249,83.6615
89.9249,83.6615
90.0776,83.4956
90.0776,83.4956
90.0776,83.4956
90.2555,83.3571
90.2555,83.3571
90.4538,83.2498
90.4538,83.2498
90.6671,83.1766
90.8339,83.1488
90.8895,83.1395
91.1149,83.1395
91.1594,83.1469
91.3373,83.1766
91.5506,83.2498
91.5506,83.2498
91.7489,83.3571
91.7489,83.3571
91.9260,83.4950
91.9910,83.5207
92.0596,83.5071
92.0784,83.4950
92.2555,83.3571
92.2555,83.3571
92.4538,83.2498
92.4538,83.2498
92.6671,83.1766
92.8339,83.1488
92.8895,83.1395
93.1149,83.1395
93.1594,83.1469
93.3373,83.1766
93.5506,83.2498
93.5506,83.2498
93.7489,83.3571
93.7489,83.3571
93.9268,83.4956
93.9268,83.4956
94.0795,83.6615
94.0795,83.6615
94.1484,83.7669
94.2015,83.8123
94.2708,83.8217
94.3341,83.7922
94.3560,83.7669
94.4249,83.6615
94.4249,83.6615
94.5776,83.4956
94.5776,83.4956
94.5776,83.4956
94.7555,83.3571
94.7555,83.3571
94.9538,83.2498
94.9538,83.2498
95.1671,83.1766
95.3339,83.1488
95.3895,83.1395
95.6149,83.1395
95.6594,83.1469
95.8373,83.1766
96.0506,83.2498
96.0506,83.2498
96.2489,83.3571
96.2489,83.3571
96.4268,83.4956
96.4268,83.4956
96.5795,83.6615
96.5795,83.6615
96.7028,83.8503
96.7934,84.0567
96.8487,84.2753
96.8674,84.5000
96.8674,84.5000
96.8487,84.7247
96.7934,84.9433
96.7028,85.1497
96.6286,85.2634
96.5795,85.3385
96.5355,85.3863
96.5045,85.4490
96.5027,85.4703
96.5027,86.0985
96.4859,86.1831
96.4921,86.2527
96.5350,86.3079
96.6009,86.3311
96.6689,86.3151
96.7174,86.2648
96.7176,86.2644
96.7392,86.2227
96.7861,86.1321
96.9479,85.9029
96.9479,85.9029
97.1394,85.6979
97.2070,85.6429
97.3570,85.5209
97.3570,85.5209
97.3570,85.5209
97.5966,85.3751
97.8539,85.2634
98.1240,85.1877
98.1240,85.1877
98.1240,85.1877
98.2630,85.1686
98.4019,85.1495
98.4019,85.1495
98.6825,85.1495
98.6825,85.1495
98.9604,85.1877
98.9604,85.1877
99.2305,85.2634
99.4878,85.3751
99.7274,85.5209
99.9450,85.6979
100.1365,85.9029
100.1365,85.9029
100.2983,86.1321
100.4273,86.3812
100.5213,86.6455
100.5213,86.6455
100.5783,86.9201
100.5783,86.9201
100.5975,87.2000
101.7017,87.2000
101.7017,86.9521
101.7081,86.8925
101.7584,86.7577
101.7584,86.7577
101.7584,86.7577
101.8447,86.6425
101.8447,86.6425
101.9599,86.5562
101.9599,86.5562
102.0947,86.5059
102.0947,86.5059
102.1543,86.4995
102.1543,86.4995
102.1543,86.4995
102.1543,86.4995
103.1501,86.4995
103.1501,86.4995
103.2097,86.5059
103.3445,86.5562
103.3445,86.5562
103.4597,86.6425
103.4597,86.6425
103.5460,86.7577
103.5460,86.7577
103.5963,86.8925
103.5993,86.9201
103.6027,86.9521
103.6027,86.9521
103.6027,89.0479
103.6027,89.0479
103.5963,89.1075
103.5460,89.2423
103.5460,89.2423
103.5019,89.3012
103.4775,89.3667
103.4924,89.4349
103.5418,89.4843
103.6012,89.4995
115.2032,89.4995
115.2702,89.4798
115.3160,89.4270
115.3259,89.3579
115.3025,89.3012
115.2584,89.2423
115.2081,89.1075
115.2017,89.0479
115.2017,86.9521
115.2081,86.8925
115.2584,86.7577
115.2584,86.7577
115.2584,86.7577
115.3447,86.6425
115.3447,86.6425
115.4599,86.5562
115.4599,86.5562
115.5947,86.5059
115.5947,86.5059
115.6543,86.4995
115.6543,86.4995
115.6543,86.4995
115.6543,86.4995
116.6501,86.4995
116.6501,86.4995
116.7097,86.5059
116.8445,86.5562
116.8445,86.5562
116.9597,86.6425
116.9597,86.6425
117.0460,86.7577
117.0460,86.7577
117.0963,86.8925
117.0993,86.9201
117.1027,86.9521
117.1027,86.9521
117.1027,89.0479
117.1027,89.0479
117.0963,89.1075
117.0460,89.2423
117.0460,89.2423
117.0019,89.3012
116.9775,89.3667
116.9924,89.4349
117.0418,89.4843
117.1012,89.4995
126.3777,89.4995
126.4447,89.4798
126.4905,89.4270
126.5017,89.3755
126.5017,84.8787
123.8527,84.8787
123.8527,85.1213
123.8210,85.3618
123.7583,85.5961
123.6946,85.7497
123.6654,85.8202
123.5441,86.0303
123.5441,86.0303
123.5441,86.0303
123.3965,86.2227
123.3965,86.2227
123.2249,86.3943
123.2249,86.3943
123.0325,86.5419
122.8224,86.6632
122.5983,86.7561
122.3640,86.8188
122.1836,86.8426
122.1235,86.8505
122.1235,86.8505
121.8809,86.8505
121.8328,86.8442
121.6404,86.8188
121.4061,86.7561
121.1820,86.6632
120.9719,86.5419
120.7795,86.3943
120.6079,86.2227
120.4603,86.0303
120.3390,85.8202
120.2461,85.5961
120.1834,85.3618
120.1517,85.1213
120.1517,84.8787
120.1834,84.6382
120.2461,84.4039
120.3390,84.1798
120.4603,83.9697
120.5212,83.8903
120.6079,83.7773
120.6079,83.7773
120.7795,83.6057
120.7795,83.6057
120.9719,83.4581
120.9719,83.4581
120.9719,83.4581
121.1820,83.3368
121.1820,83.3368
121.4061,83.2439
121.6404,83.1812
121.8809,83.1495
121.8809,83.1495
122.1235,83.1495
122.1235,83.1495
122.3640,83.1812
122.5983,83.2439
122.8224,83.3368
122.8224,83.3368
123.0325,83.4581
123.2249,83.6057
123.2249,83.6057
123.3965,83.7773
123.3965,83.7773
123.5441,83.9697
123.6654,84.1798
123.6654,84.1798
123.7583,84.4039
123.8210,84.6382
123.8527,84.8787
126.5017,84.8787
126.5017,80.9047
115.5522,80.9047
115.5522,81.7500
114.3294,81.7500
114.3522,81.8938
114.3522,82.1062
114.3294,82.2500
115.5522,82.2500
115.5522,83.0953
115.5420,83.2400
115.5420,83.2400
115.4879,83.4802
115.4879,83.4802
115.3960,83.7086
115.2686,83.9193
115.2686,83.9193
115.1090,84.1068
114.9215,84.2664
114.9215,84.2664
114.7108,84.3938
114.4824,84.4857
114.4824,84.4857
114.2422,84.5398
114.2422,84.5398
114.0975,84.5500
114.0975,84.5500
113.2522,84.5500
113.2522,83.3272
113.1084,83.3500
112.8960,83.3500
112.7522,83.3272
112.7522,84.5500
111.9069,84.5500
111.9069,84.5500
111.7622,84.5398
111.7622,84.5398
111.5220,84.4857
111.5220,84.4857
111.2936,84.3938
111.0829,84.2664
111.0829,84.2664
110.8954,84.1068
110.7358,83.9193
110.7358,83.9193
110.6084,83.7086
110.5165,83.4802
110.5165,83.4802
110.4624,83.2400
110.4624,83.2400
110.4522,83.0953
110.4522,83.0953
110.4522,82.2500
111.6750,82.2500
111.6522,82.1062
111.6522,81.8938
111.6621,81.8315
108.8027,81.8315
108.8027,82.1685
108.7650,82.5034
108.7650,82.5034
108.6900,82.8320
108.6900,82.8320
108.5787,83.1501
108.4324,83.4537
108.3770,83.5420
108.2531,83.7390
108.1645,83.8503
108.0692,83.9697
108.0430,84.0025
107.8047,84.2408
107.5412,84.4509
107.2559,84.6302
106.9523,84.7765
106.7320,84.8536
106.6342,84.8878
106.6342,84.8878
106.3056,84.9628
105.9707,85.0005
105.9707,85.0005
105.9707,85.0005
105.6337,85.0005
105.6337,85.0005
105.2988,84.9628
104.9702,84.8878
104.6521,84.7765
104.3485,84.6302
104.0632,84.4509
103.7997,84.2408
101.8614,82.3025
101.7545,82.1685
101.6513,82.0390
101.4720,81.7537
101.4246,81.6555
101.3778,81.6036
101.3104,81.5853
101.2990,81.5860
101.1707,81.6005
101.1707,81.6005
101.1707,81.6005
96.8337,81.6005
96.8337,81.6005
96.4988,81.5628
96.1702,81.4878
95.8521,81.3765
95.5485,81.2302
95.2632,81.0509
94.9997,80.8408
94.7614,80.6025
94.5513,80.3390
94.3720,80.0537
94.2257,79.7501
94.1939,79.6590
94.1532,79.6023
94.0930,79.5771
94.0111,79.5663
93.7578,79.4984
93.5155,79.3980
93.2884,79.2669
93.2122,79.2084
93.1360,79.1499
93.1360,79.1499
93.1059,79.1269
93.0804,79.1073
93.0803,79.1073
89.4949,75.5219
89.4949,75.5219
89.3731,75.3631
89.3353,75.3138
89.2042,75.0867
89.1038,74.8444
89.0904,74.7944
89.0359,74.5911
89.0088,74.3853
89.0017,74.3311
89.0017,70.2500
88.1211,70.2500
88.1211,70.2500
87.1579,70.2500
87.1623,70.2544
87.2149,70.3456
87.2422,70.4473
87.2422,70.5527
87.2149,70.6544
87.1623,70.7456
87.1579,70.7500
88.1211,70.7500
88.0685,70.9463
88.0685,70.9463
87.9723,71.1525
87.8419,71.3388
87.6810,71.4997
87.4947,71.6301
87.2885,71.7263
87.2885,71.7263
87.0922,71.7789
87.0922,71.7789
87.0922,70.8157
87.0878,70.8201
86.9966,70.8727
86.8949,70.9000
86.7895,70.9000
86.6878,70.8727
86.5966,70.8201
86.5922,70.8157
86.5922,71.7789
86.3959,71.7263
86.3959,71.7263
86.1897,71.6301
86.0034,71.4997
85.8425,71.3388
85.7121,71.1525
85.6159,70.9463
85.6159,70.9463
85.5633,70.7500
86.5265,70.7500
86.5221,70.7456
86.4695,70.6544
86.4422,70.5527
86.4422,70.4473
86.4695,70.3456
86.5221,70.2544
86.5265,70.2500
85.5633,70.2500
85.5633,70.2500
85.6159,70.0537
85.6159,70.0537
85.7121,69.8475
85.8425,69.6612
86.0034,69.5003
86.1897,69.3699
86.3959,69.2737
86.5922,69.2211
86.5922,70.1843
86.5966,70.1799
86.6878,70.1273
86.7895,70.1000
86.8949,70.1000
86.9966,70.1273
87.0878,70.1799
87.0922,70.1843
87.0922,69.2211
87.2885,69.2737
87.4947,69.3699
87.6810,69.5003
87.8419,69.6612
87.9723,69.8475
88.0685,70.0537
88.0685,70.0537
88.1211,70.2500
89.0017,70.2500
89.0017,69.8689
89.0045,69.8473
89.0250,69.6920
89.0250,69.6920
89.0291,69.6606
89.0359,69.6089
89.1038,69.3556
89.2042,69.1133
89.3353,68.8862
89.4046,68.7959
89.4949,68.6781
89.4949,68.6781
89.4949,68.6781
90.8654,67.3077
90.8989,67.2464
90.9017,67.2200
90.9017,62.8245
90.8820,62.7574
90.8654,62.7368
90.7503,62.6217
90.6890,62.5882
90.6193,62.5932
90.5634,62.6351
90.5556,62.6481
90.5550,62.6478
90.5523,62.6525
90.4219,62.8388
90.2610,62.9997
90.0747,63.1301
89.8685,63.2263
89.8685,63.2263
89.6722,63.2789
89.6722,63.2789
89.6722,62.3157
89.6678,62.3201
89.5766,62.3727
89.4749,62.4000
89.3695,62.4000
89.2678,62.3727
89.1766,62.3201
89.1722,62.3157
89.1722,63.2789
88.9759,63.2263
88.9759,63.2263
88.7697,63.1301
88.5834,62.9997
88.4225,62.8388
88.2921,62.6525
88.1959,62.4463
88.1959,62.4463
88.1433,62.2500
89.1065,62.2500
89.1021,62.2456
89.0495,62.1544
89.0222,62.0527
89.0222,61.9473
89.0495,61.8456
89.1021,61.7544
89.1065,61.7500
88.1433,61.7500
88.1433,61.7500
88.1959,61.5537
88.1959,61.5537
88.2921,61.3475
88.4225,61.1612
88.5834,61.0003
88.7697,60.8699
88.7744,60.8672
88.7732,60.8650
88.8177,60.8257
88.8368,60.7585
88.8165,60.6916
88.8005,60.6719
88.4949,60.3663
88.4949,60.3663
88.4896,60.3610
88.4895,60.3609
88.1654,60.0368
88.1041,60.0033
88.0777,60.0005
77.4073,60.0005
77.3403,60.0202
77.3196,60.0368
77.0390,60.3174
77.0055,60.3788
77.0027,60.4051
77.0027,66.0956
76.9977,66.1337
76.9977,66.1337
76.9685,66.3556
76.9477,66.4331
76.9006,66.6089
76.8002,66.8512
76.8002,66.8512
76.6927,67.0375
76.6691,67.0783
76.5998,67.1686
76.5095,67.2863
76.5095,67.2863
74.6243,69.1715
74.5908,69.2328
74.5958,69.3025
74.6376,69.3585
74.6505,69.3662
74.6502,69.3667
74.6549,69.3694
74.8413,69.5000
75.0022,69.6609
75.1328,69.8473
75.1328,69.8473
75.2289,70.0535
75.2289,70.0535
75.2878,70.2733
75.2878,70.2733
75.3077,70.5000
75.3077,70.5000
75.2878,70.7267
75.2878,70.7267
75.2289,70.9465
75.2289,70.9465
75.1328,71.1527
75.1328,71.1527
75.0022,71.3391
74.8413,71.5000
74.8413,71.5000
74.6549,71.6306
74.4487,71.7267
74.2289,71.7856
74.0670,71.7998
74.0022,71.8055
74.0022,71.8055
74.0022,71.8055
73.9455,71.8005
73.7755,71.7856
73.5557,71.7267
73.3495,71.6306
73.1631,71.5000
73.0022,71.3391
72.8716,71.1527
72.8716,71.1527
72.8689,71.1480
72.8666,71.1494
72.8280,71.1052
72.7609,71.0858
72.6939,71.1057
72.6737,71.1221
67.7885,76.0073
67.7885,76.0073
67.6745,76.0948
67.6745,76.0948
67.5805,76.1669
67.5805,76.1669
67.3985,76.2720
67.3787,76.2862
67.3752,76.2893
67.3752,76.2893
67.3751,76.2893
67.1299,76.4532
67.1299,76.4532
66.9976,76.5184
66.8653,76.5837
66.5859,76.6785
66.2966,76.7360
66.2683,76.7379
66.0022,76.7553
66.0022,76.7553
66.0022,76.7553
65.7665,76.7399
65.7078,76.7360
65.4185,76.6785
65.1391,76.5837
64.8745,76.4532
64.6292,76.2893
64.4074,76.0948
64.2129,75.8730
64.0490,75.6277
63.9185,75.3631
63.8237,75.0837
63.7662,74.7944
63.7545,74.6166
63.7469,74.5000
63.7469,74.5000
63.7656,74.2149
63.7662,74.2056
63.8237,73.9163
63.9185,73.6369
64.0490,73.3723
64.0682,73.3437
64.1768,73.1811
64.2129,73.1270
64.2880,73.0414
64.4074,72.9052
64.6292,72.7107
64.8745,72.5468
64.8745,72.5468
65.1391,72.4163
65.4185,72.3215
65.4185,72.3215
65.4185,72.3215
65.7078,72.2640
65.7078,72.2640
65.7078,72.2640
65.8386,72.2554
65.9042,72.2314
65.9182,72.2193
66.2322,71.9053
66.2657,71.8440
66.2607,71.7743
66.2522,71.7611
66.2522,70.4189
66.0958,70.4500
65.9086,70.4500
65.7522,70.4189
65.7522,71.7500
64.9570,71.7500
64.9570,71.7500
64.8227,71.7394
64.6010,71.6836
64.3929,71.5890
64.3929,71.5890
64.2050,71.4588
64.0434,71.2972
63.9132,71.1093
63.9132,71.1093
63.8186,70.9012
63.7628,70.6795
63.7522,70.5452
63.7522,70.5452
63.7522,69.7500
65.0833,69.7500
65.0522,69.5936
65.0522,69.4064
65.0833,69.2500
63.7522,69.2500
63.7522,68.4548
63.7522,68.4548
63.7628,68.3205
63.8186,68.0988
63.9132,67.8907
63.9132,67.8907
64.0434,67.7028
64.2050,67.5412
64.3929,67.4110
64.3929,67.4110
64.6010,67.3164
64.8227,67.2606
64.9570,67.2500
65.7522,67.2500
65.7522,68.5811
65.9086,68.5500
66.0958,68.5500
66.2522,68.5811
66.2522,67.2500
67.0474,67.2500
67.0474,67.2500
67.1817,67.2606
67.4034,67.3164
67.6115,67.4110
67.6115,67.4110
67.7994,67.5412
67.9610,67.7028
68.0912,67.8907
68.0912,67.8907
68.1858,68.0988
68.2416,68.3205
68.2522,68.4548
68.2522,69.2500
66.9211,69.2500
66.9522,69.4064
66.9522,69.5936
66.9211,69.7500
68.2688,69.7500
68.2935,69.7635
68.3632,69.7585
68.4075,69.7300
71.6375,66.5000
62.2078,66.5000
62.2078,66.5000
62.1873,66.7215
62.1873,66.7215
62.1264,66.9355
62.1264,66.9355
62.0273,67.1347
62.0273,67.1347
61.8932,67.3122
61.7288,67.4621
61.7288,67.4621
61.5396,67.5792
61.5396,67.5792
61.5396,67.5792
61.3321,67.6596
61.1134,67.7005
61.1134,67.7005
60.8910,67.7005
60.8910,67.7005
60.6723,67.6596
60.4648,67.5792
60.2756,67.4621
60.1112,67.3122
59.9771,67.1347
59.8780,66.9355
59.8171,66.7215
59.7966,66.5000
59.8171,66.2785
59.8780,66.0645
59.8780,66.0645
59.9771,65.8653
59.9771,65.8653
60.1112,65.6878
60.2756,65.5379
60.2756,65.5379
60.4648,65.4208
60.4648,65.4208
60.6723,65.3404
60.8910,65.2995
61.1134,65.2995
61.3321,65.3404
61.4633,65.3912
61.5396,65.4208
61.5396,65.4208
61.7288,65.5379
61.7288,65.5379
61.8932,65.6878
62.0273,65.8653
62.0273,65.8653
62.1264,66.0645
62.1264,66.0645
62.1873,66.2785
62.1873,66.2785
62.2078,66.5000
71.6375,66.5000
72.9654,65.1722
72.9989,65.1108
73.0017,65.0845
73.0017,55.0606
72.9889,55.0058
72.9434,54.9135
72.9185,54.8631
72.8237,54.5837
72.7662,54.2944
72.7469,54.0000
72.7469,54.0000
72.7662,53.7056
72.7662,53.7056
72.8237,53.4163
72.9185,53.1369
73.0490,52.8723
73.2129,52.6270
73.2555,52.5784
73.4074,52.4052
73.6292,52.2107
73.8745,52.0468
73.8745,52.0468
74.1391,51.9163
74.4185,51.8215
74.4185,51.8215
74.4185,51.8215
74.7078,51.7640
74.7078,51.7640
74.7078,51.7640
75.0022,51.7447
75.0022,51.7447
75.2966,51.7640
75.2966,51.7640
75.2966,51.7640
75.2966,51.7640
75.2966,51.7640
75.5859,51.8215
75.5859,51.8215
75.8653,51.9163
76.1299,52.0468
76.3752,52.2107
76.5970,52.4052
76.7915,52.6270
76.9554,52.8723
77.0859,53.1369
77.1807,53.4163
77.1807,53.4163
77.2382,53.7056
77.2382,53.7056
77.2575,54.0000
77.2575,54.0000
77.2382,54.2944
77.2382,54.2944
77.2382,54.2944
77.2013,54.4802
77.1807,54.5837
77.1807,54.5837
77.0859,54.8631
77.0155,55.0058
77.0027,55.0606
77.0027,55.5949
77.0224,55.6619
77.0390,55.6826
77.3196,55.9632
77.3810,55.9967
77.4073,55.9995
77.9472,55.9995
78.0142,55.9798
78.0600,55.9270
78.0699,55.8579
78.0453,55.8026
78.0465,55.8018
77.9132,55.6093
77.9132,55.6093
77.8186,55.4012
77.7628,55.1795
77.7522,55.0452
77.7522,55.0452
77.7522,54.2500
79.0833,54.2500
79.0522,54.0936
79.0522,53.9064
79.0833,53.7500
77.7522,53.7500
77.7522,52.9548
77.7522,52.9548
77.7628,52.8205
77.8186,52.5988
77.9132,52.3907
77.9132,52.3907
78.0434,52.2028
78.2050,52.0412
78.3929,51.9110
78.3929,51.9110
78.6010,51.8164
78.8227,51.7606
78.9570,51.7500
79.7522,51.7500
79.7522,53.0811
79.9086,53.0500
80.0958,53.0500
80.2522,53.0811
80.2522,51.7500
81.0474,51.7500
81.0474,51.7500
81.1817,51.7606
81.4034,51.8164
81.6115,51.9110
81.6115,51.9110
81.7994,52.0412
81.9610,52.2028
82.0912,52.3907
82.0912,52.3907
82.1858,52.5988
82.2416,52.8205
82.2522,52.9548
82.2522,53.7500
80.9211,53.7500
80.9522,53.9064
80.9522,54.0936
80.9211,54.2500
82.2522,54.2500
82.2522,55.0452
82.2416,55.1795
82.1858,55.4012
82.0912,55.6093
82.0912,55.6093
81.9579,55.8018
81.9591,55.8027
81.9342,55.8601
81.9454,55.9291
81.9921,55.9810
82.0572,55.9995
87.8777,55.9995
87.9447,55.9798
87.9905,55.9270
88.0017,55.8755
88.0017,55.0606
87.9889,55.0058
87.9434,54.9135
87.9185,54.8631
87.8237,54.5837
87.7662,54.2944
87.7469,54.0000
87.7469,54.0000
87.7662,53.7056
87.7662,53.7056
87.8237,53.4163
87.9185,53.1369
88.0490,52.8723
88.2129,52.6270
88.2555,52.5784
88.4074,52.4052
88.6292,52.2107
88.8745,52.0468
88.8745,52.0468
89.1391,51.9163
89.4185,51.8215
89.4185,51.8215
89.4185,51.8215
89.7078,51.7640
89.7078,51.7640
89.7078,51.7640
90.0022,51.7447
90.0022,51.7447
90.2966,51.7640
90.2966,51.7640
90.2966,51.7640
90.2966,51.7640
90.2966,51.7640
90.5859,51.8215
90.5859,51.8215
90.8653,51.9163
91.1299,52.0468
91.3752,52.2107
91.5970,52.4052
91.7915,52.6270
91.9554,52.8723
92.0859,53.1369
92.1807,53.4163
92.1807,53.4163
92.2382,53.7056
92.2382,53.7056
92.2575,54.0000
92.2575,54.0000
92.2382,54.2944
92.2382,54.2944
92.2382,54.2944
92.2013,54.4802
92.1807,54.5837
92.1807,54.5837
92.0859,54.8631
92.0155,55.0058
92.0027,55.0606
92.0027,58.1645
92.0224,58.2315
92.0390,58.2522
94.4095,60.6226
94.4095,60.6226
94.4776,60.7114
94.5691,60.8307
94.5691,60.8307
94.5760,60.8425
94.5760,60.8425
94.7002,61.0578
94.7002,61.0578
94.8006,61.3000
94.8685,61.5534
94.8856,61.6833
94.8856,61.6833
94.9027,61.8133
94.9027,68.2311
94.8893,68.3331
94.8893,68.3331
94.8685,68.4911
94.8184,68.6781
94.8006,68.7444
94.7002,68.9867
94.7002,68.9867
94.5691,69.2138
94.5235,69.2733
94.5235,69.2733
94.4095,69.4218
94.4095,69.4219
93.0390,70.7923
93.0055,70.8536
93.0027,70.8800
93.0027,73.3200
93.0224,73.3870
93.0390,73.4077
95.1945,75.5632
95.2558,75.5967
95.2822,75.5995
95.4777,75.5995
95.5447,75.5798
95.5905,75.5270
95.6017,75.4755
95.6017,74.0521
95.6017,74.0521
95.6017,74.0521
95.6081,73.9925
95.6123,73.9813
95.6584,73.8577
95.6584,73.8577
95.7447,73.7425
95.7447,73.7425
95.8599,73.6562
95.8599,73.6562
95.9947,73.6059
95.9947,73.6059
96.0543,73.5995
96.0543,73.5995
96.0543,73.5995
96.0543,73.5995
97.9501,73.5995
97.9501,73.5995
98.0097,73.6059
98.1445,73.6562
98.1445,73.6562
98.2597,73.7425
98.2597,73.7425
98.3460,73.8577
98.3460,73.8577
98.3963,73.9925
98.4027,74.0521
98.4027,74.0521
98.4027,74.8167
98.4027,75.4755
98.4224,75.5425
98.4752,75.5883
98.5267,75.5995
99.7080,75.5995
99.7750,75.5798
99.7957,75.5632
102.0997,73.2592
102.2448,73.1435
102.3632,73.0491
102.5920,72.9052
102.6485,72.8698
102.9521,72.7235
103.2702,72.6122
103.2702,72.6122
103.5988,72.5372
103.5988,72.5372
103.9337,72.4995
103.9337,72.4995
104.2707,72.4995
104.2707,72.4995
104.5687,72.5331
104.5687,72.5331
104.6056,72.5372
104.6056,72.5372
104.9342,72.6122
104.9342,72.6122
105.2523,72.7235
105.5559,72.8698
105.8412,73.0491
106.1047,73.2592
106.3430,73.4975
106.4180,73.5915
106.4180,73.5915
106.5531,73.7610
106.5531,73.7610
106.7324,74.0463
106.8787,74.3499
106.9900,74.6680
106.9900,74.6680
107.0650,74.9966
107.1007,75.3138
107.1007,75.3138
107.1027,75.3315
107.1027,79.0058
107.1224,79.0728
107.1390,79.0935
108.0430,79.9975
108.2531,80.2610
108.4324,80.5463
108.5787,80.8499
108.6900,81.1680
108.6900,81.1680
108.7650,81.4966
108.7650,81.4966
108.8027,81.8315
111.6621,81.8315
111.6750,81.7500
110.4522,81.7500
110.4522,80.9047
110.4522,80.9047
110.4624,80.7600
110.4624,80.7600
110.5165,80.5198
110.5165,80.5198
110.6084,80.2914
110.7358,80.0807
110.7358,80.0807
110.8954,79.8932
111.0829,79.7336
111.0829,79.7336
111.2936,79.6062
111.5220,79.5143
111.5220,79.5143
111.7622,79.4602
111.7622,79.4602
111.9069,79.4500
112.7522,79.4500
112.7522,80.6728
112.8960,80.6500
113.1084,80.6500
113.2522,80.6728
113.2522,79.4500
114.0975,79.4500
114.2422,79.4602
114.2422,79.4602
114.4824,79.5143
114.4824,79.5143
114.7108,79.6062
114.9215,79.7336
114.9215,79.7336
115.1090,79.8932
115.2686,80.0807
115.2686,80.0807
115.3960,80.2914
115.4879,80.5198
115.4879,80.5198
115.5420,80.7600
115.5420,80.7600
115.5522,80.9047
126.5017,80.9047
126.5017,73.2022
116.7522,73.2022
116.7522,75.2500
115.7104,75.2500
115.7234,75.2812
115.7522,75.4261
115.7522,75.5739
115.7234,75.7188
115.7104,75.7500
116.7522,75.7500
116.7522,77.7978
116.7458,77.8574
116.7458,77.8574
116.6956,77.9921
116.6956,77.9921
116.6094,78.1072
116.6094,78.1072
116.4943,78.1933
116.4943,78.1934
116.3596,78.2436
116.3596,78.2436
116.3000,78.2500
116.3000,78.2500
115.2522,78.2500
115.2522,76.2082
115.2210,76.2212
115.0761,76.2500
114.9283,76.2500
114.7834,76.2212
114.7522,76.2082
114.7522,78.2500
113.7044,78.2500
113.7044,78.2500
113.6448,78.2436
113.6448,78.2436
113.5101,78.1934
113.5101,78.1933
113.3950,78.1072
113.3950,78.1072
113.3088,77.9921
113.3088,77.9921
113.2586,77.8574
113.2586,77.8574
113.2522,77.7978
113.2522,77.7978
113.2522,75.7500
114.2940,75.7500
114.2810,75.7188
114.2522,75.5739
114.2522,75.4261
114.2810,75.2812
114.2940,75.2500
113.2522,75.2500
113.2522,74.3853
111.3027,74.3853
111.3027,76.6147
111.2867,76.7360
111.2727,76.8422
111.2666,76.8653
111.2134,77.0639
111.1255,77.2759
111.1255,77.2759
111.0108,77.4746
110.8711,77.6567
110.8711,77.6567
110.7089,77.8189
110.7089,77.8189
110.5268,77.9586
110.5268,77.9586
110.5268,77.9586
110.3281,78.0733
110.3281,78.0733
110.3281,78.0733
110.2464,78.1072
110.1161,78.1612
109.8944,78.2205
109.6779,78.2491
109.6707,78.2500
109.6669,78.2505
109.6669,78.2505
109.4375,78.2505
109.4375,78.2505
109.2100,78.2205
108.9883,78.1612
108.7763,78.0733
108.5776,77.9586
108.3955,77.8189
108.3955,77.8189
108.3955,77.8189
108.2333,77.6567
108.2333,77.6567
108.2333,77.6567
108.0936,77.4746
107.9789,77.2759
107.8910,77.0639
107.8317,76.8422
107.8017,76.6147
107.8017,74.3853
107.8317,74.1578
107.8910,73.9361
107.9443,73.8075
107.9789,73.7241
107.9789,73.7241
107.9789,73.7241
108.0936,73.5254
108.0936,73.5254
108.0936,73.5254
108.2333,73.3433
108.2333,73.3433
108.3955,73.1811
108.3955,73.1811
108.5776,73.0414
108.7763,72.9267
108.7763,72.9266
108.9883,72.8388
109.2100,72.7795
109.2480,72.7744
109.4375,72.7495
109.4375,72.7495
109.6669,72.7495
109.6669,72.7495
109.8835,72.7780
109.8944,72.7795
109.9881,72.8046
110.1161,72.8388
110.3281,72.9266
110.3281,72.9267
110.5268,73.0414
110.7089,73.1811
110.8711,73.3433
111.0108,73.5254
111.1255,73.7241
111.1255,73.7241
111.2134,73.9361
111.2444,74.0521
111.2714,74.1529
111.2727,74.1578
111.2727,74.1578
111.3027,74.3853
113.2522,74.3853
113.2522,73.2022
113.2522,73.2022
113.2586,73.1426
113.2586,73.1426
113.3088,73.0079
113.3088,73.0079
113.3950,72.8928
113.3950,72.8928
113.5101,72.8066
113.5101,72.8066
113.6448,72.7564
113.6448,72.7564
113.7044,72.7500
114.7522,72.7500
114.7522,74.7918
114.7834,74.7788
114.9283,74.7500
115.0761,74.7500
115.2210,74.7788
115.2522,74.7918
115.2522,72.7500
116.3000,72.7500
116.3596,72.7564
116.3596,72.7564
116.4943,72.8066
116.4943,72.8066
116.6094,72.8928
116.6094,72.8928
116.6956,73.0079
116.6956,73.0079
116.7458,73.1426
116.7458,73.1426
116.7522,73.2022
126.5017,73.2022
126.5017,70.5000
98.3077,70.5000
98.3077,70.5000
98.2878,70.7267
98.2878,70.7267
98.2289,70.9465
98.2289,70.9465
98.1328,71.1527
98.1328,71.1527
98.0022,71.3391
97.8413,71.5000
97.8413,71.5000
97.6549,71.6306
97.4487,71.7267
97.2289,71.7856
97.0670,71.7998
97.0022,71.8055
97.0022,71.8055
97.0022,71.8055
96.9455,71.8005
96.7755,71.7856
96.5557,71.7267
96.3495,71.6306
96.1631,71.5000
96.0022,71.3391
95.8716,71.1527
95.7755,70.9465
95.7166,70.7267
95.6967,70.5000
95.7166,70.2733
95.7755,70.0535
95.8716,69.8473
96.0022,69.6609
96.0022,69.6609
96.1631,69.5000
96.3495,69.3694
96.3495,69.3694
96.5557,69.2733
96.5557,69.2733
96.7755,69.2144
96.7755,69.2144
96.7755,69.2144
96.7755,69.2144
96.7755,69.2144
97.0022,69.1945
97.0022,69.1945
97.2289,69.2144
97.2289,69.2144
97.4487,69.2733
97.4487,69.2733
97.6549,69.3694
97.6549,69.3694
97.8413,69.5000
98.0022,69.6609
98.1328,69.8473
98.1328,69.8473
98.2289,70.0535
98.2289,70.0535
98.2878,70.2733
98.2878,70.2733
98.3077,70.5000
126.5017,70.5000
126.5017,68.7000
116.2575,68.7000
116.2575,68.7000
116.2384,68.9542
116.2021,69.1133
116.1817,69.2026
116.0886,69.4399
115.9612,69.6606
115.8023,69.8599
115.6154,70.0332
115.4048,70.1768
115.4048,70.1768
115.4048,70.1768
115.4048,70.1768
115.2829,70.2355
115.1752,70.2874
115.1752,70.2874
115.1752,70.2874
114.9317,70.3625
114.6796,70.4005
114.4248,70.4005
114.1727,70.3625
113.9292,70.2874
113.6996,70.1768
113.4890,70.0332
113.3021,69.8599
113.1432,69.6606
113.0158,69.4399
112.9227,69.2026
112.8660,68.9542
112.8541,68.7959
112.8469,68.7000
112.8469,68.7000
106.2575,68.7000
106.2575,68.7000
106.2384,68.9542
106.2021,69.1133
106.1817,69.2026
106.0886,69.4399
105.9612,69.6606
105.8023,69.8599
105.6154,70.0332
105.4048,70.1768
105.4048,70.1768
105.4048,70.1768
105.4048,70.1768
105.2829,70.2355
105.1752,70.2874
105.1752,70.2874
105.1752,70.2874
104.9317,70.3625
104.6796,70.4005
104.4248,70.4005
104.1727,70.3625
103.9292,70.2874
103.6996,70.1768
103.4890,70.0332
103.3021,69.8599
103.1432,69.6606
103.0158,69.4399
102.9227,69.2026
102.8660,68.9542
102.8541,68.7959
102.8469,68.7000
102.8469,68.7000
102.8660,68.4458
102.8917,68.3331
102.9227,68.1974
103.0158,67.9601
103.1432,67.7394
103.3021,67.5401
103.4890,67.3668
103.6996,67.2232
103.6996,67.2232
103.6996,67.2232
103.6996,67.2232
103.9292,67.1126
103.9292,67.1126
104.1727,67.0375
104.1727,67.0375
104.1727,67.0375
104.2940,67.0192
104.4248,66.9995
104.4248,66.9995
104.6796,66.9995
104.6796,66.9995
104.8366,67.0232
104.9317,67.0375
104.9317,67.0375
104.9317,67.0375
105.1752,67.1126
105.4048,67.2232
105.4048,67.2232
105.6154,67.3668
105.8022,67.5401
105.8023,67.5401
105.9612,67.7394
106.0886,67.9601
106.1817,68.1974
106.1817,68.1974
106.2384,68.4458
106.2575,68.7000
112.8469,68.7000
112.8660,68.4458
112.8917,68.3331
112.9227,68.1974
113.0158,67.9601
113.1432,67.7394
113.3021,67.5401
113.4890,67.3668
113.6996,67.2232
113.6996,67.2232
113.6996,67.2232
113.6996,67.2232
113.9292,67.1126
113.9292,67.1126
114.1727,67.0375
114.1727,67.0375
114.1727,67.0375
114.2940,67.0192
114.4248,66.9995
114.4248,66.9995
114.6796,66.9995
114.6796,66.9995
114.8366,67.0232
114.9317,67.0375
114.9317,67.0375
114.9317,67.0375
115.1752,67.1126
115.4048,67.2232
115.4048,67.2232
115.6154,67.3668
115.8022,67.5401
115.8023,67.5401
115.9612,67.7394
116.0886,67.9601
116.1817,68.1974
116.1817,68.1974
116.2384,68.4458
116.2575,68.7000
126.5017,68.7000
126.5017,62.0000
100.8877,62.0000
100.8877,62.0000
100.8678,62.2267
100.8678,62.2267
100.8089,62.4465
100.8089,62.4465
100.7128,62.6527
100.7128,62.6527
100.5822,62.8391
100.4213,63.0000
100.4213,63.0000
100.2349,63.1306
100.0287,63.2267
99.8089,63.2856
99.6470,63.2998
99.5822,63.3055
99.5822,63.3055
99.5822,63.3055
99.5255,63.3005
99.3555,63.2856
99.1357,63.2267
98.9295,63.1306
98.7431,63.0000
98.5822,62.8391
98.4516,62.6527
98.3555,62.4465
98.2966,62.2267
98.2767,62.0000
98.2966,61.7733
98.3555,61.5535
98.4516,61.3473
98.5822,61.1609
98.5822,61.1609
98.7431,61.0000
98.9295,60.8694
98.9295,60.8694
99.1357,60.7733
99.1357,60.7733
99.3555,60.7144
99.3555,60.7144
99.3555,60.7144
99.3555,60.7144
99.3555,60.7144
99.5822,60.6945
99.5822,60.6945
99.8089,60.7144
99.8089,60.7144
100.0287,60.7733
100.0287,60.7733
100.2349,60.8694
100.2349,60.8694
100.4213,61.0000
100.5822,61.1609
100.7128,61.3473
100.7128,61.3473
100.8089,61.5535
100.8089,61.5535
100.8678,61.7733
100.8678,61.7733
100.8877,62.0000
126.5017,62.0000
126.5017,53.0000
115.7577,53.0000
115.7577,53.0000
115.7376,53.3203
115.7376,53.3203
115.6775,53.6355
115.5783,53.9408
115.5783,53.9408
115.4416,54.2311
115.4416,54.2311
115.2697,54.5021
115.2697,54.5021
115.0989,54.7086
115.0651,54.7494
114.8842,54.9193
114.8312,54.9691
114.8312,54.9691
114.5715,55.1577
114.5715,55.1577
114.5715,55.1577
114.2903,55.3123
113.9919,55.4305
113.9919,55.4305
113.6811,55.5103
113.6811,55.5103
113.6143,55.5187
113.3627,55.5505
113.3627,55.5505
113.3627,55.5505
113.3627,55.5505
113.0417,55.5505
113.0417,55.5505
113.0417,55.5505
113.0417,55.5505
112.8517,55.5265
112.7233,55.5103
112.4125,55.4305
112.1141,55.3123
111.8329,55.1577
111.5732,54.9691
111.3393,54.7494
111.1347,54.5021
110.9628,54.2311
110.8261,53.9408
110.7269,53.6355
110.6668,53.3203
110.6668,53.3203
110.6467,53.0000
110.6467,53.0000
110.6668,52.6797
110.6668,52.6797
110.6668,52.6797
110.7269,52.3645
110.8261,52.0592
110.8320,52.0468
110.8988,51.9047
108.5522,51.9047
108.5522,52.7500
107.3294,52.7500
107.3522,52.8938
107.3522,53.1062
107.3294,53.2500
108.5522,53.2500
108.5522,54.0953
108.5420,54.2400
108.5420,54.2400
108.4879,54.4802
108.4879,54.4802
108.3960,54.7086
108.2686,54.9193
108.2686,54.9193
108.1090,55.1068
107.9215,55.2664
107.9215,55.2664
107.7108,55.3938
107.4824,55.4857
107.4824,55.4857
107.2422,55.5398
107.2422,55.5398
107.0975,55.5500
107.0975,55.5500
106.2522,55.5500
106.2522,54.3272
106.1084,54.3500
105.8960,54.3500
105.7522,54.3272
105.7522,55.5500
104.9069,55.5500
104.9069,55.5500
104.7622,55.5398
104.7622,55.5398
104.5220,55.4857
104.5220,55.4857
104.2936,55.3938
104.0829,55.2664
104.0829,55.2664
103.8954,55.1068
103.7358,54.9193
103.7358,54.9193
103.6084,54.7086
103.5165,54.4802
103.5165,54.4802
103.4624,54.2400
103.4624,54.2400
103.4522,54.0953
103.4522,54.0953
103.4522,53.2500
104.6750,53.2500
104.6522,53.1062
104.6522,52.8938
104.6750,52.7500
103.4522,52.7500
103.4522,52.2022
97.2522,52.2022
97.2522,53.7500
95.9211,53.7500
95.9522,53.9064
95.9522,54.0936
95.9211,54.2500
97.2522,54.2500
97.2522,55.7978
97.2458,55.8574
97.2458,55.8574
97.1956,55.9921
97.1956,55.9921
97.1094,56.1072
97.1094,56.1072
96.9943,56.1933
96.9943,56.1934
96.8596,56.2436
96.8596,56.2436
96.8000,56.2500
96.8000,56.2500
95.2522,56.2500
95.2522,54.9189
95.0958,54.9500
94.9086,54.9500
94.7522,54.9189
94.7522,56.2500
93.2044,56.2500
93.2044,56.2500
93.1448,56.2436
93.1448,56.2436
93.0101,56.1934
93.0101,56.1933
92.8950,56.1072
92.8950,56.1072
92.8088,55.9921
92.8088,55.9921
92.7586,55.8574
92.7586,55.8574
92.7522,55.7978
92.7522,55.7978
92.7522,54.2500
94.0833,54.2500
94.0522,54.0936
94.0522,53.9064
94.0833,53.7500
92.7522,53.7500
92.7522,52.2022
92.7522,52.2022
92.7586,52.1426
92.7586,52.1426
92.8088,52.0079
92.8088,52.0079
92.8950,51.8928
92.8950,51.8928
93.0101,51.8066
93.0101,51.8066
93.1448,51.7564
93.1448,51.7564
93.2044,51.7500
94.7522,51.7500
94.7522,53.0811
94.9086,53.0500
95.0958,53.0500
95.2522,53.0811
95.2522,51.7500
96.8000,51.7500
96.8596,51.7564
96.8596,51.7564
96.9943,51.8066
96.9943,51.8066
97.1094,51.8928
97.1094,51.8928
97.1956,52.0079
97.1956,52.0079
97.2458,52.1426
97.2458,52.1426
97.2522,52.2022
103.4522,52.2022
103.4522,51.9047
103.4522,51.9047
103.4624,51.7600
103.4624,51.7600
103.5165,51.5198
103.5165,51.5198
103.6084,51.2914
103.7358,51.0807
103.7358,51.0807
103.8954,50.8932
104.0829,50.7336
104.0829,50.7336
104.2936,50.6062
104.5220,50.5143
104.5220,50.5143
104.7622,50.4602
104.7622,50.4602
104.9069,50.4500
105.7522,50.4500
105.7522,51.6728
105.8960,51.6500
106.1084,51.6500
106.2522,51.6728
106.2522,50.4500
107.0975,50.4500
107.2422,50.4602
107.2422,50.4602
107.4824,50.5143
107.4824,50.5143
107.7108,50.6062
107.9215,50.7336
107.9215,50.7336
108.1090,50.8932
108.2686,51.0807
108.2686,51.0807
108.3960,51.2914
108.4879,51.5198
108.4879,51.5198
108.5420,51.7600
108.5420,51.7600
108.5522,51.9047
110.8988,51.9047
110.9628,51.7689
110.9628,51.7689
110.9684,51.7600
111.0382,51.6500
111.1347,51.4979
111.1347,51.4979
111.3393,51.2506
111.3690,51.2227
111.5732,51.0309
111.5732,51.0309
111.5732,51.0309
111.8329,50.8423
111.8329,50.8423
112.1141,50.6877
112.1141,50.6877
112.4125,50.5695
112.4125,50.5695
112.7233,50.4897
112.7233,50.4897
113.0417,50.4495
113.0417,50.4495
113.3627,50.4495
113.3627,50.4495
113.6811,50.4897
113.6811,50.4897
113.9919,50.5695
114.2903,50.6877
114.2903,50.6877
114.5715,50.8423
114.5715,50.8423
114.8312,51.0309
114.8312,51.0309
115.0651,51.2506
115.2697,51.4979
115.2697,51.4979
115.4416,51.7689
115.4416,51.7689
115.5783,52.0592
115.5783,52.0592
115.6775,52.3645
115.7376,52.6797
115.7376,52.6797
115.7577,53.0000
126.5017,53.0000
126.5017,49.8787
123.8527,49.8787
123.8527,50.1213
123.8210,50.3618
123.7583,50.5961
123.7013,50.7336
123.6654,50.8202
123.5441,51.0303
123.5441,51.0303
123.5441,51.0303
123.3965,51.2227
123.3965,51.2227
123.2249,51.3943
123.2249,51.3943
123.0325,51.5419
122.8224,51.6632
122.5983,51.7561
122.3640,51.8188
122.1836,51.8426
122.1235,51.8505
122.1235,51.8505
121.8809,51.8505
121.8328,51.8442
121.6404,51.8188
121.4061,51.7561
121.1820,51.6632
120.9719,51.5419
120.7795,51.3943
120.6079,51.2227
120.4603,51.0303
120.3390,50.8202
120.2461,50.5961
120.1834,50.3618
120.1517,50.1213
120.1517,49.8787
120.1834,49.6382
120.2461,49.4039
120.3390,49.1798
120.4428,49.0000
99.2078,49.0000
99.2078,49.0000
99.1873,49.2215
99.1873,49.2215
99.1264,49.4355
99.1264,49.4355
99.0273,49.6347
99.0273,49.6347
98.8932,49.8122
98.7288,49.9621
98.7288,49.9621
98.5396,50.0792
98.5396,50.0792
98.5396,50.0792
98.3321,50.1596
98.1134,50.2005
98.1134,50.2005
97.8910,50.2005
97.8910,50.2005
97.6723,50.1596
97.4648,50.0792
97.2756,49.9621
97.1112,49.8122
96.9771,49.6347
96.8780,49.4355
96.8171,49.2215
96.7966,49.0000
96.7966,49.0000
88.2078,49.0000
88.2078,49.0000
88.1873,49.2215
88.1873,49.2215
88.1264,49.4355
88.1264,49.4355
88.0273,49.6347
88.0273,49.6347
87.8932,49.8122
87.7288,49.9621
87.7288,49.9621
87.5396,50.0792
87.5396,50.0792
87.5396,50.0792
87.3321,50.1596
87.1134,50.2005
87.1134,50.2005
86.8910,50.2005
86.8910,50.2005
86.6723,50.1596
86.4648,50.0792
86.2756,49.9621
86.1112,49.8122
85.9771,49.6347
85.8780,49.4355
85.8171,49.2215
85.7966,49.0000
85.7966,49.0000
84.2078,49.0000
84.2078,49.0000
84.1873,49.2215
84.1873,49.2215
84.1264,49.4355
84.1264,49.4355
84.0273,49.6347
84.0273,49.6347
83.8932,49.8122
83.7288,49.9621
83.7288,49.9621
83.5396,50.0792
83.5396,50.0792
83.5396,50.0792
83.3321,50.1596
83.1134,50.2005
83.1134,50.2005
82.8910,50.2005
82.8910,50.2005
82.6723,50.1596
82.4648,50.0792
82.2756,49.9621
82.1112,49.8122
81.9771,49.6347
81.8780,49.4355
81.8171,49.2215
81.7966,49.0000
81.7966,49.0000
73.2078,49.0000
73.2078,49.0000
73.1873,49.2215
73.1873,49.2215
73.1264,49.4355
73.1264,49.4355
73.0273,49.6347
73.0273,49.6347
72.8932,49.8122
72.7288,49.9621
72.7288,49.9621
72.5396,50.0792
72.5396,50.0792
72.5396,50.0792
72.3321,50.1596
72.1134,50.2005
72.1134,50.2005
71.8910,50.2005
71.8910,50.2005
71.6723,50.1596
71.4648,50.0792
71.2756,49.9621
71.1841,49.8787
63.8527,49.8787
63.8527,50.1213
63.8210,50.3618
63.7583,50.5961
63.7013,50.7336
63.6654,50.8202
63.5441,51.0303
63.5441,51.0303
63.5441,51.0303
63.3965,51.2227
63.3965,51.2227
63.2249,51.3943
63.2249,51.3943
63.0325,51.5419
62.8224,51.6632
62.5983,51.7561
62.3640,51.8188
62.1836,51.8426
62.1235,51.8505
62.1235,51.8505
61.8809,51.8505
61.8328,51.8442
61.6404,51.8188
61.4061,51.7561
61.1820,51.6632
60.9719,51.5419
60.7795,51.3943
60.6079,51.2227
60.4603,51.0303
60.3390,50.8202
60.2461,50.5961
60.1834,50.3618
60.1517,50.1213
60.1517,49.8787
60.1834,49.6382
60.2461,49.4039
60.3390,49.1798
60.4603,48.9697
60.5212,48.8903
60.6079,48.7773
60.6079,48.7773
60.7795,48.6057
60.7795,48.6057
60.9719,48.4581
60.9719,48.4581
60.9719,48.4581
61.1820,48.3368
61.1820,48.3368
61.4061,48.2439
61.6158,48.1878
61.6404,48.1812
61.6404,48.1812
61.6404,48.1812
61.8809,48.1495
61.8809,48.1495
62.1235,48.1495
62.1235,48.1495
62.3640,48.1812
62.5983,48.2439
62.8224,48.3368
62.8224,48.3368
63.0325,48.4581
63.2249,48.6057
63.2249,48.6057
63.3965,48.7773
63.3965,48.7773
63.5441,48.9697
63.6654,49.1798
63.6654,49.1798
63.7583,49.4039
63.8210,49.6382
63.8527,49.8787
71.1841,49.8787
71.1112,49.8122
70.9771,49.6347
70.8780,49.4355
70.8171,49.2215
70.7966,49.0000
70.8171,48.7785
70.8780,48.5645
70.9098,48.5005
70.9771,48.3653
70.9771,48.3653
71.1112,48.1878
71.2756,48.0379
71.2756,48.0379
71.4648,47.9208
71.4648,47.9208
71.6723,47.8404
71.8910,47.7995
72.1134,47.7995
72.3321,47.8404
72.4633,47.8912
72.5396,47.9208
72.5396,47.9208
72.7288,48.0379
72.7288,48.0379
72.8932,48.1878
73.0273,48.3653
73.0273,48.3653
73.1264,48.5645
73.1264,48.5645
73.1873,48.7785
73.1873,48.7785
73.2078,49.0000
81.7966,49.0000
81.8171,48.7785
81.8780,48.5645
81.9098,48.5005
81.9771,48.3653
81.9771,48.3653
82.1112,48.1878
82.2756,48.0379
82.2756,48.0379
82.4648,47.9208
82.4648,47.9208
82.6723,47.8404
82.8910,47.7995
83.1134,47.7995
83.3321,47.8404
83.4633,47.8912
83.5396,47.9208
83.5396,47.9208
83.7288,48.0379
83.7288,48.0379
83.8932,48.1878
84.0273,48.3653
84.0273,48.3653
84.1264,48.5645
84.1264,48.5645
84.1873,48.7785
84.1873,48.7785
84.2078,49.0000
85.7966,49.0000
85.8171,48.7785
85.8780,48.5645
85.9098,48.5005
85.9771,48.3653
85.9771,48.3653
86.1112,48.1878
86.2756,48.0379
86.2756,48.0379
86.4648,47.9208
86.4648,47.9208
86.6723,47.8404
86.8910,47.7995
87.1134,47.7995
87.3321,47.8404
87.4633,47.8912
87.5396,47.9208
87.5396,47.9208
87.7288,48.0379
87.7288,48.0379
87.8932,48.1878
88.0273,48.3653
88.0273,48.3653
88.1264,48.5645
88.1264,48.5645
88.1873,48.7785
88.1873,48.7785
88.2078,49.0000
96.7966,49.0000
96.8171,48.7785
96.8780,48.5645
96.9098,48.5005
96.9771,48.3653
96.9771,48.3653
97.1112,48.1878
97.2756,48.0379
97.2756,48.0379
97.4648,47.9208
97.4648,47.9208
97.6723,47.8404
97.8910,47.7995
98.1134,47.7995
98.3321,47.8404
98.4633,47.8912
98.5396,47.9208
98.5396,47.9208
98.7288,48.0379
98.7288,48.0379
98.8932,48.1878
99.0273,48.3653
99.0273,48.3653
99.1264,48.5645
99.1264,48.5645
99.1873,48.7785
99.1873,48.7785
99.2078,49.0000
120.4428,49.0000
120.4603,48.9697
120.5212,48.8903
120.6079,48.7773
120.6079,48.7773
120.7795,48.6057
120.7795,48.6057
120.9719,48.4581
120.9719,48.4581
120.9719,48.4581
121.1820,48.3368
121.1820,48.3368
121.4061,48.2439
121.6158,48.1878
121.6404,48.1812
121.6404,48.1812
121.6404,48.1812
121.8809,48.1495
121.8809,48.1495
122.1235,48.1495
122.1235,48.1495
122.3640,48.1812
122.5983,48.2439
122.8224,48.3368
122.8224,48.3368
123.0325,48.4581
123.2249,48.6057
123.2249,48.6057
123.3965,48.7773
123.3965,48.7773
123.5441,48.9697
123.6654,49.1798
123.6654,49.1798
123.7583,49.4039
123.8210,49.6382
123.8527,49.8787
126.5017,49.8787
126.5017,45.6245
126.4820,45.5575
126.4292,45.5117
126.3777,45.5005
117.3012,45.5005
Z" /> 
</g>
<g style="fill:#FFFFFF; fill-opacity:1.0000; stroke:none;">
<circle cx="99.5822" cy="62.0000" r="0.4000" /> 
</g>
<g style="fill:#FFFFFF; fill-opacity:1.0000; stroke:none;">
<circle cx="89.4222" cy="62.0000" r="0.4000" /> 
</g>
<g style="fill:#FFFFFF; fill-opacity:1.0000; stroke:none;">
<circle cx="122.0022" cy="50.0000" r="1.6000" /> 
</g>
<g style="fill:#FFFFFF; fill-opacity:1.0000; stroke:none;">
<circle cx="97.0022" cy="75.0000" r="0.4500" /> 
</g>
<g style="fill:#FFFFFF; fill-opacity:1.0000; stroke:none;">
<circle cx="97.0022" cy="77.5400" r="0.4500" /> 
</g>
<g style="fill:#FFFFFF; fill-opacity:1.0000; stroke:none;">
<circle cx="114.5522" cy="68.7000" r="0.8000" /> 
</g>
<g style="fill:#FFFFFF; fill-opacity:1.0000; stroke:none;">
<circle cx="104.5522" cy="68.7000" r="0.8000" /> 
</g>
<g style="fill:#FFFFFF; fill-opacity:1.0000; stroke:none;">
<circle cx="62.0022" cy="50.0000" r="1.6000" /> 
</g>
<g style="fill:#FFFFFF; fill-opacity:1.0000; stroke:none;">
<circle cx="98.0022" cy="49.0000" r="0.5000" /> 
</g>
<g style="fill:#FFFFFF; fill-opacity:1.0000; stroke:none;">
<circle cx="87.0022" cy="49.0000" r="0.5000" /> 
</g>
<g style="fill:#FFFFFF; fill-opacity:1.0000; stroke:none;">
<circle cx="95.0022" cy="54.0000" r="0.9500" /> 
</g>
<g style="fill:#FFFFFF; fill-opacity:1.0000; stroke:none;">
<circle cx="90.0022" cy="54.0000" r="0.9500" /> 
</g>
<g style="fill:#FFFFFF; fill-opacity:1.0000; stroke:none;">
<circle cx="83.0022" cy="77.7900" r="0.3810" /> 
</g>
<g style="fill:#FFFFFF; fill-opacity:1.0000; stroke:none;">
<circle cx="83.0022" cy="75.2500" r="0.3810" /> 
</g>
<g style="fill:#FFFFFF; fill-opacity:1.0000; stroke:none;">
<circle cx="83.0022" cy="72.7100" r="0.3810" /> 
</g>
<g style="fill:#FFFFFF; fill-opacity:1.0000; stroke:none;">
<circle cx="98.5422" cy="87.2000" r="1.1500" /> 
</g>
<g style="fill:#FFFFFF; fill-opacity:1.0000; stroke:none;">
<circle cx="85.4622" cy="87.2000" r="1.1500" /> 
</g>
<g style="fill:#FFFFFF; fill-opacity:1.0000; stroke:none;">
<circle cx="95.5022" cy="84.5000" r="0.4600" /> 
</g>
<g style="fill:#FFFFFF; fill-opacity:1.0000; stroke:none;">
<circle cx="93.0022" cy="84.5000" r="0.4600" /> 
</g>
<g style="fill:#FFFFFF; fill-opacity:1.0000; stroke:none;">
<circle cx="91.0022" cy="84.5000" r="0.4600" /> 
</g>
<g style="fill:#FFFFFF; fill-opacity:1.0000; stroke:none;">
<circle cx="88.5022" cy="84.5000" r="0.4600" /> 
</g>
<g style="fill:#FFFFFF; fill-opacity:1.0000; stroke:none;">
<circle cx="97.0022" cy="70.5000" r="0.4000" /> 
</g>
<g style="fill:#FFFFFF; fill-opacity:1.0000; stroke:none;">
<circle cx="86.8422" cy="70.5000" r="0.4000" /> 
</g>
<g style="fill:#FFFFFF; fill-opacity:1.0000; stroke:none;">
<circle cx="122.0022" cy="85.0000" r="1.6000" /> 
</g>
<g style="fill:#FFFFFF; fill-opacity:1.0000; stroke:none;">
<circle cx="83.0022" cy="49.0000" r="0.5000" /> 
</g>
<g style="fill:#FFFFFF; fill-opacity:1.0000; stroke:none;">
<circle cx="72.0022" cy="49.0000" r="0.5000" /> 
</g>
<g style="fill:#FFFFFF; fill-opacity:1.0000; stroke:none;">
<circle cx="80.0022" cy="54.0000" r="0.9500" /> 
</g>
<g style="fill:#FFFFFF; fill-opacity:1.0000; stroke:none;">
<circle cx="75.0022" cy="54.0000" r="0.9500" /> 
</g>
<g style="fill:#FFFFFF; fill-opacity:1.0000; stroke:none;">
<circle cx="80.5422" cy="87.2000" r="1.1500" /> 
</g>
<g style="fill:#FFFFFF; fill-opacity:1.0000; stroke:none;">
<circle cx="67.4622" cy="87.2000" r="1.1500" /> 
</g>
<g style="fill:#FFFFFF; fill-opacity:1.0000; stroke:none;">
<circle cx="77.5022" cy="84.5000" r="0.4600" /> 
</g>
<g style="fill:#FFFFFF; fill-opacity:1.0000; stroke:none;">
<circle cx="75.0022" cy="84.5000" r="0.4600" /> 
</g>
<g style="fill:#FFFFFF; fill-opacity:1.0000; stroke:none;">
<circle cx="73.0022" cy="84.5000" r="0.4600" /> 
</g>
<g style="fill:#FFFFFF; fill-opacity:1.0000; stroke:none;">
<circle cx="70.5022" cy="84.5000" r="0.4600" /> 
</g>
<g style="fill:#FFFFFF; fill-opacity:1.0000; stroke:none;">
<circle cx="61.0022" cy="66.5000" r="0.5000" /> 
</g>
<g style="fill:#FFFFFF; fill-opacity:1.0000; stroke:none;">
<circle cx="61.0022" cy="77.5000" r="0.5000" /> 
</g>
<g style="fill:#FFFFFF; fill-opacity:1.0000; stroke:none;">
<circle cx="66.0022" cy="69.5000" r="0.9500" /> 
</g>
<g style="fill:#FFFFFF; fill-opacity:1.0000; stroke:none;">
<circle cx="66.0022" cy="74.5000" r="0.9500" /> 
</g>
<g style="fill:#FFFFFF; fill-opacity:1.0000; stroke:none;">
<circle cx="115.0022" cy="75.5000" r="0.7500" /> 
</g>
<g style="fill:#FFFFFF; fill-opacity:1.0000; stroke:none;">
<circle cx="109.5522" cy="75.5000" r="0.7500" /> 
</g>
<g style="fill:#FFFFFF; fill-opacity:1.0000; stroke:none;">
<circle cx="104.1022" cy="75.5000" r="0.7500" /> 
</g>
<g style="fill:#FFFFFF; fill-opacity:1.0000; stroke:none;">
<circle cx="62.0022" cy="85.0000" r="1.6000" /> 
</g>
<g style="fill:#FFFFFF; fill-opacity:1.0000; stroke:none;">
<circle cx="74.0022" cy="70.5000" r="0.4000" /> 
</g>
<g style="fill:#FFFFFF; fill-opacity:1.0000; stroke:none;">
<circle cx="74.0022" cy="75.5000" r="0.4000" /> 
</g>
<g style="fill:none; 
stroke:#FFFFFF; stroke-width:0.6000; stroke-opacity:1; 
stroke-linecap:round; stroke-linejoin:round;">
<path d="M102.6522 88.5500
L102.6522 87.4500
" />
<path d="M116.1522 88.5500
L116.1522 87.4500
" />
</g>
<g style="fill:#FFFFFF; fill-opacity:1.0000; stroke:none;">
<circle cx="113.0022" cy="82.0000" r="1.3500" /> 
</g>
<g style="fill:#FFFFFF; fill-opacity:1.0000; stroke:none;">
<circle cx="105.8022" cy="82.0000" r="1.3500" /> 
</g>
<g style="fill:none; 
stroke:#FFFFFF; stroke-width:0.6000; stroke-opacity:1; 
stroke-linecap:round; stroke-linejoin:round;">
<path d="M116.3522 46.4500
L116.3522 47.5500
" />
<path d="M102.8522 46.4500
L102.8522 47.5500
" />
</g>
<g style="fill:#FFFFFF; fill-opacity:1.0000; stroke:none;">
<circle cx="106.0022" cy="53.0000" r="1.3500" /> 
</g>
<g style="fill:#FFFFFF; fill-opacity:1.0000; stroke:none;">
<circle cx="113.2022" cy="53.0000" r="1.3500" /> 
</g> 
</svg>
