<?xml version='1.0' encoding='ASCII' standalone='yes'?>
<svg xmlns="http://www.w3.org/2000/svg" version="1.1" width="297.0022mm" height="210.0072mm" viewBox="0.0000 0.0000 297.0022 210.0072">
            <title>Picture generated by PcbDraw </title>
            <desc>Picture generated by PcbDraw</desc>
        <defs><clipPath id="cut-off"><path d="M170.0000 90.0000 L170.0000 55.0000 M 240.0 55.0 L 240.0 90.0 L 170.0 90.0 L 170.0 55.0 L 240.0 55.0 " style="fill-rule: evenodd;"/></clipPath><mask id="pads-mask-silkscreen"><rect x="169.975" y="54.975" width="70.05" height="35.05" fill="white"/><g style="fill:#000000; fill-opacity:1.0000; stroke:none;">
<circle cx="175.0000" cy="60.0000" r="1.7000"/> 
</g>
<g style="fill:#000000; fill-opacity:1.0000; stroke:none;">
<circle cx="235.0000" cy="60.0000" r="1.7000"/> 
</g>
<g style="fill:#000000; fill-opacity:1.0000; stroke:none;">
<circle cx="199.0000" cy="59.0000" r="0.8000"/> 
</g>
<g style="fill:#000000; fill-opacity:1.0000; stroke:none;">
<circle cx="210.0000" cy="59.0000" r="0.8000"/> 
<path style="fill:#000000; fill-opacity:1.0000; stroke:none;fill-rule:evenodd;" d="M 200.1500,62.2500 200.1576,62.2117 200.1793,62.1793 200.2117,62.1576 200.2500,62.1500 203.7500,62.1500 203.7883,62.1576 203.8207,62.1793 203.8424,62.2117 203.8500,62.2500 203.8500,65.7500 203.8424,65.7883 203.8207,65.8207 203.7883,65.8424 203.7500,65.8500 200.2500,65.8500 200.2117,65.8424 200.1793,65.8207 200.1576,65.7883 200.1500,65.7500 Z"/> 
</g>
<g style="fill:#000000; fill-opacity:1.0000; stroke:none;">
<circle cx="207.0000" cy="64.0000" r="1.8500"/> 
</g>
<g style="fill:#000000; fill-opacity:1.0000; stroke:none;">
<circle cx="198.0000" cy="75.7900" r="0.8620"/> 
</g>
<g style="fill:#000000; fill-opacity:1.0000; stroke:none;">
<circle cx="198.0000" cy="73.2500" r="0.8620"/> 
</g>
<g style="fill:#000000; fill-opacity:1.0000; stroke:none;">
<circle cx="198.0000" cy="70.7100" r="0.8620"/> 
</g>
<g style="fill:#000000; fill-opacity:1.0000; stroke:none;">
<circle cx="198.4600" cy="87.2000" r="1.6500"/> 
</g>
<g style="fill:#000000; fill-opacity:1.0000; stroke:none;">
<circle cx="211.5400" cy="87.2000" r="1.6500"/> 
</g>
<g style="fill:#000000; fill-opacity:1.0000; stroke:none;">
<circle cx="201.5000" cy="84.5000" r="0.9600"/> 
</g>
<g style="fill:#000000; fill-opacity:1.0000; stroke:none;">
<circle cx="204.0000" cy="84.5000" r="0.9600"/> 
</g>
<g style="fill:#000000; fill-opacity:1.0000; stroke:none;">
<circle cx="206.0000" cy="84.5000" r="0.9600"/> 
</g>
<g style="fill:#000000; fill-opacity:1.0000; stroke:none;">
<circle cx="208.5000" cy="84.5000" r="0.9600"/> 
</g>
<g style="fill:#000000; fill-opacity:1.0000; stroke:none;">
<circle cx="173.8000" cy="79.0000" r="0.8000"/> 
</g>
<g style="fill:#000000; fill-opacity:1.0000; stroke:none;">
<circle cx="173.8000" cy="68.0000" r="0.8000"/> 
<path style="fill:#000000; fill-opacity:1.0000; stroke:none;fill-rule:evenodd;" d="M 177.0500,77.8500 177.0117,77.8424 176.9793,77.8207 176.9576,77.7883 176.9500,77.7500 176.9500,74.2500 176.9576,74.2117 176.9793,74.1793 177.0117,74.1576 177.0500,74.1500 180.5500,74.1500 180.5883,74.1576 180.6207,74.1793 180.6424,74.2117 180.6500,74.2500 180.6500,77.7500 180.6424,77.7883 180.6207,77.8207 180.5883,77.8424 180.5500,77.8500 Z"/> 
</g>
<g style="fill:#000000; fill-opacity:1.0000; stroke:none;">
<circle cx="178.8000" cy="71.0000" r="1.8500"/> 
</g>
<g style="fill:#000000; fill-opacity:1.0000; stroke:none;">
<circle cx="175.0000" cy="85.0000" r="1.7000"/> 
</g>
<g style="fill:#000000; fill-opacity:1.0000; stroke:none;">
<circle cx="214.0000" cy="59.0000" r="0.8000"/> 
</g>
<g style="fill:#000000; fill-opacity:1.0000; stroke:none;">
<circle cx="225.0000" cy="59.0000" r="0.8000"/> 
<path style="fill:#000000; fill-opacity:1.0000; stroke:none;fill-rule:evenodd;" d="M 215.1500,62.9640 215.1704,62.7829 215.2306,62.6108 215.3276,62.4565 215.4565,62.3276 215.6108,62.2306 215.7829,62.1704 215.9640,62.1500 218.0360,62.1500 218.2171,62.1704 218.3892,62.2306 218.5435,62.3276 218.6724,62.4565 218.7694,62.6108 218.8296,62.7829 218.8500,62.9640 218.8500,65.0360 218.8296,65.2171 218.7694,65.3892 218.6724,65.5435 218.5435,65.6724 218.3892,65.7694 218.2171,65.8296 218.0360,65.8500 215.9640,65.8500 215.7829,65.8296 215.6108,65.7694 215.4565,65.6724 215.3276,65.5435 215.2306,65.3892 215.1704,65.2171 215.1500,65.0360 Z"/> 
</g>
<g style="fill:#000000; fill-opacity:1.0000; stroke:none;">
<circle cx="222.0000" cy="64.0000" r="1.8500"/> 
</g>
<g style="fill:#000000; fill-opacity:1.0000; stroke:none;">
<circle cx="216.4600" cy="87.2000" r="1.6500"/> 
</g>
<g style="fill:#000000; fill-opacity:1.0000; stroke:none;">
<circle cx="229.5400" cy="87.2000" r="1.6500"/> 
</g>
<g style="fill:#000000; fill-opacity:1.0000; stroke:none;">
<circle cx="219.5000" cy="84.5000" r="0.9600"/> 
</g>
<g style="fill:#000000; fill-opacity:1.0000; stroke:none;">
<circle cx="222.0000" cy="84.5000" r="0.9600"/> 
</g>
<g style="fill:#000000; fill-opacity:1.0000; stroke:none;">
<circle cx="224.0000" cy="84.5000" r="0.9600"/> 
</g>
<g style="fill:#000000; fill-opacity:1.0000; stroke:none;">
<circle cx="226.5000" cy="84.5000" r="0.9600"/> 
</g>
<g style="fill:#000000; fill-opacity:1.0000; stroke:none;">
<circle cx="235.0000" cy="85.0000" r="1.7000"/> 
</g>
<g style="fill:#000000; fill-opacity:1.0000; stroke:none;">
<circle cx="207.5000" cy="71.5000" r="0.9000"/> 
</g>
<g style="fill:#000000; fill-opacity:1.0000; stroke:none;">
<circle cx="207.5000" cy="76.5000" r="0.9000"/> 
</g>
<g style="fill:#000000; fill-opacity:1.0000; stroke:none;">
<circle cx="194.0000" cy="86.0000" r="0.8000"/> 
</g>
<g style="fill:#000000; fill-opacity:1.0000; stroke:none;">
<circle cx="183.0000" cy="86.0000" r="0.8000"/> 
<path style="fill:#000000; fill-opacity:1.0000; stroke:none;fill-rule:evenodd;" d="M 192.8500,82.7500 192.8424,82.7883 192.8207,82.8207 192.7883,82.8424 192.7500,82.8500 189.2500,82.8500 189.2117,82.8424 189.1793,82.8207 189.1576,82.7883 189.1500,82.7500 189.1500,79.2500 189.1576,79.2117 189.1793,79.1793 189.2117,79.1576 189.2500,79.1500 192.7500,79.1500 192.7883,79.1576 192.8207,79.1793 192.8424,79.2117 192.8500,79.2500 Z"/> 
</g>
<g style="fill:#000000; fill-opacity:1.0000; stroke:none;">
<circle cx="186.0000" cy="81.0000" r="1.8500"/> 
<path style="fill:#000000; fill-opacity:1.0000; stroke:none;fill-rule:evenodd;" d="M 180.1000,56.0000 180.1076,55.9617 180.1293,55.9293 180.1617,55.9076 180.2000,55.9000 181.1000,55.9000 181.1383,55.9076 181.1707,55.9293 181.1924,55.9617 181.2000,56.0000 181.2000,58.0000 181.1924,58.0383 181.1707,58.0707 181.1383,58.0924 181.1000,58.1000 180.2000,58.1000 180.1617,58.0924 180.1293,58.0707 180.1076,58.0383 180.1000,58.0000 Z"/> 
<path style="fill:#000000; fill-opacity:1.0000; stroke:none;fill-rule:evenodd;" d="M 193.6000,56.0000 193.6076,55.9617 193.6293,55.9293 193.6617,55.9076 193.7000,55.9000 194.6000,55.9000 194.6383,55.9076 194.6707,55.9293 194.6924,55.9617 194.7000,56.0000 194.7000,58.0000 194.6924,58.0383 194.6707,58.0707 194.6383,58.0924 194.6000,58.1000 193.7000,58.1000 193.6617,58.0924 193.6293,58.0707 193.6076,58.0383 193.6000,58.0000 Z"/> 
<path style="fill:#000000; fill-opacity:1.0000; stroke:none;fill-rule:evenodd;" d="M 188.8500,61.9250 188.8707,61.7153 188.9318,61.5136 189.0312,61.3278 189.1649,61.1649 189.3278,61.0312 189.5136,60.9318 189.7153,60.8707 189.9250,60.8500 192.0750,60.8500 192.2847,60.8707 192.4864,60.9318 192.6722,61.0312 192.8351,61.1649 192.9688,61.3278 193.0682,61.5136 193.1293,61.7153 193.1500,61.9250 193.1500,64.0750 193.1293,64.2847 193.0682,64.4864 192.9688,64.6722 192.8351,64.8351 192.6722,64.9688 192.4864,65.0682 192.2847,65.1293 192.0750,65.1500 189.9250,65.1500 189.7153,65.1293 189.5136,65.0682 189.3278,64.9688 189.1649,64.8351 189.0312,64.6722 188.9318,64.4864 188.8707,64.2847 188.8500,64.0750 Z"/> 
</g>
<g style="fill:#000000; fill-opacity:1.0000; stroke:none;">
<circle cx="183.8000" cy="63.0000" r="2.1500"/> 
</g> 
</mask></defs><g transform="scale(-1,1) translate(-297.0022,0)" id="boardContainer"><g id="substrate" clip-path="url(#cut-off)" mask="url(#pads-mask-silkscreen)"><g id="substrate-board" style="fill:#143324; fill-opacity:0.25098039215686274; stroke:#143324; stroke-width:0;"><path d="M170.0000 90.0000 L170.0000 55.0000 M 240.0 55.0 L 240.0 90.0 L 170.0 90.0 L 170.0 55.0 L 240.0 55.0 " style="fill-rule: evenodd;"/><g style="fill: #4ca06c;fill-opacity: 1.0000;stroke: #4ca06c;stroke-opacity: 1.0000;stroke-linecap: round;stroke-linejoin: round" transform="translate(0 0) scale(1 1)">
<path style="fill: none;stroke: #4ca06c;stroke-width: 0.0500;stroke-opacity: 1;stroke-linecap: round;stroke-linejoin: round" d="M 170.0000,55.0000 240.0000,55.0000 240.0000,90.0000 170.0000,90.0000 Z"/> 
</g> 
</g></g></g></svg>
