<?xml version="1.0" standalone="no"?>
 <!DOCTYPE svg PUBLIC "-//W3C//DTD SVG 1.1//EN" 
 "http://www.w3.org/Graphics/SVG/1.1/DTD/svg11.dtd"> 
<svg
  xmlns:svg="http://www.w3.org/2000/svg"
  xmlns="http://www.w3.org/2000/svg"
  xmlns:xlink="http://www.w3.org/1999/xlink"
  version="1.1"
  width="297.0022mm" height="210.0072mm" viewBox="0.0000 0.0000 297.0022 210.0072">
<title>SVG Image created as computer_sensor_board-B_Cu.svg date 2024/11/16 00:54:58 </title>
  <desc>Image generated by PCBNEW </desc>
<g style="fill:#000000; fill-opacity:1.0000;stroke:#000000; stroke-opacity:1.0000;
stroke-linecap:round; stroke-linejoin:round;"
 transform="translate(0 0) scale(1 1)">
</g>
<g style="fill:#000000; fill-opacity:1.0000; stroke:none;">
<circle cx="95.0022" cy="59.1500" r="0.7000" /> 
</g>
<g style="fill:#000000; fill-opacity:1.0000; stroke:none;">
<circle cx="84.0022" cy="59.1500" r="0.7000" /> 
<path style="fill:#000000; fill-opacity:1.0000; stroke:none;fill-rule:evenodd;"
d="M 93.7522,65.9000
93.7522,62.4000
90.2522,62.4000
90.2522,65.9000
Z" /> 
</g>
<g style="fill:#000000; fill-opacity:1.0000; stroke:none;">
<circle cx="87.0022" cy="64.1500" r="1.7500" /> 
</g>
<g style="fill:#000000; fill-opacity:1.0000; stroke:none;">
<circle cx="99.9862" cy="76.5800" r="0.7620" /> 
</g>
<g style="fill:#000000; fill-opacity:1.0000; stroke:none;">
<circle cx="99.9862" cy="74.0400" r="0.7620" /> 
</g>
<g style="fill:#000000; fill-opacity:1.0000; stroke:none;">
<circle cx="99.9862" cy="71.5000" r="0.7620" /> 
</g>
<g style="fill:#000000; fill-opacity:1.0000; stroke:none;">
<circle cx="99.5422" cy="87.2000" r="1.5500" /> 
</g>
<g style="fill:#000000; fill-opacity:1.0000; stroke:none;">
<circle cx="86.4622" cy="87.2000" r="1.5500" /> 
</g>
<g style="fill:#000000; fill-opacity:1.0000; stroke:none;">
<circle cx="96.5022" cy="84.5000" r="0.8600" /> 
</g>
<g style="fill:#000000; fill-opacity:1.0000; stroke:none;">
<circle cx="94.0022" cy="84.5000" r="0.8600" /> 
</g>
<g style="fill:#000000; fill-opacity:1.0000; stroke:none;">
<circle cx="92.0022" cy="84.5000" r="0.8600" /> 
</g>
<g style="fill:#000000; fill-opacity:1.0000; stroke:none;">
<circle cx="89.5022" cy="84.5000" r="0.8600" /> 
</g>
<g style="fill:#000000; fill-opacity:1.0000; stroke:none;">
<circle cx="80.0022" cy="59.1500" r="0.7000" /> 
</g>
<g style="fill:#000000; fill-opacity:1.0000; stroke:none;">
<circle cx="69.0022" cy="59.1500" r="0.7000" /> 
<path style="fill:#000000; fill-opacity:1.0000; stroke:none;fill-rule:evenodd;"
d="M 78.7522,65.9000
78.7522,62.4000
75.2522,62.4000
75.2522,65.9000
Z" /> 
</g>
<g style="fill:#000000; fill-opacity:1.0000; stroke:none;">
<circle cx="72.0022" cy="64.1500" r="1.7500" /> 
</g>
<g style="fill:#000000; fill-opacity:1.0000; stroke:none;">
<circle cx="82.5422" cy="87.2000" r="1.5500" /> 
</g>
<g style="fill:#000000; fill-opacity:1.0000; stroke:none;">
<circle cx="69.4622" cy="87.2000" r="1.5500" /> 
</g>
<g style="fill:#000000; fill-opacity:1.0000; stroke:none;">
<circle cx="79.5022" cy="84.5000" r="0.8600" /> 
</g>
<g style="fill:#000000; fill-opacity:1.0000; stroke:none;">
<circle cx="77.0022" cy="84.5000" r="0.8600" /> 
</g>
<g style="fill:#000000; fill-opacity:1.0000; stroke:none;">
<circle cx="75.0022" cy="84.5000" r="0.8600" /> 
</g>
<g style="fill:#000000; fill-opacity:1.0000; stroke:none;">
<circle cx="72.5022" cy="84.5000" r="0.8600" /> 
</g>
<g style="fill:#000000; fill-opacity:1.0000; stroke:none;">
<circle cx="89.5022" cy="71.5000" r="0.8000" /> 
</g>
<g style="fill:#000000; fill-opacity:1.0000; stroke:none;">
<circle cx="89.5022" cy="76.5000" r="0.8000" /> 
</g>
<g style="fill:#000000; fill-opacity:1.0000; stroke:none;">
<circle cx="104.0022" cy="86.0000" r="0.7000" /> 
</g>
<g style="fill:#000000; fill-opacity:1.0000; stroke:none;">
<circle cx="115.0022" cy="86.0000" r="0.7000" /> 
<path style="fill:#000000; fill-opacity:1.0000; stroke:none;fill-rule:evenodd;"
d="M 105.2522,79.2500
105.2522,82.7500
108.7522,82.7500
108.7522,79.2500
Z" /> 
</g>
<g style="fill:#000000; fill-opacity:1.0000; stroke:none;">
<circle cx="112.0022" cy="81.0000" r="1.7500" /> 
</g>
<g style="fill:#000000; fill-opacity:1.0000; stroke:none;">
<circle cx="115.0022" cy="59.0000" r="0.7000" /> 
</g>
<g style="fill:#000000; fill-opacity:1.0000; stroke:none;">
<circle cx="104.0022" cy="59.0000" r="0.7000" /> 
<path style="fill:#000000; fill-opacity:1.0000; stroke:none;fill-rule:evenodd;"
d="M 113.7522,65.7500
113.7522,62.2500
110.2522,62.2500
110.2522,65.7500
Z" /> 
</g>
<g style="fill:#000000; fill-opacity:1.0000; stroke:none;">
<circle cx="107.0022" cy="64.0000" r="1.7500" /> 
</g>
<g style="fill:none; 
stroke:#000000; stroke-width:5.0000; stroke-opacity:1; 
stroke-linecap:round; stroke-linejoin:round;">
<path d="M107.0022 64.0000
L107.0022 71.5000
" />
</g>
<g style="fill:none; 
stroke:#000000; stroke-width:3.0000; stroke-opacity:1; 
stroke-linecap:round; stroke-linejoin:round;">
<path d="M104.4622 74.0400
L107.0022 71.5000
" />
<path d="M99.9862 74.0400
L104.4622 74.0400
" />
</g>
<g style="fill:none; 
stroke:#000000; stroke-width:5.0000; stroke-opacity:1; 
stroke-linecap:round; stroke-linejoin:round;">
<path d="M112.0022 76.5000
L112.0022 81.0000
" />
<path d="M107.0022 71.5000
L112.0022 76.5000
" />
</g>
<g style="fill:none; 
stroke:#000000; stroke-width:1.0000; stroke-opacity:1; 
stroke-linecap:round; stroke-linejoin:round;">
<path d="M99.9862 71.5000
L98.9086 71.5000
" />
<path d="M98.9086 71.5000
L96.5022 73.9064
" />
<path d="M96.5022 73.9064
L96.5022 84.5000
" />
<path d="M79.5022 84.5000
L79.5022 81.5000
" />
<path d="M79.5022 81.5000
L89.5022 71.5000
" />
</g>
<g style="fill:#FFFFFF; fill-opacity:1.0000; stroke:none;">
<circle cx="95.0022" cy="59.1500" r="0.5000" /> 
</g>
<g style="fill:#FFFFFF; fill-opacity:1.0000; stroke:none;">
<circle cx="84.0022" cy="59.1500" r="0.5000" /> 
</g>
<g style="fill:#FFFFFF; fill-opacity:1.0000; stroke:none;">
<circle cx="92.0022" cy="64.1500" r="0.9500" /> 
</g>
<g style="fill:#FFFFFF; fill-opacity:1.0000; stroke:none;">
<circle cx="87.0022" cy="64.1500" r="0.9500" /> 
</g>
<g style="fill:#FFFFFF; fill-opacity:1.0000; stroke:none;">
<circle cx="99.9862" cy="76.5800" r="0.3810" /> 
</g>
<g style="fill:#FFFFFF; fill-opacity:1.0000; stroke:none;">
<circle cx="99.9862" cy="74.0400" r="0.3810" /> 
</g>
<g style="fill:#FFFFFF; fill-opacity:1.0000; stroke:none;">
<circle cx="99.9862" cy="71.5000" r="0.3810" /> 
</g>
<g style="fill:#FFFFFF; fill-opacity:1.0000; stroke:none;">
<circle cx="99.5422" cy="87.2000" r="1.1500" /> 
</g>
<g style="fill:#FFFFFF; fill-opacity:1.0000; stroke:none;">
<circle cx="86.4622" cy="87.2000" r="1.1500" /> 
</g>
<g style="fill:#FFFFFF; fill-opacity:1.0000; stroke:none;">
<circle cx="96.5022" cy="84.5000" r="0.4600" /> 
</g>
<g style="fill:#FFFFFF; fill-opacity:1.0000; stroke:none;">
<circle cx="94.0022" cy="84.5000" r="0.4600" /> 
</g>
<g style="fill:#FFFFFF; fill-opacity:1.0000; stroke:none;">
<circle cx="92.0022" cy="84.5000" r="0.4600" /> 
</g>
<g style="fill:#FFFFFF; fill-opacity:1.0000; stroke:none;">
<circle cx="89.5022" cy="84.5000" r="0.4600" /> 
</g>
<g style="fill:#FFFFFF; fill-opacity:1.0000; stroke:none;">
<circle cx="80.0022" cy="59.1500" r="0.5000" /> 
</g>
<g style="fill:#FFFFFF; fill-opacity:1.0000; stroke:none;">
<circle cx="69.0022" cy="59.1500" r="0.5000" /> 
</g>
<g style="fill:#FFFFFF; fill-opacity:1.0000; stroke:none;">
<circle cx="77.0022" cy="64.1500" r="0.9500" /> 
</g>
<g style="fill:#FFFFFF; fill-opacity:1.0000; stroke:none;">
<circle cx="72.0022" cy="64.1500" r="0.9500" /> 
</g>
<g style="fill:#FFFFFF; fill-opacity:1.0000; stroke:none;">
<circle cx="82.5422" cy="87.2000" r="1.1500" /> 
</g>
<g style="fill:#FFFFFF; fill-opacity:1.0000; stroke:none;">
<circle cx="69.4622" cy="87.2000" r="1.1500" /> 
</g>
<g style="fill:#FFFFFF; fill-opacity:1.0000; stroke:none;">
<circle cx="79.5022" cy="84.5000" r="0.4600" /> 
</g>
<g style="fill:#FFFFFF; fill-opacity:1.0000; stroke:none;">
<circle cx="77.0022" cy="84.5000" r="0.4600" /> 
</g>
<g style="fill:#FFFFFF; fill-opacity:1.0000; stroke:none;">
<circle cx="75.0022" cy="84.5000" r="0.4600" /> 
</g>
<g style="fill:#FFFFFF; fill-opacity:1.0000; stroke:none;">
<circle cx="72.5022" cy="84.5000" r="0.4600" /> 
</g>
<g style="fill:#FFFFFF; fill-opacity:1.0000; stroke:none;">
<circle cx="89.5022" cy="71.5000" r="0.4000" /> 
</g>
<g style="fill:#FFFFFF; fill-opacity:1.0000; stroke:none;">
<circle cx="89.5022" cy="76.5000" r="0.4000" /> 
</g>
<g style="fill:#FFFFFF; fill-opacity:1.0000; stroke:none;">
<circle cx="104.0022" cy="86.0000" r="0.5000" /> 
</g>
<g style="fill:#FFFFFF; fill-opacity:1.0000; stroke:none;">
<circle cx="115.0022" cy="86.0000" r="0.5000" /> 
</g>
<g style="fill:#FFFFFF; fill-opacity:1.0000; stroke:none;">
<circle cx="107.0022" cy="81.0000" r="0.9500" /> 
</g>
<g style="fill:#FFFFFF; fill-opacity:1.0000; stroke:none;">
<circle cx="112.0022" cy="81.0000" r="0.9500" /> 
</g>
<g style="fill:#FFFFFF; fill-opacity:1.0000; stroke:none;">
<circle cx="115.0022" cy="59.0000" r="0.5000" /> 
</g>
<g style="fill:#FFFFFF; fill-opacity:1.0000; stroke:none;">
<circle cx="104.0022" cy="59.0000" r="0.5000" /> 
</g>
<g style="fill:#FFFFFF; fill-opacity:1.0000; stroke:none;">
<circle cx="112.0022" cy="64.0000" r="0.9500" /> 
</g>
<g style="fill:#FFFFFF; fill-opacity:1.0000; stroke:none;">
<circle cx="107.0022" cy="64.0000" r="0.9500" /> 
</g> 
</svg>
