<?xml version="1.0" standalone="no"?>
 <!DOCTYPE svg PUBLIC "-//W3C//DTD SVG 1.1//EN" 
 "http://www.w3.org/Graphics/SVG/1.1/DTD/svg11.dtd"> 
<svg
  xmlns:svg="http://www.w3.org/2000/svg"
  xmlns="http://www.w3.org/2000/svg"
  xmlns:xlink="http://www.w3.org/1999/xlink"
  version="1.1"
  width="297.0022mm" height="210.0072mm" viewBox="0.0000 0.0000 297.0022 210.0072">
<title>SVG Image created as computer_sensor_board-B_Cu.svg date 2024/12/16 01:00:43 </title>
  <desc>Image generated by PCBNEW </desc>
<g style="fill:#000000; fill-opacity:1.0000;stroke:#000000; stroke-opacity:1.0000;
stroke-linecap:round; stroke-linejoin:round;"
 transform="translate(0 0) scale(1 1)">
</g>
<g style="fill:#000000; fill-opacity:1.0000; stroke:none;">
<circle cx="98.0022" cy="59.0000" r="0.7000" /> 
</g>
<g style="fill:#000000; fill-opacity:1.0000; stroke:none;">
<circle cx="87.0022" cy="59.0000" r="0.7000" /> 
<path style="fill:#000000; fill-opacity:1.0000; stroke:none;fill-rule:evenodd;"
d="M 96.7522,65.7500
96.7522,62.2500
93.2522,62.2500
93.2522,65.7500
Z" /> 
</g>
<g style="fill:#000000; fill-opacity:1.0000; stroke:none;">
<circle cx="90.0022" cy="64.0000" r="1.7500" /> 
</g>
<g style="fill:#000000; fill-opacity:1.0000; stroke:none;">
<circle cx="99.0022" cy="75.7900" r="0.7620" /> 
</g>
<g style="fill:#000000; fill-opacity:1.0000; stroke:none;">
<circle cx="99.0022" cy="73.2500" r="0.7620" /> 
</g>
<g style="fill:#000000; fill-opacity:1.0000; stroke:none;">
<circle cx="99.0022" cy="70.7100" r="0.7620" /> 
</g>
<g style="fill:#000000; fill-opacity:1.0000; stroke:none;">
<circle cx="98.5422" cy="87.2000" r="1.5500" /> 
</g>
<g style="fill:#000000; fill-opacity:1.0000; stroke:none;">
<circle cx="85.4622" cy="87.2000" r="1.5500" /> 
</g>
<g style="fill:#000000; fill-opacity:1.0000; stroke:none;">
<circle cx="95.5022" cy="84.5000" r="0.8600" /> 
</g>
<g style="fill:#000000; fill-opacity:1.0000; stroke:none;">
<circle cx="93.0022" cy="84.5000" r="0.8600" /> 
</g>
<g style="fill:#000000; fill-opacity:1.0000; stroke:none;">
<circle cx="91.0022" cy="84.5000" r="0.8600" /> 
</g>
<g style="fill:#000000; fill-opacity:1.0000; stroke:none;">
<circle cx="88.5022" cy="84.5000" r="0.8600" /> 
</g>
<g style="fill:#000000; fill-opacity:1.0000; stroke:none;">
<circle cx="123.2022" cy="79.0000" r="0.7000" /> 
</g>
<g style="fill:#000000; fill-opacity:1.0000; stroke:none;">
<circle cx="123.2022" cy="68.0000" r="0.7000" /> 
<path style="fill:#000000; fill-opacity:1.0000; stroke:none;fill-rule:evenodd;"
d="M 116.4522,77.7500
119.9522,77.7500
119.9522,74.2500
116.4522,74.2500
Z" /> 
</g>
<g style="fill:#000000; fill-opacity:1.0000; stroke:none;">
<circle cx="118.2022" cy="71.0000" r="1.7500" /> 
</g>
<g style="fill:#000000; fill-opacity:1.0000; stroke:none;">
<circle cx="83.0022" cy="59.0000" r="0.7000" /> 
</g>
<g style="fill:#000000; fill-opacity:1.0000; stroke:none;">
<circle cx="72.0022" cy="59.0000" r="0.7000" /> 
<path style="fill:#000000; fill-opacity:1.0000; stroke:none;fill-rule:evenodd;"
d="M 81.7522,63.0200
81.7363,62.8643
81.6801,62.6946
81.5862,62.5424
81.4598,62.4160
81.3076,62.3221
81.1379,62.2659
80.9822,62.2500
79.0222,62.2500
78.8665,62.2659
78.6968,62.3221
78.5446,62.4160
78.4182,62.5424
78.3243,62.6946
78.2681,62.8643
78.2522,63.0200
78.2522,64.9800
78.2681,65.1357
78.3243,65.3054
78.4182,65.4576
78.5446,65.5840
78.6968,65.6779
78.8665,65.7341
79.0222,65.7500
80.9822,65.7500
81.1379,65.7341
81.3076,65.6779
81.4598,65.5840
81.5862,65.4576
81.6801,65.3054
81.7363,65.1357
81.7522,64.9800
Z" /> 
</g>
<g style="fill:#000000; fill-opacity:1.0000; stroke:none;">
<circle cx="75.0022" cy="64.0000" r="1.7500" /> 
</g>
<g style="fill:#000000; fill-opacity:1.0000; stroke:none;">
<circle cx="80.5422" cy="87.2000" r="1.5500" /> 
</g>
<g style="fill:#000000; fill-opacity:1.0000; stroke:none;">
<circle cx="67.4622" cy="87.2000" r="1.5500" /> 
</g>
<g style="fill:#000000; fill-opacity:1.0000; stroke:none;">
<circle cx="77.5022" cy="84.5000" r="0.8600" /> 
</g>
<g style="fill:#000000; fill-opacity:1.0000; stroke:none;">
<circle cx="75.0022" cy="84.5000" r="0.8600" /> 
</g>
<g style="fill:#000000; fill-opacity:1.0000; stroke:none;">
<circle cx="73.0022" cy="84.5000" r="0.8600" /> 
</g>
<g style="fill:#000000; fill-opacity:1.0000; stroke:none;">
<circle cx="70.5022" cy="84.5000" r="0.8600" /> 
</g>
<g style="fill:#000000; fill-opacity:1.0000; stroke:none;">
<circle cx="89.5022" cy="71.5000" r="0.8000" /> 
</g>
<g style="fill:#000000; fill-opacity:1.0000; stroke:none;">
<circle cx="89.5022" cy="76.5000" r="0.8000" /> 
</g>
<g style="fill:#000000; fill-opacity:1.0000; stroke:none;">
<circle cx="103.0022" cy="86.0000" r="0.7000" /> 
</g>
<g style="fill:#000000; fill-opacity:1.0000; stroke:none;">
<circle cx="114.0022" cy="86.0000" r="0.7000" /> 
<path style="fill:#000000; fill-opacity:1.0000; stroke:none;fill-rule:evenodd;"
d="M 104.2522,79.2500
104.2522,82.7500
107.7522,82.7500
107.7522,79.2500
Z" /> 
</g>
<g style="fill:#000000; fill-opacity:1.0000; stroke:none;">
<circle cx="111.0022" cy="81.0000" r="1.7500" /> 
<path style="fill:#000000; fill-opacity:1.0000; stroke:none;fill-rule:evenodd;"
d="M 116.8022,58.0000
116.8022,56.0000
115.9022,56.0000
115.9022,58.0000
Z" /> 
<path style="fill:#000000; fill-opacity:1.0000; stroke:none;fill-rule:evenodd;"
d="M 103.3022,58.0000
103.3022,56.0000
102.4022,56.0000
102.4022,58.0000
Z" /> 
<path style="fill:#000000; fill-opacity:1.0000; stroke:none;fill-rule:evenodd;"
d="M 108.0522,61.9750
108.0325,61.7750
107.9742,61.5827
107.8795,61.4055
107.7520,61.2502
107.5967,61.1227
107.4195,61.0280
107.2272,60.9697
107.0272,60.9500
104.9772,60.9500
104.7772,60.9697
104.5849,61.0280
104.4077,61.1227
104.2524,61.2502
104.1249,61.4055
104.0302,61.5827
103.9719,61.7750
103.9522,61.9750
103.9522,64.0250
103.9719,64.2250
104.0302,64.4173
104.1249,64.5945
104.2524,64.7498
104.4077,64.8773
104.5849,64.9720
104.7772,65.0303
104.9772,65.0500
107.0272,65.0500
107.2272,65.0303
107.4195,64.9720
107.5967,64.8773
107.7520,64.7498
107.8795,64.5945
107.9742,64.4173
108.0325,64.2250
108.0522,64.0250
Z" /> 
</g>
<g style="fill:#000000; fill-opacity:1.0000; stroke:none;">
<circle cx="113.2022" cy="63.0000" r="2.0500" /> 
</g>
<g style="fill:none; 
stroke:#000000; stroke-width:1.0000; stroke-opacity:1; 
stroke-linecap:round; stroke-linejoin:round;">
<path d="M102.0022 59.0000
L109.2022 59.0000
" />
</g>
<g style="fill:none; 
stroke:#000000; stroke-width:6.0000; stroke-opacity:1; 
stroke-linecap:round; stroke-linejoin:round;">
<path d="M111.0022 68.4000
L113.2022 66.2000
" />
</g>
<g style="fill:none; 
stroke:#000000; stroke-width:1.0000; stroke-opacity:1; 
stroke-linecap:round; stroke-linejoin:round;">
<path d="M90.0022 64.0000
L90.0022 60.5000
" />
<path d="M118.0022 71.0000
L113.2022 66.2000
" />
</g>
<g style="fill:none; 
stroke:#000000; stroke-width:6.0000; stroke-opacity:1; 
stroke-linecap:round; stroke-linejoin:round;">
<path d="M111.0022 81.0000
L111.0022 68.4000
" />
</g>
<g style="fill:none; 
stroke:#000000; stroke-width:1.0000; stroke-opacity:1; 
stroke-linecap:round; stroke-linejoin:round;">
<path d="M99.0022 75.7900
L100.4122 75.7900
" />
<path d="M100.4122 75.7900
L113.2022 63.0000
" />
<path d="M81.5022 57.5000
L75.0022 64.0000
" />
<path d="M93.0022 57.5000
L81.5022 57.5000
" />
<path d="M109.2022 59.0000
L113.2022 63.0000
" />
<path d="M118.2022 71.0000
L118.0022 71.0000
" />
</g>
<g style="fill:none; 
stroke:#000000; stroke-width:9.0000; stroke-opacity:1; 
stroke-linecap:round; stroke-linejoin:round;">
<path d="M113.2022 63.0000
L113.2022 66.2000
" />
</g>
<g style="fill:none; 
stroke:#000000; stroke-width:1.0000; stroke-opacity:1; 
stroke-linecap:round; stroke-linejoin:round;">
<path d="M100.5022 57.5000
L102.0022 59.0000
" />
<path d="M93.0022 57.5000
L100.5022 57.5000
" />
<path d="M90.0022 60.5000
L93.0022 57.5000
" />
</g>
<g style="fill:none; 
stroke:#000000; stroke-width:2.0000; stroke-opacity:1; 
stroke-linecap:round; stroke-linejoin:round;">
<path d="M99.0022 70.7100
L90.2922 70.7100
" />
<path d="M95.5022 73.1324
L95.5022 84.5000
" />
<path d="M89.5022 71.5000
L82.5022 71.5000
" />
<path d="M90.2922 70.7100
L89.5022 71.5000
" />
<path d="M82.5022 71.5000
L77.5022 76.5000
" />
<path d="M77.5022 76.5000
L77.5022 84.5000
" />
<path d="M99.0022 70.7100
L97.9246 70.7100
" />
<path d="M97.9246 70.7100
L95.5022 73.1324
" />
<path style="fill:#000000; fill-opacity:1.0000; stroke:none;fill-rule:evenodd;"
d="M 117.2342,55.5202
117.1884,55.5730
117.1785,55.6421
117.2019,55.6988
117.2220,55.7256
117.2460,55.7577
117.2460,55.7577
117.2963,55.8925
117.3027,55.9521
117.3027,55.9521
117.3027,55.9521
117.3027,58.0479
117.3027,58.0479
117.2963,58.1075
117.2460,58.2423
117.2460,58.2423
117.1597,58.3575
117.1597,58.3575
117.0445,58.4438
117.0445,58.4438
116.9097,58.4941
116.9097,58.4941
116.9028,58.4948
116.8501,58.5005
115.8726,58.5005
115.8056,58.5202
115.7598,58.5730
115.7499,58.6421
115.7789,58.7057
115.8106,58.7319
115.8915,58.7786
115.8915,58.7786
116.2492,59.0291
116.5837,59.3097
116.8925,59.6185
117.1731,59.9530
117.4236,60.3107
117.4236,60.3107
117.6419,60.6888
117.6419,60.6888
117.8265,61.0846
117.8265,61.0846
117.9758,61.4949
118.0888,61.9167
118.0888,61.9167
118.1646,62.3467
118.1646,62.3467
118.2027,62.7817
118.2027,66.4183
118.1646,66.8533
118.0888,67.2833
118.0888,67.2833
117.9758,67.7051
117.8265,68.1154
117.8265,68.1154
117.6419,68.5112
117.6419,68.5112
117.5794,68.6195
117.5629,68.6874
117.5858,68.7534
117.6407,68.7966
117.7102,68.8033
117.7110,68.8031
117.9078,68.7640
117.9078,68.7640
117.9078,68.7640
117.9078,68.7640
118.2022,68.7447
118.2022,68.7447
118.4966,68.7640
118.4966,68.7640
118.4966,68.7640
118.4966,68.7640
118.4966,68.7640
118.7859,68.8215
118.7859,68.8215
119.0653,68.9163
119.3299,69.0468
119.5752,69.2107
119.7970,69.4052
119.9915,69.6270
120.1554,69.8723
120.2859,70.1369
120.3807,70.4163
120.3807,70.4163
120.4382,70.7056
120.4382,70.7056
120.4575,71.0000
120.4575,71.0000
120.4382,71.2944
120.4382,71.2944
120.4382,71.2944
120.4382,71.2944
120.3807,71.5837
120.3807,71.5837
120.2859,71.8631
120.1554,72.1277
120.1554,72.1277
119.9915,72.3730
119.7970,72.5948
119.5752,72.7893
119.3419,72.9451
119.3299,72.9532
119.0653,73.0837
118.7859,73.1785
118.4966,73.2360
118.4683,73.2379
118.2022,73.2553
118.2022,73.2553
118.2022,73.2553
117.9601,73.2395
117.9078,73.2360
117.6185,73.1785
117.3391,73.0837
117.0745,72.9532
116.8292,72.7893
116.6074,72.5948
116.4129,72.3730
116.2490,72.1277
116.1185,71.8631
116.0237,71.5837
115.9662,71.2944
115.9509,71.0614
115.9469,71.0000
115.9469,71.0000
115.9662,70.7056
115.9662,70.7056
115.9863,70.6042
115.9801,70.5347
115.9372,70.4795
115.8714,70.4562
115.8034,70.4723
115.8027,70.4727
115.5134,70.6397
115.5134,70.6397
115.1176,70.8243
115.1176,70.8243
115.1176,70.8243
114.7073,70.9736
114.7073,70.9736
114.7073,70.9736
114.5946,71.0038
114.5349,71.0402
114.5044,71.1030
114.5027,71.1236
114.5027,81.1720
114.4690,81.5142
114.4019,81.8516
114.3020,82.1807
114.1704,82.4985
114.1704,82.4985
114.0083,82.8018
114.0083,82.8018
113.8172,83.0878
113.8172,83.0878
113.5990,83.3536
113.3558,83.5968
113.3558,83.5968
113.3558,83.5968
113.0900,83.8150
112.8040,84.0061
112.8040,84.0061
112.8040,84.0061
112.5007,84.1682
112.5007,84.1682
112.5007,84.1682
112.1829,84.2998
111.8538,84.3997
111.5164,84.4668
111.1742,84.5005
111.1742,84.5005
110.8302,84.5005
110.8302,84.5005
110.4879,84.4668
110.1506,84.3997
109.8215,84.2998
109.5037,84.1682
109.2004,84.0061
108.9144,83.8150
108.6486,83.5968
108.4054,83.3536
108.2427,83.1554
108.1849,83.1161
108.1151,83.1142
108.0725,83.1348
107.9943,83.1934
107.9943,83.1934
107.8596,83.2436
107.8596,83.2436
107.8000,83.2500
107.8000,83.2500
106.2522,83.2500
106.2522,81.9189
106.0958,81.9500
105.9086,81.9500
105.7522,81.9189
105.7522,83.2500
104.2044,83.2500
104.2044,83.2500
104.1448,83.2436
104.1448,83.2436
104.0101,83.1934
104.0101,83.1933
103.8950,83.1072
103.8950,83.1072
103.8088,82.9921
103.8088,82.9921
103.7586,82.8574
103.7586,82.8574
103.7522,82.7978
103.7522,82.7978
103.7522,81.2500
105.0833,81.2500
105.0522,81.0936
105.0522,80.9064
105.0833,80.7500
103.7522,80.7500
103.7522,79.2022
103.7522,79.2022
103.7586,79.1426
103.7586,79.1426
103.8088,79.0079
103.8088,79.0079
103.8950,78.8928
103.8950,78.8928
104.0101,78.8066
104.0101,78.8066
104.1448,78.7564
104.1448,78.7564
104.2044,78.7500
105.7522,78.7500
105.7522,80.0811
105.9086,80.0500
106.0958,80.0500
106.2522,80.0811
106.2522,78.7500
107.3777,78.7500
107.4447,78.7303
107.4905,78.6775
107.5017,78.6260
107.5017,70.4148
107.4820,70.3477
107.4292,70.3020
107.3601,70.2920
107.2965,70.3211
107.2900,70.3271
101.1893,76.4278
101.1893,76.4278
101.1171,76.5000
101.0500,76.5671
100.9924,76.6056
100.8861,76.6766
100.7795,76.7208
100.7040,76.7521
100.5107,76.7905
100.5107,76.7905
100.5107,76.7905
100.3137,76.7905
99.8135,76.7905
99.7465,76.8102
99.7424,76.8129
99.6359,76.8875
99.4356,76.9809
99.2223,77.0381
99.0651,77.0518
99.0022,77.0573
99.0022,77.0573
99.0022,77.0573
98.9472,77.0525
98.7821,77.0381
98.5687,76.9809
98.3685,76.8875
98.1876,76.7608
98.0314,76.6046
97.9047,76.4237
97.8113,76.2234
97.7541,76.0101
97.7349,75.7900
97.7541,75.5699
97.8113,75.3565
97.9047,75.1563
98.0314,74.9754
98.1876,74.8192
98.1876,74.8192
98.1876,74.8192
98.3685,74.6925
98.3685,74.6925
98.4980,74.6321
98.5504,74.5859
98.5696,74.5187
98.5494,74.4519
98.4980,74.4073
98.3688,74.3471
98.3688,74.3471
98.3040,74.3017
98.9748,73.6310
98.9520,73.6310
98.8551,73.6050
98.7683,73.5549
98.6973,73.4839
98.6472,73.3971
98.6212,73.3002
98.6212,73.2774
97.9505,73.9482
97.9051,73.8834
97.9051,73.8834
97.8118,73.6833
97.8118,73.6833
97.7546,73.4700
97.7546,73.4700
97.7401,73.3045
97.7147,73.2395
97.6581,73.1985
97.5883,73.1946
97.5289,73.2277
97.0390,73.7176
97.0055,73.7789
97.0027,73.8053
97.0027,84.6181
96.9658,84.8514
96.8928,85.0760
96.8259,85.2073
96.7855,85.2864
96.6467,85.4775
96.4797,85.6445
96.2886,85.7833
96.2110,85.8229
96.0782,85.8906
96.0782,85.8906
96.0782,85.8906
95.9578,85.9297
95.8536,85.9636
95.6203,86.0005
95.6203,86.0005
95.3841,86.0005
95.1508,85.9636
94.9262,85.8906
94.7158,85.7833
94.5247,85.6445
94.3577,85.4775
94.2675,85.3534
94.2122,85.3108
94.1426,85.3048
94.0808,85.3374
94.0760,85.3423
93.9268,85.5044
93.9268,85.5044
93.9268,85.5044
93.7489,85.6429
93.7489,85.6429
93.7489,85.6429
93.5506,85.7502
93.5506,85.7502
93.3373,85.8234
93.3373,85.8234
93.3373,85.8234
93.1149,85.8605
93.1149,85.8605
92.8895,85.8605
92.8895,85.8605
92.6671,85.8234
92.4538,85.7502
92.2555,85.6429
92.0784,85.5050
92.0134,85.4793
91.9448,85.4929
91.9260,85.5050
91.8496,85.5645
91.7494,85.6424
91.7489,85.6429
91.5506,85.7502
91.5506,85.7502
91.3373,85.8234
91.3373,85.8234
91.3373,85.8234
91.1149,85.8605
91.1149,85.8605
90.8895,85.8605
90.8895,85.8605
90.6671,85.8234
90.4538,85.7502
90.2555,85.6429
90.2550,85.6424
90.1548,85.5645
90.0776,85.5044
89.9249,85.3385
89.8557,85.2326
89.8026,85.1872
89.7333,85.1778
89.6700,85.2073
89.6481,85.2326
89.6245,85.2687
88.9525,84.5967
88.9309,84.6776
88.8703,84.7824
88.7846,84.8681
88.6798,84.9287
88.5990,84.9503
89.2725,85.6238
89.2725,85.6238
89.2486,85.6424
89.0504,85.7497
89.0504,85.7497
88.8372,85.8229
88.6149,85.8600
88.3895,85.8600
88.1672,85.8229
87.9540,85.7497
87.9540,85.7497
87.7558,85.6424
87.7319,85.6238
87.7319,85.6238
88.4055,84.9503
88.3246,84.9287
88.2198,84.8681
88.1341,84.7824
88.0735,84.6776
88.0519,84.5967
87.3799,85.2687
87.3020,85.1495
87.3020,85.1495
87.2115,84.9431
87.1562,84.7246
87.1375,84.5000
87.1375,84.5000
87.1562,84.2754
87.2115,84.0569
87.3020,83.8505
87.3799,83.7313
88.0519,84.4032
88.0735,84.3224
88.1341,84.2176
88.2198,84.1319
88.3246,84.0713
88.4055,84.0497
87.7319,83.3762
87.7319,83.3761
87.7558,83.3576
87.9540,83.2503
87.9540,83.2503
88.1672,83.1771
88.3895,83.1400
88.6149,83.1400
88.8372,83.1771
89.0504,83.2503
89.0504,83.2503
89.2486,83.3576
89.2725,83.3761
89.2725,83.3761
88.5989,84.0497
88.6798,84.0713
88.7846,84.1319
88.8703,84.2176
88.9309,84.3224
88.9525,84.4032
89.6245,83.7313
89.6481,83.7674
89.7012,83.8127
89.7705,83.8222
89.8338,83.7927
89.8557,83.7674
89.9249,83.6615
89.9249,83.6615
90.0776,83.4956
90.0776,83.4956
90.0776,83.4956
90.2555,83.3571
90.2555,83.3571
90.4538,83.2498
90.4538,83.2498
90.6671,83.1766
90.8339,83.1488
90.8895,83.1395
91.1149,83.1395
91.1594,83.1469
91.3373,83.1766
91.5506,83.2498
91.5506,83.2498
91.7489,83.3571
91.7489,83.3571
91.9260,83.4950
91.9910,83.5207
92.0596,83.5071
92.0784,83.4950
92.2555,83.3571
92.2555,83.3571
92.4538,83.2498
92.4538,83.2498
92.6671,83.1766
92.8339,83.1488
92.8895,83.1395
93.1149,83.1395
93.1594,83.1469
93.3373,83.1766
93.5506,83.2498
93.5506,83.2498
93.7489,83.3571
93.8015,83.3981
93.8665,83.4238
93.9351,83.4102
93.9854,83.3617
94.0017,83.3003
94.0017,76.5000
90.8072,76.5000
90.8072,76.5000
90.7873,76.7266
90.7873,76.7266
90.7285,76.9463
90.7285,76.9463
90.6323,77.1525
90.5812,77.2255
89.9022,76.5464
89.9022,76.5527
89.8749,76.6544
89.8223,76.7456
89.7478,76.8201
89.6566,76.8727
89.5549,76.9000
89.5486,76.9000
90.2277,77.5790
90.1547,77.6301
90.1547,77.6301
89.9485,77.7263
89.9485,77.7263
89.7288,77.7851
89.7288,77.7851
89.5022,77.8050
89.5022,77.8050
89.2756,77.7851
89.2756,77.7851
89.0559,77.7263
89.0559,77.7263
88.8497,77.6301
88.7767,77.5790
89.4558,76.9000
89.4495,76.9000
89.3478,76.8727
89.2566,76.8201
89.1821,76.7456
89.1295,76.6544
89.1022,76.5527
89.1022,76.5464
88.4232,77.2255
88.3721,77.1525
88.2759,76.9463
88.2759,76.9463
88.2171,76.7266
88.2171,76.7266
88.1972,76.5000
88.1972,76.5000
88.2171,76.2734
88.2171,76.2734
88.2759,76.0537
88.2759,76.0537
88.3721,75.8475
88.3721,75.8475
88.4232,75.7745
89.1022,76.4536
89.1022,76.4473
89.1295,76.3456
89.1821,76.2544
89.2566,76.1799
89.3478,76.1273
89.4495,76.1000
89.4558,76.1000
88.7767,75.4210
88.8497,75.3699
89.0559,75.2737
89.0559,75.2737
89.2756,75.2149
89.2756,75.2149
89.5022,75.1950
89.5022,75.1950
89.7288,75.2149
89.7288,75.2149
89.9485,75.2737
89.9485,75.2737
90.1547,75.3699
90.1547,75.3699
90.2277,75.4210
90.2277,75.4210
89.5486,76.1000
89.5549,76.1000
89.6566,76.1273
89.7478,76.1799
89.8223,76.2544
89.8749,76.3456
89.9022,76.4473
89.9022,76.4536
90.5812,75.7745
90.5812,75.7745
90.6323,75.8475
90.6323,75.8475
90.7285,76.0537
90.7285,76.0537
90.7873,76.2734
90.7873,76.2734
90.8072,76.5000
94.0017,76.5000
94.0017,73.0143
94.0386,72.7810
94.0830,72.6445
94.1116,72.5564
94.1116,72.5564
94.1116,72.5564
94.1960,72.3908
94.2089,72.3221
94.1826,72.2574
94.1255,72.2171
94.0855,72.2105
90.9651,72.2105
90.8981,72.2302
90.8774,72.2468
90.4797,72.6445
90.4797,72.6445
90.3130,72.7656
90.2886,72.7833
90.1545,72.8517
90.0782,72.8906
90.0782,72.8906
90.0782,72.8906
89.9578,72.9297
89.8536,72.9636
89.6203,73.0005
89.6203,73.0005
89.3841,73.0005
83.1751,73.0005
83.1080,73.0202
83.0874,73.0368
79.0390,77.0852
79.0055,77.1465
79.0027,77.1729
79.0027,84.6181
78.9658,84.8514
78.8928,85.0760
78.8259,85.2073
78.7855,85.2864
78.6467,85.4775
78.4797,85.6445
78.2886,85.7833
78.2110,85.8229
78.0782,85.8906
78.0782,85.8906
78.0782,85.8906
77.9578,85.9297
77.8536,85.9636
77.6203,86.0005
77.6203,86.0005
77.3841,86.0005
77.1508,85.9636
76.9262,85.8906
76.7158,85.7833
76.5247,85.6445
76.3577,85.4775
76.2675,85.3534
76.2122,85.3108
76.1426,85.3048
76.0808,85.3374
76.0760,85.3423
75.9268,85.5044
75.9268,85.5044
75.9268,85.5044
75.7489,85.6429
75.7489,85.6429
75.7489,85.6429
75.5506,85.7502
75.5506,85.7502
75.3373,85.8234
75.3373,85.8234
75.3373,85.8234
75.1149,85.8605
75.1149,85.8605
74.8895,85.8605
74.8895,85.8605
74.6671,85.8234
74.4538,85.7502
74.2555,85.6429
74.0784,85.5050
74.0134,85.4793
73.9448,85.4929
73.9260,85.5050
73.8496,85.5645
73.7494,85.6424
73.7489,85.6429
73.5506,85.7502
73.5506,85.7502
73.3373,85.8234
73.3373,85.8234
73.3373,85.8234
73.1149,85.8605
73.1149,85.8605
72.8895,85.8605
72.8895,85.8605
72.6671,85.8234
72.4538,85.7502
72.2555,85.6429
72.2550,85.6424
72.1548,85.5645
72.0776,85.5044
71.9249,85.3385
71.8557,85.2326
71.8026,85.1872
71.7333,85.1778
71.6700,85.2073
71.6481,85.2326
71.6245,85.2687
70.9525,84.5967
70.9309,84.6776
70.8703,84.7824
70.7846,84.8681
70.6798,84.9287
70.5990,84.9503
71.2725,85.6238
71.2725,85.6238
71.2486,85.6424
71.0504,85.7497
71.0504,85.7497
70.8372,85.8229
70.6149,85.8600
70.3895,85.8600
70.1672,85.8229
69.9540,85.7497
69.9540,85.7497
69.7558,85.6424
69.7319,85.6238
69.7319,85.6238
70.4055,84.9503
70.3246,84.9287
70.2198,84.8681
70.1341,84.7824
70.0735,84.6776
70.0519,84.5967
69.3799,85.2687
69.3020,85.1495
69.3020,85.1495
69.2115,84.9431
69.1952,84.8787
63.8527,84.8787
63.8527,85.1213
63.8210,85.3618
63.7583,85.5961
63.6827,85.7785
63.6654,85.8202
63.5441,86.0303
63.5441,86.0303
63.5441,86.0303
63.3965,86.2227
63.3965,86.2227
63.2249,86.3943
63.2249,86.3943
63.1712,86.4355
63.0325,86.5419
62.8224,86.6632
62.5983,86.7561
62.3640,86.8188
62.1836,86.8426
62.1235,86.8505
62.1235,86.8505
61.8809,86.8505
61.8328,86.8442
61.6404,86.8188
61.4061,86.7561
61.1820,86.6632
60.9719,86.5419
60.7795,86.3943
60.6079,86.2227
60.4603,86.0303
60.3390,85.8202
60.2461,85.5961
60.1834,85.3618
60.1517,85.1213
60.1517,84.8787
60.1834,84.6382
60.2461,84.4039
60.3390,84.1798
60.4603,83.9697
60.5212,83.8903
60.6079,83.7773
60.6079,83.7773
60.7795,83.6057
60.7795,83.6057
60.9719,83.4581
60.9719,83.4581
60.9719,83.4581
61.1528,83.3536
61.1820,83.3368
61.1820,83.3368
61.4061,83.2439
61.6404,83.1812
61.8809,83.1495
61.8809,83.1495
62.1235,83.1495
62.1235,83.1495
62.3640,83.1812
62.5983,83.2439
62.8224,83.3368
62.8224,83.3368
63.0325,83.4581
63.2249,83.6057
63.2249,83.6057
63.3965,83.7773
63.3965,83.7773
63.5441,83.9697
63.6654,84.1798
63.6654,84.1798
63.7583,84.4039
63.8210,84.6382
63.8527,84.8787
69.1952,84.8787
69.1562,84.7246
69.1375,84.5000
69.1375,84.5000
69.1562,84.2754
69.2115,84.0569
69.3020,83.8505
69.3799,83.7313
70.0519,84.4032
70.0735,84.3224
70.1341,84.2176
70.2198,84.1319
70.3246,84.0713
70.4055,84.0497
69.7319,83.3762
69.7319,83.3761
69.7558,83.3576
69.9540,83.2503
69.9540,83.2503
70.1672,83.1771
70.3895,83.1400
70.6149,83.1400
70.8372,83.1771
71.0504,83.2503
71.0504,83.2503
71.2486,83.3576
71.2725,83.3761
71.2725,83.3761
70.5989,84.0497
70.6798,84.0713
70.7846,84.1319
70.8703,84.2176
70.9309,84.3224
70.9525,84.4032
71.6245,83.7313
71.6481,83.7674
71.7012,83.8127
71.7705,83.8222
71.8338,83.7927
71.8557,83.7674
71.9249,83.6615
71.9249,83.6615
72.0776,83.4956
72.0776,83.4956
72.0776,83.4956
72.2555,83.3571
72.2555,83.3571
72.4538,83.2498
72.4538,83.2498
72.6671,83.1766
72.8339,83.1488
72.8895,83.1395
73.1149,83.1395
73.1594,83.1469
73.3373,83.1766
73.5506,83.2498
73.5506,83.2498
73.7489,83.3571
73.7489,83.3571
73.9260,83.4950
73.9910,83.5207
74.0596,83.5071
74.0784,83.4950
74.2555,83.3571
74.2555,83.3571
74.4538,83.2498
74.4538,83.2498
74.6671,83.1766
74.8339,83.1488
74.8895,83.1395
75.1149,83.1395
75.1594,83.1469
75.3373,83.1766
75.5506,83.2498
75.5506,83.2498
75.7489,83.3571
75.8015,83.3981
75.8665,83.4238
75.9351,83.4102
75.9854,83.3617
76.0017,83.3003
76.0017,76.3819
76.0386,76.1486
76.1116,75.9240
76.1682,75.8130
76.2189,75.7136
76.3232,75.5699
76.3577,75.5225
81.5247,70.3555
81.7158,70.2167
81.9262,70.1094
82.1508,70.0364
82.3841,69.9995
82.3841,69.9995
88.8293,69.9995
88.8963,69.9798
88.9170,69.9632
89.3147,69.5655
89.5058,69.4267
89.7162,69.3194
89.9408,69.2464
90.1741,69.2095
90.1741,69.2095
97.8065,69.2095
99.1203,69.2095
99.1203,69.2095
99.3536,69.2464
99.5782,69.3194
99.7886,69.4267
99.8976,69.5059
99.9797,69.5655
99.9797,69.5655
99.9797,69.5655
100.1467,69.7325
100.1467,69.7325
100.1467,69.7325
100.2063,69.8145
100.2855,69.9236
100.3928,70.1340
100.4658,70.3586
100.5027,70.5919
100.5027,70.8281
100.4658,71.0614
100.3928,71.2860
100.2855,71.4964
100.1467,71.6875
99.9797,71.8545
99.7886,71.9933
99.7520,72.0120
99.7013,72.0600
99.6845,72.1278
99.6976,72.1663
99.7004,72.1983
99.0296,72.8690
99.0524,72.8690
99.1493,72.8950
99.2361,72.9451
99.3071,73.0161
99.3572,73.1029
99.3832,73.1998
99.3832,73.2226
100.0539,72.5518
100.0993,72.6166
100.1926,72.8167
100.1926,72.8167
100.2498,73.0300
100.2498,73.0300
100.2690,73.2500
100.2690,73.2500
100.2498,73.4700
100.2498,73.4700
100.1926,73.6833
100.1926,73.6833
100.0993,73.8834
100.0993,73.8834
100.0539,73.9482
100.0539,73.9482
99.3832,73.2774
99.3832,73.3002
99.3572,73.3971
99.3071,73.4839
99.2361,73.5549
99.1493,73.6050
99.0524,73.6310
99.0296,73.6310
99.7004,74.3017
99.6356,74.3471
99.5064,74.4073
99.4540,74.4535
99.4348,74.5207
99.4550,74.5876
99.5064,74.6321
99.6359,74.6925
99.6359,74.6925
99.7055,74.7412
99.7424,74.7671
99.8086,74.7894
99.8135,74.7895
99.9464,74.7895
100.0135,74.7698
100.0341,74.7532
107.7799,67.0074
107.8068,66.9671
107.8260,66.9208
107.8340,66.9015
107.8597,66.8533
107.9961,66.5982
108.1808,66.3218
108.2017,66.2551
108.2017,66.2529
108.2017,65.2963
108.1820,65.2293
108.1292,65.1835
108.0601,65.1736
107.9974,65.2018
107.9215,65.2664
107.9215,65.2664
107.7108,65.3938
107.4824,65.4857
107.4824,65.4857
107.2422,65.5398
107.2422,65.5398
107.0975,65.5500
107.0975,65.5500
106.2522,65.5500
106.2522,64.3272
106.1084,64.3500
105.8960,64.3500
105.7522,64.3272
105.7522,65.5500
104.9069,65.5500
104.9069,65.5500
104.7622,65.5398
104.7622,65.5398
104.5220,65.4857
104.5220,65.4857
104.2936,65.3938
104.0829,65.2664
104.0829,65.2664
103.8954,65.1068
103.7358,64.9193
103.7358,64.9193
103.6084,64.7086
103.5165,64.4802
103.5165,64.4802
103.4624,64.2400
103.4624,64.2400
103.4522,64.0953
103.4522,64.0953
103.4522,63.2500
104.6750,63.2500
104.6522,63.1062
104.6522,62.8938
104.6750,62.7500
103.4522,62.7500
103.4522,62.2022
97.2522,62.2022
97.2522,63.7500
95.9211,63.7500
95.9522,63.9064
95.9522,64.0936
95.9211,64.2500
97.2522,64.2500
97.2522,65.7978
97.2458,65.8574
97.2458,65.8574
97.1956,65.9921
97.1956,65.9921
97.1094,66.1072
97.1094,66.1072
96.9943,66.1933
96.9943,66.1934
96.8596,66.2436
96.8596,66.2436
96.8000,66.2500
96.8000,66.2500
95.2522,66.2500
95.2522,64.9189
95.0958,64.9500
94.9086,64.9500
94.7522,64.9189
94.7522,66.2500
93.2044,66.2500
93.2044,66.2500
93.1448,66.2436
93.1448,66.2436
93.0101,66.1934
93.0101,66.1933
92.8950,66.1072
92.8950,66.1072
92.8088,65.9921
92.8088,65.9921
92.7586,65.8574
92.7586,65.8574
92.7522,65.7978
92.7522,65.7978
92.7522,64.2500
94.0833,64.2500
94.0522,64.0936
94.0522,63.9064
94.0833,63.7500
92.7522,63.7500
92.7522,62.2022
92.7522,62.2022
92.7586,62.1426
92.7586,62.1426
92.8088,62.0079
92.8088,62.0079
92.8950,61.8928
92.8950,61.8928
93.0101,61.8066
93.0101,61.8066
93.1448,61.7564
93.1448,61.7564
93.2044,61.7500
94.7522,61.7500
94.7522,63.0811
94.9086,63.0500
95.0958,63.0500
95.2522,63.0811
95.2522,61.7500
96.8000,61.7500
96.8596,61.7564
96.8596,61.7564
96.9943,61.8066
96.9943,61.8066
97.1094,61.8928
97.1094,61.8928
97.1956,62.0079
97.1956,62.0079
97.2458,62.1426
97.2458,62.1426
97.2522,62.2022
103.4522,62.2022
103.4522,61.9047
103.4522,61.9047
103.4624,61.7600
103.4624,61.7600
103.5165,61.5198
103.5165,61.5198
103.6084,61.2914
103.7358,61.0807
103.7358,61.0807
103.8954,60.8932
104.0829,60.7336
104.0829,60.7336
104.2936,60.6062
104.5220,60.5143
104.5220,60.5143
104.7622,60.4602
104.7622,60.4602
104.9069,60.4500
105.7522,60.4500
105.7522,61.6728
105.8960,61.6500
106.1084,61.6500
106.2522,61.6728
106.2522,60.4500
107.0975,60.4500
107.2422,60.4602
107.2422,60.4602
107.4824,60.5143
107.4824,60.5143
107.7108,60.6062
107.9215,60.7336
107.9215,60.7336
108.1090,60.8932
108.2686,61.0807
108.2686,61.0807
108.3285,61.1799
108.3801,61.2271
108.4489,61.2389
108.5132,61.2116
108.5512,61.1581
108.5779,61.0846
108.5797,61.0807
108.7625,60.6888
108.7625,60.6888
108.8160,60.5961
108.9761,60.3188
108.9926,60.2509
108.9697,60.1849
108.9564,60.1691
108.8241,60.0368
108.7628,60.0033
108.7364,60.0005
101.9037,60.0005
101.8843,59.9967
101.8070,59.9813
101.7104,59.9621
101.6570,59.9400
101.5283,59.8866
101.3644,59.7771
101.2251,59.6378
101.2251,59.6378
101.2149,59.6276
101.2149,59.6276
100.1241,58.5368
100.0628,58.5033
100.0364,58.5005
99.2724,58.5005
99.2054,58.5202
99.1596,58.5730
99.1497,58.6421
99.1532,58.6584
99.1873,58.7785
99.1873,58.7785
99.2078,59.0000
99.2078,59.0000
99.1873,59.2215
99.1873,59.2215
99.1264,59.4355
99.1264,59.4355
99.0273,59.6347
99.0273,59.6347
98.8932,59.8122
98.7288,59.9621
98.7288,59.9621
98.5396,60.0792
98.5396,60.0792
98.5396,60.0792
98.3321,60.1596
98.1134,60.2005
98.1134,60.2005
97.8910,60.2005
97.8910,60.2005
97.6723,60.1596
97.4648,60.0792
97.2756,59.9621
97.1112,59.8122
96.9771,59.6347
96.8780,59.4355
96.8171,59.2215
96.7966,59.0000
96.8171,58.7785
96.8249,58.7510
96.8512,58.6584
96.8506,58.5886
96.8124,58.5301
96.7486,58.5016
96.7320,58.5005
93.4680,58.5005
93.4009,58.5202
93.3803,58.5368
91.0390,60.8781
91.0055,60.9394
91.0027,60.9658
91.0027,61.9070
91.0224,61.9740
91.0719,62.0182
91.1299,62.0468
91.1299,62.0468
91.3752,62.2107
91.5970,62.4052
91.7915,62.6270
91.9554,62.8723
92.0859,63.1369
92.1807,63.4163
92.1807,63.4163
92.2382,63.7056
92.2382,63.7056
92.2575,64.0000
92.2575,64.0000
92.2382,64.2944
92.2382,64.2944
92.2382,64.2944
92.2013,64.4802
92.1807,64.5837
92.1807,64.5837
92.0859,64.8631
91.9554,65.1277
91.9554,65.1277
91.7915,65.3730
91.5970,65.5948
91.3752,65.7893
91.1299,65.9532
91.1299,65.9532
90.8653,66.0837
90.5859,66.1785
90.2966,66.2360
90.2683,66.2379
90.0022,66.2553
90.0022,66.2553
90.0022,66.2553
89.7597,66.2394
89.7078,66.2360
89.4185,66.1785
89.1391,66.0837
88.8745,65.9532
88.6292,65.7893
88.4074,65.5948
88.2129,65.3730
88.0490,65.1277
87.9185,64.8631
87.8237,64.5837
87.7662,64.2944
87.7469,64.0000
87.7469,64.0000
87.7662,63.7056
87.7662,63.7056
87.8237,63.4163
87.9185,63.1369
88.0490,62.8723
88.2129,62.6270
88.2555,62.5784
88.4074,62.4052
88.6292,62.2107
88.6411,62.2028
88.8745,62.0468
88.8860,62.0412
88.9325,62.0182
88.9840,61.9709
89.0017,61.9070
89.0017,60.4015
89.0017,60.4015
89.0198,60.3107
89.0401,60.2082
89.1156,60.0261
89.1156,60.0261
89.1156,60.0261
89.2251,59.8622
89.2251,59.8622
90.3751,58.7122
90.4086,58.6509
90.4036,58.5812
90.3617,58.5252
90.2963,58.5008
90.2874,58.5005
88.2724,58.5005
88.2054,58.5202
88.1596,58.5730
88.1497,58.6421
88.1532,58.6584
88.1873,58.7785
88.1873,58.7785
88.2078,59.0000
88.2078,59.0000
88.1873,59.2215
88.1873,59.2215
88.1264,59.4355
88.1264,59.4355
88.0273,59.6347
88.0273,59.6347
87.8932,59.8122
87.7288,59.9621
87.7288,59.9621
87.5396,60.0792
87.5396,60.0792
87.5396,60.0792
87.3321,60.1596
87.1134,60.2005
87.1134,60.2005
86.8910,60.2005
86.8910,60.2005
86.6723,60.1596
86.4648,60.0792
86.2756,59.9621
86.1112,59.8122
85.9771,59.6347
85.8780,59.4355
85.8171,59.2215
85.7966,59.0000
85.8171,58.7785
85.8249,58.7510
85.8512,58.6584
85.8506,58.5886
85.8124,58.5301
85.7486,58.5016
85.7320,58.5005
84.2724,58.5005
84.2054,58.5202
84.1596,58.5730
84.1497,58.6421
84.1532,58.6584
84.1873,58.7785
84.1873,58.7785
84.2078,59.0000
84.2078,59.0000
84.1873,59.2215
84.1873,59.2215
84.1264,59.4355
84.1264,59.4355
84.0273,59.6347
84.0273,59.6347
83.8932,59.8122
83.7288,59.9621
83.7288,59.9621
83.5396,60.0792
83.5396,60.0792
83.5396,60.0792
83.3321,60.1596
83.1134,60.2005
83.1134,60.2005
82.8910,60.2005
82.8910,60.2005
82.6723,60.1596
82.4648,60.0792
82.2756,59.9621
82.1112,59.8122
81.9771,59.6347
81.8780,59.4355
81.8171,59.2215
81.7966,59.0000
81.8036,58.9238
81.7902,58.8552
81.7418,58.8048
81.6739,58.7885
81.6079,58.8115
81.5925,58.8247
78.8788,61.5383
78.8453,61.5996
78.8503,61.6693
78.8922,61.7253
78.9576,61.7497
78.9665,61.7500
79.7522,61.7500
79.7522,63.0811
79.9086,63.0500
80.0958,63.0500
80.2522,63.0811
80.2522,61.7500
81.0474,61.7500
81.0474,61.7500
81.1817,61.7606
81.4034,61.8164
81.6115,61.9110
81.6115,61.9110
81.7994,62.0412
81.9610,62.2028
82.0912,62.3907
82.0912,62.3907
82.1858,62.5988
82.2416,62.8205
82.2522,62.9548
82.2522,63.7500
80.9211,63.7500
80.9522,63.9064
80.9522,64.0936
80.9211,64.2500
82.2522,64.2500
82.2522,65.0452
82.2416,65.1795
82.1858,65.4012
82.0912,65.6093
82.0912,65.6093
81.9610,65.7972
81.7994,65.9588
81.6115,66.0890
81.6115,66.0890
81.4034,66.1836
81.1817,66.2394
81.0474,66.2500
80.2522,66.2500
80.2522,66.2500
80.2522,64.9189
80.0958,64.9500
79.9086,64.9500
79.7522,64.9189
79.7522,66.2500
78.9570,66.2500
78.9570,66.2500
78.8227,66.2394
78.6010,66.1836
78.3929,66.0890
78.3929,66.0890
78.2050,65.9588
78.0434,65.7972
77.9132,65.6093
77.9132,65.6093
77.8186,65.4012
77.7628,65.1795
77.7522,65.0452
77.7522,65.0452
77.7522,64.2500
79.0833,64.2500
79.0522,64.0936
79.0522,63.9064
79.0833,63.7500
77.7522,63.7500
77.7522,62.9643
77.7325,62.8972
77.6797,62.8515
77.6106,62.8415
77.5470,62.8706
77.5405,62.8766
77.1896,63.2275
77.1561,63.2888
77.1599,63.3550
77.1807,63.4163
77.1807,63.4163
77.2382,63.7056
77.2382,63.7056
77.2575,64.0000
77.2575,64.0000
77.2382,64.2944
77.2382,64.2944
77.2382,64.2944
77.2013,64.4802
77.1807,64.5837
77.1807,64.5837
77.0859,64.8631
76.9554,65.1277
76.9554,65.1277
76.7915,65.3730
76.5970,65.5948
76.3752,65.7893
76.1299,65.9532
76.1299,65.9532
75.8653,66.0837
75.5859,66.1785
75.2966,66.2360
75.2683,66.2379
75.0022,66.2553
75.0022,66.2553
75.0022,66.2553
74.7597,66.2394
74.7078,66.2360
74.4185,66.1785
74.1391,66.0837
73.8745,65.9532
73.6292,65.7893
73.4074,65.5948
73.2129,65.3730
73.0490,65.1277
72.9185,64.8631
72.8237,64.5837
72.7662,64.2944
72.7469,64.0000
72.7469,64.0000
72.7662,63.7056
72.7662,63.7056
72.8237,63.4163
72.9185,63.1369
73.0490,62.8723
73.2129,62.6270
73.2555,62.5784
73.4074,62.4052
73.6292,62.2107
73.8745,62.0468
73.8745,62.0468
74.1391,61.9163
74.4185,61.8215
74.4185,61.8215
74.4185,61.8215
74.7078,61.7640
74.7078,61.7640
74.7078,61.7640
75.0022,61.7447
75.0022,61.7447
75.2966,61.7640
75.2966,61.7640
75.2966,61.7640
75.2966,61.7640
75.2966,61.7640
75.5859,61.8215
75.5859,61.8215
75.6472,61.8423
75.7170,61.8452
75.7747,61.8126
78.5873,59.0000
73.2078,59.0000
73.2078,59.0000
73.1873,59.2215
73.1873,59.2215
73.1264,59.4355
73.1264,59.4355
73.0273,59.6347
73.0273,59.6347
72.8932,59.8122
72.7288,59.9621
72.7288,59.9621
72.5396,60.0792
72.5396,60.0792
72.5396,60.0792
72.3321,60.1596
72.1134,60.2005
72.1134,60.2005
71.8910,60.2005
71.8910,60.2005
71.6723,60.1596
71.4648,60.0792
71.2756,59.9621
71.1841,59.8787
63.8527,59.8787
63.8527,60.1213
63.8210,60.3618
63.7583,60.5961
63.7013,60.7336
63.6654,60.8202
63.5441,61.0303
63.5441,61.0303
63.5441,61.0303
63.3965,61.2227
63.3965,61.2227
63.2249,61.3943
63.2249,61.3943
63.0325,61.5419
62.8224,61.6632
62.5983,61.7561
62.3640,61.8188
62.1857,61.8423
62.1235,61.8505
62.1235,61.8505
61.8809,61.8505
61.8187,61.8423
61.6404,61.8188
61.4061,61.7561
61.1820,61.6632
60.9719,61.5419
60.7795,61.3943
60.6079,61.2227
60.4603,61.0303
60.3390,60.8202
60.2461,60.5961
60.1834,60.3618
60.1517,60.1213
60.1517,59.8787
60.1834,59.6382
60.2461,59.4039
60.3390,59.1798
60.4603,58.9697
60.5993,58.7885
60.6079,58.7773
60.6079,58.7773
60.7795,58.6057
60.7795,58.6057
60.9719,58.4581
60.9719,58.4581
60.9719,58.4581
61.1820,58.3368
61.1820,58.3368
61.4061,58.2439
61.6158,58.1878
61.6404,58.1812
61.6404,58.1812
61.6404,58.1812
61.8809,58.1495
61.8809,58.1495
62.1235,58.1495
62.1235,58.1495
62.3640,58.1812
62.5983,58.2439
62.8224,58.3368
62.8224,58.3368
63.0325,58.4581
63.2249,58.6057
63.2249,58.6057
63.3965,58.7773
63.3965,58.7773
63.5441,58.9697
63.6654,59.1798
63.6654,59.1798
63.7583,59.4039
63.8210,59.6382
63.8527,59.8787
71.1841,59.8787
71.1112,59.8122
70.9771,59.6347
70.8780,59.4355
70.8171,59.2215
70.7966,59.0000
70.8171,58.7785
70.8780,58.5645
70.8801,58.5603
70.9771,58.3653
70.9771,58.3653
71.1112,58.1878
71.2756,58.0379
71.2756,58.0379
71.4648,57.9208
71.4648,57.9208
71.6723,57.8404
71.8910,57.7995
72.1134,57.7995
72.3321,57.8404
72.4633,57.8912
72.5396,57.9208
72.5396,57.9208
72.7288,58.0379
72.7288,58.0379
72.8932,58.1878
73.0273,58.3653
73.0273,58.3653
73.1264,58.5645
73.1264,58.5645
73.1873,58.7785
73.1873,58.7785
73.2078,59.0000
78.5873,59.0000
80.7207,56.8666
80.7207,56.8665
80.8644,56.7229
80.8644,56.7229
81.0283,56.6134
81.0283,56.6134
81.1009,56.5833
81.1570,56.5600
81.2104,56.5379
81.2104,56.5379
81.2104,56.5379
81.3070,56.5187
81.4037,56.4995
81.4037,56.4995
92.9037,56.4995
100.4037,56.4995
100.6007,56.4995
100.6007,56.4995
100.7940,56.5379
100.7940,56.5379
100.7940,56.5379
100.7940,56.5379
100.8695,56.5692
100.8695,56.5692
100.9761,56.6134
100.9761,56.6134
100.9761,56.6134
101.1400,56.7229
101.1400,56.7229
101.6900,57.2729
101.7513,57.3064
101.8210,57.3014
101.8770,57.2595
101.9014,57.1941
101.9017,57.1852
101.9017,55.9521
101.9017,55.9521
101.9017,55.9521
101.9081,55.8925
101.9584,55.7577
102.0025,55.6988
102.0269,55.6333
102.0120,55.5651
101.9626,55.5157
101.9032,55.5005
57.6267,55.5005
57.5597,55.5202
57.5139,55.5730
57.5027,55.6245
57.5027,89.3755
57.5224,89.4425
57.5752,89.4883
57.6267,89.4995
126.3777,89.4995
126.4447,89.4798
126.4905,89.4270
126.5017,89.3755
126.5017,84.8787
123.8527,84.8787
123.8527,85.1213
123.8210,85.3618
123.7583,85.5961
123.6827,85.7785
123.6654,85.8202
123.5441,86.0303
123.5441,86.0303
123.5441,86.0303
123.3965,86.2227
123.3965,86.2227
123.2249,86.3943
123.2249,86.3943
123.1712,86.4355
123.0325,86.5419
122.8224,86.6632
122.5983,86.7561
122.3640,86.8188
122.1836,86.8426
122.1235,86.8505
122.1235,86.8505
121.8809,86.8505
121.8328,86.8442
121.6404,86.8188
121.4061,86.7561
121.1820,86.6632
120.9719,86.5419
120.7795,86.3943
120.6079,86.2227
120.4603,86.0303
120.4428,86.0000
115.2078,86.0000
115.2078,86.0000
115.1873,86.2215
115.1873,86.2215
115.1264,86.4355
115.1264,86.4355
115.0273,86.6347
115.0273,86.6347
114.8932,86.8122
114.7288,86.9621
114.7288,86.9621
114.5396,87.0792
114.5396,87.0792
114.5396,87.0792
114.3321,87.1596
114.1134,87.2005
114.1134,87.2005
113.8910,87.2005
113.8910,87.2005
113.6723,87.1596
113.4648,87.0792
113.2756,86.9621
113.1112,86.8122
112.9771,86.6347
112.8780,86.4355
112.8171,86.2215
112.7966,86.0000
112.7966,86.0000
104.2078,86.0000
104.2078,86.0000
104.1873,86.2215
104.1873,86.2215
104.1264,86.4355
104.1264,86.4355
104.0273,86.6347
104.0273,86.6347
103.8932,86.8122
103.7288,86.9621
103.7288,86.9621
103.5396,87.0792
103.5396,87.0792
103.5396,87.0792
103.3321,87.1596
103.1134,87.2005
103.1134,87.2005
102.8910,87.2005
102.8910,87.2005
102.8883,87.2000
100.5975,87.2000
100.5783,87.4799
100.5783,87.4799
100.5213,87.7545
100.5213,87.7545
100.4273,88.0188
100.4273,88.0188
100.2983,88.2679
100.1365,88.4971
100.1365,88.4971
100.1365,88.4971
99.9450,88.7021
99.9450,88.7021
99.7274,88.8791
99.7274,88.8791
99.7274,88.8791
99.4878,89.0249
99.2789,89.1156
99.2305,89.1366
98.9604,89.2123
98.7160,89.2459
98.6825,89.2505
98.6825,89.2505
98.4019,89.2505
98.3720,89.2464
98.1240,89.2123
97.8539,89.1366
97.5966,89.0249
97.3570,88.8791
97.1394,88.7021
96.9479,88.4971
96.7861,88.2679
96.6571,88.0188
96.5631,87.7545
96.5631,87.7545
96.5631,87.7545
96.5366,87.6270
96.5061,87.4799
96.4869,87.2000
87.5175,87.2000
87.4983,87.4799
87.4983,87.4799
87.4413,87.7545
87.4413,87.7545
87.3473,88.0188
87.3473,88.0188
87.2183,88.2679
87.0565,88.4971
87.0565,88.4971
87.0565,88.4971
86.8650,88.7021
86.8650,88.7021
86.6474,88.8791
86.6474,88.8791
86.6474,88.8791
86.4078,89.0249
86.1989,89.1156
86.1505,89.1366
85.8804,89.2123
85.6360,89.2459
85.6025,89.2505
85.6025,89.2505
85.3219,89.2505
85.2920,89.2464
85.0440,89.2123
84.7739,89.1366
84.5166,89.0249
84.2770,88.8791
84.0594,88.7021
83.8679,88.4971
83.7061,88.2679
83.5771,88.0188
83.4831,87.7545
83.4831,87.7545
83.4831,87.7545
83.4566,87.6270
83.4261,87.4799
83.4069,87.2000
82.5975,87.2000
82.5783,87.4799
82.5783,87.4799
82.5213,87.7545
82.5213,87.7545
82.4273,88.0188
82.4273,88.0188
82.2983,88.2679
82.1365,88.4971
82.1365,88.4971
82.1365,88.4971
81.9450,88.7021
81.9450,88.7021
81.7274,88.8791
81.7274,88.8791
81.7274,88.8791
81.4878,89.0249
81.2789,89.1156
81.2305,89.1366
80.9604,89.2123
80.7160,89.2459
80.6825,89.2505
80.6825,89.2505
80.4019,89.2505
80.3720,89.2464
80.1240,89.2123
79.8539,89.1366
79.5966,89.0249
79.3570,88.8791
79.1394,88.7021
78.9479,88.4971
78.7861,88.2679
78.6571,88.0188
78.5631,87.7545
78.5631,87.7545
78.5631,87.7545
78.5366,87.6270
78.5061,87.4799
78.4869,87.2000
69.5175,87.2000
69.4983,87.4799
69.4983,87.4799
69.4413,87.7545
69.4413,87.7545
69.3473,88.0188
69.3473,88.0188
69.2183,88.2679
69.0565,88.4971
69.0565,88.4971
69.0565,88.4971
68.8650,88.7021
68.8650,88.7021
68.6474,88.8791
68.6474,88.8791
68.6474,88.8791
68.4078,89.0249
68.1989,89.1156
68.1505,89.1366
67.8804,89.2123
67.6360,89.2459
67.6025,89.2505
67.6025,89.2505
67.3219,89.2505
67.2920,89.2464
67.0440,89.2123
66.7739,89.1366
66.5166,89.0249
66.2770,88.8791
66.0594,88.7021
65.8679,88.4971
65.7061,88.2679
65.5771,88.0188
65.4831,87.7545
65.4831,87.7545
65.4831,87.7545
65.4566,87.6270
65.4261,87.4799
65.4069,87.2000
65.4261,86.9201
65.4601,86.7561
65.4831,86.6455
65.4831,86.6455
65.5771,86.3812
65.5771,86.3812
65.7061,86.1321
65.8679,85.9029
65.8679,85.9029
66.0594,85.6979
66.1270,85.6429
66.2770,85.5209
66.2770,85.5209
66.2770,85.5209
66.5166,85.3751
66.7739,85.2634
67.0440,85.1877
67.0440,85.1877
67.0440,85.1877
67.1830,85.1686
67.3219,85.1495
67.3219,85.1495
67.6025,85.1495
67.6025,85.1495
67.8804,85.1877
67.8804,85.1877
68.1505,85.2634
68.4078,85.3751
68.6474,85.5209
68.8650,85.6979
69.0565,85.9029
69.0565,85.9029
69.2183,86.1321
69.3473,86.3812
69.4413,86.6455
69.4413,86.6455
69.4983,86.9201
69.4983,86.9201
69.5175,87.2000
78.4869,87.2000
78.5061,86.9201
78.5401,86.7561
78.5631,86.6455
78.5631,86.6455
78.6571,86.3812
78.6571,86.3812
78.7861,86.1321
78.9479,85.9029
78.9479,85.9029
79.1394,85.6979
79.2070,85.6429
79.3570,85.5209
79.3570,85.5209
79.3570,85.5209
79.5966,85.3751
79.8539,85.2634
80.1240,85.1877
80.1240,85.1877
80.1240,85.1877
80.2630,85.1686
80.4019,85.1495
80.4019,85.1495
80.6825,85.1495
80.6825,85.1495
80.9604,85.1877
80.9604,85.1877
81.2305,85.2634
81.4878,85.3751
81.7274,85.5209
81.9450,85.6979
82.1365,85.9029
82.1365,85.9029
82.2983,86.1321
82.4273,86.3812
82.5213,86.6455
82.5213,86.6455
82.5783,86.9201
82.5783,86.9201
82.5975,87.2000
83.4069,87.2000
83.4261,86.9201
83.4601,86.7561
83.4831,86.6455
83.4831,86.6455
83.5771,86.3812
83.5771,86.3812
83.7061,86.1321
83.8679,85.9029
83.8679,85.9029
84.0594,85.6979
84.1270,85.6429
84.2770,85.5209
84.2770,85.5209
84.2770,85.5209
84.5166,85.3751
84.7739,85.2634
85.0440,85.1877
85.0440,85.1877
85.0440,85.1877
85.1830,85.1686
85.3219,85.1495
85.3219,85.1495
85.6025,85.1495
85.6025,85.1495
85.8804,85.1877
85.8804,85.1877
86.1505,85.2634
86.4078,85.3751
86.6474,85.5209
86.8650,85.6979
87.0565,85.9029
87.0565,85.9029
87.2183,86.1321
87.3473,86.3812
87.4413,86.6455
87.4413,86.6455
87.4983,86.9201
87.4983,86.9201
87.5175,87.2000
96.4869,87.2000
96.5061,86.9201
96.5401,86.7561
96.5631,86.6455
96.5631,86.6455
96.6571,86.3812
96.6571,86.3812
96.7861,86.1321
96.9479,85.9029
96.9479,85.9029
97.1394,85.6979
97.2070,85.6429
97.3570,85.5209
97.3570,85.5209
97.3570,85.5209
97.5966,85.3751
97.8539,85.2634
98.1240,85.1877
98.1240,85.1877
98.1240,85.1877
98.2630,85.1686
98.4019,85.1495
98.4019,85.1495
98.6825,85.1495
98.6825,85.1495
98.9604,85.1877
98.9604,85.1877
99.2305,85.2634
99.4878,85.3751
99.7274,85.5209
99.9450,85.6979
100.1365,85.9029
100.1365,85.9029
100.2983,86.1321
100.4273,86.3812
100.5213,86.6455
100.5213,86.6455
100.5783,86.9201
100.5783,86.9201
100.5975,87.2000
102.8883,87.2000
102.6723,87.1596
102.4648,87.0792
102.2756,86.9621
102.1112,86.8122
101.9771,86.6347
101.8780,86.4355
101.8171,86.2215
101.7966,86.0000
101.8171,85.7785
101.8780,85.5645
101.8780,85.5645
101.9771,85.3653
101.9771,85.3653
102.1112,85.1878
102.2756,85.0379
102.2756,85.0379
102.4648,84.9208
102.4648,84.9208
102.6723,84.8404
102.8910,84.7995
103.1134,84.7995
103.3321,84.8404
103.4037,84.8681
103.5396,84.9208
103.5396,84.9208
103.7288,85.0379
103.7288,85.0379
103.8932,85.1878
104.0273,85.3653
104.0273,85.3653
104.1264,85.5645
104.1264,85.5645
104.1873,85.7785
104.1873,85.7785
104.2078,86.0000
112.7966,86.0000
112.8171,85.7785
112.8780,85.5645
112.8780,85.5645
112.9771,85.3653
112.9771,85.3653
113.1112,85.1878
113.2756,85.0379
113.2756,85.0379
113.4648,84.9208
113.4648,84.9208
113.6723,84.8404
113.8910,84.7995
114.1134,84.7995
114.3321,84.8404
114.4037,84.8681
114.5396,84.9208
114.5396,84.9208
114.7288,85.0379
114.7288,85.0379
114.8932,85.1878
115.0273,85.3653
115.0273,85.3653
115.1264,85.5645
115.1264,85.5645
115.1873,85.7785
115.1873,85.7785
115.2078,86.0000
120.4428,86.0000
120.3390,85.8202
120.2461,85.5961
120.1834,85.3618
120.1517,85.1213
120.1517,84.8787
120.1834,84.6382
120.2461,84.4039
120.3390,84.1798
120.4603,83.9697
120.5212,83.8903
120.6079,83.7773
120.6079,83.7773
120.7795,83.6057
120.7795,83.6057
120.9719,83.4581
120.9719,83.4581
120.9719,83.4581
121.1528,83.3536
121.1820,83.3368
121.1820,83.3368
121.4061,83.2439
121.6404,83.1812
121.8809,83.1495
121.8809,83.1495
122.1235,83.1495
122.1235,83.1495
122.3640,83.1812
122.5983,83.2439
122.8224,83.3368
122.8224,83.3368
123.0325,83.4581
123.2249,83.6057
123.2249,83.6057
123.3965,83.7773
123.3965,83.7773
123.5441,83.9697
123.6654,84.1798
123.6654,84.1798
123.7583,84.4039
123.8210,84.6382
123.8527,84.8787
126.5017,84.8787
126.5017,79.0000
124.4078,79.0000
124.4078,79.0000
124.3873,79.2215
124.3873,79.2215
124.3264,79.4355
124.3264,79.4355
124.2273,79.6347
124.2273,79.6347
124.0932,79.8122
123.9288,79.9621
123.9288,79.9621
123.7396,80.0792
123.7396,80.0792
123.7396,80.0792
123.5321,80.1596
123.3134,80.2005
123.3134,80.2005
123.0910,80.2005
123.0910,80.2005
122.8723,80.1596
122.6648,80.0792
122.4756,79.9621
122.3112,79.8122
122.1771,79.6347
122.0780,79.4355
122.0171,79.2215
121.9966,79.0000
122.0065,78.8928
122.0171,78.7785
122.0171,78.7785
122.0234,78.7564
122.0780,78.5645
122.0780,78.5645
122.1771,78.3653
122.1771,78.3653
122.3112,78.1878
122.4756,78.0379
122.4756,78.0379
122.6648,77.9208
122.6648,77.9208
122.8723,77.8404
123.0910,77.7995
123.3134,77.7995
123.5321,77.8404
123.5760,77.8574
123.7396,77.9208
123.7396,77.9208
123.9288,78.0379
123.9288,78.0379
124.0932,78.1878
124.2273,78.3653
124.2273,78.3653
124.3264,78.5645
124.3264,78.5645
124.3873,78.7785
124.3873,78.7785
124.4078,79.0000
126.5017,79.0000
126.5017,74.2022
120.4522,74.2022
120.4522,75.7500
119.1211,75.7500
119.1522,75.9064
119.1522,76.0936
119.1211,76.2500
120.4522,76.2500
120.4522,77.7978
120.4458,77.8574
120.4458,77.8574
120.3956,77.9921
120.3956,77.9921
120.3094,78.1072
120.3094,78.1072
120.1943,78.1933
120.1943,78.1934
120.0596,78.2436
120.0596,78.2436
120.0000,78.2500
120.0000,78.2500
118.4522,78.2500
118.4522,76.9189
118.2958,76.9500
118.1086,76.9500
117.9522,76.9189
117.9522,78.2500
116.4044,78.2500
116.4044,78.2500
116.3448,78.2436
116.3448,78.2436
116.2101,78.1934
116.2101,78.1933
116.0950,78.1072
116.0950,78.1072
116.0088,77.9921
116.0088,77.9921
115.9586,77.8574
115.9586,77.8574
115.9522,77.7978
115.9522,77.7978
115.9522,76.2500
117.2833,76.2500
117.2522,76.0936
117.2522,75.9064
117.2833,75.7500
115.9522,75.7500
115.9522,74.2022
115.9522,74.2022
115.9586,74.1426
115.9586,74.1426
116.0088,74.0079
116.0088,74.0079
116.0950,73.8928
116.0950,73.8928
116.2101,73.8066
116.2101,73.8066
116.3448,73.7564
116.3448,73.7564
116.4044,73.7500
117.9522,73.7500
117.9522,75.0811
118.1086,75.0500
118.2958,75.0500
118.4522,75.0811
118.4522,73.7500
120.0000,73.7500
120.0596,73.7564
120.0596,73.7564
120.1943,73.8066
120.1943,73.8066
120.3094,73.8928
120.3094,73.8928
120.3956,74.0079
120.3956,74.0079
120.4458,74.1426
120.4458,74.1426
120.4522,74.2022
126.5017,74.2022
126.5017,68.0000
124.4078,68.0000
124.4078,68.0000
124.3873,68.2215
124.3873,68.2215
124.3264,68.4355
124.3264,68.4355
124.2273,68.6347
124.2273,68.6347
124.0932,68.8122
123.9288,68.9621
123.9288,68.9621
123.7396,69.0792
123.7396,69.0792
123.7396,69.0792
123.5321,69.1596
123.3134,69.2005
123.3134,69.2005
123.0910,69.2005
123.0910,69.2005
122.8723,69.1596
122.6648,69.0792
122.4756,68.9621
122.3112,68.8122
122.1771,68.6347
122.0780,68.4355
122.0171,68.2215
121.9966,68.0000
122.0171,67.7785
122.0780,67.5645
122.0780,67.5645
122.1771,67.3653
122.1771,67.3653
122.3112,67.1878
122.4756,67.0379
122.4756,67.0379
122.6648,66.9208
122.6648,66.9208
122.8723,66.8404
123.0910,66.7995
123.3134,66.7995
123.5321,66.8404
123.6633,66.8912
123.7396,66.9208
123.7396,66.9208
123.9288,67.0379
123.9288,67.0379
124.0932,67.1878
124.2273,67.3653
124.2273,67.3653
124.3264,67.5645
124.3264,67.5645
124.3873,67.7785
124.3873,67.7785
124.4078,68.0000
126.5017,68.0000
126.5017,59.8787
123.8527,59.8787
123.8527,60.1213
123.8210,60.3618
123.7583,60.5961
123.7013,60.7336
123.6654,60.8202
123.5441,61.0303
123.5441,61.0303
123.5441,61.0303
123.3965,61.2227
123.3965,61.2227
123.2249,61.3943
123.2249,61.3943
123.0325,61.5419
122.8224,61.6632
122.5983,61.7561
122.3640,61.8188
122.1857,61.8423
122.1235,61.8505
122.1235,61.8505
121.8809,61.8505
121.8187,61.8423
121.6404,61.8188
121.4061,61.7561
121.1820,61.6632
120.9719,61.5419
120.7795,61.3943
120.6079,61.2227
120.4603,61.0303
120.3390,60.8202
120.2461,60.5961
120.1834,60.3618
120.1517,60.1213
120.1517,59.8787
120.1834,59.6382
120.2461,59.4039
120.3390,59.1798
120.4603,58.9697
120.5993,58.7885
120.6079,58.7773
120.6079,58.7773
120.7795,58.6057
120.7795,58.6057
120.9719,58.4581
120.9719,58.4581
120.9719,58.4581
121.1820,58.3368
121.1820,58.3368
121.4061,58.2439
121.6158,58.1878
121.6404,58.1812
121.6404,58.1812
121.6404,58.1812
121.8809,58.1495
121.8809,58.1495
122.1235,58.1495
122.1235,58.1495
122.3640,58.1812
122.5983,58.2439
122.8224,58.3368
122.8224,58.3368
123.0325,58.4581
123.2249,58.6057
123.2249,58.6057
123.3965,58.7773
123.3965,58.7773
123.5441,58.9697
123.6654,59.1798
123.6654,59.1798
123.7583,59.4039
123.8210,59.6382
123.8527,59.8787
126.5017,59.8787
126.5017,55.6245
126.4820,55.5575
126.4292,55.5117
126.3777,55.5005
117.3012,55.5005
Z" /> 
</g>
<g style="fill:#FFFFFF; fill-opacity:1.0000; stroke:none;">
<circle cx="122.0022" cy="60.0000" r="1.6000" /> 
</g>
<g style="fill:#FFFFFF; fill-opacity:1.0000; stroke:none;">
<circle cx="62.0022" cy="60.0000" r="1.6000" /> 
</g>
<g style="fill:#FFFFFF; fill-opacity:1.0000; stroke:none;">
<circle cx="98.0022" cy="59.0000" r="0.5000" /> 
</g>
<g style="fill:#FFFFFF; fill-opacity:1.0000; stroke:none;">
<circle cx="87.0022" cy="59.0000" r="0.5000" /> 
</g>
<g style="fill:#FFFFFF; fill-opacity:1.0000; stroke:none;">
<circle cx="95.0022" cy="64.0000" r="0.9500" /> 
</g>
<g style="fill:#FFFFFF; fill-opacity:1.0000; stroke:none;">
<circle cx="90.0022" cy="64.0000" r="0.9500" /> 
</g>
<g style="fill:#FFFFFF; fill-opacity:1.0000; stroke:none;">
<circle cx="99.0022" cy="75.7900" r="0.3810" /> 
</g>
<g style="fill:#FFFFFF; fill-opacity:1.0000; stroke:none;">
<circle cx="99.0022" cy="73.2500" r="0.3810" /> 
</g>
<g style="fill:#FFFFFF; fill-opacity:1.0000; stroke:none;">
<circle cx="99.0022" cy="70.7100" r="0.3810" /> 
</g>
<g style="fill:#FFFFFF; fill-opacity:1.0000; stroke:none;">
<circle cx="98.5422" cy="87.2000" r="1.1500" /> 
</g>
<g style="fill:#FFFFFF; fill-opacity:1.0000; stroke:none;">
<circle cx="85.4622" cy="87.2000" r="1.1500" /> 
</g>
<g style="fill:#FFFFFF; fill-opacity:1.0000; stroke:none;">
<circle cx="95.5022" cy="84.5000" r="0.4600" /> 
</g>
<g style="fill:#FFFFFF; fill-opacity:1.0000; stroke:none;">
<circle cx="93.0022" cy="84.5000" r="0.4600" /> 
</g>
<g style="fill:#FFFFFF; fill-opacity:1.0000; stroke:none;">
<circle cx="91.0022" cy="84.5000" r="0.4600" /> 
</g>
<g style="fill:#FFFFFF; fill-opacity:1.0000; stroke:none;">
<circle cx="88.5022" cy="84.5000" r="0.4600" /> 
</g>
<g style="fill:#FFFFFF; fill-opacity:1.0000; stroke:none;">
<circle cx="123.2022" cy="79.0000" r="0.5000" /> 
</g>
<g style="fill:#FFFFFF; fill-opacity:1.0000; stroke:none;">
<circle cx="123.2022" cy="68.0000" r="0.5000" /> 
</g>
<g style="fill:#FFFFFF; fill-opacity:1.0000; stroke:none;">
<circle cx="118.2022" cy="76.0000" r="0.9500" /> 
</g>
<g style="fill:#FFFFFF; fill-opacity:1.0000; stroke:none;">
<circle cx="118.2022" cy="71.0000" r="0.9500" /> 
</g>
<g style="fill:#FFFFFF; fill-opacity:1.0000; stroke:none;">
<circle cx="122.0022" cy="85.0000" r="1.6000" /> 
</g>
<g style="fill:#FFFFFF; fill-opacity:1.0000; stroke:none;">
<circle cx="83.0022" cy="59.0000" r="0.5000" /> 
</g>
<g style="fill:#FFFFFF; fill-opacity:1.0000; stroke:none;">
<circle cx="72.0022" cy="59.0000" r="0.5000" /> 
</g>
<g style="fill:#FFFFFF; fill-opacity:1.0000; stroke:none;">
<circle cx="80.0022" cy="64.0000" r="0.9500" /> 
</g>
<g style="fill:#FFFFFF; fill-opacity:1.0000; stroke:none;">
<circle cx="75.0022" cy="64.0000" r="0.9500" /> 
</g>
<g style="fill:#FFFFFF; fill-opacity:1.0000; stroke:none;">
<circle cx="80.5422" cy="87.2000" r="1.1500" /> 
</g>
<g style="fill:#FFFFFF; fill-opacity:1.0000; stroke:none;">
<circle cx="67.4622" cy="87.2000" r="1.1500" /> 
</g>
<g style="fill:#FFFFFF; fill-opacity:1.0000; stroke:none;">
<circle cx="77.5022" cy="84.5000" r="0.4600" /> 
</g>
<g style="fill:#FFFFFF; fill-opacity:1.0000; stroke:none;">
<circle cx="75.0022" cy="84.5000" r="0.4600" /> 
</g>
<g style="fill:#FFFFFF; fill-opacity:1.0000; stroke:none;">
<circle cx="73.0022" cy="84.5000" r="0.4600" /> 
</g>
<g style="fill:#FFFFFF; fill-opacity:1.0000; stroke:none;">
<circle cx="70.5022" cy="84.5000" r="0.4600" /> 
</g>
<g style="fill:#FFFFFF; fill-opacity:1.0000; stroke:none;">
<circle cx="62.0022" cy="85.0000" r="1.6000" /> 
</g>
<g style="fill:#FFFFFF; fill-opacity:1.0000; stroke:none;">
<circle cx="89.5022" cy="71.5000" r="0.4000" /> 
</g>
<g style="fill:#FFFFFF; fill-opacity:1.0000; stroke:none;">
<circle cx="89.5022" cy="76.5000" r="0.4000" /> 
</g>
<g style="fill:#FFFFFF; fill-opacity:1.0000; stroke:none;">
<circle cx="103.0022" cy="86.0000" r="0.5000" /> 
</g>
<g style="fill:#FFFFFF; fill-opacity:1.0000; stroke:none;">
<circle cx="114.0022" cy="86.0000" r="0.5000" /> 
</g>
<g style="fill:#FFFFFF; fill-opacity:1.0000; stroke:none;">
<circle cx="106.0022" cy="81.0000" r="0.9500" /> 
</g>
<g style="fill:#FFFFFF; fill-opacity:1.0000; stroke:none;">
<circle cx="111.0022" cy="81.0000" r="0.9500" /> 
</g>
<g style="fill:none; 
stroke:#FFFFFF; stroke-width:0.6000; stroke-opacity:1; 
stroke-linecap:round; stroke-linejoin:round;">
<path d="M116.3522 56.4500
L116.3522 57.5500
" />
<path d="M102.8522 56.4500
L102.8522 57.5500
" />
</g>
<g style="fill:#FFFFFF; fill-opacity:1.0000; stroke:none;">
<circle cx="106.0022" cy="63.0000" r="1.3500" /> 
</g>
<g style="fill:#FFFFFF; fill-opacity:1.0000; stroke:none;">
<circle cx="113.2022" cy="63.0000" r="1.3500" /> 
</g> 
</svg>
