<?xml version="1.0" standalone="no"?>
 <!DOCTYPE svg PUBLIC "-//W3C//DTD SVG 1.1//EN" 
 "http://www.w3.org/Graphics/SVG/1.1/DTD/svg11.dtd"> 
<svg
  xmlns:svg="http://www.w3.org/2000/svg"
  xmlns="http://www.w3.org/2000/svg"
  xmlns:xlink="http://www.w3.org/1999/xlink"
  version="1.1"
  width="297.0022mm" height="210.0072mm" viewBox="0.0000 0.0000 297.0022 210.0072">
<title>SVG Image created as miniv_estop_board-F_Silkscreen.svg date 2025/01/16 15:43:05 </title>
  <desc>Image generated by PCBNEW </desc>
<g style="fill:#000000; fill-opacity:1.0000;stroke:#000000; stroke-opacity:1.0000;
stroke-linecap:round; stroke-linejoin:round;"
 transform="translate(0 0) scale(1 1)">
</g>
<g style="fill:none; 
stroke:#000000; stroke-width:0.1500; stroke-opacity:1; 
stroke-linecap:round; stroke-linejoin:round;">
<g transform="rotate(-90.000000 92.5000 76.6000)">
<text x="92.5000" y="77.1000"
textLength="1.9643" font-size="1.3333" lengthAdjust="spacingAndGlyphs"
text-anchor="middle" opacity="0" stroke-opacity="0">J1</text>
</g>
<g class="stroked-text"><desc>J1</desc>
<path d="M91.9548 76.9333
L92.6691 76.9333
" />
<path d="M92.6691 76.9333
L92.8120 76.9810
" />
<path d="M92.8120 76.9810
L92.9072 77.0762
" />
<path d="M92.9072 77.0762
L92.9548 77.2190
" />
<path d="M92.9548 77.2190
L92.9548 77.3143
" />
<path d="M92.9548 75.9333
L92.9548 76.5048
" />
<path d="M92.9548 76.2190
L91.9548 76.2190
" />
<path d="M91.9548 76.2190
L92.0977 76.3143
" />
<path d="M92.0977 76.3143
L92.1929 76.4095
" />
<path d="M92.1929 76.4095
L92.2405 76.5048
" />
</g><g transform="rotate(-90.000000 111.5000 82.5000)">
<text x="111.5000" y="83.2500"
textLength="2.0071" font-size="2.0000" lengthAdjust="spacingAndGlyphs"
text-anchor="middle" opacity="0" stroke-opacity="0">+</text>
</g>
<g class="stroked-text"><desc>+</desc>
<path d="M111.6147 83.0714
L111.6147 81.9286
" />
<path d="M112.1861 82.5000
L111.0433 82.5000
" />
</g><g transform="rotate(-90.000000 111.5000 70.2000)">
<text x="111.5000" y="70.7000"
textLength="1.4881" font-size="1.3333" lengthAdjust="spacingAndGlyphs"
text-anchor="middle" opacity="0" stroke-opacity="0">-</text>
</g>
<g class="stroked-text"><desc>-</desc>
<path d="M111.5739 70.5810
L111.5739 69.8190
" />
</g><g transform="rotate(-90.000000 142.0400 46.7300)">
<text x="142.0400" y="47.2300"
textLength="2.2024" font-size="1.3333" lengthAdjust="spacingAndGlyphs"
text-anchor="middle" opacity="0" stroke-opacity="0">D3</text>
</g>
<g class="stroked-text"><desc>D3</desc>
<path d="M142.4948 47.4681
L141.4948 47.4681
" />
<path d="M141.4948 47.4681
L141.4948 47.2300
" />
<path d="M141.4948 47.2300
L141.5424 47.0871
" />
<path d="M141.5424 47.0871
L141.6377 46.9919
" />
<path d="M141.6377 46.9919
L141.7329 46.9443
" />
<path d="M141.7329 46.9443
L141.9234 46.8967
" />
<path d="M141.9234 46.8967
L142.0662 46.8967
" />
<path d="M142.0662 46.8967
L142.2567 46.9443
" />
<path d="M142.2567 46.9443
L142.3520 46.9919
" />
<path d="M142.3520 46.9919
L142.4472 47.0871
" />
<path d="M142.4472 47.0871
L142.4948 47.2300
" />
<path d="M142.4948 47.2300
L142.4948 47.4681
" />
<path d="M141.4948 46.5633
L141.4948 45.9443
" />
<path d="M141.4948 45.9443
L141.8758 46.2776
" />
<path d="M141.8758 46.2776
L141.8758 46.1348
" />
<path d="M141.8758 46.1348
L141.9234 46.0395
" />
<path d="M141.9234 46.0395
L141.9710 45.9919
" />
<path d="M141.9710 45.9919
L142.0662 45.9443
" />
<path d="M142.0662 45.9443
L142.3043 45.9443
" />
<path d="M142.3043 45.9443
L142.3996 45.9919
" />
<path d="M142.3996 45.9919
L142.4472 46.0395
" />
<path d="M142.4472 46.0395
L142.4948 46.1348
" />
<path d="M142.4948 46.1348
L142.4948 46.4205
" />
<path d="M142.4948 46.4205
L142.4472 46.5157
" />
<path d="M142.4472 46.5157
L142.3996 46.5633
" />
</g><g transform="rotate(-90.000000 94.5000 97.5000)">
<text x="94.5000" y="98.0000"
textLength="1.9643" font-size="1.3333" lengthAdjust="spacingAndGlyphs"
text-anchor="middle" opacity="0" stroke-opacity="0">J8</text>
</g>
<g class="stroked-text"><desc>J8</desc>
<path d="M93.9548 97.8333
L94.6691 97.8333
" />
<path d="M94.6691 97.8333
L94.8120 97.8810
" />
<path d="M94.8120 97.8810
L94.9072 97.9762
" />
<path d="M94.9072 97.9762
L94.9548 98.1190
" />
<path d="M94.9548 98.1190
L94.9548 98.2143
" />
<path d="M94.3834 97.2143
L94.3358 97.3095
" />
<path d="M94.3358 97.3095
L94.2882 97.3571
" />
<path d="M94.2882 97.3571
L94.1929 97.4048
" />
<path d="M94.1929 97.4048
L94.1453 97.4048
" />
<path d="M94.1453 97.4048
L94.0501 97.3571
" />
<path d="M94.0501 97.3571
L94.0024 97.3095
" />
<path d="M94.0024 97.3095
L93.9548 97.2143
" />
<path d="M93.9548 97.2143
L93.9548 97.0238
" />
<path d="M93.9548 97.0238
L94.0024 96.9286
" />
<path d="M94.0024 96.9286
L94.0501 96.8810
" />
<path d="M94.0501 96.8810
L94.1453 96.8333
" />
<path d="M94.1453 96.8333
L94.1929 96.8333
" />
<path d="M94.1929 96.8333
L94.2882 96.8810
" />
<path d="M94.2882 96.8810
L94.3358 96.9286
" />
<path d="M94.3358 96.9286
L94.3834 97.0238
" />
<path d="M94.3834 97.0238
L94.3834 97.2143
" />
<path d="M94.3834 97.2143
L94.4310 97.3095
" />
<path d="M94.4310 97.3095
L94.4786 97.3571
" />
<path d="M94.4786 97.3571
L94.5739 97.4048
" />
<path d="M94.5739 97.4048
L94.7643 97.4048
" />
<path d="M94.7643 97.4048
L94.8596 97.3571
" />
<path d="M94.8596 97.3571
L94.9072 97.3095
" />
<path d="M94.9072 97.3095
L94.9548 97.2143
" />
<path d="M94.9548 97.2143
L94.9548 97.0238
" />
<path d="M94.9548 97.0238
L94.9072 96.9286
" />
<path d="M94.9072 96.9286
L94.8596 96.8810
" />
<path d="M94.8596 96.8810
L94.7643 96.8333
" />
<path d="M94.7643 96.8333
L94.5739 96.8333
" />
<path d="M94.5739 96.8333
L94.4786 96.8810
" />
<path d="M94.4786 96.8810
L94.4310 96.9286
" />
<path d="M94.4310 96.9286
L94.3834 97.0238
" />
</g><g transform="rotate(-90.000000 110.0000 92.0000)">
<text x="110.0000" y="92.7500"
textLength="2.0071" font-size="2.0000" lengthAdjust="spacingAndGlyphs"
text-anchor="middle" opacity="0" stroke-opacity="0">+</text>
</g>
<g class="stroked-text"><desc>+</desc>
<path d="M110.1147 92.5714
L110.1147 91.4286
" />
<path d="M110.6861 92.0000
L109.5433 92.0000
" />
</g><g transform="rotate(-90.000000 110.0000 103.0000)">
<text x="110.0000" y="103.7500"
textLength="2.0071" font-size="2.0000" lengthAdjust="spacingAndGlyphs"
text-anchor="middle" opacity="0" stroke-opacity="0">-</text>
</g>
<g class="stroked-text"><desc>-</desc>
<path d="M110.1147 103.5714
L110.1147 102.4286
" />
</g><text x="144.5000" y="139.0000"
textLength="2.2024" font-size="1.3333" lengthAdjust="spacingAndGlyphs"
text-anchor="middle" opacity="0" stroke-opacity="0">C5</text>
<g class="stroked-text"><desc>C5</desc>
<path d="M144.3333 138.8596
L144.2857 138.9072
" />
<path d="M144.2857 138.9072
L144.1429 138.9548
" />
<path d="M144.1429 138.9548
L144.0476 138.9548
" />
<path d="M144.0476 138.9548
L143.9048 138.9072
" />
<path d="M143.9048 138.9072
L143.8095 138.8120
" />
<path d="M143.8095 138.8120
L143.7619 138.7167
" />
<path d="M143.7619 138.7167
L143.7143 138.5262
" />
<path d="M143.7143 138.5262
L143.7143 138.3834
" />
<path d="M143.7143 138.3834
L143.7619 138.1929
" />
<path d="M143.7619 138.1929
L143.8095 138.0977
" />
<path d="M143.8095 138.0977
L143.9048 138.0024
" />
<path d="M143.9048 138.0024
L144.0476 137.9548
" />
<path d="M144.0476 137.9548
L144.1429 137.9548
" />
<path d="M144.1429 137.9548
L144.2857 138.0024
" />
<path d="M144.2857 138.0024
L144.3333 138.0501
" />
<path d="M145.2381 137.9548
L144.7619 137.9548
" />
<path d="M144.7619 137.9548
L144.7143 138.4310
" />
<path d="M144.7143 138.4310
L144.7619 138.3834
" />
<path d="M144.7619 138.3834
L144.8571 138.3358
" />
<path d="M144.8571 138.3358
L145.0952 138.3358
" />
<path d="M145.0952 138.3358
L145.1905 138.3834
" />
<path d="M145.1905 138.3834
L145.2381 138.4310
" />
<path d="M145.2381 138.4310
L145.2857 138.5262
" />
<path d="M145.2857 138.5262
L145.2857 138.7643
" />
<path d="M145.2857 138.7643
L145.2381 138.8596
" />
<path d="M145.2381 138.8596
L145.1905 138.9072
" />
<path d="M145.1905 138.9072
L145.0952 138.9548
" />
<path d="M145.0952 138.9548
L144.8571 138.9548
" />
<path d="M144.8571 138.9548
L144.7619 138.9072
" />
<path d="M144.7619 138.9072
L144.7143 138.8596
" />
</g><text x="161.0800" y="104.1300"
textLength="2.2024" font-size="1.3333" lengthAdjust="spacingAndGlyphs"
text-anchor="middle" opacity="0" stroke-opacity="0">R3</text>
<g class="stroked-text"><desc>R3</desc>
<path d="M160.9133 104.0848
L160.5800 103.6086
" />
<path d="M160.3419 104.0848
L160.3419 103.0848
" />
<path d="M160.3419 103.0848
L160.7229 103.0848
" />
<path d="M160.7229 103.0848
L160.8181 103.1324
" />
<path d="M160.8181 103.1324
L160.8657 103.1801
" />
<path d="M160.8657 103.1801
L160.9133 103.2753
" />
<path d="M160.9133 103.2753
L160.9133 103.4182
" />
<path d="M160.9133 103.4182
L160.8657 103.5134
" />
<path d="M160.8657 103.5134
L160.8181 103.5610
" />
<path d="M160.8181 103.5610
L160.7229 103.6086
" />
<path d="M160.7229 103.6086
L160.3419 103.6086
" />
<path d="M161.2467 103.0848
L161.8657 103.0848
" />
<path d="M161.8657 103.0848
L161.5324 103.4658
" />
<path d="M161.5324 103.4658
L161.6752 103.4658
" />
<path d="M161.6752 103.4658
L161.7705 103.5134
" />
<path d="M161.7705 103.5134
L161.8181 103.5610
" />
<path d="M161.8181 103.5610
L161.8657 103.6562
" />
<path d="M161.8657 103.6562
L161.8657 103.8943
" />
<path d="M161.8657 103.8943
L161.8181 103.9896
" />
<path d="M161.8181 103.9896
L161.7705 104.0372
" />
<path d="M161.7705 104.0372
L161.6752 104.0848
" />
<path d="M161.6752 104.0848
L161.3895 104.0848
" />
<path d="M161.3895 104.0848
L161.2943 104.0372
" />
<path d="M161.2943 104.0372
L161.2467 103.9896
" />
</g><g transform="rotate(-90.000000 104.6300 59.9200)">
<text x="104.6300" y="60.4200"
textLength="2.2024" font-size="1.3333" lengthAdjust="spacingAndGlyphs"
text-anchor="middle" opacity="0" stroke-opacity="0">R2</text>
</g>
<g class="stroked-text"><desc>R2</desc>
<path d="M105.0848 60.0867
L104.6086 60.4200
" />
<path d="M105.0848 60.6581
L104.0848 60.6581
" />
<path d="M104.0848 60.6581
L104.0848 60.2771
" />
<path d="M104.0848 60.2771
L104.1324 60.1819
" />
<path d="M104.1324 60.1819
L104.1801 60.1343
" />
<path d="M104.1801 60.1343
L104.2753 60.0867
" />
<path d="M104.2753 60.0867
L104.4182 60.0867
" />
<path d="M104.4182 60.0867
L104.5134 60.1343
" />
<path d="M104.5134 60.1343
L104.5610 60.1819
" />
<path d="M104.5610 60.1819
L104.6086 60.2771
" />
<path d="M104.6086 60.2771
L104.6086 60.6581
" />
<path d="M104.1801 59.7057
L104.1324 59.6581
" />
<path d="M104.1324 59.6581
L104.0848 59.5629
" />
<path d="M104.0848 59.5629
L104.0848 59.3248
" />
<path d="M104.0848 59.3248
L104.1324 59.2295
" />
<path d="M104.1324 59.2295
L104.1801 59.1819
" />
<path d="M104.1801 59.1819
L104.2753 59.1343
" />
<path d="M104.2753 59.1343
L104.3705 59.1343
" />
<path d="M104.3705 59.1343
L104.5134 59.1819
" />
<path d="M104.5134 59.1819
L105.0848 59.7533
" />
<path d="M105.0848 59.7533
L105.0848 59.1343
" />
</g><text x="140.0800" y="70.1300"
textLength="2.2024" font-size="1.3333" lengthAdjust="spacingAndGlyphs"
text-anchor="middle" opacity="0" stroke-opacity="0">R1</text>
<g class="stroked-text"><desc>R1</desc>
<path d="M139.9133 70.0848
L139.5800 69.6086
" />
<path d="M139.3419 70.0848
L139.3419 69.0848
" />
<path d="M139.3419 69.0848
L139.7229 69.0848
" />
<path d="M139.7229 69.0848
L139.8181 69.1324
" />
<path d="M139.8181 69.1324
L139.8657 69.1801
" />
<path d="M139.8657 69.1801
L139.9133 69.2753
" />
<path d="M139.9133 69.2753
L139.9133 69.4182
" />
<path d="M139.9133 69.4182
L139.8657 69.5134
" />
<path d="M139.8657 69.5134
L139.8181 69.5610
" />
<path d="M139.8181 69.5610
L139.7229 69.6086
" />
<path d="M139.7229 69.6086
L139.3419 69.6086
" />
<path d="M140.8657 70.0848
L140.2943 70.0848
" />
<path d="M140.5800 70.0848
L140.5800 69.0848
" />
<path d="M140.5800 69.0848
L140.4848 69.2277
" />
<path d="M140.4848 69.2277
L140.3895 69.3229
" />
<path d="M140.3895 69.3229
L140.2943 69.3705
" />
</g><text x="161.0800" y="125.1300"
textLength="2.2024" font-size="1.3333" lengthAdjust="spacingAndGlyphs"
text-anchor="middle" opacity="0" stroke-opacity="0">R5</text>
<g class="stroked-text"><desc>R5</desc>
<path d="M160.9133 125.0848
L160.5800 124.6086
" />
<path d="M160.3419 125.0848
L160.3419 124.0848
" />
<path d="M160.3419 124.0848
L160.7229 124.0848
" />
<path d="M160.7229 124.0848
L160.8181 124.1324
" />
<path d="M160.8181 124.1324
L160.8657 124.1801
" />
<path d="M160.8657 124.1801
L160.9133 124.2753
" />
<path d="M160.9133 124.2753
L160.9133 124.4182
" />
<path d="M160.9133 124.4182
L160.8657 124.5134
" />
<path d="M160.8657 124.5134
L160.8181 124.5610
" />
<path d="M160.8181 124.5610
L160.7229 124.6086
" />
<path d="M160.7229 124.6086
L160.3419 124.6086
" />
<path d="M161.8181 124.0848
L161.3419 124.0848
" />
<path d="M161.3419 124.0848
L161.2943 124.5610
" />
<path d="M161.2943 124.5610
L161.3419 124.5134
" />
<path d="M161.3419 124.5134
L161.4371 124.4658
" />
<path d="M161.4371 124.4658
L161.6752 124.4658
" />
<path d="M161.6752 124.4658
L161.7705 124.5134
" />
<path d="M161.7705 124.5134
L161.8181 124.5610
" />
<path d="M161.8181 124.5610
L161.8657 124.6562
" />
<path d="M161.8657 124.6562
L161.8657 124.8943
" />
<path d="M161.8657 124.8943
L161.8181 124.9896
" />
<path d="M161.8181 124.9896
L161.7705 125.0372
" />
<path d="M161.7705 125.0372
L161.6752 125.0848
" />
<path d="M161.6752 125.0848
L161.4371 125.0848
" />
<path d="M161.4371 125.0848
L161.3419 125.0372
" />
<path d="M161.3419 125.0372
L161.2943 124.9896
" />
</g><text x="129.9200" y="41.7600"
textLength="1.9643" font-size="1.3333" lengthAdjust="spacingAndGlyphs"
text-anchor="middle" opacity="0" stroke-opacity="0">J3</text>
<g class="stroked-text"><desc>J3</desc>
<path d="M129.5867 40.7148
L129.5867 41.4291
" />
<path d="M129.5867 41.4291
L129.5390 41.5720
" />
<path d="M129.5390 41.5720
L129.4438 41.6672
" />
<path d="M129.4438 41.6672
L129.3010 41.7148
" />
<path d="M129.3010 41.7148
L129.2057 41.7148
" />
<path d="M129.9676 40.7148
L130.5867 40.7148
" />
<path d="M130.5867 40.7148
L130.2533 41.0958
" />
<path d="M130.2533 41.0958
L130.3962 41.0958
" />
<path d="M130.3962 41.0958
L130.4914 41.1434
" />
<path d="M130.4914 41.1434
L130.5390 41.1910
" />
<path d="M130.5390 41.1910
L130.5867 41.2862
" />
<path d="M130.5867 41.2862
L130.5867 41.5243
" />
<path d="M130.5867 41.5243
L130.5390 41.6196
" />
<path d="M130.5390 41.6196
L130.4914 41.6672
" />
<path d="M130.4914 41.6672
L130.3962 41.7148
" />
<path d="M130.3962 41.7148
L130.1105 41.7148
" />
<path d="M130.1105 41.7148
L130.0152 41.6672
" />
<path d="M130.0152 41.6672
L129.9676 41.6196
" />
</g><text x="144.0800" y="104.1300"
textLength="2.2024" font-size="1.3333" lengthAdjust="spacingAndGlyphs"
text-anchor="middle" opacity="0" stroke-opacity="0">R6</text>
<g class="stroked-text"><desc>R6</desc>
<path d="M143.9133 104.0848
L143.5800 103.6086
" />
<path d="M143.3419 104.0848
L143.3419 103.0848
" />
<path d="M143.3419 103.0848
L143.7229 103.0848
" />
<path d="M143.7229 103.0848
L143.8181 103.1324
" />
<path d="M143.8181 103.1324
L143.8657 103.1801
" />
<path d="M143.8657 103.1801
L143.9133 103.2753
" />
<path d="M143.9133 103.2753
L143.9133 103.4182
" />
<path d="M143.9133 103.4182
L143.8657 103.5134
" />
<path d="M143.8657 103.5134
L143.8181 103.5610
" />
<path d="M143.8181 103.5610
L143.7229 103.6086
" />
<path d="M143.7229 103.6086
L143.3419 103.6086
" />
<path d="M144.7705 103.0848
L144.5800 103.0848
" />
<path d="M144.5800 103.0848
L144.4848 103.1324
" />
<path d="M144.4848 103.1324
L144.4371 103.1801
" />
<path d="M144.4371 103.1801
L144.3419 103.3229
" />
<path d="M144.3419 103.3229
L144.2943 103.5134
" />
<path d="M144.2943 103.5134
L144.2943 103.8943
" />
<path d="M144.2943 103.8943
L144.3419 103.9896
" />
<path d="M144.3419 103.9896
L144.3895 104.0372
" />
<path d="M144.3895 104.0372
L144.4848 104.0848
" />
<path d="M144.4848 104.0848
L144.6752 104.0848
" />
<path d="M144.6752 104.0848
L144.7705 104.0372
" />
<path d="M144.7705 104.0372
L144.8181 103.9896
" />
<path d="M144.8181 103.9896
L144.8657 103.8943
" />
<path d="M144.8657 103.8943
L144.8657 103.6562
" />
<path d="M144.8657 103.6562
L144.8181 103.5610
" />
<path d="M144.8181 103.5610
L144.7705 103.5134
" />
<path d="M144.7705 103.5134
L144.6752 103.4658
" />
<path d="M144.6752 103.4658
L144.4848 103.4658
" />
<path d="M144.4848 103.4658
L144.3895 103.5134
" />
<path d="M144.3895 103.5134
L144.3419 103.5610
" />
<path d="M144.3419 103.5610
L144.2943 103.6562
" />
</g></g>
<g style="fill:none; 
stroke:#000000; stroke-width:0.1000; stroke-opacity:1; 
stroke-linecap:round; stroke-linejoin:round;">
<text x="119.4500" y="52.7000"
textLength="3.0524" font-size="1.3333" lengthAdjust="spacingAndGlyphs"
text-anchor="middle" opacity="0" stroke-opacity="0">HS1</text>
<g class="stroked-text"><desc>HS1</desc>
<path d="M118.2119 52.6574
L118.2119 51.6574
" />
<path d="M118.2119 52.1336
L118.7833 52.1336
" />
<path d="M118.7833 52.6574
L118.7833 51.6574
" />
<path d="M119.2119 52.6098
L119.3548 52.6574
" />
<path d="M119.3548 52.6574
L119.5929 52.6574
" />
<path d="M119.5929 52.6574
L119.6881 52.6098
" />
<path d="M119.6881 52.6098
L119.7357 52.5622
" />
<path d="M119.7357 52.5622
L119.7833 52.4669
" />
<path d="M119.7833 52.4669
L119.7833 52.3717
" />
<path d="M119.7833 52.3717
L119.7357 52.2765
" />
<path d="M119.7357 52.2765
L119.6881 52.2288
" />
<path d="M119.6881 52.2288
L119.5929 52.1812
" />
<path d="M119.5929 52.1812
L119.4024 52.1336
" />
<path d="M119.4024 52.1336
L119.3071 52.0860
" />
<path d="M119.3071 52.0860
L119.2595 52.0384
" />
<path d="M119.2595 52.0384
L119.2119 51.9431
" />
<path d="M119.2119 51.9431
L119.2119 51.8479
" />
<path d="M119.2119 51.8479
L119.2595 51.7527
" />
<path d="M119.2595 51.7527
L119.3071 51.7050
" />
<path d="M119.3071 51.7050
L119.4024 51.6574
" />
<path d="M119.4024 51.6574
L119.6405 51.6574
" />
<path d="M119.6405 51.6574
L119.7833 51.7050
" />
<path d="M120.7357 52.6574
L120.1643 52.6574
" />
<path d="M120.4500 52.6574
L120.4500 51.6574
" />
<path d="M120.4500 51.6574
L120.3548 51.8003
" />
<path d="M120.3548 51.8003
L120.2595 51.8955
" />
<path d="M120.2595 51.8955
L120.1643 51.9431
" />
</g></g>
<g style="fill:none; 
stroke:#000000; stroke-width:0.1500; stroke-opacity:1; 
stroke-linecap:round; stroke-linejoin:round;">
<g transform="rotate(-90.000000 143.8000 100.2700)">
<text x="143.8000" y="100.7700"
textLength="2.2500" font-size="1.3333" lengthAdjust="spacingAndGlyphs"
text-anchor="middle" opacity="0" stroke-opacity="0">Q3</text>
</g>
<g class="stroked-text"><desc>Q3</desc>
<path d="M144.3501 100.3652
L144.3024 100.4605
" />
<path d="M144.3024 100.4605
L144.2072 100.5557
" />
<path d="M144.2072 100.5557
L144.0643 100.6986
" />
<path d="M144.0643 100.6986
L144.0167 100.7938
" />
<path d="M144.0167 100.7938
L144.0167 100.8890
" />
<path d="M144.2548 100.8414
L144.2072 100.9367
" />
<path d="M144.2072 100.9367
L144.1120 101.0319
" />
<path d="M144.1120 101.0319
L143.9215 101.0795
" />
<path d="M143.9215 101.0795
L143.5882 101.0795
" />
<path d="M143.5882 101.0795
L143.3977 101.0319
" />
<path d="M143.3977 101.0319
L143.3024 100.9367
" />
<path d="M143.3024 100.9367
L143.2548 100.8414
" />
<path d="M143.2548 100.8414
L143.2548 100.6510
" />
<path d="M143.2548 100.6510
L143.3024 100.5557
" />
<path d="M143.3024 100.5557
L143.3977 100.4605
" />
<path d="M143.3977 100.4605
L143.5882 100.4129
" />
<path d="M143.5882 100.4129
L143.9215 100.4129
" />
<path d="M143.9215 100.4129
L144.1120 100.4605
" />
<path d="M144.1120 100.4605
L144.2072 100.5557
" />
<path d="M144.2072 100.5557
L144.2548 100.6510
" />
<path d="M144.2548 100.6510
L144.2548 100.8414
" />
<path d="M143.2548 100.0795
L143.2548 99.4605
" />
<path d="M143.2548 99.4605
L143.6358 99.7938
" />
<path d="M143.6358 99.7938
L143.6358 99.6510
" />
<path d="M143.6358 99.6510
L143.6834 99.5557
" />
<path d="M143.6834 99.5557
L143.7310 99.5081
" />
<path d="M143.7310 99.5081
L143.8262 99.4605
" />
<path d="M143.8262 99.4605
L144.0643 99.4605
" />
<path d="M144.0643 99.4605
L144.1596 99.5081
" />
<path d="M144.1596 99.5081
L144.2072 99.5557
" />
<path d="M144.2072 99.5557
L144.2548 99.6510
" />
<path d="M144.2548 99.6510
L144.2548 99.9367
" />
<path d="M144.2548 99.9367
L144.2072 100.0319
" />
<path d="M144.2072 100.0319
L144.1596 100.0795
" />
</g><g transform="rotate(-90.000000 104.0400 46.7300)">
<text x="104.0400" y="47.2300"
textLength="2.2024" font-size="1.3333" lengthAdjust="spacingAndGlyphs"
text-anchor="middle" opacity="0" stroke-opacity="0">D1</text>
</g>
<g class="stroked-text"><desc>D1</desc>
<path d="M104.4948 47.4681
L103.4948 47.4681
" />
<path d="M103.4948 47.4681
L103.4948 47.2300
" />
<path d="M103.4948 47.2300
L103.5424 47.0871
" />
<path d="M103.5424 47.0871
L103.6377 46.9919
" />
<path d="M103.6377 46.9919
L103.7329 46.9443
" />
<path d="M103.7329 46.9443
L103.9234 46.8967
" />
<path d="M103.9234 46.8967
L104.0662 46.8967
" />
<path d="M104.0662 46.8967
L104.2567 46.9443
" />
<path d="M104.2567 46.9443
L104.3520 46.9919
" />
<path d="M104.3520 46.9919
L104.4472 47.0871
" />
<path d="M104.4472 47.0871
L104.4948 47.2300
" />
<path d="M104.4948 47.2300
L104.4948 47.4681
" />
<path d="M104.4948 45.9443
L104.4948 46.5157
" />
<path d="M104.4948 46.2300
L103.4948 46.2300
" />
<path d="M103.4948 46.2300
L103.6377 46.3252
" />
<path d="M103.6377 46.3252
L103.7329 46.4205
" />
<path d="M103.7329 46.4205
L103.7805 46.5157
" />
</g><text x="177.0000" y="143.3000"
textLength="2.2500" font-size="1.3333" lengthAdjust="spacingAndGlyphs"
text-anchor="middle" opacity="0" stroke-opacity="0">H4</text>
<g class="stroked-text"><desc>H4</desc>
<path d="M176.2381 143.2548
L176.2381 142.2548
" />
<path d="M176.2381 142.7310
L176.8095 142.7310
" />
<path d="M176.8095 143.2548
L176.8095 142.2548
" />
<path d="M177.7143 142.5882
L177.7143 143.2548
" />
<path d="M177.4762 142.2072
L177.2381 142.9215
" />
<path d="M177.2381 142.9215
L177.8571 142.9215
" />
</g><g transform="rotate(-90.000000 142.6300 59.9200)">
<text x="142.6300" y="60.4200"
textLength="3.1548" font-size="1.3333" lengthAdjust="spacingAndGlyphs"
text-anchor="middle" opacity="0" stroke-opacity="0">R16</text>
</g>
<g class="stroked-text"><desc>R16</desc>
<path d="M143.0848 60.5629
L142.6086 60.8962
" />
<path d="M143.0848 61.1343
L142.0848 61.1343
" />
<path d="M142.0848 61.1343
L142.0848 60.7533
" />
<path d="M142.0848 60.7533
L142.1324 60.6581
" />
<path d="M142.1324 60.6581
L142.1801 60.6105
" />
<path d="M142.1801 60.6105
L142.2753 60.5629
" />
<path d="M142.2753 60.5629
L142.4182 60.5629
" />
<path d="M142.4182 60.5629
L142.5134 60.6105
" />
<path d="M142.5134 60.6105
L142.5610 60.6581
" />
<path d="M142.5610 60.6581
L142.6086 60.7533
" />
<path d="M142.6086 60.7533
L142.6086 61.1343
" />
<path d="M143.0848 59.6105
L143.0848 60.1819
" />
<path d="M143.0848 59.8962
L142.0848 59.8962
" />
<path d="M142.0848 59.8962
L142.2277 59.9914
" />
<path d="M142.2277 59.9914
L142.3229 60.0867
" />
<path d="M142.3229 60.0867
L142.3705 60.1819
" />
<path d="M142.0848 58.7533
L142.0848 58.9438
" />
<path d="M142.0848 58.9438
L142.1324 59.0390
" />
<path d="M142.1324 59.0390
L142.1801 59.0867
" />
<path d="M142.1801 59.0867
L142.3229 59.1819
" />
<path d="M142.3229 59.1819
L142.5134 59.2295
" />
<path d="M142.5134 59.2295
L142.8943 59.2295
" />
<path d="M142.8943 59.2295
L142.9896 59.1819
" />
<path d="M142.9896 59.1819
L143.0372 59.1343
" />
<path d="M143.0372 59.1343
L143.0848 59.0390
" />
<path d="M143.0848 59.0390
L143.0848 58.8486
" />
<path d="M143.0848 58.8486
L143.0372 58.7533
" />
<path d="M143.0372 58.7533
L142.9896 58.7057
" />
<path d="M142.9896 58.7057
L142.8943 58.6581
" />
<path d="M142.8943 58.6581
L142.6562 58.6581
" />
<path d="M142.6562 58.6581
L142.5610 58.7057
" />
<path d="M142.5610 58.7057
L142.5134 58.7533
" />
<path d="M142.5134 58.7533
L142.4658 58.8486
" />
<path d="M142.4658 58.8486
L142.4658 59.0390
" />
<path d="M142.4658 59.0390
L142.5134 59.1343
" />
<path d="M142.5134 59.1343
L142.5610 59.1819
" />
<path d="M142.5610 59.1819
L142.6562 59.2295
" />
</g><g transform="rotate(-90.000000 160.8000 100.2700)">
<text x="160.8000" y="100.7700"
textLength="2.2500" font-size="1.3333" lengthAdjust="spacingAndGlyphs"
text-anchor="middle" opacity="0" stroke-opacity="0">Q7</text>
</g>
<g class="stroked-text"><desc>Q7</desc>
<path d="M161.3501 100.3652
L161.3024 100.4605
" />
<path d="M161.3024 100.4605
L161.2072 100.5557
" />
<path d="M161.2072 100.5557
L161.0643 100.6986
" />
<path d="M161.0643 100.6986
L161.0167 100.7938
" />
<path d="M161.0167 100.7938
L161.0167 100.8890
" />
<path d="M161.2548 100.8414
L161.2072 100.9367
" />
<path d="M161.2072 100.9367
L161.1120 101.0319
" />
<path d="M161.1120 101.0319
L160.9215 101.0795
" />
<path d="M160.9215 101.0795
L160.5882 101.0795
" />
<path d="M160.5882 101.0795
L160.3977 101.0319
" />
<path d="M160.3977 101.0319
L160.3024 100.9367
" />
<path d="M160.3024 100.9367
L160.2548 100.8414
" />
<path d="M160.2548 100.8414
L160.2548 100.6510
" />
<path d="M160.2548 100.6510
L160.3024 100.5557
" />
<path d="M160.3024 100.5557
L160.3977 100.4605
" />
<path d="M160.3977 100.4605
L160.5882 100.4129
" />
<path d="M160.5882 100.4129
L160.9215 100.4129
" />
<path d="M160.9215 100.4129
L161.1120 100.4605
" />
<path d="M161.1120 100.4605
L161.2072 100.5557
" />
<path d="M161.2072 100.5557
L161.2548 100.6510
" />
<path d="M161.2548 100.6510
L161.2548 100.8414
" />
<path d="M160.2548 100.0795
L160.2548 99.4129
" />
<path d="M160.2548 99.4129
L161.2548 99.8414
" />
</g><text x="169.9200" y="41.7600"
textLength="1.9643" font-size="1.3333" lengthAdjust="spacingAndGlyphs"
text-anchor="middle" opacity="0" stroke-opacity="0">J5</text>
<g class="stroked-text"><desc>J5</desc>
<path d="M169.5867 40.7148
L169.5867 41.4291
" />
<path d="M169.5867 41.4291
L169.5390 41.5720
" />
<path d="M169.5390 41.5720
L169.4438 41.6672
" />
<path d="M169.4438 41.6672
L169.3010 41.7148
" />
<path d="M169.3010 41.7148
L169.2057 41.7148
" />
<path d="M170.5390 40.7148
L170.0629 40.7148
" />
<path d="M170.0629 40.7148
L170.0152 41.1910
" />
<path d="M170.0152 41.1910
L170.0629 41.1434
" />
<path d="M170.0629 41.1434
L170.1581 41.0958
" />
<path d="M170.1581 41.0958
L170.3962 41.0958
" />
<path d="M170.3962 41.0958
L170.4914 41.1434
" />
<path d="M170.4914 41.1434
L170.5390 41.1910
" />
<path d="M170.5390 41.1910
L170.5867 41.2862
" />
<path d="M170.5867 41.2862
L170.5867 41.5243
" />
<path d="M170.5867 41.5243
L170.5390 41.6196
" />
<path d="M170.5390 41.6196
L170.4914 41.6672
" />
<path d="M170.4914 41.6672
L170.3962 41.7148
" />
<path d="M170.3962 41.7148
L170.1581 41.7148
" />
<path d="M170.1581 41.7148
L170.0629 41.6672
" />
<path d="M170.0629 41.6672
L170.0152 41.6196
" />
</g><text x="124.0800" y="96.1300"
textLength="3.1548" font-size="1.3333" lengthAdjust="spacingAndGlyphs"
text-anchor="middle" opacity="0" stroke-opacity="0">R11</text>
<g class="stroked-text"><desc>R11</desc>
<path d="M123.4371 96.0848
L123.1038 95.6086
" />
<path d="M122.8657 96.0848
L122.8657 95.0848
" />
<path d="M122.8657 95.0848
L123.2467 95.0848
" />
<path d="M123.2467 95.0848
L123.3419 95.1324
" />
<path d="M123.3419 95.1324
L123.3895 95.1801
" />
<path d="M123.3895 95.1801
L123.4371 95.2753
" />
<path d="M123.4371 95.2753
L123.4371 95.4182
" />
<path d="M123.4371 95.4182
L123.3895 95.5134
" />
<path d="M123.3895 95.5134
L123.3419 95.5610
" />
<path d="M123.3419 95.5610
L123.2467 95.6086
" />
<path d="M123.2467 95.6086
L122.8657 95.6086
" />
<path d="M124.3895 96.0848
L123.8181 96.0848
" />
<path d="M124.1038 96.0848
L124.1038 95.0848
" />
<path d="M124.1038 95.0848
L124.0086 95.2277
" />
<path d="M124.0086 95.2277
L123.9133 95.3229
" />
<path d="M123.9133 95.3229
L123.8181 95.3705
" />
<path d="M125.3419 96.0848
L124.7705 96.0848
" />
<path d="M125.0562 96.0848
L125.0562 95.0848
" />
<path d="M125.0562 95.0848
L124.9610 95.2277
" />
<path d="M124.9610 95.2277
L124.8657 95.3229
" />
<path d="M124.8657 95.3229
L124.7705 95.3705
" />
</g></g>
<g style="fill:none; 
stroke:#000000; stroke-width:0.1000; stroke-opacity:1; 
stroke-linecap:round; stroke-linejoin:round;">
<text x="159.4500" y="52.7000"
textLength="3.0524" font-size="1.3333" lengthAdjust="spacingAndGlyphs"
text-anchor="middle" opacity="0" stroke-opacity="0">HS2</text>
<g class="stroked-text"><desc>HS2</desc>
<path d="M158.2119 52.6574
L158.2119 51.6574
" />
<path d="M158.2119 52.1336
L158.7833 52.1336
" />
<path d="M158.7833 52.6574
L158.7833 51.6574
" />
<path d="M159.2119 52.6098
L159.3548 52.6574
" />
<path d="M159.3548 52.6574
L159.5929 52.6574
" />
<path d="M159.5929 52.6574
L159.6881 52.6098
" />
<path d="M159.6881 52.6098
L159.7357 52.5622
" />
<path d="M159.7357 52.5622
L159.7833 52.4669
" />
<path d="M159.7833 52.4669
L159.7833 52.3717
" />
<path d="M159.7833 52.3717
L159.7357 52.2765
" />
<path d="M159.7357 52.2765
L159.6881 52.2288
" />
<path d="M159.6881 52.2288
L159.5929 52.1812
" />
<path d="M159.5929 52.1812
L159.4024 52.1336
" />
<path d="M159.4024 52.1336
L159.3071 52.0860
" />
<path d="M159.3071 52.0860
L159.2595 52.0384
" />
<path d="M159.2595 52.0384
L159.2119 51.9431
" />
<path d="M159.2119 51.9431
L159.2119 51.8479
" />
<path d="M159.2119 51.8479
L159.2595 51.7527
" />
<path d="M159.2595 51.7527
L159.3071 51.7050
" />
<path d="M159.3071 51.7050
L159.4024 51.6574
" />
<path d="M159.4024 51.6574
L159.6405 51.6574
" />
<path d="M159.6405 51.6574
L159.7833 51.7050
" />
<path d="M160.1643 51.7527
L160.2119 51.7050
" />
<path d="M160.2119 51.7050
L160.3071 51.6574
" />
<path d="M160.3071 51.6574
L160.5452 51.6574
" />
<path d="M160.5452 51.6574
L160.6405 51.7050
" />
<path d="M160.6405 51.7050
L160.6881 51.7527
" />
<path d="M160.6881 51.7527
L160.7357 51.8479
" />
<path d="M160.7357 51.8479
L160.7357 51.9431
" />
<path d="M160.7357 51.9431
L160.6881 52.0860
" />
<path d="M160.6881 52.0860
L160.1167 52.6574
" />
<path d="M160.1167 52.6574
L160.7357 52.6574
" />
</g></g>
<g style="fill:none; 
stroke:#000000; stroke-width:0.1500; stroke-opacity:1; 
stroke-linecap:round; stroke-linejoin:round;">
<g transform="rotate(-90.000000 94.5000 112.5000)">
<text x="94.5000" y="113.0000"
textLength="1.9643" font-size="1.3333" lengthAdjust="spacingAndGlyphs"
text-anchor="middle" opacity="0" stroke-opacity="0">J7</text>
</g>
<g class="stroked-text"><desc>J7</desc>
<path d="M93.9548 112.8333
L94.6691 112.8333
" />
<path d="M94.6691 112.8333
L94.8120 112.8810
" />
<path d="M94.8120 112.8810
L94.9072 112.9762
" />
<path d="M94.9072 112.9762
L94.9548 113.1190
" />
<path d="M94.9548 113.1190
L94.9548 113.2143
" />
<path d="M93.9548 112.4524
L93.9548 111.7857
" />
<path d="M93.9548 111.7857
L94.9548 112.2143
" />
</g><g transform="rotate(-90.000000 110.0000 118.0000)">
<text x="110.0000" y="118.7500"
textLength="2.0071" font-size="2.0000" lengthAdjust="spacingAndGlyphs"
text-anchor="middle" opacity="0" stroke-opacity="0">-</text>
</g>
<g class="stroked-text"><desc>-</desc>
<path d="M110.1147 118.5714
L110.1147 117.4286
" />
</g><g transform="rotate(-90.000000 110.0000 107.0000)">
<text x="110.0000" y="107.7500"
textLength="2.0071" font-size="2.0000" lengthAdjust="spacingAndGlyphs"
text-anchor="middle" opacity="0" stroke-opacity="0">+</text>
</g>
<g class="stroked-text"><desc>+</desc>
<path d="M110.1147 107.5714
L110.1147 106.4286
" />
<path d="M110.6861 107.0000
L109.5433 107.0000
" />
</g><g transform="rotate(-90.000000 160.8000 121.2700)">
<text x="160.8000" y="121.7700"
textLength="2.2500" font-size="1.3333" lengthAdjust="spacingAndGlyphs"
text-anchor="middle" opacity="0" stroke-opacity="0">Q2</text>
</g>
<g class="stroked-text"><desc>Q2</desc>
<path d="M161.3501 121.3652
L161.3024 121.4605
" />
<path d="M161.3024 121.4605
L161.2072 121.5557
" />
<path d="M161.2072 121.5557
L161.0643 121.6986
" />
<path d="M161.0643 121.6986
L161.0167 121.7938
" />
<path d="M161.0167 121.7938
L161.0167 121.8890
" />
<path d="M161.2548 121.8414
L161.2072 121.9367
" />
<path d="M161.2072 121.9367
L161.1120 122.0319
" />
<path d="M161.1120 122.0319
L160.9215 122.0795
" />
<path d="M160.9215 122.0795
L160.5882 122.0795
" />
<path d="M160.5882 122.0795
L160.3977 122.0319
" />
<path d="M160.3977 122.0319
L160.3024 121.9367
" />
<path d="M160.3024 121.9367
L160.2548 121.8414
" />
<path d="M160.2548 121.8414
L160.2548 121.6510
" />
<path d="M160.2548 121.6510
L160.3024 121.5557
" />
<path d="M160.3024 121.5557
L160.3977 121.4605
" />
<path d="M160.3977 121.4605
L160.5882 121.4129
" />
<path d="M160.5882 121.4129
L160.9215 121.4129
" />
<path d="M160.9215 121.4129
L161.1120 121.4605
" />
<path d="M161.1120 121.4605
L161.2072 121.5557
" />
<path d="M161.2072 121.5557
L161.2548 121.6510
" />
<path d="M161.2548 121.6510
L161.2548 121.8414
" />
<path d="M160.3501 121.0319
L160.3024 120.9843
" />
<path d="M160.3024 120.9843
L160.2548 120.8890
" />
<path d="M160.2548 120.8890
L160.2548 120.6510
" />
<path d="M160.2548 120.6510
L160.3024 120.5557
" />
<path d="M160.3024 120.5557
L160.3501 120.5081
" />
<path d="M160.3501 120.5081
L160.4453 120.4605
" />
<path d="M160.4453 120.4605
L160.5405 120.4605
" />
<path d="M160.5405 120.4605
L160.6834 120.5081
" />
<path d="M160.6834 120.5081
L161.2548 121.0795
" />
<path d="M161.2548 121.0795
L161.2548 120.4605
" />
</g><text x="109.9200" y="41.7600"
textLength="1.9643" font-size="1.3333" lengthAdjust="spacingAndGlyphs"
text-anchor="middle" opacity="0" stroke-opacity="0">J2</text>
<g class="stroked-text"><desc>J2</desc>
<path d="M109.5867 40.7148
L109.5867 41.4291
" />
<path d="M109.5867 41.4291
L109.5390 41.5720
" />
<path d="M109.5390 41.5720
L109.4438 41.6672
" />
<path d="M109.4438 41.6672
L109.3010 41.7148
" />
<path d="M109.3010 41.7148
L109.2057 41.7148
" />
<path d="M110.0152 40.8101
L110.0629 40.7624
" />
<path d="M110.0629 40.7624
L110.1581 40.7148
" />
<path d="M110.1581 40.7148
L110.3962 40.7148
" />
<path d="M110.3962 40.7148
L110.4914 40.7624
" />
<path d="M110.4914 40.7624
L110.5390 40.8101
" />
<path d="M110.5390 40.8101
L110.5867 40.9053
" />
<path d="M110.5867 40.9053
L110.5867 41.0005
" />
<path d="M110.5867 41.0005
L110.5390 41.1434
" />
<path d="M110.5390 41.1434
L109.9676 41.7148
" />
<path d="M109.9676 41.7148
L110.5867 41.7148
" />
</g><text x="119.4500" y="60.3800"
textLength="2.2500" font-size="1.3333" lengthAdjust="spacingAndGlyphs"
text-anchor="middle" opacity="0" stroke-opacity="0">Q1</text>
<g class="stroked-text"><desc>Q1</desc>
<path d="M119.3548 60.4301
L119.2595 60.3824
" />
<path d="M119.2595 60.3824
L119.1643 60.2872
" />
<path d="M119.1643 60.2872
L119.0214 60.1443
" />
<path d="M119.0214 60.1443
L118.9262 60.0967
" />
<path d="M118.9262 60.0967
L118.8310 60.0967
" />
<path d="M118.8786 60.3348
L118.7833 60.2872
" />
<path d="M118.7833 60.2872
L118.6881 60.1920
" />
<path d="M118.6881 60.1920
L118.6405 60.0015
" />
<path d="M118.6405 60.0015
L118.6405 59.6682
" />
<path d="M118.6405 59.6682
L118.6881 59.4777
" />
<path d="M118.6881 59.4777
L118.7833 59.3824
" />
<path d="M118.7833 59.3824
L118.8786 59.3348
" />
<path d="M118.8786 59.3348
L119.0690 59.3348
" />
<path d="M119.0690 59.3348
L119.1643 59.3824
" />
<path d="M119.1643 59.3824
L119.2595 59.4777
" />
<path d="M119.2595 59.4777
L119.3071 59.6682
" />
<path d="M119.3071 59.6682
L119.3071 60.0015
" />
<path d="M119.3071 60.0015
L119.2595 60.1920
" />
<path d="M119.2595 60.1920
L119.1643 60.2872
" />
<path d="M119.1643 60.2872
L119.0690 60.3348
" />
<path d="M119.0690 60.3348
L118.8786 60.3348
" />
<path d="M120.2595 60.3348
L119.6881 60.3348
" />
<path d="M119.9738 60.3348
L119.9738 59.3348
" />
<path d="M119.9738 59.3348
L119.8786 59.4777
" />
<path d="M119.8786 59.4777
L119.7833 59.5729
" />
<path d="M119.7833 59.5729
L119.6881 59.6205
" />
</g><text x="161.5000" y="118.0000"
textLength="2.2024" font-size="1.3333" lengthAdjust="spacingAndGlyphs"
text-anchor="middle" opacity="0" stroke-opacity="0">C1</text>
<g class="stroked-text"><desc>C1</desc>
<path d="M161.3333 117.8596
L161.2857 117.9072
" />
<path d="M161.2857 117.9072
L161.1429 117.9548
" />
<path d="M161.1429 117.9548
L161.0476 117.9548
" />
<path d="M161.0476 117.9548
L160.9048 117.9072
" />
<path d="M160.9048 117.9072
L160.8095 117.8120
" />
<path d="M160.8095 117.8120
L160.7619 117.7167
" />
<path d="M160.7619 117.7167
L160.7143 117.5262
" />
<path d="M160.7143 117.5262
L160.7143 117.3834
" />
<path d="M160.7143 117.3834
L160.7619 117.1929
" />
<path d="M160.7619 117.1929
L160.8095 117.0977
" />
<path d="M160.8095 117.0977
L160.9048 117.0024
" />
<path d="M160.9048 117.0024
L161.0476 116.9548
" />
<path d="M161.0476 116.9548
L161.1429 116.9548
" />
<path d="M161.1429 116.9548
L161.2857 117.0024
" />
<path d="M161.2857 117.0024
L161.3333 117.0501
" />
<path d="M162.2857 117.9548
L161.7143 117.9548
" />
<path d="M162.0000 117.9548
L162.0000 116.9548
" />
<path d="M162.0000 116.9548
L161.9048 117.0977
" />
<path d="M161.9048 117.0977
L161.8095 117.1929
" />
<path d="M161.8095 117.1929
L161.7143 117.2405
" />
</g><text x="173.9200" y="112.8700"
textLength="2.2024" font-size="1.3333" lengthAdjust="spacingAndGlyphs"
text-anchor="middle" opacity="0" stroke-opacity="0">R8</text>
<g class="stroked-text"><desc>R8</desc>
<path d="M173.7533 112.8248
L173.4200 112.3486
" />
<path d="M173.1819 112.8248
L173.1819 111.8248
" />
<path d="M173.1819 111.8248
L173.5629 111.8248
" />
<path d="M173.5629 111.8248
L173.6581 111.8724
" />
<path d="M173.6581 111.8724
L173.7057 111.9201
" />
<path d="M173.7057 111.9201
L173.7533 112.0153
" />
<path d="M173.7533 112.0153
L173.7533 112.1582
" />
<path d="M173.7533 112.1582
L173.7057 112.2534
" />
<path d="M173.7057 112.2534
L173.6581 112.3010
" />
<path d="M173.6581 112.3010
L173.5629 112.3486
" />
<path d="M173.5629 112.3486
L173.1819 112.3486
" />
<path d="M174.3248 112.2534
L174.2295 112.2058
" />
<path d="M174.2295 112.2058
L174.1819 112.1582
" />
<path d="M174.1819 112.1582
L174.1343 112.0629
" />
<path d="M174.1343 112.0629
L174.1343 112.0153
" />
<path d="M174.1343 112.0153
L174.1819 111.9201
" />
<path d="M174.1819 111.9201
L174.2295 111.8724
" />
<path d="M174.2295 111.8724
L174.3248 111.8248
" />
<path d="M174.3248 111.8248
L174.5152 111.8248
" />
<path d="M174.5152 111.8248
L174.6105 111.8724
" />
<path d="M174.6105 111.8724
L174.6581 111.9201
" />
<path d="M174.6581 111.9201
L174.7057 112.0153
" />
<path d="M174.7057 112.0153
L174.7057 112.0629
" />
<path d="M174.7057 112.0629
L174.6581 112.1582
" />
<path d="M174.6581 112.1582
L174.6105 112.2058
" />
<path d="M174.6105 112.2058
L174.5152 112.2534
" />
<path d="M174.5152 112.2534
L174.3248 112.2534
" />
<path d="M174.3248 112.2534
L174.2295 112.3010
" />
<path d="M174.2295 112.3010
L174.1819 112.3486
" />
<path d="M174.1819 112.3486
L174.1343 112.4439
" />
<path d="M174.1343 112.4439
L174.1343 112.6343
" />
<path d="M174.1343 112.6343
L174.1819 112.7296
" />
<path d="M174.1819 112.7296
L174.2295 112.7772
" />
<path d="M174.2295 112.7772
L174.3248 112.8248
" />
<path d="M174.3248 112.8248
L174.5152 112.8248
" />
<path d="M174.5152 112.8248
L174.6105 112.7772
" />
<path d="M174.6105 112.7772
L174.6581 112.7296
" />
<path d="M174.6581 112.7296
L174.7057 112.6343
" />
<path d="M174.7057 112.6343
L174.7057 112.4439
" />
<path d="M174.7057 112.4439
L174.6581 112.3486
" />
<path d="M174.6581 112.3486
L174.6105 112.3010
" />
<path d="M174.6105 112.3010
L174.5152 112.2534
" />
</g><text x="149.9200" y="41.7600"
textLength="1.9643" font-size="1.3333" lengthAdjust="spacingAndGlyphs"
text-anchor="middle" opacity="0" stroke-opacity="0">J4</text>
<g class="stroked-text"><desc>J4</desc>
<path d="M149.5867 40.7148
L149.5867 41.4291
" />
<path d="M149.5867 41.4291
L149.5390 41.5720
" />
<path d="M149.5390 41.5720
L149.4438 41.6672
" />
<path d="M149.4438 41.6672
L149.3010 41.7148
" />
<path d="M149.3010 41.7148
L149.2057 41.7148
" />
<path d="M150.4914 41.0482
L150.4914 41.7148
" />
<path d="M150.2533 40.6672
L150.0152 41.3815
" />
<path d="M150.0152 41.3815
L150.6343 41.3815
" />
</g><text x="97.0000" y="143.3000"
textLength="2.2500" font-size="1.3333" lengthAdjust="spacingAndGlyphs"
text-anchor="middle" opacity="0" stroke-opacity="0">H3</text>
<g class="stroked-text"><desc>H3</desc>
<path d="M96.2381 143.2548
L96.2381 142.2548
" />
<path d="M96.2381 142.7310
L96.8095 142.7310
" />
<path d="M96.8095 143.2548
L96.8095 142.2548
" />
<path d="M97.1905 142.2548
L97.8095 142.2548
" />
<path d="M97.8095 142.2548
L97.4762 142.6358
" />
<path d="M97.4762 142.6358
L97.6190 142.6358
" />
<path d="M97.6190 142.6358
L97.7143 142.6834
" />
<path d="M97.7143 142.6834
L97.7619 142.7310
" />
<path d="M97.7619 142.7310
L97.8095 142.8262
" />
<path d="M97.8095 142.8262
L97.8095 143.0643
" />
<path d="M97.8095 143.0643
L97.7619 143.1596
" />
<path d="M97.7619 143.1596
L97.7143 143.2072
" />
<path d="M97.7143 143.2072
L97.6190 143.2548
" />
<path d="M97.6190 143.2548
L97.3333 143.2548
" />
<path d="M97.3333 143.2548
L97.2381 143.2072
" />
<path d="M97.2381 143.2072
L97.1905 143.1596
" />
</g><text x="159.4500" y="60.3800"
textLength="2.2500" font-size="1.3333" lengthAdjust="spacingAndGlyphs"
text-anchor="middle" opacity="0" stroke-opacity="0">Q6</text>
<g class="stroked-text"><desc>Q6</desc>
<path d="M159.3548 60.4301
L159.2595 60.3824
" />
<path d="M159.2595 60.3824
L159.1643 60.2872
" />
<path d="M159.1643 60.2872
L159.0214 60.1443
" />
<path d="M159.0214 60.1443
L158.9262 60.0967
" />
<path d="M158.9262 60.0967
L158.8310 60.0967
" />
<path d="M158.8786 60.3348
L158.7833 60.2872
" />
<path d="M158.7833 60.2872
L158.6881 60.1920
" />
<path d="M158.6881 60.1920
L158.6405 60.0015
" />
<path d="M158.6405 60.0015
L158.6405 59.6682
" />
<path d="M158.6405 59.6682
L158.6881 59.4777
" />
<path d="M158.6881 59.4777
L158.7833 59.3824
" />
<path d="M158.7833 59.3824
L158.8786 59.3348
" />
<path d="M158.8786 59.3348
L159.0690 59.3348
" />
<path d="M159.0690 59.3348
L159.1643 59.3824
" />
<path d="M159.1643 59.3824
L159.2595 59.4777
" />
<path d="M159.2595 59.4777
L159.3071 59.6682
" />
<path d="M159.3071 59.6682
L159.3071 60.0015
" />
<path d="M159.3071 60.0015
L159.2595 60.1920
" />
<path d="M159.2595 60.1920
L159.1643 60.2872
" />
<path d="M159.1643 60.2872
L159.0690 60.3348
" />
<path d="M159.0690 60.3348
L158.8786 60.3348
" />
<path d="M160.1643 59.3348
L159.9738 59.3348
" />
<path d="M159.9738 59.3348
L159.8786 59.3824
" />
<path d="M159.8786 59.3824
L159.8310 59.4301
" />
<path d="M159.8310 59.4301
L159.7357 59.5729
" />
<path d="M159.7357 59.5729
L159.6881 59.7634
" />
<path d="M159.6881 59.7634
L159.6881 60.1443
" />
<path d="M159.6881 60.1443
L159.7357 60.2396
" />
<path d="M159.7357 60.2396
L159.7833 60.2872
" />
<path d="M159.7833 60.2872
L159.8786 60.3348
" />
<path d="M159.8786 60.3348
L160.0690 60.3348
" />
<path d="M160.0690 60.3348
L160.1643 60.2872
" />
<path d="M160.1643 60.2872
L160.2119 60.2396
" />
<path d="M160.2119 60.2396
L160.2595 60.1443
" />
<path d="M160.2595 60.1443
L160.2595 59.9062
" />
<path d="M160.2595 59.9062
L160.2119 59.8110
" />
<path d="M160.2119 59.8110
L160.1643 59.7634
" />
<path d="M160.1643 59.7634
L160.0690 59.7158
" />
<path d="M160.0690 59.7158
L159.8786 59.7158
" />
<path d="M159.8786 59.7158
L159.7833 59.7634
" />
<path d="M159.7833 59.7634
L159.7357 59.8110
" />
<path d="M159.7357 59.8110
L159.6881 59.9062
" />
</g><text x="177.0000" y="43.3000"
textLength="2.2500" font-size="1.3333" lengthAdjust="spacingAndGlyphs"
text-anchor="middle" opacity="0" stroke-opacity="0">H2</text>
<g class="stroked-text"><desc>H2</desc>
<path d="M176.2381 43.2548
L176.2381 42.2548
" />
<path d="M176.2381 42.7310
L176.8095 42.7310
" />
<path d="M176.8095 43.2548
L176.8095 42.2548
" />
<path d="M177.2381 42.3501
L177.2857 42.3024
" />
<path d="M177.2857 42.3024
L177.3810 42.2548
" />
<path d="M177.3810 42.2548
L177.6190 42.2548
" />
<path d="M177.6190 42.2548
L177.7143 42.3024
" />
<path d="M177.7143 42.3024
L177.7619 42.3501
" />
<path d="M177.7619 42.3501
L177.8095 42.4453
" />
<path d="M177.8095 42.4453
L177.8095 42.5405
" />
<path d="M177.8095 42.5405
L177.7619 42.6834
" />
<path d="M177.7619 42.6834
L177.1905 43.2548
" />
<path d="M177.1905 43.2548
L177.8095 43.2548
" />
</g><text x="173.9200" y="122.8700"
textLength="2.2024" font-size="1.3333" lengthAdjust="spacingAndGlyphs"
text-anchor="middle" opacity="0" stroke-opacity="0">R9</text>
<g class="stroked-text"><desc>R9</desc>
<path d="M173.7533 122.8248
L173.4200 122.3486
" />
<path d="M173.1819 122.8248
L173.1819 121.8248
" />
<path d="M173.1819 121.8248
L173.5629 121.8248
" />
<path d="M173.5629 121.8248
L173.6581 121.8724
" />
<path d="M173.6581 121.8724
L173.7057 121.9201
" />
<path d="M173.7057 121.9201
L173.7533 122.0153
" />
<path d="M173.7533 122.0153
L173.7533 122.1582
" />
<path d="M173.7533 122.1582
L173.7057 122.2534
" />
<path d="M173.7057 122.2534
L173.6581 122.3010
" />
<path d="M173.6581 122.3010
L173.5629 122.3486
" />
<path d="M173.5629 122.3486
L173.1819 122.3486
" />
<path d="M174.2295 122.8248
L174.4200 122.8248
" />
<path d="M174.4200 122.8248
L174.5152 122.7772
" />
<path d="M174.5152 122.7772
L174.5629 122.7296
" />
<path d="M174.5629 122.7296
L174.6581 122.5867
" />
<path d="M174.6581 122.5867
L174.7057 122.3962
" />
<path d="M174.7057 122.3962
L174.7057 122.0153
" />
<path d="M174.7057 122.0153
L174.6581 121.9201
" />
<path d="M174.6581 121.9201
L174.6105 121.8724
" />
<path d="M174.6105 121.8724
L174.5152 121.8248
" />
<path d="M174.5152 121.8248
L174.3248 121.8248
" />
<path d="M174.3248 121.8248
L174.2295 121.8724
" />
<path d="M174.2295 121.8724
L174.1819 121.9201
" />
<path d="M174.1819 121.9201
L174.1343 122.0153
" />
<path d="M174.1343 122.0153
L174.1343 122.2534
" />
<path d="M174.1343 122.2534
L174.1819 122.3486
" />
<path d="M174.1819 122.3486
L174.2295 122.3962
" />
<path d="M174.2295 122.3962
L174.3248 122.4439
" />
<path d="M174.3248 122.4439
L174.5152 122.4439
" />
<path d="M174.5152 122.4439
L174.6105 122.3962
" />
<path d="M174.6105 122.3962
L174.6581 122.3486
" />
<path d="M174.6581 122.3486
L174.7057 122.2534
" />
</g><text x="97.0000" y="43.3000"
textLength="2.2500" font-size="1.3333" lengthAdjust="spacingAndGlyphs"
text-anchor="middle" opacity="0" stroke-opacity="0">H1</text>
<g class="stroked-text"><desc>H1</desc>
<path d="M96.2381 43.2548
L96.2381 42.2548
" />
<path d="M96.2381 42.7310
L96.8095 42.7310
" />
<path d="M96.8095 43.2548
L96.8095 42.2548
" />
<path d="M97.8095 43.2548
L97.2381 43.2548
" />
<path d="M97.5238 43.2548
L97.5238 42.2548
" />
<path d="M97.5238 42.2548
L97.4286 42.3977
" />
<path d="M97.4286 42.3977
L97.3333 42.4929
" />
<path d="M97.3333 42.4929
L97.2381 42.5405
" />
</g><text x="144.5000" y="118.0000"
textLength="2.2024" font-size="1.3333" lengthAdjust="spacingAndGlyphs"
text-anchor="middle" opacity="0" stroke-opacity="0">C4</text>
<g class="stroked-text"><desc>C4</desc>
<path d="M144.3333 117.8596
L144.2857 117.9072
" />
<path d="M144.2857 117.9072
L144.1429 117.9548
" />
<path d="M144.1429 117.9548
L144.0476 117.9548
" />
<path d="M144.0476 117.9548
L143.9048 117.9072
" />
<path d="M143.9048 117.9072
L143.8095 117.8120
" />
<path d="M143.8095 117.8120
L143.7619 117.7167
" />
<path d="M143.7619 117.7167
L143.7143 117.5262
" />
<path d="M143.7143 117.5262
L143.7143 117.3834
" />
<path d="M143.7143 117.3834
L143.7619 117.1929
" />
<path d="M143.7619 117.1929
L143.8095 117.0977
" />
<path d="M143.8095 117.0977
L143.9048 117.0024
" />
<path d="M143.9048 117.0024
L144.0476 116.9548
" />
<path d="M144.0476 116.9548
L144.1429 116.9548
" />
<path d="M144.1429 116.9548
L144.2857 117.0024
" />
<path d="M144.2857 117.0024
L144.3333 117.0501
" />
<path d="M145.1905 117.2882
L145.1905 117.9548
" />
<path d="M144.9524 116.9072
L144.7143 117.6215
" />
<path d="M144.7143 117.6215
L145.3333 117.6215
" />
</g><text x="144.0800" y="125.1300"
textLength="2.2024" font-size="1.3333" lengthAdjust="spacingAndGlyphs"
text-anchor="middle" opacity="0" stroke-opacity="0">R7</text>
<g class="stroked-text"><desc>R7</desc>
<path d="M143.9133 125.0848
L143.5800 124.6086
" />
<path d="M143.3419 125.0848
L143.3419 124.0848
" />
<path d="M143.3419 124.0848
L143.7229 124.0848
" />
<path d="M143.7229 124.0848
L143.8181 124.1324
" />
<path d="M143.8181 124.1324
L143.8657 124.1801
" />
<path d="M143.8657 124.1801
L143.9133 124.2753
" />
<path d="M143.9133 124.2753
L143.9133 124.4182
" />
<path d="M143.9133 124.4182
L143.8657 124.5134
" />
<path d="M143.8657 124.5134
L143.8181 124.5610
" />
<path d="M143.8181 124.5610
L143.7229 124.6086
" />
<path d="M143.7229 124.6086
L143.3419 124.6086
" />
<path d="M144.2467 124.0848
L144.9133 124.0848
" />
<path d="M144.9133 124.0848
L144.4848 125.0848
" />
</g><g transform="rotate(-90.000000 93.5000 131.6000)">
<text x="93.5000" y="132.1000"
textLength="1.9643" font-size="1.3333" lengthAdjust="spacingAndGlyphs"
text-anchor="middle" opacity="0" stroke-opacity="0">J6</text>
</g>
<g class="stroked-text"><desc>J6</desc>
<path d="M92.9548 131.9333
L93.6691 131.9333
" />
<path d="M93.6691 131.9333
L93.8120 131.9810
" />
<path d="M93.8120 131.9810
L93.9072 132.0762
" />
<path d="M93.9072 132.0762
L93.9548 132.2190
" />
<path d="M93.9548 132.2190
L93.9548 132.3143
" />
<path d="M92.9548 131.0286
L92.9548 131.2190
" />
<path d="M92.9548 131.2190
L93.0024 131.3143
" />
<path d="M93.0024 131.3143
L93.0501 131.3619
" />
<path d="M93.0501 131.3619
L93.1929 131.4571
" />
<path d="M93.1929 131.4571
L93.3834 131.5048
" />
<path d="M93.3834 131.5048
L93.7643 131.5048
" />
<path d="M93.7643 131.5048
L93.8596 131.4571
" />
<path d="M93.8596 131.4571
L93.9072 131.4095
" />
<path d="M93.9072 131.4095
L93.9548 131.3143
" />
<path d="M93.9548 131.3143
L93.9548 131.1238
" />
<path d="M93.9548 131.1238
L93.9072 131.0286
" />
<path d="M93.9072 131.0286
L93.8596 130.9810
" />
<path d="M93.8596 130.9810
L93.7643 130.9333
" />
<path d="M93.7643 130.9333
L93.5262 130.9333
" />
<path d="M93.5262 130.9333
L93.4310 130.9810
" />
<path d="M93.4310 130.9810
L93.3834 131.0286
" />
<path d="M93.3834 131.0286
L93.3358 131.1238
" />
<path d="M93.3358 131.1238
L93.3358 131.3143
" />
<path d="M93.3358 131.3143
L93.3834 131.4095
" />
<path d="M93.3834 131.4095
L93.4310 131.4571
" />
<path d="M93.4310 131.4571
L93.5262 131.5048
" />
</g><g transform="rotate(-90.000000 112.5000 137.5000)">
<text x="112.5000" y="138.2500"
textLength="2.0071" font-size="2.0000" lengthAdjust="spacingAndGlyphs"
text-anchor="middle" opacity="0" stroke-opacity="0">+</text>
</g>
<g class="stroked-text"><desc>+</desc>
<path d="M112.6147 138.0714
L112.6147 136.9286
" />
<path d="M113.1861 137.5000
L112.0433 137.5000
" />
</g><g transform="rotate(-90.000000 112.5000 125.2000)">
<text x="112.5000" y="125.7000"
textLength="1.4881" font-size="1.3333" lengthAdjust="spacingAndGlyphs"
text-anchor="middle" opacity="0" stroke-opacity="0">-</text>
</g>
<g class="stroked-text"><desc>-</desc>
<path d="M112.5739 125.5810
L112.5739 124.8190
" />
</g><g transform="rotate(-90.000000 143.8000 121.2700)">
<text x="143.8000" y="121.7700"
textLength="2.2500" font-size="1.3333" lengthAdjust="spacingAndGlyphs"
text-anchor="middle" opacity="0" stroke-opacity="0">Q4</text>
</g>
<g class="stroked-text"><desc>Q4</desc>
<path d="M144.3501 121.3652
L144.3024 121.4605
" />
<path d="M144.3024 121.4605
L144.2072 121.5557
" />
<path d="M144.2072 121.5557
L144.0643 121.6986
" />
<path d="M144.0643 121.6986
L144.0167 121.7938
" />
<path d="M144.0167 121.7938
L144.0167 121.8890
" />
<path d="M144.2548 121.8414
L144.2072 121.9367
" />
<path d="M144.2072 121.9367
L144.1120 122.0319
" />
<path d="M144.1120 122.0319
L143.9215 122.0795
" />
<path d="M143.9215 122.0795
L143.5882 122.0795
" />
<path d="M143.5882 122.0795
L143.3977 122.0319
" />
<path d="M143.3977 122.0319
L143.3024 121.9367
" />
<path d="M143.3024 121.9367
L143.2548 121.8414
" />
<path d="M143.2548 121.8414
L143.2548 121.6510
" />
<path d="M143.2548 121.6510
L143.3024 121.5557
" />
<path d="M143.3024 121.5557
L143.3977 121.4605
" />
<path d="M143.3977 121.4605
L143.5882 121.4129
" />
<path d="M143.5882 121.4129
L143.9215 121.4129
" />
<path d="M143.9215 121.4129
L144.1120 121.4605
" />
<path d="M144.1120 121.4605
L144.2072 121.5557
" />
<path d="M144.2072 121.5557
L144.2548 121.6510
" />
<path d="M144.2548 121.6510
L144.2548 121.8414
" />
<path d="M143.5882 120.5557
L144.2548 120.5557
" />
<path d="M143.2072 120.7938
L143.9215 121.0319
" />
<path d="M143.9215 121.0319
L143.9215 120.4129
" />
</g><text x="151.0000" y="96.6600"
textLength="2.2500" font-size="1.3333" lengthAdjust="spacingAndGlyphs"
text-anchor="middle" opacity="0" stroke-opacity="0">U1</text>
<g class="stroked-text"><desc>U1</desc>
<path d="M150.2381 95.6148
L150.2381 96.4243
" />
<path d="M150.2381 96.4243
L150.2857 96.5196
" />
<path d="M150.2857 96.5196
L150.3333 96.5672
" />
<path d="M150.3333 96.5672
L150.4286 96.6148
" />
<path d="M150.4286 96.6148
L150.6190 96.6148
" />
<path d="M150.6190 96.6148
L150.7143 96.5672
" />
<path d="M150.7143 96.5672
L150.7619 96.5196
" />
<path d="M150.7619 96.5196
L150.8095 96.4243
" />
<path d="M150.8095 96.4243
L150.8095 95.6148
" />
<path d="M151.8095 96.6148
L151.2381 96.6148
" />
<path d="M151.5238 96.6148
L151.5238 95.6148
" />
<path d="M151.5238 95.6148
L151.4286 95.7577
" />
<path d="M151.4286 95.7577
L151.3333 95.8529
" />
<path d="M151.3333 95.8529
L151.2381 95.9005
" />
</g><text x="126.8700" y="86.5000"
textLength="6.9643" font-size="1.3333" lengthAdjust="spacingAndGlyphs"
text-anchor="middle" opacity="0" stroke-opacity="0">Micro SD</text>
<g class="stroked-text"><desc>Micro SD</desc>
<path d="M123.7510 86.4548
L123.7510 85.4548
" />
<path d="M123.7510 85.4548
L124.0843 86.1691
" />
<path d="M124.0843 86.1691
L124.4176 85.4548
" />
<path d="M124.4176 85.4548
L124.4176 86.4548
" />
<path d="M124.8938 86.4548
L124.8938 85.7882
" />
<path d="M124.8938 85.4548
L124.8462 85.5024
" />
<path d="M124.8462 85.5024
L124.8938 85.5501
" />
<path d="M124.8938 85.5501
L124.9414 85.5024
" />
<path d="M124.9414 85.5024
L124.8938 85.4548
" />
<path d="M124.8938 85.4548
L124.8938 85.5501
" />
<path d="M125.7986 86.4072
L125.7033 86.4548
" />
<path d="M125.7033 86.4548
L125.5129 86.4548
" />
<path d="M125.5129 86.4548
L125.4176 86.4072
" />
<path d="M125.4176 86.4072
L125.3700 86.3596
" />
<path d="M125.3700 86.3596
L125.3224 86.2643
" />
<path d="M125.3224 86.2643
L125.3224 85.9786
" />
<path d="M125.3224 85.9786
L125.3700 85.8834
" />
<path d="M125.3700 85.8834
L125.4176 85.8358
" />
<path d="M125.4176 85.8358
L125.5129 85.7882
" />
<path d="M125.5129 85.7882
L125.7033 85.7882
" />
<path d="M125.7033 85.7882
L125.7986 85.8358
" />
<path d="M126.2271 86.4548
L126.2271 85.7882
" />
<path d="M126.2271 85.9786
L126.2748 85.8834
" />
<path d="M126.2748 85.8834
L126.3224 85.8358
" />
<path d="M126.3224 85.8358
L126.4176 85.7882
" />
<path d="M126.4176 85.7882
L126.5129 85.7882
" />
<path d="M126.9890 86.4548
L126.8938 86.4072
" />
<path d="M126.8938 86.4072
L126.8462 86.3596
" />
<path d="M126.8462 86.3596
L126.7986 86.2643
" />
<path d="M126.7986 86.2643
L126.7986 85.9786
" />
<path d="M126.7986 85.9786
L126.8462 85.8834
" />
<path d="M126.8462 85.8834
L126.8938 85.8358
" />
<path d="M126.8938 85.8358
L126.9890 85.7882
" />
<path d="M126.9890 85.7882
L127.1319 85.7882
" />
<path d="M127.1319 85.7882
L127.2271 85.8358
" />
<path d="M127.2271 85.8358
L127.2748 85.8834
" />
<path d="M127.2748 85.8834
L127.3224 85.9786
" />
<path d="M127.3224 85.9786
L127.3224 86.2643
" />
<path d="M127.3224 86.2643
L127.2748 86.3596
" />
<path d="M127.2748 86.3596
L127.2271 86.4072
" />
<path d="M127.2271 86.4072
L127.1319 86.4548
" />
<path d="M127.1319 86.4548
L126.9890 86.4548
" />
<path d="M128.4652 86.4072
L128.6081 86.4548
" />
<path d="M128.6081 86.4548
L128.8462 86.4548
" />
<path d="M128.8462 86.4548
L128.9414 86.4072
" />
<path d="M128.9414 86.4072
L128.9890 86.3596
" />
<path d="M128.9890 86.3596
L129.0367 86.2643
" />
<path d="M129.0367 86.2643
L129.0367 86.1691
" />
<path d="M129.0367 86.1691
L128.9890 86.0739
" />
<path d="M128.9890 86.0739
L128.9414 86.0262
" />
<path d="M128.9414 86.0262
L128.8462 85.9786
" />
<path d="M128.8462 85.9786
L128.6557 85.9310
" />
<path d="M128.6557 85.9310
L128.5605 85.8834
" />
<path d="M128.5605 85.8834
L128.5129 85.8358
" />
<path d="M128.5129 85.8358
L128.4652 85.7405
" />
<path d="M128.4652 85.7405
L128.4652 85.6453
" />
<path d="M128.4652 85.6453
L128.5129 85.5501
" />
<path d="M128.5129 85.5501
L128.5605 85.5024
" />
<path d="M128.5605 85.5024
L128.6557 85.4548
" />
<path d="M128.6557 85.4548
L128.8938 85.4548
" />
<path d="M128.8938 85.4548
L129.0367 85.5024
" />
<path d="M129.4652 86.4548
L129.4652 85.4548
" />
<path d="M129.4652 85.4548
L129.7033 85.4548
" />
<path d="M129.7033 85.4548
L129.8462 85.5024
" />
<path d="M129.8462 85.5024
L129.9414 85.5977
" />
<path d="M129.9414 85.5977
L129.9890 85.6929
" />
<path d="M129.9890 85.6929
L130.0367 85.8834
" />
<path d="M130.0367 85.8834
L130.0367 86.0262
" />
<path d="M130.0367 86.0262
L129.9890 86.2167
" />
<path d="M129.9890 86.2167
L129.9414 86.3120
" />
<path d="M129.9414 86.3120
L129.8462 86.4072
" />
<path d="M129.8462 86.4072
L129.7033 86.4548
" />
<path d="M129.7033 86.4548
L129.4652 86.4548
" />
</g><text x="169.4658" y="84.0108"
textLength="7.3452" font-size="1.3333" lengthAdjust="spacingAndGlyphs"
text-anchor="middle" opacity="0" stroke-opacity="0">USB Host</text>
<g class="stroked-text"><desc>USB Host</desc>
<path d="M166.1563 82.9656
L166.1563 83.7751
" />
<path d="M166.1563 83.7751
L166.2039 83.8704
" />
<path d="M166.2039 83.8704
L166.2515 83.9180
" />
<path d="M166.2515 83.9180
L166.3468 83.9656
" />
<path d="M166.3468 83.9656
L166.5372 83.9656
" />
<path d="M166.5372 83.9656
L166.6325 83.9180
" />
<path d="M166.6325 83.9180
L166.6801 83.8704
" />
<path d="M166.6801 83.8704
L166.7277 83.7751
" />
<path d="M166.7277 83.7751
L166.7277 82.9656
" />
<path d="M167.1563 83.9180
L167.2991 83.9656
" />
<path d="M167.2991 83.9656
L167.5372 83.9656
" />
<path d="M167.5372 83.9656
L167.6325 83.9180
" />
<path d="M167.6325 83.9180
L167.6801 83.8704
" />
<path d="M167.6801 83.8704
L167.7277 83.7751
" />
<path d="M167.7277 83.7751
L167.7277 83.6799
" />
<path d="M167.7277 83.6799
L167.6801 83.5847
" />
<path d="M167.6801 83.5847
L167.6325 83.5370
" />
<path d="M167.6325 83.5370
L167.5372 83.4894
" />
<path d="M167.5372 83.4894
L167.3468 83.4418
" />
<path d="M167.3468 83.4418
L167.2515 83.3942
" />
<path d="M167.2515 83.3942
L167.2039 83.3466
" />
<path d="M167.2039 83.3466
L167.1563 83.2513
" />
<path d="M167.1563 83.2513
L167.1563 83.1561
" />
<path d="M167.1563 83.1561
L167.2039 83.0609
" />
<path d="M167.2039 83.0609
L167.2515 83.0132
" />
<path d="M167.2515 83.0132
L167.3468 82.9656
" />
<path d="M167.3468 82.9656
L167.5848 82.9656
" />
<path d="M167.5848 82.9656
L167.7277 83.0132
" />
<path d="M168.4896 83.4418
L168.6325 83.4894
" />
<path d="M168.6325 83.4894
L168.6801 83.5370
" />
<path d="M168.6801 83.5370
L168.7277 83.6323
" />
<path d="M168.7277 83.6323
L168.7277 83.7751
" />
<path d="M168.7277 83.7751
L168.6801 83.8704
" />
<path d="M168.6801 83.8704
L168.6325 83.9180
" />
<path d="M168.6325 83.9180
L168.5372 83.9656
" />
<path d="M168.5372 83.9656
L168.1563 83.9656
" />
<path d="M168.1563 83.9656
L168.1563 82.9656
" />
<path d="M168.1563 82.9656
L168.4896 82.9656
" />
<path d="M168.4896 82.9656
L168.5848 83.0132
" />
<path d="M168.5848 83.0132
L168.6325 83.0609
" />
<path d="M168.6325 83.0609
L168.6801 83.1561
" />
<path d="M168.6801 83.1561
L168.6801 83.2513
" />
<path d="M168.6801 83.2513
L168.6325 83.3466
" />
<path d="M168.6325 83.3466
L168.5848 83.3942
" />
<path d="M168.5848 83.3942
L168.4896 83.4418
" />
<path d="M168.4896 83.4418
L168.1563 83.4418
" />
<path d="M169.9182 83.9656
L169.9182 82.9656
" />
<path d="M169.9182 83.4418
L170.4896 83.4418
" />
<path d="M170.4896 83.9656
L170.4896 82.9656
" />
<path d="M171.1087 83.9656
L171.0134 83.9180
" />
<path d="M171.0134 83.9180
L170.9658 83.8704
" />
<path d="M170.9658 83.8704
L170.9182 83.7751
" />
<path d="M170.9182 83.7751
L170.9182 83.4894
" />
<path d="M170.9182 83.4894
L170.9658 83.3942
" />
<path d="M170.9658 83.3942
L171.0134 83.3466
" />
<path d="M171.0134 83.3466
L171.1087 83.2990
" />
<path d="M171.1087 83.2990
L171.2515 83.2990
" />
<path d="M171.2515 83.2990
L171.3468 83.3466
" />
<path d="M171.3468 83.3466
L171.3944 83.3942
" />
<path d="M171.3944 83.3942
L171.4420 83.4894
" />
<path d="M171.4420 83.4894
L171.4420 83.7751
" />
<path d="M171.4420 83.7751
L171.3944 83.8704
" />
<path d="M171.3944 83.8704
L171.3468 83.9180
" />
<path d="M171.3468 83.9180
L171.2515 83.9656
" />
<path d="M171.2515 83.9656
L171.1087 83.9656
" />
<path d="M171.8229 83.9180
L171.9182 83.9656
" />
<path d="M171.9182 83.9656
L172.1087 83.9656
" />
<path d="M172.1087 83.9656
L172.2039 83.9180
" />
<path d="M172.2039 83.9180
L172.2515 83.8228
" />
<path d="M172.2515 83.8228
L172.2515 83.7751
" />
<path d="M172.2515 83.7751
L172.2039 83.6799
" />
<path d="M172.2039 83.6799
L172.1087 83.6323
" />
<path d="M172.1087 83.6323
L171.9658 83.6323
" />
<path d="M171.9658 83.6323
L171.8706 83.5847
" />
<path d="M171.8706 83.5847
L171.8229 83.4894
" />
<path d="M171.8229 83.4894
L171.8229 83.4418
" />
<path d="M171.8229 83.4418
L171.8706 83.3466
" />
<path d="M171.8706 83.3466
L171.9658 83.2990
" />
<path d="M171.9658 83.2990
L172.1087 83.2990
" />
<path d="M172.1087 83.2990
L172.2039 83.3466
" />
<path d="M172.5372 83.2990
L172.9182 83.2990
" />
<path d="M172.6801 82.9656
L172.6801 83.8228
" />
<path d="M172.6801 83.8228
L172.7277 83.9180
" />
<path d="M172.7277 83.9180
L172.8229 83.9656
" />
<path d="M172.8229 83.9656
L172.9182 83.9656
" />
</g><g transform="rotate(-90.000000 177.6700 86.0000)">
<text x="177.6700" y="86.5000"
textLength="3.2500" font-size="1.3333" lengthAdjust="spacingAndGlyphs"
text-anchor="middle" opacity="0" stroke-opacity="0">USB</text>
</g>
<g class="stroked-text"><desc>USB</desc>
<path d="M177.1248 87.2619
L177.9343 87.2619
" />
<path d="M177.9343 87.2619
L178.0296 87.2143
" />
<path d="M178.0296 87.2143
L178.0772 87.1667
" />
<path d="M178.0772 87.1667
L178.1248 87.0714
" />
<path d="M178.1248 87.0714
L178.1248 86.8810
" />
<path d="M178.1248 86.8810
L178.0772 86.7857
" />
<path d="M178.0772 86.7857
L178.0296 86.7381
" />
<path d="M178.0296 86.7381
L177.9343 86.6905
" />
<path d="M177.9343 86.6905
L177.1248 86.6905
" />
<path d="M178.0772 86.2619
L178.1248 86.1190
" />
<path d="M178.1248 86.1190
L178.1248 85.8810
" />
<path d="M178.1248 85.8810
L178.0772 85.7857
" />
<path d="M178.0772 85.7857
L178.0296 85.7381
" />
<path d="M178.0296 85.7381
L177.9343 85.6905
" />
<path d="M177.9343 85.6905
L177.8391 85.6905
" />
<path d="M177.8391 85.6905
L177.7439 85.7381
" />
<path d="M177.7439 85.7381
L177.6962 85.7857
" />
<path d="M177.6962 85.7857
L177.6486 85.8810
" />
<path d="M177.6486 85.8810
L177.6010 86.0714
" />
<path d="M177.6010 86.0714
L177.5534 86.1667
" />
<path d="M177.5534 86.1667
L177.5058 86.2143
" />
<path d="M177.5058 86.2143
L177.4105 86.2619
" />
<path d="M177.4105 86.2619
L177.3153 86.2619
" />
<path d="M177.3153 86.2619
L177.2201 86.2143
" />
<path d="M177.2201 86.2143
L177.1724 86.1667
" />
<path d="M177.1724 86.1667
L177.1248 86.0714
" />
<path d="M177.1248 86.0714
L177.1248 85.8333
" />
<path d="M177.1248 85.8333
L177.1724 85.6905
" />
<path d="M177.6010 84.9286
L177.6486 84.7857
" />
<path d="M177.6486 84.7857
L177.6962 84.7381
" />
<path d="M177.6962 84.7381
L177.7915 84.6905
" />
<path d="M177.7915 84.6905
L177.9343 84.6905
" />
<path d="M177.9343 84.6905
L178.0296 84.7381
" />
<path d="M178.0296 84.7381
L178.0772 84.7857
" />
<path d="M178.0772 84.7857
L178.1248 84.8810
" />
<path d="M178.1248 84.8810
L178.1248 85.2619
" />
<path d="M178.1248 85.2619
L177.1248 85.2619
" />
<path d="M177.1248 85.2619
L177.1248 84.9286
" />
<path d="M177.1248 84.9286
L177.1724 84.8333
" />
<path d="M177.1724 84.8333
L177.2201 84.7857
" />
<path d="M177.2201 84.7857
L177.3153 84.7381
" />
<path d="M177.3153 84.7381
L177.4105 84.7381
" />
<path d="M177.4105 84.7381
L177.5058 84.7857
" />
<path d="M177.5058 84.7857
L177.5534 84.8333
" />
<path d="M177.5534 84.8333
L177.6010 84.9286
" />
<path d="M177.6010 84.9286
L177.6010 85.2619
" />
</g><g transform="rotate(-90.000000 163.0650 89.2766)">
<text x="163.0650" y="89.7766"
textLength="6.4405" font-size="1.3333" lengthAdjust="spacingAndGlyphs"
text-anchor="middle" opacity="0" stroke-opacity="0">Ethernet</text>
</g>
<g class="stroked-text"><desc>Ethernet</desc>
<path d="M162.9960 92.1337
L162.9960 91.8004
" />
<path d="M163.5198 91.6576
L163.5198 92.1337
" />
<path d="M163.5198 92.1337
L162.5198 92.1337
" />
<path d="M162.5198 92.1337
L162.5198 91.6576
" />
<path d="M162.8532 91.3718
L162.8532 90.9909
" />
<path d="M162.5198 91.2290
L163.3770 91.2290
" />
<path d="M163.3770 91.2290
L163.4722 91.1814
" />
<path d="M163.4722 91.1814
L163.5198 91.0861
" />
<path d="M163.5198 91.0861
L163.5198 90.9909
" />
<path d="M163.5198 90.6576
L162.5198 90.6576
" />
<path d="M163.5198 90.2290
L162.9960 90.2290
" />
<path d="M162.9960 90.2290
L162.9008 90.2766
" />
<path d="M162.9008 90.2766
L162.8532 90.3718
" />
<path d="M162.8532 90.3718
L162.8532 90.5147
" />
<path d="M162.8532 90.5147
L162.9008 90.6099
" />
<path d="M162.9008 90.6099
L162.9484 90.6576
" />
<path d="M163.4722 89.3718
L163.5198 89.4671
" />
<path d="M163.5198 89.4671
L163.5198 89.6576
" />
<path d="M163.5198 89.6576
L163.4722 89.7528
" />
<path d="M163.4722 89.7528
L163.3770 89.8004
" />
<path d="M163.3770 89.8004
L162.9960 89.8004
" />
<path d="M162.9960 89.8004
L162.9008 89.7528
" />
<path d="M162.9008 89.7528
L162.8532 89.6576
" />
<path d="M162.8532 89.6576
L162.8532 89.4671
" />
<path d="M162.8532 89.4671
L162.9008 89.3718
" />
<path d="M162.9008 89.3718
L162.9960 89.3242
" />
<path d="M162.9960 89.3242
L163.0912 89.3242
" />
<path d="M163.0912 89.3242
L163.1865 89.8004
" />
<path d="M163.5198 88.8956
L162.8532 88.8956
" />
<path d="M163.0436 88.8956
L162.9484 88.8480
" />
<path d="M162.9484 88.8480
L162.9008 88.8004
" />
<path d="M162.9008 88.8004
L162.8532 88.7052
" />
<path d="M162.8532 88.7052
L162.8532 88.6099
" />
<path d="M162.8532 88.2766
L163.5198 88.2766
" />
<path d="M162.9484 88.2766
L162.9008 88.2290
" />
<path d="M162.9008 88.2290
L162.8532 88.1337
" />
<path d="M162.8532 88.1337
L162.8532 87.9909
" />
<path d="M162.8532 87.9909
L162.9008 87.8956
" />
<path d="M162.9008 87.8956
L162.9960 87.8480
" />
<path d="M162.9960 87.8480
L163.5198 87.8480
" />
<path d="M163.4722 86.9909
L163.5198 87.0861
" />
<path d="M163.5198 87.0861
L163.5198 87.2766
" />
<path d="M163.5198 87.2766
L163.4722 87.3718
" />
<path d="M163.4722 87.3718
L163.3770 87.4195
" />
<path d="M163.3770 87.4195
L162.9960 87.4195
" />
<path d="M162.9960 87.4195
L162.9008 87.3718
" />
<path d="M162.9008 87.3718
L162.8532 87.2766
" />
<path d="M162.8532 87.2766
L162.8532 87.0861
" />
<path d="M162.8532 87.0861
L162.9008 86.9909
" />
<path d="M162.9008 86.9909
L162.9960 86.9433
" />
<path d="M162.9960 86.9433
L163.0912 86.9433
" />
<path d="M163.0912 86.9433
L163.1865 87.4195
" />
<path d="M162.8532 86.6576
L162.8532 86.2766
" />
<path d="M162.5198 86.5147
L163.3770 86.5147
" />
<path d="M163.3770 86.5147
L163.4722 86.4671
" />
<path d="M163.4722 86.4671
L163.5198 86.3718
" />
<path d="M163.5198 86.3718
L163.5198 86.2766
" />
</g><g transform="rotate(-90.000000 153.5400 86.1800)">
<text x="153.5400" y="86.5300"
textLength="3.4100" font-size="0.9333" lengthAdjust="spacingAndGlyphs"
text-anchor="middle" opacity="0" stroke-opacity="0">DVJ6A</text>
</g>
<g class="stroked-text"><desc>DVJ6A</desc>
<path d="M153.8560 87.5633
L153.1560 87.5633
" />
<path d="M153.1560 87.5633
L153.1560 87.3967
" />
<path d="M153.1560 87.3967
L153.1894 87.2967
" />
<path d="M153.1894 87.2967
L153.2560 87.2300
" />
<path d="M153.2560 87.2300
L153.3227 87.1967
" />
<path d="M153.3227 87.1967
L153.4560 87.1633
" />
<path d="M153.4560 87.1633
L153.5560 87.1633
" />
<path d="M153.5560 87.1633
L153.6894 87.1967
" />
<path d="M153.6894 87.1967
L153.7560 87.2300
" />
<path d="M153.7560 87.2300
L153.8227 87.2967
" />
<path d="M153.8227 87.2967
L153.8560 87.3967
" />
<path d="M153.8560 87.3967
L153.8560 87.5633
" />
<path d="M153.1560 86.9633
L153.8560 86.7300
" />
<path d="M153.8560 86.7300
L153.1560 86.4967
" />
<path d="M153.1560 86.0633
L153.6560 86.0633
" />
<path d="M153.6560 86.0633
L153.7560 86.0967
" />
<path d="M153.7560 86.0967
L153.8227 86.1633
" />
<path d="M153.8227 86.1633
L153.8560 86.2633
" />
<path d="M153.8560 86.2633
L153.8560 86.3300
" />
<path d="M153.1560 85.4300
L153.1560 85.5633
" />
<path d="M153.1560 85.5633
L153.1894 85.6300
" />
<path d="M153.1894 85.6300
L153.2227 85.6633
" />
<path d="M153.2227 85.6633
L153.3227 85.7300
" />
<path d="M153.3227 85.7300
L153.4560 85.7633
" />
<path d="M153.4560 85.7633
L153.7227 85.7633
" />
<path d="M153.7227 85.7633
L153.7894 85.7300
" />
<path d="M153.7894 85.7300
L153.8227 85.6967
" />
<path d="M153.8227 85.6967
L153.8560 85.6300
" />
<path d="M153.8560 85.6300
L153.8560 85.4967
" />
<path d="M153.8560 85.4967
L153.8227 85.4300
" />
<path d="M153.8227 85.4300
L153.7894 85.3967
" />
<path d="M153.7894 85.3967
L153.7227 85.3633
" />
<path d="M153.7227 85.3633
L153.5560 85.3633
" />
<path d="M153.5560 85.3633
L153.4894 85.3967
" />
<path d="M153.4894 85.3967
L153.4560 85.4300
" />
<path d="M153.4560 85.4300
L153.4227 85.4967
" />
<path d="M153.4227 85.4967
L153.4227 85.6300
" />
<path d="M153.4227 85.6300
L153.4560 85.6967
" />
<path d="M153.4560 85.6967
L153.4894 85.7300
" />
<path d="M153.4894 85.7300
L153.5560 85.7633
" />
<path d="M153.6560 85.0967
L153.6560 84.7633
" />
<path d="M153.8560 85.1633
L153.1560 84.9300
" />
<path d="M153.1560 84.9300
L153.8560 84.6967
" />
</g><g transform="rotate(-90.000000 152.2700 86.0000)">
<text x="152.2700" y="86.3500"
textLength="6.8100" font-size="0.9333" lengthAdjust="spacingAndGlyphs"
text-anchor="middle" opacity="0" stroke-opacity="0">MIMXRT1062</text>
</g>
<g class="stroked-text"><desc>MIMXRT1062</desc>
<path d="M152.5860 89.0833
L151.8860 89.0833
" />
<path d="M151.8860 89.0833
L152.3860 88.8500
" />
<path d="M152.3860 88.8500
L151.8860 88.6167
" />
<path d="M151.8860 88.6167
L152.5860 88.6167
" />
<path d="M152.5860 88.2833
L151.8860 88.2833
" />
<path d="M152.5860 87.9500
L151.8860 87.9500
" />
<path d="M151.8860 87.9500
L152.3860 87.7167
" />
<path d="M152.3860 87.7167
L151.8860 87.4833
" />
<path d="M151.8860 87.4833
L152.5860 87.4833
" />
<path d="M151.8860 87.2167
L152.5860 86.7500
" />
<path d="M151.8860 86.7500
L152.5860 87.2167
" />
<path d="M152.5860 86.0833
L152.2527 86.3167
" />
<path d="M152.5860 86.4833
L151.8860 86.4833
" />
<path d="M151.8860 86.4833
L151.8860 86.2167
" />
<path d="M151.8860 86.2167
L151.9194 86.1500
" />
<path d="M151.9194 86.1500
L151.9527 86.1167
" />
<path d="M151.9527 86.1167
L152.0194 86.0833
" />
<path d="M152.0194 86.0833
L152.1194 86.0833
" />
<path d="M152.1194 86.0833
L152.1860 86.1167
" />
<path d="M152.1860 86.1167
L152.2194 86.1500
" />
<path d="M152.2194 86.1500
L152.2527 86.2167
" />
<path d="M152.2527 86.2167
L152.2527 86.4833
" />
<path d="M151.8860 85.8833
L151.8860 85.4833
" />
<path d="M152.5860 85.6833
L151.8860 85.6833
" />
<path d="M152.5860 84.8833
L152.5860 85.2833
" />
<path d="M152.5860 85.0833
L151.8860 85.0833
" />
<path d="M151.8860 85.0833
L151.9860 85.1500
" />
<path d="M151.9860 85.1500
L152.0527 85.2167
" />
<path d="M152.0527 85.2167
L152.0860 85.2833
" />
<path d="M151.8860 84.4500
L151.8860 84.3833
" />
<path d="M151.8860 84.3833
L151.9194 84.3167
" />
<path d="M151.9194 84.3167
L151.9527 84.2833
" />
<path d="M151.9527 84.2833
L152.0194 84.2500
" />
<path d="M152.0194 84.2500
L152.1527 84.2167
" />
<path d="M152.1527 84.2167
L152.3194 84.2167
" />
<path d="M152.3194 84.2167
L152.4527 84.2500
" />
<path d="M152.4527 84.2500
L152.5194 84.2833
" />
<path d="M152.5194 84.2833
L152.5527 84.3167
" />
<path d="M152.5527 84.3167
L152.5860 84.3833
" />
<path d="M152.5860 84.3833
L152.5860 84.4500
" />
<path d="M152.5860 84.4500
L152.5527 84.5167
" />
<path d="M152.5527 84.5167
L152.5194 84.5500
" />
<path d="M152.5194 84.5500
L152.4527 84.5833
" />
<path d="M152.4527 84.5833
L152.3194 84.6167
" />
<path d="M152.3194 84.6167
L152.1527 84.6167
" />
<path d="M152.1527 84.6167
L152.0194 84.5833
" />
<path d="M152.0194 84.5833
L151.9527 84.5500
" />
<path d="M151.9527 84.5500
L151.9194 84.5167
" />
<path d="M151.9194 84.5167
L151.8860 84.4500
" />
<path d="M151.8860 83.6167
L151.8860 83.7500
" />
<path d="M151.8860 83.7500
L151.9194 83.8167
" />
<path d="M151.9194 83.8167
L151.9527 83.8500
" />
<path d="M151.9527 83.8500
L152.0527 83.9167
" />
<path d="M152.0527 83.9167
L152.1860 83.9500
" />
<path d="M152.1860 83.9500
L152.4527 83.9500
" />
<path d="M152.4527 83.9500
L152.5194 83.9167
" />
<path d="M152.5194 83.9167
L152.5527 83.8833
" />
<path d="M152.5527 83.8833
L152.5860 83.8167
" />
<path d="M152.5860 83.8167
L152.5860 83.6833
" />
<path d="M152.5860 83.6833
L152.5527 83.6167
" />
<path d="M152.5527 83.6167
L152.5194 83.5833
" />
<path d="M152.5194 83.5833
L152.4527 83.5500
" />
<path d="M152.4527 83.5500
L152.2860 83.5500
" />
<path d="M152.2860 83.5500
L152.2194 83.5833
" />
<path d="M152.2194 83.5833
L152.1860 83.6167
" />
<path d="M152.1860 83.6167
L152.1527 83.6833
" />
<path d="M152.1527 83.6833
L152.1527 83.8167
" />
<path d="M152.1527 83.8167
L152.1860 83.8833
" />
<path d="M152.1860 83.8833
L152.2194 83.9167
" />
<path d="M152.2194 83.9167
L152.2860 83.9500
" />
<path d="M151.9527 83.2833
L151.9194 83.2500
" />
<path d="M151.9194 83.2500
L151.8860 83.1833
" />
<path d="M151.8860 83.1833
L151.8860 83.0167
" />
<path d="M151.8860 83.0167
L151.9194 82.9500
" />
<path d="M151.9194 82.9500
L151.9527 82.9167
" />
<path d="M151.9527 82.9167
L152.0194 82.8833
" />
<path d="M152.0194 82.8833
L152.0860 82.8833
" />
<path d="M152.0860 82.8833
L152.1860 82.9167
" />
<path d="M152.1860 82.9167
L152.5860 83.3167
" />
<path d="M152.5860 83.3167
L152.5860 82.8833
" />
</g><text x="161.5000" y="139.0000"
textLength="2.2024" font-size="1.3333" lengthAdjust="spacingAndGlyphs"
text-anchor="middle" opacity="0" stroke-opacity="0">C3</text>
<g class="stroked-text"><desc>C3</desc>
<path d="M161.3333 138.8596
L161.2857 138.9072
" />
<path d="M161.2857 138.9072
L161.1429 138.9548
" />
<path d="M161.1429 138.9548
L161.0476 138.9548
" />
<path d="M161.0476 138.9548
L160.9048 138.9072
" />
<path d="M160.9048 138.9072
L160.8095 138.8120
" />
<path d="M160.8095 138.8120
L160.7619 138.7167
" />
<path d="M160.7619 138.7167
L160.7143 138.5262
" />
<path d="M160.7143 138.5262
L160.7143 138.3834
" />
<path d="M160.7143 138.3834
L160.7619 138.1929
" />
<path d="M160.7619 138.1929
L160.8095 138.0977
" />
<path d="M160.8095 138.0977
L160.9048 138.0024
" />
<path d="M160.9048 138.0024
L161.0476 137.9548
" />
<path d="M161.0476 137.9548
L161.1429 137.9548
" />
<path d="M161.1429 137.9548
L161.2857 138.0024
" />
<path d="M161.2857 138.0024
L161.3333 138.0501
" />
<path d="M161.6667 137.9548
L162.2857 137.9548
" />
<path d="M162.2857 137.9548
L161.9524 138.3358
" />
<path d="M161.9524 138.3358
L162.0952 138.3358
" />
<path d="M162.0952 138.3358
L162.1905 138.3834
" />
<path d="M162.1905 138.3834
L162.2381 138.4310
" />
<path d="M162.2381 138.4310
L162.2857 138.5262
" />
<path d="M162.2857 138.5262
L162.2857 138.7643
" />
<path d="M162.2857 138.7643
L162.2381 138.8596
" />
<path d="M162.2381 138.8596
L162.1905 138.9072
" />
<path d="M162.1905 138.9072
L162.0952 138.9548
" />
<path d="M162.0952 138.9548
L161.8095 138.9548
" />
<path d="M161.8095 138.9548
L161.7143 138.9072
" />
<path d="M161.7143 138.9072
L161.6667 138.8596
" />
</g><text x="173.9200" y="132.8700"
textLength="3.1548" font-size="1.3333" lengthAdjust="spacingAndGlyphs"
text-anchor="middle" opacity="0" stroke-opacity="0">R10</text>
<g class="stroked-text"><desc>R10</desc>
<path d="M173.2771 132.8248
L172.9438 132.3486
" />
<path d="M172.7057 132.8248
L172.7057 131.8248
" />
<path d="M172.7057 131.8248
L173.0867 131.8248
" />
<path d="M173.0867 131.8248
L173.1819 131.8724
" />
<path d="M173.1819 131.8724
L173.2295 131.9201
" />
<path d="M173.2295 131.9201
L173.2771 132.0153
" />
<path d="M173.2771 132.0153
L173.2771 132.1582
" />
<path d="M173.2771 132.1582
L173.2295 132.2534
" />
<path d="M173.2295 132.2534
L173.1819 132.3010
" />
<path d="M173.1819 132.3010
L173.0867 132.3486
" />
<path d="M173.0867 132.3486
L172.7057 132.3486
" />
<path d="M174.2295 132.8248
L173.6581 132.8248
" />
<path d="M173.9438 132.8248
L173.9438 131.8248
" />
<path d="M173.9438 131.8248
L173.8486 131.9677
" />
<path d="M173.8486 131.9677
L173.7533 132.0629
" />
<path d="M173.7533 132.0629
L173.6581 132.1105
" />
<path d="M174.8486 131.8248
L174.9438 131.8248
" />
<path d="M174.9438 131.8248
L175.0390 131.8724
" />
<path d="M175.0390 131.8724
L175.0867 131.9201
" />
<path d="M175.0867 131.9201
L175.1343 132.0153
" />
<path d="M175.1343 132.0153
L175.1819 132.2058
" />
<path d="M175.1819 132.2058
L175.1819 132.4439
" />
<path d="M175.1819 132.4439
L175.1343 132.6343
" />
<path d="M175.1343 132.6343
L175.0867 132.7296
" />
<path d="M175.0867 132.7296
L175.0390 132.7772
" />
<path d="M175.0390 132.7772
L174.9438 132.8248
" />
<path d="M174.9438 132.8248
L174.8486 132.8248
" />
<path d="M174.8486 132.8248
L174.7533 132.7772
" />
<path d="M174.7533 132.7772
L174.7057 132.7296
" />
<path d="M174.7057 132.7296
L174.6581 132.6343
" />
<path d="M174.6581 132.6343
L174.6105 132.4439
" />
<path d="M174.6105 132.4439
L174.6105 132.2058
" />
<path d="M174.6105 132.2058
L174.6581 132.0153
" />
<path d="M174.6581 132.0153
L174.7057 131.9201
" />
<path d="M174.7057 131.9201
L174.7533 131.8724
" />
<path d="M174.7533 131.8724
L174.8486 131.8248
" />
</g><text x="173.9200" y="102.8700"
textLength="2.2024" font-size="1.3333" lengthAdjust="spacingAndGlyphs"
text-anchor="middle" opacity="0" stroke-opacity="0">R4</text>
<g class="stroked-text"><desc>R4</desc>
<path d="M173.7533 102.8248
L173.4200 102.3486
" />
<path d="M173.1819 102.8248
L173.1819 101.8248
" />
<path d="M173.1819 101.8248
L173.5629 101.8248
" />
<path d="M173.5629 101.8248
L173.6581 101.8724
" />
<path d="M173.6581 101.8724
L173.7057 101.9201
" />
<path d="M173.7057 101.9201
L173.7533 102.0153
" />
<path d="M173.7533 102.0153
L173.7533 102.1582
" />
<path d="M173.7533 102.1582
L173.7057 102.2534
" />
<path d="M173.7057 102.2534
L173.6581 102.3010
" />
<path d="M173.6581 102.3010
L173.5629 102.3486
" />
<path d="M173.5629 102.3486
L173.1819 102.3486
" />
<path d="M174.6105 102.1582
L174.6105 102.8248
" />
<path d="M174.3724 101.7772
L174.1343 102.4915
" />
<path d="M174.1343 102.4915
L174.7533 102.4915
" />
</g></g>
<g style="fill:none; 
stroke:#000000; stroke-width:0.1200; stroke-opacity:1; 
stroke-linecap:round; stroke-linejoin:round;">
<path d="M93.5400 69.5900
L101.2400 69.5900
" />
<path d="M93.5400 83.6100
L93.5400 69.5900
" />
<path d="M93.5400 83.6100
L101.2400 83.6100
" />
<path d="M101.2400 68.7400
L106.8500 68.7400
" />
<path d="M101.2400 69.5900
L101.2400 68.7400
" />
<path d="M101.2400 84.4600
L101.2400 83.6100
" />
<path d="M101.2400 84.4600
L106.8500 84.4600
" />
<path d="M110.9600 79.0500
L110.9600 75.3100
" />
<path d="M110.3730 70.7332 A4.1100 4.1100 0.0 0 0 106.8500 68.7400" />
<path d="M106.8500 84.4600 A4.1102 4.1102 0.0 0 0 110.8087 81.5899" />
<path d="M143.7640 48.2900
L143.9200 48.2900
" />
<path d="M146.0800 48.2900
L146.2360 48.2900
" />
<path d="M143.9214 45.0577 A1.9900 1.9900 0.0 0 0 143.7645 48.2900" />
<path d="M143.9202 45.6889 A1.5000 1.5000 0.0 0 0 143.9200 47.7710" />
<path d="M146.2355 48.2900 A1.9900 1.9900 0.0 0 0 146.0786 45.0577" />
<path d="M146.0800 47.7710 A1.5000 1.5000 0.0 0 0 146.0798 45.6889" />
<path d="M95.8400 92.9700
L101.8400 92.9700
" />
<path d="M95.8400 102.0300
L95.8400 93.0000
" />
<path d="M95.8400 102.0300
L101.8400 102.0300
" />
<path d="M101.8400 92.4400
L103.8900 92.4400
" />
<path d="M101.8400 92.9700
L101.8400 92.4400
" />
<path d="M101.8400 102.5600
L101.8400 102.0300
" />
<path d="M101.8400 102.5600
L103.8900 102.5600
" />
<path d="M103.8900 92.4400
L103.8900 91.7400
" />
<path d="M103.8900 103.2600
L103.8900 102.5600
" />
<path d="M106.1100 103.2600
L106.1100 91.7400
" />
<path d="M106.1100 91.8500 A1.1100 1.1100 0.0 0 0 103.8900 91.8500" />
<path d="M103.8900 103.1500 A1.1100 1.1100 0.0 0 0 106.0966 103.3217" />
<path d="M140.7800 137.3700
L140.7800 132.6300
" />
<path d="M148.2200 132.6300
L140.7800 132.6300
" />
<path d="M148.2200 137.3700
L140.7800 137.3700
" />
<path d="M148.2200 137.3700
L148.2200 132.6300
" />
<path d="M157.0400 106.0000
L157.8100 106.0000
" />
<path d="M157.8100 104.6300
L157.8100 107.3700
" />
<path d="M157.8100 107.3700
L164.3500 107.3700
" />
<path d="M164.3500 104.6300
L157.8100 104.6300
" />
<path d="M164.3500 107.3700
L164.3500 104.6300
" />
<path d="M165.1200 106.0000
L164.3500 106.0000
" />
<path d="M105.6300 56.6500
L105.6300 63.1900
" />
<path d="M105.6300 63.1900
L108.3700 63.1900
" />
<path d="M107.0000 55.8800
L107.0000 56.6500
" />
<path d="M107.0000 63.9600
L107.0000 63.1900
" />
<path d="M108.3700 56.6500
L105.6300 56.6500
" />
<path d="M108.3700 63.1900
L108.3700 56.6500
" />
<path d="M136.0400 72.0000
L136.8100 72.0000
" />
<path d="M136.8100 70.6300
L136.8100 73.3700
" />
<path d="M136.8100 73.3700
L143.3500 73.3700
" />
<path d="M143.3500 70.6300
L136.8100 70.6300
" />
<path d="M143.3500 73.3700
L143.3500 70.6300
" />
<path d="M144.1200 72.0000
L143.3500 72.0000
" />
<path d="M157.0400 127.0000
L157.8100 127.0000
" />
<path d="M157.8100 125.6300
L157.8100 128.3700
" />
<path d="M157.8100 128.3700
L164.3500 128.3700
" />
<path d="M164.3500 125.6300
L157.8100 125.6300
" />
<path d="M164.3500 128.3700
L164.3500 125.6300
" />
<path d="M165.1200 127.0000
L164.3500 127.0000
" />
<path d="M122.2400 40.2610
L122.2400 30.3400
" />
<path d="M123.5650 36.0690
L123.6120 36.0230
" />
<path d="M123.7700 36.2750
L123.8050 36.2390
" />
<path d="M125.8740 33.7610
L125.9090 33.7260
" />
<path d="M126.0670 33.9770
L126.1140 33.9310
" />
<path d="M128.6450 36.0690
L128.6920 36.0230
" />
<path d="M128.8500 36.2750
L128.8850 36.2390
" />
<path d="M130.9540 33.7610
L130.9890 33.7260
" />
<path d="M131.1470 33.9770
L131.1940 33.9310
" />
<path d="M137.6000 30.3400
L122.2400 30.3400
" />
<path d="M137.6000 30.9000
L122.2400 30.9000
" />
<path d="M137.6000 32.4000
L122.2400 32.4000
" />
<path d="M137.6000 37.3010
L122.2400 37.3010
" />
<path d="M137.6000 40.2610
L122.2400 40.2610
" />
<path d="M137.6000 40.2610
L137.6000 30.3400
" />
<path d="M137.8400 30.1000
L137.3400 30.1000
" />
<path d="M137.8400 30.8400
L137.8400 30.1000
" />
<path d="M133.4650 34.3160 A1.6805 1.6805 0.0 0 0 133.4646 35.6830" />
<path d="M135.0000 33.3200 A1.6800 1.6800 0.0 0 0 134.3167 33.4652" />
<path d="M135.6840 33.4650 A1.6805 1.6805 0.0 0 0 134.9712 33.3197" />
<path d="M134.3160 36.5350 A1.6805 1.6805 0.0 0 0 135.6830 36.5354" />
<path d="M136.5350 35.6840 A1.6805 1.6805 0.0 0 0 136.5354 34.3170" />
<circle cx="124.8400" cy="35.0000" r="1.6800" /> 
<circle cx="129.9200" cy="35.0000" r="1.6800" /> 
<path d="M140.0400 106.0000
L140.8100 106.0000
" />
<path d="M140.8100 104.6300
L140.8100 107.3700
" />
<path d="M140.8100 107.3700
L147.3500 107.3700
" />
<path d="M147.3500 104.6300
L140.8100 104.6300
" />
<path d="M147.3500 107.3700
L147.3500 104.6300
" />
<path d="M148.1200 106.0000
L147.3500 106.0000
" />
<path style="fill:none; 
stroke:#000000; stroke-width:0.1000; stroke-opacity:1; 
stroke-linecap:round; stroke-linejoin:round;fill:none"
d="M 111.2000,60.7000
127.7000,60.7000
127.7000,44.7000
111.2000,44.7000
Z" /> 
</g>
<g style="fill:none; 
stroke:#000000; stroke-width:0.1200; stroke-opacity:1; 
stroke-linecap:round; stroke-linejoin:round;">
<path d="M138.1500 98.4700
L138.1500 102.0700
" />
<path d="M142.4500 99.4500 A2.5836 2.5836 0.0 0 0 138.1578 98.4585" />
<path d="M138.1723 102.0784 A2.5712 2.5712 0.0 0 0 142.4500 101.0500" />
<path d="M105.7640 48.2900
L105.9200 48.2900
" />
<path d="M108.0800 48.2900
L108.2360 48.2900
" />
<path d="M105.9214 45.0577 A1.9900 1.9900 0.0 0 0 105.7645 48.2900" />
<path d="M105.9202 45.6889 A1.5000 1.5000 0.0 0 0 105.9200 47.7710" />
<path d="M108.2355 48.2900 A1.9900 1.9900 0.0 0 0 108.0786 45.0577" />
<path d="M108.0800 47.7710 A1.5000 1.5000 0.0 0 0 108.0798 45.6889" />
<path d="M143.6300 56.6500
L143.6300 63.1900
" />
<path d="M143.6300 63.1900
L146.3700 63.1900
" />
<path d="M145.0000 55.8800
L145.0000 56.6500
" />
<path d="M145.0000 63.9600
L145.0000 63.1900
" />
<path d="M146.3700 56.6500
L143.6300 56.6500
" />
<path d="M146.3700 63.1900
L146.3700 56.6500
" />
<path d="M155.1500 98.4700
L155.1500 102.0700
" />
<path d="M159.4500 99.4500 A2.5836 2.5836 0.0 0 0 155.1578 98.4585" />
<path d="M155.1723 102.0784 A2.5712 2.5712 0.0 0 0 159.4500 101.0500" />
<path d="M162.2400 40.2610
L162.2400 30.3400
" />
<path d="M163.5650 36.0690
L163.6120 36.0230
" />
<path d="M163.7700 36.2750
L163.8050 36.2390
" />
<path d="M165.8740 33.7610
L165.9090 33.7260
" />
<path d="M166.0670 33.9770
L166.1140 33.9310
" />
<path d="M168.6450 36.0690
L168.6920 36.0230
" />
<path d="M168.8500 36.2750
L168.8850 36.2390
" />
<path d="M170.9540 33.7610
L170.9890 33.7260
" />
<path d="M171.1470 33.9770
L171.1940 33.9310
" />
<path d="M177.6000 30.3400
L162.2400 30.3400
" />
<path d="M177.6000 30.9000
L162.2400 30.9000
" />
<path d="M177.6000 32.4000
L162.2400 32.4000
" />
<path d="M177.6000 37.3010
L162.2400 37.3010
" />
<path d="M177.6000 40.2610
L162.2400 40.2610
" />
<path d="M177.6000 40.2610
L177.6000 30.3400
" />
<path d="M177.8400 30.1000
L177.3400 30.1000
" />
<path d="M177.8400 30.8400
L177.8400 30.1000
" />
<path d="M173.4650 34.3160 A1.6805 1.6805 0.0 0 0 173.4646 35.6830" />
<path d="M175.0000 33.3200 A1.6800 1.6800 0.0 0 0 174.3167 33.4652" />
<path d="M175.6840 33.4650 A1.6805 1.6805 0.0 0 0 174.9712 33.3197" />
<path d="M174.3160 36.5350 A1.6805 1.6805 0.0 0 0 175.6830 36.5354" />
<path d="M176.5350 35.6840 A1.6805 1.6805 0.0 0 0 176.5354 34.3170" />
<circle cx="164.8400" cy="35.0000" r="1.6800" /> 
<circle cx="169.9200" cy="35.0000" r="1.6800" /> 
<path d="M120.0400 98.0000
L120.8100 98.0000
" />
<path d="M120.8100 96.6300
L120.8100 99.3700
" />
<path d="M120.8100 99.3700
L127.3500 99.3700
" />
<path d="M127.3500 96.6300
L120.8100 96.6300
" />
<path d="M127.3500 99.3700
L127.3500 96.6300
" />
<path d="M128.1200 98.0000
L127.3500 98.0000
" />
<path style="fill:none; 
stroke:#000000; stroke-width:0.1000; stroke-opacity:1; 
stroke-linecap:round; stroke-linejoin:round;fill:none"
d="M 151.2000,60.7000
167.7000,60.7000
167.7000,44.7000
151.2000,44.7000
Z" /> 
</g>
<g style="fill:none; 
stroke:#000000; stroke-width:0.1200; stroke-opacity:1; 
stroke-linecap:round; stroke-linejoin:round;">
<path d="M95.8400 107.9700
L101.8400 107.9700
" />
<path d="M95.8400 117.0300
L95.8400 108.0000
" />
<path d="M95.8400 117.0300
L101.8400 117.0300
" />
<path d="M101.8400 107.4400
L103.8900 107.4400
" />
<path d="M101.8400 107.9700
L101.8400 107.4400
" />
<path d="M101.8400 117.5600
L101.8400 117.0300
" />
<path d="M101.8400 117.5600
L103.8900 117.5600
" />
<path d="M103.8900 107.4400
L103.8900 106.7400
" />
<path d="M103.8900 118.2600
L103.8900 117.5600
" />
<path d="M106.1100 118.2600
L106.1100 106.7400
" />
<path d="M106.1100 106.8500 A1.1100 1.1100 0.0 0 0 103.8900 106.8500" />
<path d="M103.8900 118.1500 A1.1100 1.1100 0.0 0 0 106.0966 118.3217" />
<path d="M155.1500 119.4700
L155.1500 123.0700
" />
<path d="M159.4500 120.4500 A2.5836 2.5836 0.0 0 0 155.1578 119.4585" />
<path d="M155.1723 123.0784 A2.5712 2.5712 0.0 0 0 159.4500 122.0500" />
<path d="M102.2400 40.2610
L102.2400 30.3400
" />
<path d="M103.5650 36.0690
L103.6120 36.0230
" />
<path d="M103.7700 36.2750
L103.8050 36.2390
" />
<path d="M105.8740 33.7610
L105.9090 33.7260
" />
<path d="M106.0670 33.9770
L106.1140 33.9310
" />
<path d="M108.6450 36.0690
L108.6920 36.0230
" />
<path d="M108.8500 36.2750
L108.8850 36.2390
" />
<path d="M110.9540 33.7610
L110.9890 33.7260
" />
<path d="M111.1470 33.9770
L111.1940 33.9310
" />
<path d="M117.6000 30.3400
L102.2400 30.3400
" />
<path d="M117.6000 30.9000
L102.2400 30.9000
" />
<path d="M117.6000 32.4000
L102.2400 32.4000
" />
<path d="M117.6000 37.3010
L102.2400 37.3010
" />
<path d="M117.6000 40.2610
L102.2400 40.2610
" />
<path d="M117.6000 40.2610
L117.6000 30.3400
" />
<path d="M117.8400 30.1000
L117.3400 30.1000
" />
<path d="M117.8400 30.8400
L117.8400 30.1000
" />
<path d="M113.4650 34.3160 A1.6805 1.6805 0.0 0 0 113.4646 35.6830" />
<path d="M115.0000 33.3200 A1.6800 1.6800 0.0 0 0 114.3167 33.4652" />
<path d="M115.6840 33.4650 A1.6805 1.6805 0.0 0 0 114.9712 33.3197" />
<path d="M114.3160 36.5350 A1.6805 1.6805 0.0 0 0 115.6830 36.5354" />
<path d="M116.5350 35.6840 A1.6805 1.6805 0.0 0 0 116.5354 34.3170" />
<circle cx="104.8400" cy="35.0000" r="1.6800" /> 
<circle cx="109.9200" cy="35.0000" r="1.6800" /> 
<path d="M111.5800 60.8800
L111.5800 65.6200
" />
<path d="M111.5800 60.8800
L127.3200 60.8800
" />
<path d="M111.5800 62.6200
L112.6000 62.6200
" />
<path d="M111.5800 65.6200
L112.6000 65.6200
" />
<path d="M115.4000 62.6200
L118.0510 62.6200
" />
<path d="M115.4000 65.6200
L118.0510 65.6200
" />
<path d="M117.8500 60.8800
L117.8500 62.6200
" />
<path d="M120.8500 62.6200
L123.5000 62.6200
" />
<path d="M120.8500 65.6200
L123.5000 65.6200
" />
<path d="M121.0510 60.8800
L121.0510 62.6200
" />
<path d="M126.3000 62.6200
L127.3200 62.6200
" />
<path d="M126.3000 65.6200
L127.3200 65.6200
" />
<path d="M127.3200 60.8800
L127.3200 65.6200
" />
<path d="M157.7800 116.3700
L157.7800 111.6300
" />
<path d="M165.2200 111.6300
L157.7800 111.6300
" />
<path d="M165.2200 116.3700
L157.7800 116.3700
" />
<path d="M165.2200 116.3700
L165.2200 111.6300
" />
<path d="M169.8800 110.0000
L170.6500 110.0000
" />
<path d="M170.6500 108.6300
L170.6500 111.3700
" />
<path d="M170.6500 111.3700
L177.1900 111.3700
" />
<path d="M177.1900 108.6300
L170.6500 108.6300
" />
<path d="M177.1900 111.3700
L177.1900 108.6300
" />
<path d="M177.9600 110.0000
L177.1900 110.0000
" />
<path d="M142.2400 40.2610
L142.2400 30.3400
" />
<path d="M143.5650 36.0690
L143.6120 36.0230
" />
<path d="M143.7700 36.2750
L143.8050 36.2390
" />
<path d="M145.8740 33.7610
L145.9090 33.7260
" />
<path d="M146.0670 33.9770
L146.1140 33.9310
" />
<path d="M148.6450 36.0690
L148.6920 36.0230
" />
<path d="M148.8500 36.2750
L148.8850 36.2390
" />
<path d="M150.9540 33.7610
L150.9890 33.7260
" />
<path d="M151.1470 33.9770
L151.1940 33.9310
" />
<path d="M157.6000 30.3400
L142.2400 30.3400
" />
<path d="M157.6000 30.9000
L142.2400 30.9000
" />
<path d="M157.6000 32.4000
L142.2400 32.4000
" />
<path d="M157.6000 37.3010
L142.2400 37.3010
" />
<path d="M157.6000 40.2610
L142.2400 40.2610
" />
<path d="M157.6000 40.2610
L157.6000 30.3400
" />
<path d="M157.8400 30.1000
L157.3400 30.1000
" />
<path d="M157.8400 30.8400
L157.8400 30.1000
" />
<path d="M153.4650 34.3160 A1.6805 1.6805 0.0 0 0 153.4646 35.6830" />
<path d="M155.0000 33.3200 A1.6800 1.6800 0.0 0 0 154.3167 33.4652" />
<path d="M155.6840 33.4650 A1.6805 1.6805 0.0 0 0 154.9712 33.3197" />
<path d="M154.3160 36.5350 A1.6805 1.6805 0.0 0 0 155.6830 36.5354" />
<path d="M156.5350 35.6840 A1.6805 1.6805 0.0 0 0 156.5354 34.3170" />
<circle cx="144.8400" cy="35.0000" r="1.6800" /> 
<circle cx="149.9200" cy="35.0000" r="1.6800" /> 
<path d="M151.5800 60.8800
L151.5800 65.6200
" />
<path d="M151.5800 60.8800
L167.3200 60.8800
" />
<path d="M151.5800 62.6200
L152.6000 62.6200
" />
<path d="M151.5800 65.6200
L152.6000 65.6200
" />
<path d="M155.4000 62.6200
L158.0510 62.6200
" />
<path d="M155.4000 65.6200
L158.0510 65.6200
" />
<path d="M157.8500 60.8800
L157.8500 62.6200
" />
<path d="M160.8500 62.6200
L163.5000 62.6200
" />
<path d="M160.8500 65.6200
L163.5000 65.6200
" />
<path d="M161.0510 60.8800
L161.0510 62.6200
" />
<path d="M166.3000 62.6200
L167.3200 62.6200
" />
<path d="M166.3000 65.6200
L167.3200 65.6200
" />
<path d="M167.3200 60.8800
L167.3200 65.6200
" />
<path d="M169.8800 120.0000
L170.6500 120.0000
" />
<path d="M170.6500 118.6300
L170.6500 121.3700
" />
<path d="M170.6500 121.3700
L177.1900 121.3700
" />
<path d="M177.1900 118.6300
L170.6500 118.6300
" />
<path d="M177.1900 121.3700
L177.1900 118.6300
" />
<path d="M177.9600 120.0000
L177.1900 120.0000
" />
<path d="M140.7800 116.3700
L140.7800 111.6300
" />
<path d="M148.2200 111.6300
L140.7800 111.6300
" />
<path d="M148.2200 116.3700
L140.7800 116.3700
" />
<path d="M148.2200 116.3700
L148.2200 111.6300
" />
<path d="M140.0400 127.0000
L140.8100 127.0000
" />
<path d="M140.8100 125.6300
L140.8100 128.3700
" />
<path d="M140.8100 128.3700
L147.3500 128.3700
" />
<path d="M147.3500 125.6300
L140.8100 125.6300
" />
<path d="M147.3500 128.3700
L147.3500 125.6300
" />
<path d="M148.1200 127.0000
L147.3500 127.0000
" />
<path d="M94.5400 124.5900
L102.2400 124.5900
" />
<path d="M94.5400 138.6100
L94.5400 124.5900
" />
<path d="M94.5400 138.6100
L102.2400 138.6100
" />
<path d="M102.2400 123.7400
L107.8500 123.7400
" />
<path d="M102.2400 124.5900
L102.2400 123.7400
" />
<path d="M102.2400 139.4600
L102.2400 138.6100
" />
<path d="M102.2400 139.4600
L107.8500 139.4600
" />
<path d="M111.9600 134.0500
L111.9600 130.3100
" />
<path d="M111.3730 125.7332 A4.1100 4.1100 0.0 0 0 107.8500 123.7400" />
<path d="M107.8500 139.4600 A4.1102 4.1102 0.0 0 0 111.8087 136.5899" />
<path d="M138.1500 119.4700
L138.1500 123.0700
" />
<path d="M142.4500 120.4500 A2.5836 2.5836 0.0 0 0 138.1578 119.4585" />
<path d="M138.1723 123.0784 A2.5712 2.5712 0.0 0 0 142.4500 122.0500" />
</g>
<g style="fill:none; 
stroke:#000000; stroke-width:0.1500; stroke-opacity:1; 
stroke-linecap:round; stroke-linejoin:round;">
<path d="M120.5200 77.1100
L181.4800 77.1100
" />
<path d="M120.5200 91.0800
L121.7900 91.0800
" />
<path d="M120.5200 92.3500
L133.2200 92.3500
" />
<path d="M120.5200 94.8900
L120.5200 77.1100
" />
<path d="M121.7900 80.9200
L120.5200 80.9200
" />
<path d="M121.7900 91.0800
L121.7900 80.9200
" />
<path d="M133.2200 79.6500
L120.5200 79.6500
" />
<path d="M133.2200 92.3500
L133.2200 79.6500
" />
<path d="M137.0300 84.7300
L140.8400 84.7300
" />
<path d="M137.0300 87.2700
L137.0300 84.7300
" />
<path d="M140.8400 84.7300
L140.8400 87.2700
" />
<path d="M140.8400 87.2700
L137.0300 87.2700
" />
<path d="M145.9200 79.6500
L145.9200 92.3500
" />
<path d="M145.9200 92.3500
L158.6200 92.3500
" />
<path d="M158.6200 79.6500
L145.9200 79.6500
" />
<path d="M158.6200 92.3500
L158.6200 79.6500
" />
<path d="M162.4808 80.1608
L175.1808 80.1608
" />
<path d="M162.4808 82.7008
L162.4808 80.1608
" />
<path d="M164.2500 86.1016
L164.2500 92.3516
" />
<path d="M164.2500 92.3516
L168.2500 92.3516
" />
<path d="M168.2500 86.1016
L164.2500 86.1016
" />
<path d="M168.2500 92.1016
L168.2500 86.1016
" />
<path d="M168.2500 92.3516
L168.2500 92.1016
" />
<path d="M172.6408 82.7008
L172.6408 80.1608
" />
<path d="M175.1808 80.1608
L175.1808 82.7008
" />
<path d="M175.1808 82.7008
L162.4808 82.7008
" />
<path d="M175.1808 82.7008
L172.6408 82.7008
" />
<path d="M176.4000 82.1900
L176.4000 89.8100
" />
<path d="M176.4000 82.1900
L181.4800 82.1900
" />
<path d="M176.4000 89.8100
L181.4800 89.8100
" />
<path d="M181.4800 77.1100
L181.4800 94.8900
" />
<path d="M181.4800 82.1900
L182.7500 82.1900
" />
<path d="M181.4800 94.8900
L120.5200 94.8900
" />
<path d="M182.7500 82.1900
L182.7500 89.8100
" />
<path d="M182.7500 89.8100
L181.4800 89.8100
" />
<circle cx="138.9350" cy="86.0000" r="0.8980" /> 
<path style="fill:#000000; fill-opacity:1.0000; 
stroke:#000000; stroke-width:0.1000; stroke-opacity:1; 
stroke-linecap:round; stroke-linejoin:round;fill-rule:evenodd;"
d="M 148.3110,86.4340
148.0570,86.6880
147.8030,86.3070
148.0570,86.0530
Z" /> 
<path style="fill:#000000; fill-opacity:1.0000; 
stroke:#000000; stroke-width:0.1000; stroke-opacity:1; 
stroke-linecap:round; stroke-linejoin:round;fill-rule:evenodd;"
d="M 148.6920,86.0530
148.4380,86.3070
148.1840,85.9260
148.4380,85.6720
Z" /> 
<path style="fill:#000000; fill-opacity:1.0000; 
stroke:#000000; stroke-width:0.1000; stroke-opacity:1; 
stroke-linecap:round; stroke-linejoin:round;fill-rule:evenodd;"
d="M 149.0730,85.6720
148.8190,85.9260
148.5650,85.5450
148.8190,85.2910
Z" /> 
<path style="fill:#000000; fill-opacity:1.0000; 
stroke:#000000; stroke-width:0.1000; stroke-opacity:1; 
stroke-linecap:round; stroke-linejoin:round;fill-rule:evenodd;"
d="M 149.4540,86.1800
149.2000,86.4340
148.9460,86.0530
149.2000,85.7990
Z" /> 
<path style="fill:#000000; fill-opacity:1.0000; 
stroke:#000000; stroke-width:0.1000; stroke-opacity:1; 
stroke-linecap:round; stroke-linejoin:round;fill-rule:evenodd;"
d="M 149.8350,85.7990
149.5810,86.0530
149.3270,85.6720
149.5810,85.4180
Z" /> 
<path style="fill:#000000; fill-opacity:1.0000; 
stroke:#000000; stroke-width:0.1000; stroke-opacity:1; 
stroke-linecap:round; stroke-linejoin:round;fill-rule:evenodd;"
d="M 149.8350,86.6880
149.5810,86.9420
149.3270,86.5610
149.5810,86.3070
Z" /> 
<path style="fill:#000000; fill-opacity:1.0000; 
stroke:#000000; stroke-width:0.1000; stroke-opacity:1; 
stroke-linecap:round; stroke-linejoin:round;fill-rule:evenodd;"
d="M 150.2160,86.3070
149.9620,86.5610
149.7080,86.1800
149.9620,85.9260
Z" /> 
<path style="fill:#000000; fill-opacity:1.0000; 
stroke:#000000; stroke-width:0.1000; stroke-opacity:1; 
stroke-linecap:round; stroke-linejoin:round;fill-rule:evenodd;"
d="M 150.5970,86.8150
150.3430,87.0690
150.0890,86.6880
150.3430,86.4340
Z" /> 
</g>
<g style="fill:none; 
stroke:#000000; stroke-width:0.1200; stroke-opacity:1; 
stroke-linecap:round; stroke-linejoin:round;">
<path d="M157.7800 137.3700
L157.7800 132.6300
" />
<path d="M165.2200 132.6300
L157.7800 132.6300
" />
<path d="M165.2200 137.3700
L157.7800 137.3700
" />
<path d="M165.2200 137.3700
L165.2200 132.6300
" />
<path d="M169.8800 130.0000
L170.6500 130.0000
" />
<path d="M170.6500 128.6300
L170.6500 131.3700
" />
<path d="M170.6500 131.3700
L177.1900 131.3700
" />
<path d="M177.1900 128.6300
L170.6500 128.6300
" />
<path d="M177.1900 131.3700
L177.1900 128.6300
" />
<path d="M177.9600 130.0000
L177.1900 130.0000
" />
<path d="M169.8800 100.0000
L170.6500 100.0000
" />
<path d="M170.6500 98.6300
L170.6500 101.3700
" />
<path d="M170.6500 101.3700
L177.1900 101.3700
" />
<path d="M177.1900 98.6300
L170.6500 98.6300
" />
<path d="M177.1900 101.3700
L177.1900 98.6300
" />
<path d="M177.9600 100.0000
L177.1900 100.0000
" />
</g> 
</svg>
