<?xml version="1.0" standalone="no"?>
 <!DOCTYPE svg PUBLIC "-//W3C//DTD SVG 1.1//EN" 
 "http://www.w3.org/Graphics/SVG/1.1/DTD/svg11.dtd"> 
<svg
  xmlns:svg="http://www.w3.org/2000/svg"
  xmlns="http://www.w3.org/2000/svg"
  xmlns:xlink="http://www.w3.org/1999/xlink"
  version="1.1"
  width="297.0022mm" height="210.0072mm" viewBox="0.0000 0.0000 297.0022 210.0072">
<title>SVG Image created as miniv_estop_board-F_Cu_pads.svg date 2025/09/11 01:10:50 </title>
  <desc>Image generated by PCBNEW </desc>
<g style="fill:#000000; fill-opacity:1.0000;stroke:#000000; stroke-opacity:1.0000;
stroke-linecap:round; stroke-linejoin:round;"
 transform="translate(0 0) scale(1 1)">
<path style="fill:#000000; fill-opacity:1.0000; stroke:none;fill-rule:evenodd;"
d="M 104.0000,83.8000
102.0000,83.8000
102.0000,82.9000
104.0000,82.9000
Z" /> 
<path style="fill:#000000; fill-opacity:1.0000; stroke:none;fill-rule:evenodd;"
d="M 104.0000,70.3000
102.0000,70.3000
102.0000,69.4000
104.0000,69.4000
Z" /> 
<path style="fill:#000000; fill-opacity:1.0000; stroke:none;fill-rule:evenodd;"
d="M 107.9750,75.0500
107.7750,75.0303
107.5827,74.9720
107.4055,74.8773
107.2502,74.7498
107.1227,74.5945
107.0280,74.4173
106.9697,74.2250
106.9500,74.0250
106.9500,71.9750
106.9697,71.7750
107.0280,71.5827
107.1227,71.4055
107.2502,71.2502
107.4055,71.1227
107.5827,71.0280
107.7750,70.9697
107.9750,70.9500
110.0250,70.9500
110.2250,70.9697
110.4173,71.0280
110.5945,71.1227
110.7498,71.2502
110.8773,71.4055
110.9720,71.5827
111.0303,71.7750
111.0500,71.9750
111.0500,74.0250
111.0303,74.2250
110.9720,74.4173
110.8773,74.5945
110.7498,74.7498
110.5945,74.8773
110.4173,74.9720
110.2250,75.0303
110.0250,75.0500
Z" /> 
</g>
<g style="fill:#000000; fill-opacity:1.0000; stroke:none;">
<circle cx="109.0000" cy="80.2000" r="2.0500" /> 
<path style="fill:#000000; fill-opacity:1.0000; stroke:none;fill-rule:evenodd;"
d="M 148.9000,48.9000
147.1000,48.9000
147.1000,47.1000
148.9000,47.1000
Z" /> 
</g>
<g style="fill:#000000; fill-opacity:1.0000; stroke:none;">
<circle cx="148.0000" cy="45.4600" r="0.9000" /> 
</g>
<g style="fill:#000000; fill-opacity:1.0000; stroke:none;">
<circle cx="105.0000" cy="103.0000" r="0.7000" /> 
</g>
<g style="fill:#000000; fill-opacity:1.0000; stroke:none;">
<circle cx="105.0000" cy="92.0000" r="0.7000" /> 
<path style="fill:#000000; fill-opacity:1.0000; stroke:none;fill-rule:evenodd;"
d="M 109.0200,101.7500
108.8643,101.7341
108.6946,101.6779
108.5424,101.5840
108.4160,101.4576
108.3221,101.3054
108.2659,101.1357
108.2500,100.9800
108.2500,99.0200
108.2659,98.8643
108.3221,98.6946
108.4160,98.5424
108.5424,98.4160
108.6946,98.3221
108.8643,98.2659
109.0200,98.2500
110.9800,98.2500
111.1357,98.2659
111.3054,98.3221
111.4576,98.4160
111.5840,98.5424
111.6779,98.6946
111.7341,98.8643
111.7500,99.0200
111.7500,100.9800
111.7341,101.1357
111.6779,101.3054
111.5840,101.4576
111.4576,101.5840
111.3054,101.6779
111.1357,101.7341
110.9800,101.7500
Z" /> 
</g>
<g style="fill:#000000; fill-opacity:1.0000; stroke:none;">
<circle cx="110.0000" cy="95.0000" r="1.7500" /> 
</g>
<g style="fill:#000000; fill-opacity:1.0000; stroke:none;">
<circle cx="147.0000" cy="135.0000" r="0.8000" /> 
</g>
<g style="fill:#000000; fill-opacity:1.0000; stroke:none;">
<circle cx="142.0000" cy="135.0000" r="0.8000" /> 
</g>
<g style="fill:#000000; fill-opacity:1.0000; stroke:none;">
<circle cx="185.0000" cy="47.0000" r="0.8000" /> 
</g>
<g style="fill:#000000; fill-opacity:1.0000; stroke:none;">
<circle cx="185.0000" cy="57.1600" r="0.8000" /> 
<circle cx="156.0000" cy="106.0000" r="0.8000" /> 
</g>
<g style="fill:#000000; fill-opacity:1.0000; stroke:none;">
<circle cx="166.1600" cy="106.0000" r="0.8000" /> 
<circle cx="108.0000" cy="61.0000" r="0.8000" /> 
</g>
<g style="fill:#000000; fill-opacity:1.0000; stroke:none;">
<circle cx="108.0000" cy="50.8400" r="0.8000" /> 
<circle cx="135.0000" cy="72.0000" r="0.8000" /> 
</g>
<g style="fill:#000000; fill-opacity:1.0000; stroke:none;">
<circle cx="145.1600" cy="72.0000" r="0.8000" /> 
<path style="fill:#000000; fill-opacity:1.0000; stroke:none;fill-rule:evenodd;"
d="M 108.8000,35.2000
108.8000,32.8000
111.2000,32.8000
111.2000,35.2000
Z" /> 
<circle cx="115.0000" cy="34.0000" r="1.2000" /> 
</g>
<g style="fill:#000000; fill-opacity:1.0000; stroke:none;">
<circle cx="156.0000" cy="127.0000" r="0.8000" /> 
</g>
<g style="fill:#000000; fill-opacity:1.0000; stroke:none;">
<circle cx="166.1600" cy="127.0000" r="0.8000" /> 
<path style="fill:#000000; fill-opacity:1.0000; stroke:none;fill-rule:evenodd;"
d="M 136.3000,18.7000
136.3000,21.3000
133.7000,21.3000
133.7000,18.7000
Z" /> 
<circle cx="129.9200" cy="20.0000" r="1.3000" /> 
</g>
<g style="fill:#000000; fill-opacity:1.0000; stroke:none;">
<circle cx="124.8400" cy="20.0000" r="1.3000" /> 
</g>
<g style="fill:#000000; fill-opacity:1.0000; stroke:none;">
<circle cx="139.0000" cy="106.0000" r="0.8000" /> 
</g>
<g style="fill:#000000; fill-opacity:1.0000; stroke:none;">
<circle cx="149.1600" cy="106.0000" r="0.8000" /> 
<circle cx="183.0000" cy="60.0000" r="0.8000" /> 
</g>
<g style="fill:#000000; fill-opacity:1.0000; stroke:none;">
<circle cx="183.0000" cy="70.1600" r="0.8000" /> 
<circle cx="114.4500" cy="57.2000" r="1.2000" /> 
</g>
<g style="fill:#000000; fill-opacity:1.0000; stroke:none;">
<circle cx="124.4500" cy="57.2000" r="1.2000" /> 
<path style="fill:#000000; fill-opacity:1.0000; stroke:none;fill-rule:evenodd;"
d="M 138.7000,98.4500
140.5000,98.4500
140.5000,99.5500
138.7000,99.5500
Z" /> 
<path style="fill:#000000; fill-opacity:1.0000; stroke:none;fill-rule:evenodd;"
d="M 142.2950,99.7200
142.4002,99.7409
142.4895,99.8005
142.5491,99.8898
142.5700,99.9950
142.5700,100.5450
142.5491,100.6502
142.4895,100.7395
142.4002,100.7991
142.2950,100.8200
141.0450,100.8200
140.9398,100.7991
140.8505,100.7395
140.7909,100.6502
140.7700,100.5450
140.7700,99.9950
140.7909,99.8898
140.8505,99.8005
140.9398,99.7409
141.0450,99.7200
Z" /> 
<path style="fill:#000000; fill-opacity:1.0000; stroke:none;fill-rule:evenodd;"
d="M 140.2250,100.9900
140.3302,101.0109
140.4195,101.0705
140.4791,101.1598
140.5000,101.2650
140.5000,101.8150
140.4791,101.9202
140.4195,102.0095
140.3302,102.0691
140.2250,102.0900
138.9750,102.0900
138.8698,102.0691
138.7805,102.0095
138.7209,101.9202
138.7000,101.8150
138.7000,101.2650
138.7209,101.1598
138.7805,101.0705
138.8698,101.0109
138.9750,100.9900
Z" /> 
<path style="fill:#000000; fill-opacity:1.0000; stroke:none;fill-rule:evenodd;"
d="M 148.8000,36.2000
148.8000,33.8000
151.2000,33.8000
151.2000,36.2000
Z" /> 
</g>
<g style="fill:#000000; fill-opacity:1.0000; stroke:none;">
<circle cx="155.0000" cy="35.0000" r="1.2000" /> 
<path style="fill:#000000; fill-opacity:1.0000; stroke:none;fill-rule:evenodd;"
d="M 108.9000,48.9000
107.1000,48.9000
107.1000,47.1000
108.9000,47.1000
Z" /> 
</g>
<g style="fill:#000000; fill-opacity:1.0000; stroke:none;">
<circle cx="108.0000" cy="45.4600" r="0.9000" /> 
</g>
<g style="fill:#000000; fill-opacity:1.0000; stroke:none;">
<circle cx="190.0000" cy="47.0000" r="0.8000" /> 
</g>
<g style="fill:#000000; fill-opacity:1.0000; stroke:none;">
<circle cx="190.0000" cy="57.1600" r="0.8000" /> 
<circle cx="148.0000" cy="61.0000" r="0.8000" /> 
</g>
<g style="fill:#000000; fill-opacity:1.0000; stroke:none;">
<circle cx="148.0000" cy="50.8400" r="0.8000" /> 
<path style="fill:#000000; fill-opacity:1.0000; stroke:none;fill-rule:evenodd;"
d="M 155.7000,98.4500
157.5000,98.4500
157.5000,99.5500
155.7000,99.5500
Z" /> 
<path style="fill:#000000; fill-opacity:1.0000; stroke:none;fill-rule:evenodd;"
d="M 159.2950,99.7200
159.4002,99.7409
159.4895,99.8005
159.5491,99.8898
159.5700,99.9950
159.5700,100.5450
159.5491,100.6502
159.4895,100.7395
159.4002,100.7991
159.2950,100.8200
158.0450,100.8200
157.9398,100.7991
157.8505,100.7395
157.7909,100.6502
157.7700,100.5450
157.7700,99.9950
157.7909,99.8898
157.8505,99.8005
157.9398,99.7409
158.0450,99.7200
Z" /> 
<path style="fill:#000000; fill-opacity:1.0000; stroke:none;fill-rule:evenodd;"
d="M 157.2250,100.9900
157.3302,101.0109
157.4195,101.0705
157.4791,101.1598
157.5000,101.2650
157.5000,101.8150
157.4791,101.9202
157.4195,102.0095
157.3302,102.0691
157.2250,102.0900
155.9750,102.0900
155.8698,102.0691
155.7805,102.0095
155.7209,101.9202
155.7000,101.8150
155.7000,101.2650
155.7209,101.1598
155.7805,101.0705
155.8698,101.0109
155.9750,100.9900
Z" /> 
<path style="fill:#000000; fill-opacity:1.0000; stroke:none;fill-rule:evenodd;"
d="M 176.3000,18.7000
176.3000,21.3000
173.7000,21.3000
173.7000,18.7000
Z" /> 
<circle cx="169.9200" cy="20.0000" r="1.3000" /> 
</g>
<g style="fill:#000000; fill-opacity:1.0000; stroke:none;">
<circle cx="164.8400" cy="20.0000" r="1.3000" /> 
</g>
<g style="fill:#000000; fill-opacity:1.0000; stroke:none;">
<circle cx="119.0000" cy="98.0000" r="0.8000" /> 
</g>
<g style="fill:#000000; fill-opacity:1.0000; stroke:none;">
<circle cx="129.1600" cy="98.0000" r="0.8000" /> 
<circle cx="154.4500" cy="57.2000" r="1.2000" /> 
</g>
<g style="fill:#000000; fill-opacity:1.0000; stroke:none;">
<circle cx="164.4500" cy="57.2000" r="1.2000" /> 
</g>
<g style="fill:#000000; fill-opacity:1.0000; stroke:none;">
<circle cx="105.0000" cy="118.0000" r="0.7000" /> 
</g>
<g style="fill:#000000; fill-opacity:1.0000; stroke:none;">
<circle cx="105.0000" cy="107.0000" r="0.7000" /> 
<path style="fill:#000000; fill-opacity:1.0000; stroke:none;fill-rule:evenodd;"
d="M 109.0200,116.7500
108.8643,116.7341
108.6946,116.6779
108.5424,116.5840
108.4160,116.4576
108.3221,116.3054
108.2659,116.1357
108.2500,115.9800
108.2500,114.0200
108.2659,113.8643
108.3221,113.6946
108.4160,113.5424
108.5424,113.4160
108.6946,113.3221
108.8643,113.2659
109.0200,113.2500
110.9800,113.2500
111.1357,113.2659
111.3054,113.3221
111.4576,113.4160
111.5840,113.5424
111.6779,113.6946
111.7341,113.8643
111.7500,114.0200
111.7500,115.9800
111.7341,116.1357
111.6779,116.3054
111.5840,116.4576
111.4576,116.5840
111.3054,116.6779
111.1357,116.7341
110.9800,116.7500
Z" /> 
</g>
<g style="fill:#000000; fill-opacity:1.0000; stroke:none;">
<circle cx="110.0000" cy="110.0000" r="1.7500" /> 
<path style="fill:#000000; fill-opacity:1.0000; stroke:none;fill-rule:evenodd;"
d="M 155.7000,119.4500
157.5000,119.4500
157.5000,120.5500
155.7000,120.5500
Z" /> 
<path style="fill:#000000; fill-opacity:1.0000; stroke:none;fill-rule:evenodd;"
d="M 159.2950,120.7200
159.4002,120.7409
159.4895,120.8005
159.5491,120.8898
159.5700,120.9950
159.5700,121.5450
159.5491,121.6502
159.4895,121.7395
159.4002,121.7991
159.2950,121.8200
158.0450,121.8200
157.9398,121.7991
157.8505,121.7395
157.7909,121.6502
157.7700,121.5450
157.7700,120.9950
157.7909,120.8898
157.8505,120.8005
157.9398,120.7409
158.0450,120.7200
Z" /> 
<path style="fill:#000000; fill-opacity:1.0000; stroke:none;fill-rule:evenodd;"
d="M 157.2250,121.9900
157.3302,122.0109
157.4195,122.0705
157.4791,122.1598
157.5000,122.2650
157.5000,122.8150
157.4791,122.9202
157.4195,123.0095
157.3302,123.0691
157.2250,123.0900
155.9750,123.0900
155.8698,123.0691
155.7805,123.0095
155.7209,122.9202
155.7000,122.8150
155.7000,122.2650
155.7209,122.1598
155.7805,122.0705
155.8698,122.0109
155.9750,121.9900
Z" /> 
<path style="fill:#000000; fill-opacity:1.0000; stroke:none;fill-rule:evenodd;"
d="M 116.3000,18.7000
116.3000,21.3000
113.7000,21.3000
113.7000,18.7000
Z" /> 
</g>
<g style="fill:#000000; fill-opacity:1.0000; stroke:none;">
<circle cx="109.9200" cy="20.0000" r="1.3000" /> 
</g>
<g style="fill:#000000; fill-opacity:1.0000; stroke:none;">
<circle cx="104.8400" cy="20.0000" r="1.3000" /> 
<path style="fill:#000000; fill-opacity:1.0000; stroke:none;fill-rule:evenodd;"
d="M 112.7500,66.2500
112.7500,61.7500
115.2500,61.7500
115.2500,66.2500
Z" /> 
</g>
<g style="fill:none; 
stroke:#000000; stroke-width:2.5000; stroke-opacity:1; 
stroke-linecap:round; stroke-linejoin:round;">
<path d="M119.4500 63.0000
L119.4500 65.0000
" />
<path d="M124.9000 63.0000
L124.9000 65.0000
" />
</g>
<g style="fill:#000000; fill-opacity:1.0000; stroke:none;">
<circle cx="164.0000" cy="114.0000" r="0.8000" /> 
</g>
<g style="fill:#000000; fill-opacity:1.0000; stroke:none;">
<circle cx="159.0000" cy="114.0000" r="0.8000" /> 
</g>
<g style="fill:#000000; fill-opacity:1.0000; stroke:none;">
<circle cx="179.0000" cy="110.0000" r="0.8000" /> 
</g>
<g style="fill:#000000; fill-opacity:1.0000; stroke:none;">
<circle cx="168.8400" cy="110.0000" r="0.8000" /> 
<path style="fill:#000000; fill-opacity:1.0000; stroke:none;fill-rule:evenodd;"
d="M 156.3000,18.7000
156.3000,21.3000
153.7000,21.3000
153.7000,18.7000
Z" /> 
<circle cx="149.9200" cy="20.0000" r="1.3000" /> 
</g>
<g style="fill:#000000; fill-opacity:1.0000; stroke:none;">
<circle cx="144.8400" cy="20.0000" r="1.3000" /> 
</g>
<g style="fill:#000000; fill-opacity:1.0000; stroke:none;">
<circle cx="188.0000" cy="60.0000" r="0.8000" /> 
</g>
<g style="fill:#000000; fill-opacity:1.0000; stroke:none;">
<circle cx="188.0000" cy="70.1600" r="0.8000" /> 
<path style="fill:#000000; fill-opacity:1.0000; stroke:none;fill-rule:evenodd;"
d="M 168.8000,36.2000
168.8000,33.8000
171.2000,33.8000
171.2000,36.2000
Z" /> 
<circle cx="175.0000" cy="35.0000" r="1.2000" /> 
<path style="fill:#000000; fill-opacity:1.0000; stroke:none;fill-rule:evenodd;"
d="M 128.8000,35.2000
128.8000,32.8000
131.2000,32.8000
131.2000,35.2000
Z" /> 
</g>
<g style="fill:#000000; fill-opacity:1.0000; stroke:none;">
<circle cx="135.0000" cy="34.0000" r="1.2000" /> 
<path style="fill:#000000; fill-opacity:1.0000; stroke:none;fill-rule:evenodd;"
d="M 152.7500,66.2500
152.7500,61.7500
155.2500,61.7500
155.2500,66.2500
Z" /> 
</g>
<g style="fill:none; 
stroke:#000000; stroke-width:2.5000; stroke-opacity:1; 
stroke-linecap:round; stroke-linejoin:round;">
<path d="M159.4500 63.0000
L159.4500 65.0000
" />
<path d="M164.9000 63.0000
L164.9000 65.0000
" />
</g>
<g style="fill:#000000; fill-opacity:1.0000; stroke:none;">
<circle cx="179.0000" cy="120.0000" r="0.8000" /> 
</g>
<g style="fill:#000000; fill-opacity:1.0000; stroke:none;">
<circle cx="168.8400" cy="120.0000" r="0.8000" /> 
<circle cx="147.0000" cy="114.0000" r="0.8000" /> 
</g>
<g style="fill:#000000; fill-opacity:1.0000; stroke:none;">
<circle cx="142.0000" cy="114.0000" r="0.8000" /> 
</g>
<g style="fill:#000000; fill-opacity:1.0000; stroke:none;">
<circle cx="139.0000" cy="127.0000" r="0.8000" /> 
</g>
<g style="fill:#000000; fill-opacity:1.0000; stroke:none;">
<circle cx="149.1600" cy="127.0000" r="0.8000" /> 
<path style="fill:#000000; fill-opacity:1.0000; stroke:none;fill-rule:evenodd;"
d="M 134.8000,140.0000
134.8000,142.0000
133.9000,142.0000
133.9000,140.0000
Z" /> 
<path style="fill:#000000; fill-opacity:1.0000; stroke:none;fill-rule:evenodd;"
d="M 121.3000,140.0000
121.3000,142.0000
120.4000,142.0000
120.4000,140.0000
Z" /> 
<path style="fill:#000000; fill-opacity:1.0000; stroke:none;fill-rule:evenodd;"
d="M 126.0500,136.0250
126.0303,136.2250
125.9720,136.4173
125.8773,136.5945
125.7498,136.7498
125.5945,136.8773
125.4173,136.9720
125.2250,137.0303
125.0250,137.0500
122.9750,137.0500
122.7750,137.0303
122.5827,136.9720
122.4055,136.8773
122.2502,136.7498
122.1227,136.5945
122.0280,136.4173
121.9697,136.2250
121.9500,136.0250
121.9500,133.9750
121.9697,133.7750
122.0280,133.5827
122.1227,133.4055
122.2502,133.2502
122.4055,133.1227
122.5827,133.0280
122.7750,132.9697
122.9750,132.9500
125.0250,132.9500
125.2250,132.9697
125.4173,133.0280
125.5945,133.1227
125.7498,133.2502
125.8773,133.4055
125.9720,133.5827
126.0303,133.7750
126.0500,133.9750
Z" /> 
<circle cx="131.2000" cy="135.0000" r="2.0500" /> 
<path style="fill:#000000; fill-opacity:1.0000; stroke:none;fill-rule:evenodd;"
d="M 138.7000,119.4500
140.5000,119.4500
140.5000,120.5500
138.7000,120.5500
Z" /> 
<path style="fill:#000000; fill-opacity:1.0000; stroke:none;fill-rule:evenodd;"
d="M 142.2950,120.7200
142.4002,120.7409
142.4895,120.8005
142.5491,120.8898
142.5700,120.9950
142.5700,121.5450
142.5491,121.6502
142.4895,121.7395
142.4002,121.7991
142.2950,121.8200
141.0450,121.8200
140.9398,121.7991
140.8505,121.7395
140.7909,121.6502
140.7700,121.5450
140.7700,120.9950
140.7909,120.8898
140.8505,120.8005
140.9398,120.7409
141.0450,120.7200
Z" /> 
<path style="fill:#000000; fill-opacity:1.0000; stroke:none;fill-rule:evenodd;"
d="M 140.2250,121.9900
140.3302,122.0109
140.4195,122.0705
140.4791,122.1598
140.5000,122.2650
140.5000,122.8150
140.4791,122.9202
140.4195,123.0095
140.3302,123.0691
140.2250,123.0900
138.9750,123.0900
138.8698,123.0691
138.7805,123.0095
138.7209,122.9202
138.7000,122.8150
138.7000,122.2650
138.7209,122.1598
138.7805,122.0705
138.8698,122.0109
138.9750,121.9900
Z" /> 
<path style="fill:#000000; fill-opacity:1.0000; stroke:none;fill-rule:evenodd;"
d="M 181.0100,77.5800
181.0100,79.1800
179.4100,79.1800
179.4100,77.5800
Z" /> 
</g>
<g style="fill:#000000; fill-opacity:1.0000; stroke:none;">
<circle cx="177.6700" cy="78.3800" r="0.8000" /> 
</g>
<g style="fill:#000000; fill-opacity:1.0000; stroke:none;">
<circle cx="175.1300" cy="78.3800" r="0.8000" /> 
</g>
<g style="fill:#000000; fill-opacity:1.0000; stroke:none;">
<circle cx="172.5900" cy="78.3800" r="0.8000" /> 
</g>
<g style="fill:#000000; fill-opacity:1.0000; stroke:none;">
<circle cx="170.0500" cy="78.3800" r="0.8000" /> 
</g>
<g style="fill:#000000; fill-opacity:1.0000; stroke:none;">
<circle cx="167.5100" cy="78.3800" r="0.8000" /> 
</g>
<g style="fill:#000000; fill-opacity:1.0000; stroke:none;">
<circle cx="164.9700" cy="78.3800" r="0.8000" /> 
</g>
<g style="fill:#000000; fill-opacity:1.0000; stroke:none;">
<circle cx="162.4300" cy="78.3800" r="0.8000" /> 
</g>
<g style="fill:#000000; fill-opacity:1.0000; stroke:none;">
<circle cx="159.8900" cy="78.3800" r="0.8000" /> 
</g>
<g style="fill:#000000; fill-opacity:1.0000; stroke:none;">
<circle cx="157.3500" cy="78.3800" r="0.8000" /> 
</g>
<g style="fill:#000000; fill-opacity:1.0000; stroke:none;">
<circle cx="154.8100" cy="78.3800" r="0.8000" /> 
</g>
<g style="fill:#000000; fill-opacity:1.0000; stroke:none;">
<circle cx="152.2700" cy="78.3800" r="0.8000" /> 
</g>
<g style="fill:#000000; fill-opacity:1.0000; stroke:none;">
<circle cx="149.7300" cy="78.3800" r="0.8000" /> 
</g>
<g style="fill:#000000; fill-opacity:1.0000; stroke:none;">
<circle cx="147.1900" cy="78.3800" r="0.8000" /> 
</g>
<g style="fill:#000000; fill-opacity:1.0000; stroke:none;">
<circle cx="144.6500" cy="78.3800" r="0.8000" /> 
</g>
<g style="fill:#000000; fill-opacity:1.0000; stroke:none;">
<circle cx="142.1100" cy="78.3800" r="0.8000" /> 
</g>
<g style="fill:#000000; fill-opacity:1.0000; stroke:none;">
<circle cx="139.5700" cy="78.3800" r="0.8000" /> 
</g>
<g style="fill:#000000; fill-opacity:1.0000; stroke:none;">
<circle cx="137.0300" cy="78.3800" r="0.8000" /> 
</g>
<g style="fill:#000000; fill-opacity:1.0000; stroke:none;">
<circle cx="134.4900" cy="78.3800" r="0.8000" /> 
</g>
<g style="fill:#000000; fill-opacity:1.0000; stroke:none;">
<circle cx="131.9500" cy="78.3800" r="0.8000" /> 
</g>
<g style="fill:#000000; fill-opacity:1.0000; stroke:none;">
<circle cx="129.4100" cy="78.3800" r="0.8000" /> 
</g>
<g style="fill:#000000; fill-opacity:1.0000; stroke:none;">
<circle cx="126.8700" cy="78.3800" r="0.8000" /> 
</g>
<g style="fill:#000000; fill-opacity:1.0000; stroke:none;">
<circle cx="124.3300" cy="78.3800" r="0.8000" /> 
</g>
<g style="fill:#000000; fill-opacity:1.0000; stroke:none;">
<circle cx="121.7900" cy="78.3800" r="0.8000" /> 
</g>
<g style="fill:#000000; fill-opacity:1.0000; stroke:none;">
<circle cx="121.7900" cy="93.6200" r="0.8000" /> 
</g>
<g style="fill:#000000; fill-opacity:1.0000; stroke:none;">
<circle cx="124.3300" cy="93.6200" r="0.8000" /> 
</g>
<g style="fill:#000000; fill-opacity:1.0000; stroke:none;">
<circle cx="126.8700" cy="93.6200" r="0.8000" /> 
</g>
<g style="fill:#000000; fill-opacity:1.0000; stroke:none;">
<circle cx="129.4100" cy="93.6200" r="0.8000" /> 
</g>
<g style="fill:#000000; fill-opacity:1.0000; stroke:none;">
<circle cx="131.9500" cy="93.6200" r="0.8000" /> 
</g>
<g style="fill:#000000; fill-opacity:1.0000; stroke:none;">
<circle cx="134.4900" cy="93.6200" r="0.8000" /> 
</g>
<g style="fill:#000000; fill-opacity:1.0000; stroke:none;">
<circle cx="137.0300" cy="93.6200" r="0.8000" /> 
</g>
<g style="fill:#000000; fill-opacity:1.0000; stroke:none;">
<circle cx="139.5700" cy="93.6200" r="0.8000" /> 
</g>
<g style="fill:#000000; fill-opacity:1.0000; stroke:none;">
<circle cx="142.1100" cy="93.6200" r="0.8000" /> 
</g>
<g style="fill:#000000; fill-opacity:1.0000; stroke:none;">
<circle cx="144.6500" cy="93.6200" r="0.8000" /> 
</g>
<g style="fill:#000000; fill-opacity:1.0000; stroke:none;">
<circle cx="147.1900" cy="93.6200" r="0.8000" /> 
</g>
<g style="fill:#000000; fill-opacity:1.0000; stroke:none;">
<circle cx="149.7300" cy="93.6200" r="0.8000" /> 
</g>
<g style="fill:#000000; fill-opacity:1.0000; stroke:none;">
<circle cx="152.2700" cy="93.6200" r="0.8000" /> 
</g>
<g style="fill:#000000; fill-opacity:1.0000; stroke:none;">
<circle cx="154.8100" cy="93.6200" r="0.8000" /> 
</g>
<g style="fill:#000000; fill-opacity:1.0000; stroke:none;">
<circle cx="157.3500" cy="93.6200" r="0.8000" /> 
</g>
<g style="fill:#000000; fill-opacity:1.0000; stroke:none;">
<circle cx="159.8900" cy="93.6200" r="0.8000" /> 
</g>
<g style="fill:#000000; fill-opacity:1.0000; stroke:none;">
<circle cx="162.4300" cy="93.6200" r="0.8000" /> 
</g>
<g style="fill:#000000; fill-opacity:1.0000; stroke:none;">
<circle cx="164.9700" cy="93.6200" r="0.8000" /> 
</g>
<g style="fill:#000000; fill-opacity:1.0000; stroke:none;">
<circle cx="167.5100" cy="93.6200" r="0.8000" /> 
</g>
<g style="fill:#000000; fill-opacity:1.0000; stroke:none;">
<circle cx="170.0500" cy="93.6200" r="0.8000" /> 
</g>
<g style="fill:#000000; fill-opacity:1.0000; stroke:none;">
<circle cx="172.5900" cy="93.6200" r="0.8000" /> 
</g>
<g style="fill:#000000; fill-opacity:1.0000; stroke:none;">
<circle cx="175.1300" cy="93.6200" r="0.8000" /> 
</g>
<g style="fill:#000000; fill-opacity:1.0000; stroke:none;">
<circle cx="177.6700" cy="93.6200" r="0.8000" /> 
</g>
<g style="fill:#000000; fill-opacity:1.0000; stroke:none;">
<circle cx="180.2100" cy="93.6200" r="0.8000" /> 
</g>
<g style="fill:#000000; fill-opacity:1.0000; stroke:none;">
<circle cx="177.6700" cy="91.0800" r="0.8000" /> 
</g>
<g style="fill:#000000; fill-opacity:1.0000; stroke:none;">
<circle cx="134.4900" cy="80.9200" r="0.8000" /> 
</g>
<g style="fill:#000000; fill-opacity:1.0000; stroke:none;">
<circle cx="134.4900" cy="83.4600" r="0.8000" /> 
</g>
<g style="fill:#000000; fill-opacity:1.0000; stroke:none;">
<circle cx="134.4900" cy="86.0000" r="0.8000" /> 
</g>
<g style="fill:#000000; fill-opacity:1.0000; stroke:none;">
<circle cx="134.4900" cy="88.5400" r="0.8000" /> 
</g>
<g style="fill:#000000; fill-opacity:1.0000; stroke:none;">
<circle cx="134.4900" cy="91.0800" r="0.8000" /> 
<path style="fill:#000000; fill-opacity:1.0000; stroke:none;fill-rule:evenodd;"
d="M 174.7108,80.6308
174.7108,82.2308
173.1108,82.2308
173.1108,80.6308
Z" /> 
</g>
<g style="fill:#000000; fill-opacity:1.0000; stroke:none;">
<circle cx="171.3708" cy="81.4308" r="0.8000" /> 
</g>
<g style="fill:#000000; fill-opacity:1.0000; stroke:none;">
<circle cx="168.8308" cy="81.4308" r="0.8000" /> 
</g>
<g style="fill:#000000; fill-opacity:1.0000; stroke:none;">
<circle cx="166.2908" cy="81.4308" r="0.8000" /> 
</g>
<g style="fill:#000000; fill-opacity:1.0000; stroke:none;">
<circle cx="163.7508" cy="81.4308" r="0.8000" /> 
<path style="fill:#000000; fill-opacity:1.0000; stroke:none;fill-rule:evenodd;"
d="M 167.8900,90.5316
167.8900,91.8316
166.5900,91.8316
166.5900,90.5316
Z" /> 
</g>
<g style="fill:#000000; fill-opacity:1.0000; stroke:none;">
<circle cx="167.2400" cy="89.1816" r="0.6500" /> 
</g>
<g style="fill:#000000; fill-opacity:1.0000; stroke:none;">
<circle cx="167.2400" cy="87.1816" r="0.6500" /> 
</g>
<g style="fill:#000000; fill-opacity:1.0000; stroke:none;">
<circle cx="165.2400" cy="87.1816" r="0.6500" /> 
</g>
<g style="fill:#000000; fill-opacity:1.0000; stroke:none;">
<circle cx="165.2400" cy="89.1816" r="0.6500" /> 
</g>
<g style="fill:#000000; fill-opacity:1.0000; stroke:none;">
<circle cx="165.2400" cy="91.1816" r="0.6500" /> 
</g>
<g style="fill:#000000; fill-opacity:1.0000; stroke:none;">
<circle cx="179.4800" cy="87.2700" r="0.6500" /> 
</g>
<g style="fill:#000000; fill-opacity:1.0000; stroke:none;">
<circle cx="179.4800" cy="84.7300" r="0.6500" /> 
</g>
<g style="fill:#000000; fill-opacity:1.0000; stroke:none;">
<circle cx="164.0000" cy="135.0000" r="0.8000" /> 
</g>
<g style="fill:#000000; fill-opacity:1.0000; stroke:none;">
<circle cx="159.0000" cy="135.0000" r="0.8000" /> 
</g>
<g style="fill:#000000; fill-opacity:1.0000; stroke:none;">
<circle cx="179.0000" cy="130.0000" r="0.8000" /> 
</g>
<g style="fill:#000000; fill-opacity:1.0000; stroke:none;">
<circle cx="168.8400" cy="130.0000" r="0.8000" /> 
<circle cx="179.0000" cy="100.0000" r="0.8000" /> 
</g>
<g style="fill:#000000; fill-opacity:1.0000; stroke:none;">
<circle cx="168.8400" cy="100.0000" r="0.8000" /> 
<circle cx="192.0250" cy="152.3483" r="0.0000" /> 
<circle cx="91.6517" cy="12.9750" r="0.0000" /> 
</g> 
</svg>
