<?xml version='1.0' encoding='ASCII' standalone='yes'?>
<svg xmlns:svg="http://www.w3.org/2000/svg" xmlns="http://www.w3.org/2000/svg" xmlns:xlink="http://www.w3.org/1999/xlink" version="1.1" width="297.0022mm" height="210.0072mm" viewBox="0.0000 0.0000 297.0022 210.0072">
<svg:rect x="0" y="0" width="297.0022" height="210.0072" fill="#FFFFFF"/><title>SVG Image created as miniv_estop_board-F_Courtyard.svg date 2025/04/05 00:57:29 </title>
  <desc>Image generated by PCBNEW </desc>
<g style="fill:#C2C2C2; fill-opacity:1.0000;stroke:#C2C2C2; stroke-opacity:1.0000; stroke-linecap:round; stroke-linejoin:round;" transform="translate(0 0) scale(1 1)">
</g>
<g style="fill:none;  stroke:#C2C2C2; stroke-width:0.0500; stroke-opacity:1;  stroke-linecap:round; stroke-linejoin:round;">
<path d="M93.1500 84.8500 L93.1500 68.3500 "/>
<path d="M93.1500 84.8500 L111.5500 84.8500 "/>
<path d="M111.5500 68.3500 L93.1500 68.3500 "/>
<path d="M111.5500 68.3500 L111.5500 84.8500 "/>
<path d="M145.7500 44.3000 L145.7500 49.1500 "/>
<path d="M145.7500 49.1500 L150.2500 49.1500 "/>
<path d="M150.2500 44.3000 L145.7500 44.3000 "/>
<path d="M150.2500 49.1500 L150.2500 44.3000 "/>
<path d="M95.4500 92.5800 L101.4500 92.5800 "/>
<path d="M95.4500 102.4200 L95.4500 92.5800 "/>
<path d="M95.4500 102.4200 L101.4500 102.4200 "/>
<path d="M101.4500 90.3500 L112.2500 90.3500 "/>
<path d="M101.4500 92.5800 L101.4500 90.3500 "/>
<path d="M101.4500 104.6500 L101.4500 102.4200 "/>
<path d="M101.4500 104.6500 L112.2500 104.6500 "/>
<path d="M112.2500 104.6500 L112.2500 90.3500 "/>
<path d="M140.6500 132.5000 L140.6500 137.5000 "/>
<path d="M140.6500 137.5000 L148.3500 137.5000 "/>
<path d="M148.3500 132.5000 L140.6500 132.5000 "/>
<path d="M148.3500 137.5000 L148.3500 132.5000 "/>
<path d="M183.5000 45.9500 L183.5000 58.2100 "/>
<path d="M183.5000 58.2100 L186.5000 58.2100 "/>
<path d="M186.5000 45.9500 L183.5000 45.9500 "/>
<path d="M186.5000 58.2100 L186.5000 45.9500 "/>
<path d="M154.9500 104.5000 L154.9500 107.5000 "/>
<path d="M154.9500 107.5000 L167.2100 107.5000 "/>
<path d="M167.2100 104.5000 L154.9500 104.5000 "/>
<path d="M167.2100 107.5000 L167.2100 104.5000 "/>
<path d="M106.5000 49.7900 L106.5000 62.0500 "/>
<path d="M106.5000 62.0500 L109.5000 62.0500 "/>
<path d="M109.5000 49.7900 L106.5000 49.7900 "/>
<path d="M109.5000 62.0500 L109.5000 49.7900 "/>
<path d="M133.9500 70.5000 L133.9500 73.5000 "/>
<path d="M133.9500 73.5000 L146.2100 73.5000 "/>
<path d="M146.2100 70.5000 L133.9500 70.5000 "/>
<path d="M146.2100 73.5000 L146.2100 70.5000 "/>
<circle cx="112.5000" cy="34.0000" r="6.5000"/> 
<path d="M154.9500 125.5000 L154.9500 128.5000 "/>
<path d="M154.9500 128.5000 L167.2100 128.5000 "/>
<path d="M167.2100 125.5000 L154.9500 125.5000 "/>
<path d="M167.2100 128.5000 L167.2100 125.5000 "/>
<path d="M121.7900 14.9000 L121.7900 25.7100 "/>
<path d="M121.7900 25.7100 L138.0400 25.7100 "/>
<path d="M138.0400 14.9000 L121.7900 14.9000 "/>
<path d="M138.0400 25.7100 L138.0400 14.9000 "/>
<path d="M137.9500 104.5000 L137.9500 107.5000 "/>
<path d="M137.9500 107.5000 L150.2100 107.5000 "/>
<path d="M150.2100 104.5000 L137.9500 104.5000 "/>
<path d="M150.2100 107.5000 L150.2100 104.5000 "/>
<path d="M181.5000 58.9500 L181.5000 71.2100 "/>
<path d="M181.5000 71.2100 L184.5000 71.2100 "/>
<path d="M184.5000 58.9500 L181.5000 58.9500 "/>
<path d="M184.5000 71.2100 L184.5000 58.9500 "/>
<path d="M137.9900 103.0000 L137.9900 97.5400 "/>
<path d="M137.9900 103.0000 L143.0500 103.0000 "/>
<path d="M143.0500 97.5400 L143.0500 103.0000 "/>
<path d="M143.0500 97.5500 L137.9900 97.5400 "/>
<circle cx="152.5000" cy="35.0000" r="6.5000"/> 
<path d="M105.7500 44.3000 L105.7500 49.1500 "/>
<path d="M105.7500 49.1500 L110.2500 49.1500 "/>
<path d="M110.2500 44.3000 L105.7500 44.3000 "/>
<path d="M110.2500 49.1500 L110.2500 44.3000 "/>
<path d="M188.5000 45.9500 L188.5000 58.2100 "/>
<path d="M188.5000 58.2100 L191.5000 58.2100 "/>
<path d="M191.5000 45.9500 L188.5000 45.9500 "/>
<path d="M191.5000 58.2100 L191.5000 45.9500 "/>
<circle cx="188.0000" cy="137.0000" r="3.4500"/> 
<path d="M146.5000 49.7900 L146.5000 62.0500 "/>
<path d="M146.5000 62.0500 L149.5000 62.0500 "/>
<path d="M149.5000 49.7900 L146.5000 49.7900 "/>
<path d="M149.5000 62.0500 L149.5000 49.7900 "/>
<path d="M154.9900 103.0000 L154.9900 97.5400 "/>
<path d="M154.9900 103.0000 L160.0500 103.0000 "/>
<path d="M160.0500 97.5400 L160.0500 103.0000 "/>
<path d="M160.0500 97.5500 L154.9900 97.5400 "/>
<path d="M161.7900 14.9000 L161.7900 25.7100 "/>
<path d="M161.7900 25.7100 L178.0400 25.7100 "/>
<path d="M178.0400 14.9000 L161.7900 14.9000 "/>
<path d="M178.0400 25.7100 L178.0400 14.9000 "/>
<path d="M117.9500 96.5000 L117.9500 99.5000 "/>
<path d="M117.9500 99.5000 L130.2100 99.5000 "/>
<path d="M130.2100 96.5000 L117.9500 96.5000 "/>
<path d="M130.2100 99.5000 L130.2100 96.5000 "/>
<path d="M95.4500 107.5800 L101.4500 107.5800 "/>
<path d="M95.4500 117.4200 L95.4500 107.5800 "/>
<path d="M95.4500 117.4200 L101.4500 117.4200 "/>
<path d="M101.4500 105.3500 L112.2500 105.3500 "/>
<path d="M101.4500 107.5800 L101.4500 105.3500 "/>
<path d="M101.4500 119.6500 L101.4500 117.4200 "/>
<path d="M101.4500 119.6500 L112.2500 119.6500 "/>
<path d="M112.2500 119.6500 L112.2500 105.3500 "/>
<path d="M154.9900 124.0000 L154.9900 118.5400 "/>
<path d="M154.9900 124.0000 L160.0500 124.0000 "/>
<path d="M160.0500 118.5400 L160.0500 124.0000 "/>
<path d="M160.0500 118.5500 L154.9900 118.5400 "/>
<path d="M101.7900 14.9000 L101.7900 25.7100 "/>
<path d="M101.7900 25.7100 L118.0400 25.7100 "/>
<path d="M118.0400 14.9000 L101.7900 14.9000 "/>
<path d="M118.0400 25.7100 L118.0400 14.9000 "/>
<path d="M111.4500 60.7500 L111.4500 66.5000 "/>
<path d="M111.4500 66.5000 L127.4500 66.5000 "/>
<path d="M127.4500 60.7500 L111.4500 60.7500 "/>
<path d="M127.4500 66.5000 L127.4500 60.7500 "/>
<path d="M157.6500 111.5000 L157.6500 116.5000 "/>
<path d="M157.6500 116.5000 L165.3500 116.5000 "/>
<path d="M165.3500 111.5000 L157.6500 111.5000 "/>
<path d="M165.3500 116.5000 L165.3500 111.5000 "/>
<path d="M167.7900 108.5000 L167.7900 111.5000 "/>
<path d="M167.7900 111.5000 L180.0500 111.5000 "/>
<path d="M180.0500 108.5000 L167.7900 108.5000 "/>
<path d="M180.0500 111.5000 L180.0500 108.5000 "/>
<path d="M141.7900 14.9000 L141.7900 25.7100 "/>
<path d="M141.7900 25.7100 L158.0400 25.7100 "/>
<path d="M158.0400 14.9000 L141.7900 14.9000 "/>
<path d="M158.0400 25.7100 L158.0400 14.9000 "/>
<circle cx="96.0000" cy="137.0000" r="3.4500"/> 
<path d="M186.5000 58.9500 L186.5000 71.2100 "/>
<path d="M186.5000 71.2100 L189.5000 71.2100 "/>
<path d="M189.5000 58.9500 L186.5000 58.9500 "/>
<path d="M189.5000 71.2100 L189.5000 58.9500 "/>
<circle cx="172.5000" cy="35.0000" r="6.5000"/> 
<circle cx="132.5000" cy="34.0000" r="6.5000"/> 
<path d="M151.4500 60.7500 L151.4500 66.5000 "/>
<path d="M151.4500 66.5000 L167.4500 66.5000 "/>
<path d="M167.4500 60.7500 L151.4500 60.7500 "/>
<path d="M167.4500 66.5000 L167.4500 60.7500 "/>
<circle cx="188.0000" cy="19.0000" r="3.4500"/> 
<path d="M167.7900 118.5000 L167.7900 121.5000 "/>
<path d="M167.7900 121.5000 L180.0500 121.5000 "/>
<path d="M180.0500 118.5000 L167.7900 118.5000 "/>
<path d="M180.0500 121.5000 L180.0500 118.5000 "/>
<circle cx="96.0000" cy="19.0000" r="3.4500"/> 
<path d="M140.6500 111.5000 L140.6500 116.5000 "/>
<path d="M140.6500 116.5000 L148.3500 116.5000 "/>
<path d="M148.3500 111.5000 L140.6500 111.5000 "/>
<path d="M148.3500 116.5000 L148.3500 111.5000 "/>
<path d="M137.9500 125.5000 L137.9500 128.5000 "/>
<path d="M137.9500 128.5000 L150.2100 128.5000 "/>
<path d="M150.2100 125.5000 L137.9500 125.5000 "/>
<path d="M150.2100 128.5000 L150.2100 125.5000 "/>
<path d="M119.3500 132.4500 L119.3500 150.8500 "/>
<path d="M119.3500 132.4500 L135.8500 132.4500 "/>
<path d="M135.8500 150.8500 L119.3500 150.8500 "/>
<path d="M135.8500 150.8500 L135.8500 132.4500 "/>
<path d="M137.9900 124.0000 L137.9900 118.5400 "/>
<path d="M137.9900 124.0000 L143.0500 124.0000 "/>
<path d="M143.0500 118.5400 L143.0500 124.0000 "/>
<path d="M143.0500 118.5500 L137.9900 118.5400 "/>
<path d="M157.6500 132.5000 L157.6500 137.5000 "/>
<path d="M157.6500 137.5000 L165.3500 137.5000 "/>
<path d="M165.3500 132.5000 L157.6500 132.5000 "/>
<path d="M165.3500 137.5000 L165.3500 132.5000 "/>
<path d="M167.7900 128.5000 L167.7900 131.5000 "/>
<path d="M167.7900 131.5000 L180.0500 131.5000 "/>
<path d="M180.0500 128.5000 L167.7900 128.5000 "/>
<path d="M180.0500 131.5000 L180.0500 128.5000 "/>
<path d="M167.7900 98.5000 L167.7900 101.5000 "/>
<path d="M167.7900 101.5000 L180.0500 101.5000 "/>
<path d="M180.0500 98.5000 L167.7900 98.5000 "/>
<path d="M180.0500 101.5000 L180.0500 98.5000 "/>
</g> 
<svg:g><svg:g><svg:title>SVG Image created as miniv_estop_board-Edge_Cuts.svg date 2025/04/05 00:57:29 </svg:title>
  <svg:desc>Image generated by PCBNEW </svg:desc>
<svg:g style="fill:#C2C200; fill-opacity:1.0000;stroke:#C2C200; stroke-opacity:1.0000; stroke-linecap:round; stroke-linejoin:round;" transform="translate(0 0) scale(1 1)">
<svg:path style="fill:none;  stroke:#C2C200; stroke-width:0.0500; stroke-opacity:1;  stroke-linecap:round; stroke-linejoin:round;fill:none" d="M 92.0000,13.0000 192.0000,13.0000 192.0000,143.0000 92.0000,143.0000 Z"/> 
</svg:g> 
</svg:g></svg:g><svg:g><svg:g><svg:title>SVG Image created as miniv_estop_board-User_Comments.svg date 2025/04/05 00:57:29 </svg:title>
  <svg:desc>Image generated by PCBNEW </svg:desc>
<svg:g style="fill:#000084; fill-opacity:1.0000;stroke:#000084; stroke-opacity:1.0000; stroke-linecap:round; stroke-linejoin:round;" transform="translate(0 0) scale(1 1)">
</svg:g>
<svg:g style="fill:none;  stroke:#000084; stroke-width:0.1500; stroke-opacity:1;  stroke-linecap:round; stroke-linejoin:round;">
<svg:circle cx="188.0000" cy="137.0000" r="3.2000"/> 
<svg:circle cx="96.0000" cy="137.0000" r="3.2000"/> 
<svg:circle cx="188.0000" cy="19.0000" r="3.2000"/> 
<svg:circle cx="96.0000" cy="19.0000" r="3.2000"/> 
</svg:g> 
</svg:g></svg:g><svg:g><svg:g><svg:title>SVG Image created as miniv_estop_board-frame.svg date 2025/04/05 00:57:29 </svg:title>
  <svg:desc>Image generated by PCBNEW </svg:desc>
<svg:g style="fill:#000000; fill-opacity:1.0000;stroke:#000000; stroke-opacity:1.0000; stroke-linecap:round; stroke-linejoin:round;" transform="translate(0 0) scale(1 1)">
</svg:g>
<svg:g style="fill:none;  stroke:#480000; stroke-width:0.1500; stroke-opacity:1;  stroke-linecap:round; stroke-linejoin:round;">
<svg:path d="M177.0022 166.0072 L285.0022 166.0072 L285.0022 198.0072 L177.0022 198.0072 L177.0022 166.0072 "/>
</svg:g>
<svg:g style="fill:none;  stroke:#480000; stroke-width:0.1500; stroke-opacity:1;  stroke-linecap:round; stroke-linejoin:round;">
<svg:path d="M10.0000 10.0000 L287.0022 10.0000 L287.0022 200.0072 L10.0000 200.0072 L10.0000 10.0000 "/>
</svg:g>
<svg:g style="fill:none;  stroke:#480000; stroke-width:0.1500; stroke-opacity:1;  stroke-linecap:round; stroke-linejoin:round;">
<svg:path d="M12.0000 12.0000 L285.0022 12.0000 L285.0022 198.0072 L12.0000 198.0072 L12.0000 12.0000 "/>
</svg:g>
<svg:g style="fill:none;  stroke:#480000; stroke-width:0.1500; stroke-opacity:1;  stroke-linecap:round; stroke-linejoin:round;">
<svg:path d="M60.0000 12.0000 L60.0000 10.0000 "/>
</svg:g>
<svg:g style="fill:none;  stroke:#480000; stroke-width:0.1500; stroke-opacity:1;  stroke-linecap:round; stroke-linejoin:round;">
<svg:path d="M110.0000 12.0000 L110.0000 10.0000 "/>
</svg:g>
<svg:g style="fill:none;  stroke:#480000; stroke-width:0.1500; stroke-opacity:1;  stroke-linecap:round; stroke-linejoin:round;">
<svg:path d="M160.0000 12.0000 L160.0000 10.0000 "/>
</svg:g>
<svg:g style="fill:none;  stroke:#480000; stroke-width:0.1500; stroke-opacity:1;  stroke-linecap:round; stroke-linejoin:round;">
<svg:path d="M210.0000 12.0000 L210.0000 10.0000 "/>
</svg:g>
<svg:g style="fill:none;  stroke:#480000; stroke-width:0.1500; stroke-opacity:1;  stroke-linecap:round; stroke-linejoin:round;">
<svg:path d="M260.0000 12.0000 L260.0000 10.0000 "/>
</svg:g>
<svg:g style="fill:none;  stroke:#480000; stroke-width:0.1500; stroke-opacity:1;  stroke-linecap:round; stroke-linejoin:round;">
<svg:text x="35.0000" y="11.6500" textLength="1.4281" font-size="1.7333" lengthAdjust="spacingAndGlyphs" text-anchor="start" opacity="0" stroke-opacity="0">1</svg:text>
<svg:g class="stroked-text"><svg:desc>1</svg:desc>
<svg:path d="M36.0892 11.5936 L35.3463 11.5936 "/>
<svg:path d="M35.7177 11.5936 L35.7177 10.2936 "/>
<svg:path d="M35.7177 10.2936 L35.5939 10.4793 "/>
<svg:path d="M35.5939 10.4793 L35.4701 10.6031 "/>
<svg:path d="M35.4701 10.6031 L35.3463 10.6650 "/>
</svg:g></svg:g>
<svg:g style="fill:none;  stroke:#480000; stroke-width:0.1500; stroke-opacity:1;  stroke-linecap:round; stroke-linejoin:round;">
<svg:text x="85.0000" y="11.6500" textLength="1.4281" font-size="1.7333" lengthAdjust="spacingAndGlyphs" text-anchor="start" opacity="0" stroke-opacity="0">2</svg:text>
<svg:g class="stroked-text"><svg:desc>2</svg:desc>
<svg:path d="M85.3463 10.4174 L85.4082 10.3555 "/>
<svg:path d="M85.4082 10.3555 L85.5320 10.2936 "/>
<svg:path d="M85.5320 10.2936 L85.8415 10.2936 "/>
<svg:path d="M85.8415 10.2936 L85.9654 10.3555 "/>
<svg:path d="M85.9654 10.3555 L86.0273 10.4174 "/>
<svg:path d="M86.0273 10.4174 L86.0892 10.5412 "/>
<svg:path d="M86.0892 10.5412 L86.0892 10.6650 "/>
<svg:path d="M86.0892 10.6650 L86.0273 10.8507 "/>
<svg:path d="M86.0273 10.8507 L85.2844 11.5936 "/>
<svg:path d="M85.2844 11.5936 L86.0892 11.5936 "/>
</svg:g></svg:g>
<svg:g style="fill:none;  stroke:#480000; stroke-width:0.1500; stroke-opacity:1;  stroke-linecap:round; stroke-linejoin:round;">
<svg:text x="135.0000" y="11.6500" textLength="1.4281" font-size="1.7333" lengthAdjust="spacingAndGlyphs" text-anchor="start" opacity="0" stroke-opacity="0">3</svg:text>
<svg:g class="stroked-text"><svg:desc>3</svg:desc>
<svg:path d="M135.2844 10.2936 L136.0892 10.2936 "/>
<svg:path d="M136.0892 10.2936 L135.6558 10.7888 "/>
<svg:path d="M135.6558 10.7888 L135.8415 10.7888 "/>
<svg:path d="M135.8415 10.7888 L135.9654 10.8507 "/>
<svg:path d="M135.9654 10.8507 L136.0273 10.9127 "/>
<svg:path d="M136.0273 10.9127 L136.0892 11.0365 "/>
<svg:path d="M136.0892 11.0365 L136.0892 11.3460 "/>
<svg:path d="M136.0892 11.3460 L136.0273 11.4698 "/>
<svg:path d="M136.0273 11.4698 L135.9654 11.5317 "/>
<svg:path d="M135.9654 11.5317 L135.8415 11.5936 "/>
<svg:path d="M135.8415 11.5936 L135.4701 11.5936 "/>
<svg:path d="M135.4701 11.5936 L135.3463 11.5317 "/>
<svg:path d="M135.3463 11.5317 L135.2844 11.4698 "/>
</svg:g></svg:g>
<svg:g style="fill:none;  stroke:#480000; stroke-width:0.1500; stroke-opacity:1;  stroke-linecap:round; stroke-linejoin:round;">
<svg:text x="185.0000" y="11.6500" textLength="1.4281" font-size="1.7333" lengthAdjust="spacingAndGlyphs" text-anchor="start" opacity="0" stroke-opacity="0">4</svg:text>
<svg:g class="stroked-text"><svg:desc>4</svg:desc>
<svg:path d="M185.9654 10.7269 L185.9654 11.5936 "/>
<svg:path d="M185.6558 10.2317 L185.3463 11.1603 "/>
<svg:path d="M185.3463 11.1603 L186.1511 11.1603 "/>
</svg:g></svg:g>
<svg:g style="fill:none;  stroke:#480000; stroke-width:0.1500; stroke-opacity:1;  stroke-linecap:round; stroke-linejoin:round;">
<svg:text x="235.0000" y="11.6500" textLength="1.4281" font-size="1.7333" lengthAdjust="spacingAndGlyphs" text-anchor="start" opacity="0" stroke-opacity="0">5</svg:text>
<svg:g class="stroked-text"><svg:desc>5</svg:desc>
<svg:path d="M236.0273 10.2936 L235.4082 10.2936 "/>
<svg:path d="M235.4082 10.2936 L235.3463 10.9127 "/>
<svg:path d="M235.3463 10.9127 L235.4082 10.8507 "/>
<svg:path d="M235.4082 10.8507 L235.5320 10.7888 "/>
<svg:path d="M235.5320 10.7888 L235.8415 10.7888 "/>
<svg:path d="M235.8415 10.7888 L235.9654 10.8507 "/>
<svg:path d="M235.9654 10.8507 L236.0273 10.9127 "/>
<svg:path d="M236.0273 10.9127 L236.0892 11.0365 "/>
<svg:path d="M236.0892 11.0365 L236.0892 11.3460 "/>
<svg:path d="M236.0892 11.3460 L236.0273 11.4698 "/>
<svg:path d="M236.0273 11.4698 L235.9654 11.5317 "/>
<svg:path d="M235.9654 11.5317 L235.8415 11.5936 "/>
<svg:path d="M235.8415 11.5936 L235.5320 11.5936 "/>
<svg:path d="M235.5320 11.5936 L235.4082 11.5317 "/>
<svg:path d="M235.4082 11.5317 L235.3463 11.4698 "/>
</svg:g></svg:g>
<svg:g style="fill:none;  stroke:#480000; stroke-width:0.1500; stroke-opacity:1;  stroke-linecap:round; stroke-linejoin:round;">
<svg:text x="285.0000" y="11.6500" textLength="1.4281" font-size="1.7333" lengthAdjust="spacingAndGlyphs" text-anchor="start" opacity="0" stroke-opacity="0">6</svg:text>
<svg:g class="stroked-text"><svg:desc>6</svg:desc>
<svg:path d="M285.9654 10.2936 L285.7177 10.2936 "/>
<svg:path d="M285.7177 10.2936 L285.5939 10.3555 "/>
<svg:path d="M285.5939 10.3555 L285.5320 10.4174 "/>
<svg:path d="M285.5320 10.4174 L285.4082 10.6031 "/>
<svg:path d="M285.4082 10.6031 L285.3463 10.8507 "/>
<svg:path d="M285.3463 10.8507 L285.3463 11.3460 "/>
<svg:path d="M285.3463 11.3460 L285.4082 11.4698 "/>
<svg:path d="M285.4082 11.4698 L285.4701 11.5317 "/>
<svg:path d="M285.4701 11.5317 L285.5939 11.5936 "/>
<svg:path d="M285.5939 11.5936 L285.8415 11.5936 "/>
<svg:path d="M285.8415 11.5936 L285.9654 11.5317 "/>
<svg:path d="M285.9654 11.5317 L286.0273 11.4698 "/>
<svg:path d="M286.0273 11.4698 L286.0892 11.3460 "/>
<svg:path d="M286.0892 11.3460 L286.0892 11.0365 "/>
<svg:path d="M286.0892 11.0365 L286.0273 10.9127 "/>
<svg:path d="M286.0273 10.9127 L285.9654 10.8507 "/>
<svg:path d="M285.9654 10.8507 L285.8415 10.7888 "/>
<svg:path d="M285.8415 10.7888 L285.5939 10.7888 "/>
<svg:path d="M285.5939 10.7888 L285.4701 10.8507 "/>
<svg:path d="M285.4701 10.8507 L285.4082 10.9127 "/>
<svg:path d="M285.4082 10.9127 L285.3463 11.0365 "/>
</svg:g></svg:g>
<svg:g style="fill:none;  stroke:#480000; stroke-width:0.1500; stroke-opacity:1;  stroke-linecap:round; stroke-linejoin:round;">
<svg:path d="M60.0000 198.0072 L60.0000 200.0072 "/>
</svg:g>
<svg:g style="fill:none;  stroke:#480000; stroke-width:0.1500; stroke-opacity:1;  stroke-linecap:round; stroke-linejoin:round;">
<svg:path d="M110.0000 198.0072 L110.0000 200.0072 "/>
</svg:g>
<svg:g style="fill:none;  stroke:#480000; stroke-width:0.1500; stroke-opacity:1;  stroke-linecap:round; stroke-linejoin:round;">
<svg:path d="M160.0000 198.0072 L160.0000 200.0072 "/>
</svg:g>
<svg:g style="fill:none;  stroke:#480000; stroke-width:0.1500; stroke-opacity:1;  stroke-linecap:round; stroke-linejoin:round;">
<svg:path d="M210.0000 198.0072 L210.0000 200.0072 "/>
</svg:g>
<svg:g style="fill:none;  stroke:#480000; stroke-width:0.1500; stroke-opacity:1;  stroke-linecap:round; stroke-linejoin:round;">
<svg:path d="M260.0000 198.0072 L260.0000 200.0072 "/>
</svg:g>
<svg:g style="fill:none;  stroke:#480000; stroke-width:0.1500; stroke-opacity:1;  stroke-linecap:round; stroke-linejoin:round;">
<svg:text x="35.0000" y="199.6572" textLength="1.4281" font-size="1.7333" lengthAdjust="spacingAndGlyphs" text-anchor="start" opacity="0" stroke-opacity="0">1</svg:text>
<svg:g class="stroked-text"><svg:desc>1</svg:desc>
<svg:path d="M36.0892 199.6008 L35.3463 199.6008 "/>
<svg:path d="M35.7177 199.6008 L35.7177 198.3008 "/>
<svg:path d="M35.7177 198.3008 L35.5939 198.4865 "/>
<svg:path d="M35.5939 198.4865 L35.4701 198.6103 "/>
<svg:path d="M35.4701 198.6103 L35.3463 198.6722 "/>
</svg:g></svg:g>
<svg:g style="fill:none;  stroke:#480000; stroke-width:0.1500; stroke-opacity:1;  stroke-linecap:round; stroke-linejoin:round;">
<svg:text x="85.0000" y="199.6572" textLength="1.4281" font-size="1.7333" lengthAdjust="spacingAndGlyphs" text-anchor="start" opacity="0" stroke-opacity="0">2</svg:text>
<svg:g class="stroked-text"><svg:desc>2</svg:desc>
<svg:path d="M85.3463 198.4246 L85.4082 198.3627 "/>
<svg:path d="M85.4082 198.3627 L85.5320 198.3008 "/>
<svg:path d="M85.5320 198.3008 L85.8415 198.3008 "/>
<svg:path d="M85.8415 198.3008 L85.9654 198.3627 "/>
<svg:path d="M85.9654 198.3627 L86.0273 198.4246 "/>
<svg:path d="M86.0273 198.4246 L86.0892 198.5484 "/>
<svg:path d="M86.0892 198.5484 L86.0892 198.6722 "/>
<svg:path d="M86.0892 198.6722 L86.0273 198.8579 "/>
<svg:path d="M86.0273 198.8579 L85.2844 199.6008 "/>
<svg:path d="M85.2844 199.6008 L86.0892 199.6008 "/>
</svg:g></svg:g>
<svg:g style="fill:none;  stroke:#480000; stroke-width:0.1500; stroke-opacity:1;  stroke-linecap:round; stroke-linejoin:round;">
<svg:text x="135.0000" y="199.6572" textLength="1.4281" font-size="1.7333" lengthAdjust="spacingAndGlyphs" text-anchor="start" opacity="0" stroke-opacity="0">3</svg:text>
<svg:g class="stroked-text"><svg:desc>3</svg:desc>
<svg:path d="M135.2844 198.3008 L136.0892 198.3008 "/>
<svg:path d="M136.0892 198.3008 L135.6558 198.7960 "/>
<svg:path d="M135.6558 198.7960 L135.8415 198.7960 "/>
<svg:path d="M135.8415 198.7960 L135.9654 198.8579 "/>
<svg:path d="M135.9654 198.8579 L136.0273 198.9199 "/>
<svg:path d="M136.0273 198.9199 L136.0892 199.0437 "/>
<svg:path d="M136.0892 199.0437 L136.0892 199.3532 "/>
<svg:path d="M136.0892 199.3532 L136.0273 199.4770 "/>
<svg:path d="M136.0273 199.4770 L135.9654 199.5389 "/>
<svg:path d="M135.9654 199.5389 L135.8415 199.6008 "/>
<svg:path d="M135.8415 199.6008 L135.4701 199.6008 "/>
<svg:path d="M135.4701 199.6008 L135.3463 199.5389 "/>
<svg:path d="M135.3463 199.5389 L135.2844 199.4770 "/>
</svg:g></svg:g>
<svg:g style="fill:none;  stroke:#480000; stroke-width:0.1500; stroke-opacity:1;  stroke-linecap:round; stroke-linejoin:round;">
<svg:text x="185.0000" y="199.6572" textLength="1.4281" font-size="1.7333" lengthAdjust="spacingAndGlyphs" text-anchor="start" opacity="0" stroke-opacity="0">4</svg:text>
<svg:g class="stroked-text"><svg:desc>4</svg:desc>
<svg:path d="M185.9654 198.7341 L185.9654 199.6008 "/>
<svg:path d="M185.6558 198.2389 L185.3463 199.1675 "/>
<svg:path d="M185.3463 199.1675 L186.1511 199.1675 "/>
</svg:g></svg:g>
<svg:g style="fill:none;  stroke:#480000; stroke-width:0.1500; stroke-opacity:1;  stroke-linecap:round; stroke-linejoin:round;">
<svg:text x="235.0000" y="199.6572" textLength="1.4281" font-size="1.7333" lengthAdjust="spacingAndGlyphs" text-anchor="start" opacity="0" stroke-opacity="0">5</svg:text>
<svg:g class="stroked-text"><svg:desc>5</svg:desc>
<svg:path d="M236.0273 198.3008 L235.4082 198.3008 "/>
<svg:path d="M235.4082 198.3008 L235.3463 198.9199 "/>
<svg:path d="M235.3463 198.9199 L235.4082 198.8579 "/>
<svg:path d="M235.4082 198.8579 L235.5320 198.7960 "/>
<svg:path d="M235.5320 198.7960 L235.8415 198.7960 "/>
<svg:path d="M235.8415 198.7960 L235.9654 198.8579 "/>
<svg:path d="M235.9654 198.8579 L236.0273 198.9199 "/>
<svg:path d="M236.0273 198.9199 L236.0892 199.0437 "/>
<svg:path d="M236.0892 199.0437 L236.0892 199.3532 "/>
<svg:path d="M236.0892 199.3532 L236.0273 199.4770 "/>
<svg:path d="M236.0273 199.4770 L235.9654 199.5389 "/>
<svg:path d="M235.9654 199.5389 L235.8415 199.6008 "/>
<svg:path d="M235.8415 199.6008 L235.5320 199.6008 "/>
<svg:path d="M235.5320 199.6008 L235.4082 199.5389 "/>
<svg:path d="M235.4082 199.5389 L235.3463 199.4770 "/>
</svg:g></svg:g>
<svg:g style="fill:none;  stroke:#480000; stroke-width:0.1500; stroke-opacity:1;  stroke-linecap:round; stroke-linejoin:round;">
<svg:text x="285.0000" y="199.6572" textLength="1.4281" font-size="1.7333" lengthAdjust="spacingAndGlyphs" text-anchor="start" opacity="0" stroke-opacity="0">6</svg:text>
<svg:g class="stroked-text"><svg:desc>6</svg:desc>
<svg:path d="M285.9654 198.3008 L285.7177 198.3008 "/>
<svg:path d="M285.7177 198.3008 L285.5939 198.3627 "/>
<svg:path d="M285.5939 198.3627 L285.5320 198.4246 "/>
<svg:path d="M285.5320 198.4246 L285.4082 198.6103 "/>
<svg:path d="M285.4082 198.6103 L285.3463 198.8579 "/>
<svg:path d="M285.3463 198.8579 L285.3463 199.3532 "/>
<svg:path d="M285.3463 199.3532 L285.4082 199.4770 "/>
<svg:path d="M285.4082 199.4770 L285.4701 199.5389 "/>
<svg:path d="M285.4701 199.5389 L285.5939 199.6008 "/>
<svg:path d="M285.5939 199.6008 L285.8415 199.6008 "/>
<svg:path d="M285.8415 199.6008 L285.9654 199.5389 "/>
<svg:path d="M285.9654 199.5389 L286.0273 199.4770 "/>
<svg:path d="M286.0273 199.4770 L286.0892 199.3532 "/>
<svg:path d="M286.0892 199.3532 L286.0892 199.0437 "/>
<svg:path d="M286.0892 199.0437 L286.0273 198.9199 "/>
<svg:path d="M286.0273 198.9199 L285.9654 198.8579 "/>
<svg:path d="M285.9654 198.8579 L285.8415 198.7960 "/>
<svg:path d="M285.8415 198.7960 L285.5939 198.7960 "/>
<svg:path d="M285.5939 198.7960 L285.4701 198.8579 "/>
<svg:path d="M285.4701 198.8579 L285.4082 198.9199 "/>
<svg:path d="M285.4082 198.9199 L285.3463 199.0437 "/>
</svg:g></svg:g>
<svg:g style="fill:none;  stroke:#480000; stroke-width:0.1500; stroke-opacity:1;  stroke-linecap:round; stroke-linejoin:round;">
<svg:path d="M10.0000 60.0000 L12.0000 60.0000 "/>
</svg:g>
<svg:g style="fill:none;  stroke:#480000; stroke-width:0.1500; stroke-opacity:1;  stroke-linecap:round; stroke-linejoin:round;">
<svg:path d="M10.0000 110.0000 L12.0000 110.0000 "/>
</svg:g>
<svg:g style="fill:none;  stroke:#480000; stroke-width:0.1500; stroke-opacity:1;  stroke-linecap:round; stroke-linejoin:round;">
<svg:path d="M10.0000 160.0000 L12.0000 160.0000 "/>
</svg:g>
<svg:g style="fill:none;  stroke:#480000; stroke-width:0.1500; stroke-opacity:1;  stroke-linecap:round; stroke-linejoin:round;">
<svg:text x="11.0000" y="35.6500" textLength="1.3043" font-size="1.7333" lengthAdjust="spacingAndGlyphs" text-anchor="middle" opacity="0" stroke-opacity="0">A</svg:text>
<svg:g class="stroked-text"><svg:desc>A</svg:desc>
<svg:path d="M10.6905 35.2222 L11.3095 35.2222 "/>
<svg:path d="M10.5667 35.5936 L11.0000 34.2936 "/>
<svg:path d="M11.0000 34.2936 L11.4333 35.5936 "/>
</svg:g></svg:g>
<svg:g style="fill:none;  stroke:#480000; stroke-width:0.1500; stroke-opacity:1;  stroke-linecap:round; stroke-linejoin:round;">
<svg:text x="11.0000" y="85.6500" textLength="1.4900" font-size="1.7333" lengthAdjust="spacingAndGlyphs" text-anchor="middle" opacity="0" stroke-opacity="0">B</svg:text>
<svg:g class="stroked-text"><svg:desc>B</svg:desc>
<svg:path d="M11.0929 84.9127 L11.2786 84.9746 "/>
<svg:path d="M11.2786 84.9746 L11.3405 85.0365 "/>
<svg:path d="M11.3405 85.0365 L11.4024 85.1603 "/>
<svg:path d="M11.4024 85.1603 L11.4024 85.3460 "/>
<svg:path d="M11.4024 85.3460 L11.3405 85.4698 "/>
<svg:path d="M11.3405 85.4698 L11.2786 85.5317 "/>
<svg:path d="M11.2786 85.5317 L11.1548 85.5936 "/>
<svg:path d="M11.1548 85.5936 L10.6595 85.5936 "/>
<svg:path d="M10.6595 85.5936 L10.6595 84.2936 "/>
<svg:path d="M10.6595 84.2936 L11.0929 84.2936 "/>
<svg:path d="M11.0929 84.2936 L11.2167 84.3555 "/>
<svg:path d="M11.2167 84.3555 L11.2786 84.4174 "/>
<svg:path d="M11.2786 84.4174 L11.3405 84.5412 "/>
<svg:path d="M11.3405 84.5412 L11.3405 84.6650 "/>
<svg:path d="M11.3405 84.6650 L11.2786 84.7888 "/>
<svg:path d="M11.2786 84.7888 L11.2167 84.8507 "/>
<svg:path d="M11.2167 84.8507 L11.0929 84.9127 "/>
<svg:path d="M11.0929 84.9127 L10.6595 84.9127 "/>
</svg:g></svg:g>
<svg:g style="fill:none;  stroke:#480000; stroke-width:0.1500; stroke-opacity:1;  stroke-linecap:round; stroke-linejoin:round;">
<svg:text x="11.0000" y="135.6500" textLength="1.4900" font-size="1.7333" lengthAdjust="spacingAndGlyphs" text-anchor="middle" opacity="0" stroke-opacity="0">C</svg:text>
<svg:g class="stroked-text"><svg:desc>C</svg:desc>
<svg:path d="M11.4024 135.4698 L11.3405 135.5317 "/>
<svg:path d="M11.3405 135.5317 L11.1548 135.5936 "/>
<svg:path d="M11.1548 135.5936 L11.0310 135.5936 "/>
<svg:path d="M11.0310 135.5936 L10.8452 135.5317 "/>
<svg:path d="M10.8452 135.5317 L10.7214 135.4079 "/>
<svg:path d="M10.7214 135.4079 L10.6595 135.2841 "/>
<svg:path d="M10.6595 135.2841 L10.5976 135.0365 "/>
<svg:path d="M10.5976 135.0365 L10.5976 134.8507 "/>
<svg:path d="M10.5976 134.8507 L10.6595 134.6031 "/>
<svg:path d="M10.6595 134.6031 L10.7214 134.4793 "/>
<svg:path d="M10.7214 134.4793 L10.8452 134.3555 "/>
<svg:path d="M10.8452 134.3555 L11.0310 134.2936 "/>
<svg:path d="M11.0310 134.2936 L11.1548 134.2936 "/>
<svg:path d="M11.1548 134.2936 L11.3405 134.3555 "/>
<svg:path d="M11.3405 134.3555 L11.4024 134.4174 "/>
</svg:g></svg:g>
<svg:g style="fill:none;  stroke:#480000; stroke-width:0.1500; stroke-opacity:1;  stroke-linecap:round; stroke-linejoin:round;">
<svg:text x="11.0000" y="185.6500" textLength="1.4900" font-size="1.7333" lengthAdjust="spacingAndGlyphs" text-anchor="middle" opacity="0" stroke-opacity="0">D</svg:text>
<svg:g class="stroked-text"><svg:desc>D</svg:desc>
<svg:path d="M10.6595 185.5936 L10.6595 184.2936 "/>
<svg:path d="M10.6595 184.2936 L10.9690 184.2936 "/>
<svg:path d="M10.9690 184.2936 L11.1548 184.3555 "/>
<svg:path d="M11.1548 184.3555 L11.2786 184.4793 "/>
<svg:path d="M11.2786 184.4793 L11.3405 184.6031 "/>
<svg:path d="M11.3405 184.6031 L11.4024 184.8507 "/>
<svg:path d="M11.4024 184.8507 L11.4024 185.0365 "/>
<svg:path d="M11.4024 185.0365 L11.3405 185.2841 "/>
<svg:path d="M11.3405 185.2841 L11.2786 185.4079 "/>
<svg:path d="M11.2786 185.4079 L11.1548 185.5317 "/>
<svg:path d="M11.1548 185.5317 L10.9690 185.5936 "/>
<svg:path d="M10.9690 185.5936 L10.6595 185.5936 "/>
</svg:g></svg:g>
<svg:g style="fill:none;  stroke:#480000; stroke-width:0.1500; stroke-opacity:1;  stroke-linecap:round; stroke-linejoin:round;">
<svg:path d="M287.0022 60.0000 L285.0022 60.0000 "/>
</svg:g>
<svg:g style="fill:none;  stroke:#480000; stroke-width:0.1500; stroke-opacity:1;  stroke-linecap:round; stroke-linejoin:round;">
<svg:path d="M287.0022 110.0000 L285.0022 110.0000 "/>
</svg:g>
<svg:g style="fill:none;  stroke:#480000; stroke-width:0.1500; stroke-opacity:1;  stroke-linecap:round; stroke-linejoin:round;">
<svg:path d="M287.0022 160.0000 L285.0022 160.0000 "/>
</svg:g>
<svg:g style="fill:none;  stroke:#480000; stroke-width:0.1500; stroke-opacity:1;  stroke-linecap:round; stroke-linejoin:round;">
<svg:text x="286.0022" y="35.6500" textLength="1.3043" font-size="1.7333" lengthAdjust="spacingAndGlyphs" text-anchor="middle" opacity="0" stroke-opacity="0">A</svg:text>
<svg:g class="stroked-text"><svg:desc>A</svg:desc>
<svg:path d="M285.6927 35.2222 L286.3117 35.2222 "/>
<svg:path d="M285.5689 35.5936 L286.0022 34.2936 "/>
<svg:path d="M286.0022 34.2936 L286.4355 35.5936 "/>
</svg:g></svg:g>
<svg:g style="fill:none;  stroke:#480000; stroke-width:0.1500; stroke-opacity:1;  stroke-linecap:round; stroke-linejoin:round;">
<svg:text x="286.0022" y="85.6500" textLength="1.4900" font-size="1.7333" lengthAdjust="spacingAndGlyphs" text-anchor="middle" opacity="0" stroke-opacity="0">B</svg:text>
<svg:g class="stroked-text"><svg:desc>B</svg:desc>
<svg:path d="M286.0951 84.9127 L286.2808 84.9746 "/>
<svg:path d="M286.2808 84.9746 L286.3427 85.0365 "/>
<svg:path d="M286.3427 85.0365 L286.4046 85.1603 "/>
<svg:path d="M286.4046 85.1603 L286.4046 85.3460 "/>
<svg:path d="M286.4046 85.3460 L286.3427 85.4698 "/>
<svg:path d="M286.3427 85.4698 L286.2808 85.5317 "/>
<svg:path d="M286.2808 85.5317 L286.1570 85.5936 "/>
<svg:path d="M286.1570 85.5936 L285.6617 85.5936 "/>
<svg:path d="M285.6617 85.5936 L285.6617 84.2936 "/>
<svg:path d="M285.6617 84.2936 L286.0951 84.2936 "/>
<svg:path d="M286.0951 84.2936 L286.2189 84.3555 "/>
<svg:path d="M286.2189 84.3555 L286.2808 84.4174 "/>
<svg:path d="M286.2808 84.4174 L286.3427 84.5412 "/>
<svg:path d="M286.3427 84.5412 L286.3427 84.6650 "/>
<svg:path d="M286.3427 84.6650 L286.2808 84.7888 "/>
<svg:path d="M286.2808 84.7888 L286.2189 84.8507 "/>
<svg:path d="M286.2189 84.8507 L286.0951 84.9127 "/>
<svg:path d="M286.0951 84.9127 L285.6617 84.9127 "/>
</svg:g></svg:g>
<svg:g style="fill:none;  stroke:#480000; stroke-width:0.1500; stroke-opacity:1;  stroke-linecap:round; stroke-linejoin:round;">
<svg:text x="286.0022" y="135.6500" textLength="1.4900" font-size="1.7333" lengthAdjust="spacingAndGlyphs" text-anchor="middle" opacity="0" stroke-opacity="0">C</svg:text>
<svg:g class="stroked-text"><svg:desc>C</svg:desc>
<svg:path d="M286.4046 135.4698 L286.3427 135.5317 "/>
<svg:path d="M286.3427 135.5317 L286.1570 135.5936 "/>
<svg:path d="M286.1570 135.5936 L286.0332 135.5936 "/>
<svg:path d="M286.0332 135.5936 L285.8474 135.5317 "/>
<svg:path d="M285.8474 135.5317 L285.7236 135.4079 "/>
<svg:path d="M285.7236 135.4079 L285.6617 135.2841 "/>
<svg:path d="M285.6617 135.2841 L285.5998 135.0365 "/>
<svg:path d="M285.5998 135.0365 L285.5998 134.8507 "/>
<svg:path d="M285.5998 134.8507 L285.6617 134.6031 "/>
<svg:path d="M285.6617 134.6031 L285.7236 134.4793 "/>
<svg:path d="M285.7236 134.4793 L285.8474 134.3555 "/>
<svg:path d="M285.8474 134.3555 L286.0332 134.2936 "/>
<svg:path d="M286.0332 134.2936 L286.1570 134.2936 "/>
<svg:path d="M286.1570 134.2936 L286.3427 134.3555 "/>
<svg:path d="M286.3427 134.3555 L286.4046 134.4174 "/>
</svg:g></svg:g>
<svg:g style="fill:none;  stroke:#480000; stroke-width:0.1500; stroke-opacity:1;  stroke-linecap:round; stroke-linejoin:round;">
<svg:text x="286.0022" y="185.6500" textLength="1.4900" font-size="1.7333" lengthAdjust="spacingAndGlyphs" text-anchor="middle" opacity="0" stroke-opacity="0">D</svg:text>
<svg:g class="stroked-text"><svg:desc>D</svg:desc>
<svg:path d="M285.6617 185.5936 L285.6617 184.2936 "/>
<svg:path d="M285.6617 184.2936 L285.9712 184.2936 "/>
<svg:path d="M285.9712 184.2936 L286.1570 184.3555 "/>
<svg:path d="M286.1570 184.3555 L286.2808 184.4793 "/>
<svg:path d="M286.2808 184.4793 L286.3427 184.6031 "/>
<svg:path d="M286.3427 184.6031 L286.4046 184.8507 "/>
<svg:path d="M286.4046 184.8507 L286.4046 185.0365 "/>
<svg:path d="M286.4046 185.0365 L286.3427 185.2841 "/>
<svg:path d="M286.3427 185.2841 L286.2808 185.4079 "/>
<svg:path d="M286.2808 185.4079 L286.1570 185.5317 "/>
<svg:path d="M286.1570 185.5317 L285.9712 185.5936 "/>
<svg:path d="M285.9712 185.5936 L285.6617 185.5936 "/>
</svg:g></svg:g>
<svg:g style="fill:none;  stroke:#480000; stroke-width:0.1500; stroke-opacity:1;  stroke-linecap:round; stroke-linejoin:round;">
<svg:text x="200.0022" y="193.8572" textLength="7.0071" font-size="2.0000" lengthAdjust="spacingAndGlyphs" text-anchor="start" opacity="0" stroke-opacity="0">Date: </svg:text>
<svg:g class="stroked-text"><svg:desc>Date: </svg:desc>
<svg:path d="M200.4580 193.7933 L200.4580 192.2933 "/>
<svg:path d="M200.4580 192.2933 L200.8152 192.2933 "/>
<svg:path d="M200.8152 192.2933 L201.0295 192.3648 "/>
<svg:path d="M201.0295 192.3648 L201.1723 192.5076 "/>
<svg:path d="M201.1723 192.5076 L201.2437 192.6505 "/>
<svg:path d="M201.2437 192.6505 L201.3152 192.9362 "/>
<svg:path d="M201.3152 192.9362 L201.3152 193.1505 "/>
<svg:path d="M201.3152 193.1505 L201.2437 193.4362 "/>
<svg:path d="M201.2437 193.4362 L201.1723 193.5790 "/>
<svg:path d="M201.1723 193.5790 L201.0295 193.7219 "/>
<svg:path d="M201.0295 193.7219 L200.8152 193.7933 "/>
<svg:path d="M200.8152 193.7933 L200.4580 193.7933 "/>
<svg:path d="M202.6009 193.7933 L202.6009 193.0076 "/>
<svg:path d="M202.6009 193.0076 L202.5295 192.8648 "/>
<svg:path d="M202.5295 192.8648 L202.3866 192.7933 "/>
<svg:path d="M202.3866 192.7933 L202.1009 192.7933 "/>
<svg:path d="M202.1009 192.7933 L201.9580 192.8648 "/>
<svg:path d="M202.6009 193.7219 L202.4580 193.7933 "/>
<svg:path d="M202.4580 193.7933 L202.1009 193.7933 "/>
<svg:path d="M202.1009 193.7933 L201.9580 193.7219 "/>
<svg:path d="M201.9580 193.7219 L201.8866 193.5790 "/>
<svg:path d="M201.8866 193.5790 L201.8866 193.4362 "/>
<svg:path d="M201.8866 193.4362 L201.9580 193.2933 "/>
<svg:path d="M201.9580 193.2933 L202.1009 193.2219 "/>
<svg:path d="M202.1009 193.2219 L202.4580 193.2219 "/>
<svg:path d="M202.4580 193.2219 L202.6009 193.1505 "/>
<svg:path d="M203.1009 192.7933 L203.6723 192.7933 "/>
<svg:path d="M203.3152 192.2933 L203.3152 193.5790 "/>
<svg:path d="M203.3152 193.5790 L203.3866 193.7219 "/>
<svg:path d="M203.3866 193.7219 L203.5295 193.7933 "/>
<svg:path d="M203.5295 193.7933 L203.6723 193.7933 "/>
<svg:path d="M204.7437 193.7219 L204.6009 193.7933 "/>
<svg:path d="M204.6009 193.7933 L204.3152 193.7933 "/>
<svg:path d="M204.3152 193.7933 L204.1723 193.7219 "/>
<svg:path d="M204.1723 193.7219 L204.1009 193.5790 "/>
<svg:path d="M204.1009 193.5790 L204.1009 193.0076 "/>
<svg:path d="M204.1009 193.0076 L204.1723 192.8648 "/>
<svg:path d="M204.1723 192.8648 L204.3152 192.7933 "/>
<svg:path d="M204.3152 192.7933 L204.6009 192.7933 "/>
<svg:path d="M204.6009 192.7933 L204.7437 192.8648 "/>
<svg:path d="M204.7437 192.8648 L204.8152 193.0076 "/>
<svg:path d="M204.8152 193.0076 L204.8152 193.1505 "/>
<svg:path d="M204.8152 193.1505 L204.1009 193.2933 "/>
<svg:path d="M205.4580 193.6505 L205.5295 193.7219 "/>
<svg:path d="M205.5295 193.7219 L205.4580 193.7933 "/>
<svg:path d="M205.4580 193.7933 L205.3866 193.7219 "/>
<svg:path d="M205.3866 193.7219 L205.4580 193.6505 "/>
<svg:path d="M205.4580 193.6505 L205.4580 193.7933 "/>
<svg:path d="M205.4580 192.8648 L205.5295 192.9362 "/>
<svg:path d="M205.5295 192.9362 L205.4580 193.0076 "/>
<svg:path d="M205.4580 193.0076 L205.3866 192.9362 "/>
<svg:path d="M205.3866 192.9362 L205.4580 192.8648 "/>
<svg:path d="M205.4580 192.8648 L205.4580 193.0076 "/>
</svg:g></svg:g>
<svg:g style="fill:none;  stroke:#480000; stroke-width:0.1500; stroke-opacity:1;  stroke-linecap:round; stroke-linejoin:round;">
<svg:path d="M177.0022 194.5072 L285.0022 194.5072 "/>
</svg:g>
<svg:g style="fill:none;  stroke:#480000; stroke-width:0.1500; stroke-opacity:1;  stroke-linecap:round; stroke-linejoin:round;">
<svg:text x="178.0022" y="196.6572" textLength="20.6500" font-size="2.0000" lengthAdjust="spacingAndGlyphs" text-anchor="start" opacity="0" stroke-opacity="0">${KICAD_VERSION}</svg:text>
<svg:g class="stroked-text"><svg:desc>${KICAD_VERSION}</svg:desc>
<svg:path d="M178.3866 196.5219 L178.6009 196.5933 "/>
<svg:path d="M178.6009 196.5933 L178.9580 196.5933 "/>
<svg:path d="M178.9580 196.5933 L179.1009 196.5219 "/>
<svg:path d="M179.1009 196.5219 L179.1723 196.4505 "/>
<svg:path d="M179.1723 196.4505 L179.2437 196.3076 "/>
<svg:path d="M179.2437 196.3076 L179.2437 196.1648 "/>
<svg:path d="M179.2437 196.1648 L179.1723 196.0219 "/>
<svg:path d="M179.1723 196.0219 L179.1009 195.9505 "/>
<svg:path d="M179.1009 195.9505 L178.9580 195.8790 "/>
<svg:path d="M178.9580 195.8790 L178.6723 195.8076 "/>
<svg:path d="M178.6723 195.8076 L178.5295 195.7362 "/>
<svg:path d="M178.5295 195.7362 L178.4580 195.6648 "/>
<svg:path d="M178.4580 195.6648 L178.3866 195.5219 "/>
<svg:path d="M178.3866 195.5219 L178.3866 195.3790 "/>
<svg:path d="M178.3866 195.3790 L178.4580 195.2362 "/>
<svg:path d="M178.4580 195.2362 L178.5295 195.1648 "/>
<svg:path d="M178.5295 195.1648 L178.6723 195.0933 "/>
<svg:path d="M178.6723 195.0933 L179.0295 195.0933 "/>
<svg:path d="M179.0295 195.0933 L179.2437 195.1648 "/>
<svg:path d="M178.8152 194.8790 L178.8152 196.8076 "/>
<svg:path d="M180.3152 197.1648 L180.2437 197.1648 "/>
<svg:path d="M180.2437 197.1648 L180.1009 197.0933 "/>
<svg:path d="M180.1009 197.0933 L180.0295 196.9505 "/>
<svg:path d="M180.0295 196.9505 L180.0295 196.2362 "/>
<svg:path d="M180.0295 196.2362 L179.9580 196.0933 "/>
<svg:path d="M179.9580 196.0933 L179.8152 196.0219 "/>
<svg:path d="M179.8152 196.0219 L179.9580 195.9505 "/>
<svg:path d="M179.9580 195.9505 L180.0295 195.8076 "/>
<svg:path d="M180.0295 195.8076 L180.0295 195.0933 "/>
<svg:path d="M180.0295 195.0933 L180.1009 194.9505 "/>
<svg:path d="M180.1009 194.9505 L180.2437 194.8790 "/>
<svg:path d="M180.2437 194.8790 L180.3152 194.8790 "/>
<svg:path d="M180.8866 196.5933 L180.8866 195.0933 "/>
<svg:path d="M181.7437 196.5933 L181.1009 195.7362 "/>
<svg:path d="M181.7437 195.0933 L180.8866 195.9505 "/>
<svg:path d="M182.3866 196.5933 L182.3866 195.0933 "/>
<svg:path d="M183.9580 196.4505 L183.8866 196.5219 "/>
<svg:path d="M183.8866 196.5219 L183.6723 196.5933 "/>
<svg:path d="M183.6723 196.5933 L183.5295 196.5933 "/>
<svg:path d="M183.5295 196.5933 L183.3152 196.5219 "/>
<svg:path d="M183.3152 196.5219 L183.1723 196.3790 "/>
<svg:path d="M183.1723 196.3790 L183.1009 196.2362 "/>
<svg:path d="M183.1009 196.2362 L183.0295 195.9505 "/>
<svg:path d="M183.0295 195.9505 L183.0295 195.7362 "/>
<svg:path d="M183.0295 195.7362 L183.1009 195.4505 "/>
<svg:path d="M183.1009 195.4505 L183.1723 195.3076 "/>
<svg:path d="M183.1723 195.3076 L183.3152 195.1648 "/>
<svg:path d="M183.3152 195.1648 L183.5295 195.0933 "/>
<svg:path d="M183.5295 195.0933 L183.6723 195.0933 "/>
<svg:path d="M183.6723 195.0933 L183.8866 195.1648 "/>
<svg:path d="M183.8866 195.1648 L183.9580 195.2362 "/>
<svg:path d="M184.5295 196.1648 L185.2437 196.1648 "/>
<svg:path d="M184.3866 196.5933 L184.8866 195.0933 "/>
<svg:path d="M184.8866 195.0933 L185.3866 196.5933 "/>
<svg:path d="M185.8866 196.5933 L185.8866 195.0933 "/>
<svg:path d="M185.8866 195.0933 L186.2437 195.0933 "/>
<svg:path d="M186.2437 195.0933 L186.4580 195.1648 "/>
<svg:path d="M186.4580 195.1648 L186.6009 195.3076 "/>
<svg:path d="M186.6009 195.3076 L186.6723 195.4505 "/>
<svg:path d="M186.6723 195.4505 L186.7437 195.7362 "/>
<svg:path d="M186.7437 195.7362 L186.7437 195.9505 "/>
<svg:path d="M186.7437 195.9505 L186.6723 196.2362 "/>
<svg:path d="M186.6723 196.2362 L186.6009 196.3790 "/>
<svg:path d="M186.6009 196.3790 L186.4580 196.5219 "/>
<svg:path d="M186.4580 196.5219 L186.2437 196.5933 "/>
<svg:path d="M186.2437 196.5933 L185.8866 196.5933 "/>
<svg:path d="M187.0295 196.7362 L188.1723 196.7362 "/>
<svg:path d="M188.3152 195.0933 L188.8152 196.5933 "/>
<svg:path d="M188.8152 196.5933 L189.3152 195.0933 "/>
<svg:path d="M189.8152 195.8076 L190.3152 195.8076 "/>
<svg:path d="M190.5295 196.5933 L189.8152 196.5933 "/>
<svg:path d="M189.8152 196.5933 L189.8152 195.0933 "/>
<svg:path d="M189.8152 195.0933 L190.5295 195.0933 "/>
<svg:path d="M192.0295 196.5933 L191.5295 195.8790 "/>
<svg:path d="M191.1723 196.5933 L191.1723 195.0933 "/>
<svg:path d="M191.1723 195.0933 L191.7437 195.0933 "/>
<svg:path d="M191.7437 195.0933 L191.8866 195.1648 "/>
<svg:path d="M191.8866 195.1648 L191.9580 195.2362 "/>
<svg:path d="M191.9580 195.2362 L192.0295 195.3790 "/>
<svg:path d="M192.0295 195.3790 L192.0295 195.5933 "/>
<svg:path d="M192.0295 195.5933 L191.9580 195.7362 "/>
<svg:path d="M191.9580 195.7362 L191.8866 195.8076 "/>
<svg:path d="M191.8866 195.8076 L191.7437 195.8790 "/>
<svg:path d="M191.7437 195.8790 L191.1723 195.8790 "/>
<svg:path d="M192.6009 196.5219 L192.8152 196.5933 "/>
<svg:path d="M192.8152 196.5933 L193.1723 196.5933 "/>
<svg:path d="M193.1723 196.5933 L193.3152 196.5219 "/>
<svg:path d="M193.3152 196.5219 L193.3866 196.4505 "/>
<svg:path d="M193.3866 196.4505 L193.4580 196.3076 "/>
<svg:path d="M193.4580 196.3076 L193.4580 196.1648 "/>
<svg:path d="M193.4580 196.1648 L193.3866 196.0219 "/>
<svg:path d="M193.3866 196.0219 L193.3152 195.9505 "/>
<svg:path d="M193.3152 195.9505 L193.1723 195.8790 "/>
<svg:path d="M193.1723 195.8790 L192.8866 195.8076 "/>
<svg:path d="M192.8866 195.8076 L192.7437 195.7362 "/>
<svg:path d="M192.7437 195.7362 L192.6723 195.6648 "/>
<svg:path d="M192.6723 195.6648 L192.6009 195.5219 "/>
<svg:path d="M192.6009 195.5219 L192.6009 195.3790 "/>
<svg:path d="M192.6009 195.3790 L192.6723 195.2362 "/>
<svg:path d="M192.6723 195.2362 L192.7437 195.1648 "/>
<svg:path d="M192.7437 195.1648 L192.8866 195.0933 "/>
<svg:path d="M192.8866 195.0933 L193.2437 195.0933 "/>
<svg:path d="M193.2437 195.0933 L193.4580 195.1648 "/>
<svg:path d="M194.1009 196.5933 L194.1009 195.0933 "/>
<svg:path d="M195.1009 195.0933 L195.3866 195.0933 "/>
<svg:path d="M195.3866 195.0933 L195.5295 195.1648 "/>
<svg:path d="M195.5295 195.1648 L195.6723 195.3076 "/>
<svg:path d="M195.6723 195.3076 L195.7437 195.5933 "/>
<svg:path d="M195.7437 195.5933 L195.7437 196.0933 "/>
<svg:path d="M195.7437 196.0933 L195.6723 196.3790 "/>
<svg:path d="M195.6723 196.3790 L195.5295 196.5219 "/>
<svg:path d="M195.5295 196.5219 L195.3866 196.5933 "/>
<svg:path d="M195.3866 196.5933 L195.1009 196.5933 "/>
<svg:path d="M195.1009 196.5933 L194.9580 196.5219 "/>
<svg:path d="M194.9580 196.5219 L194.8152 196.3790 "/>
<svg:path d="M194.8152 196.3790 L194.7437 196.0933 "/>
<svg:path d="M194.7437 196.0933 L194.7437 195.5933 "/>
<svg:path d="M194.7437 195.5933 L194.8152 195.3076 "/>
<svg:path d="M194.8152 195.3076 L194.9580 195.1648 "/>
<svg:path d="M194.9580 195.1648 L195.1009 195.0933 "/>
<svg:path d="M196.3866 196.5933 L196.3866 195.0933 "/>
<svg:path d="M196.3866 195.0933 L197.2437 196.5933 "/>
<svg:path d="M197.2437 196.5933 L197.2437 195.0933 "/>
<svg:path d="M197.8152 197.1648 L197.8866 197.1648 "/>
<svg:path d="M197.8866 197.1648 L198.0295 197.0933 "/>
<svg:path d="M198.0295 197.0933 L198.1009 196.9505 "/>
<svg:path d="M198.1009 196.9505 L198.1009 196.2362 "/>
<svg:path d="M198.1009 196.2362 L198.1723 196.0933 "/>
<svg:path d="M198.1723 196.0933 L198.3152 196.0219 "/>
<svg:path d="M198.3152 196.0219 L198.1723 195.9505 "/>
<svg:path d="M198.1723 195.9505 L198.1009 195.8076 "/>
<svg:path d="M198.1009 195.8076 L198.1009 195.0933 "/>
<svg:path d="M198.1009 195.0933 L198.0295 194.9505 "/>
<svg:path d="M198.0295 194.9505 L197.8866 194.8790 "/>
<svg:path d="M197.8866 194.8790 L197.8152 194.8790 "/>
</svg:g></svg:g>
<svg:g style="fill:none;  stroke:#480000; stroke-width:0.1500; stroke-opacity:1;  stroke-linecap:round; stroke-linejoin:round;">
<svg:path d="M177.0022 191.5072 L285.0022 191.5072 "/>
</svg:g>
<svg:g style="fill:none;  stroke:#480000; stroke-width:0.3000; stroke-opacity:1;  stroke-linecap:round; stroke-linejoin:round;">
<svg:text x="263.0022" y="193.8572" textLength="6.3857" font-size="2.0000" lengthAdjust="spacingAndGlyphs" text-anchor="start" opacity="0" stroke-opacity="0">Rev: </svg:text>
<svg:g class="stroked-text"><svg:desc>Rev: </svg:desc>
<svg:path d="M264.4139 193.7855 L263.9139 193.0712 "/>
<svg:path d="M263.5567 193.7855 L263.5567 192.2855 "/>
<svg:path d="M263.5567 192.2855 L264.1281 192.2855 "/>
<svg:path d="M264.1281 192.2855 L264.2710 192.3570 "/>
<svg:path d="M264.2710 192.3570 L264.3424 192.4284 "/>
<svg:path d="M264.3424 192.4284 L264.4139 192.5712 "/>
<svg:path d="M264.4139 192.5712 L264.4139 192.7855 "/>
<svg:path d="M264.4139 192.7855 L264.3424 192.9284 "/>
<svg:path d="M264.3424 192.9284 L264.2710 192.9998 "/>
<svg:path d="M264.2710 192.9998 L264.1281 193.0712 "/>
<svg:path d="M264.1281 193.0712 L263.5567 193.0712 "/>
<svg:path d="M265.6281 193.7141 L265.4853 193.7855 "/>
<svg:path d="M265.4853 193.7855 L265.1996 193.7855 "/>
<svg:path d="M265.1996 193.7855 L265.0567 193.7141 "/>
<svg:path d="M265.0567 193.7141 L264.9853 193.5712 "/>
<svg:path d="M264.9853 193.5712 L264.9853 192.9998 "/>
<svg:path d="M264.9853 192.9998 L265.0567 192.8570 "/>
<svg:path d="M265.0567 192.8570 L265.1996 192.7855 "/>
<svg:path d="M265.1996 192.7855 L265.4853 192.7855 "/>
<svg:path d="M265.4853 192.7855 L265.6281 192.8570 "/>
<svg:path d="M265.6281 192.8570 L265.6996 192.9998 "/>
<svg:path d="M265.6996 192.9998 L265.6996 193.1427 "/>
<svg:path d="M265.6996 193.1427 L264.9853 193.2855 "/>
<svg:path d="M266.1996 192.7855 L266.5567 193.7855 "/>
<svg:path d="M266.5567 193.7855 L266.9139 192.7855 "/>
<svg:path d="M267.4853 193.6427 L267.5567 193.7141 "/>
<svg:path d="M267.5567 193.7141 L267.4853 193.7855 "/>
<svg:path d="M267.4853 193.7855 L267.4139 193.7141 "/>
<svg:path d="M267.4139 193.7141 L267.4853 193.6427 "/>
<svg:path d="M267.4853 193.6427 L267.4853 193.7855 "/>
<svg:path d="M267.4853 192.8570 L267.5567 192.9284 "/>
<svg:path d="M267.5567 192.9284 L267.4853 192.9998 "/>
<svg:path d="M267.4853 192.9998 L267.4139 192.9284 "/>
<svg:path d="M267.4139 192.9284 L267.4853 192.8570 "/>
<svg:path d="M267.4853 192.8570 L267.4853 192.9998 "/>
</svg:g></svg:g>
<svg:g style="fill:none;  stroke:#480000; stroke-width:0.1500; stroke-opacity:1;  stroke-linecap:round; stroke-linejoin:round;">
<svg:text x="178.0022" y="193.8572" textLength="9.3643" font-size="2.0000" lengthAdjust="spacingAndGlyphs" text-anchor="start" opacity="0" stroke-opacity="0">Size: A4</svg:text>
<svg:g class="stroked-text"><svg:desc>Size: A4</svg:desc>
<svg:path d="M178.3866 193.7219 L178.6009 193.7933 "/>
<svg:path d="M178.6009 193.7933 L178.9580 193.7933 "/>
<svg:path d="M178.9580 193.7933 L179.1009 193.7219 "/>
<svg:path d="M179.1009 193.7219 L179.1723 193.6505 "/>
<svg:path d="M179.1723 193.6505 L179.2437 193.5076 "/>
<svg:path d="M179.2437 193.5076 L179.2437 193.3648 "/>
<svg:path d="M179.2437 193.3648 L179.1723 193.2219 "/>
<svg:path d="M179.1723 193.2219 L179.1009 193.1505 "/>
<svg:path d="M179.1009 193.1505 L178.9580 193.0790 "/>
<svg:path d="M178.9580 193.0790 L178.6723 193.0076 "/>
<svg:path d="M178.6723 193.0076 L178.5295 192.9362 "/>
<svg:path d="M178.5295 192.9362 L178.4580 192.8648 "/>
<svg:path d="M178.4580 192.8648 L178.3866 192.7219 "/>
<svg:path d="M178.3866 192.7219 L178.3866 192.5790 "/>
<svg:path d="M178.3866 192.5790 L178.4580 192.4362 "/>
<svg:path d="M178.4580 192.4362 L178.5295 192.3648 "/>
<svg:path d="M178.5295 192.3648 L178.6723 192.2933 "/>
<svg:path d="M178.6723 192.2933 L179.0295 192.2933 "/>
<svg:path d="M179.0295 192.2933 L179.2437 192.3648 "/>
<svg:path d="M179.8866 193.7933 L179.8866 192.7933 "/>
<svg:path d="M179.8866 192.2933 L179.8152 192.3648 "/>
<svg:path d="M179.8152 192.3648 L179.8866 192.4362 "/>
<svg:path d="M179.8866 192.4362 L179.9580 192.3648 "/>
<svg:path d="M179.9580 192.3648 L179.8866 192.2933 "/>
<svg:path d="M179.8866 192.2933 L179.8866 192.4362 "/>
<svg:path d="M180.4580 192.7933 L181.2437 192.7933 "/>
<svg:path d="M181.2437 192.7933 L180.4580 193.7933 "/>
<svg:path d="M180.4580 193.7933 L181.2437 193.7933 "/>
<svg:path d="M182.3866 193.7219 L182.2437 193.7933 "/>
<svg:path d="M182.2437 193.7933 L181.9580 193.7933 "/>
<svg:path d="M181.9580 193.7933 L181.8152 193.7219 "/>
<svg:path d="M181.8152 193.7219 L181.7437 193.5790 "/>
<svg:path d="M181.7437 193.5790 L181.7437 193.0076 "/>
<svg:path d="M181.7437 193.0076 L181.8152 192.8648 "/>
<svg:path d="M181.8152 192.8648 L181.9580 192.7933 "/>
<svg:path d="M181.9580 192.7933 L182.2437 192.7933 "/>
<svg:path d="M182.2437 192.7933 L182.3866 192.8648 "/>
<svg:path d="M182.3866 192.8648 L182.4580 193.0076 "/>
<svg:path d="M182.4580 193.0076 L182.4580 193.1505 "/>
<svg:path d="M182.4580 193.1505 L181.7437 193.2933 "/>
<svg:path d="M183.1009 193.6505 L183.1723 193.7219 "/>
<svg:path d="M183.1723 193.7219 L183.1009 193.7933 "/>
<svg:path d="M183.1009 193.7933 L183.0295 193.7219 "/>
<svg:path d="M183.0295 193.7219 L183.1009 193.6505 "/>
<svg:path d="M183.1009 193.6505 L183.1009 193.7933 "/>
<svg:path d="M183.1009 192.8648 L183.1723 192.9362 "/>
<svg:path d="M183.1723 192.9362 L183.1009 193.0076 "/>
<svg:path d="M183.1009 193.0076 L183.0295 192.9362 "/>
<svg:path d="M183.0295 192.9362 L183.1009 192.8648 "/>
<svg:path d="M183.1009 192.8648 L183.1009 193.0076 "/>
<svg:path d="M184.8866 193.3648 L185.6009 193.3648 "/>
<svg:path d="M184.7437 193.7933 L185.2437 192.2933 "/>
<svg:path d="M185.2437 192.2933 L185.7437 193.7933 "/>
<svg:path d="M186.8866 192.7933 L186.8866 193.7933 "/>
<svg:path d="M186.5295 192.2219 L186.1723 193.2933 "/>
<svg:path d="M186.1723 193.2933 L187.1009 193.2933 "/>
</svg:g></svg:g>
<svg:g style="fill:none;  stroke:#480000; stroke-width:0.1500; stroke-opacity:1;  stroke-linecap:round; stroke-linejoin:round;">
<svg:text x="263.0022" y="196.6572" textLength="8.5071" font-size="2.0000" lengthAdjust="spacingAndGlyphs" text-anchor="start" opacity="0" stroke-opacity="0">Id: 1/1</svg:text>
<svg:g class="stroked-text"><svg:desc>Id: 1/1</svg:desc>
<svg:path d="M263.4580 196.5933 L263.4580 195.0933 "/>
<svg:path d="M264.8152 196.5933 L264.8152 195.0933 "/>
<svg:path d="M264.8152 196.5219 L264.6723 196.5933 "/>
<svg:path d="M264.6723 196.5933 L264.3866 196.5933 "/>
<svg:path d="M264.3866 196.5933 L264.2437 196.5219 "/>
<svg:path d="M264.2437 196.5219 L264.1723 196.4505 "/>
<svg:path d="M264.1723 196.4505 L264.1009 196.3076 "/>
<svg:path d="M264.1009 196.3076 L264.1009 195.8790 "/>
<svg:path d="M264.1009 195.8790 L264.1723 195.7362 "/>
<svg:path d="M264.1723 195.7362 L264.2437 195.6648 "/>
<svg:path d="M264.2437 195.6648 L264.3866 195.5933 "/>
<svg:path d="M264.3866 195.5933 L264.6723 195.5933 "/>
<svg:path d="M264.6723 195.5933 L264.8152 195.6648 "/>
<svg:path d="M265.5295 196.4505 L265.6009 196.5219 "/>
<svg:path d="M265.6009 196.5219 L265.5295 196.5933 "/>
<svg:path d="M265.5295 196.5933 L265.4580 196.5219 "/>
<svg:path d="M265.4580 196.5219 L265.5295 196.4505 "/>
<svg:path d="M265.5295 196.4505 L265.5295 196.5933 "/>
<svg:path d="M265.5295 195.6648 L265.6009 195.7362 "/>
<svg:path d="M265.6009 195.7362 L265.5295 195.8076 "/>
<svg:path d="M265.5295 195.8076 L265.4580 195.7362 "/>
<svg:path d="M265.4580 195.7362 L265.5295 195.6648 "/>
<svg:path d="M265.5295 195.6648 L265.5295 195.8076 "/>
<svg:path d="M268.1723 196.5933 L267.3152 196.5933 "/>
<svg:path d="M267.7437 196.5933 L267.7437 195.0933 "/>
<svg:path d="M267.7437 195.0933 L267.6009 195.3076 "/>
<svg:path d="M267.6009 195.3076 L267.4580 195.4505 "/>
<svg:path d="M267.4580 195.4505 L267.3152 195.5219 "/>
<svg:path d="M269.8866 195.0219 L268.6009 196.9505 "/>
<svg:path d="M271.1723 196.5933 L270.3152 196.5933 "/>
<svg:path d="M270.7437 196.5933 L270.7437 195.0933 "/>
<svg:path d="M270.7437 195.0933 L270.6009 195.3076 "/>
<svg:path d="M270.6009 195.3076 L270.4580 195.4505 "/>
<svg:path d="M270.4580 195.4505 L270.3152 195.5219 "/>
</svg:g></svg:g>
<svg:g style="fill:none;  stroke:#480000; stroke-width:0.1500; stroke-opacity:1;  stroke-linecap:round; stroke-linejoin:round;">
<svg:path d="M177.0022 187.5072 L285.0022 187.5072 "/>
</svg:g>
<svg:g style="fill:none;  stroke:#480000; stroke-width:0.4000; stroke-opacity:1;  stroke-linecap:round; stroke-linejoin:round;">
<svg:text x="178.0022" y="190.3072" textLength="9.6571" font-size="2.6667" lengthAdjust="spacingAndGlyphs" text-anchor="start" opacity="0" stroke-opacity="0">Title: </svg:text>
<svg:g class="stroked-text"><svg:desc>Title: </svg:desc>
<svg:path d="M178.6939 188.2116 L179.8368 188.2116 "/>
<svg:path d="M179.0154 190.2116 L179.2654 188.2116 "/>
<svg:path d="M180.2535 190.2116 L180.4201 188.8783 "/>
<svg:path d="M180.5035 188.2116 L180.3963 188.3069 "/>
<svg:path d="M180.3963 188.3069 L180.4796 188.4021 "/>
<svg:path d="M180.4796 188.4021 L180.5868 188.3069 "/>
<svg:path d="M180.5868 188.3069 L180.5035 188.2116 "/>
<svg:path d="M180.5035 188.2116 L180.4796 188.4021 "/>
<svg:path d="M181.0868 188.8783 L181.8487 188.8783 "/>
<svg:path d="M181.4558 188.2116 L181.2415 189.9259 "/>
<svg:path d="M181.2415 189.9259 L181.3130 190.1164 "/>
<svg:path d="M181.3130 190.1164 L181.4915 190.2116 "/>
<svg:path d="M181.4915 190.2116 L181.6820 190.2116 "/>
<svg:path d="M182.6344 190.2116 L182.4558 190.1164 "/>
<svg:path d="M182.4558 190.1164 L182.3844 189.9259 "/>
<svg:path d="M182.3844 189.9259 L182.5987 188.2116 "/>
<svg:path d="M184.1701 190.1164 L183.9677 190.2116 "/>
<svg:path d="M183.9677 190.2116 L183.5868 190.2116 "/>
<svg:path d="M183.5868 190.2116 L183.4082 190.1164 "/>
<svg:path d="M183.4082 190.1164 L183.3368 189.9259 "/>
<svg:path d="M183.3368 189.9259 L183.4320 189.1640 "/>
<svg:path d="M183.4320 189.1640 L183.5511 188.9735 "/>
<svg:path d="M183.5511 188.9735 L183.7535 188.8783 "/>
<svg:path d="M183.7535 188.8783 L184.1344 188.8783 "/>
<svg:path d="M184.1344 188.8783 L184.3130 188.9735 "/>
<svg:path d="M184.3130 188.9735 L184.3844 189.1640 "/>
<svg:path d="M184.3844 189.1640 L184.3606 189.3545 "/>
<svg:path d="M184.3606 189.3545 L183.3844 189.5450 "/>
<svg:path d="M185.1344 190.0212 L185.2177 190.1164 "/>
<svg:path d="M185.2177 190.1164 L185.1106 190.2116 "/>
<svg:path d="M185.1106 190.2116 L185.0273 190.1164 "/>
<svg:path d="M185.0273 190.1164 L185.1344 190.0212 "/>
<svg:path d="M185.1344 190.0212 L185.1106 190.2116 "/>
<svg:path d="M185.2654 188.9735 L185.3487 189.0688 "/>
<svg:path d="M185.3487 189.0688 L185.2415 189.1640 "/>
<svg:path d="M185.2415 189.1640 L185.1582 189.0688 "/>
<svg:path d="M185.1582 189.0688 L185.2654 188.9735 "/>
<svg:path d="M185.2654 188.9735 L185.2415 189.1640 "/>
</svg:g></svg:g>
<svg:g style="fill:none;  stroke:#480000; stroke-width:0.1500; stroke-opacity:1;  stroke-linecap:round; stroke-linejoin:round;">
<svg:text x="178.0022" y="186.4572" textLength="38.5071" font-size="2.0000" lengthAdjust="spacingAndGlyphs" text-anchor="start" opacity="0" stroke-opacity="0">File: miniv_estop_board.kicad_pcb</svg:text>
<svg:g class="stroked-text"><svg:desc>File: miniv_estop_board.kicad_pcb</svg:desc>
<svg:path d="M178.9580 185.6076 L178.4580 185.6076 "/>
<svg:path d="M178.4580 186.3933 L178.4580 184.8933 "/>
<svg:path d="M178.4580 184.8933 L179.1723 184.8933 "/>
<svg:path d="M179.7437 186.3933 L179.7437 185.3933 "/>
<svg:path d="M179.7437 184.8933 L179.6723 184.9648 "/>
<svg:path d="M179.6723 184.9648 L179.7437 185.0362 "/>
<svg:path d="M179.7437 185.0362 L179.8152 184.9648 "/>
<svg:path d="M179.8152 184.9648 L179.7437 184.8933 "/>
<svg:path d="M179.7437 184.8933 L179.7437 185.0362 "/>
<svg:path d="M180.6723 186.3933 L180.5295 186.3219 "/>
<svg:path d="M180.5295 186.3219 L180.4580 186.1790 "/>
<svg:path d="M180.4580 186.1790 L180.4580 184.8933 "/>
<svg:path d="M181.8152 186.3219 L181.6723 186.3933 "/>
<svg:path d="M181.6723 186.3933 L181.3866 186.3933 "/>
<svg:path d="M181.3866 186.3933 L181.2437 186.3219 "/>
<svg:path d="M181.2437 186.3219 L181.1723 186.1790 "/>
<svg:path d="M181.1723 186.1790 L181.1723 185.6076 "/>
<svg:path d="M181.1723 185.6076 L181.2437 185.4648 "/>
<svg:path d="M181.2437 185.4648 L181.3866 185.3933 "/>
<svg:path d="M181.3866 185.3933 L181.6723 185.3933 "/>
<svg:path d="M181.6723 185.3933 L181.8152 185.4648 "/>
<svg:path d="M181.8152 185.4648 L181.8866 185.6076 "/>
<svg:path d="M181.8866 185.6076 L181.8866 185.7505 "/>
<svg:path d="M181.8866 185.7505 L181.1723 185.8933 "/>
<svg:path d="M182.5295 186.2505 L182.6009 186.3219 "/>
<svg:path d="M182.6009 186.3219 L182.5295 186.3933 "/>
<svg:path d="M182.5295 186.3933 L182.4580 186.3219 "/>
<svg:path d="M182.4580 186.3219 L182.5295 186.2505 "/>
<svg:path d="M182.5295 186.2505 L182.5295 186.3933 "/>
<svg:path d="M182.5295 185.4648 L182.6009 185.5362 "/>
<svg:path d="M182.6009 185.5362 L182.5295 185.6076 "/>
<svg:path d="M182.5295 185.6076 L182.4580 185.5362 "/>
<svg:path d="M182.4580 185.5362 L182.5295 185.4648 "/>
<svg:path d="M182.5295 185.4648 L182.5295 185.6076 "/>
<svg:path d="M184.3866 186.3933 L184.3866 185.3933 "/>
<svg:path d="M184.3866 185.5362 L184.4580 185.4648 "/>
<svg:path d="M184.4580 185.4648 L184.6009 185.3933 "/>
<svg:path d="M184.6009 185.3933 L184.8152 185.3933 "/>
<svg:path d="M184.8152 185.3933 L184.9580 185.4648 "/>
<svg:path d="M184.9580 185.4648 L185.0295 185.6076 "/>
<svg:path d="M185.0295 185.6076 L185.0295 186.3933 "/>
<svg:path d="M185.0295 185.6076 L185.1009 185.4648 "/>
<svg:path d="M185.1009 185.4648 L185.2437 185.3933 "/>
<svg:path d="M185.2437 185.3933 L185.4580 185.3933 "/>
<svg:path d="M185.4580 185.3933 L185.6009 185.4648 "/>
<svg:path d="M185.6009 185.4648 L185.6723 185.6076 "/>
<svg:path d="M185.6723 185.6076 L185.6723 186.3933 "/>
<svg:path d="M186.3866 186.3933 L186.3866 185.3933 "/>
<svg:path d="M186.3866 184.8933 L186.3152 184.9648 "/>
<svg:path d="M186.3152 184.9648 L186.3866 185.0362 "/>
<svg:path d="M186.3866 185.0362 L186.4580 184.9648 "/>
<svg:path d="M186.4580 184.9648 L186.3866 184.8933 "/>
<svg:path d="M186.3866 184.8933 L186.3866 185.0362 "/>
<svg:path d="M187.1009 185.3933 L187.1009 186.3933 "/>
<svg:path d="M187.1009 185.5362 L187.1723 185.4648 "/>
<svg:path d="M187.1723 185.4648 L187.3152 185.3933 "/>
<svg:path d="M187.3152 185.3933 L187.5295 185.3933 "/>
<svg:path d="M187.5295 185.3933 L187.6723 185.4648 "/>
<svg:path d="M187.6723 185.4648 L187.7437 185.6076 "/>
<svg:path d="M187.7437 185.6076 L187.7437 186.3933 "/>
<svg:path d="M188.4580 186.3933 L188.4580 185.3933 "/>
<svg:path d="M188.4580 184.8933 L188.3866 184.9648 "/>
<svg:path d="M188.3866 184.9648 L188.4580 185.0362 "/>
<svg:path d="M188.4580 185.0362 L188.5295 184.9648 "/>
<svg:path d="M188.5295 184.9648 L188.4580 184.8933 "/>
<svg:path d="M188.4580 184.8933 L188.4580 185.0362 "/>
<svg:path d="M189.0295 185.3933 L189.3866 186.3933 "/>
<svg:path d="M189.3866 186.3933 L189.7437 185.3933 "/>
<svg:path d="M189.9580 186.5362 L191.1009 186.5362 "/>
<svg:path d="M192.0295 186.3219 L191.8866 186.3933 "/>
<svg:path d="M191.8866 186.3933 L191.6009 186.3933 "/>
<svg:path d="M191.6009 186.3933 L191.4580 186.3219 "/>
<svg:path d="M191.4580 186.3219 L191.3866 186.1790 "/>
<svg:path d="M191.3866 186.1790 L191.3866 185.6076 "/>
<svg:path d="M191.3866 185.6076 L191.4580 185.4648 "/>
<svg:path d="M191.4580 185.4648 L191.6009 185.3933 "/>
<svg:path d="M191.6009 185.3933 L191.8866 185.3933 "/>
<svg:path d="M191.8866 185.3933 L192.0295 185.4648 "/>
<svg:path d="M192.0295 185.4648 L192.1009 185.6076 "/>
<svg:path d="M192.1009 185.6076 L192.1009 185.7505 "/>
<svg:path d="M192.1009 185.7505 L191.3866 185.8933 "/>
<svg:path d="M192.6723 186.3219 L192.8152 186.3933 "/>
<svg:path d="M192.8152 186.3933 L193.1009 186.3933 "/>
<svg:path d="M193.1009 186.3933 L193.2437 186.3219 "/>
<svg:path d="M193.2437 186.3219 L193.3152 186.1790 "/>
<svg:path d="M193.3152 186.1790 L193.3152 186.1076 "/>
<svg:path d="M193.3152 186.1076 L193.2437 185.9648 "/>
<svg:path d="M193.2437 185.9648 L193.1009 185.8933 "/>
<svg:path d="M193.1009 185.8933 L192.8866 185.8933 "/>
<svg:path d="M192.8866 185.8933 L192.7437 185.8219 "/>
<svg:path d="M192.7437 185.8219 L192.6723 185.6790 "/>
<svg:path d="M192.6723 185.6790 L192.6723 185.6076 "/>
<svg:path d="M192.6723 185.6076 L192.7437 185.4648 "/>
<svg:path d="M192.7437 185.4648 L192.8866 185.3933 "/>
<svg:path d="M192.8866 185.3933 L193.1009 185.3933 "/>
<svg:path d="M193.1009 185.3933 L193.2437 185.4648 "/>
<svg:path d="M193.7437 185.3933 L194.3152 185.3933 "/>
<svg:path d="M193.9580 184.8933 L193.9580 186.1790 "/>
<svg:path d="M193.9580 186.1790 L194.0295 186.3219 "/>
<svg:path d="M194.0295 186.3219 L194.1723 186.3933 "/>
<svg:path d="M194.1723 186.3933 L194.3152 186.3933 "/>
<svg:path d="M195.0295 186.3933 L194.8866 186.3219 "/>
<svg:path d="M194.8866 186.3219 L194.8152 186.2505 "/>
<svg:path d="M194.8152 186.2505 L194.7437 186.1076 "/>
<svg:path d="M194.7437 186.1076 L194.7437 185.6790 "/>
<svg:path d="M194.7437 185.6790 L194.8152 185.5362 "/>
<svg:path d="M194.8152 185.5362 L194.8866 185.4648 "/>
<svg:path d="M194.8866 185.4648 L195.0295 185.3933 "/>
<svg:path d="M195.0295 185.3933 L195.2437 185.3933 "/>
<svg:path d="M195.2437 185.3933 L195.3866 185.4648 "/>
<svg:path d="M195.3866 185.4648 L195.4580 185.5362 "/>
<svg:path d="M195.4580 185.5362 L195.5295 185.6790 "/>
<svg:path d="M195.5295 185.6790 L195.5295 186.1076 "/>
<svg:path d="M195.5295 186.1076 L195.4580 186.2505 "/>
<svg:path d="M195.4580 186.2505 L195.3866 186.3219 "/>
<svg:path d="M195.3866 186.3219 L195.2437 186.3933 "/>
<svg:path d="M195.2437 186.3933 L195.0295 186.3933 "/>
<svg:path d="M196.1723 185.3933 L196.1723 186.8933 "/>
<svg:path d="M196.1723 185.4648 L196.3152 185.3933 "/>
<svg:path d="M196.3152 185.3933 L196.6009 185.3933 "/>
<svg:path d="M196.6009 185.3933 L196.7437 185.4648 "/>
<svg:path d="M196.7437 185.4648 L196.8152 185.5362 "/>
<svg:path d="M196.8152 185.5362 L196.8866 185.6790 "/>
<svg:path d="M196.8866 185.6790 L196.8866 186.1076 "/>
<svg:path d="M196.8866 186.1076 L196.8152 186.2505 "/>
<svg:path d="M196.8152 186.2505 L196.7437 186.3219 "/>
<svg:path d="M196.7437 186.3219 L196.6009 186.3933 "/>
<svg:path d="M196.6009 186.3933 L196.3152 186.3933 "/>
<svg:path d="M196.3152 186.3933 L196.1723 186.3219 "/>
<svg:path d="M197.1723 186.5362 L198.3152 186.5362 "/>
<svg:path d="M198.6723 186.3933 L198.6723 184.8933 "/>
<svg:path d="M198.6723 185.4648 L198.8152 185.3933 "/>
<svg:path d="M198.8152 185.3933 L199.1009 185.3933 "/>
<svg:path d="M199.1009 185.3933 L199.2437 185.4648 "/>
<svg:path d="M199.2437 185.4648 L199.3152 185.5362 "/>
<svg:path d="M199.3152 185.5362 L199.3866 185.6790 "/>
<svg:path d="M199.3866 185.6790 L199.3866 186.1076 "/>
<svg:path d="M199.3866 186.1076 L199.3152 186.2505 "/>
<svg:path d="M199.3152 186.2505 L199.2437 186.3219 "/>
<svg:path d="M199.2437 186.3219 L199.1009 186.3933 "/>
<svg:path d="M199.1009 186.3933 L198.8152 186.3933 "/>
<svg:path d="M198.8152 186.3933 L198.6723 186.3219 "/>
<svg:path d="M200.2437 186.3933 L200.1009 186.3219 "/>
<svg:path d="M200.1009 186.3219 L200.0295 186.2505 "/>
<svg:path d="M200.0295 186.2505 L199.9580 186.1076 "/>
<svg:path d="M199.9580 186.1076 L199.9580 185.6790 "/>
<svg:path d="M199.9580 185.6790 L200.0295 185.5362 "/>
<svg:path d="M200.0295 185.5362 L200.1009 185.4648 "/>
<svg:path d="M200.1009 185.4648 L200.2437 185.3933 "/>
<svg:path d="M200.2437 185.3933 L200.4580 185.3933 "/>
<svg:path d="M200.4580 185.3933 L200.6009 185.4648 "/>
<svg:path d="M200.6009 185.4648 L200.6723 185.5362 "/>
<svg:path d="M200.6723 185.5362 L200.7437 185.6790 "/>
<svg:path d="M200.7437 185.6790 L200.7437 186.1076 "/>
<svg:path d="M200.7437 186.1076 L200.6723 186.2505 "/>
<svg:path d="M200.6723 186.2505 L200.6009 186.3219 "/>
<svg:path d="M200.6009 186.3219 L200.4580 186.3933 "/>
<svg:path d="M200.4580 186.3933 L200.2437 186.3933 "/>
<svg:path d="M202.0295 186.3933 L202.0295 185.6076 "/>
<svg:path d="M202.0295 185.6076 L201.9580 185.4648 "/>
<svg:path d="M201.9580 185.4648 L201.8152 185.3933 "/>
<svg:path d="M201.8152 185.3933 L201.5295 185.3933 "/>
<svg:path d="M201.5295 185.3933 L201.3866 185.4648 "/>
<svg:path d="M202.0295 186.3219 L201.8866 186.3933 "/>
<svg:path d="M201.8866 186.3933 L201.5295 186.3933 "/>
<svg:path d="M201.5295 186.3933 L201.3866 186.3219 "/>
<svg:path d="M201.3866 186.3219 L201.3152 186.1790 "/>
<svg:path d="M201.3152 186.1790 L201.3152 186.0362 "/>
<svg:path d="M201.3152 186.0362 L201.3866 185.8933 "/>
<svg:path d="M201.3866 185.8933 L201.5295 185.8219 "/>
<svg:path d="M201.5295 185.8219 L201.8866 185.8219 "/>
<svg:path d="M201.8866 185.8219 L202.0295 185.7505 "/>
<svg:path d="M202.7437 186.3933 L202.7437 185.3933 "/>
<svg:path d="M202.7437 185.6790 L202.8152 185.5362 "/>
<svg:path d="M202.8152 185.5362 L202.8866 185.4648 "/>
<svg:path d="M202.8866 185.4648 L203.0295 185.3933 "/>
<svg:path d="M203.0295 185.3933 L203.1723 185.3933 "/>
<svg:path d="M204.3152 186.3933 L204.3152 184.8933 "/>
<svg:path d="M204.3152 186.3219 L204.1723 186.3933 "/>
<svg:path d="M204.1723 186.3933 L203.8866 186.3933 "/>
<svg:path d="M203.8866 186.3933 L203.7437 186.3219 "/>
<svg:path d="M203.7437 186.3219 L203.6723 186.2505 "/>
<svg:path d="M203.6723 186.2505 L203.6009 186.1076 "/>
<svg:path d="M203.6009 186.1076 L203.6009 185.6790 "/>
<svg:path d="M203.6009 185.6790 L203.6723 185.5362 "/>
<svg:path d="M203.6723 185.5362 L203.7437 185.4648 "/>
<svg:path d="M203.7437 185.4648 L203.8866 185.3933 "/>
<svg:path d="M203.8866 185.3933 L204.1723 185.3933 "/>
<svg:path d="M204.1723 185.3933 L204.3152 185.4648 "/>
<svg:path d="M205.0295 186.2505 L205.1009 186.3219 "/>
<svg:path d="M205.1009 186.3219 L205.0295 186.3933 "/>
<svg:path d="M205.0295 186.3933 L204.9580 186.3219 "/>
<svg:path d="M204.9580 186.3219 L205.0295 186.2505 "/>
<svg:path d="M205.0295 186.2505 L205.0295 186.3933 "/>
<svg:path d="M205.7437 186.3933 L205.7437 184.8933 "/>
<svg:path d="M205.8866 185.8219 L206.3152 186.3933 "/>
<svg:path d="M206.3152 185.3933 L205.7437 185.9648 "/>
<svg:path d="M206.9580 186.3933 L206.9580 185.3933 "/>
<svg:path d="M206.9580 184.8933 L206.8866 184.9648 "/>
<svg:path d="M206.8866 184.9648 L206.9580 185.0362 "/>
<svg:path d="M206.9580 185.0362 L207.0295 184.9648 "/>
<svg:path d="M207.0295 184.9648 L206.9580 184.8933 "/>
<svg:path d="M206.9580 184.8933 L206.9580 185.0362 "/>
<svg:path d="M208.3152 186.3219 L208.1723 186.3933 "/>
<svg:path d="M208.1723 186.3933 L207.8866 186.3933 "/>
<svg:path d="M207.8866 186.3933 L207.7437 186.3219 "/>
<svg:path d="M207.7437 186.3219 L207.6723 186.2505 "/>
<svg:path d="M207.6723 186.2505 L207.6009 186.1076 "/>
<svg:path d="M207.6009 186.1076 L207.6009 185.6790 "/>
<svg:path d="M207.6009 185.6790 L207.6723 185.5362 "/>
<svg:path d="M207.6723 185.5362 L207.7437 185.4648 "/>
<svg:path d="M207.7437 185.4648 L207.8866 185.3933 "/>
<svg:path d="M207.8866 185.3933 L208.1723 185.3933 "/>
<svg:path d="M208.1723 185.3933 L208.3152 185.4648 "/>
<svg:path d="M209.6009 186.3933 L209.6009 185.6076 "/>
<svg:path d="M209.6009 185.6076 L209.5295 185.4648 "/>
<svg:path d="M209.5295 185.4648 L209.3866 185.3933 "/>
<svg:path d="M209.3866 185.3933 L209.1009 185.3933 "/>
<svg:path d="M209.1009 185.3933 L208.9580 185.4648 "/>
<svg:path d="M209.6009 186.3219 L209.4580 186.3933 "/>
<svg:path d="M209.4580 186.3933 L209.1009 186.3933 "/>
<svg:path d="M209.1009 186.3933 L208.9580 186.3219 "/>
<svg:path d="M208.9580 186.3219 L208.8866 186.1790 "/>
<svg:path d="M208.8866 186.1790 L208.8866 186.0362 "/>
<svg:path d="M208.8866 186.0362 L208.9580 185.8933 "/>
<svg:path d="M208.9580 185.8933 L209.1009 185.8219 "/>
<svg:path d="M209.1009 185.8219 L209.4580 185.8219 "/>
<svg:path d="M209.4580 185.8219 L209.6009 185.7505 "/>
<svg:path d="M210.9580 186.3933 L210.9580 184.8933 "/>
<svg:path d="M210.9580 186.3219 L210.8152 186.3933 "/>
<svg:path d="M210.8152 186.3933 L210.5295 186.3933 "/>
<svg:path d="M210.5295 186.3933 L210.3866 186.3219 "/>
<svg:path d="M210.3866 186.3219 L210.3152 186.2505 "/>
<svg:path d="M210.3152 186.2505 L210.2437 186.1076 "/>
<svg:path d="M210.2437 186.1076 L210.2437 185.6790 "/>
<svg:path d="M210.2437 185.6790 L210.3152 185.5362 "/>
<svg:path d="M210.3152 185.5362 L210.3866 185.4648 "/>
<svg:path d="M210.3866 185.4648 L210.5295 185.3933 "/>
<svg:path d="M210.5295 185.3933 L210.8152 185.3933 "/>
<svg:path d="M210.8152 185.3933 L210.9580 185.4648 "/>
<svg:path d="M211.3152 186.5362 L212.4580 186.5362 "/>
<svg:path d="M212.8152 185.3933 L212.8152 186.8933 "/>
<svg:path d="M212.8152 185.4648 L212.9580 185.3933 "/>
<svg:path d="M212.9580 185.3933 L213.2437 185.3933 "/>
<svg:path d="M213.2437 185.3933 L213.3866 185.4648 "/>
<svg:path d="M213.3866 185.4648 L213.4580 185.5362 "/>
<svg:path d="M213.4580 185.5362 L213.5295 185.6790 "/>
<svg:path d="M213.5295 185.6790 L213.5295 186.1076 "/>
<svg:path d="M213.5295 186.1076 L213.4580 186.2505 "/>
<svg:path d="M213.4580 186.2505 L213.3866 186.3219 "/>
<svg:path d="M213.3866 186.3219 L213.2437 186.3933 "/>
<svg:path d="M213.2437 186.3933 L212.9580 186.3933 "/>
<svg:path d="M212.9580 186.3933 L212.8152 186.3219 "/>
<svg:path d="M214.8152 186.3219 L214.6723 186.3933 "/>
<svg:path d="M214.6723 186.3933 L214.3866 186.3933 "/>
<svg:path d="M214.3866 186.3933 L214.2437 186.3219 "/>
<svg:path d="M214.2437 186.3219 L214.1723 186.2505 "/>
<svg:path d="M214.1723 186.2505 L214.1009 186.1076 "/>
<svg:path d="M214.1009 186.1076 L214.1009 185.6790 "/>
<svg:path d="M214.1009 185.6790 L214.1723 185.5362 "/>
<svg:path d="M214.1723 185.5362 L214.2437 185.4648 "/>
<svg:path d="M214.2437 185.4648 L214.3866 185.3933 "/>
<svg:path d="M214.3866 185.3933 L214.6723 185.3933 "/>
<svg:path d="M214.6723 185.3933 L214.8152 185.4648 "/>
<svg:path d="M215.4580 186.3933 L215.4580 184.8933 "/>
<svg:path d="M215.4580 185.4648 L215.6009 185.3933 "/>
<svg:path d="M215.6009 185.3933 L215.8866 185.3933 "/>
<svg:path d="M215.8866 185.3933 L216.0295 185.4648 "/>
<svg:path d="M216.0295 185.4648 L216.1009 185.5362 "/>
<svg:path d="M216.1009 185.5362 L216.1723 185.6790 "/>
<svg:path d="M216.1723 185.6790 L216.1723 186.1076 "/>
<svg:path d="M216.1723 186.1076 L216.1009 186.2505 "/>
<svg:path d="M216.1009 186.2505 L216.0295 186.3219 "/>
<svg:path d="M216.0295 186.3219 L215.8866 186.3933 "/>
<svg:path d="M215.8866 186.3933 L215.6009 186.3933 "/>
<svg:path d="M215.6009 186.3933 L215.4580 186.3219 "/>
</svg:g></svg:g>
<svg:g style="fill:none;  stroke:#480000; stroke-width:0.1500; stroke-opacity:1;  stroke-linecap:round; stroke-linejoin:round;">
<svg:path d="M177.0022 181.5072 L285.0022 181.5072 "/>
</svg:g>
<svg:g style="fill:none;  stroke:#480000; stroke-width:0.1500; stroke-opacity:1;  stroke-linecap:round; stroke-linejoin:round;">
<svg:text x="178.0022" y="183.7572" textLength="8.2214" font-size="2.0000" lengthAdjust="spacingAndGlyphs" text-anchor="start" opacity="0" stroke-opacity="0">Sheet: </svg:text>
<svg:g class="stroked-text"><svg:desc>Sheet: </svg:desc>
<svg:path d="M178.3866 183.6219 L178.6009 183.6933 "/>
<svg:path d="M178.6009 183.6933 L178.9580 183.6933 "/>
<svg:path d="M178.9580 183.6933 L179.1009 183.6219 "/>
<svg:path d="M179.1009 183.6219 L179.1723 183.5505 "/>
<svg:path d="M179.1723 183.5505 L179.2437 183.4076 "/>
<svg:path d="M179.2437 183.4076 L179.2437 183.2648 "/>
<svg:path d="M179.2437 183.2648 L179.1723 183.1219 "/>
<svg:path d="M179.1723 183.1219 L179.1009 183.0505 "/>
<svg:path d="M179.1009 183.0505 L178.9580 182.9790 "/>
<svg:path d="M178.9580 182.9790 L178.6723 182.9076 "/>
<svg:path d="M178.6723 182.9076 L178.5295 182.8362 "/>
<svg:path d="M178.5295 182.8362 L178.4580 182.7648 "/>
<svg:path d="M178.4580 182.7648 L178.3866 182.6219 "/>
<svg:path d="M178.3866 182.6219 L178.3866 182.4790 "/>
<svg:path d="M178.3866 182.4790 L178.4580 182.3362 "/>
<svg:path d="M178.4580 182.3362 L178.5295 182.2648 "/>
<svg:path d="M178.5295 182.2648 L178.6723 182.1933 "/>
<svg:path d="M178.6723 182.1933 L179.0295 182.1933 "/>
<svg:path d="M179.0295 182.1933 L179.2437 182.2648 "/>
<svg:path d="M179.8866 183.6933 L179.8866 182.1933 "/>
<svg:path d="M180.5295 183.6933 L180.5295 182.9076 "/>
<svg:path d="M180.5295 182.9076 L180.4580 182.7648 "/>
<svg:path d="M180.4580 182.7648 L180.3152 182.6933 "/>
<svg:path d="M180.3152 182.6933 L180.1009 182.6933 "/>
<svg:path d="M180.1009 182.6933 L179.9580 182.7648 "/>
<svg:path d="M179.9580 182.7648 L179.8866 182.8362 "/>
<svg:path d="M181.8152 183.6219 L181.6723 183.6933 "/>
<svg:path d="M181.6723 183.6933 L181.3866 183.6933 "/>
<svg:path d="M181.3866 183.6933 L181.2437 183.6219 "/>
<svg:path d="M181.2437 183.6219 L181.1723 183.4790 "/>
<svg:path d="M181.1723 183.4790 L181.1723 182.9076 "/>
<svg:path d="M181.1723 182.9076 L181.2437 182.7648 "/>
<svg:path d="M181.2437 182.7648 L181.3866 182.6933 "/>
<svg:path d="M181.3866 182.6933 L181.6723 182.6933 "/>
<svg:path d="M181.6723 182.6933 L181.8152 182.7648 "/>
<svg:path d="M181.8152 182.7648 L181.8866 182.9076 "/>
<svg:path d="M181.8866 182.9076 L181.8866 183.0505 "/>
<svg:path d="M181.8866 183.0505 L181.1723 183.1933 "/>
<svg:path d="M183.1009 183.6219 L182.9580 183.6933 "/>
<svg:path d="M182.9580 183.6933 L182.6723 183.6933 "/>
<svg:path d="M182.6723 183.6933 L182.5295 183.6219 "/>
<svg:path d="M182.5295 183.6219 L182.4580 183.4790 "/>
<svg:path d="M182.4580 183.4790 L182.4580 182.9076 "/>
<svg:path d="M182.4580 182.9076 L182.5295 182.7648 "/>
<svg:path d="M182.5295 182.7648 L182.6723 182.6933 "/>
<svg:path d="M182.6723 182.6933 L182.9580 182.6933 "/>
<svg:path d="M182.9580 182.6933 L183.1009 182.7648 "/>
<svg:path d="M183.1009 182.7648 L183.1723 182.9076 "/>
<svg:path d="M183.1723 182.9076 L183.1723 183.0505 "/>
<svg:path d="M183.1723 183.0505 L182.4580 183.1933 "/>
<svg:path d="M183.6009 182.6933 L184.1723 182.6933 "/>
<svg:path d="M183.8152 182.1933 L183.8152 183.4790 "/>
<svg:path d="M183.8152 183.4790 L183.8866 183.6219 "/>
<svg:path d="M183.8866 183.6219 L184.0295 183.6933 "/>
<svg:path d="M184.0295 183.6933 L184.1723 183.6933 "/>
<svg:path d="M184.6723 183.5505 L184.7437 183.6219 "/>
<svg:path d="M184.7437 183.6219 L184.6723 183.6933 "/>
<svg:path d="M184.6723 183.6933 L184.6009 183.6219 "/>
<svg:path d="M184.6009 183.6219 L184.6723 183.5505 "/>
<svg:path d="M184.6723 183.5505 L184.6723 183.6933 "/>
<svg:path d="M184.6723 182.7648 L184.7437 182.8362 "/>
<svg:path d="M184.7437 182.8362 L184.6723 182.9076 "/>
<svg:path d="M184.6723 182.9076 L184.6009 182.8362 "/>
<svg:path d="M184.6009 182.8362 L184.6723 182.7648 "/>
<svg:path d="M184.6723 182.7648 L184.6723 182.9076 "/>
</svg:g></svg:g>
<svg:g style="fill:none;  stroke:#480000; stroke-width:0.3000; stroke-opacity:1;  stroke-linecap:round; stroke-linejoin:round;">
<svg:text x="178.0022" y="180.7572" textLength="0.9000" font-size="2.0000" lengthAdjust="spacingAndGlyphs" text-anchor="start" opacity="0" stroke-opacity="0"/>
<svg:g class="stroked-text"><svg:desc/>
</svg:g></svg:g>
<svg:g style="fill:none;  stroke:#480000; stroke-width:0.1500; stroke-opacity:1;  stroke-linecap:round; stroke-linejoin:round;">
<svg:text x="178.0022" y="177.7572" textLength="0.4500" font-size="2.0000" lengthAdjust="spacingAndGlyphs" text-anchor="start" opacity="0" stroke-opacity="0"/>
<svg:g class="stroked-text"><svg:desc/>
</svg:g></svg:g>
<svg:g style="fill:none;  stroke:#480000; stroke-width:0.1500; stroke-opacity:1;  stroke-linecap:round; stroke-linejoin:round;">
<svg:text x="178.0022" y="174.7572" textLength="0.4500" font-size="2.0000" lengthAdjust="spacingAndGlyphs" text-anchor="start" opacity="0" stroke-opacity="0"/>
<svg:g class="stroked-text"><svg:desc/>
</svg:g></svg:g>
<svg:g style="fill:none;  stroke:#480000; stroke-width:0.1500; stroke-opacity:1;  stroke-linecap:round; stroke-linejoin:round;">
<svg:text x="178.0022" y="171.7572" textLength="0.4500" font-size="2.0000" lengthAdjust="spacingAndGlyphs" text-anchor="start" opacity="0" stroke-opacity="0"/>
<svg:g class="stroked-text"><svg:desc/>
</svg:g></svg:g>
<svg:g style="fill:none;  stroke:#480000; stroke-width:0.1500; stroke-opacity:1;  stroke-linecap:round; stroke-linejoin:round;">
<svg:text x="178.0022" y="168.7572" textLength="0.4500" font-size="2.0000" lengthAdjust="spacingAndGlyphs" text-anchor="start" opacity="0" stroke-opacity="0"/>
<svg:g class="stroked-text"><svg:desc/>
</svg:g></svg:g>
<svg:g style="fill:none;  stroke:#480000; stroke-width:0.1500; stroke-opacity:1;  stroke-linecap:round; stroke-linejoin:round;">
<svg:path d="M197.0022 191.5072 L197.0022 194.5072 "/>
</svg:g>
<svg:g style="fill:none;  stroke:#480000; stroke-width:0.1500; stroke-opacity:1;  stroke-linecap:round; stroke-linejoin:round;">
<svg:path d="M261.0022 191.5072 L261.0022 198.0072 "/>
</svg:g> 
</svg:g></svg:g></svg>
