<?xml version="1.0" standalone="no"?>
 <!DOCTYPE svg PUBLIC "-//W3C//DTD SVG 1.1//EN" 
 "http://www.w3.org/Graphics/SVG/1.1/DTD/svg11.dtd"> 
<svg
  xmlns:svg="http://www.w3.org/2000/svg"
  xmlns="http://www.w3.org/2000/svg"
  xmlns:xlink="http://www.w3.org/1999/xlink"
  version="1.1"
  width="297.0022mm" height="210.0072mm" viewBox="0.0000 0.0000 297.0022 210.0072">
<title>SVG Image created as computer_sensor_board-F_Courtyard.svg date 2024/12/17 00:58:51 </title>
  <desc>Image generated by PCBNEW </desc>
<g style="fill:#000000; fill-opacity:1.0000;stroke:#000000; stroke-opacity:1.0000;
stroke-linecap:round; stroke-linejoin:round;"
 transform="translate(0 0) scale(1 1)">
</g>
<g style="fill:none; 
stroke:#000000; stroke-width:0.0500; stroke-opacity:1; 
stroke-linecap:round; stroke-linejoin:round;">
<circle cx="175.0000" cy="60.0000" r="3.4500" /> 
<circle cx="235.0000" cy="60.0000" r="3.4500" /> 
<path d="M197.3500 55.4500
L197.3500 66.2500
" />
<path d="M197.3500 55.4500
L199.5800 55.4500
" />
<path d="M197.3500 66.2500
L211.6500 66.2500
" />
<path d="M199.5800 49.4500
L199.5800 55.4500
" />
<path d="M199.5800 49.4500
L209.4200 49.4500
" />
<path d="M209.4200 49.4500
L209.4200 55.4500
" />
<path d="M209.4200 55.4500
L211.6500 55.4500
" />
<path d="M211.6500 55.4500
L211.6500 66.2500
" />
<path d="M164.2500 68.5800
L170.2500 68.5800
" />
<path d="M164.2500 78.4200
L164.2500 68.5800
" />
<path d="M164.2500 78.4200
L170.2500 78.4200
" />
<path d="M170.2500 66.3500
L181.0500 66.3500
" />
<path d="M170.2500 68.5800
L170.2500 66.3500
" />
<path d="M170.2500 80.6500
L170.2500 78.4200
" />
<path d="M170.2500 80.6500
L181.0500 80.6500
" />
<path d="M181.0500 80.6500
L181.0500 66.3500
" />
<circle cx="175.0000" cy="85.0000" r="3.4500" /> 
<path d="M212.3500 55.4500
L212.3500 66.2500
" />
<path d="M212.3500 55.4500
L214.5800 55.4500
" />
<path d="M212.3500 66.2500
L226.6500 66.2500
" />
<path d="M214.5800 49.4500
L214.5800 55.4500
" />
<path d="M214.5800 49.4500
L224.4200 49.4500
" />
<path d="M224.4200 49.4500
L224.4200 55.4500
" />
<path d="M224.4200 55.4500
L226.6500 55.4500
" />
<path d="M226.6500 55.4500
L226.6500 66.2500
" />
<circle cx="235.0000" cy="85.0000" r="3.4500" /> 
<path d="M205.0000 70.1500
L205.0000 77.8500
" />
<path d="M205.0000 77.8500
L210.0000 77.8500
" />
<path d="M210.0000 70.1500
L205.0000 70.1500
" />
<path d="M210.0000 77.8500
L210.0000 70.1500
" />
<path d="M181.3500 89.5500
L181.3500 78.7500
" />
<path d="M183.5800 89.5500
L181.3500 89.5500
" />
<path d="M183.5800 95.5500
L183.5800 89.5500
" />
<path d="M193.4200 95.5500
L183.5800 95.5500
" />
<path d="M193.4200 95.5500
L193.4200 89.5500
" />
<path d="M195.6500 78.7500
L181.3500 78.7500
" />
<path d="M195.6500 89.5500
L193.4200 89.5500
" />
<path d="M195.6500 89.5500
L195.6500 78.7500
" />
<path d="M179.1500 47.1500
L179.1500 65.5500
" />
<path d="M179.1500 47.1500
L195.6500 47.1500
" />
<path d="M195.6500 65.5500
L179.1500 65.5500
" />
<path d="M195.6500 65.5500
L195.6500 47.1500
" />
</g> 
</svg>
