<?xml version="1.0" standalone="no"?>
 <!DOCTYPE svg PUBLIC "-//W3C//DTD SVG 1.1//EN" 
 "http://www.w3.org/Graphics/SVG/1.1/DTD/svg11.dtd"> 
<svg
  xmlns:svg="http://www.w3.org/2000/svg"
  xmlns="http://www.w3.org/2000/svg"
  xmlns:xlink="http://www.w3.org/1999/xlink"
  version="1.1"
  width="297.0022mm" height="210.0072mm" viewBox="0.0000 0.0000 297.0022 210.0072">
<title>SVG Image created as computer_sensor_board-F_Courtyard.svg date 2025/02/10 15:08:53 </title>
  <desc>Image generated by PCBNEW </desc>
<g style="fill:#000000; fill-opacity:1.0000;stroke:#000000; stroke-opacity:1.0000;
stroke-linecap:round; stroke-linejoin:round;"
 transform="translate(0 0) scale(1 1)">
</g>
<g style="fill:none; 
stroke:#000000; stroke-width:0.0500; stroke-opacity:1; 
stroke-linecap:round; stroke-linejoin:round;">
<path d="M196.3700 60.5000
L196.3700 63.5000
" />
<path d="M196.3700 63.5000
L208.6300 63.5000
" />
<path d="M208.6300 60.5000
L196.3700 60.5000
" />
<path d="M208.6300 63.5000
L208.6300 60.5000
" />
<circle cx="175.0000" cy="50.0000" r="3.4500" /> 
<path d="M197.7500 73.8500
L197.7500 78.7000
" />
<path d="M197.7500 78.7000
L202.2500 78.7000
" />
<path d="M202.2500 73.8500
L197.7500 73.8500
" />
<path d="M202.2500 78.7000
L202.2500 73.8500
" />
<circle cx="235.0000" cy="50.0000" r="3.4500" /> 
<path d="M197.3500 45.4500
L197.3500 56.2500
" />
<path d="M197.3500 45.4500
L199.5800 45.4500
" />
<path d="M197.3500 56.2500
L211.6500 56.2500
" />
<path d="M199.5800 39.4500
L199.5800 45.4500
" />
<path d="M199.5800 39.4500
L209.4200 39.4500
" />
<path d="M209.4200 39.4500
L209.4200 45.4500
" />
<path d="M209.4200 45.4500
L211.6500 45.4500
" />
<path d="M211.6500 45.4500
L211.6500 56.2500
" />
<path d="M198.9500 69.0000
L198.9500 72.0000
" />
<path d="M198.9500 72.0000
L211.2100 72.0000
" />
<path d="M211.2100 69.0000
L198.9500 69.0000
" />
<path d="M211.2100 72.0000
L211.2100 69.0000
" />
<circle cx="175.0000" cy="85.0000" r="3.4500" /> 
<path d="M212.3500 45.4500
L212.3500 56.2500
" />
<path d="M212.3500 45.4500
L214.5800 45.4500
" />
<path d="M212.3500 56.2500
L226.6500 56.2500
" />
<path d="M214.5800 39.4500
L214.5800 45.4500
" />
<path d="M214.5800 39.4500
L224.4200 39.4500
" />
<path d="M224.4200 39.4500
L224.4200 45.4500
" />
<path d="M224.4200 45.4500
L226.6500 45.4500
" />
<path d="M226.6500 45.4500
L226.6500 56.2500
" />
<path d="M228.7500 64.8500
L228.7500 79.1500
" />
<path d="M239.5500 64.8500
L228.7500 64.8500
" />
<path d="M239.5500 64.8500
L239.5500 67.0800
" />
<path d="M239.5500 76.9200
L239.5500 79.1500
" />
<path d="M239.5500 79.1500
L228.7500 79.1500
" />
<path d="M245.5500 67.0800
L239.5500 67.0800
" />
<path d="M245.5500 67.0800
L245.5500 76.9200
" />
<path d="M245.5500 76.9200
L239.5500 76.9200
" />
<path d="M179.4500 72.2500
L179.4500 78.0000
" />
<path d="M179.4500 78.0000
L195.4500 78.0000
" />
<path d="M195.4500 72.2500
L179.4500 72.2500
" />
<path d="M195.4500 78.0000
L195.4500 72.2500
" />
<circle cx="235.0000" cy="85.0000" r="3.4500" /> 
<path d="M220.5000 69.1500
L220.5000 76.8500
" />
<path d="M220.5000 76.8500
L225.5000 76.8500
" />
<path d="M225.5000 69.1500
L220.5000 69.1500
" />
<path d="M225.5000 76.8500
L225.5000 69.1500
" />
<path d="M179.3500 79.4500
L179.3500 97.8500
" />
<path d="M179.3500 79.4500
L195.8500 79.4500
" />
<path d="M195.8500 97.8500
L179.3500 97.8500
" />
<path d="M195.8500 97.8500
L195.8500 79.4500
" />
<path d="M179.1500 37.1500
L179.1500 55.5500
" />
<path d="M179.1500 37.1500
L195.6500 37.1500
" />
<path d="M195.6500 55.5500
L179.1500 55.5500
" />
<path d="M195.6500 55.5500
L195.6500 37.1500
" />
</g> 
</svg>
