<?xml version="1.0" standalone="no"?>
 <!DOCTYPE svg PUBLIC "-//W3C//DTD SVG 1.1//EN" 
 "http://www.w3.org/Graphics/SVG/1.1/DTD/svg11.dtd"> 
<svg
  xmlns:svg="http://www.w3.org/2000/svg"
  xmlns="http://www.w3.org/2000/svg"
  xmlns:xlink="http://www.w3.org/1999/xlink"
  version="1.1"
  width="297.0022mm" height="210.0072mm" viewBox="0.0000 0.0000 297.0022 210.0072">
<title>SVG Image created as computer_sensor_board-F_Courtyard.svg date 2024/12/09 01:00:05 </title>
  <desc>Image generated by PCBNEW </desc>
<g style="fill:#000000; fill-opacity:1.0000;stroke:#000000; stroke-opacity:1.0000;
stroke-linecap:round; stroke-linejoin:round;"
 transform="translate(0 0) scale(1 1)">
</g>
<g style="fill:none; 
stroke:#000000; stroke-width:0.0500; stroke-opacity:1; 
stroke-linecap:round; stroke-linejoin:round;">
<circle cx="175.0000" cy="60.0000" r="3.4500" /> 
<circle cx="235.0000" cy="60.0000" r="3.4500" /> 
<path d="M200.3500 55.6000
L200.3500 66.4000
" />
<path d="M200.3500 55.6000
L202.5800 55.6000
" />
<path d="M200.3500 66.4000
L214.6500 66.4000
" />
<path d="M202.5800 49.6000
L202.5800 55.6000
" />
<path d="M202.5800 49.6000
L212.4200 49.6000
" />
<path d="M212.4200 49.6000
L212.4200 55.6000
" />
<path d="M212.4200 55.6000
L214.6500 55.6000
" />
<path d="M214.6500 55.6000
L214.6500 66.4000
" />
<path d="M215.3500 55.6000
L215.3500 66.4000
" />
<path d="M215.3500 55.6000
L217.5800 55.6000
" />
<path d="M215.3500 66.4000
L229.6500 66.4000
" />
<path d="M217.5800 49.6000
L217.5800 55.6000
" />
<path d="M217.5800 49.6000
L227.4200 49.6000
" />
<path d="M227.4200 49.6000
L227.4200 55.6000
" />
<path d="M227.4200 55.6000
L229.6500 55.6000
" />
<path d="M229.6500 55.6000
L229.6500 66.4000
" />
<circle cx="175.0000" cy="85.0000" r="3.4500" /> 
<circle cx="235.0000" cy="85.0000" r="3.4500" /> 
<path d="M205.0000 70.1500
L205.0000 77.8500
" />
<path d="M205.0000 77.8500
L210.0000 77.8500
" />
<path d="M210.0000 70.1500
L205.0000 70.1500
" />
<path d="M210.0000 77.8500
L210.0000 70.1500
" />
<path d="M180.3500 89.5500
L180.3500 78.7500
" />
<path d="M182.5800 89.5500
L180.3500 89.5500
" />
<path d="M182.5800 95.5500
L182.5800 89.5500
" />
<path d="M192.4200 95.5500
L182.5800 95.5500
" />
<path d="M192.4200 95.5500
L192.4200 89.5500
" />
<path d="M194.6500 78.7500
L180.3500 78.7500
" />
<path d="M194.6500 89.5500
L192.4200 89.5500
" />
<path d="M194.6500 89.5500
L194.6500 78.7500
" />
<path d="M180.3500 55.4500
L180.3500 66.2500
" />
<path d="M180.3500 55.4500
L182.5800 55.4500
" />
<path d="M180.3500 66.2500
L194.6500 66.2500
" />
<path d="M182.5800 49.4500
L182.5800 55.4500
" />
<path d="M182.5800 49.4500
L192.4200 49.4500
" />
<path d="M192.4200 49.4500
L192.4200 55.4500
" />
<path d="M192.4200 55.4500
L194.6500 55.4500
" />
<path d="M194.6500 55.4500
L194.6500 66.2500
" />
</g> 
</svg>
