M48
; DRILL file {KiCad 8.0.6-8.0.6-0~ubuntu22.04.1} date 2024-12-15T02:21:30+0000
; FORMAT={-:-/ absolute / metric / decimal}
; #@! TF.CreationDate,2024-12-15T02:21:30+00:00
; #@! TF.GenerationSoftware,Kicad,Pcbnew,8.0.6-8.0.6-0~ubuntu22.04.1
; #@! TF.FileFunction,MixedPlating,1,2
FMAT,2
METRIC
; #@! TA.AperFunction,Plated,PTH,ComponentDrill
T1C0.600
; #@! TA.AperFunction,Plated,PTH,ComponentDrill
T2C0.762
; #@! TA.AperFunction,Plated,PTH,ComponentDrill
T3C0.800
; #@! TA.AperFunction,Plated,PTH,ComponentDrill
T4C0.920
; #@! TA.AperFunction,Plated,PTH,ComponentDrill
T5C1.000
; #@! TA.AperFunction,Plated,PTH,ComponentDrill
T6C1.900
; #@! TA.AperFunction,Plated,PTH,ComponentDrill
T7C2.300
; #@! TA.AperFunction,Plated,PTH,ComponentDrill
T8C2.700
; #@! TA.AperFunction,NonPlated,NPTH,ComponentDrill
T9C3.200
%
G90
G05
T2
X198.0Y-70.71
X198.0Y-73.25
X198.0Y-75.79
T3
X207.5Y-71.5
X207.5Y-76.5
T4
X201.5Y-84.5
X204.0Y-84.5
X206.0Y-84.5
X208.5Y-84.5
X219.5Y-84.5
X222.0Y-84.5
X224.0Y-84.5
X226.5Y-84.5
T5
X173.8Y-68.0
X173.8Y-79.0
X183.0Y-86.0
X194.0Y-86.0
X199.0Y-59.0
X210.0Y-59.0
X214.0Y-59.0
X225.0Y-59.0
T6
X178.8Y-71.0
X178.8Y-76.0
X186.0Y-81.0
X191.0Y-81.0
X202.0Y-64.0
X207.0Y-64.0
X217.0Y-64.0
X222.0Y-64.0
T7
X198.46Y-87.2
X211.54Y-87.2
X216.46Y-87.2
X229.54Y-87.2
T8
X183.8Y-63.0
X191.0Y-63.0
T9
X175.0Y-60.0
X175.0Y-85.0
X235.0Y-60.0
X235.0Y-85.0
T1
G00X180.65Y-56.45
M15
G01X180.65Y-57.55
M16
G05
G00X194.15Y-56.45
M15
G01X194.15Y-57.55
M16
G05
M30
