M48
; DRILL file {KiCad 8.0.8-8.0.8-0~ubuntu22.04.1} date 2025-04-07T00:59:58+0000
; FORMAT={-:-/ absolute / metric / decimal}
; #@! TF.CreationDate,2025-04-07T00:59:58+00:00
; #@! TF.GenerationSoftware,Kicad,Pcbnew,8.0.8-8.0.8-0~ubuntu22.04.1
; #@! TF.FileFunction,MixedPlating,1,2
FMAT,2
METRIC
; #@! TA.AperFunction,Plated,PTH,ComponentDrill
T1C0.600
; #@! TA.AperFunction,Plated,PTH,ComponentDrill
T2C0.762
; #@! TA.AperFunction,Plated,PTH,ComponentDrill
T3C0.800
; #@! TA.AperFunction,Plated,PTH,ComponentDrill
T4C0.900
; #@! TA.AperFunction,Plated,PTH,ComponentDrill
T5C0.920
; #@! TA.AperFunction,Plated,PTH,ComponentDrill
T6C1.000
; #@! TA.AperFunction,Plated,PTH,ComponentDrill
T7C1.500
; #@! TA.AperFunction,Plated,PTH,ComponentDrill
T8C1.600
; #@! TA.AperFunction,Plated,PTH,ComponentDrill
T9C1.900
; #@! TA.AperFunction,Plated,PTH,ComponentDrill
T10C2.300
; #@! TA.AperFunction,Plated,PTH,ComponentDrill
T11C2.700
; #@! TA.AperFunction,NonPlated,NPTH,ComponentDrill
T12C3.200
%
G90
G05
T2
X214.0Y-72.71
X214.0Y-75.25
X214.0Y-77.79
T3
X197.42Y-62.0
X200.0Y-70.5
X207.58Y-62.0
X210.16Y-70.5
X223.0Y-70.5
X223.0Y-75.5
T4
X200.0Y-75.0
X200.0Y-77.54
T5
X201.5Y-84.5
X204.0Y-84.5
X206.0Y-84.5
X208.5Y-84.5
X219.5Y-84.5
X222.0Y-84.5
X224.0Y-84.5
X226.5Y-84.5
T6
X199.0Y-49.0
X210.0Y-49.0
X214.0Y-49.0
X225.0Y-49.0
X236.0Y-66.5
X236.0Y-77.5
T7
X182.0Y-75.5
X187.45Y-75.5
X192.9Y-75.5
T8
X182.45Y-68.7
X192.45Y-68.7
T9
X202.0Y-54.0
X207.0Y-54.0
X217.0Y-54.0
X222.0Y-54.0
X231.0Y-69.5
X231.0Y-74.5
T10
X198.46Y-87.2
X211.54Y-87.2
X216.46Y-87.2
X229.54Y-87.2
T11
X183.8Y-53.0
X184.0Y-82.0
X191.0Y-53.0
X191.2Y-82.0
T12
X175.0Y-50.0
X175.0Y-85.0
X235.0Y-50.0
X235.0Y-85.0
T1
G00X180.65Y-46.45
M15
G01X180.65Y-47.55
M16
G05
G00X180.85Y-88.55
M15
G01X180.85Y-87.45
M16
G05
G00X194.15Y-46.45
M15
G01X194.15Y-47.55
M16
G05
G00X194.35Y-88.55
M15
G01X194.35Y-87.45
M16
G05
M30
