M48
; DRILL file {KiCad 8.0.6-8.0.6-0~ubuntu22.04.1} date 2025-02-04T00:53:44+0000
; FORMAT={-:-/ absolute / metric / decimal}
; #@! TF.CreationDate,2025-02-04T00:53:44+00:00
; #@! TF.GenerationSoftware,Kicad,Pcbnew,8.0.6-8.0.6-0~ubuntu22.04.1
; #@! TF.FileFunction,MixedPlating,1,2
FMAT,2
METRIC
; #@! TA.AperFunction,Plated,PTH,ComponentDrill
T1C0.600
; #@! TA.AperFunction,Plated,PTH,ComponentDrill
T2C0.750
; #@! TA.AperFunction,Plated,PTH,ComponentDrill
T3C0.800
; #@! TA.AperFunction,Plated,PTH,ComponentDrill
T4C0.900
; #@! TA.AperFunction,Plated,PTH,ComponentDrill
T5C1.000
; #@! TA.AperFunction,Plated,PTH,ComponentDrill
T6C1.100
; #@! TA.AperFunction,Plated,PTH,ComponentDrill
T7C1.200
; #@! TA.AperFunction,Plated,PTH,ComponentDrill
T8C1.300
; #@! TA.AperFunction,Plated,PTH,ComponentDrill
T9C1.500
; #@! TA.AperFunction,Plated,PTH,ComponentDrill
T10C1.600
; #@! TA.AperFunction,Plated,PTH,ComponentDrill
T11C1.900
; #@! TA.AperFunction,Plated,PTH,ComponentDrill
T12C2.700
; #@! TA.AperFunction,NonPlated,NPTH,ComponentDrill
T13C3.200
%
G90
G05
T2
X140.0Y-99.0
X140.0Y-101.54
X140.0Y-120.0
X140.0Y-122.54
X141.27Y-100.27
X141.27Y-121.27
X157.0Y-99.0
X157.0Y-101.54
X157.0Y-120.0
X157.0Y-122.54
X158.27Y-100.27
X158.27Y-121.27
T3
X108.0Y-50.84
X108.0Y-61.0
X119.0Y-98.0
X129.16Y-98.0
X135.0Y-72.0
X139.0Y-106.0
X139.0Y-127.0
X142.0Y-114.0
X142.0Y-135.0
X145.16Y-72.0
X147.0Y-114.0
X147.0Y-135.0
X148.0Y-50.84
X148.0Y-61.0
X149.16Y-106.0
X149.16Y-127.0
X156.0Y-106.0
X156.0Y-127.0
X159.0Y-114.0
X159.0Y-135.0
X164.0Y-114.0
X164.0Y-135.0
X165.24Y-87.182
X165.24Y-89.182
X165.24Y-91.182
X166.16Y-106.0
X166.16Y-127.0
X167.24Y-87.182
X167.24Y-89.182
X167.24Y-91.182
X168.84Y-100.0
X168.84Y-110.0
X168.84Y-120.0
X168.84Y-130.0
X179.0Y-100.0
X179.0Y-110.0
X179.0Y-120.0
X179.0Y-130.0
X179.48Y-84.73
X179.48Y-87.27
X183.0Y-60.0
X183.0Y-70.16
X185.0Y-47.0
X185.0Y-57.16
X188.0Y-60.0
X188.0Y-70.16
X190.0Y-47.0
X190.0Y-57.16
T4
X108.0Y-45.46
X108.0Y-48.0
X148.0Y-45.46
X148.0Y-48.0
T5
X105.0Y-92.0
X105.0Y-103.0
X105.0Y-107.0
X105.0Y-118.0
T6
X121.79Y-78.38
X121.79Y-93.62
X124.33Y-78.38
X124.33Y-93.62
X126.87Y-78.38
X126.87Y-93.62
X129.41Y-78.38
X129.41Y-93.62
X131.95Y-78.38
X131.95Y-93.62
X134.49Y-78.38
X134.49Y-80.92
X134.49Y-83.46
X134.49Y-86.0
X134.49Y-88.54
X134.49Y-91.08
X134.49Y-93.62
X137.03Y-78.38
X137.03Y-93.62
X139.57Y-78.38
X139.57Y-93.62
X142.11Y-78.38
X142.11Y-93.62
X144.65Y-78.38
X144.65Y-93.62
X147.19Y-78.38
X147.19Y-93.62
X149.73Y-78.38
X149.73Y-93.62
X152.27Y-78.38
X152.27Y-93.62
X154.81Y-78.38
X154.81Y-93.62
X157.35Y-78.38
X157.35Y-93.62
X159.89Y-78.38
X159.89Y-93.62
X162.43Y-78.38
X162.43Y-93.62
X163.751Y-81.431
X164.97Y-78.38
X164.97Y-93.62
X166.291Y-81.431
X167.51Y-78.38
X167.51Y-93.62
X168.831Y-81.431
X170.05Y-78.38
X170.05Y-93.62
X171.371Y-81.431
X172.59Y-78.38
X172.59Y-93.62
X173.911Y-81.431
X175.13Y-78.38
X175.13Y-93.62
X177.67Y-78.38
X177.67Y-91.08
X177.67Y-93.62
X180.21Y-78.38
X180.21Y-93.62
T7
X110.0Y-34.0
X115.0Y-34.0
X130.0Y-34.0
X135.0Y-34.0
X150.0Y-35.0
X155.0Y-35.0
X170.0Y-35.0
X175.0Y-35.0
T8
X104.84Y-20.0
X109.92Y-20.0
X115.0Y-20.0
X124.84Y-20.0
X129.92Y-20.0
X135.0Y-20.0
X144.84Y-20.0
X149.92Y-20.0
X155.0Y-20.0
X164.84Y-20.0
X169.92Y-20.0
X175.0Y-20.0
T9
X114.0Y-64.0
X119.45Y-64.0
X124.9Y-64.0
X154.0Y-64.0
X159.45Y-64.0
X164.9Y-64.0
T10
X114.45Y-57.2
X124.45Y-57.2
X154.45Y-57.2
X164.45Y-57.2
T11
X110.0Y-95.0
X110.0Y-100.0
X110.0Y-110.0
X110.0Y-115.0
T12
X109.0Y-73.0
X109.0Y-80.2
X124.0Y-135.0
X131.2Y-135.0
T13
X96.0Y-19.0
X96.0Y-137.0
X188.0Y-19.0
X188.0Y-137.0
T1
G00X102.45Y-69.85
M15
G01X103.55Y-69.85
M16
G05
G00X102.45Y-83.35
M15
G01X103.55Y-83.35
M16
G05
G00X120.85Y-141.55
M15
G01X120.85Y-140.45
M16
G05
G00X134.35Y-141.55
M15
G01X134.35Y-140.45
M16
G05
M30
