%TF.GenerationSoftware,KiCad,Pcbnew,8.0.8-8.0.8-0~ubuntu22.04.1*%
%TF.CreationDate,2025-02-23T07:42:12+00:00*%
%TF.ProjectId,miniv_estop_board,6d696e69-765f-4657-9374-6f705f626f61,rev?*%
%TF.SameCoordinates,Original*%
%TF.FileFunction,Soldermask,Bot*%
%TF.FilePolarity,Negative*%
%FSLAX46Y46*%
G04 Gerber Fmt 4.6, Leading zero omitted, Abs format (unit mm)*
G04 Created by KiCad (PCBNEW 8.0.8-8.0.8-0~ubuntu22.04.1) date 2025-02-23 07:42:12*
%MOMM*%
%LPD*%
G01*
G04 APERTURE LIST*
G04 Aperture macros list*
%AMRoundRect*
0 Rectangle with rounded corners*
0 $1 Rounding radius*
0 $2 $3 $4 $5 $6 $7 $8 $9 X,Y pos of 4 corners*
0 Add a 4 corners polygon primitive as box body*
4,1,4,$2,$3,$4,$5,$6,$7,$8,$9,$2,$3,0*
0 Add four circle primitives for the rounded corners*
1,1,$1+$1,$2,$3*
1,1,$1+$1,$4,$5*
1,1,$1+$1,$6,$7*
1,1,$1+$1,$8,$9*
0 Add four rect primitives between the rounded corners*
20,1,$1+$1,$2,$3,$4,$5,0*
20,1,$1+$1,$4,$5,$6,$7,0*
20,1,$1+$1,$6,$7,$8,$9,0*
20,1,$1+$1,$8,$9,$2,$3,0*%
G04 Aperture macros list end*
%ADD10R,2.000000X0.900000*%
%ADD11RoundRect,1.025000X1.025000X-1.025000X1.025000X1.025000X-1.025000X1.025000X-1.025000X-1.025000X0*%
%ADD12C,4.100000*%
%ADD13R,1.800000X1.800000*%
%ADD14C,1.800000*%
%ADD15C,1.400000*%
%ADD16RoundRect,0.770000X0.980000X-0.980000X0.980000X0.980000X-0.980000X0.980000X-0.980000X-0.980000X0*%
%ADD17C,3.500000*%
%ADD18C,1.600000*%
%ADD19O,1.600000X1.600000*%
%ADD20R,2.400000X2.400000*%
%ADD21C,2.400000*%
%ADD22R,2.600000X2.600000*%
%ADD23C,2.600000*%
%ADD24R,1.800000X1.100000*%
%ADD25RoundRect,0.275000X-0.625000X0.275000X-0.625000X-0.275000X0.625000X-0.275000X0.625000X0.275000X0*%
%ADD26C,3.200000*%
%ADD27R,2.500000X4.500000*%
%ADD28O,2.500000X4.500000*%
%ADD29R,0.900000X2.000000*%
%ADD30RoundRect,1.025000X1.025000X1.025000X-1.025000X1.025000X-1.025000X-1.025000X1.025000X-1.025000X0*%
%ADD31R,1.600000X1.600000*%
%ADD32R,1.300000X1.300000*%
%ADD33C,1.300000*%
G04 APERTURE END LIST*
D10*
%TO.C,J1*%
X103000000Y-83350000D03*
X103000000Y-69850000D03*
D11*
X109000000Y-73000000D03*
D12*
X109000000Y-80200000D03*
%TD*%
D13*
%TO.C,D3*%
X148000000Y-48000000D03*
D14*
X148000000Y-45460000D03*
%TD*%
D15*
%TO.C,J8*%
X105000000Y-103000000D03*
X105000000Y-92000000D03*
D16*
X110000000Y-100000000D03*
D17*
X110000000Y-95000000D03*
%TD*%
D18*
%TO.C,C5*%
X147000000Y-135000000D03*
X142000000Y-135000000D03*
%TD*%
%TO.C,R13*%
X185000000Y-47000000D03*
D19*
X185000000Y-57160000D03*
%TD*%
D18*
%TO.C,R3*%
X156000000Y-106000000D03*
D19*
X166160000Y-106000000D03*
%TD*%
D18*
%TO.C,R2*%
X108000000Y-61000000D03*
D19*
X108000000Y-50840000D03*
%TD*%
D18*
%TO.C,R1*%
X135000000Y-72000000D03*
D19*
X145160000Y-72000000D03*
%TD*%
D20*
%TO.C,C2*%
X110000000Y-34000000D03*
D21*
X115000000Y-34000000D03*
%TD*%
D18*
%TO.C,R5*%
X156000000Y-127000000D03*
D19*
X166160000Y-127000000D03*
%TD*%
D22*
%TO.C,J3*%
X135000000Y-20000000D03*
D23*
X129920000Y-20000000D03*
X124840000Y-20000000D03*
%TD*%
D18*
%TO.C,R6*%
X139000000Y-106000000D03*
D19*
X149160000Y-106000000D03*
%TD*%
D18*
%TO.C,R12*%
X183000000Y-60000000D03*
D19*
X183000000Y-70160000D03*
%TD*%
D21*
%TO.C,HS1*%
X114450000Y-57200000D03*
X124450000Y-57200000D03*
%TD*%
D24*
%TO.C,Q3*%
X139600000Y-99000000D03*
D25*
X141670000Y-100270000D03*
X139600000Y-101540000D03*
%TD*%
D20*
%TO.C,C7*%
X150000000Y-35000000D03*
D21*
X155000000Y-35000000D03*
%TD*%
D13*
%TO.C,D1*%
X108000000Y-48000000D03*
D14*
X108000000Y-45460000D03*
%TD*%
D18*
%TO.C,R15*%
X190000000Y-47000000D03*
D19*
X190000000Y-57160000D03*
%TD*%
D26*
%TO.C,H4*%
X188000000Y-137000000D03*
%TD*%
D18*
%TO.C,R16*%
X148000000Y-61000000D03*
D19*
X148000000Y-50840000D03*
%TD*%
D24*
%TO.C,Q7*%
X156600000Y-99000000D03*
D25*
X158670000Y-100270000D03*
X156600000Y-101540000D03*
%TD*%
D22*
%TO.C,J5*%
X175000000Y-20000000D03*
D23*
X169920000Y-20000000D03*
X164840000Y-20000000D03*
%TD*%
D18*
%TO.C,R11*%
X119000000Y-98000000D03*
D19*
X129160000Y-98000000D03*
%TD*%
D21*
%TO.C,HS2*%
X154450000Y-57200000D03*
X164450000Y-57200000D03*
%TD*%
D15*
%TO.C,J7*%
X105000000Y-118000000D03*
X105000000Y-107000000D03*
D16*
X110000000Y-115000000D03*
D17*
X110000000Y-110000000D03*
%TD*%
D24*
%TO.C,Q2*%
X156600000Y-120000000D03*
D25*
X158670000Y-121270000D03*
X156600000Y-122540000D03*
%TD*%
D22*
%TO.C,J2*%
X115000000Y-20000000D03*
D23*
X109920000Y-20000000D03*
X104840000Y-20000000D03*
%TD*%
D27*
%TO.C,Q1*%
X114000000Y-64000000D03*
D28*
X119450000Y-64000000D03*
X124900000Y-64000000D03*
%TD*%
D18*
%TO.C,C1*%
X164000000Y-114000000D03*
X159000000Y-114000000D03*
%TD*%
%TO.C,R8*%
X179000000Y-110000000D03*
D19*
X168840000Y-110000000D03*
%TD*%
D22*
%TO.C,J4*%
X155000000Y-20000000D03*
D23*
X149920000Y-20000000D03*
X144840000Y-20000000D03*
%TD*%
D26*
%TO.C,H3*%
X96000000Y-137000000D03*
%TD*%
D18*
%TO.C,R14*%
X188000000Y-60000000D03*
D19*
X188000000Y-70160000D03*
%TD*%
D20*
%TO.C,C9*%
X170000000Y-35000000D03*
D21*
X175000000Y-35000000D03*
%TD*%
D20*
%TO.C,C6*%
X130000000Y-34000000D03*
D21*
X135000000Y-34000000D03*
%TD*%
D27*
%TO.C,Q6*%
X154000000Y-64000000D03*
D28*
X159450000Y-64000000D03*
X164900000Y-64000000D03*
%TD*%
D26*
%TO.C,H2*%
X188000000Y-19000000D03*
%TD*%
D18*
%TO.C,R9*%
X179000000Y-120000000D03*
D19*
X168840000Y-120000000D03*
%TD*%
D26*
%TO.C,H1*%
X96000000Y-19000000D03*
%TD*%
D18*
%TO.C,C4*%
X147000000Y-114000000D03*
X142000000Y-114000000D03*
%TD*%
%TO.C,R7*%
X139000000Y-127000000D03*
D19*
X149160000Y-127000000D03*
%TD*%
D29*
%TO.C,J6*%
X134350000Y-141000000D03*
X120850000Y-141000000D03*
D30*
X124000000Y-135000000D03*
D12*
X131200000Y-135000000D03*
%TD*%
D24*
%TO.C,Q4*%
X139600000Y-120000000D03*
D25*
X141670000Y-121270000D03*
X139600000Y-122540000D03*
%TD*%
D31*
%TO.C,U1*%
X180210000Y-78380000D03*
D18*
X177670000Y-78380000D03*
X175130000Y-78380000D03*
X172590000Y-78380000D03*
X170050000Y-78380000D03*
X167510000Y-78380000D03*
X164970000Y-78380000D03*
X162430000Y-78380000D03*
X159890000Y-78380000D03*
X157350000Y-78380000D03*
X154810000Y-78380000D03*
X152270000Y-78380000D03*
X149730000Y-78380000D03*
X147190000Y-78380000D03*
X144650000Y-78380000D03*
X142110000Y-78380000D03*
X139570000Y-78380000D03*
X137030000Y-78380000D03*
X134490000Y-78380000D03*
X131950000Y-78380000D03*
X129410000Y-78380000D03*
X126870000Y-78380000D03*
X124330000Y-78380000D03*
X121790000Y-78380000D03*
X121790000Y-93620000D03*
X124330000Y-93620000D03*
X126870000Y-93620000D03*
X129410000Y-93620000D03*
X131950000Y-93620000D03*
X134490000Y-93620000D03*
X137030000Y-93620000D03*
X139570000Y-93620000D03*
X142110000Y-93620000D03*
X144650000Y-93620000D03*
X147190000Y-93620000D03*
X149730000Y-93620000D03*
X152270000Y-93620000D03*
X154810000Y-93620000D03*
X157350000Y-93620000D03*
X159890000Y-93620000D03*
X162430000Y-93620000D03*
X164970000Y-93620000D03*
X167510000Y-93620000D03*
X170050000Y-93620000D03*
X172590000Y-93620000D03*
X175130000Y-93620000D03*
X177670000Y-93620000D03*
X180210000Y-93620000D03*
X177670000Y-91080000D03*
X134490000Y-80920000D03*
X134490000Y-83460000D03*
X134490000Y-86000000D03*
X134490000Y-88540000D03*
X134490000Y-91080000D03*
D31*
X173910800Y-81430800D03*
D18*
X171370800Y-81430800D03*
X168830800Y-81430800D03*
X166290800Y-81430800D03*
X163750800Y-81430800D03*
D32*
X167240000Y-91181600D03*
D33*
X167240000Y-89181600D03*
X167240000Y-87181600D03*
X165240000Y-87181600D03*
X165240000Y-89181600D03*
X165240000Y-91181600D03*
X179480000Y-87270000D03*
X179480000Y-84730000D03*
%TD*%
D18*
%TO.C,C3*%
X164000000Y-135000000D03*
X159000000Y-135000000D03*
%TD*%
%TO.C,R10*%
X179000000Y-130000000D03*
D19*
X168840000Y-130000000D03*
%TD*%
D18*
%TO.C,R4*%
X179000000Y-100000000D03*
D19*
X168840000Y-100000000D03*
%TD*%
M02*
