%TF.GenerationSoftware,KiCad,Pcbnew,8.0.6-8.0.6-0~ubuntu22.04.1*%
%TF.CreationDate,2025-01-17T00:52:49+00:00*%
%TF.ProjectId,miniv_estop_board,6d696e69-765f-4657-9374-6f705f626f61,rev?*%
%TF.SameCoordinates,Original*%
%TF.FileFunction,AssemblyDrawing,Top*%
%FSLAX46Y46*%
G04 Gerber Fmt 4.6, Leading zero omitted, Abs format (unit mm)*
G04 Created by KiCad (PCBNEW 8.0.6-8.0.6-0~ubuntu22.04.1) date 2025-01-17 00:52:49*
%MOMM*%
%LPD*%
G01*
G04 APERTURE LIST*
%ADD10C,0.150000*%
%ADD11C,0.100000*%
G04 APERTURE END LIST*
D10*
X113359580Y-82123809D02*
X113407200Y-82171428D01*
X113407200Y-82171428D02*
X113454819Y-82314285D01*
X113454819Y-82314285D02*
X113454819Y-82409523D01*
X113454819Y-82409523D02*
X113407200Y-82552380D01*
X113407200Y-82552380D02*
X113311961Y-82647618D01*
X113311961Y-82647618D02*
X113216723Y-82695237D01*
X113216723Y-82695237D02*
X113026247Y-82742856D01*
X113026247Y-82742856D02*
X112883390Y-82742856D01*
X112883390Y-82742856D02*
X112692914Y-82695237D01*
X112692914Y-82695237D02*
X112597676Y-82647618D01*
X112597676Y-82647618D02*
X112502438Y-82552380D01*
X112502438Y-82552380D02*
X112454819Y-82409523D01*
X112454819Y-82409523D02*
X112454819Y-82314285D01*
X112454819Y-82314285D02*
X112502438Y-82171428D01*
X112502438Y-82171428D02*
X112550057Y-82123809D01*
X113454819Y-81552380D02*
X113407200Y-81647618D01*
X113407200Y-81647618D02*
X113359580Y-81695237D01*
X113359580Y-81695237D02*
X113264342Y-81742856D01*
X113264342Y-81742856D02*
X112978628Y-81742856D01*
X112978628Y-81742856D02*
X112883390Y-81695237D01*
X112883390Y-81695237D02*
X112835771Y-81647618D01*
X112835771Y-81647618D02*
X112788152Y-81552380D01*
X112788152Y-81552380D02*
X112788152Y-81409523D01*
X112788152Y-81409523D02*
X112835771Y-81314285D01*
X112835771Y-81314285D02*
X112883390Y-81266666D01*
X112883390Y-81266666D02*
X112978628Y-81219047D01*
X112978628Y-81219047D02*
X113264342Y-81219047D01*
X113264342Y-81219047D02*
X113359580Y-81266666D01*
X113359580Y-81266666D02*
X113407200Y-81314285D01*
X113407200Y-81314285D02*
X113454819Y-81409523D01*
X113454819Y-81409523D02*
X113454819Y-81552380D01*
X112788152Y-80790475D02*
X113454819Y-80790475D01*
X112883390Y-80790475D02*
X112835771Y-80742856D01*
X112835771Y-80742856D02*
X112788152Y-80647618D01*
X112788152Y-80647618D02*
X112788152Y-80504761D01*
X112788152Y-80504761D02*
X112835771Y-80409523D01*
X112835771Y-80409523D02*
X112931009Y-80361904D01*
X112931009Y-80361904D02*
X113454819Y-80361904D01*
X112788152Y-79885713D02*
X113454819Y-79885713D01*
X112883390Y-79885713D02*
X112835771Y-79838094D01*
X112835771Y-79838094D02*
X112788152Y-79742856D01*
X112788152Y-79742856D02*
X112788152Y-79599999D01*
X112788152Y-79599999D02*
X112835771Y-79504761D01*
X112835771Y-79504761D02*
X112931009Y-79457142D01*
X112931009Y-79457142D02*
X113454819Y-79457142D01*
X113550057Y-79219047D02*
X113550057Y-78457142D01*
X113454819Y-78219046D02*
X112454819Y-78219046D01*
X112454819Y-78219046D02*
X113169104Y-77885713D01*
X113169104Y-77885713D02*
X112454819Y-77552380D01*
X112454819Y-77552380D02*
X113454819Y-77552380D01*
X113454819Y-76647618D02*
X112931009Y-76647618D01*
X112931009Y-76647618D02*
X112835771Y-76695237D01*
X112835771Y-76695237D02*
X112788152Y-76790475D01*
X112788152Y-76790475D02*
X112788152Y-76980951D01*
X112788152Y-76980951D02*
X112835771Y-77076189D01*
X113407200Y-76647618D02*
X113454819Y-76742856D01*
X113454819Y-76742856D02*
X113454819Y-76980951D01*
X113454819Y-76980951D02*
X113407200Y-77076189D01*
X113407200Y-77076189D02*
X113311961Y-77123808D01*
X113311961Y-77123808D02*
X113216723Y-77123808D01*
X113216723Y-77123808D02*
X113121485Y-77076189D01*
X113121485Y-77076189D02*
X113073866Y-76980951D01*
X113073866Y-76980951D02*
X113073866Y-76742856D01*
X113073866Y-76742856D02*
X113026247Y-76647618D01*
X113454819Y-76171427D02*
X112788152Y-76171427D01*
X112454819Y-76171427D02*
X112502438Y-76219046D01*
X112502438Y-76219046D02*
X112550057Y-76171427D01*
X112550057Y-76171427D02*
X112502438Y-76123808D01*
X112502438Y-76123808D02*
X112454819Y-76171427D01*
X112454819Y-76171427D02*
X112550057Y-76171427D01*
X112788152Y-75695237D02*
X113454819Y-75695237D01*
X112883390Y-75695237D02*
X112835771Y-75647618D01*
X112835771Y-75647618D02*
X112788152Y-75552380D01*
X112788152Y-75552380D02*
X112788152Y-75409523D01*
X112788152Y-75409523D02*
X112835771Y-75314285D01*
X112835771Y-75314285D02*
X112931009Y-75266666D01*
X112931009Y-75266666D02*
X113454819Y-75266666D01*
X113550057Y-75028571D02*
X113550057Y-74266666D01*
X113454819Y-74028570D02*
X112454819Y-74028570D01*
X112454819Y-74028570D02*
X112454819Y-73790475D01*
X112454819Y-73790475D02*
X112502438Y-73647618D01*
X112502438Y-73647618D02*
X112597676Y-73552380D01*
X112597676Y-73552380D02*
X112692914Y-73504761D01*
X112692914Y-73504761D02*
X112883390Y-73457142D01*
X112883390Y-73457142D02*
X113026247Y-73457142D01*
X113026247Y-73457142D02*
X113216723Y-73504761D01*
X113216723Y-73504761D02*
X113311961Y-73552380D01*
X113311961Y-73552380D02*
X113407200Y-73647618D01*
X113407200Y-73647618D02*
X113454819Y-73790475D01*
X113454819Y-73790475D02*
X113454819Y-74028570D01*
X113359580Y-72457142D02*
X113407200Y-72504761D01*
X113407200Y-72504761D02*
X113454819Y-72647618D01*
X113454819Y-72647618D02*
X113454819Y-72742856D01*
X113454819Y-72742856D02*
X113407200Y-72885713D01*
X113407200Y-72885713D02*
X113311961Y-72980951D01*
X113311961Y-72980951D02*
X113216723Y-73028570D01*
X113216723Y-73028570D02*
X113026247Y-73076189D01*
X113026247Y-73076189D02*
X112883390Y-73076189D01*
X112883390Y-73076189D02*
X112692914Y-73028570D01*
X112692914Y-73028570D02*
X112597676Y-72980951D01*
X112597676Y-72980951D02*
X112502438Y-72885713D01*
X112502438Y-72885713D02*
X112454819Y-72742856D01*
X112454819Y-72742856D02*
X112454819Y-72647618D01*
X112454819Y-72647618D02*
X112502438Y-72504761D01*
X112502438Y-72504761D02*
X112550057Y-72457142D01*
X113454819Y-72028570D02*
X112454819Y-72028570D01*
X112454819Y-72028570D02*
X112454819Y-71790475D01*
X112454819Y-71790475D02*
X112502438Y-71647618D01*
X112502438Y-71647618D02*
X112597676Y-71552380D01*
X112597676Y-71552380D02*
X112692914Y-71504761D01*
X112692914Y-71504761D02*
X112883390Y-71457142D01*
X112883390Y-71457142D02*
X113026247Y-71457142D01*
X113026247Y-71457142D02*
X113216723Y-71504761D01*
X113216723Y-71504761D02*
X113311961Y-71552380D01*
X113311961Y-71552380D02*
X113407200Y-71647618D01*
X113407200Y-71647618D02*
X113454819Y-71790475D01*
X113454819Y-71790475D02*
X113454819Y-72028570D01*
X113359580Y-70457142D02*
X113407200Y-70504761D01*
X113407200Y-70504761D02*
X113454819Y-70647618D01*
X113454819Y-70647618D02*
X113454819Y-70742856D01*
X113454819Y-70742856D02*
X113407200Y-70885713D01*
X113407200Y-70885713D02*
X113311961Y-70980951D01*
X113311961Y-70980951D02*
X113216723Y-71028570D01*
X113216723Y-71028570D02*
X113026247Y-71076189D01*
X113026247Y-71076189D02*
X112883390Y-71076189D01*
X112883390Y-71076189D02*
X112692914Y-71028570D01*
X112692914Y-71028570D02*
X112597676Y-70980951D01*
X112597676Y-70980951D02*
X112502438Y-70885713D01*
X112502438Y-70885713D02*
X112454819Y-70742856D01*
X112454819Y-70742856D02*
X112454819Y-70647618D01*
X112454819Y-70647618D02*
X112502438Y-70504761D01*
X112502438Y-70504761D02*
X112550057Y-70457142D01*
X104854819Y-76933333D02*
X105569104Y-76933333D01*
X105569104Y-76933333D02*
X105711961Y-76980952D01*
X105711961Y-76980952D02*
X105807200Y-77076190D01*
X105807200Y-77076190D02*
X105854819Y-77219047D01*
X105854819Y-77219047D02*
X105854819Y-77314285D01*
X105854819Y-75933333D02*
X105854819Y-76504761D01*
X105854819Y-76219047D02*
X104854819Y-76219047D01*
X104854819Y-76219047D02*
X104997676Y-76314285D01*
X104997676Y-76314285D02*
X105092914Y-76409523D01*
X105092914Y-76409523D02*
X105140533Y-76504761D01*
X148414819Y-47372857D02*
X148414819Y-47849047D01*
X148414819Y-47849047D02*
X147414819Y-47849047D01*
X147891009Y-47039523D02*
X147891009Y-46706190D01*
X148414819Y-46563333D02*
X148414819Y-47039523D01*
X148414819Y-47039523D02*
X147414819Y-47039523D01*
X147414819Y-47039523D02*
X147414819Y-46563333D01*
X148414819Y-46134761D02*
X147414819Y-46134761D01*
X147414819Y-46134761D02*
X147414819Y-45896666D01*
X147414819Y-45896666D02*
X147462438Y-45753809D01*
X147462438Y-45753809D02*
X147557676Y-45658571D01*
X147557676Y-45658571D02*
X147652914Y-45610952D01*
X147652914Y-45610952D02*
X147843390Y-45563333D01*
X147843390Y-45563333D02*
X147986247Y-45563333D01*
X147986247Y-45563333D02*
X148176723Y-45610952D01*
X148176723Y-45610952D02*
X148271961Y-45658571D01*
X148271961Y-45658571D02*
X148367200Y-45753809D01*
X148367200Y-45753809D02*
X148414819Y-45896666D01*
X148414819Y-45896666D02*
X148414819Y-46134761D01*
X113431009Y-102500000D02*
X113431009Y-102166667D01*
X113954819Y-102023810D02*
X113954819Y-102500000D01*
X113954819Y-102500000D02*
X112954819Y-102500000D01*
X112954819Y-102500000D02*
X112954819Y-102023810D01*
X113907200Y-101642857D02*
X113954819Y-101500000D01*
X113954819Y-101500000D02*
X113954819Y-101261905D01*
X113954819Y-101261905D02*
X113907200Y-101166667D01*
X113907200Y-101166667D02*
X113859580Y-101119048D01*
X113859580Y-101119048D02*
X113764342Y-101071429D01*
X113764342Y-101071429D02*
X113669104Y-101071429D01*
X113669104Y-101071429D02*
X113573866Y-101119048D01*
X113573866Y-101119048D02*
X113526247Y-101166667D01*
X113526247Y-101166667D02*
X113478628Y-101261905D01*
X113478628Y-101261905D02*
X113431009Y-101452381D01*
X113431009Y-101452381D02*
X113383390Y-101547619D01*
X113383390Y-101547619D02*
X113335771Y-101595238D01*
X113335771Y-101595238D02*
X113240533Y-101642857D01*
X113240533Y-101642857D02*
X113145295Y-101642857D01*
X113145295Y-101642857D02*
X113050057Y-101595238D01*
X113050057Y-101595238D02*
X113002438Y-101547619D01*
X113002438Y-101547619D02*
X112954819Y-101452381D01*
X112954819Y-101452381D02*
X112954819Y-101214286D01*
X112954819Y-101214286D02*
X113002438Y-101071429D01*
X113288152Y-100785714D02*
X113288152Y-100404762D01*
X112954819Y-100642857D02*
X113811961Y-100642857D01*
X113811961Y-100642857D02*
X113907200Y-100595238D01*
X113907200Y-100595238D02*
X113954819Y-100500000D01*
X113954819Y-100500000D02*
X113954819Y-100404762D01*
X113954819Y-99928571D02*
X113907200Y-100023809D01*
X113907200Y-100023809D02*
X113859580Y-100071428D01*
X113859580Y-100071428D02*
X113764342Y-100119047D01*
X113764342Y-100119047D02*
X113478628Y-100119047D01*
X113478628Y-100119047D02*
X113383390Y-100071428D01*
X113383390Y-100071428D02*
X113335771Y-100023809D01*
X113335771Y-100023809D02*
X113288152Y-99928571D01*
X113288152Y-99928571D02*
X113288152Y-99785714D01*
X113288152Y-99785714D02*
X113335771Y-99690476D01*
X113335771Y-99690476D02*
X113383390Y-99642857D01*
X113383390Y-99642857D02*
X113478628Y-99595238D01*
X113478628Y-99595238D02*
X113764342Y-99595238D01*
X113764342Y-99595238D02*
X113859580Y-99642857D01*
X113859580Y-99642857D02*
X113907200Y-99690476D01*
X113907200Y-99690476D02*
X113954819Y-99785714D01*
X113954819Y-99785714D02*
X113954819Y-99928571D01*
X113288152Y-99166666D02*
X114288152Y-99166666D01*
X113335771Y-99166666D02*
X113288152Y-99071428D01*
X113288152Y-99071428D02*
X113288152Y-98880952D01*
X113288152Y-98880952D02*
X113335771Y-98785714D01*
X113335771Y-98785714D02*
X113383390Y-98738095D01*
X113383390Y-98738095D02*
X113478628Y-98690476D01*
X113478628Y-98690476D02*
X113764342Y-98690476D01*
X113764342Y-98690476D02*
X113859580Y-98738095D01*
X113859580Y-98738095D02*
X113907200Y-98785714D01*
X113907200Y-98785714D02*
X113954819Y-98880952D01*
X113954819Y-98880952D02*
X113954819Y-99071428D01*
X113954819Y-99071428D02*
X113907200Y-99166666D01*
X114050057Y-98500000D02*
X114050057Y-97738095D01*
X113907200Y-97547618D02*
X113954819Y-97452380D01*
X113954819Y-97452380D02*
X113954819Y-97261904D01*
X113954819Y-97261904D02*
X113907200Y-97166666D01*
X113907200Y-97166666D02*
X113811961Y-97119047D01*
X113811961Y-97119047D02*
X113764342Y-97119047D01*
X113764342Y-97119047D02*
X113669104Y-97166666D01*
X113669104Y-97166666D02*
X113621485Y-97261904D01*
X113621485Y-97261904D02*
X113621485Y-97404761D01*
X113621485Y-97404761D02*
X113573866Y-97499999D01*
X113573866Y-97499999D02*
X113478628Y-97547618D01*
X113478628Y-97547618D02*
X113431009Y-97547618D01*
X113431009Y-97547618D02*
X113335771Y-97499999D01*
X113335771Y-97499999D02*
X113288152Y-97404761D01*
X113288152Y-97404761D02*
X113288152Y-97261904D01*
X113288152Y-97261904D02*
X113335771Y-97166666D01*
X113954819Y-96690475D02*
X113288152Y-96690475D01*
X112954819Y-96690475D02*
X113002438Y-96738094D01*
X113002438Y-96738094D02*
X113050057Y-96690475D01*
X113050057Y-96690475D02*
X113002438Y-96642856D01*
X113002438Y-96642856D02*
X112954819Y-96690475D01*
X112954819Y-96690475D02*
X113050057Y-96690475D01*
X113288152Y-95785714D02*
X114097676Y-95785714D01*
X114097676Y-95785714D02*
X114192914Y-95833333D01*
X114192914Y-95833333D02*
X114240533Y-95880952D01*
X114240533Y-95880952D02*
X114288152Y-95976190D01*
X114288152Y-95976190D02*
X114288152Y-96119047D01*
X114288152Y-96119047D02*
X114240533Y-96214285D01*
X113907200Y-95785714D02*
X113954819Y-95880952D01*
X113954819Y-95880952D02*
X113954819Y-96071428D01*
X113954819Y-96071428D02*
X113907200Y-96166666D01*
X113907200Y-96166666D02*
X113859580Y-96214285D01*
X113859580Y-96214285D02*
X113764342Y-96261904D01*
X113764342Y-96261904D02*
X113478628Y-96261904D01*
X113478628Y-96261904D02*
X113383390Y-96214285D01*
X113383390Y-96214285D02*
X113335771Y-96166666D01*
X113335771Y-96166666D02*
X113288152Y-96071428D01*
X113288152Y-96071428D02*
X113288152Y-95880952D01*
X113288152Y-95880952D02*
X113335771Y-95785714D01*
X113288152Y-95309523D02*
X113954819Y-95309523D01*
X113383390Y-95309523D02*
X113335771Y-95261904D01*
X113335771Y-95261904D02*
X113288152Y-95166666D01*
X113288152Y-95166666D02*
X113288152Y-95023809D01*
X113288152Y-95023809D02*
X113335771Y-94928571D01*
X113335771Y-94928571D02*
X113431009Y-94880952D01*
X113431009Y-94880952D02*
X113954819Y-94880952D01*
X113954819Y-93976190D02*
X113431009Y-93976190D01*
X113431009Y-93976190D02*
X113335771Y-94023809D01*
X113335771Y-94023809D02*
X113288152Y-94119047D01*
X113288152Y-94119047D02*
X113288152Y-94309523D01*
X113288152Y-94309523D02*
X113335771Y-94404761D01*
X113907200Y-93976190D02*
X113954819Y-94071428D01*
X113954819Y-94071428D02*
X113954819Y-94309523D01*
X113954819Y-94309523D02*
X113907200Y-94404761D01*
X113907200Y-94404761D02*
X113811961Y-94452380D01*
X113811961Y-94452380D02*
X113716723Y-94452380D01*
X113716723Y-94452380D02*
X113621485Y-94404761D01*
X113621485Y-94404761D02*
X113573866Y-94309523D01*
X113573866Y-94309523D02*
X113573866Y-94071428D01*
X113573866Y-94071428D02*
X113526247Y-93976190D01*
X113954819Y-93357142D02*
X113907200Y-93452380D01*
X113907200Y-93452380D02*
X113811961Y-93499999D01*
X113811961Y-93499999D02*
X112954819Y-93499999D01*
X113954819Y-92452380D02*
X113954819Y-93023808D01*
X113954819Y-92738094D02*
X112954819Y-92738094D01*
X112954819Y-92738094D02*
X113097676Y-92833332D01*
X113097676Y-92833332D02*
X113192914Y-92928570D01*
X113192914Y-92928570D02*
X113240533Y-93023808D01*
X106454819Y-97833333D02*
X107169104Y-97833333D01*
X107169104Y-97833333D02*
X107311961Y-97880952D01*
X107311961Y-97880952D02*
X107407200Y-97976190D01*
X107407200Y-97976190D02*
X107454819Y-98119047D01*
X107454819Y-98119047D02*
X107454819Y-98214285D01*
X106883390Y-97214285D02*
X106835771Y-97309523D01*
X106835771Y-97309523D02*
X106788152Y-97357142D01*
X106788152Y-97357142D02*
X106692914Y-97404761D01*
X106692914Y-97404761D02*
X106645295Y-97404761D01*
X106645295Y-97404761D02*
X106550057Y-97357142D01*
X106550057Y-97357142D02*
X106502438Y-97309523D01*
X106502438Y-97309523D02*
X106454819Y-97214285D01*
X106454819Y-97214285D02*
X106454819Y-97023809D01*
X106454819Y-97023809D02*
X106502438Y-96928571D01*
X106502438Y-96928571D02*
X106550057Y-96880952D01*
X106550057Y-96880952D02*
X106645295Y-96833333D01*
X106645295Y-96833333D02*
X106692914Y-96833333D01*
X106692914Y-96833333D02*
X106788152Y-96880952D01*
X106788152Y-96880952D02*
X106835771Y-96928571D01*
X106835771Y-96928571D02*
X106883390Y-97023809D01*
X106883390Y-97023809D02*
X106883390Y-97214285D01*
X106883390Y-97214285D02*
X106931009Y-97309523D01*
X106931009Y-97309523D02*
X106978628Y-97357142D01*
X106978628Y-97357142D02*
X107073866Y-97404761D01*
X107073866Y-97404761D02*
X107264342Y-97404761D01*
X107264342Y-97404761D02*
X107359580Y-97357142D01*
X107359580Y-97357142D02*
X107407200Y-97309523D01*
X107407200Y-97309523D02*
X107454819Y-97214285D01*
X107454819Y-97214285D02*
X107454819Y-97023809D01*
X107454819Y-97023809D02*
X107407200Y-96928571D01*
X107407200Y-96928571D02*
X107359580Y-96880952D01*
X107359580Y-96880952D02*
X107264342Y-96833333D01*
X107264342Y-96833333D02*
X107073866Y-96833333D01*
X107073866Y-96833333D02*
X106978628Y-96880952D01*
X106978628Y-96880952D02*
X106931009Y-96928571D01*
X106931009Y-96928571D02*
X106883390Y-97023809D01*
X143285714Y-130954819D02*
X143380952Y-130954819D01*
X143380952Y-130954819D02*
X143476190Y-131002438D01*
X143476190Y-131002438D02*
X143523809Y-131050057D01*
X143523809Y-131050057D02*
X143571428Y-131145295D01*
X143571428Y-131145295D02*
X143619047Y-131335771D01*
X143619047Y-131335771D02*
X143619047Y-131573866D01*
X143619047Y-131573866D02*
X143571428Y-131764342D01*
X143571428Y-131764342D02*
X143523809Y-131859580D01*
X143523809Y-131859580D02*
X143476190Y-131907200D01*
X143476190Y-131907200D02*
X143380952Y-131954819D01*
X143380952Y-131954819D02*
X143285714Y-131954819D01*
X143285714Y-131954819D02*
X143190476Y-131907200D01*
X143190476Y-131907200D02*
X143142857Y-131859580D01*
X143142857Y-131859580D02*
X143095238Y-131764342D01*
X143095238Y-131764342D02*
X143047619Y-131573866D01*
X143047619Y-131573866D02*
X143047619Y-131335771D01*
X143047619Y-131335771D02*
X143095238Y-131145295D01*
X143095238Y-131145295D02*
X143142857Y-131050057D01*
X143142857Y-131050057D02*
X143190476Y-131002438D01*
X143190476Y-131002438D02*
X143285714Y-130954819D01*
X144047619Y-131859580D02*
X144095238Y-131907200D01*
X144095238Y-131907200D02*
X144047619Y-131954819D01*
X144047619Y-131954819D02*
X144000000Y-131907200D01*
X144000000Y-131907200D02*
X144047619Y-131859580D01*
X144047619Y-131859580D02*
X144047619Y-131954819D01*
X145047618Y-131954819D02*
X144476190Y-131954819D01*
X144761904Y-131954819D02*
X144761904Y-130954819D01*
X144761904Y-130954819D02*
X144666666Y-131097676D01*
X144666666Y-131097676D02*
X144571428Y-131192914D01*
X144571428Y-131192914D02*
X144476190Y-131240533D01*
X145904761Y-131288152D02*
X145904761Y-131954819D01*
X145476190Y-131288152D02*
X145476190Y-131811961D01*
X145476190Y-131811961D02*
X145523809Y-131907200D01*
X145523809Y-131907200D02*
X145619047Y-131954819D01*
X145619047Y-131954819D02*
X145761904Y-131954819D01*
X145761904Y-131954819D02*
X145857142Y-131907200D01*
X145857142Y-131907200D02*
X145904761Y-131859580D01*
X144333333Y-135359580D02*
X144285714Y-135407200D01*
X144285714Y-135407200D02*
X144142857Y-135454819D01*
X144142857Y-135454819D02*
X144047619Y-135454819D01*
X144047619Y-135454819D02*
X143904762Y-135407200D01*
X143904762Y-135407200D02*
X143809524Y-135311961D01*
X143809524Y-135311961D02*
X143761905Y-135216723D01*
X143761905Y-135216723D02*
X143714286Y-135026247D01*
X143714286Y-135026247D02*
X143714286Y-134883390D01*
X143714286Y-134883390D02*
X143761905Y-134692914D01*
X143761905Y-134692914D02*
X143809524Y-134597676D01*
X143809524Y-134597676D02*
X143904762Y-134502438D01*
X143904762Y-134502438D02*
X144047619Y-134454819D01*
X144047619Y-134454819D02*
X144142857Y-134454819D01*
X144142857Y-134454819D02*
X144285714Y-134502438D01*
X144285714Y-134502438D02*
X144333333Y-134550057D01*
X145238095Y-134454819D02*
X144761905Y-134454819D01*
X144761905Y-134454819D02*
X144714286Y-134931009D01*
X144714286Y-134931009D02*
X144761905Y-134883390D01*
X144761905Y-134883390D02*
X144857143Y-134835771D01*
X144857143Y-134835771D02*
X145095238Y-134835771D01*
X145095238Y-134835771D02*
X145190476Y-134883390D01*
X145190476Y-134883390D02*
X145238095Y-134931009D01*
X145238095Y-134931009D02*
X145285714Y-135026247D01*
X145285714Y-135026247D02*
X145285714Y-135264342D01*
X145285714Y-135264342D02*
X145238095Y-135359580D01*
X145238095Y-135359580D02*
X145190476Y-135407200D01*
X145190476Y-135407200D02*
X145095238Y-135454819D01*
X145095238Y-135454819D02*
X144857143Y-135454819D01*
X144857143Y-135454819D02*
X144761905Y-135407200D01*
X144761905Y-135407200D02*
X144714286Y-135359580D01*
X160056190Y-108158152D02*
X160056190Y-108824819D01*
X159818095Y-107777200D02*
X159580000Y-108491485D01*
X159580000Y-108491485D02*
X160199047Y-108491485D01*
X160580000Y-108729580D02*
X160627619Y-108777200D01*
X160627619Y-108777200D02*
X160580000Y-108824819D01*
X160580000Y-108824819D02*
X160532381Y-108777200D01*
X160532381Y-108777200D02*
X160580000Y-108729580D01*
X160580000Y-108729580D02*
X160580000Y-108824819D01*
X160960952Y-107824819D02*
X161627618Y-107824819D01*
X161627618Y-107824819D02*
X161199047Y-108824819D01*
X162008571Y-108824819D02*
X162008571Y-107824819D01*
X162579999Y-108824819D02*
X162151428Y-108253390D01*
X162579999Y-107824819D02*
X162008571Y-108396247D01*
X160913333Y-106454819D02*
X160580000Y-105978628D01*
X160341905Y-106454819D02*
X160341905Y-105454819D01*
X160341905Y-105454819D02*
X160722857Y-105454819D01*
X160722857Y-105454819D02*
X160818095Y-105502438D01*
X160818095Y-105502438D02*
X160865714Y-105550057D01*
X160865714Y-105550057D02*
X160913333Y-105645295D01*
X160913333Y-105645295D02*
X160913333Y-105788152D01*
X160913333Y-105788152D02*
X160865714Y-105883390D01*
X160865714Y-105883390D02*
X160818095Y-105931009D01*
X160818095Y-105931009D02*
X160722857Y-105978628D01*
X160722857Y-105978628D02*
X160341905Y-105978628D01*
X161246667Y-105454819D02*
X161865714Y-105454819D01*
X161865714Y-105454819D02*
X161532381Y-105835771D01*
X161532381Y-105835771D02*
X161675238Y-105835771D01*
X161675238Y-105835771D02*
X161770476Y-105883390D01*
X161770476Y-105883390D02*
X161818095Y-105931009D01*
X161818095Y-105931009D02*
X161865714Y-106026247D01*
X161865714Y-106026247D02*
X161865714Y-106264342D01*
X161865714Y-106264342D02*
X161818095Y-106359580D01*
X161818095Y-106359580D02*
X161770476Y-106407200D01*
X161770476Y-106407200D02*
X161675238Y-106454819D01*
X161675238Y-106454819D02*
X161389524Y-106454819D01*
X161389524Y-106454819D02*
X161294286Y-106407200D01*
X161294286Y-106407200D02*
X161246667Y-106359580D01*
X108824819Y-61205713D02*
X108824819Y-60586666D01*
X108824819Y-60586666D02*
X109205771Y-60919999D01*
X109205771Y-60919999D02*
X109205771Y-60777142D01*
X109205771Y-60777142D02*
X109253390Y-60681904D01*
X109253390Y-60681904D02*
X109301009Y-60634285D01*
X109301009Y-60634285D02*
X109396247Y-60586666D01*
X109396247Y-60586666D02*
X109634342Y-60586666D01*
X109634342Y-60586666D02*
X109729580Y-60634285D01*
X109729580Y-60634285D02*
X109777200Y-60681904D01*
X109777200Y-60681904D02*
X109824819Y-60777142D01*
X109824819Y-60777142D02*
X109824819Y-61062856D01*
X109824819Y-61062856D02*
X109777200Y-61158094D01*
X109777200Y-61158094D02*
X109729580Y-61205713D01*
X109824819Y-60110475D02*
X109824819Y-59919999D01*
X109824819Y-59919999D02*
X109777200Y-59824761D01*
X109777200Y-59824761D02*
X109729580Y-59777142D01*
X109729580Y-59777142D02*
X109586723Y-59681904D01*
X109586723Y-59681904D02*
X109396247Y-59634285D01*
X109396247Y-59634285D02*
X109015295Y-59634285D01*
X109015295Y-59634285D02*
X108920057Y-59681904D01*
X108920057Y-59681904D02*
X108872438Y-59729523D01*
X108872438Y-59729523D02*
X108824819Y-59824761D01*
X108824819Y-59824761D02*
X108824819Y-60015237D01*
X108824819Y-60015237D02*
X108872438Y-60110475D01*
X108872438Y-60110475D02*
X108920057Y-60158094D01*
X108920057Y-60158094D02*
X109015295Y-60205713D01*
X109015295Y-60205713D02*
X109253390Y-60205713D01*
X109253390Y-60205713D02*
X109348628Y-60158094D01*
X109348628Y-60158094D02*
X109396247Y-60110475D01*
X109396247Y-60110475D02*
X109443866Y-60015237D01*
X109443866Y-60015237D02*
X109443866Y-59824761D01*
X109443866Y-59824761D02*
X109396247Y-59729523D01*
X109396247Y-59729523D02*
X109348628Y-59681904D01*
X109348628Y-59681904D02*
X109253390Y-59634285D01*
X108824819Y-59015237D02*
X108824819Y-58919999D01*
X108824819Y-58919999D02*
X108872438Y-58824761D01*
X108872438Y-58824761D02*
X108920057Y-58777142D01*
X108920057Y-58777142D02*
X109015295Y-58729523D01*
X109015295Y-58729523D02*
X109205771Y-58681904D01*
X109205771Y-58681904D02*
X109443866Y-58681904D01*
X109443866Y-58681904D02*
X109634342Y-58729523D01*
X109634342Y-58729523D02*
X109729580Y-58777142D01*
X109729580Y-58777142D02*
X109777200Y-58824761D01*
X109777200Y-58824761D02*
X109824819Y-58919999D01*
X109824819Y-58919999D02*
X109824819Y-59015237D01*
X109824819Y-59015237D02*
X109777200Y-59110475D01*
X109777200Y-59110475D02*
X109729580Y-59158094D01*
X109729580Y-59158094D02*
X109634342Y-59205713D01*
X109634342Y-59205713D02*
X109443866Y-59253332D01*
X109443866Y-59253332D02*
X109205771Y-59253332D01*
X109205771Y-59253332D02*
X109015295Y-59205713D01*
X109015295Y-59205713D02*
X108920057Y-59158094D01*
X108920057Y-59158094D02*
X108872438Y-59110475D01*
X108872438Y-59110475D02*
X108824819Y-59015237D01*
X107454819Y-60086666D02*
X106978628Y-60419999D01*
X107454819Y-60658094D02*
X106454819Y-60658094D01*
X106454819Y-60658094D02*
X106454819Y-60277142D01*
X106454819Y-60277142D02*
X106502438Y-60181904D01*
X106502438Y-60181904D02*
X106550057Y-60134285D01*
X106550057Y-60134285D02*
X106645295Y-60086666D01*
X106645295Y-60086666D02*
X106788152Y-60086666D01*
X106788152Y-60086666D02*
X106883390Y-60134285D01*
X106883390Y-60134285D02*
X106931009Y-60181904D01*
X106931009Y-60181904D02*
X106978628Y-60277142D01*
X106978628Y-60277142D02*
X106978628Y-60658094D01*
X106550057Y-59705713D02*
X106502438Y-59658094D01*
X106502438Y-59658094D02*
X106454819Y-59562856D01*
X106454819Y-59562856D02*
X106454819Y-59324761D01*
X106454819Y-59324761D02*
X106502438Y-59229523D01*
X106502438Y-59229523D02*
X106550057Y-59181904D01*
X106550057Y-59181904D02*
X106645295Y-59134285D01*
X106645295Y-59134285D02*
X106740533Y-59134285D01*
X106740533Y-59134285D02*
X106883390Y-59181904D01*
X106883390Y-59181904D02*
X107454819Y-59753332D01*
X107454819Y-59753332D02*
X107454819Y-59134285D01*
X139865714Y-74824819D02*
X139294286Y-74824819D01*
X139580000Y-74824819D02*
X139580000Y-73824819D01*
X139580000Y-73824819D02*
X139484762Y-73967676D01*
X139484762Y-73967676D02*
X139389524Y-74062914D01*
X139389524Y-74062914D02*
X139294286Y-74110533D01*
X140294286Y-74824819D02*
X140294286Y-73824819D01*
X140865714Y-74824819D02*
X140437143Y-74253390D01*
X140865714Y-73824819D02*
X140294286Y-74396247D01*
X139913333Y-72454819D02*
X139580000Y-71978628D01*
X139341905Y-72454819D02*
X139341905Y-71454819D01*
X139341905Y-71454819D02*
X139722857Y-71454819D01*
X139722857Y-71454819D02*
X139818095Y-71502438D01*
X139818095Y-71502438D02*
X139865714Y-71550057D01*
X139865714Y-71550057D02*
X139913333Y-71645295D01*
X139913333Y-71645295D02*
X139913333Y-71788152D01*
X139913333Y-71788152D02*
X139865714Y-71883390D01*
X139865714Y-71883390D02*
X139818095Y-71931009D01*
X139818095Y-71931009D02*
X139722857Y-71978628D01*
X139722857Y-71978628D02*
X139341905Y-71978628D01*
X140865714Y-72454819D02*
X140294286Y-72454819D01*
X140580000Y-72454819D02*
X140580000Y-71454819D01*
X140580000Y-71454819D02*
X140484762Y-71597676D01*
X140484762Y-71597676D02*
X140389524Y-71692914D01*
X140389524Y-71692914D02*
X140294286Y-71740533D01*
X160056190Y-129158152D02*
X160056190Y-129824819D01*
X159818095Y-128777200D02*
X159580000Y-129491485D01*
X159580000Y-129491485D02*
X160199047Y-129491485D01*
X160580000Y-129729580D02*
X160627619Y-129777200D01*
X160627619Y-129777200D02*
X160580000Y-129824819D01*
X160580000Y-129824819D02*
X160532381Y-129777200D01*
X160532381Y-129777200D02*
X160580000Y-129729580D01*
X160580000Y-129729580D02*
X160580000Y-129824819D01*
X160960952Y-128824819D02*
X161627618Y-128824819D01*
X161627618Y-128824819D02*
X161199047Y-129824819D01*
X162008571Y-129824819D02*
X162008571Y-128824819D01*
X162579999Y-129824819D02*
X162151428Y-129253390D01*
X162579999Y-128824819D02*
X162008571Y-129396247D01*
X160913333Y-127454819D02*
X160580000Y-126978628D01*
X160341905Y-127454819D02*
X160341905Y-126454819D01*
X160341905Y-126454819D02*
X160722857Y-126454819D01*
X160722857Y-126454819D02*
X160818095Y-126502438D01*
X160818095Y-126502438D02*
X160865714Y-126550057D01*
X160865714Y-126550057D02*
X160913333Y-126645295D01*
X160913333Y-126645295D02*
X160913333Y-126788152D01*
X160913333Y-126788152D02*
X160865714Y-126883390D01*
X160865714Y-126883390D02*
X160818095Y-126931009D01*
X160818095Y-126931009D02*
X160722857Y-126978628D01*
X160722857Y-126978628D02*
X160341905Y-126978628D01*
X161818095Y-126454819D02*
X161341905Y-126454819D01*
X161341905Y-126454819D02*
X161294286Y-126931009D01*
X161294286Y-126931009D02*
X161341905Y-126883390D01*
X161341905Y-126883390D02*
X161437143Y-126835771D01*
X161437143Y-126835771D02*
X161675238Y-126835771D01*
X161675238Y-126835771D02*
X161770476Y-126883390D01*
X161770476Y-126883390D02*
X161818095Y-126931009D01*
X161818095Y-126931009D02*
X161865714Y-127026247D01*
X161865714Y-127026247D02*
X161865714Y-127264342D01*
X161865714Y-127264342D02*
X161818095Y-127359580D01*
X161818095Y-127359580D02*
X161770476Y-127407200D01*
X161770476Y-127407200D02*
X161675238Y-127454819D01*
X161675238Y-127454819D02*
X161437143Y-127454819D01*
X161437143Y-127454819D02*
X161341905Y-127407200D01*
X161341905Y-127407200D02*
X161294286Y-127359580D01*
X124039046Y-29699580D02*
X123991427Y-29747200D01*
X123991427Y-29747200D02*
X123848570Y-29794819D01*
X123848570Y-29794819D02*
X123753332Y-29794819D01*
X123753332Y-29794819D02*
X123610475Y-29747200D01*
X123610475Y-29747200D02*
X123515237Y-29651961D01*
X123515237Y-29651961D02*
X123467618Y-29556723D01*
X123467618Y-29556723D02*
X123419999Y-29366247D01*
X123419999Y-29366247D02*
X123419999Y-29223390D01*
X123419999Y-29223390D02*
X123467618Y-29032914D01*
X123467618Y-29032914D02*
X123515237Y-28937676D01*
X123515237Y-28937676D02*
X123610475Y-28842438D01*
X123610475Y-28842438D02*
X123753332Y-28794819D01*
X123753332Y-28794819D02*
X123848570Y-28794819D01*
X123848570Y-28794819D02*
X123991427Y-28842438D01*
X123991427Y-28842438D02*
X124039046Y-28890057D01*
X124610475Y-29794819D02*
X124515237Y-29747200D01*
X124515237Y-29747200D02*
X124467618Y-29699580D01*
X124467618Y-29699580D02*
X124419999Y-29604342D01*
X124419999Y-29604342D02*
X124419999Y-29318628D01*
X124419999Y-29318628D02*
X124467618Y-29223390D01*
X124467618Y-29223390D02*
X124515237Y-29175771D01*
X124515237Y-29175771D02*
X124610475Y-29128152D01*
X124610475Y-29128152D02*
X124753332Y-29128152D01*
X124753332Y-29128152D02*
X124848570Y-29175771D01*
X124848570Y-29175771D02*
X124896189Y-29223390D01*
X124896189Y-29223390D02*
X124943808Y-29318628D01*
X124943808Y-29318628D02*
X124943808Y-29604342D01*
X124943808Y-29604342D02*
X124896189Y-29699580D01*
X124896189Y-29699580D02*
X124848570Y-29747200D01*
X124848570Y-29747200D02*
X124753332Y-29794819D01*
X124753332Y-29794819D02*
X124610475Y-29794819D01*
X125372380Y-29128152D02*
X125372380Y-29794819D01*
X125372380Y-29223390D02*
X125419999Y-29175771D01*
X125419999Y-29175771D02*
X125515237Y-29128152D01*
X125515237Y-29128152D02*
X125658094Y-29128152D01*
X125658094Y-29128152D02*
X125753332Y-29175771D01*
X125753332Y-29175771D02*
X125800951Y-29271009D01*
X125800951Y-29271009D02*
X125800951Y-29794819D01*
X126277142Y-29128152D02*
X126277142Y-29794819D01*
X126277142Y-29223390D02*
X126324761Y-29175771D01*
X126324761Y-29175771D02*
X126419999Y-29128152D01*
X126419999Y-29128152D02*
X126562856Y-29128152D01*
X126562856Y-29128152D02*
X126658094Y-29175771D01*
X126658094Y-29175771D02*
X126705713Y-29271009D01*
X126705713Y-29271009D02*
X126705713Y-29794819D01*
X126943809Y-29890057D02*
X127705713Y-29890057D01*
X127943809Y-29128152D02*
X127943809Y-29794819D01*
X127943809Y-29223390D02*
X127991428Y-29175771D01*
X127991428Y-29175771D02*
X128086666Y-29128152D01*
X128086666Y-29128152D02*
X128229523Y-29128152D01*
X128229523Y-29128152D02*
X128324761Y-29175771D01*
X128324761Y-29175771D02*
X128372380Y-29271009D01*
X128372380Y-29271009D02*
X128372380Y-29794819D01*
X129229523Y-29747200D02*
X129134285Y-29794819D01*
X129134285Y-29794819D02*
X128943809Y-29794819D01*
X128943809Y-29794819D02*
X128848571Y-29747200D01*
X128848571Y-29747200D02*
X128800952Y-29651961D01*
X128800952Y-29651961D02*
X128800952Y-29271009D01*
X128800952Y-29271009D02*
X128848571Y-29175771D01*
X128848571Y-29175771D02*
X128943809Y-29128152D01*
X128943809Y-29128152D02*
X129134285Y-29128152D01*
X129134285Y-29128152D02*
X129229523Y-29175771D01*
X129229523Y-29175771D02*
X129277142Y-29271009D01*
X129277142Y-29271009D02*
X129277142Y-29366247D01*
X129277142Y-29366247D02*
X128800952Y-29461485D01*
X129848571Y-29794819D02*
X129753333Y-29747200D01*
X129753333Y-29747200D02*
X129705714Y-29699580D01*
X129705714Y-29699580D02*
X129658095Y-29604342D01*
X129658095Y-29604342D02*
X129658095Y-29318628D01*
X129658095Y-29318628D02*
X129705714Y-29223390D01*
X129705714Y-29223390D02*
X129753333Y-29175771D01*
X129753333Y-29175771D02*
X129848571Y-29128152D01*
X129848571Y-29128152D02*
X129991428Y-29128152D01*
X129991428Y-29128152D02*
X130086666Y-29175771D01*
X130086666Y-29175771D02*
X130134285Y-29223390D01*
X130134285Y-29223390D02*
X130181904Y-29318628D01*
X130181904Y-29318628D02*
X130181904Y-29604342D01*
X130181904Y-29604342D02*
X130134285Y-29699580D01*
X130134285Y-29699580D02*
X130086666Y-29747200D01*
X130086666Y-29747200D02*
X129991428Y-29794819D01*
X129991428Y-29794819D02*
X129848571Y-29794819D01*
X130610476Y-29128152D02*
X130610476Y-30128152D01*
X130610476Y-29175771D02*
X130705714Y-29128152D01*
X130705714Y-29128152D02*
X130896190Y-29128152D01*
X130896190Y-29128152D02*
X130991428Y-29175771D01*
X130991428Y-29175771D02*
X131039047Y-29223390D01*
X131039047Y-29223390D02*
X131086666Y-29318628D01*
X131086666Y-29318628D02*
X131086666Y-29604342D01*
X131086666Y-29604342D02*
X131039047Y-29699580D01*
X131039047Y-29699580D02*
X130991428Y-29747200D01*
X130991428Y-29747200D02*
X130896190Y-29794819D01*
X130896190Y-29794819D02*
X130705714Y-29794819D01*
X130705714Y-29794819D02*
X130610476Y-29747200D01*
X131515238Y-29794819D02*
X131515238Y-29128152D01*
X131515238Y-28794819D02*
X131467619Y-28842438D01*
X131467619Y-28842438D02*
X131515238Y-28890057D01*
X131515238Y-28890057D02*
X131562857Y-28842438D01*
X131562857Y-28842438D02*
X131515238Y-28794819D01*
X131515238Y-28794819D02*
X131515238Y-28890057D01*
X131896190Y-29794819D02*
X132419999Y-29128152D01*
X131896190Y-29128152D02*
X132419999Y-29794819D01*
X133181904Y-29747200D02*
X133086666Y-29794819D01*
X133086666Y-29794819D02*
X132896190Y-29794819D01*
X132896190Y-29794819D02*
X132800952Y-29747200D01*
X132800952Y-29747200D02*
X132753333Y-29651961D01*
X132753333Y-29651961D02*
X132753333Y-29271009D01*
X132753333Y-29271009D02*
X132800952Y-29175771D01*
X132800952Y-29175771D02*
X132896190Y-29128152D01*
X132896190Y-29128152D02*
X133086666Y-29128152D01*
X133086666Y-29128152D02*
X133181904Y-29175771D01*
X133181904Y-29175771D02*
X133229523Y-29271009D01*
X133229523Y-29271009D02*
X133229523Y-29366247D01*
X133229523Y-29366247D02*
X132753333Y-29461485D01*
X133800952Y-29794819D02*
X133705714Y-29747200D01*
X133705714Y-29747200D02*
X133658095Y-29651961D01*
X133658095Y-29651961D02*
X133658095Y-28794819D01*
X133943810Y-29890057D02*
X134705714Y-29890057D01*
X135134286Y-28794819D02*
X135229524Y-28794819D01*
X135229524Y-28794819D02*
X135324762Y-28842438D01*
X135324762Y-28842438D02*
X135372381Y-28890057D01*
X135372381Y-28890057D02*
X135420000Y-28985295D01*
X135420000Y-28985295D02*
X135467619Y-29175771D01*
X135467619Y-29175771D02*
X135467619Y-29413866D01*
X135467619Y-29413866D02*
X135420000Y-29604342D01*
X135420000Y-29604342D02*
X135372381Y-29699580D01*
X135372381Y-29699580D02*
X135324762Y-29747200D01*
X135324762Y-29747200D02*
X135229524Y-29794819D01*
X135229524Y-29794819D02*
X135134286Y-29794819D01*
X135134286Y-29794819D02*
X135039048Y-29747200D01*
X135039048Y-29747200D02*
X134991429Y-29699580D01*
X134991429Y-29699580D02*
X134943810Y-29604342D01*
X134943810Y-29604342D02*
X134896191Y-29413866D01*
X134896191Y-29413866D02*
X134896191Y-29175771D01*
X134896191Y-29175771D02*
X134943810Y-28985295D01*
X134943810Y-28985295D02*
X134991429Y-28890057D01*
X134991429Y-28890057D02*
X135039048Y-28842438D01*
X135039048Y-28842438D02*
X135134286Y-28794819D01*
X135848572Y-28890057D02*
X135896191Y-28842438D01*
X135896191Y-28842438D02*
X135991429Y-28794819D01*
X135991429Y-28794819D02*
X136229524Y-28794819D01*
X136229524Y-28794819D02*
X136324762Y-28842438D01*
X136324762Y-28842438D02*
X136372381Y-28890057D01*
X136372381Y-28890057D02*
X136420000Y-28985295D01*
X136420000Y-28985295D02*
X136420000Y-29080533D01*
X136420000Y-29080533D02*
X136372381Y-29223390D01*
X136372381Y-29223390D02*
X135800953Y-29794819D01*
X135800953Y-29794819D02*
X136420000Y-29794819D01*
X129586666Y-31254819D02*
X129586666Y-31969104D01*
X129586666Y-31969104D02*
X129539047Y-32111961D01*
X129539047Y-32111961D02*
X129443809Y-32207200D01*
X129443809Y-32207200D02*
X129300952Y-32254819D01*
X129300952Y-32254819D02*
X129205714Y-32254819D01*
X129967619Y-31254819D02*
X130586666Y-31254819D01*
X130586666Y-31254819D02*
X130253333Y-31635771D01*
X130253333Y-31635771D02*
X130396190Y-31635771D01*
X130396190Y-31635771D02*
X130491428Y-31683390D01*
X130491428Y-31683390D02*
X130539047Y-31731009D01*
X130539047Y-31731009D02*
X130586666Y-31826247D01*
X130586666Y-31826247D02*
X130586666Y-32064342D01*
X130586666Y-32064342D02*
X130539047Y-32159580D01*
X130539047Y-32159580D02*
X130491428Y-32207200D01*
X130491428Y-32207200D02*
X130396190Y-32254819D01*
X130396190Y-32254819D02*
X130110476Y-32254819D01*
X130110476Y-32254819D02*
X130015238Y-32207200D01*
X130015238Y-32207200D02*
X129967619Y-32159580D01*
X143056190Y-108158152D02*
X143056190Y-108824819D01*
X142818095Y-107777200D02*
X142580000Y-108491485D01*
X142580000Y-108491485D02*
X143199047Y-108491485D01*
X143580000Y-108729580D02*
X143627619Y-108777200D01*
X143627619Y-108777200D02*
X143580000Y-108824819D01*
X143580000Y-108824819D02*
X143532381Y-108777200D01*
X143532381Y-108777200D02*
X143580000Y-108729580D01*
X143580000Y-108729580D02*
X143580000Y-108824819D01*
X143960952Y-107824819D02*
X144627618Y-107824819D01*
X144627618Y-107824819D02*
X144199047Y-108824819D01*
X145008571Y-108824819D02*
X145008571Y-107824819D01*
X145579999Y-108824819D02*
X145151428Y-108253390D01*
X145579999Y-107824819D02*
X145008571Y-108396247D01*
X143913333Y-106454819D02*
X143580000Y-105978628D01*
X143341905Y-106454819D02*
X143341905Y-105454819D01*
X143341905Y-105454819D02*
X143722857Y-105454819D01*
X143722857Y-105454819D02*
X143818095Y-105502438D01*
X143818095Y-105502438D02*
X143865714Y-105550057D01*
X143865714Y-105550057D02*
X143913333Y-105645295D01*
X143913333Y-105645295D02*
X143913333Y-105788152D01*
X143913333Y-105788152D02*
X143865714Y-105883390D01*
X143865714Y-105883390D02*
X143818095Y-105931009D01*
X143818095Y-105931009D02*
X143722857Y-105978628D01*
X143722857Y-105978628D02*
X143341905Y-105978628D01*
X144770476Y-105454819D02*
X144580000Y-105454819D01*
X144580000Y-105454819D02*
X144484762Y-105502438D01*
X144484762Y-105502438D02*
X144437143Y-105550057D01*
X144437143Y-105550057D02*
X144341905Y-105692914D01*
X144341905Y-105692914D02*
X144294286Y-105883390D01*
X144294286Y-105883390D02*
X144294286Y-106264342D01*
X144294286Y-106264342D02*
X144341905Y-106359580D01*
X144341905Y-106359580D02*
X144389524Y-106407200D01*
X144389524Y-106407200D02*
X144484762Y-106454819D01*
X144484762Y-106454819D02*
X144675238Y-106454819D01*
X144675238Y-106454819D02*
X144770476Y-106407200D01*
X144770476Y-106407200D02*
X144818095Y-106359580D01*
X144818095Y-106359580D02*
X144865714Y-106264342D01*
X144865714Y-106264342D02*
X144865714Y-106026247D01*
X144865714Y-106026247D02*
X144818095Y-105931009D01*
X144818095Y-105931009D02*
X144770476Y-105883390D01*
X144770476Y-105883390D02*
X144675238Y-105835771D01*
X144675238Y-105835771D02*
X144484762Y-105835771D01*
X144484762Y-105835771D02*
X144389524Y-105883390D01*
X144389524Y-105883390D02*
X144341905Y-105931009D01*
X144341905Y-105931009D02*
X144294286Y-106026247D01*
X116497619Y-54154819D02*
X116497619Y-53154819D01*
X116497619Y-53631009D02*
X117069047Y-53631009D01*
X117069047Y-54154819D02*
X117069047Y-53154819D01*
X117926190Y-54107200D02*
X117830952Y-54154819D01*
X117830952Y-54154819D02*
X117640476Y-54154819D01*
X117640476Y-54154819D02*
X117545238Y-54107200D01*
X117545238Y-54107200D02*
X117497619Y-54011961D01*
X117497619Y-54011961D02*
X117497619Y-53631009D01*
X117497619Y-53631009D02*
X117545238Y-53535771D01*
X117545238Y-53535771D02*
X117640476Y-53488152D01*
X117640476Y-53488152D02*
X117830952Y-53488152D01*
X117830952Y-53488152D02*
X117926190Y-53535771D01*
X117926190Y-53535771D02*
X117973809Y-53631009D01*
X117973809Y-53631009D02*
X117973809Y-53726247D01*
X117973809Y-53726247D02*
X117497619Y-53821485D01*
X118830952Y-54154819D02*
X118830952Y-53631009D01*
X118830952Y-53631009D02*
X118783333Y-53535771D01*
X118783333Y-53535771D02*
X118688095Y-53488152D01*
X118688095Y-53488152D02*
X118497619Y-53488152D01*
X118497619Y-53488152D02*
X118402381Y-53535771D01*
X118830952Y-54107200D02*
X118735714Y-54154819D01*
X118735714Y-54154819D02*
X118497619Y-54154819D01*
X118497619Y-54154819D02*
X118402381Y-54107200D01*
X118402381Y-54107200D02*
X118354762Y-54011961D01*
X118354762Y-54011961D02*
X118354762Y-53916723D01*
X118354762Y-53916723D02*
X118402381Y-53821485D01*
X118402381Y-53821485D02*
X118497619Y-53773866D01*
X118497619Y-53773866D02*
X118735714Y-53773866D01*
X118735714Y-53773866D02*
X118830952Y-53726247D01*
X119164286Y-53488152D02*
X119545238Y-53488152D01*
X119307143Y-53154819D02*
X119307143Y-54011961D01*
X119307143Y-54011961D02*
X119354762Y-54107200D01*
X119354762Y-54107200D02*
X119450000Y-54154819D01*
X119450000Y-54154819D02*
X119545238Y-54154819D01*
X119830953Y-54107200D02*
X119926191Y-54154819D01*
X119926191Y-54154819D02*
X120116667Y-54154819D01*
X120116667Y-54154819D02*
X120211905Y-54107200D01*
X120211905Y-54107200D02*
X120259524Y-54011961D01*
X120259524Y-54011961D02*
X120259524Y-53964342D01*
X120259524Y-53964342D02*
X120211905Y-53869104D01*
X120211905Y-53869104D02*
X120116667Y-53821485D01*
X120116667Y-53821485D02*
X119973810Y-53821485D01*
X119973810Y-53821485D02*
X119878572Y-53773866D01*
X119878572Y-53773866D02*
X119830953Y-53678628D01*
X119830953Y-53678628D02*
X119830953Y-53631009D01*
X119830953Y-53631009D02*
X119878572Y-53535771D01*
X119878572Y-53535771D02*
X119973810Y-53488152D01*
X119973810Y-53488152D02*
X120116667Y-53488152D01*
X120116667Y-53488152D02*
X120211905Y-53535771D01*
X120688096Y-54154819D02*
X120688096Y-53488152D01*
X120688096Y-53154819D02*
X120640477Y-53202438D01*
X120640477Y-53202438D02*
X120688096Y-53250057D01*
X120688096Y-53250057D02*
X120735715Y-53202438D01*
X120735715Y-53202438D02*
X120688096Y-53154819D01*
X120688096Y-53154819D02*
X120688096Y-53250057D01*
X121164286Y-53488152D02*
X121164286Y-54154819D01*
X121164286Y-53583390D02*
X121211905Y-53535771D01*
X121211905Y-53535771D02*
X121307143Y-53488152D01*
X121307143Y-53488152D02*
X121450000Y-53488152D01*
X121450000Y-53488152D02*
X121545238Y-53535771D01*
X121545238Y-53535771D02*
X121592857Y-53631009D01*
X121592857Y-53631009D02*
X121592857Y-54154819D01*
X122069048Y-54154819D02*
X122069048Y-53154819D01*
X122164286Y-53773866D02*
X122450000Y-54154819D01*
X122450000Y-53488152D02*
X122069048Y-53869104D01*
X118211905Y-55654819D02*
X118211905Y-54654819D01*
X118211905Y-55131009D02*
X118783333Y-55131009D01*
X118783333Y-55654819D02*
X118783333Y-54654819D01*
X119211905Y-55607200D02*
X119354762Y-55654819D01*
X119354762Y-55654819D02*
X119592857Y-55654819D01*
X119592857Y-55654819D02*
X119688095Y-55607200D01*
X119688095Y-55607200D02*
X119735714Y-55559580D01*
X119735714Y-55559580D02*
X119783333Y-55464342D01*
X119783333Y-55464342D02*
X119783333Y-55369104D01*
X119783333Y-55369104D02*
X119735714Y-55273866D01*
X119735714Y-55273866D02*
X119688095Y-55226247D01*
X119688095Y-55226247D02*
X119592857Y-55178628D01*
X119592857Y-55178628D02*
X119402381Y-55131009D01*
X119402381Y-55131009D02*
X119307143Y-55083390D01*
X119307143Y-55083390D02*
X119259524Y-55035771D01*
X119259524Y-55035771D02*
X119211905Y-54940533D01*
X119211905Y-54940533D02*
X119211905Y-54845295D01*
X119211905Y-54845295D02*
X119259524Y-54750057D01*
X119259524Y-54750057D02*
X119307143Y-54702438D01*
X119307143Y-54702438D02*
X119402381Y-54654819D01*
X119402381Y-54654819D02*
X119640476Y-54654819D01*
X119640476Y-54654819D02*
X119783333Y-54702438D01*
X120735714Y-55654819D02*
X120164286Y-55654819D01*
X120450000Y-55654819D02*
X120450000Y-54654819D01*
X120450000Y-54654819D02*
X120354762Y-54797676D01*
X120354762Y-54797676D02*
X120259524Y-54892914D01*
X120259524Y-54892914D02*
X120164286Y-54940533D01*
X137664819Y-101579523D02*
X136664819Y-101579523D01*
X136664819Y-101579523D02*
X137664819Y-101008095D01*
X137664819Y-101008095D02*
X136664819Y-101008095D01*
X137664819Y-100531904D02*
X136664819Y-100531904D01*
X136664819Y-100531904D02*
X136664819Y-100150952D01*
X136664819Y-100150952D02*
X136712438Y-100055714D01*
X136712438Y-100055714D02*
X136760057Y-100008095D01*
X136760057Y-100008095D02*
X136855295Y-99960476D01*
X136855295Y-99960476D02*
X136998152Y-99960476D01*
X136998152Y-99960476D02*
X137093390Y-100008095D01*
X137093390Y-100008095D02*
X137141009Y-100055714D01*
X137141009Y-100055714D02*
X137188628Y-100150952D01*
X137188628Y-100150952D02*
X137188628Y-100531904D01*
X137664819Y-99531904D02*
X136664819Y-99531904D01*
X136664819Y-99531904D02*
X137664819Y-98960476D01*
X137664819Y-98960476D02*
X136664819Y-98960476D01*
X140550057Y-100365238D02*
X140502438Y-100460476D01*
X140502438Y-100460476D02*
X140407200Y-100555714D01*
X140407200Y-100555714D02*
X140264342Y-100698571D01*
X140264342Y-100698571D02*
X140216723Y-100793809D01*
X140216723Y-100793809D02*
X140216723Y-100889047D01*
X140454819Y-100841428D02*
X140407200Y-100936666D01*
X140407200Y-100936666D02*
X140311961Y-101031904D01*
X140311961Y-101031904D02*
X140121485Y-101079523D01*
X140121485Y-101079523D02*
X139788152Y-101079523D01*
X139788152Y-101079523D02*
X139597676Y-101031904D01*
X139597676Y-101031904D02*
X139502438Y-100936666D01*
X139502438Y-100936666D02*
X139454819Y-100841428D01*
X139454819Y-100841428D02*
X139454819Y-100650952D01*
X139454819Y-100650952D02*
X139502438Y-100555714D01*
X139502438Y-100555714D02*
X139597676Y-100460476D01*
X139597676Y-100460476D02*
X139788152Y-100412857D01*
X139788152Y-100412857D02*
X140121485Y-100412857D01*
X140121485Y-100412857D02*
X140311961Y-100460476D01*
X140311961Y-100460476D02*
X140407200Y-100555714D01*
X140407200Y-100555714D02*
X140454819Y-100650952D01*
X140454819Y-100650952D02*
X140454819Y-100841428D01*
X139454819Y-100079523D02*
X139454819Y-99460476D01*
X139454819Y-99460476D02*
X139835771Y-99793809D01*
X139835771Y-99793809D02*
X139835771Y-99650952D01*
X139835771Y-99650952D02*
X139883390Y-99555714D01*
X139883390Y-99555714D02*
X139931009Y-99508095D01*
X139931009Y-99508095D02*
X140026247Y-99460476D01*
X140026247Y-99460476D02*
X140264342Y-99460476D01*
X140264342Y-99460476D02*
X140359580Y-99508095D01*
X140359580Y-99508095D02*
X140407200Y-99555714D01*
X140407200Y-99555714D02*
X140454819Y-99650952D01*
X140454819Y-99650952D02*
X140454819Y-99936666D01*
X140454819Y-99936666D02*
X140407200Y-100031904D01*
X140407200Y-100031904D02*
X140359580Y-100079523D01*
X110414819Y-47372857D02*
X110414819Y-47849047D01*
X110414819Y-47849047D02*
X109414819Y-47849047D01*
X109891009Y-47039523D02*
X109891009Y-46706190D01*
X110414819Y-46563333D02*
X110414819Y-47039523D01*
X110414819Y-47039523D02*
X109414819Y-47039523D01*
X109414819Y-47039523D02*
X109414819Y-46563333D01*
X110414819Y-46134761D02*
X109414819Y-46134761D01*
X109414819Y-46134761D02*
X109414819Y-45896666D01*
X109414819Y-45896666D02*
X109462438Y-45753809D01*
X109462438Y-45753809D02*
X109557676Y-45658571D01*
X109557676Y-45658571D02*
X109652914Y-45610952D01*
X109652914Y-45610952D02*
X109843390Y-45563333D01*
X109843390Y-45563333D02*
X109986247Y-45563333D01*
X109986247Y-45563333D02*
X110176723Y-45610952D01*
X110176723Y-45610952D02*
X110271961Y-45658571D01*
X110271961Y-45658571D02*
X110367200Y-45753809D01*
X110367200Y-45753809D02*
X110414819Y-45896666D01*
X110414819Y-45896666D02*
X110414819Y-46134761D01*
X172214285Y-151654819D02*
X172214285Y-150654819D01*
X172214285Y-150654819D02*
X172547618Y-151369104D01*
X172547618Y-151369104D02*
X172880951Y-150654819D01*
X172880951Y-150654819D02*
X172880951Y-151654819D01*
X173499999Y-151654819D02*
X173404761Y-151607200D01*
X173404761Y-151607200D02*
X173357142Y-151559580D01*
X173357142Y-151559580D02*
X173309523Y-151464342D01*
X173309523Y-151464342D02*
X173309523Y-151178628D01*
X173309523Y-151178628D02*
X173357142Y-151083390D01*
X173357142Y-151083390D02*
X173404761Y-151035771D01*
X173404761Y-151035771D02*
X173499999Y-150988152D01*
X173499999Y-150988152D02*
X173642856Y-150988152D01*
X173642856Y-150988152D02*
X173738094Y-151035771D01*
X173738094Y-151035771D02*
X173785713Y-151083390D01*
X173785713Y-151083390D02*
X173833332Y-151178628D01*
X173833332Y-151178628D02*
X173833332Y-151464342D01*
X173833332Y-151464342D02*
X173785713Y-151559580D01*
X173785713Y-151559580D02*
X173738094Y-151607200D01*
X173738094Y-151607200D02*
X173642856Y-151654819D01*
X173642856Y-151654819D02*
X173499999Y-151654819D01*
X174690475Y-150988152D02*
X174690475Y-151654819D01*
X174261904Y-150988152D02*
X174261904Y-151511961D01*
X174261904Y-151511961D02*
X174309523Y-151607200D01*
X174309523Y-151607200D02*
X174404761Y-151654819D01*
X174404761Y-151654819D02*
X174547618Y-151654819D01*
X174547618Y-151654819D02*
X174642856Y-151607200D01*
X174642856Y-151607200D02*
X174690475Y-151559580D01*
X175166666Y-150988152D02*
X175166666Y-151654819D01*
X175166666Y-151083390D02*
X175214285Y-151035771D01*
X175214285Y-151035771D02*
X175309523Y-150988152D01*
X175309523Y-150988152D02*
X175452380Y-150988152D01*
X175452380Y-150988152D02*
X175547618Y-151035771D01*
X175547618Y-151035771D02*
X175595237Y-151131009D01*
X175595237Y-151131009D02*
X175595237Y-151654819D01*
X175928571Y-150988152D02*
X176309523Y-150988152D01*
X176071428Y-150654819D02*
X176071428Y-151511961D01*
X176071428Y-151511961D02*
X176119047Y-151607200D01*
X176119047Y-151607200D02*
X176214285Y-151654819D01*
X176214285Y-151654819D02*
X176309523Y-151654819D01*
X176642857Y-151654819D02*
X176642857Y-150988152D01*
X176642857Y-150654819D02*
X176595238Y-150702438D01*
X176595238Y-150702438D02*
X176642857Y-150750057D01*
X176642857Y-150750057D02*
X176690476Y-150702438D01*
X176690476Y-150702438D02*
X176642857Y-150654819D01*
X176642857Y-150654819D02*
X176642857Y-150750057D01*
X177119047Y-150988152D02*
X177119047Y-151654819D01*
X177119047Y-151083390D02*
X177166666Y-151035771D01*
X177166666Y-151035771D02*
X177261904Y-150988152D01*
X177261904Y-150988152D02*
X177404761Y-150988152D01*
X177404761Y-150988152D02*
X177499999Y-151035771D01*
X177499999Y-151035771D02*
X177547618Y-151131009D01*
X177547618Y-151131009D02*
X177547618Y-151654819D01*
X178452380Y-150988152D02*
X178452380Y-151797676D01*
X178452380Y-151797676D02*
X178404761Y-151892914D01*
X178404761Y-151892914D02*
X178357142Y-151940533D01*
X178357142Y-151940533D02*
X178261904Y-151988152D01*
X178261904Y-151988152D02*
X178119047Y-151988152D01*
X178119047Y-151988152D02*
X178023809Y-151940533D01*
X178452380Y-151607200D02*
X178357142Y-151654819D01*
X178357142Y-151654819D02*
X178166666Y-151654819D01*
X178166666Y-151654819D02*
X178071428Y-151607200D01*
X178071428Y-151607200D02*
X178023809Y-151559580D01*
X178023809Y-151559580D02*
X177976190Y-151464342D01*
X177976190Y-151464342D02*
X177976190Y-151178628D01*
X177976190Y-151178628D02*
X178023809Y-151083390D01*
X178023809Y-151083390D02*
X178071428Y-151035771D01*
X178071428Y-151035771D02*
X178166666Y-150988152D01*
X178166666Y-150988152D02*
X178357142Y-150988152D01*
X178357142Y-150988152D02*
X178452380Y-151035771D01*
X178928571Y-151654819D02*
X178928571Y-150654819D01*
X178928571Y-151131009D02*
X179499999Y-151131009D01*
X179499999Y-151654819D02*
X179499999Y-150654819D01*
X180119047Y-151654819D02*
X180023809Y-151607200D01*
X180023809Y-151607200D02*
X179976190Y-151559580D01*
X179976190Y-151559580D02*
X179928571Y-151464342D01*
X179928571Y-151464342D02*
X179928571Y-151178628D01*
X179928571Y-151178628D02*
X179976190Y-151083390D01*
X179976190Y-151083390D02*
X180023809Y-151035771D01*
X180023809Y-151035771D02*
X180119047Y-150988152D01*
X180119047Y-150988152D02*
X180261904Y-150988152D01*
X180261904Y-150988152D02*
X180357142Y-151035771D01*
X180357142Y-151035771D02*
X180404761Y-151083390D01*
X180404761Y-151083390D02*
X180452380Y-151178628D01*
X180452380Y-151178628D02*
X180452380Y-151464342D01*
X180452380Y-151464342D02*
X180404761Y-151559580D01*
X180404761Y-151559580D02*
X180357142Y-151607200D01*
X180357142Y-151607200D02*
X180261904Y-151654819D01*
X180261904Y-151654819D02*
X180119047Y-151654819D01*
X181023809Y-151654819D02*
X180928571Y-151607200D01*
X180928571Y-151607200D02*
X180880952Y-151511961D01*
X180880952Y-151511961D02*
X180880952Y-150654819D01*
X181785714Y-151607200D02*
X181690476Y-151654819D01*
X181690476Y-151654819D02*
X181500000Y-151654819D01*
X181500000Y-151654819D02*
X181404762Y-151607200D01*
X181404762Y-151607200D02*
X181357143Y-151511961D01*
X181357143Y-151511961D02*
X181357143Y-151131009D01*
X181357143Y-151131009D02*
X181404762Y-151035771D01*
X181404762Y-151035771D02*
X181500000Y-150988152D01*
X181500000Y-150988152D02*
X181690476Y-150988152D01*
X181690476Y-150988152D02*
X181785714Y-151035771D01*
X181785714Y-151035771D02*
X181833333Y-151131009D01*
X181833333Y-151131009D02*
X181833333Y-151226247D01*
X181833333Y-151226247D02*
X181357143Y-151321485D01*
X176238095Y-147454819D02*
X176238095Y-146454819D01*
X176238095Y-146931009D02*
X176809523Y-146931009D01*
X176809523Y-147454819D02*
X176809523Y-146454819D01*
X177714285Y-146788152D02*
X177714285Y-147454819D01*
X177476190Y-146407200D02*
X177238095Y-147121485D01*
X177238095Y-147121485D02*
X177857142Y-147121485D01*
X146824819Y-61205713D02*
X146824819Y-60586666D01*
X146824819Y-60586666D02*
X147205771Y-60919999D01*
X147205771Y-60919999D02*
X147205771Y-60777142D01*
X147205771Y-60777142D02*
X147253390Y-60681904D01*
X147253390Y-60681904D02*
X147301009Y-60634285D01*
X147301009Y-60634285D02*
X147396247Y-60586666D01*
X147396247Y-60586666D02*
X147634342Y-60586666D01*
X147634342Y-60586666D02*
X147729580Y-60634285D01*
X147729580Y-60634285D02*
X147777200Y-60681904D01*
X147777200Y-60681904D02*
X147824819Y-60777142D01*
X147824819Y-60777142D02*
X147824819Y-61062856D01*
X147824819Y-61062856D02*
X147777200Y-61158094D01*
X147777200Y-61158094D02*
X147729580Y-61205713D01*
X147824819Y-60110475D02*
X147824819Y-59919999D01*
X147824819Y-59919999D02*
X147777200Y-59824761D01*
X147777200Y-59824761D02*
X147729580Y-59777142D01*
X147729580Y-59777142D02*
X147586723Y-59681904D01*
X147586723Y-59681904D02*
X147396247Y-59634285D01*
X147396247Y-59634285D02*
X147015295Y-59634285D01*
X147015295Y-59634285D02*
X146920057Y-59681904D01*
X146920057Y-59681904D02*
X146872438Y-59729523D01*
X146872438Y-59729523D02*
X146824819Y-59824761D01*
X146824819Y-59824761D02*
X146824819Y-60015237D01*
X146824819Y-60015237D02*
X146872438Y-60110475D01*
X146872438Y-60110475D02*
X146920057Y-60158094D01*
X146920057Y-60158094D02*
X147015295Y-60205713D01*
X147015295Y-60205713D02*
X147253390Y-60205713D01*
X147253390Y-60205713D02*
X147348628Y-60158094D01*
X147348628Y-60158094D02*
X147396247Y-60110475D01*
X147396247Y-60110475D02*
X147443866Y-60015237D01*
X147443866Y-60015237D02*
X147443866Y-59824761D01*
X147443866Y-59824761D02*
X147396247Y-59729523D01*
X147396247Y-59729523D02*
X147348628Y-59681904D01*
X147348628Y-59681904D02*
X147253390Y-59634285D01*
X146824819Y-59015237D02*
X146824819Y-58919999D01*
X146824819Y-58919999D02*
X146872438Y-58824761D01*
X146872438Y-58824761D02*
X146920057Y-58777142D01*
X146920057Y-58777142D02*
X147015295Y-58729523D01*
X147015295Y-58729523D02*
X147205771Y-58681904D01*
X147205771Y-58681904D02*
X147443866Y-58681904D01*
X147443866Y-58681904D02*
X147634342Y-58729523D01*
X147634342Y-58729523D02*
X147729580Y-58777142D01*
X147729580Y-58777142D02*
X147777200Y-58824761D01*
X147777200Y-58824761D02*
X147824819Y-58919999D01*
X147824819Y-58919999D02*
X147824819Y-59015237D01*
X147824819Y-59015237D02*
X147777200Y-59110475D01*
X147777200Y-59110475D02*
X147729580Y-59158094D01*
X147729580Y-59158094D02*
X147634342Y-59205713D01*
X147634342Y-59205713D02*
X147443866Y-59253332D01*
X147443866Y-59253332D02*
X147205771Y-59253332D01*
X147205771Y-59253332D02*
X147015295Y-59205713D01*
X147015295Y-59205713D02*
X146920057Y-59158094D01*
X146920057Y-59158094D02*
X146872438Y-59110475D01*
X146872438Y-59110475D02*
X146824819Y-59015237D01*
X145454819Y-60562857D02*
X144978628Y-60896190D01*
X145454819Y-61134285D02*
X144454819Y-61134285D01*
X144454819Y-61134285D02*
X144454819Y-60753333D01*
X144454819Y-60753333D02*
X144502438Y-60658095D01*
X144502438Y-60658095D02*
X144550057Y-60610476D01*
X144550057Y-60610476D02*
X144645295Y-60562857D01*
X144645295Y-60562857D02*
X144788152Y-60562857D01*
X144788152Y-60562857D02*
X144883390Y-60610476D01*
X144883390Y-60610476D02*
X144931009Y-60658095D01*
X144931009Y-60658095D02*
X144978628Y-60753333D01*
X144978628Y-60753333D02*
X144978628Y-61134285D01*
X145454819Y-59610476D02*
X145454819Y-60181904D01*
X145454819Y-59896190D02*
X144454819Y-59896190D01*
X144454819Y-59896190D02*
X144597676Y-59991428D01*
X144597676Y-59991428D02*
X144692914Y-60086666D01*
X144692914Y-60086666D02*
X144740533Y-60181904D01*
X144454819Y-58753333D02*
X144454819Y-58943809D01*
X144454819Y-58943809D02*
X144502438Y-59039047D01*
X144502438Y-59039047D02*
X144550057Y-59086666D01*
X144550057Y-59086666D02*
X144692914Y-59181904D01*
X144692914Y-59181904D02*
X144883390Y-59229523D01*
X144883390Y-59229523D02*
X145264342Y-59229523D01*
X145264342Y-59229523D02*
X145359580Y-59181904D01*
X145359580Y-59181904D02*
X145407200Y-59134285D01*
X145407200Y-59134285D02*
X145454819Y-59039047D01*
X145454819Y-59039047D02*
X145454819Y-58848571D01*
X145454819Y-58848571D02*
X145407200Y-58753333D01*
X145407200Y-58753333D02*
X145359580Y-58705714D01*
X145359580Y-58705714D02*
X145264342Y-58658095D01*
X145264342Y-58658095D02*
X145026247Y-58658095D01*
X145026247Y-58658095D02*
X144931009Y-58705714D01*
X144931009Y-58705714D02*
X144883390Y-58753333D01*
X144883390Y-58753333D02*
X144835771Y-58848571D01*
X144835771Y-58848571D02*
X144835771Y-59039047D01*
X144835771Y-59039047D02*
X144883390Y-59134285D01*
X144883390Y-59134285D02*
X144931009Y-59181904D01*
X144931009Y-59181904D02*
X145026247Y-59229523D01*
X154664819Y-101579523D02*
X153664819Y-101579523D01*
X153664819Y-101579523D02*
X154664819Y-101008095D01*
X154664819Y-101008095D02*
X153664819Y-101008095D01*
X154664819Y-100531904D02*
X153664819Y-100531904D01*
X153664819Y-100531904D02*
X153664819Y-100150952D01*
X153664819Y-100150952D02*
X153712438Y-100055714D01*
X153712438Y-100055714D02*
X153760057Y-100008095D01*
X153760057Y-100008095D02*
X153855295Y-99960476D01*
X153855295Y-99960476D02*
X153998152Y-99960476D01*
X153998152Y-99960476D02*
X154093390Y-100008095D01*
X154093390Y-100008095D02*
X154141009Y-100055714D01*
X154141009Y-100055714D02*
X154188628Y-100150952D01*
X154188628Y-100150952D02*
X154188628Y-100531904D01*
X154664819Y-99531904D02*
X153664819Y-99531904D01*
X153664819Y-99531904D02*
X154664819Y-98960476D01*
X154664819Y-98960476D02*
X153664819Y-98960476D01*
X157550057Y-100365238D02*
X157502438Y-100460476D01*
X157502438Y-100460476D02*
X157407200Y-100555714D01*
X157407200Y-100555714D02*
X157264342Y-100698571D01*
X157264342Y-100698571D02*
X157216723Y-100793809D01*
X157216723Y-100793809D02*
X157216723Y-100889047D01*
X157454819Y-100841428D02*
X157407200Y-100936666D01*
X157407200Y-100936666D02*
X157311961Y-101031904D01*
X157311961Y-101031904D02*
X157121485Y-101079523D01*
X157121485Y-101079523D02*
X156788152Y-101079523D01*
X156788152Y-101079523D02*
X156597676Y-101031904D01*
X156597676Y-101031904D02*
X156502438Y-100936666D01*
X156502438Y-100936666D02*
X156454819Y-100841428D01*
X156454819Y-100841428D02*
X156454819Y-100650952D01*
X156454819Y-100650952D02*
X156502438Y-100555714D01*
X156502438Y-100555714D02*
X156597676Y-100460476D01*
X156597676Y-100460476D02*
X156788152Y-100412857D01*
X156788152Y-100412857D02*
X157121485Y-100412857D01*
X157121485Y-100412857D02*
X157311961Y-100460476D01*
X157311961Y-100460476D02*
X157407200Y-100555714D01*
X157407200Y-100555714D02*
X157454819Y-100650952D01*
X157454819Y-100650952D02*
X157454819Y-100841428D01*
X156454819Y-100079523D02*
X156454819Y-99412857D01*
X156454819Y-99412857D02*
X157454819Y-99841428D01*
X164039046Y-29699580D02*
X163991427Y-29747200D01*
X163991427Y-29747200D02*
X163848570Y-29794819D01*
X163848570Y-29794819D02*
X163753332Y-29794819D01*
X163753332Y-29794819D02*
X163610475Y-29747200D01*
X163610475Y-29747200D02*
X163515237Y-29651961D01*
X163515237Y-29651961D02*
X163467618Y-29556723D01*
X163467618Y-29556723D02*
X163419999Y-29366247D01*
X163419999Y-29366247D02*
X163419999Y-29223390D01*
X163419999Y-29223390D02*
X163467618Y-29032914D01*
X163467618Y-29032914D02*
X163515237Y-28937676D01*
X163515237Y-28937676D02*
X163610475Y-28842438D01*
X163610475Y-28842438D02*
X163753332Y-28794819D01*
X163753332Y-28794819D02*
X163848570Y-28794819D01*
X163848570Y-28794819D02*
X163991427Y-28842438D01*
X163991427Y-28842438D02*
X164039046Y-28890057D01*
X164610475Y-29794819D02*
X164515237Y-29747200D01*
X164515237Y-29747200D02*
X164467618Y-29699580D01*
X164467618Y-29699580D02*
X164419999Y-29604342D01*
X164419999Y-29604342D02*
X164419999Y-29318628D01*
X164419999Y-29318628D02*
X164467618Y-29223390D01*
X164467618Y-29223390D02*
X164515237Y-29175771D01*
X164515237Y-29175771D02*
X164610475Y-29128152D01*
X164610475Y-29128152D02*
X164753332Y-29128152D01*
X164753332Y-29128152D02*
X164848570Y-29175771D01*
X164848570Y-29175771D02*
X164896189Y-29223390D01*
X164896189Y-29223390D02*
X164943808Y-29318628D01*
X164943808Y-29318628D02*
X164943808Y-29604342D01*
X164943808Y-29604342D02*
X164896189Y-29699580D01*
X164896189Y-29699580D02*
X164848570Y-29747200D01*
X164848570Y-29747200D02*
X164753332Y-29794819D01*
X164753332Y-29794819D02*
X164610475Y-29794819D01*
X165372380Y-29128152D02*
X165372380Y-29794819D01*
X165372380Y-29223390D02*
X165419999Y-29175771D01*
X165419999Y-29175771D02*
X165515237Y-29128152D01*
X165515237Y-29128152D02*
X165658094Y-29128152D01*
X165658094Y-29128152D02*
X165753332Y-29175771D01*
X165753332Y-29175771D02*
X165800951Y-29271009D01*
X165800951Y-29271009D02*
X165800951Y-29794819D01*
X166277142Y-29128152D02*
X166277142Y-29794819D01*
X166277142Y-29223390D02*
X166324761Y-29175771D01*
X166324761Y-29175771D02*
X166419999Y-29128152D01*
X166419999Y-29128152D02*
X166562856Y-29128152D01*
X166562856Y-29128152D02*
X166658094Y-29175771D01*
X166658094Y-29175771D02*
X166705713Y-29271009D01*
X166705713Y-29271009D02*
X166705713Y-29794819D01*
X166943809Y-29890057D02*
X167705713Y-29890057D01*
X167943809Y-29128152D02*
X167943809Y-29794819D01*
X167943809Y-29223390D02*
X167991428Y-29175771D01*
X167991428Y-29175771D02*
X168086666Y-29128152D01*
X168086666Y-29128152D02*
X168229523Y-29128152D01*
X168229523Y-29128152D02*
X168324761Y-29175771D01*
X168324761Y-29175771D02*
X168372380Y-29271009D01*
X168372380Y-29271009D02*
X168372380Y-29794819D01*
X169229523Y-29747200D02*
X169134285Y-29794819D01*
X169134285Y-29794819D02*
X168943809Y-29794819D01*
X168943809Y-29794819D02*
X168848571Y-29747200D01*
X168848571Y-29747200D02*
X168800952Y-29651961D01*
X168800952Y-29651961D02*
X168800952Y-29271009D01*
X168800952Y-29271009D02*
X168848571Y-29175771D01*
X168848571Y-29175771D02*
X168943809Y-29128152D01*
X168943809Y-29128152D02*
X169134285Y-29128152D01*
X169134285Y-29128152D02*
X169229523Y-29175771D01*
X169229523Y-29175771D02*
X169277142Y-29271009D01*
X169277142Y-29271009D02*
X169277142Y-29366247D01*
X169277142Y-29366247D02*
X168800952Y-29461485D01*
X169848571Y-29794819D02*
X169753333Y-29747200D01*
X169753333Y-29747200D02*
X169705714Y-29699580D01*
X169705714Y-29699580D02*
X169658095Y-29604342D01*
X169658095Y-29604342D02*
X169658095Y-29318628D01*
X169658095Y-29318628D02*
X169705714Y-29223390D01*
X169705714Y-29223390D02*
X169753333Y-29175771D01*
X169753333Y-29175771D02*
X169848571Y-29128152D01*
X169848571Y-29128152D02*
X169991428Y-29128152D01*
X169991428Y-29128152D02*
X170086666Y-29175771D01*
X170086666Y-29175771D02*
X170134285Y-29223390D01*
X170134285Y-29223390D02*
X170181904Y-29318628D01*
X170181904Y-29318628D02*
X170181904Y-29604342D01*
X170181904Y-29604342D02*
X170134285Y-29699580D01*
X170134285Y-29699580D02*
X170086666Y-29747200D01*
X170086666Y-29747200D02*
X169991428Y-29794819D01*
X169991428Y-29794819D02*
X169848571Y-29794819D01*
X170610476Y-29128152D02*
X170610476Y-30128152D01*
X170610476Y-29175771D02*
X170705714Y-29128152D01*
X170705714Y-29128152D02*
X170896190Y-29128152D01*
X170896190Y-29128152D02*
X170991428Y-29175771D01*
X170991428Y-29175771D02*
X171039047Y-29223390D01*
X171039047Y-29223390D02*
X171086666Y-29318628D01*
X171086666Y-29318628D02*
X171086666Y-29604342D01*
X171086666Y-29604342D02*
X171039047Y-29699580D01*
X171039047Y-29699580D02*
X170991428Y-29747200D01*
X170991428Y-29747200D02*
X170896190Y-29794819D01*
X170896190Y-29794819D02*
X170705714Y-29794819D01*
X170705714Y-29794819D02*
X170610476Y-29747200D01*
X171515238Y-29794819D02*
X171515238Y-29128152D01*
X171515238Y-28794819D02*
X171467619Y-28842438D01*
X171467619Y-28842438D02*
X171515238Y-28890057D01*
X171515238Y-28890057D02*
X171562857Y-28842438D01*
X171562857Y-28842438D02*
X171515238Y-28794819D01*
X171515238Y-28794819D02*
X171515238Y-28890057D01*
X171896190Y-29794819D02*
X172419999Y-29128152D01*
X171896190Y-29128152D02*
X172419999Y-29794819D01*
X173181904Y-29747200D02*
X173086666Y-29794819D01*
X173086666Y-29794819D02*
X172896190Y-29794819D01*
X172896190Y-29794819D02*
X172800952Y-29747200D01*
X172800952Y-29747200D02*
X172753333Y-29651961D01*
X172753333Y-29651961D02*
X172753333Y-29271009D01*
X172753333Y-29271009D02*
X172800952Y-29175771D01*
X172800952Y-29175771D02*
X172896190Y-29128152D01*
X172896190Y-29128152D02*
X173086666Y-29128152D01*
X173086666Y-29128152D02*
X173181904Y-29175771D01*
X173181904Y-29175771D02*
X173229523Y-29271009D01*
X173229523Y-29271009D02*
X173229523Y-29366247D01*
X173229523Y-29366247D02*
X172753333Y-29461485D01*
X173800952Y-29794819D02*
X173705714Y-29747200D01*
X173705714Y-29747200D02*
X173658095Y-29651961D01*
X173658095Y-29651961D02*
X173658095Y-28794819D01*
X173943810Y-29890057D02*
X174705714Y-29890057D01*
X175134286Y-28794819D02*
X175229524Y-28794819D01*
X175229524Y-28794819D02*
X175324762Y-28842438D01*
X175324762Y-28842438D02*
X175372381Y-28890057D01*
X175372381Y-28890057D02*
X175420000Y-28985295D01*
X175420000Y-28985295D02*
X175467619Y-29175771D01*
X175467619Y-29175771D02*
X175467619Y-29413866D01*
X175467619Y-29413866D02*
X175420000Y-29604342D01*
X175420000Y-29604342D02*
X175372381Y-29699580D01*
X175372381Y-29699580D02*
X175324762Y-29747200D01*
X175324762Y-29747200D02*
X175229524Y-29794819D01*
X175229524Y-29794819D02*
X175134286Y-29794819D01*
X175134286Y-29794819D02*
X175039048Y-29747200D01*
X175039048Y-29747200D02*
X174991429Y-29699580D01*
X174991429Y-29699580D02*
X174943810Y-29604342D01*
X174943810Y-29604342D02*
X174896191Y-29413866D01*
X174896191Y-29413866D02*
X174896191Y-29175771D01*
X174896191Y-29175771D02*
X174943810Y-28985295D01*
X174943810Y-28985295D02*
X174991429Y-28890057D01*
X174991429Y-28890057D02*
X175039048Y-28842438D01*
X175039048Y-28842438D02*
X175134286Y-28794819D01*
X176324762Y-29128152D02*
X176324762Y-29794819D01*
X176086667Y-28747200D02*
X175848572Y-29461485D01*
X175848572Y-29461485D02*
X176467619Y-29461485D01*
X169586666Y-31254819D02*
X169586666Y-31969104D01*
X169586666Y-31969104D02*
X169539047Y-32111961D01*
X169539047Y-32111961D02*
X169443809Y-32207200D01*
X169443809Y-32207200D02*
X169300952Y-32254819D01*
X169300952Y-32254819D02*
X169205714Y-32254819D01*
X170539047Y-31254819D02*
X170062857Y-31254819D01*
X170062857Y-31254819D02*
X170015238Y-31731009D01*
X170015238Y-31731009D02*
X170062857Y-31683390D01*
X170062857Y-31683390D02*
X170158095Y-31635771D01*
X170158095Y-31635771D02*
X170396190Y-31635771D01*
X170396190Y-31635771D02*
X170491428Y-31683390D01*
X170491428Y-31683390D02*
X170539047Y-31731009D01*
X170539047Y-31731009D02*
X170586666Y-31826247D01*
X170586666Y-31826247D02*
X170586666Y-32064342D01*
X170586666Y-32064342D02*
X170539047Y-32159580D01*
X170539047Y-32159580D02*
X170491428Y-32207200D01*
X170491428Y-32207200D02*
X170396190Y-32254819D01*
X170396190Y-32254819D02*
X170158095Y-32254819D01*
X170158095Y-32254819D02*
X170062857Y-32207200D01*
X170062857Y-32207200D02*
X170015238Y-32159580D01*
X123056190Y-100158152D02*
X123056190Y-100824819D01*
X122818095Y-99777200D02*
X122580000Y-100491485D01*
X122580000Y-100491485D02*
X123199047Y-100491485D01*
X123580000Y-100729580D02*
X123627619Y-100777200D01*
X123627619Y-100777200D02*
X123580000Y-100824819D01*
X123580000Y-100824819D02*
X123532381Y-100777200D01*
X123532381Y-100777200D02*
X123580000Y-100729580D01*
X123580000Y-100729580D02*
X123580000Y-100824819D01*
X123960952Y-99824819D02*
X124627618Y-99824819D01*
X124627618Y-99824819D02*
X124199047Y-100824819D01*
X125008571Y-100824819D02*
X125008571Y-99824819D01*
X125579999Y-100824819D02*
X125151428Y-100253390D01*
X125579999Y-99824819D02*
X125008571Y-100396247D01*
X123437142Y-98454819D02*
X123103809Y-97978628D01*
X122865714Y-98454819D02*
X122865714Y-97454819D01*
X122865714Y-97454819D02*
X123246666Y-97454819D01*
X123246666Y-97454819D02*
X123341904Y-97502438D01*
X123341904Y-97502438D02*
X123389523Y-97550057D01*
X123389523Y-97550057D02*
X123437142Y-97645295D01*
X123437142Y-97645295D02*
X123437142Y-97788152D01*
X123437142Y-97788152D02*
X123389523Y-97883390D01*
X123389523Y-97883390D02*
X123341904Y-97931009D01*
X123341904Y-97931009D02*
X123246666Y-97978628D01*
X123246666Y-97978628D02*
X122865714Y-97978628D01*
X124389523Y-98454819D02*
X123818095Y-98454819D01*
X124103809Y-98454819D02*
X124103809Y-97454819D01*
X124103809Y-97454819D02*
X124008571Y-97597676D01*
X124008571Y-97597676D02*
X123913333Y-97692914D01*
X123913333Y-97692914D02*
X123818095Y-97740533D01*
X125341904Y-98454819D02*
X124770476Y-98454819D01*
X125056190Y-98454819D02*
X125056190Y-97454819D01*
X125056190Y-97454819D02*
X124960952Y-97597676D01*
X124960952Y-97597676D02*
X124865714Y-97692914D01*
X124865714Y-97692914D02*
X124770476Y-97740533D01*
X156497619Y-54154819D02*
X156497619Y-53154819D01*
X156497619Y-53631009D02*
X157069047Y-53631009D01*
X157069047Y-54154819D02*
X157069047Y-53154819D01*
X157926190Y-54107200D02*
X157830952Y-54154819D01*
X157830952Y-54154819D02*
X157640476Y-54154819D01*
X157640476Y-54154819D02*
X157545238Y-54107200D01*
X157545238Y-54107200D02*
X157497619Y-54011961D01*
X157497619Y-54011961D02*
X157497619Y-53631009D01*
X157497619Y-53631009D02*
X157545238Y-53535771D01*
X157545238Y-53535771D02*
X157640476Y-53488152D01*
X157640476Y-53488152D02*
X157830952Y-53488152D01*
X157830952Y-53488152D02*
X157926190Y-53535771D01*
X157926190Y-53535771D02*
X157973809Y-53631009D01*
X157973809Y-53631009D02*
X157973809Y-53726247D01*
X157973809Y-53726247D02*
X157497619Y-53821485D01*
X158830952Y-54154819D02*
X158830952Y-53631009D01*
X158830952Y-53631009D02*
X158783333Y-53535771D01*
X158783333Y-53535771D02*
X158688095Y-53488152D01*
X158688095Y-53488152D02*
X158497619Y-53488152D01*
X158497619Y-53488152D02*
X158402381Y-53535771D01*
X158830952Y-54107200D02*
X158735714Y-54154819D01*
X158735714Y-54154819D02*
X158497619Y-54154819D01*
X158497619Y-54154819D02*
X158402381Y-54107200D01*
X158402381Y-54107200D02*
X158354762Y-54011961D01*
X158354762Y-54011961D02*
X158354762Y-53916723D01*
X158354762Y-53916723D02*
X158402381Y-53821485D01*
X158402381Y-53821485D02*
X158497619Y-53773866D01*
X158497619Y-53773866D02*
X158735714Y-53773866D01*
X158735714Y-53773866D02*
X158830952Y-53726247D01*
X159164286Y-53488152D02*
X159545238Y-53488152D01*
X159307143Y-53154819D02*
X159307143Y-54011961D01*
X159307143Y-54011961D02*
X159354762Y-54107200D01*
X159354762Y-54107200D02*
X159450000Y-54154819D01*
X159450000Y-54154819D02*
X159545238Y-54154819D01*
X159830953Y-54107200D02*
X159926191Y-54154819D01*
X159926191Y-54154819D02*
X160116667Y-54154819D01*
X160116667Y-54154819D02*
X160211905Y-54107200D01*
X160211905Y-54107200D02*
X160259524Y-54011961D01*
X160259524Y-54011961D02*
X160259524Y-53964342D01*
X160259524Y-53964342D02*
X160211905Y-53869104D01*
X160211905Y-53869104D02*
X160116667Y-53821485D01*
X160116667Y-53821485D02*
X159973810Y-53821485D01*
X159973810Y-53821485D02*
X159878572Y-53773866D01*
X159878572Y-53773866D02*
X159830953Y-53678628D01*
X159830953Y-53678628D02*
X159830953Y-53631009D01*
X159830953Y-53631009D02*
X159878572Y-53535771D01*
X159878572Y-53535771D02*
X159973810Y-53488152D01*
X159973810Y-53488152D02*
X160116667Y-53488152D01*
X160116667Y-53488152D02*
X160211905Y-53535771D01*
X160688096Y-54154819D02*
X160688096Y-53488152D01*
X160688096Y-53154819D02*
X160640477Y-53202438D01*
X160640477Y-53202438D02*
X160688096Y-53250057D01*
X160688096Y-53250057D02*
X160735715Y-53202438D01*
X160735715Y-53202438D02*
X160688096Y-53154819D01*
X160688096Y-53154819D02*
X160688096Y-53250057D01*
X161164286Y-53488152D02*
X161164286Y-54154819D01*
X161164286Y-53583390D02*
X161211905Y-53535771D01*
X161211905Y-53535771D02*
X161307143Y-53488152D01*
X161307143Y-53488152D02*
X161450000Y-53488152D01*
X161450000Y-53488152D02*
X161545238Y-53535771D01*
X161545238Y-53535771D02*
X161592857Y-53631009D01*
X161592857Y-53631009D02*
X161592857Y-54154819D01*
X162069048Y-54154819D02*
X162069048Y-53154819D01*
X162164286Y-53773866D02*
X162450000Y-54154819D01*
X162450000Y-53488152D02*
X162069048Y-53869104D01*
X158211905Y-55654819D02*
X158211905Y-54654819D01*
X158211905Y-55131009D02*
X158783333Y-55131009D01*
X158783333Y-55654819D02*
X158783333Y-54654819D01*
X159211905Y-55607200D02*
X159354762Y-55654819D01*
X159354762Y-55654819D02*
X159592857Y-55654819D01*
X159592857Y-55654819D02*
X159688095Y-55607200D01*
X159688095Y-55607200D02*
X159735714Y-55559580D01*
X159735714Y-55559580D02*
X159783333Y-55464342D01*
X159783333Y-55464342D02*
X159783333Y-55369104D01*
X159783333Y-55369104D02*
X159735714Y-55273866D01*
X159735714Y-55273866D02*
X159688095Y-55226247D01*
X159688095Y-55226247D02*
X159592857Y-55178628D01*
X159592857Y-55178628D02*
X159402381Y-55131009D01*
X159402381Y-55131009D02*
X159307143Y-55083390D01*
X159307143Y-55083390D02*
X159259524Y-55035771D01*
X159259524Y-55035771D02*
X159211905Y-54940533D01*
X159211905Y-54940533D02*
X159211905Y-54845295D01*
X159211905Y-54845295D02*
X159259524Y-54750057D01*
X159259524Y-54750057D02*
X159307143Y-54702438D01*
X159307143Y-54702438D02*
X159402381Y-54654819D01*
X159402381Y-54654819D02*
X159640476Y-54654819D01*
X159640476Y-54654819D02*
X159783333Y-54702438D01*
X160164286Y-54750057D02*
X160211905Y-54702438D01*
X160211905Y-54702438D02*
X160307143Y-54654819D01*
X160307143Y-54654819D02*
X160545238Y-54654819D01*
X160545238Y-54654819D02*
X160640476Y-54702438D01*
X160640476Y-54702438D02*
X160688095Y-54750057D01*
X160688095Y-54750057D02*
X160735714Y-54845295D01*
X160735714Y-54845295D02*
X160735714Y-54940533D01*
X160735714Y-54940533D02*
X160688095Y-55083390D01*
X160688095Y-55083390D02*
X160116667Y-55654819D01*
X160116667Y-55654819D02*
X160735714Y-55654819D01*
X113431009Y-117500000D02*
X113431009Y-117166667D01*
X113954819Y-117023810D02*
X113954819Y-117500000D01*
X113954819Y-117500000D02*
X112954819Y-117500000D01*
X112954819Y-117500000D02*
X112954819Y-117023810D01*
X113907200Y-116642857D02*
X113954819Y-116500000D01*
X113954819Y-116500000D02*
X113954819Y-116261905D01*
X113954819Y-116261905D02*
X113907200Y-116166667D01*
X113907200Y-116166667D02*
X113859580Y-116119048D01*
X113859580Y-116119048D02*
X113764342Y-116071429D01*
X113764342Y-116071429D02*
X113669104Y-116071429D01*
X113669104Y-116071429D02*
X113573866Y-116119048D01*
X113573866Y-116119048D02*
X113526247Y-116166667D01*
X113526247Y-116166667D02*
X113478628Y-116261905D01*
X113478628Y-116261905D02*
X113431009Y-116452381D01*
X113431009Y-116452381D02*
X113383390Y-116547619D01*
X113383390Y-116547619D02*
X113335771Y-116595238D01*
X113335771Y-116595238D02*
X113240533Y-116642857D01*
X113240533Y-116642857D02*
X113145295Y-116642857D01*
X113145295Y-116642857D02*
X113050057Y-116595238D01*
X113050057Y-116595238D02*
X113002438Y-116547619D01*
X113002438Y-116547619D02*
X112954819Y-116452381D01*
X112954819Y-116452381D02*
X112954819Y-116214286D01*
X112954819Y-116214286D02*
X113002438Y-116071429D01*
X113288152Y-115785714D02*
X113288152Y-115404762D01*
X112954819Y-115642857D02*
X113811961Y-115642857D01*
X113811961Y-115642857D02*
X113907200Y-115595238D01*
X113907200Y-115595238D02*
X113954819Y-115500000D01*
X113954819Y-115500000D02*
X113954819Y-115404762D01*
X113954819Y-114928571D02*
X113907200Y-115023809D01*
X113907200Y-115023809D02*
X113859580Y-115071428D01*
X113859580Y-115071428D02*
X113764342Y-115119047D01*
X113764342Y-115119047D02*
X113478628Y-115119047D01*
X113478628Y-115119047D02*
X113383390Y-115071428D01*
X113383390Y-115071428D02*
X113335771Y-115023809D01*
X113335771Y-115023809D02*
X113288152Y-114928571D01*
X113288152Y-114928571D02*
X113288152Y-114785714D01*
X113288152Y-114785714D02*
X113335771Y-114690476D01*
X113335771Y-114690476D02*
X113383390Y-114642857D01*
X113383390Y-114642857D02*
X113478628Y-114595238D01*
X113478628Y-114595238D02*
X113764342Y-114595238D01*
X113764342Y-114595238D02*
X113859580Y-114642857D01*
X113859580Y-114642857D02*
X113907200Y-114690476D01*
X113907200Y-114690476D02*
X113954819Y-114785714D01*
X113954819Y-114785714D02*
X113954819Y-114928571D01*
X113288152Y-114166666D02*
X114288152Y-114166666D01*
X113335771Y-114166666D02*
X113288152Y-114071428D01*
X113288152Y-114071428D02*
X113288152Y-113880952D01*
X113288152Y-113880952D02*
X113335771Y-113785714D01*
X113335771Y-113785714D02*
X113383390Y-113738095D01*
X113383390Y-113738095D02*
X113478628Y-113690476D01*
X113478628Y-113690476D02*
X113764342Y-113690476D01*
X113764342Y-113690476D02*
X113859580Y-113738095D01*
X113859580Y-113738095D02*
X113907200Y-113785714D01*
X113907200Y-113785714D02*
X113954819Y-113880952D01*
X113954819Y-113880952D02*
X113954819Y-114071428D01*
X113954819Y-114071428D02*
X113907200Y-114166666D01*
X114050057Y-113500000D02*
X114050057Y-112738095D01*
X113907200Y-112547618D02*
X113954819Y-112452380D01*
X113954819Y-112452380D02*
X113954819Y-112261904D01*
X113954819Y-112261904D02*
X113907200Y-112166666D01*
X113907200Y-112166666D02*
X113811961Y-112119047D01*
X113811961Y-112119047D02*
X113764342Y-112119047D01*
X113764342Y-112119047D02*
X113669104Y-112166666D01*
X113669104Y-112166666D02*
X113621485Y-112261904D01*
X113621485Y-112261904D02*
X113621485Y-112404761D01*
X113621485Y-112404761D02*
X113573866Y-112499999D01*
X113573866Y-112499999D02*
X113478628Y-112547618D01*
X113478628Y-112547618D02*
X113431009Y-112547618D01*
X113431009Y-112547618D02*
X113335771Y-112499999D01*
X113335771Y-112499999D02*
X113288152Y-112404761D01*
X113288152Y-112404761D02*
X113288152Y-112261904D01*
X113288152Y-112261904D02*
X113335771Y-112166666D01*
X113954819Y-111690475D02*
X113288152Y-111690475D01*
X112954819Y-111690475D02*
X113002438Y-111738094D01*
X113002438Y-111738094D02*
X113050057Y-111690475D01*
X113050057Y-111690475D02*
X113002438Y-111642856D01*
X113002438Y-111642856D02*
X112954819Y-111690475D01*
X112954819Y-111690475D02*
X113050057Y-111690475D01*
X113288152Y-110785714D02*
X114097676Y-110785714D01*
X114097676Y-110785714D02*
X114192914Y-110833333D01*
X114192914Y-110833333D02*
X114240533Y-110880952D01*
X114240533Y-110880952D02*
X114288152Y-110976190D01*
X114288152Y-110976190D02*
X114288152Y-111119047D01*
X114288152Y-111119047D02*
X114240533Y-111214285D01*
X113907200Y-110785714D02*
X113954819Y-110880952D01*
X113954819Y-110880952D02*
X113954819Y-111071428D01*
X113954819Y-111071428D02*
X113907200Y-111166666D01*
X113907200Y-111166666D02*
X113859580Y-111214285D01*
X113859580Y-111214285D02*
X113764342Y-111261904D01*
X113764342Y-111261904D02*
X113478628Y-111261904D01*
X113478628Y-111261904D02*
X113383390Y-111214285D01*
X113383390Y-111214285D02*
X113335771Y-111166666D01*
X113335771Y-111166666D02*
X113288152Y-111071428D01*
X113288152Y-111071428D02*
X113288152Y-110880952D01*
X113288152Y-110880952D02*
X113335771Y-110785714D01*
X113288152Y-110309523D02*
X113954819Y-110309523D01*
X113383390Y-110309523D02*
X113335771Y-110261904D01*
X113335771Y-110261904D02*
X113288152Y-110166666D01*
X113288152Y-110166666D02*
X113288152Y-110023809D01*
X113288152Y-110023809D02*
X113335771Y-109928571D01*
X113335771Y-109928571D02*
X113431009Y-109880952D01*
X113431009Y-109880952D02*
X113954819Y-109880952D01*
X113954819Y-108976190D02*
X113431009Y-108976190D01*
X113431009Y-108976190D02*
X113335771Y-109023809D01*
X113335771Y-109023809D02*
X113288152Y-109119047D01*
X113288152Y-109119047D02*
X113288152Y-109309523D01*
X113288152Y-109309523D02*
X113335771Y-109404761D01*
X113907200Y-108976190D02*
X113954819Y-109071428D01*
X113954819Y-109071428D02*
X113954819Y-109309523D01*
X113954819Y-109309523D02*
X113907200Y-109404761D01*
X113907200Y-109404761D02*
X113811961Y-109452380D01*
X113811961Y-109452380D02*
X113716723Y-109452380D01*
X113716723Y-109452380D02*
X113621485Y-109404761D01*
X113621485Y-109404761D02*
X113573866Y-109309523D01*
X113573866Y-109309523D02*
X113573866Y-109071428D01*
X113573866Y-109071428D02*
X113526247Y-108976190D01*
X113954819Y-108357142D02*
X113907200Y-108452380D01*
X113907200Y-108452380D02*
X113811961Y-108499999D01*
X113811961Y-108499999D02*
X112954819Y-108499999D01*
X112954819Y-107785713D02*
X112954819Y-107690475D01*
X112954819Y-107690475D02*
X113002438Y-107595237D01*
X113002438Y-107595237D02*
X113050057Y-107547618D01*
X113050057Y-107547618D02*
X113145295Y-107499999D01*
X113145295Y-107499999D02*
X113335771Y-107452380D01*
X113335771Y-107452380D02*
X113573866Y-107452380D01*
X113573866Y-107452380D02*
X113764342Y-107499999D01*
X113764342Y-107499999D02*
X113859580Y-107547618D01*
X113859580Y-107547618D02*
X113907200Y-107595237D01*
X113907200Y-107595237D02*
X113954819Y-107690475D01*
X113954819Y-107690475D02*
X113954819Y-107785713D01*
X113954819Y-107785713D02*
X113907200Y-107880951D01*
X113907200Y-107880951D02*
X113859580Y-107928570D01*
X113859580Y-107928570D02*
X113764342Y-107976189D01*
X113764342Y-107976189D02*
X113573866Y-108023808D01*
X113573866Y-108023808D02*
X113335771Y-108023808D01*
X113335771Y-108023808D02*
X113145295Y-107976189D01*
X113145295Y-107976189D02*
X113050057Y-107928570D01*
X113050057Y-107928570D02*
X113002438Y-107880951D01*
X113002438Y-107880951D02*
X112954819Y-107785713D01*
X106454819Y-112833333D02*
X107169104Y-112833333D01*
X107169104Y-112833333D02*
X107311961Y-112880952D01*
X107311961Y-112880952D02*
X107407200Y-112976190D01*
X107407200Y-112976190D02*
X107454819Y-113119047D01*
X107454819Y-113119047D02*
X107454819Y-113214285D01*
X106454819Y-112452380D02*
X106454819Y-111785714D01*
X106454819Y-111785714D02*
X107454819Y-112214285D01*
X154664819Y-122579523D02*
X153664819Y-122579523D01*
X153664819Y-122579523D02*
X154664819Y-122008095D01*
X154664819Y-122008095D02*
X153664819Y-122008095D01*
X154664819Y-121531904D02*
X153664819Y-121531904D01*
X153664819Y-121531904D02*
X153664819Y-121150952D01*
X153664819Y-121150952D02*
X153712438Y-121055714D01*
X153712438Y-121055714D02*
X153760057Y-121008095D01*
X153760057Y-121008095D02*
X153855295Y-120960476D01*
X153855295Y-120960476D02*
X153998152Y-120960476D01*
X153998152Y-120960476D02*
X154093390Y-121008095D01*
X154093390Y-121008095D02*
X154141009Y-121055714D01*
X154141009Y-121055714D02*
X154188628Y-121150952D01*
X154188628Y-121150952D02*
X154188628Y-121531904D01*
X154664819Y-120531904D02*
X153664819Y-120531904D01*
X153664819Y-120531904D02*
X154664819Y-119960476D01*
X154664819Y-119960476D02*
X153664819Y-119960476D01*
X157550057Y-121365238D02*
X157502438Y-121460476D01*
X157502438Y-121460476D02*
X157407200Y-121555714D01*
X157407200Y-121555714D02*
X157264342Y-121698571D01*
X157264342Y-121698571D02*
X157216723Y-121793809D01*
X157216723Y-121793809D02*
X157216723Y-121889047D01*
X157454819Y-121841428D02*
X157407200Y-121936666D01*
X157407200Y-121936666D02*
X157311961Y-122031904D01*
X157311961Y-122031904D02*
X157121485Y-122079523D01*
X157121485Y-122079523D02*
X156788152Y-122079523D01*
X156788152Y-122079523D02*
X156597676Y-122031904D01*
X156597676Y-122031904D02*
X156502438Y-121936666D01*
X156502438Y-121936666D02*
X156454819Y-121841428D01*
X156454819Y-121841428D02*
X156454819Y-121650952D01*
X156454819Y-121650952D02*
X156502438Y-121555714D01*
X156502438Y-121555714D02*
X156597676Y-121460476D01*
X156597676Y-121460476D02*
X156788152Y-121412857D01*
X156788152Y-121412857D02*
X157121485Y-121412857D01*
X157121485Y-121412857D02*
X157311961Y-121460476D01*
X157311961Y-121460476D02*
X157407200Y-121555714D01*
X157407200Y-121555714D02*
X157454819Y-121650952D01*
X157454819Y-121650952D02*
X157454819Y-121841428D01*
X156550057Y-121031904D02*
X156502438Y-120984285D01*
X156502438Y-120984285D02*
X156454819Y-120889047D01*
X156454819Y-120889047D02*
X156454819Y-120650952D01*
X156454819Y-120650952D02*
X156502438Y-120555714D01*
X156502438Y-120555714D02*
X156550057Y-120508095D01*
X156550057Y-120508095D02*
X156645295Y-120460476D01*
X156645295Y-120460476D02*
X156740533Y-120460476D01*
X156740533Y-120460476D02*
X156883390Y-120508095D01*
X156883390Y-120508095D02*
X157454819Y-121079523D01*
X157454819Y-121079523D02*
X157454819Y-120460476D01*
X104039046Y-29699580D02*
X103991427Y-29747200D01*
X103991427Y-29747200D02*
X103848570Y-29794819D01*
X103848570Y-29794819D02*
X103753332Y-29794819D01*
X103753332Y-29794819D02*
X103610475Y-29747200D01*
X103610475Y-29747200D02*
X103515237Y-29651961D01*
X103515237Y-29651961D02*
X103467618Y-29556723D01*
X103467618Y-29556723D02*
X103419999Y-29366247D01*
X103419999Y-29366247D02*
X103419999Y-29223390D01*
X103419999Y-29223390D02*
X103467618Y-29032914D01*
X103467618Y-29032914D02*
X103515237Y-28937676D01*
X103515237Y-28937676D02*
X103610475Y-28842438D01*
X103610475Y-28842438D02*
X103753332Y-28794819D01*
X103753332Y-28794819D02*
X103848570Y-28794819D01*
X103848570Y-28794819D02*
X103991427Y-28842438D01*
X103991427Y-28842438D02*
X104039046Y-28890057D01*
X104610475Y-29794819D02*
X104515237Y-29747200D01*
X104515237Y-29747200D02*
X104467618Y-29699580D01*
X104467618Y-29699580D02*
X104419999Y-29604342D01*
X104419999Y-29604342D02*
X104419999Y-29318628D01*
X104419999Y-29318628D02*
X104467618Y-29223390D01*
X104467618Y-29223390D02*
X104515237Y-29175771D01*
X104515237Y-29175771D02*
X104610475Y-29128152D01*
X104610475Y-29128152D02*
X104753332Y-29128152D01*
X104753332Y-29128152D02*
X104848570Y-29175771D01*
X104848570Y-29175771D02*
X104896189Y-29223390D01*
X104896189Y-29223390D02*
X104943808Y-29318628D01*
X104943808Y-29318628D02*
X104943808Y-29604342D01*
X104943808Y-29604342D02*
X104896189Y-29699580D01*
X104896189Y-29699580D02*
X104848570Y-29747200D01*
X104848570Y-29747200D02*
X104753332Y-29794819D01*
X104753332Y-29794819D02*
X104610475Y-29794819D01*
X105372380Y-29128152D02*
X105372380Y-29794819D01*
X105372380Y-29223390D02*
X105419999Y-29175771D01*
X105419999Y-29175771D02*
X105515237Y-29128152D01*
X105515237Y-29128152D02*
X105658094Y-29128152D01*
X105658094Y-29128152D02*
X105753332Y-29175771D01*
X105753332Y-29175771D02*
X105800951Y-29271009D01*
X105800951Y-29271009D02*
X105800951Y-29794819D01*
X106277142Y-29128152D02*
X106277142Y-29794819D01*
X106277142Y-29223390D02*
X106324761Y-29175771D01*
X106324761Y-29175771D02*
X106419999Y-29128152D01*
X106419999Y-29128152D02*
X106562856Y-29128152D01*
X106562856Y-29128152D02*
X106658094Y-29175771D01*
X106658094Y-29175771D02*
X106705713Y-29271009D01*
X106705713Y-29271009D02*
X106705713Y-29794819D01*
X106943809Y-29890057D02*
X107705713Y-29890057D01*
X107943809Y-29128152D02*
X107943809Y-29794819D01*
X107943809Y-29223390D02*
X107991428Y-29175771D01*
X107991428Y-29175771D02*
X108086666Y-29128152D01*
X108086666Y-29128152D02*
X108229523Y-29128152D01*
X108229523Y-29128152D02*
X108324761Y-29175771D01*
X108324761Y-29175771D02*
X108372380Y-29271009D01*
X108372380Y-29271009D02*
X108372380Y-29794819D01*
X109229523Y-29747200D02*
X109134285Y-29794819D01*
X109134285Y-29794819D02*
X108943809Y-29794819D01*
X108943809Y-29794819D02*
X108848571Y-29747200D01*
X108848571Y-29747200D02*
X108800952Y-29651961D01*
X108800952Y-29651961D02*
X108800952Y-29271009D01*
X108800952Y-29271009D02*
X108848571Y-29175771D01*
X108848571Y-29175771D02*
X108943809Y-29128152D01*
X108943809Y-29128152D02*
X109134285Y-29128152D01*
X109134285Y-29128152D02*
X109229523Y-29175771D01*
X109229523Y-29175771D02*
X109277142Y-29271009D01*
X109277142Y-29271009D02*
X109277142Y-29366247D01*
X109277142Y-29366247D02*
X108800952Y-29461485D01*
X109848571Y-29794819D02*
X109753333Y-29747200D01*
X109753333Y-29747200D02*
X109705714Y-29699580D01*
X109705714Y-29699580D02*
X109658095Y-29604342D01*
X109658095Y-29604342D02*
X109658095Y-29318628D01*
X109658095Y-29318628D02*
X109705714Y-29223390D01*
X109705714Y-29223390D02*
X109753333Y-29175771D01*
X109753333Y-29175771D02*
X109848571Y-29128152D01*
X109848571Y-29128152D02*
X109991428Y-29128152D01*
X109991428Y-29128152D02*
X110086666Y-29175771D01*
X110086666Y-29175771D02*
X110134285Y-29223390D01*
X110134285Y-29223390D02*
X110181904Y-29318628D01*
X110181904Y-29318628D02*
X110181904Y-29604342D01*
X110181904Y-29604342D02*
X110134285Y-29699580D01*
X110134285Y-29699580D02*
X110086666Y-29747200D01*
X110086666Y-29747200D02*
X109991428Y-29794819D01*
X109991428Y-29794819D02*
X109848571Y-29794819D01*
X110610476Y-29128152D02*
X110610476Y-30128152D01*
X110610476Y-29175771D02*
X110705714Y-29128152D01*
X110705714Y-29128152D02*
X110896190Y-29128152D01*
X110896190Y-29128152D02*
X110991428Y-29175771D01*
X110991428Y-29175771D02*
X111039047Y-29223390D01*
X111039047Y-29223390D02*
X111086666Y-29318628D01*
X111086666Y-29318628D02*
X111086666Y-29604342D01*
X111086666Y-29604342D02*
X111039047Y-29699580D01*
X111039047Y-29699580D02*
X110991428Y-29747200D01*
X110991428Y-29747200D02*
X110896190Y-29794819D01*
X110896190Y-29794819D02*
X110705714Y-29794819D01*
X110705714Y-29794819D02*
X110610476Y-29747200D01*
X111515238Y-29794819D02*
X111515238Y-29128152D01*
X111515238Y-28794819D02*
X111467619Y-28842438D01*
X111467619Y-28842438D02*
X111515238Y-28890057D01*
X111515238Y-28890057D02*
X111562857Y-28842438D01*
X111562857Y-28842438D02*
X111515238Y-28794819D01*
X111515238Y-28794819D02*
X111515238Y-28890057D01*
X111896190Y-29794819D02*
X112419999Y-29128152D01*
X111896190Y-29128152D02*
X112419999Y-29794819D01*
X113181904Y-29747200D02*
X113086666Y-29794819D01*
X113086666Y-29794819D02*
X112896190Y-29794819D01*
X112896190Y-29794819D02*
X112800952Y-29747200D01*
X112800952Y-29747200D02*
X112753333Y-29651961D01*
X112753333Y-29651961D02*
X112753333Y-29271009D01*
X112753333Y-29271009D02*
X112800952Y-29175771D01*
X112800952Y-29175771D02*
X112896190Y-29128152D01*
X112896190Y-29128152D02*
X113086666Y-29128152D01*
X113086666Y-29128152D02*
X113181904Y-29175771D01*
X113181904Y-29175771D02*
X113229523Y-29271009D01*
X113229523Y-29271009D02*
X113229523Y-29366247D01*
X113229523Y-29366247D02*
X112753333Y-29461485D01*
X113800952Y-29794819D02*
X113705714Y-29747200D01*
X113705714Y-29747200D02*
X113658095Y-29651961D01*
X113658095Y-29651961D02*
X113658095Y-28794819D01*
X113943810Y-29890057D02*
X114705714Y-29890057D01*
X115134286Y-28794819D02*
X115229524Y-28794819D01*
X115229524Y-28794819D02*
X115324762Y-28842438D01*
X115324762Y-28842438D02*
X115372381Y-28890057D01*
X115372381Y-28890057D02*
X115420000Y-28985295D01*
X115420000Y-28985295D02*
X115467619Y-29175771D01*
X115467619Y-29175771D02*
X115467619Y-29413866D01*
X115467619Y-29413866D02*
X115420000Y-29604342D01*
X115420000Y-29604342D02*
X115372381Y-29699580D01*
X115372381Y-29699580D02*
X115324762Y-29747200D01*
X115324762Y-29747200D02*
X115229524Y-29794819D01*
X115229524Y-29794819D02*
X115134286Y-29794819D01*
X115134286Y-29794819D02*
X115039048Y-29747200D01*
X115039048Y-29747200D02*
X114991429Y-29699580D01*
X114991429Y-29699580D02*
X114943810Y-29604342D01*
X114943810Y-29604342D02*
X114896191Y-29413866D01*
X114896191Y-29413866D02*
X114896191Y-29175771D01*
X114896191Y-29175771D02*
X114943810Y-28985295D01*
X114943810Y-28985295D02*
X114991429Y-28890057D01*
X114991429Y-28890057D02*
X115039048Y-28842438D01*
X115039048Y-28842438D02*
X115134286Y-28794819D01*
X116420000Y-29794819D02*
X115848572Y-29794819D01*
X116134286Y-29794819D02*
X116134286Y-28794819D01*
X116134286Y-28794819D02*
X116039048Y-28937676D01*
X116039048Y-28937676D02*
X115943810Y-29032914D01*
X115943810Y-29032914D02*
X115848572Y-29080533D01*
X109586666Y-31254819D02*
X109586666Y-31969104D01*
X109586666Y-31969104D02*
X109539047Y-32111961D01*
X109539047Y-32111961D02*
X109443809Y-32207200D01*
X109443809Y-32207200D02*
X109300952Y-32254819D01*
X109300952Y-32254819D02*
X109205714Y-32254819D01*
X110015238Y-31350057D02*
X110062857Y-31302438D01*
X110062857Y-31302438D02*
X110158095Y-31254819D01*
X110158095Y-31254819D02*
X110396190Y-31254819D01*
X110396190Y-31254819D02*
X110491428Y-31302438D01*
X110491428Y-31302438D02*
X110539047Y-31350057D01*
X110539047Y-31350057D02*
X110586666Y-31445295D01*
X110586666Y-31445295D02*
X110586666Y-31540533D01*
X110586666Y-31540533D02*
X110539047Y-31683390D01*
X110539047Y-31683390D02*
X109967619Y-32254819D01*
X109967619Y-32254819D02*
X110586666Y-32254819D01*
X115807143Y-67050057D02*
X115854762Y-67002438D01*
X115854762Y-67002438D02*
X115950000Y-66954819D01*
X115950000Y-66954819D02*
X116188095Y-66954819D01*
X116188095Y-66954819D02*
X116283333Y-67002438D01*
X116283333Y-67002438D02*
X116330952Y-67050057D01*
X116330952Y-67050057D02*
X116378571Y-67145295D01*
X116378571Y-67145295D02*
X116378571Y-67240533D01*
X116378571Y-67240533D02*
X116330952Y-67383390D01*
X116330952Y-67383390D02*
X115759524Y-67954819D01*
X115759524Y-67954819D02*
X116378571Y-67954819D01*
X116759524Y-67907200D02*
X116902381Y-67954819D01*
X116902381Y-67954819D02*
X117140476Y-67954819D01*
X117140476Y-67954819D02*
X117235714Y-67907200D01*
X117235714Y-67907200D02*
X117283333Y-67859580D01*
X117283333Y-67859580D02*
X117330952Y-67764342D01*
X117330952Y-67764342D02*
X117330952Y-67669104D01*
X117330952Y-67669104D02*
X117283333Y-67573866D01*
X117283333Y-67573866D02*
X117235714Y-67526247D01*
X117235714Y-67526247D02*
X117140476Y-67478628D01*
X117140476Y-67478628D02*
X116950000Y-67431009D01*
X116950000Y-67431009D02*
X116854762Y-67383390D01*
X116854762Y-67383390D02*
X116807143Y-67335771D01*
X116807143Y-67335771D02*
X116759524Y-67240533D01*
X116759524Y-67240533D02*
X116759524Y-67145295D01*
X116759524Y-67145295D02*
X116807143Y-67050057D01*
X116807143Y-67050057D02*
X116854762Y-67002438D01*
X116854762Y-67002438D02*
X116950000Y-66954819D01*
X116950000Y-66954819D02*
X117188095Y-66954819D01*
X117188095Y-66954819D02*
X117330952Y-67002438D01*
X118045238Y-66954819D02*
X118045238Y-67669104D01*
X118045238Y-67669104D02*
X117997619Y-67811961D01*
X117997619Y-67811961D02*
X117902381Y-67907200D01*
X117902381Y-67907200D02*
X117759524Y-67954819D01*
X117759524Y-67954819D02*
X117664286Y-67954819D01*
X118997619Y-66954819D02*
X118521429Y-66954819D01*
X118521429Y-66954819D02*
X118473810Y-67431009D01*
X118473810Y-67431009D02*
X118521429Y-67383390D01*
X118521429Y-67383390D02*
X118616667Y-67335771D01*
X118616667Y-67335771D02*
X118854762Y-67335771D01*
X118854762Y-67335771D02*
X118950000Y-67383390D01*
X118950000Y-67383390D02*
X118997619Y-67431009D01*
X118997619Y-67431009D02*
X119045238Y-67526247D01*
X119045238Y-67526247D02*
X119045238Y-67764342D01*
X119045238Y-67764342D02*
X118997619Y-67859580D01*
X118997619Y-67859580D02*
X118950000Y-67907200D01*
X118950000Y-67907200D02*
X118854762Y-67954819D01*
X118854762Y-67954819D02*
X118616667Y-67954819D01*
X118616667Y-67954819D02*
X118521429Y-67907200D01*
X118521429Y-67907200D02*
X118473810Y-67859580D01*
X119950000Y-66954819D02*
X119473810Y-66954819D01*
X119473810Y-66954819D02*
X119426191Y-67431009D01*
X119426191Y-67431009D02*
X119473810Y-67383390D01*
X119473810Y-67383390D02*
X119569048Y-67335771D01*
X119569048Y-67335771D02*
X119807143Y-67335771D01*
X119807143Y-67335771D02*
X119902381Y-67383390D01*
X119902381Y-67383390D02*
X119950000Y-67431009D01*
X119950000Y-67431009D02*
X119997619Y-67526247D01*
X119997619Y-67526247D02*
X119997619Y-67764342D01*
X119997619Y-67764342D02*
X119950000Y-67859580D01*
X119950000Y-67859580D02*
X119902381Y-67907200D01*
X119902381Y-67907200D02*
X119807143Y-67954819D01*
X119807143Y-67954819D02*
X119569048Y-67954819D01*
X119569048Y-67954819D02*
X119473810Y-67907200D01*
X119473810Y-67907200D02*
X119426191Y-67859580D01*
X120902381Y-66954819D02*
X120426191Y-66954819D01*
X120426191Y-66954819D02*
X120378572Y-67431009D01*
X120378572Y-67431009D02*
X120426191Y-67383390D01*
X120426191Y-67383390D02*
X120521429Y-67335771D01*
X120521429Y-67335771D02*
X120759524Y-67335771D01*
X120759524Y-67335771D02*
X120854762Y-67383390D01*
X120854762Y-67383390D02*
X120902381Y-67431009D01*
X120902381Y-67431009D02*
X120950000Y-67526247D01*
X120950000Y-67526247D02*
X120950000Y-67764342D01*
X120950000Y-67764342D02*
X120902381Y-67859580D01*
X120902381Y-67859580D02*
X120854762Y-67907200D01*
X120854762Y-67907200D02*
X120759524Y-67954819D01*
X120759524Y-67954819D02*
X120521429Y-67954819D01*
X120521429Y-67954819D02*
X120426191Y-67907200D01*
X120426191Y-67907200D02*
X120378572Y-67859580D01*
X121378572Y-67573866D02*
X122140477Y-67573866D01*
X122616667Y-67431009D02*
X122950000Y-67431009D01*
X123092857Y-67954819D02*
X122616667Y-67954819D01*
X122616667Y-67954819D02*
X122616667Y-66954819D01*
X122616667Y-66954819D02*
X123092857Y-66954819D01*
X119354761Y-60430057D02*
X119259523Y-60382438D01*
X119259523Y-60382438D02*
X119164285Y-60287200D01*
X119164285Y-60287200D02*
X119021428Y-60144342D01*
X119021428Y-60144342D02*
X118926190Y-60096723D01*
X118926190Y-60096723D02*
X118830952Y-60096723D01*
X118878571Y-60334819D02*
X118783333Y-60287200D01*
X118783333Y-60287200D02*
X118688095Y-60191961D01*
X118688095Y-60191961D02*
X118640476Y-60001485D01*
X118640476Y-60001485D02*
X118640476Y-59668152D01*
X118640476Y-59668152D02*
X118688095Y-59477676D01*
X118688095Y-59477676D02*
X118783333Y-59382438D01*
X118783333Y-59382438D02*
X118878571Y-59334819D01*
X118878571Y-59334819D02*
X119069047Y-59334819D01*
X119069047Y-59334819D02*
X119164285Y-59382438D01*
X119164285Y-59382438D02*
X119259523Y-59477676D01*
X119259523Y-59477676D02*
X119307142Y-59668152D01*
X119307142Y-59668152D02*
X119307142Y-60001485D01*
X119307142Y-60001485D02*
X119259523Y-60191961D01*
X119259523Y-60191961D02*
X119164285Y-60287200D01*
X119164285Y-60287200D02*
X119069047Y-60334819D01*
X119069047Y-60334819D02*
X118878571Y-60334819D01*
X120259523Y-60334819D02*
X119688095Y-60334819D01*
X119973809Y-60334819D02*
X119973809Y-59334819D01*
X119973809Y-59334819D02*
X119878571Y-59477676D01*
X119878571Y-59477676D02*
X119783333Y-59572914D01*
X119783333Y-59572914D02*
X119688095Y-59620533D01*
X160285714Y-109954819D02*
X160380952Y-109954819D01*
X160380952Y-109954819D02*
X160476190Y-110002438D01*
X160476190Y-110002438D02*
X160523809Y-110050057D01*
X160523809Y-110050057D02*
X160571428Y-110145295D01*
X160571428Y-110145295D02*
X160619047Y-110335771D01*
X160619047Y-110335771D02*
X160619047Y-110573866D01*
X160619047Y-110573866D02*
X160571428Y-110764342D01*
X160571428Y-110764342D02*
X160523809Y-110859580D01*
X160523809Y-110859580D02*
X160476190Y-110907200D01*
X160476190Y-110907200D02*
X160380952Y-110954819D01*
X160380952Y-110954819D02*
X160285714Y-110954819D01*
X160285714Y-110954819D02*
X160190476Y-110907200D01*
X160190476Y-110907200D02*
X160142857Y-110859580D01*
X160142857Y-110859580D02*
X160095238Y-110764342D01*
X160095238Y-110764342D02*
X160047619Y-110573866D01*
X160047619Y-110573866D02*
X160047619Y-110335771D01*
X160047619Y-110335771D02*
X160095238Y-110145295D01*
X160095238Y-110145295D02*
X160142857Y-110050057D01*
X160142857Y-110050057D02*
X160190476Y-110002438D01*
X160190476Y-110002438D02*
X160285714Y-109954819D01*
X161047619Y-110859580D02*
X161095238Y-110907200D01*
X161095238Y-110907200D02*
X161047619Y-110954819D01*
X161047619Y-110954819D02*
X161000000Y-110907200D01*
X161000000Y-110907200D02*
X161047619Y-110859580D01*
X161047619Y-110859580D02*
X161047619Y-110954819D01*
X162047618Y-110954819D02*
X161476190Y-110954819D01*
X161761904Y-110954819D02*
X161761904Y-109954819D01*
X161761904Y-109954819D02*
X161666666Y-110097676D01*
X161666666Y-110097676D02*
X161571428Y-110192914D01*
X161571428Y-110192914D02*
X161476190Y-110240533D01*
X162904761Y-110288152D02*
X162904761Y-110954819D01*
X162476190Y-110288152D02*
X162476190Y-110811961D01*
X162476190Y-110811961D02*
X162523809Y-110907200D01*
X162523809Y-110907200D02*
X162619047Y-110954819D01*
X162619047Y-110954819D02*
X162761904Y-110954819D01*
X162761904Y-110954819D02*
X162857142Y-110907200D01*
X162857142Y-110907200D02*
X162904761Y-110859580D01*
X161333333Y-114359580D02*
X161285714Y-114407200D01*
X161285714Y-114407200D02*
X161142857Y-114454819D01*
X161142857Y-114454819D02*
X161047619Y-114454819D01*
X161047619Y-114454819D02*
X160904762Y-114407200D01*
X160904762Y-114407200D02*
X160809524Y-114311961D01*
X160809524Y-114311961D02*
X160761905Y-114216723D01*
X160761905Y-114216723D02*
X160714286Y-114026247D01*
X160714286Y-114026247D02*
X160714286Y-113883390D01*
X160714286Y-113883390D02*
X160761905Y-113692914D01*
X160761905Y-113692914D02*
X160809524Y-113597676D01*
X160809524Y-113597676D02*
X160904762Y-113502438D01*
X160904762Y-113502438D02*
X161047619Y-113454819D01*
X161047619Y-113454819D02*
X161142857Y-113454819D01*
X161142857Y-113454819D02*
X161285714Y-113502438D01*
X161285714Y-113502438D02*
X161333333Y-113550057D01*
X162285714Y-114454819D02*
X161714286Y-114454819D01*
X162000000Y-114454819D02*
X162000000Y-113454819D01*
X162000000Y-113454819D02*
X161904762Y-113597676D01*
X161904762Y-113597676D02*
X161809524Y-113692914D01*
X161809524Y-113692914D02*
X161714286Y-113740533D01*
X173158095Y-107418152D02*
X173158095Y-108084819D01*
X172920000Y-107037200D02*
X172681905Y-107751485D01*
X172681905Y-107751485D02*
X173300952Y-107751485D01*
X173586667Y-107084819D02*
X174253333Y-107084819D01*
X174253333Y-107084819D02*
X173824762Y-108084819D01*
X174824762Y-107084819D02*
X174920000Y-107084819D01*
X174920000Y-107084819D02*
X175015238Y-107132438D01*
X175015238Y-107132438D02*
X175062857Y-107180057D01*
X175062857Y-107180057D02*
X175110476Y-107275295D01*
X175110476Y-107275295D02*
X175158095Y-107465771D01*
X175158095Y-107465771D02*
X175158095Y-107703866D01*
X175158095Y-107703866D02*
X175110476Y-107894342D01*
X175110476Y-107894342D02*
X175062857Y-107989580D01*
X175062857Y-107989580D02*
X175015238Y-108037200D01*
X175015238Y-108037200D02*
X174920000Y-108084819D01*
X174920000Y-108084819D02*
X174824762Y-108084819D01*
X174824762Y-108084819D02*
X174729524Y-108037200D01*
X174729524Y-108037200D02*
X174681905Y-107989580D01*
X174681905Y-107989580D02*
X174634286Y-107894342D01*
X174634286Y-107894342D02*
X174586667Y-107703866D01*
X174586667Y-107703866D02*
X174586667Y-107465771D01*
X174586667Y-107465771D02*
X174634286Y-107275295D01*
X174634286Y-107275295D02*
X174681905Y-107180057D01*
X174681905Y-107180057D02*
X174729524Y-107132438D01*
X174729524Y-107132438D02*
X174824762Y-107084819D01*
X173753333Y-110454819D02*
X173420000Y-109978628D01*
X173181905Y-110454819D02*
X173181905Y-109454819D01*
X173181905Y-109454819D02*
X173562857Y-109454819D01*
X173562857Y-109454819D02*
X173658095Y-109502438D01*
X173658095Y-109502438D02*
X173705714Y-109550057D01*
X173705714Y-109550057D02*
X173753333Y-109645295D01*
X173753333Y-109645295D02*
X173753333Y-109788152D01*
X173753333Y-109788152D02*
X173705714Y-109883390D01*
X173705714Y-109883390D02*
X173658095Y-109931009D01*
X173658095Y-109931009D02*
X173562857Y-109978628D01*
X173562857Y-109978628D02*
X173181905Y-109978628D01*
X174324762Y-109883390D02*
X174229524Y-109835771D01*
X174229524Y-109835771D02*
X174181905Y-109788152D01*
X174181905Y-109788152D02*
X174134286Y-109692914D01*
X174134286Y-109692914D02*
X174134286Y-109645295D01*
X174134286Y-109645295D02*
X174181905Y-109550057D01*
X174181905Y-109550057D02*
X174229524Y-109502438D01*
X174229524Y-109502438D02*
X174324762Y-109454819D01*
X174324762Y-109454819D02*
X174515238Y-109454819D01*
X174515238Y-109454819D02*
X174610476Y-109502438D01*
X174610476Y-109502438D02*
X174658095Y-109550057D01*
X174658095Y-109550057D02*
X174705714Y-109645295D01*
X174705714Y-109645295D02*
X174705714Y-109692914D01*
X174705714Y-109692914D02*
X174658095Y-109788152D01*
X174658095Y-109788152D02*
X174610476Y-109835771D01*
X174610476Y-109835771D02*
X174515238Y-109883390D01*
X174515238Y-109883390D02*
X174324762Y-109883390D01*
X174324762Y-109883390D02*
X174229524Y-109931009D01*
X174229524Y-109931009D02*
X174181905Y-109978628D01*
X174181905Y-109978628D02*
X174134286Y-110073866D01*
X174134286Y-110073866D02*
X174134286Y-110264342D01*
X174134286Y-110264342D02*
X174181905Y-110359580D01*
X174181905Y-110359580D02*
X174229524Y-110407200D01*
X174229524Y-110407200D02*
X174324762Y-110454819D01*
X174324762Y-110454819D02*
X174515238Y-110454819D01*
X174515238Y-110454819D02*
X174610476Y-110407200D01*
X174610476Y-110407200D02*
X174658095Y-110359580D01*
X174658095Y-110359580D02*
X174705714Y-110264342D01*
X174705714Y-110264342D02*
X174705714Y-110073866D01*
X174705714Y-110073866D02*
X174658095Y-109978628D01*
X174658095Y-109978628D02*
X174610476Y-109931009D01*
X174610476Y-109931009D02*
X174515238Y-109883390D01*
X144039046Y-29699580D02*
X143991427Y-29747200D01*
X143991427Y-29747200D02*
X143848570Y-29794819D01*
X143848570Y-29794819D02*
X143753332Y-29794819D01*
X143753332Y-29794819D02*
X143610475Y-29747200D01*
X143610475Y-29747200D02*
X143515237Y-29651961D01*
X143515237Y-29651961D02*
X143467618Y-29556723D01*
X143467618Y-29556723D02*
X143419999Y-29366247D01*
X143419999Y-29366247D02*
X143419999Y-29223390D01*
X143419999Y-29223390D02*
X143467618Y-29032914D01*
X143467618Y-29032914D02*
X143515237Y-28937676D01*
X143515237Y-28937676D02*
X143610475Y-28842438D01*
X143610475Y-28842438D02*
X143753332Y-28794819D01*
X143753332Y-28794819D02*
X143848570Y-28794819D01*
X143848570Y-28794819D02*
X143991427Y-28842438D01*
X143991427Y-28842438D02*
X144039046Y-28890057D01*
X144610475Y-29794819D02*
X144515237Y-29747200D01*
X144515237Y-29747200D02*
X144467618Y-29699580D01*
X144467618Y-29699580D02*
X144419999Y-29604342D01*
X144419999Y-29604342D02*
X144419999Y-29318628D01*
X144419999Y-29318628D02*
X144467618Y-29223390D01*
X144467618Y-29223390D02*
X144515237Y-29175771D01*
X144515237Y-29175771D02*
X144610475Y-29128152D01*
X144610475Y-29128152D02*
X144753332Y-29128152D01*
X144753332Y-29128152D02*
X144848570Y-29175771D01*
X144848570Y-29175771D02*
X144896189Y-29223390D01*
X144896189Y-29223390D02*
X144943808Y-29318628D01*
X144943808Y-29318628D02*
X144943808Y-29604342D01*
X144943808Y-29604342D02*
X144896189Y-29699580D01*
X144896189Y-29699580D02*
X144848570Y-29747200D01*
X144848570Y-29747200D02*
X144753332Y-29794819D01*
X144753332Y-29794819D02*
X144610475Y-29794819D01*
X145372380Y-29128152D02*
X145372380Y-29794819D01*
X145372380Y-29223390D02*
X145419999Y-29175771D01*
X145419999Y-29175771D02*
X145515237Y-29128152D01*
X145515237Y-29128152D02*
X145658094Y-29128152D01*
X145658094Y-29128152D02*
X145753332Y-29175771D01*
X145753332Y-29175771D02*
X145800951Y-29271009D01*
X145800951Y-29271009D02*
X145800951Y-29794819D01*
X146277142Y-29128152D02*
X146277142Y-29794819D01*
X146277142Y-29223390D02*
X146324761Y-29175771D01*
X146324761Y-29175771D02*
X146419999Y-29128152D01*
X146419999Y-29128152D02*
X146562856Y-29128152D01*
X146562856Y-29128152D02*
X146658094Y-29175771D01*
X146658094Y-29175771D02*
X146705713Y-29271009D01*
X146705713Y-29271009D02*
X146705713Y-29794819D01*
X146943809Y-29890057D02*
X147705713Y-29890057D01*
X147943809Y-29128152D02*
X147943809Y-29794819D01*
X147943809Y-29223390D02*
X147991428Y-29175771D01*
X147991428Y-29175771D02*
X148086666Y-29128152D01*
X148086666Y-29128152D02*
X148229523Y-29128152D01*
X148229523Y-29128152D02*
X148324761Y-29175771D01*
X148324761Y-29175771D02*
X148372380Y-29271009D01*
X148372380Y-29271009D02*
X148372380Y-29794819D01*
X149229523Y-29747200D02*
X149134285Y-29794819D01*
X149134285Y-29794819D02*
X148943809Y-29794819D01*
X148943809Y-29794819D02*
X148848571Y-29747200D01*
X148848571Y-29747200D02*
X148800952Y-29651961D01*
X148800952Y-29651961D02*
X148800952Y-29271009D01*
X148800952Y-29271009D02*
X148848571Y-29175771D01*
X148848571Y-29175771D02*
X148943809Y-29128152D01*
X148943809Y-29128152D02*
X149134285Y-29128152D01*
X149134285Y-29128152D02*
X149229523Y-29175771D01*
X149229523Y-29175771D02*
X149277142Y-29271009D01*
X149277142Y-29271009D02*
X149277142Y-29366247D01*
X149277142Y-29366247D02*
X148800952Y-29461485D01*
X149848571Y-29794819D02*
X149753333Y-29747200D01*
X149753333Y-29747200D02*
X149705714Y-29699580D01*
X149705714Y-29699580D02*
X149658095Y-29604342D01*
X149658095Y-29604342D02*
X149658095Y-29318628D01*
X149658095Y-29318628D02*
X149705714Y-29223390D01*
X149705714Y-29223390D02*
X149753333Y-29175771D01*
X149753333Y-29175771D02*
X149848571Y-29128152D01*
X149848571Y-29128152D02*
X149991428Y-29128152D01*
X149991428Y-29128152D02*
X150086666Y-29175771D01*
X150086666Y-29175771D02*
X150134285Y-29223390D01*
X150134285Y-29223390D02*
X150181904Y-29318628D01*
X150181904Y-29318628D02*
X150181904Y-29604342D01*
X150181904Y-29604342D02*
X150134285Y-29699580D01*
X150134285Y-29699580D02*
X150086666Y-29747200D01*
X150086666Y-29747200D02*
X149991428Y-29794819D01*
X149991428Y-29794819D02*
X149848571Y-29794819D01*
X150610476Y-29128152D02*
X150610476Y-30128152D01*
X150610476Y-29175771D02*
X150705714Y-29128152D01*
X150705714Y-29128152D02*
X150896190Y-29128152D01*
X150896190Y-29128152D02*
X150991428Y-29175771D01*
X150991428Y-29175771D02*
X151039047Y-29223390D01*
X151039047Y-29223390D02*
X151086666Y-29318628D01*
X151086666Y-29318628D02*
X151086666Y-29604342D01*
X151086666Y-29604342D02*
X151039047Y-29699580D01*
X151039047Y-29699580D02*
X150991428Y-29747200D01*
X150991428Y-29747200D02*
X150896190Y-29794819D01*
X150896190Y-29794819D02*
X150705714Y-29794819D01*
X150705714Y-29794819D02*
X150610476Y-29747200D01*
X151515238Y-29794819D02*
X151515238Y-29128152D01*
X151515238Y-28794819D02*
X151467619Y-28842438D01*
X151467619Y-28842438D02*
X151515238Y-28890057D01*
X151515238Y-28890057D02*
X151562857Y-28842438D01*
X151562857Y-28842438D02*
X151515238Y-28794819D01*
X151515238Y-28794819D02*
X151515238Y-28890057D01*
X151896190Y-29794819D02*
X152419999Y-29128152D01*
X151896190Y-29128152D02*
X152419999Y-29794819D01*
X153181904Y-29747200D02*
X153086666Y-29794819D01*
X153086666Y-29794819D02*
X152896190Y-29794819D01*
X152896190Y-29794819D02*
X152800952Y-29747200D01*
X152800952Y-29747200D02*
X152753333Y-29651961D01*
X152753333Y-29651961D02*
X152753333Y-29271009D01*
X152753333Y-29271009D02*
X152800952Y-29175771D01*
X152800952Y-29175771D02*
X152896190Y-29128152D01*
X152896190Y-29128152D02*
X153086666Y-29128152D01*
X153086666Y-29128152D02*
X153181904Y-29175771D01*
X153181904Y-29175771D02*
X153229523Y-29271009D01*
X153229523Y-29271009D02*
X153229523Y-29366247D01*
X153229523Y-29366247D02*
X152753333Y-29461485D01*
X153800952Y-29794819D02*
X153705714Y-29747200D01*
X153705714Y-29747200D02*
X153658095Y-29651961D01*
X153658095Y-29651961D02*
X153658095Y-28794819D01*
X153943810Y-29890057D02*
X154705714Y-29890057D01*
X155134286Y-28794819D02*
X155229524Y-28794819D01*
X155229524Y-28794819D02*
X155324762Y-28842438D01*
X155324762Y-28842438D02*
X155372381Y-28890057D01*
X155372381Y-28890057D02*
X155420000Y-28985295D01*
X155420000Y-28985295D02*
X155467619Y-29175771D01*
X155467619Y-29175771D02*
X155467619Y-29413866D01*
X155467619Y-29413866D02*
X155420000Y-29604342D01*
X155420000Y-29604342D02*
X155372381Y-29699580D01*
X155372381Y-29699580D02*
X155324762Y-29747200D01*
X155324762Y-29747200D02*
X155229524Y-29794819D01*
X155229524Y-29794819D02*
X155134286Y-29794819D01*
X155134286Y-29794819D02*
X155039048Y-29747200D01*
X155039048Y-29747200D02*
X154991429Y-29699580D01*
X154991429Y-29699580D02*
X154943810Y-29604342D01*
X154943810Y-29604342D02*
X154896191Y-29413866D01*
X154896191Y-29413866D02*
X154896191Y-29175771D01*
X154896191Y-29175771D02*
X154943810Y-28985295D01*
X154943810Y-28985295D02*
X154991429Y-28890057D01*
X154991429Y-28890057D02*
X155039048Y-28842438D01*
X155039048Y-28842438D02*
X155134286Y-28794819D01*
X155800953Y-28794819D02*
X156420000Y-28794819D01*
X156420000Y-28794819D02*
X156086667Y-29175771D01*
X156086667Y-29175771D02*
X156229524Y-29175771D01*
X156229524Y-29175771D02*
X156324762Y-29223390D01*
X156324762Y-29223390D02*
X156372381Y-29271009D01*
X156372381Y-29271009D02*
X156420000Y-29366247D01*
X156420000Y-29366247D02*
X156420000Y-29604342D01*
X156420000Y-29604342D02*
X156372381Y-29699580D01*
X156372381Y-29699580D02*
X156324762Y-29747200D01*
X156324762Y-29747200D02*
X156229524Y-29794819D01*
X156229524Y-29794819D02*
X155943810Y-29794819D01*
X155943810Y-29794819D02*
X155848572Y-29747200D01*
X155848572Y-29747200D02*
X155800953Y-29699580D01*
X149586666Y-31254819D02*
X149586666Y-31969104D01*
X149586666Y-31969104D02*
X149539047Y-32111961D01*
X149539047Y-32111961D02*
X149443809Y-32207200D01*
X149443809Y-32207200D02*
X149300952Y-32254819D01*
X149300952Y-32254819D02*
X149205714Y-32254819D01*
X150491428Y-31588152D02*
X150491428Y-32254819D01*
X150253333Y-31207200D02*
X150015238Y-31921485D01*
X150015238Y-31921485D02*
X150634285Y-31921485D01*
X92214285Y-151654819D02*
X92214285Y-150654819D01*
X92214285Y-150654819D02*
X92547618Y-151369104D01*
X92547618Y-151369104D02*
X92880951Y-150654819D01*
X92880951Y-150654819D02*
X92880951Y-151654819D01*
X93499999Y-151654819D02*
X93404761Y-151607200D01*
X93404761Y-151607200D02*
X93357142Y-151559580D01*
X93357142Y-151559580D02*
X93309523Y-151464342D01*
X93309523Y-151464342D02*
X93309523Y-151178628D01*
X93309523Y-151178628D02*
X93357142Y-151083390D01*
X93357142Y-151083390D02*
X93404761Y-151035771D01*
X93404761Y-151035771D02*
X93499999Y-150988152D01*
X93499999Y-150988152D02*
X93642856Y-150988152D01*
X93642856Y-150988152D02*
X93738094Y-151035771D01*
X93738094Y-151035771D02*
X93785713Y-151083390D01*
X93785713Y-151083390D02*
X93833332Y-151178628D01*
X93833332Y-151178628D02*
X93833332Y-151464342D01*
X93833332Y-151464342D02*
X93785713Y-151559580D01*
X93785713Y-151559580D02*
X93738094Y-151607200D01*
X93738094Y-151607200D02*
X93642856Y-151654819D01*
X93642856Y-151654819D02*
X93499999Y-151654819D01*
X94690475Y-150988152D02*
X94690475Y-151654819D01*
X94261904Y-150988152D02*
X94261904Y-151511961D01*
X94261904Y-151511961D02*
X94309523Y-151607200D01*
X94309523Y-151607200D02*
X94404761Y-151654819D01*
X94404761Y-151654819D02*
X94547618Y-151654819D01*
X94547618Y-151654819D02*
X94642856Y-151607200D01*
X94642856Y-151607200D02*
X94690475Y-151559580D01*
X95166666Y-150988152D02*
X95166666Y-151654819D01*
X95166666Y-151083390D02*
X95214285Y-151035771D01*
X95214285Y-151035771D02*
X95309523Y-150988152D01*
X95309523Y-150988152D02*
X95452380Y-150988152D01*
X95452380Y-150988152D02*
X95547618Y-151035771D01*
X95547618Y-151035771D02*
X95595237Y-151131009D01*
X95595237Y-151131009D02*
X95595237Y-151654819D01*
X95928571Y-150988152D02*
X96309523Y-150988152D01*
X96071428Y-150654819D02*
X96071428Y-151511961D01*
X96071428Y-151511961D02*
X96119047Y-151607200D01*
X96119047Y-151607200D02*
X96214285Y-151654819D01*
X96214285Y-151654819D02*
X96309523Y-151654819D01*
X96642857Y-151654819D02*
X96642857Y-150988152D01*
X96642857Y-150654819D02*
X96595238Y-150702438D01*
X96595238Y-150702438D02*
X96642857Y-150750057D01*
X96642857Y-150750057D02*
X96690476Y-150702438D01*
X96690476Y-150702438D02*
X96642857Y-150654819D01*
X96642857Y-150654819D02*
X96642857Y-150750057D01*
X97119047Y-150988152D02*
X97119047Y-151654819D01*
X97119047Y-151083390D02*
X97166666Y-151035771D01*
X97166666Y-151035771D02*
X97261904Y-150988152D01*
X97261904Y-150988152D02*
X97404761Y-150988152D01*
X97404761Y-150988152D02*
X97499999Y-151035771D01*
X97499999Y-151035771D02*
X97547618Y-151131009D01*
X97547618Y-151131009D02*
X97547618Y-151654819D01*
X98452380Y-150988152D02*
X98452380Y-151797676D01*
X98452380Y-151797676D02*
X98404761Y-151892914D01*
X98404761Y-151892914D02*
X98357142Y-151940533D01*
X98357142Y-151940533D02*
X98261904Y-151988152D01*
X98261904Y-151988152D02*
X98119047Y-151988152D01*
X98119047Y-151988152D02*
X98023809Y-151940533D01*
X98452380Y-151607200D02*
X98357142Y-151654819D01*
X98357142Y-151654819D02*
X98166666Y-151654819D01*
X98166666Y-151654819D02*
X98071428Y-151607200D01*
X98071428Y-151607200D02*
X98023809Y-151559580D01*
X98023809Y-151559580D02*
X97976190Y-151464342D01*
X97976190Y-151464342D02*
X97976190Y-151178628D01*
X97976190Y-151178628D02*
X98023809Y-151083390D01*
X98023809Y-151083390D02*
X98071428Y-151035771D01*
X98071428Y-151035771D02*
X98166666Y-150988152D01*
X98166666Y-150988152D02*
X98357142Y-150988152D01*
X98357142Y-150988152D02*
X98452380Y-151035771D01*
X98928571Y-151654819D02*
X98928571Y-150654819D01*
X98928571Y-151131009D02*
X99499999Y-151131009D01*
X99499999Y-151654819D02*
X99499999Y-150654819D01*
X100119047Y-151654819D02*
X100023809Y-151607200D01*
X100023809Y-151607200D02*
X99976190Y-151559580D01*
X99976190Y-151559580D02*
X99928571Y-151464342D01*
X99928571Y-151464342D02*
X99928571Y-151178628D01*
X99928571Y-151178628D02*
X99976190Y-151083390D01*
X99976190Y-151083390D02*
X100023809Y-151035771D01*
X100023809Y-151035771D02*
X100119047Y-150988152D01*
X100119047Y-150988152D02*
X100261904Y-150988152D01*
X100261904Y-150988152D02*
X100357142Y-151035771D01*
X100357142Y-151035771D02*
X100404761Y-151083390D01*
X100404761Y-151083390D02*
X100452380Y-151178628D01*
X100452380Y-151178628D02*
X100452380Y-151464342D01*
X100452380Y-151464342D02*
X100404761Y-151559580D01*
X100404761Y-151559580D02*
X100357142Y-151607200D01*
X100357142Y-151607200D02*
X100261904Y-151654819D01*
X100261904Y-151654819D02*
X100119047Y-151654819D01*
X101023809Y-151654819D02*
X100928571Y-151607200D01*
X100928571Y-151607200D02*
X100880952Y-151511961D01*
X100880952Y-151511961D02*
X100880952Y-150654819D01*
X101785714Y-151607200D02*
X101690476Y-151654819D01*
X101690476Y-151654819D02*
X101500000Y-151654819D01*
X101500000Y-151654819D02*
X101404762Y-151607200D01*
X101404762Y-151607200D02*
X101357143Y-151511961D01*
X101357143Y-151511961D02*
X101357143Y-151131009D01*
X101357143Y-151131009D02*
X101404762Y-151035771D01*
X101404762Y-151035771D02*
X101500000Y-150988152D01*
X101500000Y-150988152D02*
X101690476Y-150988152D01*
X101690476Y-150988152D02*
X101785714Y-151035771D01*
X101785714Y-151035771D02*
X101833333Y-151131009D01*
X101833333Y-151131009D02*
X101833333Y-151226247D01*
X101833333Y-151226247D02*
X101357143Y-151321485D01*
X96238095Y-147454819D02*
X96238095Y-146454819D01*
X96238095Y-146931009D02*
X96809523Y-146931009D01*
X96809523Y-147454819D02*
X96809523Y-146454819D01*
X97190476Y-146454819D02*
X97809523Y-146454819D01*
X97809523Y-146454819D02*
X97476190Y-146835771D01*
X97476190Y-146835771D02*
X97619047Y-146835771D01*
X97619047Y-146835771D02*
X97714285Y-146883390D01*
X97714285Y-146883390D02*
X97761904Y-146931009D01*
X97761904Y-146931009D02*
X97809523Y-147026247D01*
X97809523Y-147026247D02*
X97809523Y-147264342D01*
X97809523Y-147264342D02*
X97761904Y-147359580D01*
X97761904Y-147359580D02*
X97714285Y-147407200D01*
X97714285Y-147407200D02*
X97619047Y-147454819D01*
X97619047Y-147454819D02*
X97333333Y-147454819D01*
X97333333Y-147454819D02*
X97238095Y-147407200D01*
X97238095Y-147407200D02*
X97190476Y-147359580D01*
X155807143Y-67050057D02*
X155854762Y-67002438D01*
X155854762Y-67002438D02*
X155950000Y-66954819D01*
X155950000Y-66954819D02*
X156188095Y-66954819D01*
X156188095Y-66954819D02*
X156283333Y-67002438D01*
X156283333Y-67002438D02*
X156330952Y-67050057D01*
X156330952Y-67050057D02*
X156378571Y-67145295D01*
X156378571Y-67145295D02*
X156378571Y-67240533D01*
X156378571Y-67240533D02*
X156330952Y-67383390D01*
X156330952Y-67383390D02*
X155759524Y-67954819D01*
X155759524Y-67954819D02*
X156378571Y-67954819D01*
X156759524Y-67907200D02*
X156902381Y-67954819D01*
X156902381Y-67954819D02*
X157140476Y-67954819D01*
X157140476Y-67954819D02*
X157235714Y-67907200D01*
X157235714Y-67907200D02*
X157283333Y-67859580D01*
X157283333Y-67859580D02*
X157330952Y-67764342D01*
X157330952Y-67764342D02*
X157330952Y-67669104D01*
X157330952Y-67669104D02*
X157283333Y-67573866D01*
X157283333Y-67573866D02*
X157235714Y-67526247D01*
X157235714Y-67526247D02*
X157140476Y-67478628D01*
X157140476Y-67478628D02*
X156950000Y-67431009D01*
X156950000Y-67431009D02*
X156854762Y-67383390D01*
X156854762Y-67383390D02*
X156807143Y-67335771D01*
X156807143Y-67335771D02*
X156759524Y-67240533D01*
X156759524Y-67240533D02*
X156759524Y-67145295D01*
X156759524Y-67145295D02*
X156807143Y-67050057D01*
X156807143Y-67050057D02*
X156854762Y-67002438D01*
X156854762Y-67002438D02*
X156950000Y-66954819D01*
X156950000Y-66954819D02*
X157188095Y-66954819D01*
X157188095Y-66954819D02*
X157330952Y-67002438D01*
X158045238Y-66954819D02*
X158045238Y-67669104D01*
X158045238Y-67669104D02*
X157997619Y-67811961D01*
X157997619Y-67811961D02*
X157902381Y-67907200D01*
X157902381Y-67907200D02*
X157759524Y-67954819D01*
X157759524Y-67954819D02*
X157664286Y-67954819D01*
X158997619Y-66954819D02*
X158521429Y-66954819D01*
X158521429Y-66954819D02*
X158473810Y-67431009D01*
X158473810Y-67431009D02*
X158521429Y-67383390D01*
X158521429Y-67383390D02*
X158616667Y-67335771D01*
X158616667Y-67335771D02*
X158854762Y-67335771D01*
X158854762Y-67335771D02*
X158950000Y-67383390D01*
X158950000Y-67383390D02*
X158997619Y-67431009D01*
X158997619Y-67431009D02*
X159045238Y-67526247D01*
X159045238Y-67526247D02*
X159045238Y-67764342D01*
X159045238Y-67764342D02*
X158997619Y-67859580D01*
X158997619Y-67859580D02*
X158950000Y-67907200D01*
X158950000Y-67907200D02*
X158854762Y-67954819D01*
X158854762Y-67954819D02*
X158616667Y-67954819D01*
X158616667Y-67954819D02*
X158521429Y-67907200D01*
X158521429Y-67907200D02*
X158473810Y-67859580D01*
X159950000Y-66954819D02*
X159473810Y-66954819D01*
X159473810Y-66954819D02*
X159426191Y-67431009D01*
X159426191Y-67431009D02*
X159473810Y-67383390D01*
X159473810Y-67383390D02*
X159569048Y-67335771D01*
X159569048Y-67335771D02*
X159807143Y-67335771D01*
X159807143Y-67335771D02*
X159902381Y-67383390D01*
X159902381Y-67383390D02*
X159950000Y-67431009D01*
X159950000Y-67431009D02*
X159997619Y-67526247D01*
X159997619Y-67526247D02*
X159997619Y-67764342D01*
X159997619Y-67764342D02*
X159950000Y-67859580D01*
X159950000Y-67859580D02*
X159902381Y-67907200D01*
X159902381Y-67907200D02*
X159807143Y-67954819D01*
X159807143Y-67954819D02*
X159569048Y-67954819D01*
X159569048Y-67954819D02*
X159473810Y-67907200D01*
X159473810Y-67907200D02*
X159426191Y-67859580D01*
X160902381Y-66954819D02*
X160426191Y-66954819D01*
X160426191Y-66954819D02*
X160378572Y-67431009D01*
X160378572Y-67431009D02*
X160426191Y-67383390D01*
X160426191Y-67383390D02*
X160521429Y-67335771D01*
X160521429Y-67335771D02*
X160759524Y-67335771D01*
X160759524Y-67335771D02*
X160854762Y-67383390D01*
X160854762Y-67383390D02*
X160902381Y-67431009D01*
X160902381Y-67431009D02*
X160950000Y-67526247D01*
X160950000Y-67526247D02*
X160950000Y-67764342D01*
X160950000Y-67764342D02*
X160902381Y-67859580D01*
X160902381Y-67859580D02*
X160854762Y-67907200D01*
X160854762Y-67907200D02*
X160759524Y-67954819D01*
X160759524Y-67954819D02*
X160521429Y-67954819D01*
X160521429Y-67954819D02*
X160426191Y-67907200D01*
X160426191Y-67907200D02*
X160378572Y-67859580D01*
X161378572Y-67573866D02*
X162140477Y-67573866D01*
X162616667Y-67431009D02*
X162950000Y-67431009D01*
X163092857Y-67954819D02*
X162616667Y-67954819D01*
X162616667Y-67954819D02*
X162616667Y-66954819D01*
X162616667Y-66954819D02*
X163092857Y-66954819D01*
X159354761Y-60430057D02*
X159259523Y-60382438D01*
X159259523Y-60382438D02*
X159164285Y-60287200D01*
X159164285Y-60287200D02*
X159021428Y-60144342D01*
X159021428Y-60144342D02*
X158926190Y-60096723D01*
X158926190Y-60096723D02*
X158830952Y-60096723D01*
X158878571Y-60334819D02*
X158783333Y-60287200D01*
X158783333Y-60287200D02*
X158688095Y-60191961D01*
X158688095Y-60191961D02*
X158640476Y-60001485D01*
X158640476Y-60001485D02*
X158640476Y-59668152D01*
X158640476Y-59668152D02*
X158688095Y-59477676D01*
X158688095Y-59477676D02*
X158783333Y-59382438D01*
X158783333Y-59382438D02*
X158878571Y-59334819D01*
X158878571Y-59334819D02*
X159069047Y-59334819D01*
X159069047Y-59334819D02*
X159164285Y-59382438D01*
X159164285Y-59382438D02*
X159259523Y-59477676D01*
X159259523Y-59477676D02*
X159307142Y-59668152D01*
X159307142Y-59668152D02*
X159307142Y-60001485D01*
X159307142Y-60001485D02*
X159259523Y-60191961D01*
X159259523Y-60191961D02*
X159164285Y-60287200D01*
X159164285Y-60287200D02*
X159069047Y-60334819D01*
X159069047Y-60334819D02*
X158878571Y-60334819D01*
X160164285Y-59334819D02*
X159973809Y-59334819D01*
X159973809Y-59334819D02*
X159878571Y-59382438D01*
X159878571Y-59382438D02*
X159830952Y-59430057D01*
X159830952Y-59430057D02*
X159735714Y-59572914D01*
X159735714Y-59572914D02*
X159688095Y-59763390D01*
X159688095Y-59763390D02*
X159688095Y-60144342D01*
X159688095Y-60144342D02*
X159735714Y-60239580D01*
X159735714Y-60239580D02*
X159783333Y-60287200D01*
X159783333Y-60287200D02*
X159878571Y-60334819D01*
X159878571Y-60334819D02*
X160069047Y-60334819D01*
X160069047Y-60334819D02*
X160164285Y-60287200D01*
X160164285Y-60287200D02*
X160211904Y-60239580D01*
X160211904Y-60239580D02*
X160259523Y-60144342D01*
X160259523Y-60144342D02*
X160259523Y-59906247D01*
X160259523Y-59906247D02*
X160211904Y-59811009D01*
X160211904Y-59811009D02*
X160164285Y-59763390D01*
X160164285Y-59763390D02*
X160069047Y-59715771D01*
X160069047Y-59715771D02*
X159878571Y-59715771D01*
X159878571Y-59715771D02*
X159783333Y-59763390D01*
X159783333Y-59763390D02*
X159735714Y-59811009D01*
X159735714Y-59811009D02*
X159688095Y-59906247D01*
X172214285Y-51654819D02*
X172214285Y-50654819D01*
X172214285Y-50654819D02*
X172547618Y-51369104D01*
X172547618Y-51369104D02*
X172880951Y-50654819D01*
X172880951Y-50654819D02*
X172880951Y-51654819D01*
X173499999Y-51654819D02*
X173404761Y-51607200D01*
X173404761Y-51607200D02*
X173357142Y-51559580D01*
X173357142Y-51559580D02*
X173309523Y-51464342D01*
X173309523Y-51464342D02*
X173309523Y-51178628D01*
X173309523Y-51178628D02*
X173357142Y-51083390D01*
X173357142Y-51083390D02*
X173404761Y-51035771D01*
X173404761Y-51035771D02*
X173499999Y-50988152D01*
X173499999Y-50988152D02*
X173642856Y-50988152D01*
X173642856Y-50988152D02*
X173738094Y-51035771D01*
X173738094Y-51035771D02*
X173785713Y-51083390D01*
X173785713Y-51083390D02*
X173833332Y-51178628D01*
X173833332Y-51178628D02*
X173833332Y-51464342D01*
X173833332Y-51464342D02*
X173785713Y-51559580D01*
X173785713Y-51559580D02*
X173738094Y-51607200D01*
X173738094Y-51607200D02*
X173642856Y-51654819D01*
X173642856Y-51654819D02*
X173499999Y-51654819D01*
X174690475Y-50988152D02*
X174690475Y-51654819D01*
X174261904Y-50988152D02*
X174261904Y-51511961D01*
X174261904Y-51511961D02*
X174309523Y-51607200D01*
X174309523Y-51607200D02*
X174404761Y-51654819D01*
X174404761Y-51654819D02*
X174547618Y-51654819D01*
X174547618Y-51654819D02*
X174642856Y-51607200D01*
X174642856Y-51607200D02*
X174690475Y-51559580D01*
X175166666Y-50988152D02*
X175166666Y-51654819D01*
X175166666Y-51083390D02*
X175214285Y-51035771D01*
X175214285Y-51035771D02*
X175309523Y-50988152D01*
X175309523Y-50988152D02*
X175452380Y-50988152D01*
X175452380Y-50988152D02*
X175547618Y-51035771D01*
X175547618Y-51035771D02*
X175595237Y-51131009D01*
X175595237Y-51131009D02*
X175595237Y-51654819D01*
X175928571Y-50988152D02*
X176309523Y-50988152D01*
X176071428Y-50654819D02*
X176071428Y-51511961D01*
X176071428Y-51511961D02*
X176119047Y-51607200D01*
X176119047Y-51607200D02*
X176214285Y-51654819D01*
X176214285Y-51654819D02*
X176309523Y-51654819D01*
X176642857Y-51654819D02*
X176642857Y-50988152D01*
X176642857Y-50654819D02*
X176595238Y-50702438D01*
X176595238Y-50702438D02*
X176642857Y-50750057D01*
X176642857Y-50750057D02*
X176690476Y-50702438D01*
X176690476Y-50702438D02*
X176642857Y-50654819D01*
X176642857Y-50654819D02*
X176642857Y-50750057D01*
X177119047Y-50988152D02*
X177119047Y-51654819D01*
X177119047Y-51083390D02*
X177166666Y-51035771D01*
X177166666Y-51035771D02*
X177261904Y-50988152D01*
X177261904Y-50988152D02*
X177404761Y-50988152D01*
X177404761Y-50988152D02*
X177499999Y-51035771D01*
X177499999Y-51035771D02*
X177547618Y-51131009D01*
X177547618Y-51131009D02*
X177547618Y-51654819D01*
X178452380Y-50988152D02*
X178452380Y-51797676D01*
X178452380Y-51797676D02*
X178404761Y-51892914D01*
X178404761Y-51892914D02*
X178357142Y-51940533D01*
X178357142Y-51940533D02*
X178261904Y-51988152D01*
X178261904Y-51988152D02*
X178119047Y-51988152D01*
X178119047Y-51988152D02*
X178023809Y-51940533D01*
X178452380Y-51607200D02*
X178357142Y-51654819D01*
X178357142Y-51654819D02*
X178166666Y-51654819D01*
X178166666Y-51654819D02*
X178071428Y-51607200D01*
X178071428Y-51607200D02*
X178023809Y-51559580D01*
X178023809Y-51559580D02*
X177976190Y-51464342D01*
X177976190Y-51464342D02*
X177976190Y-51178628D01*
X177976190Y-51178628D02*
X178023809Y-51083390D01*
X178023809Y-51083390D02*
X178071428Y-51035771D01*
X178071428Y-51035771D02*
X178166666Y-50988152D01*
X178166666Y-50988152D02*
X178357142Y-50988152D01*
X178357142Y-50988152D02*
X178452380Y-51035771D01*
X178928571Y-51654819D02*
X178928571Y-50654819D01*
X178928571Y-51131009D02*
X179499999Y-51131009D01*
X179499999Y-51654819D02*
X179499999Y-50654819D01*
X180119047Y-51654819D02*
X180023809Y-51607200D01*
X180023809Y-51607200D02*
X179976190Y-51559580D01*
X179976190Y-51559580D02*
X179928571Y-51464342D01*
X179928571Y-51464342D02*
X179928571Y-51178628D01*
X179928571Y-51178628D02*
X179976190Y-51083390D01*
X179976190Y-51083390D02*
X180023809Y-51035771D01*
X180023809Y-51035771D02*
X180119047Y-50988152D01*
X180119047Y-50988152D02*
X180261904Y-50988152D01*
X180261904Y-50988152D02*
X180357142Y-51035771D01*
X180357142Y-51035771D02*
X180404761Y-51083390D01*
X180404761Y-51083390D02*
X180452380Y-51178628D01*
X180452380Y-51178628D02*
X180452380Y-51464342D01*
X180452380Y-51464342D02*
X180404761Y-51559580D01*
X180404761Y-51559580D02*
X180357142Y-51607200D01*
X180357142Y-51607200D02*
X180261904Y-51654819D01*
X180261904Y-51654819D02*
X180119047Y-51654819D01*
X181023809Y-51654819D02*
X180928571Y-51607200D01*
X180928571Y-51607200D02*
X180880952Y-51511961D01*
X180880952Y-51511961D02*
X180880952Y-50654819D01*
X181785714Y-51607200D02*
X181690476Y-51654819D01*
X181690476Y-51654819D02*
X181500000Y-51654819D01*
X181500000Y-51654819D02*
X181404762Y-51607200D01*
X181404762Y-51607200D02*
X181357143Y-51511961D01*
X181357143Y-51511961D02*
X181357143Y-51131009D01*
X181357143Y-51131009D02*
X181404762Y-51035771D01*
X181404762Y-51035771D02*
X181500000Y-50988152D01*
X181500000Y-50988152D02*
X181690476Y-50988152D01*
X181690476Y-50988152D02*
X181785714Y-51035771D01*
X181785714Y-51035771D02*
X181833333Y-51131009D01*
X181833333Y-51131009D02*
X181833333Y-51226247D01*
X181833333Y-51226247D02*
X181357143Y-51321485D01*
X176238095Y-47454819D02*
X176238095Y-46454819D01*
X176238095Y-46931009D02*
X176809523Y-46931009D01*
X176809523Y-47454819D02*
X176809523Y-46454819D01*
X177238095Y-46550057D02*
X177285714Y-46502438D01*
X177285714Y-46502438D02*
X177380952Y-46454819D01*
X177380952Y-46454819D02*
X177619047Y-46454819D01*
X177619047Y-46454819D02*
X177714285Y-46502438D01*
X177714285Y-46502438D02*
X177761904Y-46550057D01*
X177761904Y-46550057D02*
X177809523Y-46645295D01*
X177809523Y-46645295D02*
X177809523Y-46740533D01*
X177809523Y-46740533D02*
X177761904Y-46883390D01*
X177761904Y-46883390D02*
X177190476Y-47454819D01*
X177190476Y-47454819D02*
X177809523Y-47454819D01*
X173158095Y-117418152D02*
X173158095Y-118084819D01*
X172920000Y-117037200D02*
X172681905Y-117751485D01*
X172681905Y-117751485D02*
X173300952Y-117751485D01*
X173586667Y-117084819D02*
X174253333Y-117084819D01*
X174253333Y-117084819D02*
X173824762Y-118084819D01*
X174824762Y-117084819D02*
X174920000Y-117084819D01*
X174920000Y-117084819D02*
X175015238Y-117132438D01*
X175015238Y-117132438D02*
X175062857Y-117180057D01*
X175062857Y-117180057D02*
X175110476Y-117275295D01*
X175110476Y-117275295D02*
X175158095Y-117465771D01*
X175158095Y-117465771D02*
X175158095Y-117703866D01*
X175158095Y-117703866D02*
X175110476Y-117894342D01*
X175110476Y-117894342D02*
X175062857Y-117989580D01*
X175062857Y-117989580D02*
X175015238Y-118037200D01*
X175015238Y-118037200D02*
X174920000Y-118084819D01*
X174920000Y-118084819D02*
X174824762Y-118084819D01*
X174824762Y-118084819D02*
X174729524Y-118037200D01*
X174729524Y-118037200D02*
X174681905Y-117989580D01*
X174681905Y-117989580D02*
X174634286Y-117894342D01*
X174634286Y-117894342D02*
X174586667Y-117703866D01*
X174586667Y-117703866D02*
X174586667Y-117465771D01*
X174586667Y-117465771D02*
X174634286Y-117275295D01*
X174634286Y-117275295D02*
X174681905Y-117180057D01*
X174681905Y-117180057D02*
X174729524Y-117132438D01*
X174729524Y-117132438D02*
X174824762Y-117084819D01*
X173753333Y-120454819D02*
X173420000Y-119978628D01*
X173181905Y-120454819D02*
X173181905Y-119454819D01*
X173181905Y-119454819D02*
X173562857Y-119454819D01*
X173562857Y-119454819D02*
X173658095Y-119502438D01*
X173658095Y-119502438D02*
X173705714Y-119550057D01*
X173705714Y-119550057D02*
X173753333Y-119645295D01*
X173753333Y-119645295D02*
X173753333Y-119788152D01*
X173753333Y-119788152D02*
X173705714Y-119883390D01*
X173705714Y-119883390D02*
X173658095Y-119931009D01*
X173658095Y-119931009D02*
X173562857Y-119978628D01*
X173562857Y-119978628D02*
X173181905Y-119978628D01*
X174229524Y-120454819D02*
X174420000Y-120454819D01*
X174420000Y-120454819D02*
X174515238Y-120407200D01*
X174515238Y-120407200D02*
X174562857Y-120359580D01*
X174562857Y-120359580D02*
X174658095Y-120216723D01*
X174658095Y-120216723D02*
X174705714Y-120026247D01*
X174705714Y-120026247D02*
X174705714Y-119645295D01*
X174705714Y-119645295D02*
X174658095Y-119550057D01*
X174658095Y-119550057D02*
X174610476Y-119502438D01*
X174610476Y-119502438D02*
X174515238Y-119454819D01*
X174515238Y-119454819D02*
X174324762Y-119454819D01*
X174324762Y-119454819D02*
X174229524Y-119502438D01*
X174229524Y-119502438D02*
X174181905Y-119550057D01*
X174181905Y-119550057D02*
X174134286Y-119645295D01*
X174134286Y-119645295D02*
X174134286Y-119883390D01*
X174134286Y-119883390D02*
X174181905Y-119978628D01*
X174181905Y-119978628D02*
X174229524Y-120026247D01*
X174229524Y-120026247D02*
X174324762Y-120073866D01*
X174324762Y-120073866D02*
X174515238Y-120073866D01*
X174515238Y-120073866D02*
X174610476Y-120026247D01*
X174610476Y-120026247D02*
X174658095Y-119978628D01*
X174658095Y-119978628D02*
X174705714Y-119883390D01*
X92214285Y-51654819D02*
X92214285Y-50654819D01*
X92214285Y-50654819D02*
X92547618Y-51369104D01*
X92547618Y-51369104D02*
X92880951Y-50654819D01*
X92880951Y-50654819D02*
X92880951Y-51654819D01*
X93499999Y-51654819D02*
X93404761Y-51607200D01*
X93404761Y-51607200D02*
X93357142Y-51559580D01*
X93357142Y-51559580D02*
X93309523Y-51464342D01*
X93309523Y-51464342D02*
X93309523Y-51178628D01*
X93309523Y-51178628D02*
X93357142Y-51083390D01*
X93357142Y-51083390D02*
X93404761Y-51035771D01*
X93404761Y-51035771D02*
X93499999Y-50988152D01*
X93499999Y-50988152D02*
X93642856Y-50988152D01*
X93642856Y-50988152D02*
X93738094Y-51035771D01*
X93738094Y-51035771D02*
X93785713Y-51083390D01*
X93785713Y-51083390D02*
X93833332Y-51178628D01*
X93833332Y-51178628D02*
X93833332Y-51464342D01*
X93833332Y-51464342D02*
X93785713Y-51559580D01*
X93785713Y-51559580D02*
X93738094Y-51607200D01*
X93738094Y-51607200D02*
X93642856Y-51654819D01*
X93642856Y-51654819D02*
X93499999Y-51654819D01*
X94690475Y-50988152D02*
X94690475Y-51654819D01*
X94261904Y-50988152D02*
X94261904Y-51511961D01*
X94261904Y-51511961D02*
X94309523Y-51607200D01*
X94309523Y-51607200D02*
X94404761Y-51654819D01*
X94404761Y-51654819D02*
X94547618Y-51654819D01*
X94547618Y-51654819D02*
X94642856Y-51607200D01*
X94642856Y-51607200D02*
X94690475Y-51559580D01*
X95166666Y-50988152D02*
X95166666Y-51654819D01*
X95166666Y-51083390D02*
X95214285Y-51035771D01*
X95214285Y-51035771D02*
X95309523Y-50988152D01*
X95309523Y-50988152D02*
X95452380Y-50988152D01*
X95452380Y-50988152D02*
X95547618Y-51035771D01*
X95547618Y-51035771D02*
X95595237Y-51131009D01*
X95595237Y-51131009D02*
X95595237Y-51654819D01*
X95928571Y-50988152D02*
X96309523Y-50988152D01*
X96071428Y-50654819D02*
X96071428Y-51511961D01*
X96071428Y-51511961D02*
X96119047Y-51607200D01*
X96119047Y-51607200D02*
X96214285Y-51654819D01*
X96214285Y-51654819D02*
X96309523Y-51654819D01*
X96642857Y-51654819D02*
X96642857Y-50988152D01*
X96642857Y-50654819D02*
X96595238Y-50702438D01*
X96595238Y-50702438D02*
X96642857Y-50750057D01*
X96642857Y-50750057D02*
X96690476Y-50702438D01*
X96690476Y-50702438D02*
X96642857Y-50654819D01*
X96642857Y-50654819D02*
X96642857Y-50750057D01*
X97119047Y-50988152D02*
X97119047Y-51654819D01*
X97119047Y-51083390D02*
X97166666Y-51035771D01*
X97166666Y-51035771D02*
X97261904Y-50988152D01*
X97261904Y-50988152D02*
X97404761Y-50988152D01*
X97404761Y-50988152D02*
X97499999Y-51035771D01*
X97499999Y-51035771D02*
X97547618Y-51131009D01*
X97547618Y-51131009D02*
X97547618Y-51654819D01*
X98452380Y-50988152D02*
X98452380Y-51797676D01*
X98452380Y-51797676D02*
X98404761Y-51892914D01*
X98404761Y-51892914D02*
X98357142Y-51940533D01*
X98357142Y-51940533D02*
X98261904Y-51988152D01*
X98261904Y-51988152D02*
X98119047Y-51988152D01*
X98119047Y-51988152D02*
X98023809Y-51940533D01*
X98452380Y-51607200D02*
X98357142Y-51654819D01*
X98357142Y-51654819D02*
X98166666Y-51654819D01*
X98166666Y-51654819D02*
X98071428Y-51607200D01*
X98071428Y-51607200D02*
X98023809Y-51559580D01*
X98023809Y-51559580D02*
X97976190Y-51464342D01*
X97976190Y-51464342D02*
X97976190Y-51178628D01*
X97976190Y-51178628D02*
X98023809Y-51083390D01*
X98023809Y-51083390D02*
X98071428Y-51035771D01*
X98071428Y-51035771D02*
X98166666Y-50988152D01*
X98166666Y-50988152D02*
X98357142Y-50988152D01*
X98357142Y-50988152D02*
X98452380Y-51035771D01*
X98928571Y-51654819D02*
X98928571Y-50654819D01*
X98928571Y-51131009D02*
X99499999Y-51131009D01*
X99499999Y-51654819D02*
X99499999Y-50654819D01*
X100119047Y-51654819D02*
X100023809Y-51607200D01*
X100023809Y-51607200D02*
X99976190Y-51559580D01*
X99976190Y-51559580D02*
X99928571Y-51464342D01*
X99928571Y-51464342D02*
X99928571Y-51178628D01*
X99928571Y-51178628D02*
X99976190Y-51083390D01*
X99976190Y-51083390D02*
X100023809Y-51035771D01*
X100023809Y-51035771D02*
X100119047Y-50988152D01*
X100119047Y-50988152D02*
X100261904Y-50988152D01*
X100261904Y-50988152D02*
X100357142Y-51035771D01*
X100357142Y-51035771D02*
X100404761Y-51083390D01*
X100404761Y-51083390D02*
X100452380Y-51178628D01*
X100452380Y-51178628D02*
X100452380Y-51464342D01*
X100452380Y-51464342D02*
X100404761Y-51559580D01*
X100404761Y-51559580D02*
X100357142Y-51607200D01*
X100357142Y-51607200D02*
X100261904Y-51654819D01*
X100261904Y-51654819D02*
X100119047Y-51654819D01*
X101023809Y-51654819D02*
X100928571Y-51607200D01*
X100928571Y-51607200D02*
X100880952Y-51511961D01*
X100880952Y-51511961D02*
X100880952Y-50654819D01*
X101785714Y-51607200D02*
X101690476Y-51654819D01*
X101690476Y-51654819D02*
X101500000Y-51654819D01*
X101500000Y-51654819D02*
X101404762Y-51607200D01*
X101404762Y-51607200D02*
X101357143Y-51511961D01*
X101357143Y-51511961D02*
X101357143Y-51131009D01*
X101357143Y-51131009D02*
X101404762Y-51035771D01*
X101404762Y-51035771D02*
X101500000Y-50988152D01*
X101500000Y-50988152D02*
X101690476Y-50988152D01*
X101690476Y-50988152D02*
X101785714Y-51035771D01*
X101785714Y-51035771D02*
X101833333Y-51131009D01*
X101833333Y-51131009D02*
X101833333Y-51226247D01*
X101833333Y-51226247D02*
X101357143Y-51321485D01*
X96238095Y-47454819D02*
X96238095Y-46454819D01*
X96238095Y-46931009D02*
X96809523Y-46931009D01*
X96809523Y-47454819D02*
X96809523Y-46454819D01*
X97809523Y-47454819D02*
X97238095Y-47454819D01*
X97523809Y-47454819D02*
X97523809Y-46454819D01*
X97523809Y-46454819D02*
X97428571Y-46597676D01*
X97428571Y-46597676D02*
X97333333Y-46692914D01*
X97333333Y-46692914D02*
X97238095Y-46740533D01*
X143285714Y-109954819D02*
X143380952Y-109954819D01*
X143380952Y-109954819D02*
X143476190Y-110002438D01*
X143476190Y-110002438D02*
X143523809Y-110050057D01*
X143523809Y-110050057D02*
X143571428Y-110145295D01*
X143571428Y-110145295D02*
X143619047Y-110335771D01*
X143619047Y-110335771D02*
X143619047Y-110573866D01*
X143619047Y-110573866D02*
X143571428Y-110764342D01*
X143571428Y-110764342D02*
X143523809Y-110859580D01*
X143523809Y-110859580D02*
X143476190Y-110907200D01*
X143476190Y-110907200D02*
X143380952Y-110954819D01*
X143380952Y-110954819D02*
X143285714Y-110954819D01*
X143285714Y-110954819D02*
X143190476Y-110907200D01*
X143190476Y-110907200D02*
X143142857Y-110859580D01*
X143142857Y-110859580D02*
X143095238Y-110764342D01*
X143095238Y-110764342D02*
X143047619Y-110573866D01*
X143047619Y-110573866D02*
X143047619Y-110335771D01*
X143047619Y-110335771D02*
X143095238Y-110145295D01*
X143095238Y-110145295D02*
X143142857Y-110050057D01*
X143142857Y-110050057D02*
X143190476Y-110002438D01*
X143190476Y-110002438D02*
X143285714Y-109954819D01*
X144047619Y-110859580D02*
X144095238Y-110907200D01*
X144095238Y-110907200D02*
X144047619Y-110954819D01*
X144047619Y-110954819D02*
X144000000Y-110907200D01*
X144000000Y-110907200D02*
X144047619Y-110859580D01*
X144047619Y-110859580D02*
X144047619Y-110954819D01*
X145047618Y-110954819D02*
X144476190Y-110954819D01*
X144761904Y-110954819D02*
X144761904Y-109954819D01*
X144761904Y-109954819D02*
X144666666Y-110097676D01*
X144666666Y-110097676D02*
X144571428Y-110192914D01*
X144571428Y-110192914D02*
X144476190Y-110240533D01*
X145904761Y-110288152D02*
X145904761Y-110954819D01*
X145476190Y-110288152D02*
X145476190Y-110811961D01*
X145476190Y-110811961D02*
X145523809Y-110907200D01*
X145523809Y-110907200D02*
X145619047Y-110954819D01*
X145619047Y-110954819D02*
X145761904Y-110954819D01*
X145761904Y-110954819D02*
X145857142Y-110907200D01*
X145857142Y-110907200D02*
X145904761Y-110859580D01*
X144333333Y-114359580D02*
X144285714Y-114407200D01*
X144285714Y-114407200D02*
X144142857Y-114454819D01*
X144142857Y-114454819D02*
X144047619Y-114454819D01*
X144047619Y-114454819D02*
X143904762Y-114407200D01*
X143904762Y-114407200D02*
X143809524Y-114311961D01*
X143809524Y-114311961D02*
X143761905Y-114216723D01*
X143761905Y-114216723D02*
X143714286Y-114026247D01*
X143714286Y-114026247D02*
X143714286Y-113883390D01*
X143714286Y-113883390D02*
X143761905Y-113692914D01*
X143761905Y-113692914D02*
X143809524Y-113597676D01*
X143809524Y-113597676D02*
X143904762Y-113502438D01*
X143904762Y-113502438D02*
X144047619Y-113454819D01*
X144047619Y-113454819D02*
X144142857Y-113454819D01*
X144142857Y-113454819D02*
X144285714Y-113502438D01*
X144285714Y-113502438D02*
X144333333Y-113550057D01*
X145190476Y-113788152D02*
X145190476Y-114454819D01*
X144952381Y-113407200D02*
X144714286Y-114121485D01*
X144714286Y-114121485D02*
X145333333Y-114121485D01*
X143056190Y-129158152D02*
X143056190Y-129824819D01*
X142818095Y-128777200D02*
X142580000Y-129491485D01*
X142580000Y-129491485D02*
X143199047Y-129491485D01*
X143580000Y-129729580D02*
X143627619Y-129777200D01*
X143627619Y-129777200D02*
X143580000Y-129824819D01*
X143580000Y-129824819D02*
X143532381Y-129777200D01*
X143532381Y-129777200D02*
X143580000Y-129729580D01*
X143580000Y-129729580D02*
X143580000Y-129824819D01*
X143960952Y-128824819D02*
X144627618Y-128824819D01*
X144627618Y-128824819D02*
X144199047Y-129824819D01*
X145008571Y-129824819D02*
X145008571Y-128824819D01*
X145579999Y-129824819D02*
X145151428Y-129253390D01*
X145579999Y-128824819D02*
X145008571Y-129396247D01*
X143913333Y-127454819D02*
X143580000Y-126978628D01*
X143341905Y-127454819D02*
X143341905Y-126454819D01*
X143341905Y-126454819D02*
X143722857Y-126454819D01*
X143722857Y-126454819D02*
X143818095Y-126502438D01*
X143818095Y-126502438D02*
X143865714Y-126550057D01*
X143865714Y-126550057D02*
X143913333Y-126645295D01*
X143913333Y-126645295D02*
X143913333Y-126788152D01*
X143913333Y-126788152D02*
X143865714Y-126883390D01*
X143865714Y-126883390D02*
X143818095Y-126931009D01*
X143818095Y-126931009D02*
X143722857Y-126978628D01*
X143722857Y-126978628D02*
X143341905Y-126978628D01*
X144246667Y-126454819D02*
X144913333Y-126454819D01*
X144913333Y-126454819D02*
X144484762Y-127454819D01*
X113931009Y-136242857D02*
X113931009Y-135909524D01*
X114454819Y-135766667D02*
X114454819Y-136242857D01*
X114454819Y-136242857D02*
X113454819Y-136242857D01*
X113454819Y-136242857D02*
X113454819Y-135766667D01*
X114407200Y-135385714D02*
X114454819Y-135242857D01*
X114454819Y-135242857D02*
X114454819Y-135004762D01*
X114454819Y-135004762D02*
X114407200Y-134909524D01*
X114407200Y-134909524D02*
X114359580Y-134861905D01*
X114359580Y-134861905D02*
X114264342Y-134814286D01*
X114264342Y-134814286D02*
X114169104Y-134814286D01*
X114169104Y-134814286D02*
X114073866Y-134861905D01*
X114073866Y-134861905D02*
X114026247Y-134909524D01*
X114026247Y-134909524D02*
X113978628Y-135004762D01*
X113978628Y-135004762D02*
X113931009Y-135195238D01*
X113931009Y-135195238D02*
X113883390Y-135290476D01*
X113883390Y-135290476D02*
X113835771Y-135338095D01*
X113835771Y-135338095D02*
X113740533Y-135385714D01*
X113740533Y-135385714D02*
X113645295Y-135385714D01*
X113645295Y-135385714D02*
X113550057Y-135338095D01*
X113550057Y-135338095D02*
X113502438Y-135290476D01*
X113502438Y-135290476D02*
X113454819Y-135195238D01*
X113454819Y-135195238D02*
X113454819Y-134957143D01*
X113454819Y-134957143D02*
X113502438Y-134814286D01*
X113788152Y-134528571D02*
X113788152Y-134147619D01*
X113454819Y-134385714D02*
X114311961Y-134385714D01*
X114311961Y-134385714D02*
X114407200Y-134338095D01*
X114407200Y-134338095D02*
X114454819Y-134242857D01*
X114454819Y-134242857D02*
X114454819Y-134147619D01*
X114454819Y-133671428D02*
X114407200Y-133766666D01*
X114407200Y-133766666D02*
X114359580Y-133814285D01*
X114359580Y-133814285D02*
X114264342Y-133861904D01*
X114264342Y-133861904D02*
X113978628Y-133861904D01*
X113978628Y-133861904D02*
X113883390Y-133814285D01*
X113883390Y-133814285D02*
X113835771Y-133766666D01*
X113835771Y-133766666D02*
X113788152Y-133671428D01*
X113788152Y-133671428D02*
X113788152Y-133528571D01*
X113788152Y-133528571D02*
X113835771Y-133433333D01*
X113835771Y-133433333D02*
X113883390Y-133385714D01*
X113883390Y-133385714D02*
X113978628Y-133338095D01*
X113978628Y-133338095D02*
X114264342Y-133338095D01*
X114264342Y-133338095D02*
X114359580Y-133385714D01*
X114359580Y-133385714D02*
X114407200Y-133433333D01*
X114407200Y-133433333D02*
X114454819Y-133528571D01*
X114454819Y-133528571D02*
X114454819Y-133671428D01*
X113788152Y-132909523D02*
X114788152Y-132909523D01*
X113835771Y-132909523D02*
X113788152Y-132814285D01*
X113788152Y-132814285D02*
X113788152Y-132623809D01*
X113788152Y-132623809D02*
X113835771Y-132528571D01*
X113835771Y-132528571D02*
X113883390Y-132480952D01*
X113883390Y-132480952D02*
X113978628Y-132433333D01*
X113978628Y-132433333D02*
X114264342Y-132433333D01*
X114264342Y-132433333D02*
X114359580Y-132480952D01*
X114359580Y-132480952D02*
X114407200Y-132528571D01*
X114407200Y-132528571D02*
X114454819Y-132623809D01*
X114454819Y-132623809D02*
X114454819Y-132814285D01*
X114454819Y-132814285D02*
X114407200Y-132909523D01*
X114550057Y-132242857D02*
X114550057Y-131480952D01*
X114454819Y-131242856D02*
X113454819Y-131242856D01*
X113835771Y-131242856D02*
X113788152Y-131147618D01*
X113788152Y-131147618D02*
X113788152Y-130957142D01*
X113788152Y-130957142D02*
X113835771Y-130861904D01*
X113835771Y-130861904D02*
X113883390Y-130814285D01*
X113883390Y-130814285D02*
X113978628Y-130766666D01*
X113978628Y-130766666D02*
X114264342Y-130766666D01*
X114264342Y-130766666D02*
X114359580Y-130814285D01*
X114359580Y-130814285D02*
X114407200Y-130861904D01*
X114407200Y-130861904D02*
X114454819Y-130957142D01*
X114454819Y-130957142D02*
X114454819Y-131147618D01*
X114454819Y-131147618D02*
X114407200Y-131242856D01*
X113788152Y-129909523D02*
X114454819Y-129909523D01*
X113788152Y-130338094D02*
X114311961Y-130338094D01*
X114311961Y-130338094D02*
X114407200Y-130290475D01*
X114407200Y-130290475D02*
X114454819Y-130195237D01*
X114454819Y-130195237D02*
X114454819Y-130052380D01*
X114454819Y-130052380D02*
X114407200Y-129957142D01*
X114407200Y-129957142D02*
X114359580Y-129909523D01*
X113788152Y-129576189D02*
X113788152Y-129195237D01*
X113454819Y-129433332D02*
X114311961Y-129433332D01*
X114311961Y-129433332D02*
X114407200Y-129385713D01*
X114407200Y-129385713D02*
X114454819Y-129290475D01*
X114454819Y-129290475D02*
X114454819Y-129195237D01*
X113788152Y-129004760D02*
X113788152Y-128623808D01*
X113454819Y-128861903D02*
X114311961Y-128861903D01*
X114311961Y-128861903D02*
X114407200Y-128814284D01*
X114407200Y-128814284D02*
X114454819Y-128719046D01*
X114454819Y-128719046D02*
X114454819Y-128623808D01*
X114454819Y-128147617D02*
X114407200Y-128242855D01*
X114407200Y-128242855D02*
X114359580Y-128290474D01*
X114359580Y-128290474D02*
X114264342Y-128338093D01*
X114264342Y-128338093D02*
X113978628Y-128338093D01*
X113978628Y-128338093D02*
X113883390Y-128290474D01*
X113883390Y-128290474D02*
X113835771Y-128242855D01*
X113835771Y-128242855D02*
X113788152Y-128147617D01*
X113788152Y-128147617D02*
X113788152Y-128004760D01*
X113788152Y-128004760D02*
X113835771Y-127909522D01*
X113835771Y-127909522D02*
X113883390Y-127861903D01*
X113883390Y-127861903D02*
X113978628Y-127814284D01*
X113978628Y-127814284D02*
X114264342Y-127814284D01*
X114264342Y-127814284D02*
X114359580Y-127861903D01*
X114359580Y-127861903D02*
X114407200Y-127909522D01*
X114407200Y-127909522D02*
X114454819Y-128004760D01*
X114454819Y-128004760D02*
X114454819Y-128147617D01*
X113788152Y-127385712D02*
X114454819Y-127385712D01*
X113883390Y-127385712D02*
X113835771Y-127338093D01*
X113835771Y-127338093D02*
X113788152Y-127242855D01*
X113788152Y-127242855D02*
X113788152Y-127099998D01*
X113788152Y-127099998D02*
X113835771Y-127004760D01*
X113835771Y-127004760D02*
X113931009Y-126957141D01*
X113931009Y-126957141D02*
X114454819Y-126957141D01*
X105854819Y-131933333D02*
X106569104Y-131933333D01*
X106569104Y-131933333D02*
X106711961Y-131980952D01*
X106711961Y-131980952D02*
X106807200Y-132076190D01*
X106807200Y-132076190D02*
X106854819Y-132219047D01*
X106854819Y-132219047D02*
X106854819Y-132314285D01*
X105854819Y-131028571D02*
X105854819Y-131219047D01*
X105854819Y-131219047D02*
X105902438Y-131314285D01*
X105902438Y-131314285D02*
X105950057Y-131361904D01*
X105950057Y-131361904D02*
X106092914Y-131457142D01*
X106092914Y-131457142D02*
X106283390Y-131504761D01*
X106283390Y-131504761D02*
X106664342Y-131504761D01*
X106664342Y-131504761D02*
X106759580Y-131457142D01*
X106759580Y-131457142D02*
X106807200Y-131409523D01*
X106807200Y-131409523D02*
X106854819Y-131314285D01*
X106854819Y-131314285D02*
X106854819Y-131123809D01*
X106854819Y-131123809D02*
X106807200Y-131028571D01*
X106807200Y-131028571D02*
X106759580Y-130980952D01*
X106759580Y-130980952D02*
X106664342Y-130933333D01*
X106664342Y-130933333D02*
X106426247Y-130933333D01*
X106426247Y-130933333D02*
X106331009Y-130980952D01*
X106331009Y-130980952D02*
X106283390Y-131028571D01*
X106283390Y-131028571D02*
X106235771Y-131123809D01*
X106235771Y-131123809D02*
X106235771Y-131314285D01*
X106235771Y-131314285D02*
X106283390Y-131409523D01*
X106283390Y-131409523D02*
X106331009Y-131457142D01*
X106331009Y-131457142D02*
X106426247Y-131504761D01*
X137664819Y-122579523D02*
X136664819Y-122579523D01*
X136664819Y-122579523D02*
X137664819Y-122008095D01*
X137664819Y-122008095D02*
X136664819Y-122008095D01*
X137664819Y-121531904D02*
X136664819Y-121531904D01*
X136664819Y-121531904D02*
X136664819Y-121150952D01*
X136664819Y-121150952D02*
X136712438Y-121055714D01*
X136712438Y-121055714D02*
X136760057Y-121008095D01*
X136760057Y-121008095D02*
X136855295Y-120960476D01*
X136855295Y-120960476D02*
X136998152Y-120960476D01*
X136998152Y-120960476D02*
X137093390Y-121008095D01*
X137093390Y-121008095D02*
X137141009Y-121055714D01*
X137141009Y-121055714D02*
X137188628Y-121150952D01*
X137188628Y-121150952D02*
X137188628Y-121531904D01*
X137664819Y-120531904D02*
X136664819Y-120531904D01*
X136664819Y-120531904D02*
X137664819Y-119960476D01*
X137664819Y-119960476D02*
X136664819Y-119960476D01*
X140550057Y-121365238D02*
X140502438Y-121460476D01*
X140502438Y-121460476D02*
X140407200Y-121555714D01*
X140407200Y-121555714D02*
X140264342Y-121698571D01*
X140264342Y-121698571D02*
X140216723Y-121793809D01*
X140216723Y-121793809D02*
X140216723Y-121889047D01*
X140454819Y-121841428D02*
X140407200Y-121936666D01*
X140407200Y-121936666D02*
X140311961Y-122031904D01*
X140311961Y-122031904D02*
X140121485Y-122079523D01*
X140121485Y-122079523D02*
X139788152Y-122079523D01*
X139788152Y-122079523D02*
X139597676Y-122031904D01*
X139597676Y-122031904D02*
X139502438Y-121936666D01*
X139502438Y-121936666D02*
X139454819Y-121841428D01*
X139454819Y-121841428D02*
X139454819Y-121650952D01*
X139454819Y-121650952D02*
X139502438Y-121555714D01*
X139502438Y-121555714D02*
X139597676Y-121460476D01*
X139597676Y-121460476D02*
X139788152Y-121412857D01*
X139788152Y-121412857D02*
X140121485Y-121412857D01*
X140121485Y-121412857D02*
X140311961Y-121460476D01*
X140311961Y-121460476D02*
X140407200Y-121555714D01*
X140407200Y-121555714D02*
X140454819Y-121650952D01*
X140454819Y-121650952D02*
X140454819Y-121841428D01*
X139788152Y-120555714D02*
X140454819Y-120555714D01*
X139407200Y-120793809D02*
X140121485Y-121031904D01*
X140121485Y-121031904D02*
X140121485Y-120412857D01*
X148318571Y-89334819D02*
X148889999Y-89334819D01*
X148604285Y-90334819D02*
X148604285Y-89334819D01*
X149604285Y-90287200D02*
X149509047Y-90334819D01*
X149509047Y-90334819D02*
X149318571Y-90334819D01*
X149318571Y-90334819D02*
X149223333Y-90287200D01*
X149223333Y-90287200D02*
X149175714Y-90191961D01*
X149175714Y-90191961D02*
X149175714Y-89811009D01*
X149175714Y-89811009D02*
X149223333Y-89715771D01*
X149223333Y-89715771D02*
X149318571Y-89668152D01*
X149318571Y-89668152D02*
X149509047Y-89668152D01*
X149509047Y-89668152D02*
X149604285Y-89715771D01*
X149604285Y-89715771D02*
X149651904Y-89811009D01*
X149651904Y-89811009D02*
X149651904Y-89906247D01*
X149651904Y-89906247D02*
X149175714Y-90001485D01*
X150461428Y-90287200D02*
X150366190Y-90334819D01*
X150366190Y-90334819D02*
X150175714Y-90334819D01*
X150175714Y-90334819D02*
X150080476Y-90287200D01*
X150080476Y-90287200D02*
X150032857Y-90191961D01*
X150032857Y-90191961D02*
X150032857Y-89811009D01*
X150032857Y-89811009D02*
X150080476Y-89715771D01*
X150080476Y-89715771D02*
X150175714Y-89668152D01*
X150175714Y-89668152D02*
X150366190Y-89668152D01*
X150366190Y-89668152D02*
X150461428Y-89715771D01*
X150461428Y-89715771D02*
X150509047Y-89811009D01*
X150509047Y-89811009D02*
X150509047Y-89906247D01*
X150509047Y-89906247D02*
X150032857Y-90001485D01*
X150937619Y-89668152D02*
X150937619Y-90334819D01*
X150937619Y-89763390D02*
X150985238Y-89715771D01*
X150985238Y-89715771D02*
X151080476Y-89668152D01*
X151080476Y-89668152D02*
X151223333Y-89668152D01*
X151223333Y-89668152D02*
X151318571Y-89715771D01*
X151318571Y-89715771D02*
X151366190Y-89811009D01*
X151366190Y-89811009D02*
X151366190Y-90334819D01*
X151794762Y-90287200D02*
X151890000Y-90334819D01*
X151890000Y-90334819D02*
X152080476Y-90334819D01*
X152080476Y-90334819D02*
X152175714Y-90287200D01*
X152175714Y-90287200D02*
X152223333Y-90191961D01*
X152223333Y-90191961D02*
X152223333Y-90144342D01*
X152223333Y-90144342D02*
X152175714Y-90049104D01*
X152175714Y-90049104D02*
X152080476Y-90001485D01*
X152080476Y-90001485D02*
X151937619Y-90001485D01*
X151937619Y-90001485D02*
X151842381Y-89953866D01*
X151842381Y-89953866D02*
X151794762Y-89858628D01*
X151794762Y-89858628D02*
X151794762Y-89811009D01*
X151794762Y-89811009D02*
X151842381Y-89715771D01*
X151842381Y-89715771D02*
X151937619Y-89668152D01*
X151937619Y-89668152D02*
X152080476Y-89668152D01*
X152080476Y-89668152D02*
X152175714Y-89715771D01*
X152556667Y-89668152D02*
X152794762Y-90334819D01*
X153032857Y-89668152D02*
X152794762Y-90334819D01*
X152794762Y-90334819D02*
X152699524Y-90572914D01*
X152699524Y-90572914D02*
X152651905Y-90620533D01*
X152651905Y-90620533D02*
X152556667Y-90668152D01*
X153842381Y-89668152D02*
X153842381Y-90334819D01*
X153604286Y-89287200D02*
X153366191Y-90001485D01*
X153366191Y-90001485D02*
X153985238Y-90001485D01*
X154366191Y-90239580D02*
X154413810Y-90287200D01*
X154413810Y-90287200D02*
X154366191Y-90334819D01*
X154366191Y-90334819D02*
X154318572Y-90287200D01*
X154318572Y-90287200D02*
X154366191Y-90239580D01*
X154366191Y-90239580D02*
X154366191Y-90334819D01*
X155366190Y-90334819D02*
X154794762Y-90334819D01*
X155080476Y-90334819D02*
X155080476Y-89334819D01*
X155080476Y-89334819D02*
X154985238Y-89477676D01*
X154985238Y-89477676D02*
X154890000Y-89572914D01*
X154890000Y-89572914D02*
X154794762Y-89620533D01*
X160285714Y-130954819D02*
X160380952Y-130954819D01*
X160380952Y-130954819D02*
X160476190Y-131002438D01*
X160476190Y-131002438D02*
X160523809Y-131050057D01*
X160523809Y-131050057D02*
X160571428Y-131145295D01*
X160571428Y-131145295D02*
X160619047Y-131335771D01*
X160619047Y-131335771D02*
X160619047Y-131573866D01*
X160619047Y-131573866D02*
X160571428Y-131764342D01*
X160571428Y-131764342D02*
X160523809Y-131859580D01*
X160523809Y-131859580D02*
X160476190Y-131907200D01*
X160476190Y-131907200D02*
X160380952Y-131954819D01*
X160380952Y-131954819D02*
X160285714Y-131954819D01*
X160285714Y-131954819D02*
X160190476Y-131907200D01*
X160190476Y-131907200D02*
X160142857Y-131859580D01*
X160142857Y-131859580D02*
X160095238Y-131764342D01*
X160095238Y-131764342D02*
X160047619Y-131573866D01*
X160047619Y-131573866D02*
X160047619Y-131335771D01*
X160047619Y-131335771D02*
X160095238Y-131145295D01*
X160095238Y-131145295D02*
X160142857Y-131050057D01*
X160142857Y-131050057D02*
X160190476Y-131002438D01*
X160190476Y-131002438D02*
X160285714Y-130954819D01*
X161047619Y-131859580D02*
X161095238Y-131907200D01*
X161095238Y-131907200D02*
X161047619Y-131954819D01*
X161047619Y-131954819D02*
X161000000Y-131907200D01*
X161000000Y-131907200D02*
X161047619Y-131859580D01*
X161047619Y-131859580D02*
X161047619Y-131954819D01*
X162047618Y-131954819D02*
X161476190Y-131954819D01*
X161761904Y-131954819D02*
X161761904Y-130954819D01*
X161761904Y-130954819D02*
X161666666Y-131097676D01*
X161666666Y-131097676D02*
X161571428Y-131192914D01*
X161571428Y-131192914D02*
X161476190Y-131240533D01*
X162904761Y-131288152D02*
X162904761Y-131954819D01*
X162476190Y-131288152D02*
X162476190Y-131811961D01*
X162476190Y-131811961D02*
X162523809Y-131907200D01*
X162523809Y-131907200D02*
X162619047Y-131954819D01*
X162619047Y-131954819D02*
X162761904Y-131954819D01*
X162761904Y-131954819D02*
X162857142Y-131907200D01*
X162857142Y-131907200D02*
X162904761Y-131859580D01*
X161333333Y-135359580D02*
X161285714Y-135407200D01*
X161285714Y-135407200D02*
X161142857Y-135454819D01*
X161142857Y-135454819D02*
X161047619Y-135454819D01*
X161047619Y-135454819D02*
X160904762Y-135407200D01*
X160904762Y-135407200D02*
X160809524Y-135311961D01*
X160809524Y-135311961D02*
X160761905Y-135216723D01*
X160761905Y-135216723D02*
X160714286Y-135026247D01*
X160714286Y-135026247D02*
X160714286Y-134883390D01*
X160714286Y-134883390D02*
X160761905Y-134692914D01*
X160761905Y-134692914D02*
X160809524Y-134597676D01*
X160809524Y-134597676D02*
X160904762Y-134502438D01*
X160904762Y-134502438D02*
X161047619Y-134454819D01*
X161047619Y-134454819D02*
X161142857Y-134454819D01*
X161142857Y-134454819D02*
X161285714Y-134502438D01*
X161285714Y-134502438D02*
X161333333Y-134550057D01*
X161666667Y-134454819D02*
X162285714Y-134454819D01*
X162285714Y-134454819D02*
X161952381Y-134835771D01*
X161952381Y-134835771D02*
X162095238Y-134835771D01*
X162095238Y-134835771D02*
X162190476Y-134883390D01*
X162190476Y-134883390D02*
X162238095Y-134931009D01*
X162238095Y-134931009D02*
X162285714Y-135026247D01*
X162285714Y-135026247D02*
X162285714Y-135264342D01*
X162285714Y-135264342D02*
X162238095Y-135359580D01*
X162238095Y-135359580D02*
X162190476Y-135407200D01*
X162190476Y-135407200D02*
X162095238Y-135454819D01*
X162095238Y-135454819D02*
X161809524Y-135454819D01*
X161809524Y-135454819D02*
X161714286Y-135407200D01*
X161714286Y-135407200D02*
X161666667Y-135359580D01*
X173158095Y-127418152D02*
X173158095Y-128084819D01*
X172920000Y-127037200D02*
X172681905Y-127751485D01*
X172681905Y-127751485D02*
X173300952Y-127751485D01*
X173586667Y-127084819D02*
X174253333Y-127084819D01*
X174253333Y-127084819D02*
X173824762Y-128084819D01*
X174824762Y-127084819D02*
X174920000Y-127084819D01*
X174920000Y-127084819D02*
X175015238Y-127132438D01*
X175015238Y-127132438D02*
X175062857Y-127180057D01*
X175062857Y-127180057D02*
X175110476Y-127275295D01*
X175110476Y-127275295D02*
X175158095Y-127465771D01*
X175158095Y-127465771D02*
X175158095Y-127703866D01*
X175158095Y-127703866D02*
X175110476Y-127894342D01*
X175110476Y-127894342D02*
X175062857Y-127989580D01*
X175062857Y-127989580D02*
X175015238Y-128037200D01*
X175015238Y-128037200D02*
X174920000Y-128084819D01*
X174920000Y-128084819D02*
X174824762Y-128084819D01*
X174824762Y-128084819D02*
X174729524Y-128037200D01*
X174729524Y-128037200D02*
X174681905Y-127989580D01*
X174681905Y-127989580D02*
X174634286Y-127894342D01*
X174634286Y-127894342D02*
X174586667Y-127703866D01*
X174586667Y-127703866D02*
X174586667Y-127465771D01*
X174586667Y-127465771D02*
X174634286Y-127275295D01*
X174634286Y-127275295D02*
X174681905Y-127180057D01*
X174681905Y-127180057D02*
X174729524Y-127132438D01*
X174729524Y-127132438D02*
X174824762Y-127084819D01*
X173277142Y-130454819D02*
X172943809Y-129978628D01*
X172705714Y-130454819D02*
X172705714Y-129454819D01*
X172705714Y-129454819D02*
X173086666Y-129454819D01*
X173086666Y-129454819D02*
X173181904Y-129502438D01*
X173181904Y-129502438D02*
X173229523Y-129550057D01*
X173229523Y-129550057D02*
X173277142Y-129645295D01*
X173277142Y-129645295D02*
X173277142Y-129788152D01*
X173277142Y-129788152D02*
X173229523Y-129883390D01*
X173229523Y-129883390D02*
X173181904Y-129931009D01*
X173181904Y-129931009D02*
X173086666Y-129978628D01*
X173086666Y-129978628D02*
X172705714Y-129978628D01*
X174229523Y-130454819D02*
X173658095Y-130454819D01*
X173943809Y-130454819D02*
X173943809Y-129454819D01*
X173943809Y-129454819D02*
X173848571Y-129597676D01*
X173848571Y-129597676D02*
X173753333Y-129692914D01*
X173753333Y-129692914D02*
X173658095Y-129740533D01*
X174848571Y-129454819D02*
X174943809Y-129454819D01*
X174943809Y-129454819D02*
X175039047Y-129502438D01*
X175039047Y-129502438D02*
X175086666Y-129550057D01*
X175086666Y-129550057D02*
X175134285Y-129645295D01*
X175134285Y-129645295D02*
X175181904Y-129835771D01*
X175181904Y-129835771D02*
X175181904Y-130073866D01*
X175181904Y-130073866D02*
X175134285Y-130264342D01*
X175134285Y-130264342D02*
X175086666Y-130359580D01*
X175086666Y-130359580D02*
X175039047Y-130407200D01*
X175039047Y-130407200D02*
X174943809Y-130454819D01*
X174943809Y-130454819D02*
X174848571Y-130454819D01*
X174848571Y-130454819D02*
X174753333Y-130407200D01*
X174753333Y-130407200D02*
X174705714Y-130359580D01*
X174705714Y-130359580D02*
X174658095Y-130264342D01*
X174658095Y-130264342D02*
X174610476Y-130073866D01*
X174610476Y-130073866D02*
X174610476Y-129835771D01*
X174610476Y-129835771D02*
X174658095Y-129645295D01*
X174658095Y-129645295D02*
X174705714Y-129550057D01*
X174705714Y-129550057D02*
X174753333Y-129502438D01*
X174753333Y-129502438D02*
X174848571Y-129454819D01*
X173158095Y-97418152D02*
X173158095Y-98084819D01*
X172920000Y-97037200D02*
X172681905Y-97751485D01*
X172681905Y-97751485D02*
X173300952Y-97751485D01*
X173586667Y-97084819D02*
X174253333Y-97084819D01*
X174253333Y-97084819D02*
X173824762Y-98084819D01*
X174824762Y-97084819D02*
X174920000Y-97084819D01*
X174920000Y-97084819D02*
X175015238Y-97132438D01*
X175015238Y-97132438D02*
X175062857Y-97180057D01*
X175062857Y-97180057D02*
X175110476Y-97275295D01*
X175110476Y-97275295D02*
X175158095Y-97465771D01*
X175158095Y-97465771D02*
X175158095Y-97703866D01*
X175158095Y-97703866D02*
X175110476Y-97894342D01*
X175110476Y-97894342D02*
X175062857Y-97989580D01*
X175062857Y-97989580D02*
X175015238Y-98037200D01*
X175015238Y-98037200D02*
X174920000Y-98084819D01*
X174920000Y-98084819D02*
X174824762Y-98084819D01*
X174824762Y-98084819D02*
X174729524Y-98037200D01*
X174729524Y-98037200D02*
X174681905Y-97989580D01*
X174681905Y-97989580D02*
X174634286Y-97894342D01*
X174634286Y-97894342D02*
X174586667Y-97703866D01*
X174586667Y-97703866D02*
X174586667Y-97465771D01*
X174586667Y-97465771D02*
X174634286Y-97275295D01*
X174634286Y-97275295D02*
X174681905Y-97180057D01*
X174681905Y-97180057D02*
X174729524Y-97132438D01*
X174729524Y-97132438D02*
X174824762Y-97084819D01*
X173753333Y-100454819D02*
X173420000Y-99978628D01*
X173181905Y-100454819D02*
X173181905Y-99454819D01*
X173181905Y-99454819D02*
X173562857Y-99454819D01*
X173562857Y-99454819D02*
X173658095Y-99502438D01*
X173658095Y-99502438D02*
X173705714Y-99550057D01*
X173705714Y-99550057D02*
X173753333Y-99645295D01*
X173753333Y-99645295D02*
X173753333Y-99788152D01*
X173753333Y-99788152D02*
X173705714Y-99883390D01*
X173705714Y-99883390D02*
X173658095Y-99931009D01*
X173658095Y-99931009D02*
X173562857Y-99978628D01*
X173562857Y-99978628D02*
X173181905Y-99978628D01*
X174610476Y-99788152D02*
X174610476Y-100454819D01*
X174372381Y-99407200D02*
X174134286Y-100121485D01*
X174134286Y-100121485D02*
X174753333Y-100121485D01*
D11*
%TO.C,J1*%
X93650000Y-83500000D02*
X93650000Y-69700000D01*
X101350000Y-68850000D02*
X106850000Y-68850000D01*
X101350000Y-69700000D02*
X93650000Y-69700000D01*
X101350000Y-83500000D02*
X93650000Y-83500000D01*
X101350000Y-84350000D02*
X101350000Y-68850000D01*
X101350000Y-84350000D02*
X106850000Y-84350000D01*
X110850000Y-80350000D02*
X110850000Y-72850000D01*
X106850000Y-68850000D02*
G75*
G02*
X110850000Y-72850000I0J-4000000D01*
G01*
X110885000Y-80385000D02*
G75*
G02*
X106850000Y-84350000I-4000000J35000D01*
G01*
%TO.C,D3*%
X143833810Y-48230000D02*
X146166190Y-48230000D01*
X143833810Y-48230000D02*
G75*
G02*
X146165476Y-48230555I1166190J1500000D01*
G01*
X146500000Y-46730000D02*
G75*
G02*
X143500000Y-46730000I-1500000J0D01*
G01*
X143500000Y-46730000D02*
G75*
G02*
X146500000Y-46730000I1500000J0D01*
G01*
%TO.C,J8*%
X95950000Y-93080000D02*
X101950000Y-93080000D01*
X95950000Y-101920000D02*
X95950000Y-93080000D01*
X95950000Y-101920000D02*
X101950000Y-101920000D01*
X101950000Y-92550000D02*
X103950000Y-92550000D01*
X101950000Y-102450000D02*
X101950000Y-92550000D01*
X101950000Y-102450000D02*
X104000000Y-102450000D01*
X104000000Y-92550000D02*
X104000000Y-91850000D01*
X104000000Y-103150000D02*
X104000000Y-102450000D01*
X106000000Y-103150000D02*
X106000000Y-91850000D01*
X104000000Y-91850000D02*
G75*
G02*
X106000000Y-91850000I1000000J0D01*
G01*
X106000000Y-103150000D02*
G75*
G02*
X104000000Y-103150000I-1000000J0D01*
G01*
%TO.C,C5*%
X140900000Y-132750000D02*
X140900000Y-137250000D01*
X140900000Y-137250000D02*
X148100000Y-137250000D01*
X148100000Y-132750000D02*
X140900000Y-132750000D01*
X148100000Y-137250000D02*
X148100000Y-132750000D01*
%TO.C,R3*%
X156000000Y-106000000D02*
X157930000Y-106000000D01*
X157930000Y-104750000D02*
X157930000Y-107250000D01*
X157930000Y-107250000D02*
X164230000Y-107250000D01*
X164230000Y-104750000D02*
X157930000Y-104750000D01*
X164230000Y-107250000D02*
X164230000Y-104750000D01*
X166160000Y-106000000D02*
X164230000Y-106000000D01*
%TO.C,R2*%
X105750000Y-56770000D02*
X105750000Y-63070000D01*
X105750000Y-63070000D02*
X108250000Y-63070000D01*
X107000000Y-54840000D02*
X107000000Y-56770000D01*
X107000000Y-65000000D02*
X107000000Y-63070000D01*
X108250000Y-56770000D02*
X105750000Y-56770000D01*
X108250000Y-63070000D02*
X108250000Y-56770000D01*
%TO.C,R1*%
X135000000Y-72000000D02*
X136930000Y-72000000D01*
X136930000Y-70750000D02*
X136930000Y-73250000D01*
X136930000Y-73250000D02*
X143230000Y-73250000D01*
X143230000Y-70750000D02*
X136930000Y-70750000D01*
X143230000Y-73250000D02*
X143230000Y-70750000D01*
X145160000Y-72000000D02*
X143230000Y-72000000D01*
%TO.C,R5*%
X156000000Y-127000000D02*
X157930000Y-127000000D01*
X157930000Y-125750000D02*
X157930000Y-128250000D01*
X157930000Y-128250000D02*
X164230000Y-128250000D01*
X164230000Y-125750000D02*
X157930000Y-125750000D01*
X164230000Y-128250000D02*
X164230000Y-125750000D01*
X166160000Y-127000000D02*
X164230000Y-127000000D01*
%TO.C,J3*%
X122300000Y-30400000D02*
X137040000Y-30400000D01*
X122300000Y-40200000D02*
X122300000Y-30400000D01*
X123702000Y-35955000D02*
X125794000Y-33862000D01*
X123885000Y-36138000D02*
X125977000Y-34045000D01*
X128782000Y-35955000D02*
X130874000Y-33862000D01*
X128965000Y-36138000D02*
X131057000Y-34045000D01*
X133862000Y-35955000D02*
X135955000Y-33862000D01*
X134045000Y-36138000D02*
X136138000Y-34045000D01*
X137040000Y-30400000D02*
X137540000Y-30900000D01*
X137540000Y-30900000D02*
X122300000Y-30900000D01*
X137540000Y-30900000D02*
X137540000Y-40200000D01*
X137540000Y-32400000D02*
X122300000Y-32400000D01*
X137540000Y-37300000D02*
X122300000Y-37300000D01*
X137540000Y-40200000D02*
X122300000Y-40200000D01*
X126340000Y-35000000D02*
G75*
G02*
X123340000Y-35000000I-1500000J0D01*
G01*
X123340000Y-35000000D02*
G75*
G02*
X126340000Y-35000000I1500000J0D01*
G01*
X131420000Y-35000000D02*
G75*
G02*
X128420000Y-35000000I-1500000J0D01*
G01*
X128420000Y-35000000D02*
G75*
G02*
X131420000Y-35000000I1500000J0D01*
G01*
X136500000Y-35000000D02*
G75*
G02*
X133500000Y-35000000I-1500000J0D01*
G01*
X133500000Y-35000000D02*
G75*
G02*
X136500000Y-35000000I1500000J0D01*
G01*
%TO.C,R6*%
X139000000Y-106000000D02*
X140930000Y-106000000D01*
X140930000Y-104750000D02*
X140930000Y-107250000D01*
X140930000Y-107250000D02*
X147230000Y-107250000D01*
X147230000Y-104750000D02*
X140930000Y-104750000D01*
X147230000Y-107250000D02*
X147230000Y-104750000D01*
X149160000Y-106000000D02*
X147230000Y-106000000D01*
%TO.C,Q3*%
X138250000Y-98500000D02*
X138250000Y-102000000D01*
X138246375Y-98516375D02*
G75*
G02*
X142480000Y-100270000I1753625J-1753625D01*
G01*
X142480000Y-100270000D02*
G75*
G02*
X138246375Y-102023625I-2480000J0D01*
G01*
%TO.C,D1*%
X105833810Y-48230000D02*
X108166190Y-48230000D01*
X105833810Y-48230000D02*
G75*
G02*
X108165476Y-48230555I1166190J1500000D01*
G01*
X108500000Y-46730000D02*
G75*
G02*
X105500000Y-46730000I-1500000J0D01*
G01*
X105500000Y-46730000D02*
G75*
G02*
X108500000Y-46730000I1500000J0D01*
G01*
%TO.C,R16*%
X143750000Y-56770000D02*
X143750000Y-63070000D01*
X143750000Y-63070000D02*
X146250000Y-63070000D01*
X145000000Y-54840000D02*
X145000000Y-56770000D01*
X145000000Y-65000000D02*
X145000000Y-63070000D01*
X146250000Y-56770000D02*
X143750000Y-56770000D01*
X146250000Y-63070000D02*
X146250000Y-56770000D01*
%TO.C,Q7*%
X155250000Y-98500000D02*
X155250000Y-102000000D01*
X155246375Y-98516375D02*
G75*
G02*
X159480000Y-100270000I1753625J-1753625D01*
G01*
X159480000Y-100270000D02*
G75*
G02*
X155246375Y-102023625I-2480000J0D01*
G01*
%TO.C,J5*%
X162300000Y-30400000D02*
X177040000Y-30400000D01*
X162300000Y-40200000D02*
X162300000Y-30400000D01*
X163702000Y-35955000D02*
X165794000Y-33862000D01*
X163885000Y-36138000D02*
X165977000Y-34045000D01*
X168782000Y-35955000D02*
X170874000Y-33862000D01*
X168965000Y-36138000D02*
X171057000Y-34045000D01*
X173862000Y-35955000D02*
X175955000Y-33862000D01*
X174045000Y-36138000D02*
X176138000Y-34045000D01*
X177040000Y-30400000D02*
X177540000Y-30900000D01*
X177540000Y-30900000D02*
X162300000Y-30900000D01*
X177540000Y-30900000D02*
X177540000Y-40200000D01*
X177540000Y-32400000D02*
X162300000Y-32400000D01*
X177540000Y-37300000D02*
X162300000Y-37300000D01*
X177540000Y-40200000D02*
X162300000Y-40200000D01*
X166340000Y-35000000D02*
G75*
G02*
X163340000Y-35000000I-1500000J0D01*
G01*
X163340000Y-35000000D02*
G75*
G02*
X166340000Y-35000000I1500000J0D01*
G01*
X171420000Y-35000000D02*
G75*
G02*
X168420000Y-35000000I-1500000J0D01*
G01*
X168420000Y-35000000D02*
G75*
G02*
X171420000Y-35000000I1500000J0D01*
G01*
X176500000Y-35000000D02*
G75*
G02*
X173500000Y-35000000I-1500000J0D01*
G01*
X173500000Y-35000000D02*
G75*
G02*
X176500000Y-35000000I1500000J0D01*
G01*
%TO.C,R11*%
X119000000Y-98000000D02*
X120930000Y-98000000D01*
X120930000Y-96750000D02*
X120930000Y-99250000D01*
X120930000Y-99250000D02*
X127230000Y-99250000D01*
X127230000Y-96750000D02*
X120930000Y-96750000D01*
X127230000Y-99250000D02*
X127230000Y-96750000D01*
X129160000Y-98000000D02*
X127230000Y-98000000D01*
%TO.C,J7*%
X95950000Y-108080000D02*
X101950000Y-108080000D01*
X95950000Y-116920000D02*
X95950000Y-108080000D01*
X95950000Y-116920000D02*
X101950000Y-116920000D01*
X101950000Y-107550000D02*
X103950000Y-107550000D01*
X101950000Y-117450000D02*
X101950000Y-107550000D01*
X101950000Y-117450000D02*
X104000000Y-117450000D01*
X104000000Y-107550000D02*
X104000000Y-106850000D01*
X104000000Y-118150000D02*
X104000000Y-117450000D01*
X106000000Y-118150000D02*
X106000000Y-106850000D01*
X104000000Y-106850000D02*
G75*
G02*
X106000000Y-106850000I1000000J0D01*
G01*
X106000000Y-118150000D02*
G75*
G02*
X104000000Y-118150000I-1000000J0D01*
G01*
%TO.C,Q2*%
X155250000Y-119500000D02*
X155250000Y-123000000D01*
X155246375Y-119516375D02*
G75*
G02*
X159480000Y-121270000I1753625J-1753625D01*
G01*
X159480000Y-121270000D02*
G75*
G02*
X155246375Y-123023625I-2480000J0D01*
G01*
%TO.C,J2*%
X102300000Y-30400000D02*
X117040000Y-30400000D01*
X102300000Y-40200000D02*
X102300000Y-30400000D01*
X103702000Y-35955000D02*
X105794000Y-33862000D01*
X103885000Y-36138000D02*
X105977000Y-34045000D01*
X108782000Y-35955000D02*
X110874000Y-33862000D01*
X108965000Y-36138000D02*
X111057000Y-34045000D01*
X113862000Y-35955000D02*
X115955000Y-33862000D01*
X114045000Y-36138000D02*
X116138000Y-34045000D01*
X117040000Y-30400000D02*
X117540000Y-30900000D01*
X117540000Y-30900000D02*
X102300000Y-30900000D01*
X117540000Y-30900000D02*
X117540000Y-40200000D01*
X117540000Y-32400000D02*
X102300000Y-32400000D01*
X117540000Y-37300000D02*
X102300000Y-37300000D01*
X117540000Y-40200000D02*
X102300000Y-40200000D01*
X106340000Y-35000000D02*
G75*
G02*
X103340000Y-35000000I-1500000J0D01*
G01*
X103340000Y-35000000D02*
G75*
G02*
X106340000Y-35000000I1500000J0D01*
G01*
X111420000Y-35000000D02*
G75*
G02*
X108420000Y-35000000I-1500000J0D01*
G01*
X108420000Y-35000000D02*
G75*
G02*
X111420000Y-35000000I1500000J0D01*
G01*
X116500000Y-35000000D02*
G75*
G02*
X113500000Y-35000000I-1500000J0D01*
G01*
X113500000Y-35000000D02*
G75*
G02*
X116500000Y-35000000I1500000J0D01*
G01*
%TO.C,Q1*%
X111700000Y-61000000D02*
X111700000Y-65500000D01*
X111700000Y-62500000D02*
X127200000Y-62500000D01*
X111700000Y-65500000D02*
X127200000Y-65500000D01*
X117850000Y-61000000D02*
X117850000Y-62500000D01*
X121050000Y-61000000D02*
X121050000Y-62500000D01*
X127200000Y-61000000D02*
X111700000Y-61000000D01*
X127200000Y-65500000D02*
X127200000Y-61000000D01*
%TO.C,C1*%
X157900000Y-111750000D02*
X157900000Y-116250000D01*
X157900000Y-116250000D02*
X165100000Y-116250000D01*
X165100000Y-111750000D02*
X157900000Y-111750000D01*
X165100000Y-116250000D02*
X165100000Y-111750000D01*
%TO.C,R8*%
X168840000Y-110000000D02*
X170770000Y-110000000D01*
X170770000Y-108750000D02*
X170770000Y-111250000D01*
X170770000Y-111250000D02*
X177070000Y-111250000D01*
X177070000Y-108750000D02*
X170770000Y-108750000D01*
X177070000Y-111250000D02*
X177070000Y-108750000D01*
X179000000Y-110000000D02*
X177070000Y-110000000D01*
%TO.C,J4*%
X142300000Y-30400000D02*
X157040000Y-30400000D01*
X142300000Y-40200000D02*
X142300000Y-30400000D01*
X143702000Y-35955000D02*
X145794000Y-33862000D01*
X143885000Y-36138000D02*
X145977000Y-34045000D01*
X148782000Y-35955000D02*
X150874000Y-33862000D01*
X148965000Y-36138000D02*
X151057000Y-34045000D01*
X153862000Y-35955000D02*
X155955000Y-33862000D01*
X154045000Y-36138000D02*
X156138000Y-34045000D01*
X157040000Y-30400000D02*
X157540000Y-30900000D01*
X157540000Y-30900000D02*
X142300000Y-30900000D01*
X157540000Y-30900000D02*
X157540000Y-40200000D01*
X157540000Y-32400000D02*
X142300000Y-32400000D01*
X157540000Y-37300000D02*
X142300000Y-37300000D01*
X157540000Y-40200000D02*
X142300000Y-40200000D01*
X146340000Y-35000000D02*
G75*
G02*
X143340000Y-35000000I-1500000J0D01*
G01*
X143340000Y-35000000D02*
G75*
G02*
X146340000Y-35000000I1500000J0D01*
G01*
X151420000Y-35000000D02*
G75*
G02*
X148420000Y-35000000I-1500000J0D01*
G01*
X148420000Y-35000000D02*
G75*
G02*
X151420000Y-35000000I1500000J0D01*
G01*
X156500000Y-35000000D02*
G75*
G02*
X153500000Y-35000000I-1500000J0D01*
G01*
X153500000Y-35000000D02*
G75*
G02*
X156500000Y-35000000I1500000J0D01*
G01*
%TO.C,Q6*%
X151700000Y-61000000D02*
X151700000Y-65500000D01*
X151700000Y-62500000D02*
X167200000Y-62500000D01*
X151700000Y-65500000D02*
X167200000Y-65500000D01*
X157850000Y-61000000D02*
X157850000Y-62500000D01*
X161050000Y-61000000D02*
X161050000Y-62500000D01*
X167200000Y-61000000D02*
X151700000Y-61000000D01*
X167200000Y-65500000D02*
X167200000Y-61000000D01*
%TO.C,R9*%
X168840000Y-120000000D02*
X170770000Y-120000000D01*
X170770000Y-118750000D02*
X170770000Y-121250000D01*
X170770000Y-121250000D02*
X177070000Y-121250000D01*
X177070000Y-118750000D02*
X170770000Y-118750000D01*
X177070000Y-121250000D02*
X177070000Y-118750000D01*
X179000000Y-120000000D02*
X177070000Y-120000000D01*
%TO.C,C4*%
X140900000Y-111750000D02*
X140900000Y-116250000D01*
X140900000Y-116250000D02*
X148100000Y-116250000D01*
X148100000Y-111750000D02*
X140900000Y-111750000D01*
X148100000Y-116250000D02*
X148100000Y-111750000D01*
%TO.C,R7*%
X139000000Y-127000000D02*
X140930000Y-127000000D01*
X140930000Y-125750000D02*
X140930000Y-128250000D01*
X140930000Y-128250000D02*
X147230000Y-128250000D01*
X147230000Y-125750000D02*
X140930000Y-125750000D01*
X147230000Y-128250000D02*
X147230000Y-125750000D01*
X149160000Y-127000000D02*
X147230000Y-127000000D01*
%TO.C,J6*%
X94650000Y-138500000D02*
X94650000Y-124700000D01*
X102350000Y-123850000D02*
X107850000Y-123850000D01*
X102350000Y-124700000D02*
X94650000Y-124700000D01*
X102350000Y-138500000D02*
X94650000Y-138500000D01*
X102350000Y-139350000D02*
X102350000Y-123850000D01*
X102350000Y-139350000D02*
X107850000Y-139350000D01*
X111850000Y-135350000D02*
X111850000Y-127850000D01*
X107850000Y-123850000D02*
G75*
G02*
X111850000Y-127850000I0J-4000000D01*
G01*
X111885000Y-135385000D02*
G75*
G02*
X107850000Y-139350000I-4000000J35000D01*
G01*
%TO.C,Q4*%
X138250000Y-119500000D02*
X138250000Y-123000000D01*
X138246375Y-119516375D02*
G75*
G02*
X142480000Y-121270000I1753625J-1753625D01*
G01*
X142480000Y-121270000D02*
G75*
G02*
X138246375Y-123023625I-2480000J0D01*
G01*
%TO.C,C3*%
X157900000Y-132750000D02*
X157900000Y-137250000D01*
X157900000Y-137250000D02*
X165100000Y-137250000D01*
X165100000Y-132750000D02*
X157900000Y-132750000D01*
X165100000Y-137250000D02*
X165100000Y-132750000D01*
%TO.C,R10*%
X168840000Y-130000000D02*
X170770000Y-130000000D01*
X170770000Y-128750000D02*
X170770000Y-131250000D01*
X170770000Y-131250000D02*
X177070000Y-131250000D01*
X177070000Y-128750000D02*
X170770000Y-128750000D01*
X177070000Y-131250000D02*
X177070000Y-128750000D01*
X179000000Y-130000000D02*
X177070000Y-130000000D01*
%TO.C,R4*%
X168840000Y-100000000D02*
X170770000Y-100000000D01*
X170770000Y-98750000D02*
X170770000Y-101250000D01*
X170770000Y-101250000D02*
X177070000Y-101250000D01*
X177070000Y-98750000D02*
X170770000Y-98750000D01*
X177070000Y-101250000D02*
X177070000Y-98750000D01*
X179000000Y-100000000D02*
X177070000Y-100000000D01*
%TD*%
M02*
