<svg xmlns="http://www.w3.org/2000/svg" version="1.1" xmlns:xlink="http://www.w3.org/1999/xlink" xmlns:svgjs="http://svgjs.com/svgjs" width="1440" height="90" preserveAspectRatio="none" viewBox="0 0 1440 90">
    <g mask="url(&quot;#SvgjsMask1283&quot;)" fill="none">
        <path d="M -123.26419584611665,36 C -27.26,41 164.74,65.6 356.73580415388335,61 C 548.74,56.4 644.74,12.2 836.7358041538834,13 C 1028.74,13.8 1124.74,61.2 1316.7358041538832,65 C 1508.74,68.8 1772.08,30.8 1796.7358041538832,32 C 1821.39,33.2 1511.35,63.2 1440,71" stroke="rgba(64, 81, 181, 0.2)" stroke-width="2"></path>
        <path d="M -400.80190594925944,24 C -304.8,36.4 -112.8,83.8 79.1980940507406,86 C 271.2,88.2 367.2,35.2 559.1980940507406,35 C 751.2,34.8 847.2,89.8 1039.1980940507406,85 C 1231.2,80.2 1439.04,18.8 1519.1980940507406,11 C 1599.36,3.2 1455.84,39 1440,46" stroke="rgba(64, 81, 181, 0.2)" stroke-width="3"></path>
        <path d="M -399.2199548852891,3 C -303.22,18 -111.22,76.4 80.78004511471093,78 C 272.78,79.6 368.78,12 560.7800451147109,11 C 752.78,10 848.78,71.6 1040.780045114711,73 C 1232.78,74.4 1440.94,17 1520.780045114711,18 C 1600.62,19 1456.16,66 1440,78" stroke="rgba(64, 81, 181, 0.2)" stroke-width="4"></path>
    </g>
    <defs>
        <mask id="SvgjsMask1283">
            <rect width="1440" height="90" fill="#ffffff"></rect>
        </mask>
    </defs>
</svg>