<?xml version="1.0" standalone="no"?>
 <!DOCTYPE svg PUBLIC "-//W3C//DTD SVG 1.1//EN" 
 "http://www.w3.org/Graphics/SVG/1.1/DTD/svg11.dtd"> 
<svg
  xmlns:svg="http://www.w3.org/2000/svg"
  xmlns="http://www.w3.org/2000/svg"
  xmlns:xlink="http://www.w3.org/1999/xlink"
  version="1.1"
  width="297.0022mm" height="210.0072mm" viewBox="0.0000 0.0000 297.0022 210.0072">
<title>SVG Image created as miniv_motor_controller_board-F_Silkscreen3.svg date 2025/09/08 01:13:57 </title>
  <desc>Image generated by PCBNEW </desc>
<g style="fill:#000000; fill-opacity:1.0000;stroke:#000000; stroke-opacity:1.0000;
stroke-linecap:round; stroke-linejoin:round;"
 transform="translate(0 0) scale(1 1)">
</g>
<g style="fill:none; 
stroke:#000000; stroke-width:0.1500; stroke-opacity:1; 
stroke-linecap:round; stroke-linejoin:round;">
<g transform="rotate(-90.000000 65.6300 138.9200)">
<text x="65.6300" y="139.4200"
textLength="2.2024" font-size="1.3333" lengthAdjust="spacingAndGlyphs"
text-anchor="middle" opacity="0" stroke-opacity="0">R5</text>
</g>
<g class="stroked-text"><desc>R5</desc>
<path d="M66.0848 139.0867
L65.6086 139.4200
" />
<path d="M66.0848 139.6581
L65.0848 139.6581
" />
<path d="M65.0848 139.6581
L65.0848 139.2771
" />
<path d="M65.0848 139.2771
L65.1324 139.1819
" />
<path d="M65.1324 139.1819
L65.1801 139.1343
" />
<path d="M65.1801 139.1343
L65.2753 139.0867
" />
<path d="M65.2753 139.0867
L65.4182 139.0867
" />
<path d="M65.4182 139.0867
L65.5134 139.1343
" />
<path d="M65.5134 139.1343
L65.5610 139.1819
" />
<path d="M65.5610 139.1819
L65.6086 139.2771
" />
<path d="M65.6086 139.2771
L65.6086 139.6581
" />
<path d="M65.0848 138.1819
L65.0848 138.6581
" />
<path d="M65.0848 138.6581
L65.5610 138.7057
" />
<path d="M65.5610 138.7057
L65.5134 138.6581
" />
<path d="M65.5134 138.6581
L65.4658 138.5629
" />
<path d="M65.4658 138.5629
L65.4658 138.3248
" />
<path d="M65.4658 138.3248
L65.5134 138.2295
" />
<path d="M65.5134 138.2295
L65.5610 138.1819
" />
<path d="M65.5610 138.1819
L65.6562 138.1343
" />
<path d="M65.6562 138.1343
L65.8943 138.1343
" />
<path d="M65.8943 138.1343
L65.9896 138.1819
" />
<path d="M65.9896 138.1819
L66.0372 138.2295
" />
<path d="M66.0372 138.2295
L66.0848 138.3248
" />
<path d="M66.0848 138.3248
L66.0848 138.5629
" />
<path d="M66.0848 138.5629
L66.0372 138.6581
" />
<path d="M66.0372 138.6581
L65.9896 138.7057
" />
</g><g transform="rotate(-90.000000 117.5500 82.2500)">
<text x="117.5500" y="82.7500"
textLength="1.9643" font-size="1.3333" lengthAdjust="spacingAndGlyphs"
text-anchor="middle" opacity="0" stroke-opacity="0">J4</text>
</g>
<g class="stroked-text"><desc>J4</desc>
<path d="M117.0048 82.5833
L117.7191 82.5833
" />
<path d="M117.7191 82.5833
L117.8620 82.6310
" />
<path d="M117.8620 82.6310
L117.9572 82.7262
" />
<path d="M117.9572 82.7262
L118.0048 82.8690
" />
<path d="M118.0048 82.8690
L118.0048 82.9643
" />
<path d="M117.3382 81.6786
L118.0048 81.6786
" />
<path d="M116.9572 81.9167
L117.6715 82.1548
" />
<path d="M117.6715 82.1548
L117.6715 81.5357
" />
</g><text x="44.0000" y="110.5000"
textLength="2.9643" font-size="1.3333" lengthAdjust="spacingAndGlyphs"
text-anchor="middle" opacity="0" stroke-opacity="0">JP4</text>
<g class="stroked-text"><desc>JP4</desc>
<path d="M43.1667 109.4548
L43.1667 110.1691
" />
<path d="M43.1667 110.1691
L43.1190 110.3120
" />
<path d="M43.1190 110.3120
L43.0238 110.4072
" />
<path d="M43.0238 110.4072
L42.8810 110.4548
" />
<path d="M42.8810 110.4548
L42.7857 110.4548
" />
<path d="M43.6429 110.4548
L43.6429 109.4548
" />
<path d="M43.6429 109.4548
L44.0238 109.4548
" />
<path d="M44.0238 109.4548
L44.1190 109.5024
" />
<path d="M44.1190 109.5024
L44.1667 109.5501
" />
<path d="M44.1667 109.5501
L44.2143 109.6453
" />
<path d="M44.2143 109.6453
L44.2143 109.7882
" />
<path d="M44.2143 109.7882
L44.1667 109.8834
" />
<path d="M44.1667 109.8834
L44.1190 109.9310
" />
<path d="M44.1190 109.9310
L44.0238 109.9786
" />
<path d="M44.0238 109.9786
L43.6429 109.9786
" />
<path d="M45.0714 109.7882
L45.0714 110.4548
" />
<path d="M44.8333 109.4072
L44.5952 110.1215
" />
<path d="M44.5952 110.1215
L45.2143 110.1215
" />
</g><text x="77.8100" y="138.1700"
textLength="2.2500" font-size="1.3333" lengthAdjust="spacingAndGlyphs"
text-anchor="middle" opacity="0" stroke-opacity="0">U2</text>
<g class="stroked-text"><desc>U2</desc>
<path d="M77.0481 137.1248
L77.0481 137.9343
" />
<path d="M77.0481 137.9343
L77.0957 138.0296
" />
<path d="M77.0957 138.0296
L77.1433 138.0772
" />
<path d="M77.1433 138.0772
L77.2386 138.1248
" />
<path d="M77.2386 138.1248
L77.4290 138.1248
" />
<path d="M77.4290 138.1248
L77.5243 138.0772
" />
<path d="M77.5243 138.0772
L77.5719 138.0296
" />
<path d="M77.5719 138.0296
L77.6195 137.9343
" />
<path d="M77.6195 137.9343
L77.6195 137.1248
" />
<path d="M78.0481 137.2201
L78.0957 137.1724
" />
<path d="M78.0957 137.1724
L78.1910 137.1248
" />
<path d="M78.1910 137.1248
L78.4290 137.1248
" />
<path d="M78.4290 137.1248
L78.5243 137.1724
" />
<path d="M78.5243 137.1724
L78.5719 137.2201
" />
<path d="M78.5719 137.2201
L78.6195 137.3153
" />
<path d="M78.6195 137.3153
L78.6195 137.4105
" />
<path d="M78.6195 137.4105
L78.5719 137.5534
" />
<path d="M78.5719 137.5534
L78.0005 138.1248
" />
<path d="M78.0005 138.1248
L78.6195 138.1248
" />
</g><text x="85.4000" y="42.0000"
textLength="1.9643" font-size="1.3333" lengthAdjust="spacingAndGlyphs"
text-anchor="middle" opacity="0" stroke-opacity="0">J2</text>
<g class="stroked-text"><desc>J2</desc>
<path d="M85.0667 40.9548
L85.0667 41.6691
" />
<path d="M85.0667 41.6691
L85.0190 41.8120
" />
<path d="M85.0190 41.8120
L84.9238 41.9072
" />
<path d="M84.9238 41.9072
L84.7810 41.9548
" />
<path d="M84.7810 41.9548
L84.6857 41.9548
" />
<path d="M85.4952 41.0501
L85.5429 41.0024
" />
<path d="M85.5429 41.0024
L85.6381 40.9548
" />
<path d="M85.6381 40.9548
L85.8762 40.9548
" />
<path d="M85.8762 40.9548
L85.9714 41.0024
" />
<path d="M85.9714 41.0024
L86.0190 41.0501
" />
<path d="M86.0190 41.0501
L86.0667 41.1453
" />
<path d="M86.0667 41.1453
L86.0667 41.2405
" />
<path d="M86.0667 41.2405
L86.0190 41.3834
" />
<path d="M86.0190 41.3834
L85.4476 41.9548
" />
<path d="M85.4476 41.9548
L86.0667 41.9548
" />
</g><text x="91.8000" y="61.0000"
textLength="1.4881" font-size="1.3333" lengthAdjust="spacingAndGlyphs"
text-anchor="middle" opacity="0" stroke-opacity="0">-</text>
<g class="stroked-text"><desc>-</desc>
<path d="M91.4190 60.5739
L92.1810 60.5739
" />
</g><text x="79.5000" y="61.2500"
textLength="2.0071" font-size="2.0000" lengthAdjust="spacingAndGlyphs"
text-anchor="middle" opacity="0" stroke-opacity="0">+</text>
<g class="stroked-text"><desc>+</desc>
<path d="M78.9286 60.6147
L80.0714 60.6147
" />
<path d="M79.5000 61.1861
L79.5000 60.0433
" />
</g><text x="50.5000" y="64.0000"
textLength="2.9643" font-size="1.3333" lengthAdjust="spacingAndGlyphs"
text-anchor="middle" opacity="0" stroke-opacity="0">JP6</text>
<g class="stroked-text"><desc>JP6</desc>
<path d="M49.6667 62.9548
L49.6667 63.6691
" />
<path d="M49.6667 63.6691
L49.6190 63.8120
" />
<path d="M49.6190 63.8120
L49.5238 63.9072
" />
<path d="M49.5238 63.9072
L49.3810 63.9548
" />
<path d="M49.3810 63.9548
L49.2857 63.9548
" />
<path d="M50.1429 63.9548
L50.1429 62.9548
" />
<path d="M50.1429 62.9548
L50.5238 62.9548
" />
<path d="M50.5238 62.9548
L50.6190 63.0024
" />
<path d="M50.6190 63.0024
L50.6667 63.0501
" />
<path d="M50.6667 63.0501
L50.7143 63.1453
" />
<path d="M50.7143 63.1453
L50.7143 63.2882
" />
<path d="M50.7143 63.2882
L50.6667 63.3834
" />
<path d="M50.6667 63.3834
L50.6190 63.4310
" />
<path d="M50.6190 63.4310
L50.5238 63.4786
" />
<path d="M50.5238 63.4786
L50.1429 63.4786
" />
<path d="M51.5714 62.9548
L51.3810 62.9548
" />
<path d="M51.3810 62.9548
L51.2857 63.0024
" />
<path d="M51.2857 63.0024
L51.2381 63.0501
" />
<path d="M51.2381 63.0501
L51.1429 63.1929
" />
<path d="M51.1429 63.1929
L51.0952 63.3834
" />
<path d="M51.0952 63.3834
L51.0952 63.7643
" />
<path d="M51.0952 63.7643
L51.1429 63.8596
" />
<path d="M51.1429 63.8596
L51.1905 63.9072
" />
<path d="M51.1905 63.9072
L51.2857 63.9548
" />
<path d="M51.2857 63.9548
L51.4762 63.9548
" />
<path d="M51.4762 63.9548
L51.5714 63.9072
" />
<path d="M51.5714 63.9072
L51.6190 63.8596
" />
<path d="M51.6190 63.8596
L51.6667 63.7643
" />
<path d="M51.6667 63.7643
L51.6667 63.5262
" />
<path d="M51.6667 63.5262
L51.6190 63.4310
" />
<path d="M51.6190 63.4310
L51.5714 63.3834
" />
<path d="M51.5714 63.3834
L51.4762 63.3358
" />
<path d="M51.4762 63.3358
L51.2857 63.3358
" />
<path d="M51.2857 63.3358
L51.1905 63.3834
" />
<path d="M51.1905 63.3834
L51.1429 63.4310
" />
<path d="M51.1429 63.4310
L51.0952 63.5262
" />
</g><text x="89.0000" y="125.6600"
textLength="2.2500" font-size="1.3333" lengthAdjust="spacingAndGlyphs"
text-anchor="middle" opacity="0" stroke-opacity="0">U1</text>
<g class="stroked-text"><desc>U1</desc>
<path d="M88.2381 124.6148
L88.2381 125.4243
" />
<path d="M88.2381 125.4243
L88.2857 125.5196
" />
<path d="M88.2857 125.5196
L88.3333 125.5672
" />
<path d="M88.3333 125.5672
L88.4286 125.6148
" />
<path d="M88.4286 125.6148
L88.6190 125.6148
" />
<path d="M88.6190 125.6148
L88.7143 125.5672
" />
<path d="M88.7143 125.5672
L88.7619 125.5196
" />
<path d="M88.7619 125.5196
L88.8095 125.4243
" />
<path d="M88.8095 125.4243
L88.8095 124.6148
" />
<path d="M89.8095 125.6148
L89.2381 125.6148
" />
<path d="M89.5238 125.6148
L89.5238 124.6148
" />
<path d="M89.5238 124.6148
L89.4286 124.7577
" />
<path d="M89.4286 124.7577
L89.3333 124.8529
" />
<path d="M89.3333 124.8529
L89.2381 124.9005
" />
</g><g transform="rotate(-90.000000 90.2700 115.0000)">
<text x="90.2700" y="115.3500"
textLength="6.8100" font-size="0.9333" lengthAdjust="spacingAndGlyphs"
text-anchor="middle" opacity="0" stroke-opacity="0">MIMXRT1062</text>
</g>
<g class="stroked-text"><desc>MIMXRT1062</desc>
<path d="M90.5860 118.0833
L89.8860 118.0833
" />
<path d="M89.8860 118.0833
L90.3860 117.8500
" />
<path d="M90.3860 117.8500
L89.8860 117.6167
" />
<path d="M89.8860 117.6167
L90.5860 117.6167
" />
<path d="M90.5860 117.2833
L89.8860 117.2833
" />
<path d="M90.5860 116.9500
L89.8860 116.9500
" />
<path d="M89.8860 116.9500
L90.3860 116.7167
" />
<path d="M90.3860 116.7167
L89.8860 116.4833
" />
<path d="M89.8860 116.4833
L90.5860 116.4833
" />
<path d="M89.8860 116.2167
L90.5860 115.7500
" />
<path d="M89.8860 115.7500
L90.5860 116.2167
" />
<path d="M90.5860 115.0833
L90.2527 115.3167
" />
<path d="M90.5860 115.4833
L89.8860 115.4833
" />
<path d="M89.8860 115.4833
L89.8860 115.2167
" />
<path d="M89.8860 115.2167
L89.9194 115.1500
" />
<path d="M89.9194 115.1500
L89.9527 115.1167
" />
<path d="M89.9527 115.1167
L90.0194 115.0833
" />
<path d="M90.0194 115.0833
L90.1194 115.0833
" />
<path d="M90.1194 115.0833
L90.1860 115.1167
" />
<path d="M90.1860 115.1167
L90.2194 115.1500
" />
<path d="M90.2194 115.1500
L90.2527 115.2167
" />
<path d="M90.2527 115.2167
L90.2527 115.4833
" />
<path d="M89.8860 114.8833
L89.8860 114.4833
" />
<path d="M90.5860 114.6833
L89.8860 114.6833
" />
<path d="M90.5860 113.8833
L90.5860 114.2833
" />
<path d="M90.5860 114.0833
L89.8860 114.0833
" />
<path d="M89.8860 114.0833
L89.9860 114.1500
" />
<path d="M89.9860 114.1500
L90.0527 114.2167
" />
<path d="M90.0527 114.2167
L90.0860 114.2833
" />
<path d="M89.8860 113.4500
L89.8860 113.3833
" />
<path d="M89.8860 113.3833
L89.9194 113.3167
" />
<path d="M89.9194 113.3167
L89.9527 113.2833
" />
<path d="M89.9527 113.2833
L90.0194 113.2500
" />
<path d="M90.0194 113.2500
L90.1527 113.2167
" />
<path d="M90.1527 113.2167
L90.3194 113.2167
" />
<path d="M90.3194 113.2167
L90.4527 113.2500
" />
<path d="M90.4527 113.2500
L90.5194 113.2833
" />
<path d="M90.5194 113.2833
L90.5527 113.3167
" />
<path d="M90.5527 113.3167
L90.5860 113.3833
" />
<path d="M90.5860 113.3833
L90.5860 113.4500
" />
<path d="M90.5860 113.4500
L90.5527 113.5167
" />
<path d="M90.5527 113.5167
L90.5194 113.5500
" />
<path d="M90.5194 113.5500
L90.4527 113.5833
" />
<path d="M90.4527 113.5833
L90.3194 113.6167
" />
<path d="M90.3194 113.6167
L90.1527 113.6167
" />
<path d="M90.1527 113.6167
L90.0194 113.5833
" />
<path d="M90.0194 113.5833
L89.9527 113.5500
" />
<path d="M89.9527 113.5500
L89.9194 113.5167
" />
<path d="M89.9194 113.5167
L89.8860 113.4500
" />
<path d="M89.8860 112.6167
L89.8860 112.7500
" />
<path d="M89.8860 112.7500
L89.9194 112.8167
" />
<path d="M89.9194 112.8167
L89.9527 112.8500
" />
<path d="M89.9527 112.8500
L90.0527 112.9167
" />
<path d="M90.0527 112.9167
L90.1860 112.9500
" />
<path d="M90.1860 112.9500
L90.4527 112.9500
" />
<path d="M90.4527 112.9500
L90.5194 112.9167
" />
<path d="M90.5194 112.9167
L90.5527 112.8833
" />
<path d="M90.5527 112.8833
L90.5860 112.8167
" />
<path d="M90.5860 112.8167
L90.5860 112.6833
" />
<path d="M90.5860 112.6833
L90.5527 112.6167
" />
<path d="M90.5527 112.6167
L90.5194 112.5833
" />
<path d="M90.5194 112.5833
L90.4527 112.5500
" />
<path d="M90.4527 112.5500
L90.2860 112.5500
" />
<path d="M90.2860 112.5500
L90.2194 112.5833
" />
<path d="M90.2194 112.5833
L90.1860 112.6167
" />
<path d="M90.1860 112.6167
L90.1527 112.6833
" />
<path d="M90.1527 112.6833
L90.1527 112.8167
" />
<path d="M90.1527 112.8167
L90.1860 112.8833
" />
<path d="M90.1860 112.8833
L90.2194 112.9167
" />
<path d="M90.2194 112.9167
L90.2860 112.9500
" />
<path d="M89.9527 112.2833
L89.9194 112.2500
" />
<path d="M89.9194 112.2500
L89.8860 112.1833
" />
<path d="M89.8860 112.1833
L89.8860 112.0167
" />
<path d="M89.8860 112.0167
L89.9194 111.9500
" />
<path d="M89.9194 111.9500
L89.9527 111.9167
" />
<path d="M89.9527 111.9167
L90.0194 111.8833
" />
<path d="M90.0194 111.8833
L90.0860 111.8833
" />
<path d="M90.0860 111.8833
L90.1860 111.9167
" />
<path d="M90.1860 111.9167
L90.5860 112.3167
" />
<path d="M90.5860 112.3167
L90.5860 111.8833
" />
</g><text x="64.8700" y="115.5000"
textLength="6.9643" font-size="1.3333" lengthAdjust="spacingAndGlyphs"
text-anchor="middle" opacity="0" stroke-opacity="0">Micro SD</text>
<g class="stroked-text"><desc>Micro SD</desc>
<path d="M61.7510 115.4548
L61.7510 114.4548
" />
<path d="M61.7510 114.4548
L62.0843 115.1691
" />
<path d="M62.0843 115.1691
L62.4176 114.4548
" />
<path d="M62.4176 114.4548
L62.4176 115.4548
" />
<path d="M62.8938 115.4548
L62.8938 114.7882
" />
<path d="M62.8938 114.4548
L62.8462 114.5024
" />
<path d="M62.8462 114.5024
L62.8938 114.5501
" />
<path d="M62.8938 114.5501
L62.9414 114.5024
" />
<path d="M62.9414 114.5024
L62.8938 114.4548
" />
<path d="M62.8938 114.4548
L62.8938 114.5501
" />
<path d="M63.7986 115.4072
L63.7033 115.4548
" />
<path d="M63.7033 115.4548
L63.5129 115.4548
" />
<path d="M63.5129 115.4548
L63.4176 115.4072
" />
<path d="M63.4176 115.4072
L63.3700 115.3596
" />
<path d="M63.3700 115.3596
L63.3224 115.2643
" />
<path d="M63.3224 115.2643
L63.3224 114.9786
" />
<path d="M63.3224 114.9786
L63.3700 114.8834
" />
<path d="M63.3700 114.8834
L63.4176 114.8358
" />
<path d="M63.4176 114.8358
L63.5129 114.7882
" />
<path d="M63.5129 114.7882
L63.7033 114.7882
" />
<path d="M63.7033 114.7882
L63.7986 114.8358
" />
<path d="M64.2271 115.4548
L64.2271 114.7882
" />
<path d="M64.2271 114.9786
L64.2748 114.8834
" />
<path d="M64.2748 114.8834
L64.3224 114.8358
" />
<path d="M64.3224 114.8358
L64.4176 114.7882
" />
<path d="M64.4176 114.7882
L64.5129 114.7882
" />
<path d="M64.9890 115.4548
L64.8938 115.4072
" />
<path d="M64.8938 115.4072
L64.8462 115.3596
" />
<path d="M64.8462 115.3596
L64.7986 115.2643
" />
<path d="M64.7986 115.2643
L64.7986 114.9786
" />
<path d="M64.7986 114.9786
L64.8462 114.8834
" />
<path d="M64.8462 114.8834
L64.8938 114.8358
" />
<path d="M64.8938 114.8358
L64.9890 114.7882
" />
<path d="M64.9890 114.7882
L65.1319 114.7882
" />
<path d="M65.1319 114.7882
L65.2271 114.8358
" />
<path d="M65.2271 114.8358
L65.2748 114.8834
" />
<path d="M65.2748 114.8834
L65.3224 114.9786
" />
<path d="M65.3224 114.9786
L65.3224 115.2643
" />
<path d="M65.3224 115.2643
L65.2748 115.3596
" />
<path d="M65.2748 115.3596
L65.2271 115.4072
" />
<path d="M65.2271 115.4072
L65.1319 115.4548
" />
<path d="M65.1319 115.4548
L64.9890 115.4548
" />
<path d="M66.4652 115.4072
L66.6081 115.4548
" />
<path d="M66.6081 115.4548
L66.8462 115.4548
" />
<path d="M66.8462 115.4548
L66.9414 115.4072
" />
<path d="M66.9414 115.4072
L66.9890 115.3596
" />
<path d="M66.9890 115.3596
L67.0367 115.2643
" />
<path d="M67.0367 115.2643
L67.0367 115.1691
" />
<path d="M67.0367 115.1691
L66.9890 115.0739
" />
<path d="M66.9890 115.0739
L66.9414 115.0262
" />
<path d="M66.9414 115.0262
L66.8462 114.9786
" />
<path d="M66.8462 114.9786
L66.6557 114.9310
" />
<path d="M66.6557 114.9310
L66.5605 114.8834
" />
<path d="M66.5605 114.8834
L66.5129 114.8358
" />
<path d="M66.5129 114.8358
L66.4652 114.7405
" />
<path d="M66.4652 114.7405
L66.4652 114.6453
" />
<path d="M66.4652 114.6453
L66.5129 114.5501
" />
<path d="M66.5129 114.5501
L66.5605 114.5024
" />
<path d="M66.5605 114.5024
L66.6557 114.4548
" />
<path d="M66.6557 114.4548
L66.8938 114.4548
" />
<path d="M66.8938 114.4548
L67.0367 114.5024
" />
<path d="M67.4652 115.4548
L67.4652 114.4548
" />
<path d="M67.4652 114.4548
L67.7033 114.4548
" />
<path d="M67.7033 114.4548
L67.8462 114.5024
" />
<path d="M67.8462 114.5024
L67.9414 114.5977
" />
<path d="M67.9414 114.5977
L67.9890 114.6929
" />
<path d="M67.9890 114.6929
L68.0367 114.8834
" />
<path d="M68.0367 114.8834
L68.0367 115.0262
" />
<path d="M68.0367 115.0262
L67.9890 115.2167
" />
<path d="M67.9890 115.2167
L67.9414 115.3120
" />
<path d="M67.9414 115.3120
L67.8462 115.4072
" />
<path d="M67.8462 115.4072
L67.7033 115.4548
" />
<path d="M67.7033 115.4548
L67.4652 115.4548
" />
</g><g transform="rotate(-90.000000 115.6700 115.0000)">
<text x="115.6700" y="115.5000"
textLength="3.2500" font-size="1.3333" lengthAdjust="spacingAndGlyphs"
text-anchor="middle" opacity="0" stroke-opacity="0">USB</text>
</g>
<g class="stroked-text"><desc>USB</desc>
<path d="M115.1248 116.2619
L115.9343 116.2619
" />
<path d="M115.9343 116.2619
L116.0296 116.2143
" />
<path d="M116.0296 116.2143
L116.0772 116.1667
" />
<path d="M116.0772 116.1667
L116.1248 116.0714
" />
<path d="M116.1248 116.0714
L116.1248 115.8810
" />
<path d="M116.1248 115.8810
L116.0772 115.7857
" />
<path d="M116.0772 115.7857
L116.0296 115.7381
" />
<path d="M116.0296 115.7381
L115.9343 115.6905
" />
<path d="M115.9343 115.6905
L115.1248 115.6905
" />
<path d="M116.0772 115.2619
L116.1248 115.1190
" />
<path d="M116.1248 115.1190
L116.1248 114.8810
" />
<path d="M116.1248 114.8810
L116.0772 114.7857
" />
<path d="M116.0772 114.7857
L116.0296 114.7381
" />
<path d="M116.0296 114.7381
L115.9343 114.6905
" />
<path d="M115.9343 114.6905
L115.8391 114.6905
" />
<path d="M115.8391 114.6905
L115.7439 114.7381
" />
<path d="M115.7439 114.7381
L115.6962 114.7857
" />
<path d="M115.6962 114.7857
L115.6486 114.8810
" />
<path d="M115.6486 114.8810
L115.6010 115.0714
" />
<path d="M115.6010 115.0714
L115.5534 115.1667
" />
<path d="M115.5534 115.1667
L115.5058 115.2143
" />
<path d="M115.5058 115.2143
L115.4105 115.2619
" />
<path d="M115.4105 115.2619
L115.3153 115.2619
" />
<path d="M115.3153 115.2619
L115.2201 115.2143
" />
<path d="M115.2201 115.2143
L115.1724 115.1667
" />
<path d="M115.1724 115.1667
L115.1248 115.0714
" />
<path d="M115.1248 115.0714
L115.1248 114.8333
" />
<path d="M115.1248 114.8333
L115.1724 114.6905
" />
<path d="M115.6010 113.9286
L115.6486 113.7857
" />
<path d="M115.6486 113.7857
L115.6962 113.7381
" />
<path d="M115.6962 113.7381
L115.7915 113.6905
" />
<path d="M115.7915 113.6905
L115.9343 113.6905
" />
<path d="M115.9343 113.6905
L116.0296 113.7381
" />
<path d="M116.0296 113.7381
L116.0772 113.7857
" />
<path d="M116.0772 113.7857
L116.1248 113.8810
" />
<path d="M116.1248 113.8810
L116.1248 114.2619
" />
<path d="M116.1248 114.2619
L115.1248 114.2619
" />
<path d="M115.1248 114.2619
L115.1248 113.9286
" />
<path d="M115.1248 113.9286
L115.1724 113.8333
" />
<path d="M115.1724 113.8333
L115.2201 113.7857
" />
<path d="M115.2201 113.7857
L115.3153 113.7381
" />
<path d="M115.3153 113.7381
L115.4105 113.7381
" />
<path d="M115.4105 113.7381
L115.5058 113.7857
" />
<path d="M115.5058 113.7857
L115.5534 113.8333
" />
<path d="M115.5534 113.8333
L115.6010 113.9286
" />
<path d="M115.6010 113.9286
L115.6010 114.2619
" />
</g><g transform="rotate(-90.000000 101.0650 118.2766)">
<text x="101.0650" y="118.7766"
textLength="6.4405" font-size="1.3333" lengthAdjust="spacingAndGlyphs"
text-anchor="middle" opacity="0" stroke-opacity="0">Ethernet</text>
</g>
<g class="stroked-text"><desc>Ethernet</desc>
<path d="M100.9960 121.1337
L100.9960 120.8004
" />
<path d="M101.5198 120.6576
L101.5198 121.1337
" />
<path d="M101.5198 121.1337
L100.5198 121.1337
" />
<path d="M100.5198 121.1337
L100.5198 120.6576
" />
<path d="M100.8532 120.3718
L100.8532 119.9909
" />
<path d="M100.5198 120.2290
L101.3770 120.2290
" />
<path d="M101.3770 120.2290
L101.4722 120.1814
" />
<path d="M101.4722 120.1814
L101.5198 120.0861
" />
<path d="M101.5198 120.0861
L101.5198 119.9909
" />
<path d="M101.5198 119.6576
L100.5198 119.6576
" />
<path d="M101.5198 119.2290
L100.9960 119.2290
" />
<path d="M100.9960 119.2290
L100.9008 119.2766
" />
<path d="M100.9008 119.2766
L100.8532 119.3718
" />
<path d="M100.8532 119.3718
L100.8532 119.5147
" />
<path d="M100.8532 119.5147
L100.9008 119.6099
" />
<path d="M100.9008 119.6099
L100.9484 119.6576
" />
<path d="M101.4722 118.3718
L101.5198 118.4671
" />
<path d="M101.5198 118.4671
L101.5198 118.6576
" />
<path d="M101.5198 118.6576
L101.4722 118.7528
" />
<path d="M101.4722 118.7528
L101.3770 118.8004
" />
<path d="M101.3770 118.8004
L100.9960 118.8004
" />
<path d="M100.9960 118.8004
L100.9008 118.7528
" />
<path d="M100.9008 118.7528
L100.8532 118.6576
" />
<path d="M100.8532 118.6576
L100.8532 118.4671
" />
<path d="M100.8532 118.4671
L100.9008 118.3718
" />
<path d="M100.9008 118.3718
L100.9960 118.3242
" />
<path d="M100.9960 118.3242
L101.0912 118.3242
" />
<path d="M101.0912 118.3242
L101.1865 118.8004
" />
<path d="M101.5198 117.8956
L100.8532 117.8956
" />
<path d="M101.0436 117.8956
L100.9484 117.8480
" />
<path d="M100.9484 117.8480
L100.9008 117.8004
" />
<path d="M100.9008 117.8004
L100.8532 117.7052
" />
<path d="M100.8532 117.7052
L100.8532 117.6099
" />
<path d="M100.8532 117.2766
L101.5198 117.2766
" />
<path d="M100.9484 117.2766
L100.9008 117.2290
" />
<path d="M100.9008 117.2290
L100.8532 117.1337
" />
<path d="M100.8532 117.1337
L100.8532 116.9909
" />
<path d="M100.8532 116.9909
L100.9008 116.8956
" />
<path d="M100.9008 116.8956
L100.9960 116.8480
" />
<path d="M100.9960 116.8480
L101.5198 116.8480
" />
<path d="M101.4722 115.9909
L101.5198 116.0861
" />
<path d="M101.5198 116.0861
L101.5198 116.2766
" />
<path d="M101.5198 116.2766
L101.4722 116.3718
" />
<path d="M101.4722 116.3718
L101.3770 116.4195
" />
<path d="M101.3770 116.4195
L100.9960 116.4195
" />
<path d="M100.9960 116.4195
L100.9008 116.3718
" />
<path d="M100.9008 116.3718
L100.8532 116.2766
" />
<path d="M100.8532 116.2766
L100.8532 116.0861
" />
<path d="M100.8532 116.0861
L100.9008 115.9909
" />
<path d="M100.9008 115.9909
L100.9960 115.9433
" />
<path d="M100.9960 115.9433
L101.0912 115.9433
" />
<path d="M101.0912 115.9433
L101.1865 116.4195
" />
<path d="M100.8532 115.6576
L100.8532 115.2766
" />
<path d="M100.5198 115.5147
L101.3770 115.5147
" />
<path d="M101.3770 115.5147
L101.4722 115.4671
" />
<path d="M101.4722 115.4671
L101.5198 115.3718
" />
<path d="M101.5198 115.3718
L101.5198 115.2766
" />
</g><text x="107.4658" y="113.0108"
textLength="7.3452" font-size="1.3333" lengthAdjust="spacingAndGlyphs"
text-anchor="middle" opacity="0" stroke-opacity="0">USB Host</text>
<g class="stroked-text"><desc>USB Host</desc>
<path d="M104.1563 111.9656
L104.1563 112.7751
" />
<path d="M104.1563 112.7751
L104.2039 112.8704
" />
<path d="M104.2039 112.8704
L104.2515 112.9180
" />
<path d="M104.2515 112.9180
L104.3468 112.9656
" />
<path d="M104.3468 112.9656
L104.5372 112.9656
" />
<path d="M104.5372 112.9656
L104.6325 112.9180
" />
<path d="M104.6325 112.9180
L104.6801 112.8704
" />
<path d="M104.6801 112.8704
L104.7277 112.7751
" />
<path d="M104.7277 112.7751
L104.7277 111.9656
" />
<path d="M105.1563 112.9180
L105.2991 112.9656
" />
<path d="M105.2991 112.9656
L105.5372 112.9656
" />
<path d="M105.5372 112.9656
L105.6325 112.9180
" />
<path d="M105.6325 112.9180
L105.6801 112.8704
" />
<path d="M105.6801 112.8704
L105.7277 112.7751
" />
<path d="M105.7277 112.7751
L105.7277 112.6799
" />
<path d="M105.7277 112.6799
L105.6801 112.5847
" />
<path d="M105.6801 112.5847
L105.6325 112.5370
" />
<path d="M105.6325 112.5370
L105.5372 112.4894
" />
<path d="M105.5372 112.4894
L105.3468 112.4418
" />
<path d="M105.3468 112.4418
L105.2515 112.3942
" />
<path d="M105.2515 112.3942
L105.2039 112.3466
" />
<path d="M105.2039 112.3466
L105.1563 112.2513
" />
<path d="M105.1563 112.2513
L105.1563 112.1561
" />
<path d="M105.1563 112.1561
L105.2039 112.0609
" />
<path d="M105.2039 112.0609
L105.2515 112.0132
" />
<path d="M105.2515 112.0132
L105.3468 111.9656
" />
<path d="M105.3468 111.9656
L105.5848 111.9656
" />
<path d="M105.5848 111.9656
L105.7277 112.0132
" />
<path d="M106.4896 112.4418
L106.6325 112.4894
" />
<path d="M106.6325 112.4894
L106.6801 112.5370
" />
<path d="M106.6801 112.5370
L106.7277 112.6323
" />
<path d="M106.7277 112.6323
L106.7277 112.7751
" />
<path d="M106.7277 112.7751
L106.6801 112.8704
" />
<path d="M106.6801 112.8704
L106.6325 112.9180
" />
<path d="M106.6325 112.9180
L106.5372 112.9656
" />
<path d="M106.5372 112.9656
L106.1563 112.9656
" />
<path d="M106.1563 112.9656
L106.1563 111.9656
" />
<path d="M106.1563 111.9656
L106.4896 111.9656
" />
<path d="M106.4896 111.9656
L106.5848 112.0132
" />
<path d="M106.5848 112.0132
L106.6325 112.0609
" />
<path d="M106.6325 112.0609
L106.6801 112.1561
" />
<path d="M106.6801 112.1561
L106.6801 112.2513
" />
<path d="M106.6801 112.2513
L106.6325 112.3466
" />
<path d="M106.6325 112.3466
L106.5848 112.3942
" />
<path d="M106.5848 112.3942
L106.4896 112.4418
" />
<path d="M106.4896 112.4418
L106.1563 112.4418
" />
<path d="M107.9182 112.9656
L107.9182 111.9656
" />
<path d="M107.9182 112.4418
L108.4896 112.4418
" />
<path d="M108.4896 112.9656
L108.4896 111.9656
" />
<path d="M109.1087 112.9656
L109.0134 112.9180
" />
<path d="M109.0134 112.9180
L108.9658 112.8704
" />
<path d="M108.9658 112.8704
L108.9182 112.7751
" />
<path d="M108.9182 112.7751
L108.9182 112.4894
" />
<path d="M108.9182 112.4894
L108.9658 112.3942
" />
<path d="M108.9658 112.3942
L109.0134 112.3466
" />
<path d="M109.0134 112.3466
L109.1087 112.2990
" />
<path d="M109.1087 112.2990
L109.2515 112.2990
" />
<path d="M109.2515 112.2990
L109.3468 112.3466
" />
<path d="M109.3468 112.3466
L109.3944 112.3942
" />
<path d="M109.3944 112.3942
L109.4420 112.4894
" />
<path d="M109.4420 112.4894
L109.4420 112.7751
" />
<path d="M109.4420 112.7751
L109.3944 112.8704
" />
<path d="M109.3944 112.8704
L109.3468 112.9180
" />
<path d="M109.3468 112.9180
L109.2515 112.9656
" />
<path d="M109.2515 112.9656
L109.1087 112.9656
" />
<path d="M109.8229 112.9180
L109.9182 112.9656
" />
<path d="M109.9182 112.9656
L110.1087 112.9656
" />
<path d="M110.1087 112.9656
L110.2039 112.9180
" />
<path d="M110.2039 112.9180
L110.2515 112.8228
" />
<path d="M110.2515 112.8228
L110.2515 112.7751
" />
<path d="M110.2515 112.7751
L110.2039 112.6799
" />
<path d="M110.2039 112.6799
L110.1087 112.6323
" />
<path d="M110.1087 112.6323
L109.9658 112.6323
" />
<path d="M109.9658 112.6323
L109.8706 112.5847
" />
<path d="M109.8706 112.5847
L109.8229 112.4894
" />
<path d="M109.8229 112.4894
L109.8229 112.4418
" />
<path d="M109.8229 112.4418
L109.8706 112.3466
" />
<path d="M109.8706 112.3466
L109.9658 112.2990
" />
<path d="M109.9658 112.2990
L110.1087 112.2990
" />
<path d="M110.1087 112.2990
L110.2039 112.3466
" />
<path d="M110.5372 112.2990
L110.9182 112.2990
" />
<path d="M110.6801 111.9656
L110.6801 112.8228
" />
<path d="M110.6801 112.8228
L110.7277 112.9180
" />
<path d="M110.7277 112.9180
L110.8229 112.9656
" />
<path d="M110.8229 112.9656
L110.9182 112.9656
" />
</g><g transform="rotate(-90.000000 91.5400 115.1800)">
<text x="91.5400" y="115.5300"
textLength="3.4100" font-size="0.9333" lengthAdjust="spacingAndGlyphs"
text-anchor="middle" opacity="0" stroke-opacity="0">DVJ6A</text>
</g>
<g class="stroked-text"><desc>DVJ6A</desc>
<path d="M91.8560 116.5633
L91.1560 116.5633
" />
<path d="M91.1560 116.5633
L91.1560 116.3967
" />
<path d="M91.1560 116.3967
L91.1894 116.2967
" />
<path d="M91.1894 116.2967
L91.2560 116.2300
" />
<path d="M91.2560 116.2300
L91.3227 116.1967
" />
<path d="M91.3227 116.1967
L91.4560 116.1633
" />
<path d="M91.4560 116.1633
L91.5560 116.1633
" />
<path d="M91.5560 116.1633
L91.6894 116.1967
" />
<path d="M91.6894 116.1967
L91.7560 116.2300
" />
<path d="M91.7560 116.2300
L91.8227 116.2967
" />
<path d="M91.8227 116.2967
L91.8560 116.3967
" />
<path d="M91.8560 116.3967
L91.8560 116.5633
" />
<path d="M91.1560 115.9633
L91.8560 115.7300
" />
<path d="M91.8560 115.7300
L91.1560 115.4967
" />
<path d="M91.1560 115.0633
L91.6560 115.0633
" />
<path d="M91.6560 115.0633
L91.7560 115.0967
" />
<path d="M91.7560 115.0967
L91.8227 115.1633
" />
<path d="M91.8227 115.1633
L91.8560 115.2633
" />
<path d="M91.8560 115.2633
L91.8560 115.3300
" />
<path d="M91.1560 114.4300
L91.1560 114.5633
" />
<path d="M91.1560 114.5633
L91.1894 114.6300
" />
<path d="M91.1894 114.6300
L91.2227 114.6633
" />
<path d="M91.2227 114.6633
L91.3227 114.7300
" />
<path d="M91.3227 114.7300
L91.4560 114.7633
" />
<path d="M91.4560 114.7633
L91.7227 114.7633
" />
<path d="M91.7227 114.7633
L91.7894 114.7300
" />
<path d="M91.7894 114.7300
L91.8227 114.6967
" />
<path d="M91.8227 114.6967
L91.8560 114.6300
" />
<path d="M91.8560 114.6300
L91.8560 114.4967
" />
<path d="M91.8560 114.4967
L91.8227 114.4300
" />
<path d="M91.8227 114.4300
L91.7894 114.3967
" />
<path d="M91.7894 114.3967
L91.7227 114.3633
" />
<path d="M91.7227 114.3633
L91.5560 114.3633
" />
<path d="M91.5560 114.3633
L91.4894 114.3967
" />
<path d="M91.4894 114.3967
L91.4560 114.4300
" />
<path d="M91.4560 114.4300
L91.4227 114.4967
" />
<path d="M91.4227 114.4967
L91.4227 114.6300
" />
<path d="M91.4227 114.6300
L91.4560 114.6967
" />
<path d="M91.4560 114.6967
L91.4894 114.7300
" />
<path d="M91.4894 114.7300
L91.5560 114.7633
" />
<path d="M91.6560 114.0967
L91.6560 113.7633
" />
<path d="M91.8560 114.1633
L91.1560 113.9300
" />
<path d="M91.1560 113.9300
L91.8560 113.6967
" />
</g><g transform="rotate(-90.000000 35.5000 134.5000)">
<text x="35.5000" y="135.0000"
textLength="1.9643" font-size="1.3333" lengthAdjust="spacingAndGlyphs"
text-anchor="middle" opacity="0" stroke-opacity="0">J3</text>
</g>
<g class="stroked-text"><desc>J3</desc>
<path d="M34.9548 134.8333
L35.6691 134.8333
" />
<path d="M35.6691 134.8333
L35.8120 134.8810
" />
<path d="M35.8120 134.8810
L35.9072 134.9762
" />
<path d="M35.9072 134.9762
L35.9548 135.1190
" />
<path d="M35.9548 135.1190
L35.9548 135.2143
" />
<path d="M34.9548 134.4524
L34.9548 133.8333
" />
<path d="M34.9548 133.8333
L35.3358 134.1667
" />
<path d="M35.3358 134.1667
L35.3358 134.0238
" />
<path d="M35.3358 134.0238
L35.3834 133.9286
" />
<path d="M35.3834 133.9286
L35.4310 133.8810
" />
<path d="M35.4310 133.8810
L35.5262 133.8333
" />
<path d="M35.5262 133.8333
L35.7643 133.8333
" />
<path d="M35.7643 133.8333
L35.8596 133.8810
" />
<path d="M35.8596 133.8810
L35.9072 133.9286
" />
<path d="M35.9072 133.9286
L35.9548 134.0238
" />
<path d="M35.9548 134.0238
L35.9548 134.3095
" />
<path d="M35.9548 134.3095
L35.9072 134.4048
" />
<path d="M35.9072 134.4048
L35.8596 134.4524
" />
</g><g transform="rotate(-90.000000 51.0000 140.0000)">
<text x="51.0000" y="140.7500"
textLength="2.0071" font-size="2.0000" lengthAdjust="spacingAndGlyphs"
text-anchor="middle" opacity="0" stroke-opacity="0">-</text>
</g>
<g class="stroked-text"><desc>-</desc>
<path d="M51.1147 140.5714
L51.1147 139.4286
" />
</g><g transform="rotate(-90.000000 51.0000 129.0000)">
<text x="51.0000" y="129.7500"
textLength="2.0071" font-size="2.0000" lengthAdjust="spacingAndGlyphs"
text-anchor="middle" opacity="0" stroke-opacity="0">+</text>
</g>
<g class="stroked-text"><desc>+</desc>
<path d="M51.1147 129.5714
L51.1147 128.4286
" />
<path d="M51.6861 129.0000
L50.5433 129.0000
" />
</g><text x="55.4200" y="99.8700"
textLength="2.2024" font-size="1.3333" lengthAdjust="spacingAndGlyphs"
text-anchor="middle" opacity="0" stroke-opacity="0">R1</text>
<g class="stroked-text"><desc>R1</desc>
<path d="M55.2533 99.8248
L54.9200 99.3486
" />
<path d="M54.6819 99.8248
L54.6819 98.8248
" />
<path d="M54.6819 98.8248
L55.0629 98.8248
" />
<path d="M55.0629 98.8248
L55.1581 98.8724
" />
<path d="M55.1581 98.8724
L55.2057 98.9201
" />
<path d="M55.2057 98.9201
L55.2533 99.0153
" />
<path d="M55.2533 99.0153
L55.2533 99.1582
" />
<path d="M55.2533 99.1582
L55.2057 99.2534
" />
<path d="M55.2057 99.2534
L55.1581 99.3010
" />
<path d="M55.1581 99.3010
L55.0629 99.3486
" />
<path d="M55.0629 99.3486
L54.6819 99.3486
" />
<path d="M56.2057 99.8248
L55.6343 99.8248
" />
<path d="M55.9200 99.8248
L55.9200 98.8248
" />
<path d="M55.9200 98.8248
L55.8248 98.9677
" />
<path d="M55.8248 98.9677
L55.7295 99.0629
" />
<path d="M55.7295 99.0629
L55.6343 99.1105
" />
</g><text x="103.4000" y="42.0000"
textLength="1.9643" font-size="1.3333" lengthAdjust="spacingAndGlyphs"
text-anchor="middle" opacity="0" stroke-opacity="0">J1</text>
<g class="stroked-text"><desc>J1</desc>
<path d="M103.0667 40.9548
L103.0667 41.6691
" />
<path d="M103.0667 41.6691
L103.0190 41.8120
" />
<path d="M103.0190 41.8120
L102.9238 41.9072
" />
<path d="M102.9238 41.9072
L102.7810 41.9548
" />
<path d="M102.7810 41.9548
L102.6857 41.9548
" />
<path d="M104.0667 41.9548
L103.4952 41.9548
" />
<path d="M103.7810 41.9548
L103.7810 40.9548
" />
<path d="M103.7810 40.9548
L103.6857 41.0977
" />
<path d="M103.6857 41.0977
L103.5905 41.1929
" />
<path d="M103.5905 41.1929
L103.4952 41.2405
" />
</g><text x="97.5000" y="61.2500"
textLength="2.0071" font-size="2.0000" lengthAdjust="spacingAndGlyphs"
text-anchor="middle" opacity="0" stroke-opacity="0">+</text>
<g class="stroked-text"><desc>+</desc>
<path d="M96.9286 60.6147
L98.0714 60.6147
" />
<path d="M97.5000 61.1861
L97.5000 60.0433
" />
</g><text x="109.8000" y="61.0000"
textLength="1.4881" font-size="1.3333" lengthAdjust="spacingAndGlyphs"
text-anchor="middle" opacity="0" stroke-opacity="0">-</text>
<g class="stroked-text"><desc>-</desc>
<path d="M109.4190 60.5739
L110.1810 60.5739
" />
</g><text x="100.0000" y="60.7500"
textLength="2.9643" font-size="1.3333" lengthAdjust="spacingAndGlyphs"
text-anchor="middle" opacity="0" stroke-opacity="0">JP7</text>
<g class="stroked-text"><desc>JP7</desc>
<path d="M99.1667 59.7048
L99.1667 60.4191
" />
<path d="M99.1667 60.4191
L99.1190 60.5620
" />
<path d="M99.1190 60.5620
L99.0238 60.6572
" />
<path d="M99.0238 60.6572
L98.8810 60.7048
" />
<path d="M98.8810 60.7048
L98.7857 60.7048
" />
<path d="M99.6429 60.7048
L99.6429 59.7048
" />
<path d="M99.6429 59.7048
L100.0238 59.7048
" />
<path d="M100.0238 59.7048
L100.1190 59.7524
" />
<path d="M100.1190 59.7524
L100.1667 59.8001
" />
<path d="M100.1667 59.8001
L100.2143 59.8953
" />
<path d="M100.2143 59.8953
L100.2143 60.0382
" />
<path d="M100.2143 60.0382
L100.1667 60.1334
" />
<path d="M100.1667 60.1334
L100.1190 60.1810
" />
<path d="M100.1190 60.1810
L100.0238 60.2286
" />
<path d="M100.0238 60.2286
L99.6429 60.2286
" />
<path d="M100.5476 59.7048
L101.2143 59.7048
" />
<path d="M101.2143 59.7048
L100.7857 60.7048
" />
</g><text x="51.3100" y="105.1700"
textLength="2.2500" font-size="1.3333" lengthAdjust="spacingAndGlyphs"
text-anchor="middle" opacity="0" stroke-opacity="0">U6</text>
<g class="stroked-text"><desc>U6</desc>
<path d="M50.5481 104.1248
L50.5481 104.9343
" />
<path d="M50.5481 104.9343
L50.5957 105.0296
" />
<path d="M50.5957 105.0296
L50.6433 105.0772
" />
<path d="M50.6433 105.0772
L50.7386 105.1248
" />
<path d="M50.7386 105.1248
L50.9290 105.1248
" />
<path d="M50.9290 105.1248
L51.0243 105.0772
" />
<path d="M51.0243 105.0772
L51.0719 105.0296
" />
<path d="M51.0719 105.0296
L51.1195 104.9343
" />
<path d="M51.1195 104.9343
L51.1195 104.1248
" />
<path d="M52.0243 104.1248
L51.8338 104.1248
" />
<path d="M51.8338 104.1248
L51.7386 104.1724
" />
<path d="M51.7386 104.1724
L51.6910 104.2201
" />
<path d="M51.6910 104.2201
L51.5957 104.3629
" />
<path d="M51.5957 104.3629
L51.5481 104.5534
" />
<path d="M51.5481 104.5534
L51.5481 104.9343
" />
<path d="M51.5481 104.9343
L51.5957 105.0296
" />
<path d="M51.5957 105.0296
L51.6433 105.0772
" />
<path d="M51.6433 105.0772
L51.7386 105.1248
" />
<path d="M51.7386 105.1248
L51.9290 105.1248
" />
<path d="M51.9290 105.1248
L52.0243 105.0772
" />
<path d="M52.0243 105.0772
L52.0719 105.0296
" />
<path d="M52.0719 105.0296
L52.1195 104.9343
" />
<path d="M52.1195 104.9343
L52.1195 104.6962
" />
<path d="M52.1195 104.6962
L52.0719 104.6010
" />
<path d="M52.0719 104.6010
L52.0243 104.5534
" />
<path d="M52.0243 104.5534
L51.9290 104.5058
" />
<path d="M51.9290 104.5058
L51.7386 104.5058
" />
<path d="M51.7386 104.5058
L51.6433 104.5534
" />
<path d="M51.6433 104.5534
L51.5957 104.6010
" />
<path d="M51.5957 104.6010
L51.5481 104.6962
" />
</g></g>
<g style="fill:none; 
stroke:#000000; stroke-width:0.1000; stroke-opacity:1; 
stroke-linecap:round; stroke-linejoin:round;">
<text x="80.0000" y="130.0000"
textLength="3.1476" font-size="1.3333" lengthAdjust="spacingAndGlyphs"
text-anchor="middle" opacity="0" stroke-opacity="0">SW1</text>
<g class="stroked-text"><desc>SW1</desc>
<path d="M78.6667 129.9098
L78.8095 129.9574
" />
<path d="M78.8095 129.9574
L79.0476 129.9574
" />
<path d="M79.0476 129.9574
L79.1429 129.9098
" />
<path d="M79.1429 129.9098
L79.1905 129.8622
" />
<path d="M79.1905 129.8622
L79.2381 129.7669
" />
<path d="M79.2381 129.7669
L79.2381 129.6717
" />
<path d="M79.2381 129.6717
L79.1905 129.5765
" />
<path d="M79.1905 129.5765
L79.1429 129.5288
" />
<path d="M79.1429 129.5288
L79.0476 129.4812
" />
<path d="M79.0476 129.4812
L78.8571 129.4336
" />
<path d="M78.8571 129.4336
L78.7619 129.3860
" />
<path d="M78.7619 129.3860
L78.7143 129.3384
" />
<path d="M78.7143 129.3384
L78.6667 129.2431
" />
<path d="M78.6667 129.2431
L78.6667 129.1479
" />
<path d="M78.6667 129.1479
L78.7143 129.0527
" />
<path d="M78.7143 129.0527
L78.7619 129.0050
" />
<path d="M78.7619 129.0050
L78.8571 128.9574
" />
<path d="M78.8571 128.9574
L79.0952 128.9574
" />
<path d="M79.0952 128.9574
L79.2381 129.0050
" />
<path d="M79.5714 128.9574
L79.8095 129.9574
" />
<path d="M79.8095 129.9574
L80.0000 129.2431
" />
<path d="M80.0000 129.2431
L80.1905 129.9574
" />
<path d="M80.1905 129.9574
L80.4286 128.9574
" />
<path d="M81.3333 129.9574
L80.7619 129.9574
" />
<path d="M81.0476 129.9574
L81.0476 128.9574
" />
<path d="M81.0476 128.9574
L80.9524 129.1003
" />
<path d="M80.9524 129.1003
L80.8571 129.1955
" />
<path d="M80.8571 129.1955
L80.7619 129.2431
" />
</g><text x="101.0000" y="139.0000"
textLength="2.1000" font-size="1.3333" lengthAdjust="spacingAndGlyphs"
text-anchor="middle" opacity="0" stroke-opacity="0">U5</text>
<g class="stroked-text"><desc>U5</desc>
<path d="M100.2381 137.9574
L100.2381 138.7669
" />
<path d="M100.2381 138.7669
L100.2857 138.8622
" />
<path d="M100.2857 138.8622
L100.3333 138.9098
" />
<path d="M100.3333 138.9098
L100.4286 138.9574
" />
<path d="M100.4286 138.9574
L100.6190 138.9574
" />
<path d="M100.6190 138.9574
L100.7143 138.9098
" />
<path d="M100.7143 138.9098
L100.7619 138.8622
" />
<path d="M100.7619 138.8622
L100.8095 138.7669
" />
<path d="M100.8095 138.7669
L100.8095 137.9574
" />
<path d="M101.7619 137.9574
L101.2857 137.9574
" />
<path d="M101.2857 137.9574
L101.2381 138.4336
" />
<path d="M101.2381 138.4336
L101.2857 138.3860
" />
<path d="M101.2857 138.3860
L101.3810 138.3384
" />
<path d="M101.3810 138.3384
L101.6190 138.3384
" />
<path d="M101.6190 138.3384
L101.7143 138.3860
" />
<path d="M101.7143 138.3860
L101.7619 138.4336
" />
<path d="M101.7619 138.4336
L101.8095 138.5288
" />
<path d="M101.8095 138.5288
L101.8095 138.7669
" />
<path d="M101.8095 138.7669
L101.7619 138.8622
" />
<path d="M101.7619 138.8622
L101.7143 138.9098
" />
<path d="M101.7143 138.9098
L101.6190 138.9574
" />
<path d="M101.6190 138.9574
L101.3810 138.9574
" />
<path d="M101.3810 138.9574
L101.2857 138.9098
" />
<path d="M101.2857 138.9098
L101.2381 138.8622
" />
</g><text x="99.5300" y="149.1200"
textLength="3.7667" font-size="1.3333" lengthAdjust="spacingAndGlyphs"
text-anchor="start" opacity="0" stroke-opacity="0">RJ45</text>
<g class="stroked-text"><desc>RJ45</desc>
<path d="M100.4053 148.9924
L100.0720 148.5162
" />
<path d="M99.8339 148.9924
L99.8339 147.9924
" />
<path d="M99.8339 147.9924
L100.2148 147.9924
" />
<path d="M100.2148 147.9924
L100.3101 148.0400
" />
<path d="M100.3101 148.0400
L100.3577 148.0877
" />
<path d="M100.3577 148.0877
L100.4053 148.1829
" />
<path d="M100.4053 148.1829
L100.4053 148.3258
" />
<path d="M100.4053 148.3258
L100.3577 148.4210
" />
<path d="M100.3577 148.4210
L100.3101 148.4686
" />
<path d="M100.3101 148.4686
L100.2148 148.5162
" />
<path d="M100.2148 148.5162
L99.8339 148.5162
" />
<path d="M101.1196 147.9924
L101.1196 148.7067
" />
<path d="M101.1196 148.7067
L101.0720 148.8496
" />
<path d="M101.0720 148.8496
L100.9767 148.9448
" />
<path d="M100.9767 148.9448
L100.8339 148.9924
" />
<path d="M100.8339 148.9924
L100.7386 148.9924
" />
<path d="M102.0244 148.3258
L102.0244 148.9924
" />
<path d="M101.7863 147.9448
L101.5482 148.6591
" />
<path d="M101.5482 148.6591
L102.1672 148.6591
" />
<path d="M103.0244 147.9924
L102.5482 147.9924
" />
<path d="M102.5482 147.9924
L102.5006 148.4686
" />
<path d="M102.5006 148.4686
L102.5482 148.4210
" />
<path d="M102.5482 148.4210
L102.6434 148.3734
" />
<path d="M102.6434 148.3734
L102.8815 148.3734
" />
<path d="M102.8815 148.3734
L102.9767 148.4210
" />
<path d="M102.9767 148.4210
L103.0244 148.4686
" />
<path d="M103.0244 148.4686
L103.0720 148.5638
" />
<path d="M103.0720 148.5638
L103.0720 148.8019
" />
<path d="M103.0720 148.8019
L103.0244 148.8972
" />
<path d="M103.0244 148.8972
L102.9767 148.9448
" />
<path d="M102.9767 148.9448
L102.8815 148.9924
" />
<path d="M102.8815 148.9924
L102.6434 148.9924
" />
<path d="M102.6434 148.9924
L102.5482 148.9448
" />
<path d="M102.5482 148.9448
L102.5006 148.8972
" />
</g><g transform="rotate(-270.000000 59.5000 75.5000)">
<text x="59.5000" y="76.0000"
textLength="9.1000" font-size="1.3333" lengthAdjust="spacingAndGlyphs"
text-anchor="middle" opacity="0" stroke-opacity="0">M78AR05-1</text>
</g>
<g class="stroked-text"><desc>M78AR05-1</desc>
<path d="M59.0426 71.2381
L60.0426 71.2381
" />
<path d="M60.0426 71.2381
L59.3283 71.5714
" />
<path d="M59.3283 71.5714
L60.0426 71.9048
" />
<path d="M60.0426 71.9048
L59.0426 71.9048
" />
<path d="M60.0426 72.2857
L60.0426 72.9524
" />
<path d="M60.0426 72.9524
L59.0426 72.5238
" />
<path d="M59.6140 73.4762
L59.6616 73.3810
" />
<path d="M59.6616 73.3810
L59.7092 73.3333
" />
<path d="M59.7092 73.3333
L59.8045 73.2857
" />
<path d="M59.8045 73.2857
L59.8521 73.2857
" />
<path d="M59.8521 73.2857
L59.9473 73.3333
" />
<path d="M59.9473 73.3333
L59.9950 73.3810
" />
<path d="M59.9950 73.3810
L60.0426 73.4762
" />
<path d="M60.0426 73.4762
L60.0426 73.6667
" />
<path d="M60.0426 73.6667
L59.9950 73.7619
" />
<path d="M59.9950 73.7619
L59.9473 73.8095
" />
<path d="M59.9473 73.8095
L59.8521 73.8571
" />
<path d="M59.8521 73.8571
L59.8045 73.8571
" />
<path d="M59.8045 73.8571
L59.7092 73.8095
" />
<path d="M59.7092 73.8095
L59.6616 73.7619
" />
<path d="M59.6616 73.7619
L59.6140 73.6667
" />
<path d="M59.6140 73.6667
L59.6140 73.4762
" />
<path d="M59.6140 73.4762
L59.5664 73.3810
" />
<path d="M59.5664 73.3810
L59.5188 73.3333
" />
<path d="M59.5188 73.3333
L59.4235 73.2857
" />
<path d="M59.4235 73.2857
L59.2331 73.2857
" />
<path d="M59.2331 73.2857
L59.1378 73.3333
" />
<path d="M59.1378 73.3333
L59.0902 73.3810
" />
<path d="M59.0902 73.3810
L59.0426 73.4762
" />
<path d="M59.0426 73.4762
L59.0426 73.6667
" />
<path d="M59.0426 73.6667
L59.0902 73.7619
" />
<path d="M59.0902 73.7619
L59.1378 73.8095
" />
<path d="M59.1378 73.8095
L59.2331 73.8571
" />
<path d="M59.2331 73.8571
L59.4235 73.8571
" />
<path d="M59.4235 73.8571
L59.5188 73.8095
" />
<path d="M59.5188 73.8095
L59.5664 73.7619
" />
<path d="M59.5664 73.7619
L59.6140 73.6667
" />
<path d="M59.3283 74.2381
L59.3283 74.7143
" />
<path d="M59.0426 74.1429
L60.0426 74.4762
" />
<path d="M60.0426 74.4762
L59.0426 74.8095
" />
<path d="M59.0426 75.7143
L59.5188 75.3810
" />
<path d="M59.0426 75.1429
L60.0426 75.1429
" />
<path d="M60.0426 75.1429
L60.0426 75.5238
" />
<path d="M60.0426 75.5238
L59.9950 75.6190
" />
<path d="M59.9950 75.6190
L59.9473 75.6667
" />
<path d="M59.9473 75.6667
L59.8521 75.7143
" />
<path d="M59.8521 75.7143
L59.7092 75.7143
" />
<path d="M59.7092 75.7143
L59.6140 75.6667
" />
<path d="M59.6140 75.6667
L59.5664 75.6190
" />
<path d="M59.5664 75.6190
L59.5188 75.5238
" />
<path d="M59.5188 75.5238
L59.5188 75.1429
" />
<path d="M60.0426 76.3333
L60.0426 76.4286
" />
<path d="M60.0426 76.4286
L59.9950 76.5238
" />
<path d="M59.9950 76.5238
L59.9473 76.5714
" />
<path d="M59.9473 76.5714
L59.8521 76.6190
" />
<path d="M59.8521 76.6190
L59.6616 76.6667
" />
<path d="M59.6616 76.6667
L59.4235 76.6667
" />
<path d="M59.4235 76.6667
L59.2331 76.6190
" />
<path d="M59.2331 76.6190
L59.1378 76.5714
" />
<path d="M59.1378 76.5714
L59.0902 76.5238
" />
<path d="M59.0902 76.5238
L59.0426 76.4286
" />
<path d="M59.0426 76.4286
L59.0426 76.3333
" />
<path d="M59.0426 76.3333
L59.0902 76.2381
" />
<path d="M59.0902 76.2381
L59.1378 76.1905
" />
<path d="M59.1378 76.1905
L59.2331 76.1429
" />
<path d="M59.2331 76.1429
L59.4235 76.0952
" />
<path d="M59.4235 76.0952
L59.6616 76.0952
" />
<path d="M59.6616 76.0952
L59.8521 76.1429
" />
<path d="M59.8521 76.1429
L59.9473 76.1905
" />
<path d="M59.9473 76.1905
L59.9950 76.2381
" />
<path d="M59.9950 76.2381
L60.0426 76.3333
" />
<path d="M60.0426 77.5714
L60.0426 77.0952
" />
<path d="M60.0426 77.0952
L59.5664 77.0476
" />
<path d="M59.5664 77.0476
L59.6140 77.0952
" />
<path d="M59.6140 77.0952
L59.6616 77.1905
" />
<path d="M59.6616 77.1905
L59.6616 77.4286
" />
<path d="M59.6616 77.4286
L59.6140 77.5238
" />
<path d="M59.6140 77.5238
L59.5664 77.5714
" />
<path d="M59.5664 77.5714
L59.4712 77.6190
" />
<path d="M59.4712 77.6190
L59.2331 77.6190
" />
<path d="M59.2331 77.6190
L59.1378 77.5714
" />
<path d="M59.1378 77.5714
L59.0902 77.5238
" />
<path d="M59.0902 77.5238
L59.0426 77.4286
" />
<path d="M59.0426 77.4286
L59.0426 77.1905
" />
<path d="M59.0426 77.1905
L59.0902 77.0952
" />
<path d="M59.0902 77.0952
L59.1378 77.0476
" />
<path d="M59.4235 78.0476
L59.4235 78.8095
" />
<path d="M59.0426 79.8095
L59.0426 79.2381
" />
<path d="M59.0426 79.5238
L60.0426 79.5238
" />
<path d="M60.0426 79.5238
L59.8997 79.4286
" />
<path d="M59.8997 79.4286
L59.8045 79.3333
" />
<path d="M59.8045 79.3333
L59.7569 79.2381
" />
</g><g transform="rotate(-180.000000 65.0000 55.5000)">
<text x="65.0000" y="56.0000"
textLength="1.9095" font-size="1.3333" lengthAdjust="spacingAndGlyphs"
text-anchor="middle" opacity="0" stroke-opacity="0">F1</text>
</g>
<g class="stroked-text"><desc>F1</desc>
<path d="M65.3333 55.5664
L65.6667 55.5664
" />
<path d="M65.6667 55.0426
L65.6667 56.0426
" />
<path d="M65.6667 56.0426
L65.1905 56.0426
" />
<path d="M64.2857 55.0426
L64.8571 55.0426
" />
<path d="M64.5714 55.0426
L64.5714 56.0426
" />
<path d="M64.5714 56.0426
L64.6667 55.8997
" />
<path d="M64.6667 55.8997
L64.7619 55.8045
" />
<path d="M64.7619 55.8045
L64.8571 55.7569
" />
</g></g>
<g style="fill:none; 
stroke:#000000; stroke-width:0.1500; stroke-opacity:1; 
stroke-linecap:round; stroke-linejoin:round;">
<g transform="rotate(-90.000000 51.3700 88.0800)">
<text x="51.3700" y="88.5800"
textLength="2.2024" font-size="1.3333" lengthAdjust="spacingAndGlyphs"
text-anchor="middle" opacity="0" stroke-opacity="0">R2</text>
</g>
<g class="stroked-text"><desc>R2</desc>
<path d="M51.8248 88.2467
L51.3486 88.5800
" />
<path d="M51.8248 88.8181
L50.8248 88.8181
" />
<path d="M50.8248 88.8181
L50.8248 88.4371
" />
<path d="M50.8248 88.4371
L50.8724 88.3419
" />
<path d="M50.8724 88.3419
L50.9201 88.2943
" />
<path d="M50.9201 88.2943
L51.0153 88.2467
" />
<path d="M51.0153 88.2467
L51.1582 88.2467
" />
<path d="M51.1582 88.2467
L51.2534 88.2943
" />
<path d="M51.2534 88.2943
L51.3010 88.3419
" />
<path d="M51.3010 88.3419
L51.3486 88.4371
" />
<path d="M51.3486 88.4371
L51.3486 88.8181
" />
<path d="M50.9201 87.8657
L50.8724 87.8181
" />
<path d="M50.8724 87.8181
L50.8248 87.7229
" />
<path d="M50.8248 87.7229
L50.8248 87.4848
" />
<path d="M50.8248 87.4848
L50.8724 87.3895
" />
<path d="M50.8724 87.3895
L50.9201 87.3419
" />
<path d="M50.9201 87.3419
L51.0153 87.2943
" />
<path d="M51.0153 87.2943
L51.1105 87.2943
" />
<path d="M51.1105 87.2943
L51.2534 87.3419
" />
<path d="M51.2534 87.3419
L51.8248 87.9133
" />
<path d="M51.8248 87.9133
L51.8248 87.2943
" />
</g><text x="118.0000" y="101.0000"
textLength="2.9643" font-size="1.3333" lengthAdjust="spacingAndGlyphs"
text-anchor="middle" opacity="0" stroke-opacity="0">JP5</text>
<g class="stroked-text"><desc>JP5</desc>
<path d="M117.1667 99.9548
L117.1667 100.6691
" />
<path d="M117.1667 100.6691
L117.1190 100.8120
" />
<path d="M117.1190 100.8120
L117.0238 100.9072
" />
<path d="M117.0238 100.9072
L116.8810 100.9548
" />
<path d="M116.8810 100.9548
L116.7857 100.9548
" />
<path d="M117.6429 100.9548
L117.6429 99.9548
" />
<path d="M117.6429 99.9548
L118.0238 99.9548
" />
<path d="M118.0238 99.9548
L118.1190 100.0024
" />
<path d="M118.1190 100.0024
L118.1667 100.0501
" />
<path d="M118.1667 100.0501
L118.2143 100.1453
" />
<path d="M118.2143 100.1453
L118.2143 100.2882
" />
<path d="M118.2143 100.2882
L118.1667 100.3834
" />
<path d="M118.1667 100.3834
L118.1190 100.4310
" />
<path d="M118.1190 100.4310
L118.0238 100.4786
" />
<path d="M118.0238 100.4786
L117.6429 100.4786
" />
<path d="M119.1190 99.9548
L118.6429 99.9548
" />
<path d="M118.6429 99.9548
L118.5952 100.4310
" />
<path d="M118.5952 100.4310
L118.6429 100.3834
" />
<path d="M118.6429 100.3834
L118.7381 100.3358
" />
<path d="M118.7381 100.3358
L118.9762 100.3358
" />
<path d="M118.9762 100.3358
L119.0714 100.3834
" />
<path d="M119.0714 100.3834
L119.1190 100.4310
" />
<path d="M119.1190 100.4310
L119.1667 100.5262
" />
<path d="M119.1667 100.5262
L119.1667 100.7643
" />
<path d="M119.1667 100.7643
L119.1190 100.8596
" />
<path d="M119.1190 100.8596
L119.0714 100.9072
" />
<path d="M119.0714 100.9072
L118.9762 100.9548
" />
<path d="M118.9762 100.9548
L118.7381 100.9548
" />
<path d="M118.7381 100.9548
L118.6429 100.9072
" />
<path d="M118.6429 100.9072
L118.5952 100.8596
" />
</g></g>
<g style="fill:none; 
stroke:#000000; stroke-width:0.1000; stroke-opacity:1; 
stroke-linecap:round; stroke-linejoin:round;">
<g transform="rotate(-180.000000 81.0000 80.0000)">
<text x="81.0000" y="80.5000"
textLength="2.1000" font-size="1.3333" lengthAdjust="spacingAndGlyphs"
text-anchor="middle" opacity="0" stroke-opacity="0">U4</text>
</g>
<g class="stroked-text"><desc>U4</desc>
<path d="M81.7619 80.5426
L81.7619 79.7331
" />
<path d="M81.7619 79.7331
L81.7143 79.6378
" />
<path d="M81.7143 79.6378
L81.6667 79.5902
" />
<path d="M81.6667 79.5902
L81.5714 79.5426
" />
<path d="M81.5714 79.5426
L81.3810 79.5426
" />
<path d="M81.3810 79.5426
L81.2857 79.5902
" />
<path d="M81.2857 79.5902
L81.2381 79.6378
" />
<path d="M81.2381 79.6378
L81.1905 79.7331
" />
<path d="M81.1905 79.7331
L81.1905 80.5426
" />
<path d="M80.2857 80.2092
L80.2857 79.5426
" />
<path d="M80.5238 80.5902
L80.7619 79.8759
" />
<path d="M80.7619 79.8759
L80.1429 79.8759
" />
</g></g>
<g style="fill:none; 
stroke:#000000; stroke-width:0.1500; stroke-opacity:1; 
stroke-linecap:round; stroke-linejoin:round;">
<g transform="rotate(-90.000000 54.3300 75.3100)">
<text x="54.3300" y="75.8100"
textLength="2.2500" font-size="1.3333" lengthAdjust="spacingAndGlyphs"
text-anchor="middle" opacity="0" stroke-opacity="0">U3</text>
</g>
<g class="stroked-text"><desc>U3</desc>
<path d="M53.7848 76.0719
L54.5943 76.0719
" />
<path d="M54.5943 76.0719
L54.6896 76.0243
" />
<path d="M54.6896 76.0243
L54.7372 75.9767
" />
<path d="M54.7372 75.9767
L54.7848 75.8814
" />
<path d="M54.7848 75.8814
L54.7848 75.6910
" />
<path d="M54.7848 75.6910
L54.7372 75.5957
" />
<path d="M54.7372 75.5957
L54.6896 75.5481
" />
<path d="M54.6896 75.5481
L54.5943 75.5005
" />
<path d="M54.5943 75.5005
L53.7848 75.5005
" />
<path d="M53.7848 75.1195
L53.7848 74.5005
" />
<path d="M53.7848 74.5005
L54.1658 74.8338
" />
<path d="M54.1658 74.8338
L54.1658 74.6910
" />
<path d="M54.1658 74.6910
L54.2134 74.5957
" />
<path d="M54.2134 74.5957
L54.2610 74.5481
" />
<path d="M54.2610 74.5481
L54.3562 74.5005
" />
<path d="M54.3562 74.5005
L54.5943 74.5005
" />
<path d="M54.5943 74.5005
L54.6896 74.5481
" />
<path d="M54.6896 74.5481
L54.7372 74.5957
" />
<path d="M54.7372 74.5957
L54.7848 74.6910
" />
<path d="M54.7848 74.6910
L54.7848 74.9767
" />
<path d="M54.7848 74.9767
L54.7372 75.0719
" />
<path d="M54.7372 75.0719
L54.6896 75.1195
" />
</g><text x="48.5000" y="55.5000"
textLength="2.9643" font-size="1.3333" lengthAdjust="spacingAndGlyphs"
text-anchor="middle" opacity="0" stroke-opacity="0">JP2</text>
<g class="stroked-text"><desc>JP2</desc>
<path d="M47.6667 54.4548
L47.6667 55.1691
" />
<path d="M47.6667 55.1691
L47.6190 55.3120
" />
<path d="M47.6190 55.3120
L47.5238 55.4072
" />
<path d="M47.5238 55.4072
L47.3810 55.4548
" />
<path d="M47.3810 55.4548
L47.2857 55.4548
" />
<path d="M48.1429 55.4548
L48.1429 54.4548
" />
<path d="M48.1429 54.4548
L48.5238 54.4548
" />
<path d="M48.5238 54.4548
L48.6190 54.5024
" />
<path d="M48.6190 54.5024
L48.6667 54.5501
" />
<path d="M48.6667 54.5501
L48.7143 54.6453
" />
<path d="M48.7143 54.6453
L48.7143 54.7882
" />
<path d="M48.7143 54.7882
L48.6667 54.8834
" />
<path d="M48.6667 54.8834
L48.6190 54.9310
" />
<path d="M48.6190 54.9310
L48.5238 54.9786
" />
<path d="M48.5238 54.9786
L48.1429 54.9786
" />
<path d="M49.0952 54.5501
L49.1429 54.5024
" />
<path d="M49.1429 54.5024
L49.2381 54.4548
" />
<path d="M49.2381 54.4548
L49.4762 54.4548
" />
<path d="M49.4762 54.4548
L49.5714 54.5024
" />
<path d="M49.5714 54.5024
L49.6190 54.5501
" />
<path d="M49.6190 54.5501
L49.6667 54.6453
" />
<path d="M49.6667 54.6453
L49.6667 54.7405
" />
<path d="M49.6667 54.7405
L49.6190 54.8834
" />
<path d="M49.6190 54.8834
L49.0476 55.4548
" />
<path d="M49.0476 55.4548
L49.6667 55.4548
" />
</g></g>
<g style="fill:none; 
stroke:#000000; stroke-width:0.1000; stroke-opacity:1; 
stroke-linecap:round; stroke-linejoin:round;">
<text x="67.5000" y="94.5000"
textLength="3.1476" font-size="1.3333" lengthAdjust="spacingAndGlyphs"
text-anchor="middle" opacity="0" stroke-opacity="0">SW2</text>
<g class="stroked-text"><desc>SW2</desc>
<path d="M66.1667 94.4098
L66.3095 94.4574
" />
<path d="M66.3095 94.4574
L66.5476 94.4574
" />
<path d="M66.5476 94.4574
L66.6429 94.4098
" />
<path d="M66.6429 94.4098
L66.6905 94.3622
" />
<path d="M66.6905 94.3622
L66.7381 94.2669
" />
<path d="M66.7381 94.2669
L66.7381 94.1717
" />
<path d="M66.7381 94.1717
L66.6905 94.0765
" />
<path d="M66.6905 94.0765
L66.6429 94.0288
" />
<path d="M66.6429 94.0288
L66.5476 93.9812
" />
<path d="M66.5476 93.9812
L66.3571 93.9336
" />
<path d="M66.3571 93.9336
L66.2619 93.8860
" />
<path d="M66.2619 93.8860
L66.2143 93.8384
" />
<path d="M66.2143 93.8384
L66.1667 93.7431
" />
<path d="M66.1667 93.7431
L66.1667 93.6479
" />
<path d="M66.1667 93.6479
L66.2143 93.5527
" />
<path d="M66.2143 93.5527
L66.2619 93.5050
" />
<path d="M66.2619 93.5050
L66.3571 93.4574
" />
<path d="M66.3571 93.4574
L66.5952 93.4574
" />
<path d="M66.5952 93.4574
L66.7381 93.5050
" />
<path d="M67.0714 93.4574
L67.3095 94.4574
" />
<path d="M67.3095 94.4574
L67.5000 93.7431
" />
<path d="M67.5000 93.7431
L67.6905 94.4574
" />
<path d="M67.6905 94.4574
L67.9286 93.4574
" />
<path d="M68.2619 93.5527
L68.3095 93.5050
" />
<path d="M68.3095 93.5050
L68.4048 93.4574
" />
<path d="M68.4048 93.4574
L68.6429 93.4574
" />
<path d="M68.6429 93.4574
L68.7381 93.5050
" />
<path d="M68.7381 93.5050
L68.7857 93.5527
" />
<path d="M68.7857 93.5527
L68.8333 93.6479
" />
<path d="M68.8333 93.6479
L68.8333 93.7431
" />
<path d="M68.8333 93.7431
L68.7857 93.8860
" />
<path d="M68.7857 93.8860
L68.2143 94.4574
" />
<path d="M68.2143 94.4574
L68.8333 94.4574
" />
</g></g>
<g style="fill:none; 
stroke:#000000; stroke-width:0.1500; stroke-opacity:1; 
stroke-linecap:round; stroke-linejoin:round;">
<text x="80.0800" y="90.1300"
textLength="2.2024" font-size="1.3333" lengthAdjust="spacingAndGlyphs"
text-anchor="middle" opacity="0" stroke-opacity="0">R8</text>
<g class="stroked-text"><desc>R8</desc>
<path d="M79.9133 90.0848
L79.5800 89.6086
" />
<path d="M79.3419 90.0848
L79.3419 89.0848
" />
<path d="M79.3419 89.0848
L79.7229 89.0848
" />
<path d="M79.7229 89.0848
L79.8181 89.1324
" />
<path d="M79.8181 89.1324
L79.8657 89.1801
" />
<path d="M79.8657 89.1801
L79.9133 89.2753
" />
<path d="M79.9133 89.2753
L79.9133 89.4182
" />
<path d="M79.9133 89.4182
L79.8657 89.5134
" />
<path d="M79.8657 89.5134
L79.8181 89.5610
" />
<path d="M79.8181 89.5610
L79.7229 89.6086
" />
<path d="M79.7229 89.6086
L79.3419 89.6086
" />
<path d="M80.4848 89.5134
L80.3895 89.4658
" />
<path d="M80.3895 89.4658
L80.3419 89.4182
" />
<path d="M80.3419 89.4182
L80.2943 89.3229
" />
<path d="M80.2943 89.3229
L80.2943 89.2753
" />
<path d="M80.2943 89.2753
L80.3419 89.1801
" />
<path d="M80.3419 89.1801
L80.3895 89.1324
" />
<path d="M80.3895 89.1324
L80.4848 89.0848
" />
<path d="M80.4848 89.0848
L80.6752 89.0848
" />
<path d="M80.6752 89.0848
L80.7705 89.1324
" />
<path d="M80.7705 89.1324
L80.8181 89.1801
" />
<path d="M80.8181 89.1801
L80.8657 89.2753
" />
<path d="M80.8657 89.2753
L80.8657 89.3229
" />
<path d="M80.8657 89.3229
L80.8181 89.4182
" />
<path d="M80.8181 89.4182
L80.7705 89.4658
" />
<path d="M80.7705 89.4658
L80.6752 89.5134
" />
<path d="M80.6752 89.5134
L80.4848 89.5134
" />
<path d="M80.4848 89.5134
L80.3895 89.5610
" />
<path d="M80.3895 89.5610
L80.3419 89.6086
" />
<path d="M80.3419 89.6086
L80.2943 89.7039
" />
<path d="M80.2943 89.7039
L80.2943 89.8943
" />
<path d="M80.2943 89.8943
L80.3419 89.9896
" />
<path d="M80.3419 89.9896
L80.3895 90.0372
" />
<path d="M80.3895 90.0372
L80.4848 90.0848
" />
<path d="M80.4848 90.0848
L80.6752 90.0848
" />
<path d="M80.6752 90.0848
L80.7705 90.0372
" />
<path d="M80.7705 90.0372
L80.8181 89.9896
" />
<path d="M80.8181 89.9896
L80.8657 89.8943
" />
<path d="M80.8657 89.8943
L80.8657 89.7039
" />
<path d="M80.8657 89.7039
L80.8181 89.6086
" />
<path d="M80.8181 89.6086
L80.7705 89.5610
" />
<path d="M80.7705 89.5610
L80.6752 89.5134
" />
</g></g>
<g style="fill:none; 
stroke:#000000; stroke-width:0.1000; stroke-opacity:1; 
stroke-linecap:round; stroke-linejoin:round;">
<g transform="rotate(-180.000000 80.0000 79.0000)">
<text x="80.0000" y="79.5000"
textLength="2.1000" font-size="1.3333" lengthAdjust="spacingAndGlyphs"
text-anchor="middle" opacity="0" stroke-opacity="0">U7</text>
</g>
<g class="stroked-text"><desc>U7</desc>
<path d="M80.7619 79.5426
L80.7619 78.7331
" />
<path d="M80.7619 78.7331
L80.7143 78.6378
" />
<path d="M80.7143 78.6378
L80.6667 78.5902
" />
<path d="M80.6667 78.5902
L80.5714 78.5426
" />
<path d="M80.5714 78.5426
L80.3810 78.5426
" />
<path d="M80.3810 78.5426
L80.2857 78.5902
" />
<path d="M80.2857 78.5902
L80.2381 78.6378
" />
<path d="M80.2381 78.6378
L80.1905 78.7331
" />
<path d="M80.1905 78.7331
L80.1905 79.5426
" />
<path d="M79.8095 79.5426
L79.1429 79.5426
" />
<path d="M79.1429 79.5426
L79.5714 78.5426
" />
</g></g>
<g style="fill:none; 
stroke:#000000; stroke-width:0.1500; stroke-opacity:1; 
stroke-linecap:round; stroke-linejoin:round;">
<g transform="rotate(-90.000000 65.3700 132.5800)">
<text x="65.3700" y="133.0800"
textLength="2.2024" font-size="1.3333" lengthAdjust="spacingAndGlyphs"
text-anchor="middle" opacity="0" stroke-opacity="0">R6</text>
</g>
<g class="stroked-text"><desc>R6</desc>
<path d="M65.8248 132.7467
L65.3486 133.0800
" />
<path d="M65.8248 133.3181
L64.8248 133.3181
" />
<path d="M64.8248 133.3181
L64.8248 132.9371
" />
<path d="M64.8248 132.9371
L64.8724 132.8419
" />
<path d="M64.8724 132.8419
L64.9201 132.7943
" />
<path d="M64.9201 132.7943
L65.0153 132.7467
" />
<path d="M65.0153 132.7467
L65.1582 132.7467
" />
<path d="M65.1582 132.7467
L65.2534 132.7943
" />
<path d="M65.2534 132.7943
L65.3010 132.8419
" />
<path d="M65.3010 132.8419
L65.3486 132.9371
" />
<path d="M65.3486 132.9371
L65.3486 133.3181
" />
<path d="M64.8248 131.8895
L64.8248 132.0800
" />
<path d="M64.8248 132.0800
L64.8724 132.1752
" />
<path d="M64.8724 132.1752
L64.9201 132.2229
" />
<path d="M64.9201 132.2229
L65.0629 132.3181
" />
<path d="M65.0629 132.3181
L65.2534 132.3657
" />
<path d="M65.2534 132.3657
L65.6343 132.3657
" />
<path d="M65.6343 132.3657
L65.7296 132.3181
" />
<path d="M65.7296 132.3181
L65.7772 132.2705
" />
<path d="M65.7772 132.2705
L65.8248 132.1752
" />
<path d="M65.8248 132.1752
L65.8248 131.9848
" />
<path d="M65.8248 131.9848
L65.7772 131.8895
" />
<path d="M65.7772 131.8895
L65.7296 131.8419
" />
<path d="M65.7296 131.8419
L65.6343 131.7943
" />
<path d="M65.6343 131.7943
L65.3962 131.7943
" />
<path d="M65.3962 131.7943
L65.3010 131.8419
" />
<path d="M65.3010 131.8419
L65.2534 131.8895
" />
<path d="M65.2534 131.8895
L65.2058 131.9848
" />
<path d="M65.2058 131.9848
L65.2058 132.1752
" />
<path d="M65.2058 132.1752
L65.2534 132.2705
" />
<path d="M65.2534 132.2705
L65.3010 132.3181
" />
<path d="M65.3010 132.3181
L65.3962 132.3657
" />
</g><text x="78.2300" y="105.4600"
textLength="2.2024" font-size="1.3333" lengthAdjust="spacingAndGlyphs"
text-anchor="middle" opacity="0" stroke-opacity="0">D2</text>
<g class="stroked-text"><desc>D2</desc>
<path d="M77.4919 105.4148
L77.4919 104.4148
" />
<path d="M77.4919 104.4148
L77.7300 104.4148
" />
<path d="M77.7300 104.4148
L77.8729 104.4624
" />
<path d="M77.8729 104.4624
L77.9681 104.5577
" />
<path d="M77.9681 104.5577
L78.0157 104.6529
" />
<path d="M78.0157 104.6529
L78.0633 104.8434
" />
<path d="M78.0633 104.8434
L78.0633 104.9862
" />
<path d="M78.0633 104.9862
L78.0157 105.1767
" />
<path d="M78.0157 105.1767
L77.9681 105.2720
" />
<path d="M77.9681 105.2720
L77.8729 105.3672
" />
<path d="M77.8729 105.3672
L77.7300 105.4148
" />
<path d="M77.7300 105.4148
L77.4919 105.4148
" />
<path d="M78.4443 104.5101
L78.4919 104.4624
" />
<path d="M78.4919 104.4624
L78.5871 104.4148
" />
<path d="M78.5871 104.4148
L78.8252 104.4148
" />
<path d="M78.8252 104.4148
L78.9205 104.4624
" />
<path d="M78.9205 104.4624
L78.9681 104.5101
" />
<path d="M78.9681 104.5101
L79.0157 104.6053
" />
<path d="M79.0157 104.6053
L79.0157 104.7005
" />
<path d="M79.0157 104.7005
L78.9681 104.8434
" />
<path d="M78.9681 104.8434
L78.3967 105.4148
" />
<path d="M78.3967 105.4148
L79.0157 105.4148
" />
</g><text x="67.0800" y="90.1300"
textLength="2.2024" font-size="1.3333" lengthAdjust="spacingAndGlyphs"
text-anchor="middle" opacity="0" stroke-opacity="0">R7</text>
<g class="stroked-text"><desc>R7</desc>
<path d="M66.9133 90.0848
L66.5800 89.6086
" />
<path d="M66.3419 90.0848
L66.3419 89.0848
" />
<path d="M66.3419 89.0848
L66.7229 89.0848
" />
<path d="M66.7229 89.0848
L66.8181 89.1324
" />
<path d="M66.8181 89.1324
L66.8657 89.1801
" />
<path d="M66.8657 89.1801
L66.9133 89.2753
" />
<path d="M66.9133 89.2753
L66.9133 89.4182
" />
<path d="M66.9133 89.4182
L66.8657 89.5134
" />
<path d="M66.8657 89.5134
L66.8181 89.5610
" />
<path d="M66.8181 89.5610
L66.7229 89.6086
" />
<path d="M66.7229 89.6086
L66.3419 89.6086
" />
<path d="M67.2467 89.0848
L67.9133 89.0848
" />
<path d="M67.9133 89.0848
L67.4848 90.0848
" />
</g><text x="103.5000" y="129.3500"
textLength="2.2024" font-size="1.3333" lengthAdjust="spacingAndGlyphs"
text-anchor="middle" opacity="0" stroke-opacity="0">C1</text>
<g class="stroked-text"><desc>C1</desc>
<path d="M103.3333 129.2096
L103.2857 129.2572
" />
<path d="M103.2857 129.2572
L103.1429 129.3048
" />
<path d="M103.1429 129.3048
L103.0476 129.3048
" />
<path d="M103.0476 129.3048
L102.9048 129.2572
" />
<path d="M102.9048 129.2572
L102.8095 129.1620
" />
<path d="M102.8095 129.1620
L102.7619 129.0667
" />
<path d="M102.7619 129.0667
L102.7143 128.8762
" />
<path d="M102.7143 128.8762
L102.7143 128.7334
" />
<path d="M102.7143 128.7334
L102.7619 128.5429
" />
<path d="M102.7619 128.5429
L102.8095 128.4477
" />
<path d="M102.8095 128.4477
L102.9048 128.3524
" />
<path d="M102.9048 128.3524
L103.0476 128.3048
" />
<path d="M103.0476 128.3048
L103.1429 128.3048
" />
<path d="M103.1429 128.3048
L103.2857 128.3524
" />
<path d="M103.2857 128.3524
L103.3333 128.4001
" />
<path d="M104.2857 129.3048
L103.7143 129.3048
" />
<path d="M104.0000 129.3048
L104.0000 128.3048
" />
<path d="M104.0000 128.3048
L103.9048 128.4477
" />
<path d="M103.9048 128.4477
L103.8095 128.5429
" />
<path d="M103.8095 128.5429
L103.7143 128.5905
" />
</g><text x="55.4200" y="104.8700"
textLength="2.2024" font-size="1.3333" lengthAdjust="spacingAndGlyphs"
text-anchor="middle" opacity="0" stroke-opacity="0">R4</text>
<g class="stroked-text"><desc>R4</desc>
<path d="M55.2533 104.8248
L54.9200 104.3486
" />
<path d="M54.6819 104.8248
L54.6819 103.8248
" />
<path d="M54.6819 103.8248
L55.0629 103.8248
" />
<path d="M55.0629 103.8248
L55.1581 103.8724
" />
<path d="M55.1581 103.8724
L55.2057 103.9201
" />
<path d="M55.2057 103.9201
L55.2533 104.0153
" />
<path d="M55.2533 104.0153
L55.2533 104.1582
" />
<path d="M55.2533 104.1582
L55.2057 104.2534
" />
<path d="M55.2057 104.2534
L55.1581 104.3010
" />
<path d="M55.1581 104.3010
L55.0629 104.3486
" />
<path d="M55.0629 104.3486
L54.6819 104.3486
" />
<path d="M56.1105 104.1582
L56.1105 104.8248
" />
<path d="M55.8724 103.7772
L55.6343 104.4915
" />
<path d="M55.6343 104.4915
L56.2533 104.4915
" />
</g></g>
<g style="fill:none; 
stroke:#000000; stroke-width:0.1200; stroke-opacity:1; 
stroke-linecap:round; stroke-linejoin:round;">
<path d="M66.6300 135.6500
L66.6300 142.1900
" />
<path d="M66.6300 142.1900
L69.3700 142.1900
" />
<path d="M68.0000 134.8800
L68.0000 135.6500
" />
<path d="M68.0000 142.9600
L68.0000 142.1900
" />
<path d="M69.3700 135.6500
L66.6300 135.6500
" />
<path d="M69.3700 142.1900
L69.3700 135.6500
" />
<path d="M110.4900 78.4400
L110.4900 86.0600
" />
<path d="M110.4900 86.0600
L116.4600 86.0600
" />
<path d="M111.2500 79.2000
L111.2500 82.2500
" />
<path d="M111.2500 85.3000
L111.2500 82.2500
" />
<path d="M114.2000 78.4500
L114.2000 79.2000
" />
<path d="M114.2000 79.2000
L111.2500 79.2000
" />
<path d="M114.2000 85.3000
L111.2500 85.3000
" />
<path d="M114.2000 86.0500
L114.2000 85.3000
" />
<path d="M115.7000 78.4500
L115.7000 80.2500
" />
<path d="M115.7000 80.2500
L116.4500 80.2500
" />
<path d="M115.7000 81.7500
L115.7000 82.7500
" />
<path d="M115.7000 82.7500
L116.4500 82.7500
" />
<path d="M115.7000 84.2500
L115.7000 86.0500
" />
<path d="M115.7000 86.0500
L116.4500 86.0500
" />
<path d="M116.4500 78.4500
L115.7000 78.4500
" />
<path d="M116.4500 80.2500
L116.4500 78.4500
" />
<path d="M116.4500 81.7500
L115.7000 81.7500
" />
<path d="M116.4500 82.7500
L116.4500 81.7500
" />
<path d="M116.4500 84.2500
L115.7000 84.2500
" />
<path d="M116.4500 86.0500
L116.4500 84.2500
" />
<path d="M116.4600 78.4400
L110.4900 78.4400
" />
<path d="M116.4600 86.0600
L116.4600 78.4400
" />
<path d="M116.7500 78.1500
L115.5000 78.1500
" />
<path d="M116.7500 79.4000
L116.7500 78.1500
" />
<path d="M75.1600 138.6700
L75.1600 143.8700
" />
<path d="M75.1600 143.8700
L80.4600 143.8700
" />
<path d="M76.8100 138.6700
L75.1600 138.6700
" />
<path d="M80.4600 138.6700
L78.8100 138.6700
" />
<path d="M80.4600 143.8700
L80.4600 138.6700
" />
<path d="M76.8100 138.6700 A1.0000 1.0000 0.0 0 0 78.8100 138.6700" />
<path d="M77.5400 50.2400
L77.5400 55.8500
" />
<path d="M77.5400 50.2400
L78.3900 50.2400
" />
<path d="M78.3900 42.5400
L78.3900 50.2400
" />
<path d="M78.3900 42.5400
L92.4100 42.5400
" />
<path d="M82.9500 59.9600
L86.6900 59.9600
" />
<path d="M92.4100 42.5400
L92.4100 50.2400
" />
<path d="M92.4100 50.2400
L93.2600 50.2400
" />
<path d="M93.2600 50.2400
L93.2600 55.8500
" />
<path d="M77.5400 55.8500 A4.1102 4.1102 0.0 0 0 80.4101 59.8087" />
<path d="M91.2668 59.3730 A4.1100 4.1100 0.0 0 0 93.2600 55.8500" />
</g>
<g style="fill:none; 
stroke:#000000; stroke-width:0.1500; stroke-opacity:1; 
stroke-linecap:round; stroke-linejoin:round;">
<path d="M58.5200 106.1100
L119.4800 106.1100
" />
<path d="M58.5200 120.0800
L59.7900 120.0800
" />
<path d="M58.5200 121.3500
L71.2200 121.3500
" />
<path d="M58.5200 123.8900
L58.5200 106.1100
" />
<path d="M59.7900 109.9200
L58.5200 109.9200
" />
<path d="M59.7900 120.0800
L59.7900 109.9200
" />
<path d="M71.2200 108.6500
L58.5200 108.6500
" />
<path d="M71.2200 121.3500
L71.2200 108.6500
" />
<path d="M75.0300 113.7300
L78.8400 113.7300
" />
<path d="M75.0300 116.2700
L75.0300 113.7300
" />
<path d="M78.8400 113.7300
L78.8400 116.2700
" />
<path d="M78.8400 116.2700
L75.0300 116.2700
" />
<path d="M83.9200 108.6500
L83.9200 121.3500
" />
<path d="M83.9200 121.3500
L96.6200 121.3500
" />
<path d="M96.6200 108.6500
L83.9200 108.6500
" />
<path d="M96.6200 121.3500
L96.6200 108.6500
" />
<path d="M100.4808 109.1608
L113.1808 109.1608
" />
<path d="M100.4808 111.7008
L100.4808 109.1608
" />
<path d="M102.2500 115.1016
L102.2500 121.3516
" />
<path d="M102.2500 121.3516
L106.2500 121.3516
" />
<path d="M106.2500 115.1016
L102.2500 115.1016
" />
<path d="M106.2500 121.1016
L106.2500 115.1016
" />
<path d="M106.2500 121.3516
L106.2500 121.1016
" />
<path d="M110.6408 111.7008
L110.6408 109.1608
" />
<path d="M113.1808 109.1608
L113.1808 111.7008
" />
<path d="M113.1808 111.7008
L100.4808 111.7008
" />
<path d="M113.1808 111.7008
L110.6408 111.7008
" />
<path d="M114.4000 111.1900
L114.4000 118.8100
" />
<path d="M114.4000 111.1900
L119.4800 111.1900
" />
<path d="M114.4000 118.8100
L119.4800 118.8100
" />
<path d="M119.4800 106.1100
L119.4800 123.8900
" />
<path d="M119.4800 111.1900
L120.7500 111.1900
" />
<path d="M119.4800 123.8900
L58.5200 123.8900
" />
<path d="M120.7500 111.1900
L120.7500 118.8100
" />
<path d="M120.7500 118.8100
L119.4800 118.8100
" />
<circle cx="76.9350" cy="115.0000" r="0.8980" /> 
<path style="fill:#000000; fill-opacity:1.0000; 
stroke:#000000; stroke-width:0.1000; stroke-opacity:1; 
stroke-linecap:round; stroke-linejoin:round;fill-rule:evenodd;"
d="M 86.3110,115.4340
86.0570,115.6880
85.8030,115.3070
86.0570,115.0530
Z" /> 
<path style="fill:#000000; fill-opacity:1.0000; 
stroke:#000000; stroke-width:0.1000; stroke-opacity:1; 
stroke-linecap:round; stroke-linejoin:round;fill-rule:evenodd;"
d="M 86.6920,115.0530
86.4380,115.3070
86.1840,114.9260
86.4380,114.6720
Z" /> 
<path style="fill:#000000; fill-opacity:1.0000; 
stroke:#000000; stroke-width:0.1000; stroke-opacity:1; 
stroke-linecap:round; stroke-linejoin:round;fill-rule:evenodd;"
d="M 87.0730,114.6720
86.8190,114.9260
86.5650,114.5450
86.8190,114.2910
Z" /> 
<path style="fill:#000000; fill-opacity:1.0000; 
stroke:#000000; stroke-width:0.1000; stroke-opacity:1; 
stroke-linecap:round; stroke-linejoin:round;fill-rule:evenodd;"
d="M 87.4540,115.1800
87.2000,115.4340
86.9460,115.0530
87.2000,114.7990
Z" /> 
<path style="fill:#000000; fill-opacity:1.0000; 
stroke:#000000; stroke-width:0.1000; stroke-opacity:1; 
stroke-linecap:round; stroke-linejoin:round;fill-rule:evenodd;"
d="M 87.8350,114.7990
87.5810,115.0530
87.3270,114.6720
87.5810,114.4180
Z" /> 
<path style="fill:#000000; fill-opacity:1.0000; 
stroke:#000000; stroke-width:0.1000; stroke-opacity:1; 
stroke-linecap:round; stroke-linejoin:round;fill-rule:evenodd;"
d="M 87.8350,115.6880
87.5810,115.9420
87.3270,115.5610
87.5810,115.3070
Z" /> 
<path style="fill:#000000; fill-opacity:1.0000; 
stroke:#000000; stroke-width:0.1000; stroke-opacity:1; 
stroke-linecap:round; stroke-linejoin:round;fill-rule:evenodd;"
d="M 88.2160,115.3070
87.9620,115.5610
87.7080,115.1800
87.9620,114.9260
Z" /> 
<path style="fill:#000000; fill-opacity:1.0000; 
stroke:#000000; stroke-width:0.1000; stroke-opacity:1; 
stroke-linecap:round; stroke-linejoin:round;fill-rule:evenodd;"
d="M 88.5970,115.8150
88.3430,116.0690
88.0890,115.6880
88.3430,115.4340
Z" /> 
</g>
<g style="fill:none; 
stroke:#000000; stroke-width:0.1200; stroke-opacity:1; 
stroke-linecap:round; stroke-linejoin:round;">
<path d="M36.8400 129.9700
L42.8400 129.9700
" />
<path d="M36.8400 139.0300
L36.8400 130.0000
" />
<path d="M36.8400 139.0300
L42.8400 139.0300
" />
<path d="M42.8400 129.4400
L44.8900 129.4400
" />
<path d="M42.8400 129.9700
L42.8400 129.4400
" />
<path d="M42.8400 139.5600
L42.8400 139.0300
" />
<path d="M42.8400 139.5600
L44.8900 139.5600
" />
<path d="M44.8900 129.4400
L44.8900 128.7400
" />
<path d="M44.8900 140.2600
L44.8900 139.5600
" />
<path d="M47.1100 140.2600
L47.1100 128.7400
" />
<path d="M47.1100 128.8500 A1.1100 1.1100 0.0 0 0 44.8900 128.8500" />
<path d="M44.8900 140.1500 A1.1100 1.1100 0.0 0 0 47.0966 140.3217" />
<path d="M51.3800 97.0000
L52.1500 97.0000
" />
<path d="M52.1500 95.6300
L52.1500 98.3700
" />
<path d="M52.1500 98.3700
L58.6900 98.3700
" />
<path d="M58.6900 95.6300
L52.1500 95.6300
" />
<path d="M58.6900 98.3700
L58.6900 95.6300
" />
<path d="M59.4600 97.0000
L58.6900 97.0000
" />
<path d="M95.5400 50.2400
L95.5400 55.8500
" />
<path d="M95.5400 50.2400
L96.3900 50.2400
" />
<path d="M96.3900 42.5400
L96.3900 50.2400
" />
<path d="M96.3900 42.5400
L110.4100 42.5400
" />
<path d="M100.9500 59.9600
L104.6900 59.9600
" />
<path d="M110.4100 42.5400
L110.4100 50.2400
" />
<path d="M110.4100 50.2400
L111.2600 50.2400
" />
<path d="M111.2600 50.2400
L111.2600 55.8500
" />
<path d="M95.5400 55.8500 A4.1102 4.1102 0.0 0 0 98.4101 59.8087" />
<path d="M109.2668 59.3730 A4.1100 4.1100 0.0 0 0 111.2600 55.8500" />
<path d="M48.6600 105.6700
L48.6600 123.5700
" />
<path d="M48.6600 123.5700
L53.9600 123.5700
" />
<path d="M50.3100 105.6700
L48.6600 105.6700
" />
<path d="M53.9600 105.6700
L52.3100 105.6700
" />
<path d="M53.9600 123.5700
L53.9600 105.6700
" />
<path d="M50.3100 105.6700 A1.0000 1.0000 0.0 0 0 52.3100 105.6700" />
<path style="fill:none; 
stroke:#000000; stroke-width:0.1000; stroke-opacity:1; 
stroke-linecap:round; stroke-linejoin:round;fill:none"
d="M 75.9350,125.4300
84.0650,125.4300
84.0650,134.5700
75.9350,134.5700
Z" /> 
<path style="fill:none; 
stroke:#000000; stroke-width:0.1000; stroke-opacity:1; 
stroke-linecap:round; stroke-linejoin:round;fill:none"
d="M 91.1500,128.3250
110.8500,128.3250
110.8500,149.6750
91.1500,149.6750
Z" /> 
<path style="fill:none; 
stroke:#000000; stroke-width:0.1000; stroke-opacity:1; 
stroke-linecap:round; stroke-linejoin:round;fill:none"
d="M 63.0000,69.5000
55.4500,69.5000
55.4500,81.0000
63.0000,81.0000
Z" /> 
<path style="fill:none; 
stroke:#000000; stroke-width:0.1000; stroke-opacity:1; 
stroke-linecap:round; stroke-linejoin:round;fill:none"
d="M 74.9050,58.3650
55.0950,58.3650
55.0950,51.6350
74.9050,51.6350
Z" /> 
</g>
<g style="fill:none; 
stroke:#000000; stroke-width:0.1200; stroke-opacity:1; 
stroke-linecap:round; stroke-linejoin:round;">
<path d="M47.6300 84.8100
L47.6300 91.3500
" />
<path d="M47.6300 91.3500
L50.3700 91.3500
" />
<path d="M49.0000 84.0400
L49.0000 84.8100
" />
<path d="M49.0000 92.1200
L49.0000 91.3500
" />
<path d="M50.3700 84.8100
L47.6300 84.8100
" />
<path d="M50.3700 91.3500
L50.3700 84.8100
" />
<path style="fill:none; 
stroke:#000000; stroke-width:0.1000; stroke-opacity:1; 
stroke-linecap:round; stroke-linejoin:round;fill:none"
d="M 108.0000,94.5000
54.0000,94.5000
54.0000,64.5000
108.0000,64.5000
Z" /> 
</g>
<g style="fill:none; 
stroke:#000000; stroke-width:0.1000; stroke-opacity:1; 
stroke-linecap:round; stroke-linejoin:round;">
<circle cx="57.0000" cy="67.5000" r="1.6000" /> 
<circle cx="57.0000" cy="91.5000" r="1.6000" /> 
<circle cx="105.0000" cy="67.5000" r="1.6000" /> 
<circle cx="105.0000" cy="91.5000" r="1.6000" /> 
</g>
<g style="fill:none; 
stroke:#000000; stroke-width:0.1200; stroke-opacity:1; 
stroke-linecap:round; stroke-linejoin:round;">
<path d="M48.1300 72.6600
L48.1300 77.9600
" />
<path d="M48.1300 77.9600
L53.3300 77.9600
" />
<path d="M53.3300 72.6600
L48.1300 72.6600
" />
<path d="M53.3300 74.3100
L53.3300 72.6600
" />
<path d="M53.3300 77.9600
L53.3300 76.3100
" />
<path d="M53.3300 74.3100 A1.0000 1.0000 0.0 0 0 53.3300 76.3100" />
<path style="fill:none; 
stroke:#000000; stroke-width:0.1000; stroke-opacity:1; 
stroke-linecap:round; stroke-linejoin:round;fill:none"
d="M 63.2500,95.1500
71.7500,95.1500
71.7500,98.8500
63.2500,98.8500
Z" /> 
</g>
<g style="fill:none; 
stroke:#000000; stroke-width:0.1200; stroke-opacity:1; 
stroke-linecap:round; stroke-linejoin:round;">
<path d="M76.0400 92.0000
L76.8100 92.0000
" />
<path d="M76.8100 90.6300
L76.8100 93.3700
" />
<path d="M76.8100 93.3700
L83.3500 93.3700
" />
<path d="M83.3500 90.6300
L76.8100 90.6300
" />
<path d="M83.3500 93.3700
L83.3500 90.6300
" />
<path d="M84.1200 92.0000
L83.3500 92.0000
" />
<path style="fill:none; 
stroke:#000000; stroke-width:0.1000; stroke-opacity:1; 
stroke-linecap:round; stroke-linejoin:round;fill:none"
d="M 95.9000,88.6500
64.1000,88.6500
64.1000,68.3500
95.9000,68.3500
Z" /> 
</g>
<g style="fill:none; 
stroke:#000000; stroke-width:0.1200; stroke-opacity:1; 
stroke-linecap:round; stroke-linejoin:round;">
<path d="M61.6300 129.3100
L61.6300 135.8500
" />
<path d="M61.6300 135.8500
L64.3700 135.8500
" />
<path d="M63.0000 128.5400
L63.0000 129.3100
" />
<path d="M63.0000 136.6200
L63.0000 135.8500
" />
<path d="M64.3700 129.3100
L61.6300 129.3100
" />
<path d="M64.3700 135.8500
L64.3700 129.3100
" />
<path d="M79.7900 100.9200
L79.7900 100.7640
" />
<path d="M79.7900 103.2360
L79.7900 103.0800
" />
<path d="M79.7900 100.7645 A1.9900 1.9900 0.0 0 0 76.5577 100.9214" />
<path d="M79.2710 100.9200 A1.5000 1.5000 0.0 0 0 77.1889 100.9202" />
<path d="M77.1889 103.0798 A1.5000 1.5000 0.0 0 0 79.2710 103.0800" />
<path d="M76.5577 103.0786 A1.9900 1.9900 0.0 0 0 79.7900 103.2355" />
<path d="M63.0400 92.0000
L63.8100 92.0000
" />
<path d="M63.8100 90.6300
L63.8100 93.3700
" />
<path d="M63.8100 93.3700
L70.3500 93.3700
" />
<path d="M70.3500 90.6300
L63.8100 90.6300
" />
<path d="M70.3500 93.3700
L70.3500 90.6300
" />
<path d="M71.1200 92.0000
L70.3500 92.0000
" />
<path d="M100.8300 124.9450
L100.8300 124.2790
" />
<path d="M100.8300 127.7210
L100.8300 127.0550
" />
<path d="M106.1700 124.2790
L100.8300 124.2790
" />
<path d="M106.1700 124.9450
L106.1700 124.2790
" />
<path d="M106.1700 127.7210
L100.8300 127.7210
" />
<path d="M106.1700 127.7210
L106.1700 127.0550
" />
<path d="M51.3800 102.0000
L52.1500 102.0000
" />
<path d="M52.1500 100.6300
L52.1500 103.3700
" />
<path d="M52.1500 103.3700
L58.6900 103.3700
" />
<path d="M58.6900 100.6300
L52.1500 100.6300
" />
<path d="M58.6900 103.3700
L58.6900 100.6300
" />
<path d="M59.4600 102.0000
L58.6900 102.0000
" />
</g> 
</svg>
