<?xml version="1.0" standalone="no"?>
 <!DOCTYPE svg PUBLIC "-//W3C//DTD SVG 1.1//EN" 
 "http://www.w3.org/Graphics/SVG/1.1/DTD/svg11.dtd"> 
<svg
  xmlns:svg="http://www.w3.org/2000/svg"
  xmlns="http://www.w3.org/2000/svg"
  xmlns:xlink="http://www.w3.org/1999/xlink"
  version="1.1"
  width="297.0022mm" height="210.0072mm" viewBox="0.0000 0.0000 297.0022 210.0072">
<title>SVG Image created as miniv_motor_controller_board-F_Cu0.svg date 2025/09/09 01:11:05 </title>
  <desc>Image generated by PCBNEW </desc>
<g style="fill:#000000; fill-opacity:1.0000;stroke:#000000; stroke-opacity:1.0000;
stroke-linecap:round; stroke-linejoin:round;"
 transform="translate(0 0) scale(1 1)">
</g>
<g style="fill:#000000; fill-opacity:1.0000; stroke:none;">
<circle cx="68.0000" cy="144.0000" r="0.8000" /> 
</g>
<g style="fill:#000000; fill-opacity:1.0000; stroke:none;">
<circle cx="68.0000" cy="133.8400" r="0.8000" /> 
<path style="fill:#000000; fill-opacity:1.0000; stroke:none;fill-rule:evenodd;"
d="M 114.7500,80.1500
114.8457,80.1690
114.9268,80.2232
114.9810,80.3043
115.0000,80.4000
115.0000,81.6000
114.9810,81.6957
114.9268,81.7768
114.8457,81.8310
114.7500,81.8500
113.2500,81.8500
113.1543,81.8310
113.0732,81.7768
113.0190,81.6957
113.0000,81.6000
113.0000,80.4000
113.0190,80.3043
113.0732,80.2232
113.1543,80.1690
113.2500,80.1500
Z" /> 
</g>
<g style="fill:none; 
stroke:#000000; stroke-width:1.7000; stroke-opacity:1; 
stroke-linecap:round; stroke-linejoin:round;">
<path d="M114.1500 83.5000
L113.8500 83.5000
" />
<path style="fill:#000000; fill-opacity:1.0000; stroke:none;fill-rule:evenodd;"
d="M 43.2000,111.4500
43.2190,111.3543
43.2732,111.2732
43.3543,111.2190
43.4500,111.2000
44.5500,111.2000
44.6457,111.2190
44.7268,111.2732
44.7810,111.3543
44.8000,111.4500
44.8000,112.5500
44.7810,112.6457
44.7268,112.7268
44.6457,112.7810
44.5500,112.8000
43.4500,112.8000
43.3543,112.7810
43.2732,112.7268
43.2190,112.6457
43.2000,112.5500
Z" /> 
<path style="fill:#000000; fill-opacity:1.0000; stroke:none;fill-rule:evenodd;"
d="M 73.2000,140.8000
73.2000,139.2000
74.8000,139.2000
74.8000,140.8000
Z" /> 
</g>
<g style="fill:#000000; fill-opacity:1.0000; stroke:none;">
<circle cx="74.0000" cy="142.5400" r="0.8000" /> 
<circle cx="81.6200" cy="142.5400" r="0.8000" /> 
<circle cx="81.6200" cy="140.0000" r="0.8000" /> 
<path style="fill:#000000; fill-opacity:1.0000; stroke:none;fill-rule:evenodd;"
d="M 78.2000,53.0000
78.2000,51.0000
79.1000,51.0000
79.1000,53.0000
Z" /> 
<path style="fill:#000000; fill-opacity:1.0000; stroke:none;fill-rule:evenodd;"
d="M 91.7000,53.0000
91.7000,51.0000
92.6000,51.0000
92.6000,53.0000
Z" /> 
<path style="fill:#000000; fill-opacity:1.0000; stroke:none;fill-rule:evenodd;"
d="M 86.9500,56.9750
86.9697,56.7750
87.0280,56.5827
87.1227,56.4055
87.2502,56.2502
87.4055,56.1227
87.5827,56.0280
87.7750,55.9697
87.9750,55.9500
90.0250,55.9500
90.2250,55.9697
90.4173,56.0280
90.5945,56.1227
90.7498,56.2502
90.8773,56.4055
90.9720,56.5827
91.0303,56.7750
91.0500,56.9750
91.0500,59.0250
91.0303,59.2250
90.9720,59.4173
90.8773,59.5945
90.7498,59.7498
90.5945,59.8773
90.4173,59.9720
90.2250,60.0303
90.0250,60.0500
87.9750,60.0500
87.7750,60.0303
87.5827,59.9720
87.4055,59.8773
87.2502,59.7498
87.1227,59.5945
87.0280,59.4173
86.9697,59.2250
86.9500,59.0250
Z" /> 
<circle cx="81.8000" cy="58.0000" r="2.0500" /> 
<path style="fill:#000000; fill-opacity:1.0000; stroke:none;fill-rule:evenodd;"
d="M 49.7000,64.9500
49.7190,64.8543
49.7732,64.7732
49.8543,64.7190
49.9500,64.7000
51.0500,64.7000
51.1457,64.7190
51.2268,64.7732
51.2810,64.8543
51.3000,64.9500
51.3000,66.0500
51.2810,66.1457
51.2268,66.2268
51.1457,66.2810
51.0500,66.3000
49.9500,66.3000
49.8543,66.2810
49.7732,66.2268
49.7190,66.1457
49.7000,66.0500
Z" /> 
<path style="fill:#000000; fill-opacity:1.0000; stroke:none;fill-rule:evenodd;"
d="M 119.0100,106.5800
119.0100,108.1800
117.4100,108.1800
117.4100,106.5800
Z" /> 
</g>
<g style="fill:#000000; fill-opacity:1.0000; stroke:none;">
<circle cx="115.6700" cy="107.3800" r="0.8000" /> 
</g>
<g style="fill:#000000; fill-opacity:1.0000; stroke:none;">
<circle cx="113.1300" cy="107.3800" r="0.8000" /> 
</g>
<g style="fill:#000000; fill-opacity:1.0000; stroke:none;">
<circle cx="110.5900" cy="107.3800" r="0.8000" /> 
</g>
<g style="fill:#000000; fill-opacity:1.0000; stroke:none;">
<circle cx="108.0500" cy="107.3800" r="0.8000" /> 
</g>
<g style="fill:#000000; fill-opacity:1.0000; stroke:none;">
<circle cx="105.5100" cy="107.3800" r="0.8000" /> 
</g>
<g style="fill:#000000; fill-opacity:1.0000; stroke:none;">
<circle cx="102.9700" cy="107.3800" r="0.8000" /> 
</g>
<g style="fill:#000000; fill-opacity:1.0000; stroke:none;">
<circle cx="100.4300" cy="107.3800" r="0.8000" /> 
</g>
<g style="fill:#000000; fill-opacity:1.0000; stroke:none;">
<circle cx="97.8900" cy="107.3800" r="0.8000" /> 
</g>
<g style="fill:#000000; fill-opacity:1.0000; stroke:none;">
<circle cx="95.3500" cy="107.3800" r="0.8000" /> 
</g>
<g style="fill:#000000; fill-opacity:1.0000; stroke:none;">
<circle cx="92.8100" cy="107.3800" r="0.8000" /> 
</g>
<g style="fill:#000000; fill-opacity:1.0000; stroke:none;">
<circle cx="90.2700" cy="107.3800" r="0.8000" /> 
</g>
<g style="fill:#000000; fill-opacity:1.0000; stroke:none;">
<circle cx="87.7300" cy="107.3800" r="0.8000" /> 
</g>
<g style="fill:#000000; fill-opacity:1.0000; stroke:none;">
<circle cx="85.1900" cy="107.3800" r="0.8000" /> 
</g>
<g style="fill:#000000; fill-opacity:1.0000; stroke:none;">
<circle cx="82.6500" cy="107.3800" r="0.8000" /> 
</g>
<g style="fill:#000000; fill-opacity:1.0000; stroke:none;">
<circle cx="80.1100" cy="107.3800" r="0.8000" /> 
</g>
<g style="fill:#000000; fill-opacity:1.0000; stroke:none;">
<circle cx="77.5700" cy="107.3800" r="0.8000" /> 
</g>
<g style="fill:#000000; fill-opacity:1.0000; stroke:none;">
<circle cx="75.0300" cy="107.3800" r="0.8000" /> 
</g>
<g style="fill:#000000; fill-opacity:1.0000; stroke:none;">
<circle cx="72.4900" cy="107.3800" r="0.8000" /> 
</g>
<g style="fill:#000000; fill-opacity:1.0000; stroke:none;">
<circle cx="69.9500" cy="107.3800" r="0.8000" /> 
</g>
<g style="fill:#000000; fill-opacity:1.0000; stroke:none;">
<circle cx="67.4100" cy="107.3800" r="0.8000" /> 
</g>
<g style="fill:#000000; fill-opacity:1.0000; stroke:none;">
<circle cx="64.8700" cy="107.3800" r="0.8000" /> 
</g>
<g style="fill:#000000; fill-opacity:1.0000; stroke:none;">
<circle cx="62.3300" cy="107.3800" r="0.8000" /> 
</g>
<g style="fill:#000000; fill-opacity:1.0000; stroke:none;">
<circle cx="59.7900" cy="107.3800" r="0.8000" /> 
</g>
<g style="fill:#000000; fill-opacity:1.0000; stroke:none;">
<circle cx="59.7900" cy="122.6200" r="0.8000" /> 
</g>
<g style="fill:#000000; fill-opacity:1.0000; stroke:none;">
<circle cx="62.3300" cy="122.6200" r="0.8000" /> 
</g>
<g style="fill:#000000; fill-opacity:1.0000; stroke:none;">
<circle cx="64.8700" cy="122.6200" r="0.8000" /> 
</g>
<g style="fill:#000000; fill-opacity:1.0000; stroke:none;">
<circle cx="67.4100" cy="122.6200" r="0.8000" /> 
</g>
<g style="fill:#000000; fill-opacity:1.0000; stroke:none;">
<circle cx="69.9500" cy="122.6200" r="0.8000" /> 
</g>
<g style="fill:#000000; fill-opacity:1.0000; stroke:none;">
<circle cx="72.4900" cy="122.6200" r="0.8000" /> 
</g>
<g style="fill:#000000; fill-opacity:1.0000; stroke:none;">
<circle cx="75.0300" cy="122.6200" r="0.8000" /> 
</g>
<g style="fill:#000000; fill-opacity:1.0000; stroke:none;">
<circle cx="77.5700" cy="122.6200" r="0.8000" /> 
</g>
<g style="fill:#000000; fill-opacity:1.0000; stroke:none;">
<circle cx="80.1100" cy="122.6200" r="0.8000" /> 
</g>
<g style="fill:#000000; fill-opacity:1.0000; stroke:none;">
<circle cx="82.6500" cy="122.6200" r="0.8000" /> 
</g>
<g style="fill:#000000; fill-opacity:1.0000; stroke:none;">
<circle cx="85.1900" cy="122.6200" r="0.8000" /> 
</g>
<g style="fill:#000000; fill-opacity:1.0000; stroke:none;">
<circle cx="87.7300" cy="122.6200" r="0.8000" /> 
</g>
<g style="fill:#000000; fill-opacity:1.0000; stroke:none;">
<circle cx="90.2700" cy="122.6200" r="0.8000" /> 
</g>
<g style="fill:#000000; fill-opacity:1.0000; stroke:none;">
<circle cx="92.8100" cy="122.6200" r="0.8000" /> 
</g>
<g style="fill:#000000; fill-opacity:1.0000; stroke:none;">
<circle cx="95.3500" cy="122.6200" r="0.8000" /> 
</g>
<g style="fill:#000000; fill-opacity:1.0000; stroke:none;">
<circle cx="97.8900" cy="122.6200" r="0.8000" /> 
</g>
<g style="fill:#000000; fill-opacity:1.0000; stroke:none;">
<circle cx="100.4300" cy="122.6200" r="0.8000" /> 
</g>
<g style="fill:#000000; fill-opacity:1.0000; stroke:none;">
<circle cx="102.9700" cy="122.6200" r="0.8000" /> 
</g>
<g style="fill:#000000; fill-opacity:1.0000; stroke:none;">
<circle cx="105.5100" cy="122.6200" r="0.8000" /> 
</g>
<g style="fill:#000000; fill-opacity:1.0000; stroke:none;">
<circle cx="108.0500" cy="122.6200" r="0.8000" /> 
</g>
<g style="fill:#000000; fill-opacity:1.0000; stroke:none;">
<circle cx="110.5900" cy="122.6200" r="0.8000" /> 
</g>
<g style="fill:#000000; fill-opacity:1.0000; stroke:none;">
<circle cx="113.1300" cy="122.6200" r="0.8000" /> 
</g>
<g style="fill:#000000; fill-opacity:1.0000; stroke:none;">
<circle cx="115.6700" cy="122.6200" r="0.8000" /> 
</g>
<g style="fill:#000000; fill-opacity:1.0000; stroke:none;">
<circle cx="118.2100" cy="122.6200" r="0.8000" /> 
</g>
<g style="fill:#000000; fill-opacity:1.0000; stroke:none;">
<circle cx="115.6700" cy="120.0800" r="0.8000" /> 
<path style="fill:#000000; fill-opacity:1.0000; stroke:none;fill-rule:evenodd;"
d="M 112.7108,109.6308
112.7108,111.2308
111.1108,111.2308
111.1108,109.6308
Z" /> 
</g>
<g style="fill:#000000; fill-opacity:1.0000; stroke:none;">
<circle cx="109.3708" cy="110.4308" r="0.8000" /> 
</g>
<g style="fill:#000000; fill-opacity:1.0000; stroke:none;">
<circle cx="106.8308" cy="110.4308" r="0.8000" /> 
</g>
<g style="fill:#000000; fill-opacity:1.0000; stroke:none;">
<circle cx="104.2908" cy="110.4308" r="0.8000" /> 
</g>
<g style="fill:#000000; fill-opacity:1.0000; stroke:none;">
<circle cx="101.7508" cy="110.4308" r="0.8000" /> 
<path style="fill:#000000; fill-opacity:1.0000; stroke:none;fill-rule:evenodd;"
d="M 105.8900,119.5316
105.8900,120.8316
104.5900,120.8316
104.5900,119.5316
Z" /> 
</g>
<g style="fill:#000000; fill-opacity:1.0000; stroke:none;">
<circle cx="105.2400" cy="118.1816" r="0.6500" /> 
</g>
<g style="fill:#000000; fill-opacity:1.0000; stroke:none;">
<circle cx="105.2400" cy="116.1816" r="0.6500" /> 
</g>
<g style="fill:#000000; fill-opacity:1.0000; stroke:none;">
<circle cx="103.2400" cy="116.1816" r="0.6500" /> 
</g>
<g style="fill:#000000; fill-opacity:1.0000; stroke:none;">
<circle cx="103.2400" cy="118.1816" r="0.6500" /> 
</g>
<g style="fill:#000000; fill-opacity:1.0000; stroke:none;">
<circle cx="103.2400" cy="120.1816" r="0.6500" /> 
</g>
<g style="fill:#000000; fill-opacity:1.0000; stroke:none;">
<circle cx="117.4800" cy="116.2700" r="0.6500" /> 
</g>
<g style="fill:#000000; fill-opacity:1.0000; stroke:none;">
<circle cx="117.4800" cy="113.7300" r="0.6500" /> 
</g>
<g style="fill:#000000; fill-opacity:1.0000; stroke:none;">
<circle cx="46.0000" cy="140.0000" r="0.7000" /> 
</g>
<g style="fill:#000000; fill-opacity:1.0000; stroke:none;">
<circle cx="46.0000" cy="129.0000" r="0.7000" /> 
<path style="fill:#000000; fill-opacity:1.0000; stroke:none;fill-rule:evenodd;"
d="M 50.0200,138.7500
49.8643,138.7341
49.6946,138.6779
49.5424,138.5840
49.4160,138.4576
49.3221,138.3054
49.2659,138.1357
49.2500,137.9800
49.2500,136.0200
49.2659,135.8643
49.3221,135.6946
49.4160,135.5424
49.5424,135.4160
49.6946,135.3221
49.8643,135.2659
50.0200,135.2500
51.9800,135.2500
52.1357,135.2659
52.3054,135.3221
52.4576,135.4160
52.5840,135.5424
52.6779,135.6946
52.7341,135.8643
52.7500,136.0200
52.7500,137.9800
52.7341,138.1357
52.6779,138.3054
52.5840,138.4576
52.4576,138.5840
52.3054,138.6779
52.1357,138.7341
51.9800,138.7500
Z" /> 
</g>
<g style="fill:#000000; fill-opacity:1.0000; stroke:none;">
<circle cx="51.0000" cy="132.0000" r="1.7500" /> 
</g>
<g style="fill:#000000; fill-opacity:1.0000; stroke:none;">
<circle cx="60.5000" cy="97.0000" r="0.8000" /> 
</g>
<g style="fill:#000000; fill-opacity:1.0000; stroke:none;">
<circle cx="50.3400" cy="97.0000" r="0.8000" /> 
<path style="fill:#000000; fill-opacity:1.0000; stroke:none;fill-rule:evenodd;"
d="M 96.2000,53.0000
96.2000,51.0000
97.1000,51.0000
97.1000,53.0000
Z" /> 
<path style="fill:#000000; fill-opacity:1.0000; stroke:none;fill-rule:evenodd;"
d="M 109.7000,53.0000
109.7000,51.0000
110.6000,51.0000
110.6000,53.0000
Z" /> 
<path style="fill:#000000; fill-opacity:1.0000; stroke:none;fill-rule:evenodd;"
d="M 104.9500,56.9750
104.9697,56.7750
105.0280,56.5827
105.1227,56.4055
105.2502,56.2502
105.4055,56.1227
105.5827,56.0280
105.7750,55.9697
105.9750,55.9500
108.0250,55.9500
108.2250,55.9697
108.4173,56.0280
108.5945,56.1227
108.7498,56.2502
108.8773,56.4055
108.9720,56.5827
109.0303,56.7750
109.0500,56.9750
109.0500,59.0250
109.0303,59.2250
108.9720,59.4173
108.8773,59.5945
108.7498,59.7498
108.5945,59.8773
108.4173,59.9720
108.2250,60.0303
108.0250,60.0500
105.9750,60.0500
105.7750,60.0303
105.5827,59.9720
105.4055,59.8773
105.2502,59.7498
105.1227,59.5945
105.0280,59.4173
104.9697,59.2250
104.9500,59.0250
Z" /> 
<circle cx="99.8000" cy="58.0000" r="2.0500" /> 
<path style="fill:#000000; fill-opacity:1.0000; stroke:none;fill-rule:evenodd;"
d="M 98.9500,61.7000
98.9690,61.6043
99.0232,61.5232
99.1043,61.4690
99.2000,61.4500
100.8000,61.4500
100.8957,61.4690
100.9768,61.5232
101.0310,61.6043
101.0500,61.7000
101.0500,63.3000
101.0310,63.3957
100.9768,63.4768
100.8957,63.5310
100.8000,63.5500
99.2000,63.5500
99.1043,63.5310
99.0232,63.4768
98.9690,63.3957
98.9500,63.3000
Z" /> 
<path style="fill:#000000; fill-opacity:1.0000; stroke:none;fill-rule:evenodd;"
d="M 46.7000,107.8000
46.7000,106.2000
48.3000,106.2000
48.3000,107.8000
Z" /> 
</g>
<g style="fill:#000000; fill-opacity:1.0000; stroke:none;">
<circle cx="47.5000" cy="109.5400" r="0.8000" /> 
<circle cx="47.5000" cy="112.0800" r="0.8000" /> 
<circle cx="47.5000" cy="114.6200" r="0.8000" /> 
<circle cx="47.5000" cy="117.1600" r="0.8000" /> 
<circle cx="47.5000" cy="119.7000" r="0.8000" /> 
<circle cx="47.5000" cy="122.2400" r="0.8000" /> 
<circle cx="55.1200" cy="122.2400" r="0.8000" /> 
<circle cx="55.1200" cy="119.7000" r="0.8000" /> 
<circle cx="55.1200" cy="117.1600" r="0.8000" /> 
<circle cx="55.1200" cy="114.6200" r="0.8000" /> 
<circle cx="55.1200" cy="112.0800" r="0.8000" /> 
<circle cx="55.1200" cy="109.5400" r="0.8000" /> 
<circle cx="55.1200" cy="107.0000" r="0.8000" /> 
<circle cx="82.5400" cy="127.4600" r="1.0900" /> 
</g>
<g style="fill:#000000; fill-opacity:1.0000; stroke:none;">
<circle cx="82.5400" cy="130.0000" r="1.0900" /> 
</g>
<g style="fill:#000000; fill-opacity:1.0000; stroke:none;">
<circle cx="82.5400" cy="132.5400" r="1.0900" /> 
</g>
<g style="fill:#000000; fill-opacity:1.0000; stroke:none;">
<circle cx="77.4600" cy="127.4600" r="1.0900" /> 
</g>
<g style="fill:#000000; fill-opacity:1.0000; stroke:none;">
<circle cx="77.4600" cy="130.0000" r="1.0900" /> 
</g>
<g style="fill:#000000; fill-opacity:1.0000; stroke:none;">
<circle cx="77.4600" cy="132.5400" r="1.0900" /> 
</g>
<g style="fill:#000000; fill-opacity:1.0000; stroke:none;">
<circle cx="93.2500" cy="135.9500" r="0.9000" /> 
</g>
<g style="fill:#000000; fill-opacity:1.0000; stroke:none;">
<circle cx="95.2850" cy="139.0000" r="1.7500" /> 
</g>
<g style="fill:#000000; fill-opacity:1.0000; stroke:none;">
<circle cx="106.7150" cy="139.0000" r="1.7500" /> 
</g>
<g style="fill:#000000; fill-opacity:1.0000; stroke:none;">
<circle cx="108.7500" cy="135.9500" r="0.9000" /> 
</g>
<g style="fill:#000000; fill-opacity:1.0000; stroke:none;">
<circle cx="96.5550" cy="132.6500" r="0.9000" /> 
</g>
<g style="fill:#000000; fill-opacity:1.0000; stroke:none;">
<circle cx="97.8250" cy="130.1100" r="0.9000" /> 
</g>
<g style="fill:#000000; fill-opacity:1.0000; stroke:none;">
<circle cx="99.0950" cy="132.6500" r="0.9000" /> 
</g>
<g style="fill:#000000; fill-opacity:1.0000; stroke:none;">
<circle cx="100.3650" cy="130.1100" r="0.9000" /> 
</g>
<g style="fill:#000000; fill-opacity:1.0000; stroke:none;">
<circle cx="101.6350" cy="132.6500" r="0.9000" /> 
</g>
<g style="fill:#000000; fill-opacity:1.0000; stroke:none;">
<circle cx="102.9050" cy="130.1100" r="0.9000" /> 
</g>
<g style="fill:#000000; fill-opacity:1.0000; stroke:none;">
<circle cx="104.1750" cy="132.6500" r="0.9000" /> 
</g>
<g style="fill:#000000; fill-opacity:1.0000; stroke:none;">
<circle cx="105.4450" cy="130.1100" r="0.9000" /> 
</g>
<g style="fill:#000000; fill-opacity:1.0000; stroke:none;">
<circle cx="94.6750" cy="144.0800" r="1.0200" /> 
</g>
<g style="fill:#000000; fill-opacity:1.0000; stroke:none;">
<circle cx="97.2150" cy="142.3800" r="1.0200" /> 
</g>
<g style="fill:#000000; fill-opacity:1.0000; stroke:none;">
<circle cx="104.7850" cy="144.0800" r="1.0200" /> 
</g>
<g style="fill:#000000; fill-opacity:1.0000; stroke:none;">
<circle cx="107.3250" cy="142.3800" r="1.0200" /> 
</g>
<g style="fill:#000000; fill-opacity:1.0000; stroke:none;">
<circle cx="60.5000" cy="72.7100" r="0.7620" /> 
</g>
<g style="fill:#000000; fill-opacity:1.0000; stroke:none;">
<circle cx="60.5000" cy="75.2500" r="0.7620" /> 
</g>
<g style="fill:#000000; fill-opacity:1.0000; stroke:none;">
<circle cx="60.5160" cy="77.7900" r="0.7620" /> 
</g>
<g style="fill:#000000; fill-opacity:1.0000; stroke:none;">
<circle cx="71.7350" cy="56.7000" r="1.2000" /> 
</g>
<g style="fill:#000000; fill-opacity:1.0000; stroke:none;">
<circle cx="71.7350" cy="53.3000" r="1.2000" /> 
</g>
<g style="fill:#000000; fill-opacity:1.0000; stroke:none;">
<circle cx="58.2650" cy="56.7000" r="1.2000" /> 
</g>
<g style="fill:#000000; fill-opacity:1.0000; stroke:none;">
<circle cx="58.2650" cy="53.3000" r="1.2000" /> 
</g>
<g style="fill:#000000; fill-opacity:1.0000; stroke:none;">
<circle cx="49.0000" cy="83.0000" r="0.8000" /> 
</g>
<g style="fill:#000000; fill-opacity:1.0000; stroke:none;">
<circle cx="49.0000" cy="93.1600" r="0.8000" /> 
<path style="fill:#000000; fill-opacity:1.0000; stroke:none;fill-rule:evenodd;"
d="M 117.2000,101.9500
117.2190,101.8543
117.2732,101.7732
117.3543,101.7190
117.4500,101.7000
118.5500,101.7000
118.6457,101.7190
118.7268,101.7732
118.7810,101.8543
118.8000,101.9500
118.8000,103.0500
118.7810,103.1457
118.7268,103.2268
118.6457,103.2810
118.5500,103.3000
117.4500,103.3000
117.3543,103.2810
117.2732,103.2268
117.2190,103.1457
117.2000,103.0500
Z" /> 
<circle cx="105.0000" cy="91.5000" r="1.7000" /> 
</g>
<g style="fill:#000000; fill-opacity:1.0000; stroke:none;">
<circle cx="105.0000" cy="67.5000" r="1.7000" /> 
</g>
<g style="fill:#000000; fill-opacity:1.0000; stroke:none;">
<circle cx="57.0000" cy="91.5000" r="1.7000" /> 
</g>
<g style="fill:#000000; fill-opacity:1.0000; stroke:none;">
<circle cx="57.0000" cy="67.5000" r="1.7000" /> 
<path style="fill:#000000; fill-opacity:1.0000; stroke:none;fill-rule:evenodd;"
d="M 51.2000,70.7000
52.8000,70.7000
52.8000,72.3000
51.2000,72.3000
Z" /> 
</g>
<g style="fill:#000000; fill-opacity:1.0000; stroke:none;">
<circle cx="49.4600" cy="71.5000" r="0.8000" /> 
<circle cx="49.4600" cy="79.1200" r="0.8000" /> 
<circle cx="52.0000" cy="79.1200" r="0.8000" /> 
<path style="fill:#000000; fill-opacity:1.0000; stroke:none;fill-rule:evenodd;"
d="M 50.9500,54.2000
50.9690,54.1043
51.0232,54.0232
51.1043,53.9690
51.2000,53.9500
52.8000,53.9500
52.8957,53.9690
52.9768,54.0232
53.0310,54.1043
53.0500,54.2000
53.0500,55.8000
53.0310,55.8957
52.9768,55.9768
52.8957,56.0310
52.8000,56.0500
51.2000,56.0500
51.1043,56.0310
51.0232,55.9768
50.9690,55.8957
50.9500,55.8000
Z" /> 
<circle cx="65.0000" cy="97.0000" r="0.8000" /> 
</g>
<g style="fill:#000000; fill-opacity:1.0000; stroke:none;">
<circle cx="67.5000" cy="97.0000" r="0.8000" /> 
</g>
<g style="fill:#000000; fill-opacity:1.0000; stroke:none;">
<circle cx="70.0000" cy="97.0000" r="0.8000" /> 
</g>
<g style="fill:#000000; fill-opacity:1.0000; stroke:none;">
<circle cx="75.0000" cy="92.0000" r="0.8000" /> 
</g>
<g style="fill:#000000; fill-opacity:1.0000; stroke:none;">
<circle cx="85.1600" cy="92.0000" r="0.8000" /> 
<circle cx="73.6800" cy="86.1100" r="0.7000" /> 
</g>
<g style="fill:#000000; fill-opacity:1.0000; stroke:none;">
<circle cx="91.4600" cy="86.1100" r="0.7000" /> 
</g>
<g style="fill:#000000; fill-opacity:1.0000; stroke:none;">
<circle cx="88.9200" cy="86.1100" r="0.7000" /> 
</g>
<g style="fill:#000000; fill-opacity:1.0000; stroke:none;">
<circle cx="68.6000" cy="86.1100" r="0.7000" /> 
</g>
<g style="fill:#000000; fill-opacity:1.0000; stroke:none;">
<circle cx="68.6000" cy="70.8900" r="0.7000" /> 
</g>
<g style="fill:#000000; fill-opacity:1.0000; stroke:none;">
<circle cx="73.6800" cy="70.8900" r="0.7000" /> 
</g>
<g style="fill:#000000; fill-opacity:1.0000; stroke:none;">
<circle cx="88.9200" cy="70.8900" r="0.7000" /> 
</g>
<g style="fill:#000000; fill-opacity:1.0000; stroke:none;">
<circle cx="91.4600" cy="70.8900" r="0.7000" /> 
</g>
<g style="fill:#000000; fill-opacity:1.0000; stroke:none;">
<circle cx="63.0000" cy="127.5000" r="0.8000" /> 
</g>
<g style="fill:#000000; fill-opacity:1.0000; stroke:none;">
<circle cx="63.0000" cy="137.6600" r="0.8000" /> 
<path style="fill:#000000; fill-opacity:1.0000; stroke:none;fill-rule:evenodd;"
d="M 80.4000,101.1000
80.4000,102.9000
78.6000,102.9000
78.6000,101.1000
Z" /> 
<circle cx="76.9600" cy="102.0000" r="0.9000" /> 
</g>
<g style="fill:#000000; fill-opacity:1.0000; stroke:none;">
<circle cx="62.0000" cy="92.0000" r="0.8000" /> 
</g>
<g style="fill:#000000; fill-opacity:1.0000; stroke:none;">
<circle cx="72.1600" cy="92.0000" r="0.8000" /> 
<circle cx="106.0000" cy="126.0000" r="0.8000" /> 
</g>
<g style="fill:#000000; fill-opacity:1.0000; stroke:none;">
<circle cx="101.0000" cy="126.0000" r="0.8000" /> 
</g>
<g style="fill:#000000; fill-opacity:1.0000; stroke:none;">
<circle cx="60.5000" cy="102.0000" r="0.8000" /> 
</g>
<g style="fill:#000000; fill-opacity:1.0000; stroke:none;">
<circle cx="50.3400" cy="102.0000" r="0.8000" /> 
</g>
<g style="fill:none; 
stroke:#000000; stroke-width:1.0000; stroke-opacity:1; 
stroke-linecap:round; stroke-linejoin:round;">
<path d="M60.5000 102.0000
L76.9600 102.0000
" />
</g>
<g style="fill:none; 
stroke:#000000; stroke-width:6.0000; stroke-opacity:1; 
stroke-linecap:round; stroke-linejoin:round;">
<path d="M73.0350 58.0000
L71.7350 56.7000
" />
<path d="M81.8000 58.0000
L73.0350 58.0000
" />
<path d="M71.7350 56.7000
L71.7350 53.5000
" />
</g>
<g style="fill:none; 
stroke:#000000; stroke-width:1.0000; stroke-opacity:1; 
stroke-linecap:round; stroke-linejoin:round;">
<path d="M60.5000 72.7100
L60.5000 64.0000
" />
<path d="M50.5000 63.5000
L50.5000 65.5000
" />
<path d="M68.6000 70.8900
L62.3200 70.8900
" />
<path d="M62.3200 70.8900
L60.5000 72.7100
" />
<path d="M60.5000 64.0000
L58.5000 62.0000
" />
<path d="M58.5000 62.0000
L52.0000 62.0000
" />
<path d="M52.0000 62.0000
L50.5000 63.5000
" />
<path d="M77.4600 130.0000
L53.0000 130.0000
" />
<path d="M53.0000 130.0000
L51.0000 132.0000
" />
<path d="M48.6600 62.3400
L50.2000 60.8000
" />
<path d="M48.6600 70.7000
L48.6600 62.3400
" />
<path d="M90.8024 81.0000
L114.0000 81.0000
" />
<path d="M70.6024 60.8000
L90.8024 81.0000
" />
<path d="M49.4600 71.5000
L48.6600 70.7000
" />
<path d="M50.2000 60.8000
L70.6024 60.8000
" />
<path d="M114.0000 83.5000
L107.0000 83.5000
" />
<path d="M107.0000 83.5000
L98.5000 92.0000
" />
<path d="M98.5000 92.0000
L85.1600 92.0000
" />
<path d="M118.2100 122.6200
L120.3300 120.5000
" />
<path d="M55.1200 105.2587
L57.0000 103.3787
" />
<path d="M59.0000 100.0000
L67.0000 100.0000
" />
<path d="M57.0000 103.3787
L57.0000 102.0000
" />
<path d="M55.1200 107.0000
L55.1200 105.2587
" />
<path d="M60.5160 77.7900
L53.3300 77.7900
" />
<path d="M120.5000 120.5000
L120.5000 100.0000
" />
<path d="M117.5000 97.0000
L70.0000 97.0000
" />
<path d="M53.3300 77.7900
L52.0000 79.1200
" />
<path d="M120.5000 100.0000
L117.5000 97.0000
" />
<path d="M67.0000 100.0000
L70.0000 97.0000
" />
<path d="M120.3300 120.5000
L120.5000 120.5000
" />
<path d="M57.0000 102.0000
L59.0000 100.0000
" />
<path d="M44.0800 112.0800
L44.0000 112.0000
" />
<path d="M50.3400 109.2400
L47.5000 112.0800
" />
<path d="M47.5000 112.0800
L44.0800 112.0800
" />
<path d="M50.3400 102.0000
L50.3400 109.2400
" />
</g>
<g style="fill:none; 
stroke:#000000; stroke-width:0.1270; stroke-opacity:1; 
stroke-linecap:round; stroke-linejoin:round;">
<path d="M103.2400 114.9460
L103.8860 114.3000
" />
<path d="M98.9885 129.8411
L98.9885 130.7545
" />
<path d="M100.3300 113.5380
L99.3665 114.5015
" />
<path d="M103.2400 116.1816
L103.2400 114.9460
" />
<path d="M103.8860 113.9190
L103.5050 113.5380
" />
<path d="M98.9885 130.7545
L97.0930 132.6500
" />
<path d="M99.3665 129.4631
L98.9885 129.8411
" />
<path d="M103.5050 113.5380
L100.3300 113.5380
" />
<path d="M97.0930 132.6500
L96.5550 132.6500
" />
<path d="M103.8860 114.3000
L103.8860 113.9190
" />
<path d="M99.3665 114.5015
L99.3665 129.4631
" />
<path d="M110.4900 142.2400
L106.4260 146.3040
" />
<path d="M110.4900 135.3820
L110.4900 142.2400
" />
<path d="M106.4260 146.3040
L101.1390 146.3040
" />
<path d="M108.0216 118.1816
L109.2200 119.3800
" />
<path d="M105.2400 118.1816
L108.0216 118.1816
" />
<path d="M109.2200 134.1120
L110.4900 135.3820
" />
<path d="M101.1390 146.3040
L97.2150 142.3800
" />
<path d="M109.2200 119.3800
L109.2200 134.1120
" />
<path d="M104.3940 113.7920
L103.6320 113.0300
" />
<path d="M99.0395 128.8955
L97.8250 130.1100
" />
<path d="M99.0395 114.3205
L99.0395 128.8955
" />
<path d="M104.3940 114.3000
L104.3940 113.7920
" />
<path d="M100.3300 113.0300
L99.0395 114.3205
" />
<path d="M103.6320 113.0300
L100.3300 113.0300
" />
<path d="M105.2400 115.1460
L104.3940 114.3000
" />
<path d="M105.2400 116.1816
L105.2400 115.1460
" />
</g>
<g style="fill:none; 
stroke:#000000; stroke-width:0.5000; stroke-opacity:1; 
stroke-linecap:round; stroke-linejoin:round;">
<path d="M106.0000 126.0000
L106.0000 129.5550
" />
<path d="M106.7600 122.1022
L106.7600 125.2400
" />
<path d="M102.1400 119.2816
L102.1400 120.6372
" />
<path d="M105.9394 121.2816
L106.7600 122.1022
" />
<path d="M106.0000 129.5550
L105.4450 130.1100
" />
<path d="M102.7844 121.2816
L105.9394 121.2816
" />
<path d="M103.2400 118.1816
L102.1400 119.2816
" />
</g>
<g style="fill:none; 
stroke:#000000; stroke-width:0.1270; stroke-opacity:1; 
stroke-linecap:round; stroke-linejoin:round;">
<path d="M105.4450 130.1100
L105.4450 130.8450
" />
</g>
<g style="fill:none; 
stroke:#000000; stroke-width:0.5000; stroke-opacity:1; 
stroke-linecap:round; stroke-linejoin:round;">
<path d="M102.1400 120.6372
L102.7844 121.2816
" />
<path d="M106.7600 125.2400
L106.0000 126.0000
" />
</g>
<g style="fill:none; 
stroke:#000000; stroke-width:0.1270; stroke-opacity:1; 
stroke-linecap:round; stroke-linejoin:round;">
<path d="M105.2400 120.1816
L105.2400 120.6930
" />
</g>
<g style="fill:none; 
stroke:#000000; stroke-width:1.0000; stroke-opacity:1; 
stroke-linecap:round; stroke-linejoin:round;">
<path d="M68.0000 144.0000
L68.0000 142.6600
" />
<path d="M68.0000 142.6600
L63.0000 137.6600
" />
<path d="M68.0000 134.0000
L74.0000 140.0000
" />
</g>
<g style="fill:none; 
stroke:#000000; stroke-width:0.5000; stroke-opacity:1; 
stroke-linecap:round; stroke-linejoin:round;">
<path d="M74.0000 139.8400
L74.0000 140.0000
" />
</g>
<g style="fill:none; 
stroke:#000000; stroke-width:1.0000; stroke-opacity:1; 
stroke-linecap:round; stroke-linejoin:round;">
<path d="M68.0000 133.8400
L68.0000 134.0000
" />
<path d="M75.0000 92.0000
L72.1600 92.0000
" />
</g>
<g style="fill:none; 
stroke:#000000; stroke-width:6.0000; stroke-opacity:1; 
stroke-linecap:round; stroke-linejoin:round;">
<path d="M53.7000 56.7000
L52.0000 55.0000
" />
<path d="M58.2650 56.7000
L53.7000 56.7000
" />
<path d="M58.2650 56.7000
L58.2650 53.5000
" />
</g>
<g style="fill:none; 
stroke:#000000; stroke-width:0.1270; stroke-opacity:1; 
stroke-linecap:round; stroke-linejoin:round;">
<path d="M101.6350 131.3800
L101.6350 132.6500
" />
<path d="M100.3650 130.1100
L101.6350 131.3800
" />
<path d="M101.0000 129.4750
L100.3650 130.1100
" />
<path d="M101.0000 126.0000
L101.0000 129.4750
" />
</g>
<g style="fill:none; 
stroke:#000000; stroke-width:1.0000; stroke-opacity:1; 
stroke-linecap:round; stroke-linejoin:round;">
<path d="M49.0000 105.5000
L49.0000 108.5000
" />
<path d="M49.0000 108.5000
L47.9600 109.5400
" />
<path d="M46.0000 96.1600
L46.0000 102.5000
" />
<path d="M46.0000 102.5000
L49.0000 105.5000
" />
<path d="M47.9600 109.5400
L47.5000 109.5400
" />
<path d="M49.0000 93.1600
L46.0000 96.1600
" />
<path d="M74.5000 147.0000
L84.5000 147.0000
" />
<path d="M86.0000 145.5000
L86.0000 130.9200
" />
<path d="M86.0000 130.9200
L82.5400 127.4600
" />
<path d="M74.0000 146.5000
L74.5000 147.0000
" />
<path d="M74.0000 142.5400
L74.0000 146.5000
" />
<path d="M82.6500 122.6200
L82.6500 127.3500
" />
<path d="M82.6500 127.3500
L82.5400 127.4600
" />
<path d="M84.5000 147.0000
L86.0000 145.5000
" />
<path d="M63.0000 127.5000
L77.4200 127.5000
" />
<path d="M77.4200 127.5000
L77.4600 127.4600
" />
<path d="M80.1100 122.6200
L80.1100 124.8100
" />
<path d="M80.1100 124.8100
L77.4600 127.4600
" />
</g>
<g style="fill:none; 
stroke:#000000; stroke-width:6.0000; stroke-opacity:1; 
stroke-linecap:round; stroke-linejoin:round;">
<path d="M88.9200 70.8900
L91.4600 70.8900
" />
<path d="M99.8000 58.0000
L99.8000 62.3000
" />
<path d="M99.8500 62.5000
L91.4600 70.8900
" />
<path d="M100.0000 62.5000
L99.8500 62.5000
" />
<path d="M99.8000 62.3000
L100.0000 62.5000
" />
</g>
<g style="fill:none; 
stroke:#000000; stroke-width:1.0000; stroke-opacity:1; 
stroke-linecap:round; stroke-linejoin:round;">
<path d="M118.0000 107.1700
L118.2100 107.3800
" />
<path d="M65.0000 79.5700
L65.0000 97.0000
" />
<path d="M73.6800 70.8900
L69.3200 75.2500
" />
<path d="M80.0000 102.5000
L79.5000 102.0000
" />
<path d="M118.0000 102.5000
L118.0000 107.1700
" />
<path d="M118.0000 102.5000
L80.0000 102.5000
" />
<path d="M69.3200 75.2500
L60.5000 75.2500
" />
<path d="M69.3200 75.2500
L65.0000 79.5700
" />
<path d="M82.5400 132.5400
L83.6300 133.6300
" />
<path d="M83.6300 140.5300
L81.6200 142.5400
" />
<path d="M83.6300 133.6300
L83.6300 140.5300
" />
</g>
<g style="fill:none; 
stroke:#000000; stroke-width:3.0000; stroke-opacity:1; 
stroke-linecap:round; stroke-linejoin:round;">
<path d="M88.9200 86.1100
L91.4600 86.1100
" />
</g>
<g style="fill:none; 
stroke:#000000; stroke-width:1.0000; stroke-opacity:1; 
stroke-linecap:round; stroke-linejoin:round;">
<path d="M81.6200 136.7000
L77.4600 132.5400
" />
<path d="M81.6200 140.0000
L81.6200 136.7000
" />
<path d="M49.4600 79.1200
L49.4600 82.5400
" />
<path d="M49.4600 82.5400
L49.0000 83.0000
" />
</g> 
</svg>
