M48
; DRILL file {KiCad 8.0.8-8.0.8-0~ubuntu22.04.1} date 2025-03-02T00:58:53+0000
; FORMAT={-:-/ absolute / metric / decimal}
; #@! TF.CreationDate,2025-03-02T00:58:53+00:00
; #@! TF.GenerationSoftware,Kicad,Pcbnew,8.0.8-8.0.8-0~ubuntu22.04.1
; #@! TF.FileFunction,MixedPlating,1,2
FMAT,2
METRIC
; #@! TA.AperFunction,Plated,PTH,ComponentDrill
T1C0.600
; #@! TA.AperFunction,Plated,PTH,ComponentDrill
T2C0.700
; #@! TA.AperFunction,Plated,PTH,ComponentDrill
T3C0.762
; #@! TA.AperFunction,Plated,PTH,ComponentDrill
T4C0.800
; #@! TA.AperFunction,Plated,PTH,ComponentDrill
T5C0.900
; #@! TA.AperFunction,Plated,PTH,ComponentDrill
T6C1.000
; #@! TA.AperFunction,Plated,PTH,ComponentDrill
T7C1.020
; #@! TA.AperFunction,Plated,PTH,ComponentDrill
T8C1.090
; #@! TA.AperFunction,Plated,PTH,ComponentDrill
T9C1.100
; #@! TA.AperFunction,Plated,PTH,ComponentDrill
T10C1.600
; #@! TA.AperFunction,Plated,PTH,ComponentDrill
T11C1.900
; #@! TA.AperFunction,Plated,PTH,ComponentDrill
T12C2.700
; #@! TA.AperFunction,Plated,PTH,ComponentDrill
T13C3.200
; #@! TA.AperFunction,Plated,PTH,ComponentDrill
T14C3.250
; #@! TA.AperFunction,NonPlated,NPTH,ComponentDrill
T15C3.200
%
G90
G05
T1
X44.0Y-112.0
X50.5Y-65.5
X118.0Y-102.5
T2
X68.6Y-70.89
X68.6Y-86.11
X73.68Y-70.89
X73.68Y-86.11
X88.92Y-70.89
X88.92Y-86.11
X91.46Y-70.89
X91.46Y-86.11
T3
X60.5Y-72.71
X60.5Y-75.25
X60.516Y-77.79
T4
X47.5Y-107.0
X47.5Y-109.54
X47.5Y-112.08
X47.5Y-114.62
X47.5Y-117.16
X47.5Y-119.7
X47.5Y-122.24
X49.0Y-83.0
X49.0Y-93.16
X49.46Y-71.5
X49.46Y-79.12
X50.34Y-97.0
X50.34Y-102.0
X52.0Y-71.5
X52.0Y-79.12
X55.12Y-107.0
X55.12Y-109.54
X55.12Y-112.08
X55.12Y-114.62
X55.12Y-117.16
X55.12Y-119.7
X55.12Y-122.24
X60.5Y-97.0
X60.5Y-102.0
X62.0Y-92.0
X63.0Y-127.5
X63.0Y-137.66
X65.0Y-97.0
X67.5Y-97.0
X68.0Y-133.84
X68.0Y-144.0
X70.0Y-97.0
X72.16Y-92.0
X74.0Y-140.0
X74.0Y-142.54
X75.0Y-92.0
X81.62Y-140.0
X81.62Y-142.54
X85.16Y-92.0
X101.0Y-126.0
X103.24Y-116.182
X103.24Y-118.182
X103.24Y-120.182
X105.24Y-116.182
X105.24Y-118.182
X105.24Y-120.182
X106.0Y-126.0
X117.48Y-113.73
X117.48Y-116.27
T5
X76.96Y-102.0
X79.5Y-102.0
X96.555Y-132.65
X97.825Y-130.11
X99.095Y-132.65
X100.365Y-130.11
X101.635Y-132.65
X102.905Y-130.11
X104.175Y-132.65
X105.445Y-130.11
T6
X46.0Y-129.0
X46.0Y-140.0
X114.0Y-81.0
X114.0Y-83.5
T7
X94.675Y-144.08
X97.215Y-142.38
X104.785Y-144.08
X107.325Y-142.38
T8
X77.46Y-127.46
X77.46Y-130.0
X77.46Y-132.54
X82.54Y-127.46
X82.54Y-130.0
X82.54Y-132.54
T9
X52.0Y-55.0
X59.79Y-107.38
X59.79Y-122.62
X62.33Y-107.38
X62.33Y-122.62
X64.87Y-107.38
X64.87Y-122.62
X67.41Y-107.38
X67.41Y-122.62
X69.95Y-107.38
X69.95Y-122.62
X72.49Y-107.38
X72.49Y-122.62
X75.03Y-107.38
X75.03Y-122.62
X77.57Y-107.38
X77.57Y-122.62
X80.11Y-107.38
X80.11Y-122.62
X82.65Y-107.38
X82.65Y-122.62
X85.19Y-107.38
X85.19Y-122.62
X87.73Y-107.38
X87.73Y-122.62
X90.27Y-107.38
X90.27Y-122.62
X92.81Y-107.38
X92.81Y-122.62
X95.35Y-107.38
X95.35Y-122.62
X97.89Y-107.38
X97.89Y-122.62
X100.0Y-62.5
X100.43Y-107.38
X100.43Y-122.62
X101.751Y-110.431
X102.97Y-107.38
X102.97Y-122.62
X104.291Y-110.431
X105.51Y-107.38
X105.51Y-122.62
X106.831Y-110.431
X108.05Y-107.38
X108.05Y-122.62
X109.371Y-110.431
X110.59Y-107.38
X110.59Y-122.62
X111.911Y-110.431
X113.13Y-107.38
X113.13Y-122.62
X115.67Y-107.38
X115.67Y-120.08
X115.67Y-122.62
X118.21Y-107.38
X118.21Y-122.62
T10
X58.265Y-53.3
X58.265Y-56.7
X71.735Y-53.3
X71.735Y-56.7
X93.25Y-135.95
X108.75Y-135.95
T11
X51.0Y-132.0
X51.0Y-137.0
T12
X81.8Y-58.0
X89.0Y-58.0
X99.8Y-58.0
X107.0Y-58.0
T13
X57.0Y-67.5
X57.0Y-91.5
X105.0Y-67.5
X105.0Y-91.5
T14
X95.285Y-139.0
X106.715Y-139.0
T15
X46.0Y-54.0
X46.0Y-146.0
X118.0Y-54.0
X118.0Y-146.0
T1
G00X78.65Y-51.45
M15
G01X78.65Y-52.55
M16
G05
G00X92.15Y-51.45
M15
G01X92.15Y-52.55
M16
G05
G00X96.65Y-51.45
M15
G01X96.65Y-52.55
M16
G05
G00X110.15Y-51.45
M15
G01X110.15Y-52.55
M16
G05
M30
