<?xml version="1.0" standalone="no"?>
 <!DOCTYPE svg PUBLIC "-//W3C//DTD SVG 1.1//EN" 
 "http://www.w3.org/Graphics/SVG/1.1/DTD/svg11.dtd"> 
<svg
  xmlns:svg="http://www.w3.org/2000/svg"
  xmlns="http://www.w3.org/2000/svg"
  xmlns:xlink="http://www.w3.org/1999/xlink"
  version="1.1"
  width="297.0022mm" height="210.0072mm" viewBox="0.0000 0.0000 297.0022 210.0072">
<title>SVG Image created as miniv_motor_controller_board-B_Cu_pads.svg date 2025/03/09 09:10:31 </title>
  <desc>Image generated by PCBNEW </desc>
<g style="fill:#000000; fill-opacity:1.0000;stroke:#000000; stroke-opacity:1.0000;
stroke-linecap:round; stroke-linejoin:round;"
 transform="translate(0 0) scale(1 1)">
</g>
<g style="fill:#000000; fill-opacity:1.0000; stroke:none;">
<circle cx="229.0022" cy="144.0000" r="0.8000" /> 
</g>
<g style="fill:#000000; fill-opacity:1.0000; stroke:none;">
<circle cx="229.0022" cy="133.8400" r="0.8000" /> 
<path style="fill:#000000; fill-opacity:1.0000; stroke:none;fill-rule:evenodd;"
d="M 182.2522,80.1500
182.1565,80.1690
182.0754,80.2232
182.0212,80.3043
182.0022,80.4000
182.0022,81.6000
182.0212,81.6957
182.0754,81.7768
182.1565,81.8310
182.2522,81.8500
183.7522,81.8500
183.8479,81.8310
183.9290,81.7768
183.9832,81.6957
184.0022,81.6000
184.0022,80.4000
183.9832,80.3043
183.9290,80.2232
183.8479,80.1690
183.7522,80.1500
Z" /> 
</g>
<g style="fill:none; 
stroke:#000000; stroke-width:1.7000; stroke-opacity:1; 
stroke-linecap:round; stroke-linejoin:round;">
<path d="M182.8522 83.5000
L183.1522 83.5000
" />
<path style="fill:#000000; fill-opacity:1.0000; stroke:none;fill-rule:evenodd;"
d="M 253.8022,111.4500
253.7832,111.3543
253.7290,111.2732
253.6479,111.2190
253.5522,111.2000
252.4522,111.2000
252.3565,111.2190
252.2754,111.2732
252.2212,111.3543
252.2022,111.4500
252.2022,112.5500
252.2212,112.6457
252.2754,112.7268
252.3565,112.7810
252.4522,112.8000
253.5522,112.8000
253.6479,112.7810
253.7290,112.7268
253.7832,112.6457
253.8022,112.5500
Z" /> 
<path style="fill:#000000; fill-opacity:1.0000; stroke:none;fill-rule:evenodd;"
d="M 223.8022,140.8000
223.8022,139.2000
222.2022,139.2000
222.2022,140.8000
Z" /> 
</g>
<g style="fill:#000000; fill-opacity:1.0000; stroke:none;">
<circle cx="223.0022" cy="142.5400" r="0.8000" /> 
<circle cx="215.3822" cy="142.5400" r="0.8000" /> 
<circle cx="215.3822" cy="140.0000" r="0.8000" /> 
<path style="fill:#000000; fill-opacity:1.0000; stroke:none;fill-rule:evenodd;"
d="M 218.8022,53.0000
218.8022,51.0000
217.9022,51.0000
217.9022,53.0000
Z" /> 
<path style="fill:#000000; fill-opacity:1.0000; stroke:none;fill-rule:evenodd;"
d="M 205.3022,53.0000
205.3022,51.0000
204.4022,51.0000
204.4022,53.0000
Z" /> 
<path style="fill:#000000; fill-opacity:1.0000; stroke:none;fill-rule:evenodd;"
d="M 210.0522,56.9750
210.0325,56.7750
209.9742,56.5827
209.8795,56.4055
209.7520,56.2502
209.5967,56.1227
209.4195,56.0280
209.2272,55.9697
209.0272,55.9500
206.9772,55.9500
206.7772,55.9697
206.5849,56.0280
206.4077,56.1227
206.2524,56.2502
206.1249,56.4055
206.0302,56.5827
205.9719,56.7750
205.9522,56.9750
205.9522,59.0250
205.9719,59.2250
206.0302,59.4173
206.1249,59.5945
206.2524,59.7498
206.4077,59.8773
206.5849,59.9720
206.7772,60.0303
206.9772,60.0500
209.0272,60.0500
209.2272,60.0303
209.4195,59.9720
209.5967,59.8773
209.7520,59.7498
209.8795,59.5945
209.9742,59.4173
210.0325,59.2250
210.0522,59.0250
Z" /> 
<circle cx="215.2022" cy="58.0000" r="2.0500" /> 
<path style="fill:#000000; fill-opacity:1.0000; stroke:none;fill-rule:evenodd;"
d="M 247.3022,64.9500
247.2832,64.8543
247.2290,64.7732
247.1479,64.7190
247.0522,64.7000
245.9522,64.7000
245.8565,64.7190
245.7754,64.7732
245.7212,64.8543
245.7022,64.9500
245.7022,66.0500
245.7212,66.1457
245.7754,66.2268
245.8565,66.2810
245.9522,66.3000
247.0522,66.3000
247.1479,66.2810
247.2290,66.2268
247.2832,66.1457
247.3022,66.0500
Z" /> 
<path style="fill:#000000; fill-opacity:1.0000; stroke:none;fill-rule:evenodd;"
d="M 177.9922,106.5800
177.9922,108.1800
179.5922,108.1800
179.5922,106.5800
Z" /> 
</g>
<g style="fill:#000000; fill-opacity:1.0000; stroke:none;">
<circle cx="181.3322" cy="107.3800" r="0.8000" /> 
</g>
<g style="fill:#000000; fill-opacity:1.0000; stroke:none;">
<circle cx="183.8722" cy="107.3800" r="0.8000" /> 
</g>
<g style="fill:#000000; fill-opacity:1.0000; stroke:none;">
<circle cx="186.4122" cy="107.3800" r="0.8000" /> 
</g>
<g style="fill:#000000; fill-opacity:1.0000; stroke:none;">
<circle cx="188.9522" cy="107.3800" r="0.8000" /> 
</g>
<g style="fill:#000000; fill-opacity:1.0000; stroke:none;">
<circle cx="191.4922" cy="107.3800" r="0.8000" /> 
</g>
<g style="fill:#000000; fill-opacity:1.0000; stroke:none;">
<circle cx="194.0322" cy="107.3800" r="0.8000" /> 
</g>
<g style="fill:#000000; fill-opacity:1.0000; stroke:none;">
<circle cx="196.5722" cy="107.3800" r="0.8000" /> 
</g>
<g style="fill:#000000; fill-opacity:1.0000; stroke:none;">
<circle cx="199.1122" cy="107.3800" r="0.8000" /> 
</g>
<g style="fill:#000000; fill-opacity:1.0000; stroke:none;">
<circle cx="201.6522" cy="107.3800" r="0.8000" /> 
</g>
<g style="fill:#000000; fill-opacity:1.0000; stroke:none;">
<circle cx="204.1922" cy="107.3800" r="0.8000" /> 
</g>
<g style="fill:#000000; fill-opacity:1.0000; stroke:none;">
<circle cx="206.7322" cy="107.3800" r="0.8000" /> 
</g>
<g style="fill:#000000; fill-opacity:1.0000; stroke:none;">
<circle cx="209.2722" cy="107.3800" r="0.8000" /> 
</g>
<g style="fill:#000000; fill-opacity:1.0000; stroke:none;">
<circle cx="211.8122" cy="107.3800" r="0.8000" /> 
</g>
<g style="fill:#000000; fill-opacity:1.0000; stroke:none;">
<circle cx="214.3522" cy="107.3800" r="0.8000" /> 
</g>
<g style="fill:#000000; fill-opacity:1.0000; stroke:none;">
<circle cx="216.8922" cy="107.3800" r="0.8000" /> 
</g>
<g style="fill:#000000; fill-opacity:1.0000; stroke:none;">
<circle cx="219.4322" cy="107.3800" r="0.8000" /> 
</g>
<g style="fill:#000000; fill-opacity:1.0000; stroke:none;">
<circle cx="221.9722" cy="107.3800" r="0.8000" /> 
</g>
<g style="fill:#000000; fill-opacity:1.0000; stroke:none;">
<circle cx="224.5122" cy="107.3800" r="0.8000" /> 
</g>
<g style="fill:#000000; fill-opacity:1.0000; stroke:none;">
<circle cx="227.0522" cy="107.3800" r="0.8000" /> 
</g>
<g style="fill:#000000; fill-opacity:1.0000; stroke:none;">
<circle cx="229.5922" cy="107.3800" r="0.8000" /> 
</g>
<g style="fill:#000000; fill-opacity:1.0000; stroke:none;">
<circle cx="232.1322" cy="107.3800" r="0.8000" /> 
</g>
<g style="fill:#000000; fill-opacity:1.0000; stroke:none;">
<circle cx="234.6722" cy="107.3800" r="0.8000" /> 
</g>
<g style="fill:#000000; fill-opacity:1.0000; stroke:none;">
<circle cx="237.2122" cy="107.3800" r="0.8000" /> 
</g>
<g style="fill:#000000; fill-opacity:1.0000; stroke:none;">
<circle cx="237.2122" cy="122.6200" r="0.8000" /> 
</g>
<g style="fill:#000000; fill-opacity:1.0000; stroke:none;">
<circle cx="234.6722" cy="122.6200" r="0.8000" /> 
</g>
<g style="fill:#000000; fill-opacity:1.0000; stroke:none;">
<circle cx="232.1322" cy="122.6200" r="0.8000" /> 
</g>
<g style="fill:#000000; fill-opacity:1.0000; stroke:none;">
<circle cx="229.5922" cy="122.6200" r="0.8000" /> 
</g>
<g style="fill:#000000; fill-opacity:1.0000; stroke:none;">
<circle cx="227.0522" cy="122.6200" r="0.8000" /> 
</g>
<g style="fill:#000000; fill-opacity:1.0000; stroke:none;">
<circle cx="224.5122" cy="122.6200" r="0.8000" /> 
</g>
<g style="fill:#000000; fill-opacity:1.0000; stroke:none;">
<circle cx="221.9722" cy="122.6200" r="0.8000" /> 
</g>
<g style="fill:#000000; fill-opacity:1.0000; stroke:none;">
<circle cx="219.4322" cy="122.6200" r="0.8000" /> 
</g>
<g style="fill:#000000; fill-opacity:1.0000; stroke:none;">
<circle cx="216.8922" cy="122.6200" r="0.8000" /> 
</g>
<g style="fill:#000000; fill-opacity:1.0000; stroke:none;">
<circle cx="214.3522" cy="122.6200" r="0.8000" /> 
</g>
<g style="fill:#000000; fill-opacity:1.0000; stroke:none;">
<circle cx="211.8122" cy="122.6200" r="0.8000" /> 
</g>
<g style="fill:#000000; fill-opacity:1.0000; stroke:none;">
<circle cx="209.2722" cy="122.6200" r="0.8000" /> 
</g>
<g style="fill:#000000; fill-opacity:1.0000; stroke:none;">
<circle cx="206.7322" cy="122.6200" r="0.8000" /> 
</g>
<g style="fill:#000000; fill-opacity:1.0000; stroke:none;">
<circle cx="204.1922" cy="122.6200" r="0.8000" /> 
</g>
<g style="fill:#000000; fill-opacity:1.0000; stroke:none;">
<circle cx="201.6522" cy="122.6200" r="0.8000" /> 
</g>
<g style="fill:#000000; fill-opacity:1.0000; stroke:none;">
<circle cx="199.1122" cy="122.6200" r="0.8000" /> 
</g>
<g style="fill:#000000; fill-opacity:1.0000; stroke:none;">
<circle cx="196.5722" cy="122.6200" r="0.8000" /> 
</g>
<g style="fill:#000000; fill-opacity:1.0000; stroke:none;">
<circle cx="194.0322" cy="122.6200" r="0.8000" /> 
</g>
<g style="fill:#000000; fill-opacity:1.0000; stroke:none;">
<circle cx="191.4922" cy="122.6200" r="0.8000" /> 
</g>
<g style="fill:#000000; fill-opacity:1.0000; stroke:none;">
<circle cx="188.9522" cy="122.6200" r="0.8000" /> 
</g>
<g style="fill:#000000; fill-opacity:1.0000; stroke:none;">
<circle cx="186.4122" cy="122.6200" r="0.8000" /> 
</g>
<g style="fill:#000000; fill-opacity:1.0000; stroke:none;">
<circle cx="183.8722" cy="122.6200" r="0.8000" /> 
</g>
<g style="fill:#000000; fill-opacity:1.0000; stroke:none;">
<circle cx="181.3322" cy="122.6200" r="0.8000" /> 
</g>
<g style="fill:#000000; fill-opacity:1.0000; stroke:none;">
<circle cx="178.7922" cy="122.6200" r="0.8000" /> 
</g>
<g style="fill:#000000; fill-opacity:1.0000; stroke:none;">
<circle cx="181.3322" cy="120.0800" r="0.8000" /> 
<path style="fill:#000000; fill-opacity:1.0000; stroke:none;fill-rule:evenodd;"
d="M 184.2914,109.6308
184.2914,111.2308
185.8914,111.2308
185.8914,109.6308
Z" /> 
</g>
<g style="fill:#000000; fill-opacity:1.0000; stroke:none;">
<circle cx="187.6314" cy="110.4308" r="0.8000" /> 
</g>
<g style="fill:#000000; fill-opacity:1.0000; stroke:none;">
<circle cx="190.1714" cy="110.4308" r="0.8000" /> 
</g>
<g style="fill:#000000; fill-opacity:1.0000; stroke:none;">
<circle cx="192.7114" cy="110.4308" r="0.8000" /> 
</g>
<g style="fill:#000000; fill-opacity:1.0000; stroke:none;">
<circle cx="195.2514" cy="110.4308" r="0.8000" /> 
<path style="fill:#000000; fill-opacity:1.0000; stroke:none;fill-rule:evenodd;"
d="M 191.1122,119.5316
191.1122,120.8316
192.4122,120.8316
192.4122,119.5316
Z" /> 
</g>
<g style="fill:#000000; fill-opacity:1.0000; stroke:none;">
<circle cx="191.7622" cy="118.1816" r="0.6500" /> 
</g>
<g style="fill:#000000; fill-opacity:1.0000; stroke:none;">
<circle cx="191.7622" cy="116.1816" r="0.6500" /> 
</g>
<g style="fill:#000000; fill-opacity:1.0000; stroke:none;">
<circle cx="193.7622" cy="116.1816" r="0.6500" /> 
</g>
<g style="fill:#000000; fill-opacity:1.0000; stroke:none;">
<circle cx="193.7622" cy="118.1816" r="0.6500" /> 
</g>
<g style="fill:#000000; fill-opacity:1.0000; stroke:none;">
<circle cx="193.7622" cy="120.1816" r="0.6500" /> 
</g>
<g style="fill:#000000; fill-opacity:1.0000; stroke:none;">
<circle cx="179.5222" cy="116.2700" r="0.6500" /> 
</g>
<g style="fill:#000000; fill-opacity:1.0000; stroke:none;">
<circle cx="179.5222" cy="113.7300" r="0.6500" /> 
</g>
<g style="fill:#000000; fill-opacity:1.0000; stroke:none;">
<circle cx="251.0022" cy="140.0000" r="0.7000" /> 
</g>
<g style="fill:#000000; fill-opacity:1.0000; stroke:none;">
<circle cx="251.0022" cy="129.0000" r="0.7000" /> 
<path style="fill:#000000; fill-opacity:1.0000; stroke:none;fill-rule:evenodd;"
d="M 246.9822,138.7500
247.1379,138.7341
247.3076,138.6779
247.4598,138.5840
247.5862,138.4576
247.6801,138.3054
247.7363,138.1357
247.7522,137.9800
247.7522,136.0200
247.7363,135.8643
247.6801,135.6946
247.5862,135.5424
247.4598,135.4160
247.3076,135.3221
247.1379,135.2659
246.9822,135.2500
245.0222,135.2500
244.8665,135.2659
244.6968,135.3221
244.5446,135.4160
244.4182,135.5424
244.3243,135.6946
244.2681,135.8643
244.2522,136.0200
244.2522,137.9800
244.2681,138.1357
244.3243,138.3054
244.4182,138.4576
244.5446,138.5840
244.6968,138.6779
244.8665,138.7341
245.0222,138.7500
Z" /> 
</g>
<g style="fill:#000000; fill-opacity:1.0000; stroke:none;">
<circle cx="246.0022" cy="132.0000" r="1.7500" /> 
</g>
<g style="fill:#000000; fill-opacity:1.0000; stroke:none;">
<circle cx="236.5022" cy="97.0000" r="0.8000" /> 
</g>
<g style="fill:#000000; fill-opacity:1.0000; stroke:none;">
<circle cx="246.6622" cy="97.0000" r="0.8000" /> 
<path style="fill:#000000; fill-opacity:1.0000; stroke:none;fill-rule:evenodd;"
d="M 200.8022,53.0000
200.8022,51.0000
199.9022,51.0000
199.9022,53.0000
Z" /> 
<path style="fill:#000000; fill-opacity:1.0000; stroke:none;fill-rule:evenodd;"
d="M 187.3022,53.0000
187.3022,51.0000
186.4022,51.0000
186.4022,53.0000
Z" /> 
<path style="fill:#000000; fill-opacity:1.0000; stroke:none;fill-rule:evenodd;"
d="M 192.0522,56.9750
192.0325,56.7750
191.9742,56.5827
191.8795,56.4055
191.7520,56.2502
191.5967,56.1227
191.4195,56.0280
191.2272,55.9697
191.0272,55.9500
188.9772,55.9500
188.7772,55.9697
188.5849,56.0280
188.4077,56.1227
188.2524,56.2502
188.1249,56.4055
188.0302,56.5827
187.9719,56.7750
187.9522,56.9750
187.9522,59.0250
187.9719,59.2250
188.0302,59.4173
188.1249,59.5945
188.2524,59.7498
188.4077,59.8773
188.5849,59.9720
188.7772,60.0303
188.9772,60.0500
191.0272,60.0500
191.2272,60.0303
191.4195,59.9720
191.5967,59.8773
191.7520,59.7498
191.8795,59.5945
191.9742,59.4173
192.0325,59.2250
192.0522,59.0250
Z" /> 
<circle cx="197.2022" cy="58.0000" r="2.0500" /> 
<path style="fill:#000000; fill-opacity:1.0000; stroke:none;fill-rule:evenodd;"
d="M 198.0522,61.7000
198.0332,61.6043
197.9790,61.5232
197.8979,61.4690
197.8022,61.4500
196.2022,61.4500
196.1065,61.4690
196.0254,61.5232
195.9712,61.6043
195.9522,61.7000
195.9522,63.3000
195.9712,63.3957
196.0254,63.4768
196.1065,63.5310
196.2022,63.5500
197.8022,63.5500
197.8979,63.5310
197.9790,63.4768
198.0332,63.3957
198.0522,63.3000
Z" /> 
<path style="fill:#000000; fill-opacity:1.0000; stroke:none;fill-rule:evenodd;"
d="M 250.3022,107.8000
250.3022,106.2000
248.7022,106.2000
248.7022,107.8000
Z" /> 
</g>
<g style="fill:#000000; fill-opacity:1.0000; stroke:none;">
<circle cx="249.5022" cy="109.5400" r="0.8000" /> 
<circle cx="249.5022" cy="112.0800" r="0.8000" /> 
<circle cx="249.5022" cy="114.6200" r="0.8000" /> 
<circle cx="249.5022" cy="117.1600" r="0.8000" /> 
<circle cx="249.5022" cy="119.7000" r="0.8000" /> 
<circle cx="249.5022" cy="122.2400" r="0.8000" /> 
<circle cx="241.8822" cy="122.2400" r="0.8000" /> 
<circle cx="241.8822" cy="119.7000" r="0.8000" /> 
<circle cx="241.8822" cy="117.1600" r="0.8000" /> 
<circle cx="241.8822" cy="114.6200" r="0.8000" /> 
<circle cx="241.8822" cy="112.0800" r="0.8000" /> 
<circle cx="241.8822" cy="109.5400" r="0.8000" /> 
<circle cx="241.8822" cy="107.0000" r="0.8000" /> 
<circle cx="214.4622" cy="127.4600" r="1.0900" /> 
</g>
<g style="fill:#000000; fill-opacity:1.0000; stroke:none;">
<circle cx="214.4622" cy="130.0000" r="1.0900" /> 
</g>
<g style="fill:#000000; fill-opacity:1.0000; stroke:none;">
<circle cx="214.4622" cy="132.5400" r="1.0900" /> 
</g>
<g style="fill:#000000; fill-opacity:1.0000; stroke:none;">
<circle cx="219.5422" cy="127.4600" r="1.0900" /> 
</g>
<g style="fill:#000000; fill-opacity:1.0000; stroke:none;">
<circle cx="219.5422" cy="130.0000" r="1.0900" /> 
</g>
<g style="fill:#000000; fill-opacity:1.0000; stroke:none;">
<circle cx="219.5422" cy="132.5400" r="1.0900" /> 
</g>
<g style="fill:#000000; fill-opacity:1.0000; stroke:none;">
<circle cx="203.7522" cy="135.9500" r="0.9000" /> 
</g>
<g style="fill:#000000; fill-opacity:1.0000; stroke:none;">
<circle cx="201.7172" cy="139.0000" r="1.7500" /> 
</g>
<g style="fill:#000000; fill-opacity:1.0000; stroke:none;">
<circle cx="190.2872" cy="139.0000" r="1.7500" /> 
</g>
<g style="fill:#000000; fill-opacity:1.0000; stroke:none;">
<circle cx="188.2522" cy="135.9500" r="0.9000" /> 
</g>
<g style="fill:#000000; fill-opacity:1.0000; stroke:none;">
<circle cx="200.4472" cy="132.6500" r="0.9000" /> 
</g>
<g style="fill:#000000; fill-opacity:1.0000; stroke:none;">
<circle cx="199.1772" cy="130.1100" r="0.9000" /> 
</g>
<g style="fill:#000000; fill-opacity:1.0000; stroke:none;">
<circle cx="197.9072" cy="132.6500" r="0.9000" /> 
</g>
<g style="fill:#000000; fill-opacity:1.0000; stroke:none;">
<circle cx="196.6372" cy="130.1100" r="0.9000" /> 
</g>
<g style="fill:#000000; fill-opacity:1.0000; stroke:none;">
<circle cx="195.3672" cy="132.6500" r="0.9000" /> 
</g>
<g style="fill:#000000; fill-opacity:1.0000; stroke:none;">
<circle cx="194.0972" cy="130.1100" r="0.9000" /> 
</g>
<g style="fill:#000000; fill-opacity:1.0000; stroke:none;">
<circle cx="192.8272" cy="132.6500" r="0.9000" /> 
</g>
<g style="fill:#000000; fill-opacity:1.0000; stroke:none;">
<circle cx="191.5572" cy="130.1100" r="0.9000" /> 
</g>
<g style="fill:#000000; fill-opacity:1.0000; stroke:none;">
<circle cx="202.3272" cy="144.0800" r="1.0200" /> 
</g>
<g style="fill:#000000; fill-opacity:1.0000; stroke:none;">
<circle cx="199.7872" cy="142.3800" r="1.0200" /> 
</g>
<g style="fill:#000000; fill-opacity:1.0000; stroke:none;">
<circle cx="192.2172" cy="144.0800" r="1.0200" /> 
</g>
<g style="fill:#000000; fill-opacity:1.0000; stroke:none;">
<circle cx="189.6772" cy="142.3800" r="1.0200" /> 
</g>
<g style="fill:#000000; fill-opacity:1.0000; stroke:none;">
<circle cx="236.5022" cy="72.7100" r="0.7620" /> 
</g>
<g style="fill:#000000; fill-opacity:1.0000; stroke:none;">
<circle cx="236.5022" cy="75.2500" r="0.7620" /> 
</g>
<g style="fill:#000000; fill-opacity:1.0000; stroke:none;">
<circle cx="236.4862" cy="77.7900" r="0.7620" /> 
</g>
<g style="fill:#000000; fill-opacity:1.0000; stroke:none;">
<circle cx="225.2672" cy="56.7000" r="1.2000" /> 
</g>
<g style="fill:#000000; fill-opacity:1.0000; stroke:none;">
<circle cx="225.2672" cy="53.3000" r="1.2000" /> 
</g>
<g style="fill:#000000; fill-opacity:1.0000; stroke:none;">
<circle cx="238.7372" cy="56.7000" r="1.2000" /> 
</g>
<g style="fill:#000000; fill-opacity:1.0000; stroke:none;">
<circle cx="238.7372" cy="53.3000" r="1.2000" /> 
</g>
<g style="fill:#000000; fill-opacity:1.0000; stroke:none;">
<circle cx="248.0022" cy="83.0000" r="0.8000" /> 
</g>
<g style="fill:#000000; fill-opacity:1.0000; stroke:none;">
<circle cx="248.0022" cy="93.1600" r="0.8000" /> 
<path style="fill:#000000; fill-opacity:1.0000; stroke:none;fill-rule:evenodd;"
d="M 179.8022,101.9500
179.7832,101.8543
179.7290,101.7732
179.6479,101.7190
179.5522,101.7000
178.4522,101.7000
178.3565,101.7190
178.2754,101.7732
178.2212,101.8543
178.2022,101.9500
178.2022,103.0500
178.2212,103.1457
178.2754,103.2268
178.3565,103.2810
178.4522,103.3000
179.5522,103.3000
179.6479,103.2810
179.7290,103.2268
179.7832,103.1457
179.8022,103.0500
Z" /> 
<circle cx="192.0022" cy="91.5000" r="1.7000" /> 
</g>
<g style="fill:#000000; fill-opacity:1.0000; stroke:none;">
<circle cx="192.0022" cy="67.5000" r="1.7000" /> 
</g>
<g style="fill:#000000; fill-opacity:1.0000; stroke:none;">
<circle cx="240.0022" cy="91.5000" r="1.7000" /> 
</g>
<g style="fill:#000000; fill-opacity:1.0000; stroke:none;">
<circle cx="240.0022" cy="67.5000" r="1.7000" /> 
<path style="fill:#000000; fill-opacity:1.0000; stroke:none;fill-rule:evenodd;"
d="M 245.8022,70.7000
244.2022,70.7000
244.2022,72.3000
245.8022,72.3000
Z" /> 
</g>
<g style="fill:#000000; fill-opacity:1.0000; stroke:none;">
<circle cx="247.5422" cy="71.5000" r="0.8000" /> 
<circle cx="247.5422" cy="79.1200" r="0.8000" /> 
<circle cx="245.0022" cy="79.1200" r="0.8000" /> 
<path style="fill:#000000; fill-opacity:1.0000; stroke:none;fill-rule:evenodd;"
d="M 246.0522,54.2000
246.0332,54.1043
245.9790,54.0232
245.8979,53.9690
245.8022,53.9500
244.2022,53.9500
244.1065,53.9690
244.0254,54.0232
243.9712,54.1043
243.9522,54.2000
243.9522,55.8000
243.9712,55.8957
244.0254,55.9768
244.1065,56.0310
244.2022,56.0500
245.8022,56.0500
245.8979,56.0310
245.9790,55.9768
246.0332,55.8957
246.0522,55.8000
Z" /> 
<circle cx="232.0022" cy="97.0000" r="0.8000" /> 
</g>
<g style="fill:#000000; fill-opacity:1.0000; stroke:none;">
<circle cx="229.5022" cy="97.0000" r="0.8000" /> 
</g>
<g style="fill:#000000; fill-opacity:1.0000; stroke:none;">
<circle cx="227.0022" cy="97.0000" r="0.8000" /> 
</g>
<g style="fill:#000000; fill-opacity:1.0000; stroke:none;">
<circle cx="222.0022" cy="92.0000" r="0.8000" /> 
</g>
<g style="fill:#000000; fill-opacity:1.0000; stroke:none;">
<circle cx="211.8422" cy="92.0000" r="0.8000" /> 
<circle cx="223.3222" cy="86.1100" r="0.7000" /> 
</g>
<g style="fill:#000000; fill-opacity:1.0000; stroke:none;">
<circle cx="205.5422" cy="86.1100" r="0.7000" /> 
</g>
<g style="fill:#000000; fill-opacity:1.0000; stroke:none;">
<circle cx="208.0822" cy="86.1100" r="0.7000" /> 
</g>
<g style="fill:#000000; fill-opacity:1.0000; stroke:none;">
<circle cx="228.4022" cy="86.1100" r="0.7000" /> 
</g>
<g style="fill:#000000; fill-opacity:1.0000; stroke:none;">
<circle cx="228.4022" cy="70.8900" r="0.7000" /> 
</g>
<g style="fill:#000000; fill-opacity:1.0000; stroke:none;">
<circle cx="223.3222" cy="70.8900" r="0.7000" /> 
</g>
<g style="fill:#000000; fill-opacity:1.0000; stroke:none;">
<circle cx="208.0822" cy="70.8900" r="0.7000" /> 
</g>
<g style="fill:#000000; fill-opacity:1.0000; stroke:none;">
<circle cx="205.5422" cy="70.8900" r="0.7000" /> 
</g>
<g style="fill:#000000; fill-opacity:1.0000; stroke:none;">
<circle cx="234.0022" cy="127.5000" r="0.8000" /> 
</g>
<g style="fill:#000000; fill-opacity:1.0000; stroke:none;">
<circle cx="234.0022" cy="137.6600" r="0.8000" /> 
<path style="fill:#000000; fill-opacity:1.0000; stroke:none;fill-rule:evenodd;"
d="M 216.6022,101.1000
216.6022,102.9000
218.4022,102.9000
218.4022,101.1000
Z" /> 
<circle cx="220.0422" cy="102.0000" r="0.9000" /> 
</g>
<g style="fill:#000000; fill-opacity:1.0000; stroke:none;">
<circle cx="235.0022" cy="92.0000" r="0.8000" /> 
</g>
<g style="fill:#000000; fill-opacity:1.0000; stroke:none;">
<circle cx="224.8422" cy="92.0000" r="0.8000" /> 
<circle cx="191.0022" cy="126.0000" r="0.8000" /> 
</g>
<g style="fill:#000000; fill-opacity:1.0000; stroke:none;">
<circle cx="196.0022" cy="126.0000" r="0.8000" /> 
</g>
<g style="fill:#000000; fill-opacity:1.0000; stroke:none;">
<circle cx="236.5022" cy="102.0000" r="0.8000" /> 
</g>
<g style="fill:#000000; fill-opacity:1.0000; stroke:none;">
<circle cx="246.6622" cy="102.0000" r="0.8000" /> 
<circle cx="174.9772" cy="150.0250" r="0.0000" /> 
<circle cx="255.0272" cy="49.9750" r="0.0000" /> 
</g>
<g style="fill:#FFFFFF; fill-opacity:1.0000; stroke:none;">
<circle cx="229.0022" cy="144.0000" r="0.4000" /> 
</g>
<g style="fill:#FFFFFF; fill-opacity:1.0000; stroke:none;">
<circle cx="229.0022" cy="133.8400" r="0.4000" /> 
</g>
<g style="fill:#FFFFFF; fill-opacity:1.0000; stroke:none;">
<circle cx="183.0022" cy="81.0000" r="0.5000" /> 
</g>
<g style="fill:#FFFFFF; fill-opacity:1.0000; stroke:none;">
<circle cx="183.0022" cy="83.5000" r="0.5000" /> 
</g>
<g style="fill:#FFFFFF; fill-opacity:1.0000; stroke:none;">
<circle cx="253.0022" cy="112.0000" r="0.3000" /> 
</g>
<g style="fill:#FFFFFF; fill-opacity:1.0000; stroke:none;">
<circle cx="223.0022" cy="140.0000" r="0.4000" /> 
</g>
<g style="fill:#FFFFFF; fill-opacity:1.0000; stroke:none;">
<circle cx="223.0022" cy="142.5400" r="0.4000" /> 
</g>
<g style="fill:#FFFFFF; fill-opacity:1.0000; stroke:none;">
<circle cx="215.3822" cy="142.5400" r="0.4000" /> 
</g>
<g style="fill:#FFFFFF; fill-opacity:1.0000; stroke:none;">
<circle cx="215.3822" cy="140.0000" r="0.4000" /> 
</g>
<g style="fill:none; 
stroke:#FFFFFF; stroke-width:0.6000; stroke-opacity:1; 
stroke-linecap:round; stroke-linejoin:round;">
<path d="M218.3522 51.4500
L218.3522 52.5500
" />
<path d="M204.8522 51.4500
L204.8522 52.5500
" />
</g>
<g style="fill:#FFFFFF; fill-opacity:1.0000; stroke:none;">
<circle cx="208.0022" cy="58.0000" r="1.3500" /> 
</g>
<g style="fill:#FFFFFF; fill-opacity:1.0000; stroke:none;">
<circle cx="215.2022" cy="58.0000" r="1.3500" /> 
</g>
<g style="fill:#FFFFFF; fill-opacity:1.0000; stroke:none;">
<circle cx="179.0022" cy="54.0000" r="1.6000" /> 
</g>
<g style="fill:#FFFFFF; fill-opacity:1.0000; stroke:none;">
<circle cx="246.5022" cy="65.5000" r="0.3000" /> 
</g>
<g style="fill:#FFFFFF; fill-opacity:1.0000; stroke:none;">
<circle cx="251.0022" cy="146.0000" r="1.6000" /> 
</g>
<g style="fill:#FFFFFF; fill-opacity:1.0000; stroke:none;">
<circle cx="178.7922" cy="107.3800" r="0.5500" /> 
</g>
<g style="fill:#FFFFFF; fill-opacity:1.0000; stroke:none;">
<circle cx="181.3322" cy="107.3800" r="0.5500" /> 
</g>
<g style="fill:#FFFFFF; fill-opacity:1.0000; stroke:none;">
<circle cx="183.8722" cy="107.3800" r="0.5500" /> 
</g>
<g style="fill:#FFFFFF; fill-opacity:1.0000; stroke:none;">
<circle cx="186.4122" cy="107.3800" r="0.5500" /> 
</g>
<g style="fill:#FFFFFF; fill-opacity:1.0000; stroke:none;">
<circle cx="188.9522" cy="107.3800" r="0.5500" /> 
</g>
<g style="fill:#FFFFFF; fill-opacity:1.0000; stroke:none;">
<circle cx="191.4922" cy="107.3800" r="0.5500" /> 
</g>
<g style="fill:#FFFFFF; fill-opacity:1.0000; stroke:none;">
<circle cx="194.0322" cy="107.3800" r="0.5500" /> 
</g>
<g style="fill:#FFFFFF; fill-opacity:1.0000; stroke:none;">
<circle cx="196.5722" cy="107.3800" r="0.5500" /> 
</g>
<g style="fill:#FFFFFF; fill-opacity:1.0000; stroke:none;">
<circle cx="199.1122" cy="107.3800" r="0.5500" /> 
</g>
<g style="fill:#FFFFFF; fill-opacity:1.0000; stroke:none;">
<circle cx="201.6522" cy="107.3800" r="0.5500" /> 
</g>
<g style="fill:#FFFFFF; fill-opacity:1.0000; stroke:none;">
<circle cx="204.1922" cy="107.3800" r="0.5500" /> 
</g>
<g style="fill:#FFFFFF; fill-opacity:1.0000; stroke:none;">
<circle cx="206.7322" cy="107.3800" r="0.5500" /> 
</g>
<g style="fill:#FFFFFF; fill-opacity:1.0000; stroke:none;">
<circle cx="209.2722" cy="107.3800" r="0.5500" /> 
</g>
<g style="fill:#FFFFFF; fill-opacity:1.0000; stroke:none;">
<circle cx="211.8122" cy="107.3800" r="0.5500" /> 
</g>
<g style="fill:#FFFFFF; fill-opacity:1.0000; stroke:none;">
<circle cx="214.3522" cy="107.3800" r="0.5500" /> 
</g>
<g style="fill:#FFFFFF; fill-opacity:1.0000; stroke:none;">
<circle cx="216.8922" cy="107.3800" r="0.5500" /> 
</g>
<g style="fill:#FFFFFF; fill-opacity:1.0000; stroke:none;">
<circle cx="219.4322" cy="107.3800" r="0.5500" /> 
</g>
<g style="fill:#FFFFFF; fill-opacity:1.0000; stroke:none;">
<circle cx="221.9722" cy="107.3800" r="0.5500" /> 
</g>
<g style="fill:#FFFFFF; fill-opacity:1.0000; stroke:none;">
<circle cx="224.5122" cy="107.3800" r="0.5500" /> 
</g>
<g style="fill:#FFFFFF; fill-opacity:1.0000; stroke:none;">
<circle cx="227.0522" cy="107.3800" r="0.5500" /> 
</g>
<g style="fill:#FFFFFF; fill-opacity:1.0000; stroke:none;">
<circle cx="229.5922" cy="107.3800" r="0.5500" /> 
</g>
<g style="fill:#FFFFFF; fill-opacity:1.0000; stroke:none;">
<circle cx="232.1322" cy="107.3800" r="0.5500" /> 
</g>
<g style="fill:#FFFFFF; fill-opacity:1.0000; stroke:none;">
<circle cx="234.6722" cy="107.3800" r="0.5500" /> 
</g>
<g style="fill:#FFFFFF; fill-opacity:1.0000; stroke:none;">
<circle cx="237.2122" cy="107.3800" r="0.5500" /> 
</g>
<g style="fill:#FFFFFF; fill-opacity:1.0000; stroke:none;">
<circle cx="237.2122" cy="122.6200" r="0.5500" /> 
</g>
<g style="fill:#FFFFFF; fill-opacity:1.0000; stroke:none;">
<circle cx="234.6722" cy="122.6200" r="0.5500" /> 
</g>
<g style="fill:#FFFFFF; fill-opacity:1.0000; stroke:none;">
<circle cx="232.1322" cy="122.6200" r="0.5500" /> 
</g>
<g style="fill:#FFFFFF; fill-opacity:1.0000; stroke:none;">
<circle cx="229.5922" cy="122.6200" r="0.5500" /> 
</g>
<g style="fill:#FFFFFF; fill-opacity:1.0000; stroke:none;">
<circle cx="227.0522" cy="122.6200" r="0.5500" /> 
</g>
<g style="fill:#FFFFFF; fill-opacity:1.0000; stroke:none;">
<circle cx="224.5122" cy="122.6200" r="0.5500" /> 
</g>
<g style="fill:#FFFFFF; fill-opacity:1.0000; stroke:none;">
<circle cx="221.9722" cy="122.6200" r="0.5500" /> 
</g>
<g style="fill:#FFFFFF; fill-opacity:1.0000; stroke:none;">
<circle cx="219.4322" cy="122.6200" r="0.5500" /> 
</g>
<g style="fill:#FFFFFF; fill-opacity:1.0000; stroke:none;">
<circle cx="216.8922" cy="122.6200" r="0.5500" /> 
</g>
<g style="fill:#FFFFFF; fill-opacity:1.0000; stroke:none;">
<circle cx="214.3522" cy="122.6200" r="0.5500" /> 
</g>
<g style="fill:#FFFFFF; fill-opacity:1.0000; stroke:none;">
<circle cx="211.8122" cy="122.6200" r="0.5500" /> 
</g>
<g style="fill:#FFFFFF; fill-opacity:1.0000; stroke:none;">
<circle cx="209.2722" cy="122.6200" r="0.5500" /> 
</g>
<g style="fill:#FFFFFF; fill-opacity:1.0000; stroke:none;">
<circle cx="206.7322" cy="122.6200" r="0.5500" /> 
</g>
<g style="fill:#FFFFFF; fill-opacity:1.0000; stroke:none;">
<circle cx="204.1922" cy="122.6200" r="0.5500" /> 
</g>
<g style="fill:#FFFFFF; fill-opacity:1.0000; stroke:none;">
<circle cx="201.6522" cy="122.6200" r="0.5500" /> 
</g>
<g style="fill:#FFFFFF; fill-opacity:1.0000; stroke:none;">
<circle cx="199.1122" cy="122.6200" r="0.5500" /> 
</g>
<g style="fill:#FFFFFF; fill-opacity:1.0000; stroke:none;">
<circle cx="196.5722" cy="122.6200" r="0.5500" /> 
</g>
<g style="fill:#FFFFFF; fill-opacity:1.0000; stroke:none;">
<circle cx="194.0322" cy="122.6200" r="0.5500" /> 
</g>
<g style="fill:#FFFFFF; fill-opacity:1.0000; stroke:none;">
<circle cx="191.4922" cy="122.6200" r="0.5500" /> 
</g>
<g style="fill:#FFFFFF; fill-opacity:1.0000; stroke:none;">
<circle cx="188.9522" cy="122.6200" r="0.5500" /> 
</g>
<g style="fill:#FFFFFF; fill-opacity:1.0000; stroke:none;">
<circle cx="186.4122" cy="122.6200" r="0.5500" /> 
</g>
<g style="fill:#FFFFFF; fill-opacity:1.0000; stroke:none;">
<circle cx="183.8722" cy="122.6200" r="0.5500" /> 
</g>
<g style="fill:#FFFFFF; fill-opacity:1.0000; stroke:none;">
<circle cx="181.3322" cy="122.6200" r="0.5500" /> 
</g>
<g style="fill:#FFFFFF; fill-opacity:1.0000; stroke:none;">
<circle cx="178.7922" cy="122.6200" r="0.5500" /> 
</g>
<g style="fill:#FFFFFF; fill-opacity:1.0000; stroke:none;">
<circle cx="181.3322" cy="120.0800" r="0.5500" /> 
</g>
<g style="fill:#FFFFFF; fill-opacity:1.0000; stroke:none;">
<circle cx="185.0914" cy="110.4308" r="0.5500" /> 
</g>
<g style="fill:#FFFFFF; fill-opacity:1.0000; stroke:none;">
<circle cx="187.6314" cy="110.4308" r="0.5500" /> 
</g>
<g style="fill:#FFFFFF; fill-opacity:1.0000; stroke:none;">
<circle cx="190.1714" cy="110.4308" r="0.5500" /> 
</g>
<g style="fill:#FFFFFF; fill-opacity:1.0000; stroke:none;">
<circle cx="192.7114" cy="110.4308" r="0.5500" /> 
</g>
<g style="fill:#FFFFFF; fill-opacity:1.0000; stroke:none;">
<circle cx="195.2514" cy="110.4308" r="0.5500" /> 
</g>
<g style="fill:#FFFFFF; fill-opacity:1.0000; stroke:none;">
<circle cx="191.7622" cy="120.1816" r="0.4000" /> 
</g>
<g style="fill:#FFFFFF; fill-opacity:1.0000; stroke:none;">
<circle cx="191.7622" cy="118.1816" r="0.4000" /> 
</g>
<g style="fill:#FFFFFF; fill-opacity:1.0000; stroke:none;">
<circle cx="191.7622" cy="116.1816" r="0.4000" /> 
</g>
<g style="fill:#FFFFFF; fill-opacity:1.0000; stroke:none;">
<circle cx="193.7622" cy="116.1816" r="0.4000" /> 
</g>
<g style="fill:#FFFFFF; fill-opacity:1.0000; stroke:none;">
<circle cx="193.7622" cy="118.1816" r="0.4000" /> 
</g>
<g style="fill:#FFFFFF; fill-opacity:1.0000; stroke:none;">
<circle cx="193.7622" cy="120.1816" r="0.4000" /> 
</g>
<g style="fill:#FFFFFF; fill-opacity:1.0000; stroke:none;">
<circle cx="179.5222" cy="116.2700" r="0.4000" /> 
</g>
<g style="fill:#FFFFFF; fill-opacity:1.0000; stroke:none;">
<circle cx="179.5222" cy="113.7300" r="0.4000" /> 
</g>
<g style="fill:#FFFFFF; fill-opacity:1.0000; stroke:none;">
<circle cx="251.0022" cy="140.0000" r="0.5000" /> 
</g>
<g style="fill:#FFFFFF; fill-opacity:1.0000; stroke:none;">
<circle cx="251.0022" cy="129.0000" r="0.5000" /> 
</g>
<g style="fill:#FFFFFF; fill-opacity:1.0000; stroke:none;">
<circle cx="246.0022" cy="137.0000" r="0.9500" /> 
</g>
<g style="fill:#FFFFFF; fill-opacity:1.0000; stroke:none;">
<circle cx="246.0022" cy="132.0000" r="0.9500" /> 
</g>
<g style="fill:#FFFFFF; fill-opacity:1.0000; stroke:none;">
<circle cx="236.5022" cy="97.0000" r="0.4000" /> 
</g>
<g style="fill:#FFFFFF; fill-opacity:1.0000; stroke:none;">
<circle cx="246.6622" cy="97.0000" r="0.4000" /> 
</g>
<g style="fill:none; 
stroke:#FFFFFF; stroke-width:0.6000; stroke-opacity:1; 
stroke-linecap:round; stroke-linejoin:round;">
<path d="M200.3522 51.4500
L200.3522 52.5500
" />
<path d="M186.8522 51.4500
L186.8522 52.5500
" />
</g>
<g style="fill:#FFFFFF; fill-opacity:1.0000; stroke:none;">
<circle cx="190.0022" cy="58.0000" r="1.3500" /> 
</g>
<g style="fill:#FFFFFF; fill-opacity:1.0000; stroke:none;">
<circle cx="197.2022" cy="58.0000" r="1.3500" /> 
</g>
<g style="fill:#FFFFFF; fill-opacity:1.0000; stroke:none;">
<circle cx="197.0022" cy="62.5000" r="0.5500" /> 
</g>
<g style="fill:#FFFFFF; fill-opacity:1.0000; stroke:none;">
<circle cx="179.0022" cy="146.0000" r="1.6000" /> 
</g>
<g style="fill:#FFFFFF; fill-opacity:1.0000; stroke:none;">
<circle cx="249.5022" cy="107.0000" r="0.4000" /> 
</g>
<g style="fill:#FFFFFF; fill-opacity:1.0000; stroke:none;">
<circle cx="249.5022" cy="109.5400" r="0.4000" /> 
</g>
<g style="fill:#FFFFFF; fill-opacity:1.0000; stroke:none;">
<circle cx="249.5022" cy="112.0800" r="0.4000" /> 
</g>
<g style="fill:#FFFFFF; fill-opacity:1.0000; stroke:none;">
<circle cx="249.5022" cy="114.6200" r="0.4000" /> 
</g>
<g style="fill:#FFFFFF; fill-opacity:1.0000; stroke:none;">
<circle cx="249.5022" cy="117.1600" r="0.4000" /> 
</g>
<g style="fill:#FFFFFF; fill-opacity:1.0000; stroke:none;">
<circle cx="249.5022" cy="119.7000" r="0.4000" /> 
</g>
<g style="fill:#FFFFFF; fill-opacity:1.0000; stroke:none;">
<circle cx="249.5022" cy="122.2400" r="0.4000" /> 
</g>
<g style="fill:#FFFFFF; fill-opacity:1.0000; stroke:none;">
<circle cx="241.8822" cy="122.2400" r="0.4000" /> 
</g>
<g style="fill:#FFFFFF; fill-opacity:1.0000; stroke:none;">
<circle cx="241.8822" cy="119.7000" r="0.4000" /> 
</g>
<g style="fill:#FFFFFF; fill-opacity:1.0000; stroke:none;">
<circle cx="241.8822" cy="117.1600" r="0.4000" /> 
</g>
<g style="fill:#FFFFFF; fill-opacity:1.0000; stroke:none;">
<circle cx="241.8822" cy="114.6200" r="0.4000" /> 
</g>
<g style="fill:#FFFFFF; fill-opacity:1.0000; stroke:none;">
<circle cx="241.8822" cy="112.0800" r="0.4000" /> 
</g>
<g style="fill:#FFFFFF; fill-opacity:1.0000; stroke:none;">
<circle cx="241.8822" cy="109.5400" r="0.4000" /> 
</g>
<g style="fill:#FFFFFF; fill-opacity:1.0000; stroke:none;">
<circle cx="241.8822" cy="107.0000" r="0.4000" /> 
</g>
<g style="fill:#FFFFFF; fill-opacity:1.0000; stroke:none;">
<circle cx="214.4622" cy="127.4600" r="0.5450" /> 
</g>
<g style="fill:#FFFFFF; fill-opacity:1.0000; stroke:none;">
<circle cx="214.4622" cy="130.0000" r="0.5450" /> 
</g>
<g style="fill:#FFFFFF; fill-opacity:1.0000; stroke:none;">
<circle cx="214.4622" cy="132.5400" r="0.5450" /> 
</g>
<g style="fill:#FFFFFF; fill-opacity:1.0000; stroke:none;">
<circle cx="219.5422" cy="127.4600" r="0.5450" /> 
</g>
<g style="fill:#FFFFFF; fill-opacity:1.0000; stroke:none;">
<circle cx="219.5422" cy="130.0000" r="0.5450" /> 
</g>
<g style="fill:#FFFFFF; fill-opacity:1.0000; stroke:none;">
<circle cx="219.5422" cy="132.5400" r="0.5450" /> 
</g>
<g style="fill:#FFFFFF; fill-opacity:1.0000; stroke:none;">
<circle cx="203.7522" cy="135.9500" r="0.8000" /> 
</g>
<g style="fill:#FFFFFF; fill-opacity:1.0000; stroke:none;">
<circle cx="201.7172" cy="139.0000" r="1.6250" /> 
</g>
<g style="fill:#FFFFFF; fill-opacity:1.0000; stroke:none;">
<circle cx="190.2872" cy="139.0000" r="1.6250" /> 
</g>
<g style="fill:#FFFFFF; fill-opacity:1.0000; stroke:none;">
<circle cx="188.2522" cy="135.9500" r="0.8000" /> 
</g>
<g style="fill:#FFFFFF; fill-opacity:1.0000; stroke:none;">
<circle cx="200.4472" cy="132.6500" r="0.4500" /> 
</g>
<g style="fill:#FFFFFF; fill-opacity:1.0000; stroke:none;">
<circle cx="199.1772" cy="130.1100" r="0.4500" /> 
</g>
<g style="fill:#FFFFFF; fill-opacity:1.0000; stroke:none;">
<circle cx="197.9072" cy="132.6500" r="0.4500" /> 
</g>
<g style="fill:#FFFFFF; fill-opacity:1.0000; stroke:none;">
<circle cx="196.6372" cy="130.1100" r="0.4500" /> 
</g>
<g style="fill:#FFFFFF; fill-opacity:1.0000; stroke:none;">
<circle cx="195.3672" cy="132.6500" r="0.4500" /> 
</g>
<g style="fill:#FFFFFF; fill-opacity:1.0000; stroke:none;">
<circle cx="194.0972" cy="130.1100" r="0.4500" /> 
</g>
<g style="fill:#FFFFFF; fill-opacity:1.0000; stroke:none;">
<circle cx="192.8272" cy="132.6500" r="0.4500" /> 
</g>
<g style="fill:#FFFFFF; fill-opacity:1.0000; stroke:none;">
<circle cx="191.5572" cy="130.1100" r="0.4500" /> 
</g>
<g style="fill:#FFFFFF; fill-opacity:1.0000; stroke:none;">
<circle cx="202.3272" cy="144.0800" r="0.5100" /> 
</g>
<g style="fill:#FFFFFF; fill-opacity:1.0000; stroke:none;">
<circle cx="199.7872" cy="142.3800" r="0.5100" /> 
</g>
<g style="fill:#FFFFFF; fill-opacity:1.0000; stroke:none;">
<circle cx="192.2172" cy="144.0800" r="0.5100" /> 
</g>
<g style="fill:#FFFFFF; fill-opacity:1.0000; stroke:none;">
<circle cx="189.6772" cy="142.3800" r="0.5100" /> 
</g>
<g style="fill:#FFFFFF; fill-opacity:1.0000; stroke:none;">
<circle cx="236.5022" cy="72.7100" r="0.3810" /> 
</g>
<g style="fill:#FFFFFF; fill-opacity:1.0000; stroke:none;">
<circle cx="236.5022" cy="75.2500" r="0.3810" /> 
</g>
<g style="fill:#FFFFFF; fill-opacity:1.0000; stroke:none;">
<circle cx="236.4862" cy="77.7900" r="0.3810" /> 
</g>
<g style="fill:#FFFFFF; fill-opacity:1.0000; stroke:none;">
<circle cx="225.2672" cy="56.7000" r="0.8000" /> 
</g>
<g style="fill:#FFFFFF; fill-opacity:1.0000; stroke:none;">
<circle cx="225.2672" cy="53.3000" r="0.8000" /> 
</g>
<g style="fill:#FFFFFF; fill-opacity:1.0000; stroke:none;">
<circle cx="238.7372" cy="56.7000" r="0.8000" /> 
</g>
<g style="fill:#FFFFFF; fill-opacity:1.0000; stroke:none;">
<circle cx="238.7372" cy="53.3000" r="0.8000" /> 
</g>
<g style="fill:#FFFFFF; fill-opacity:1.0000; stroke:none;">
<circle cx="248.0022" cy="83.0000" r="0.4000" /> 
</g>
<g style="fill:#FFFFFF; fill-opacity:1.0000; stroke:none;">
<circle cx="248.0022" cy="93.1600" r="0.4000" /> 
</g>
<g style="fill:#FFFFFF; fill-opacity:1.0000; stroke:none;">
<circle cx="179.0022" cy="102.5000" r="0.3000" /> 
</g>
<g style="fill:#FFFFFF; fill-opacity:1.0000; stroke:none;">
<circle cx="192.0022" cy="91.5000" r="1.6000" /> 
</g>
<g style="fill:#FFFFFF; fill-opacity:1.0000; stroke:none;">
<circle cx="192.0022" cy="67.5000" r="1.6000" /> 
</g>
<g style="fill:#FFFFFF; fill-opacity:1.0000; stroke:none;">
<circle cx="240.0022" cy="91.5000" r="1.6000" /> 
</g>
<g style="fill:#FFFFFF; fill-opacity:1.0000; stroke:none;">
<circle cx="240.0022" cy="67.5000" r="1.6000" /> 
</g>
<g style="fill:#FFFFFF; fill-opacity:1.0000; stroke:none;">
<circle cx="245.0022" cy="71.5000" r="0.4000" /> 
</g>
<g style="fill:#FFFFFF; fill-opacity:1.0000; stroke:none;">
<circle cx="247.5422" cy="71.5000" r="0.4000" /> 
</g>
<g style="fill:#FFFFFF; fill-opacity:1.0000; stroke:none;">
<circle cx="247.5422" cy="79.1200" r="0.4000" /> 
</g>
<g style="fill:#FFFFFF; fill-opacity:1.0000; stroke:none;">
<circle cx="245.0022" cy="79.1200" r="0.4000" /> 
</g>
<g style="fill:#FFFFFF; fill-opacity:1.0000; stroke:none;">
<circle cx="245.0022" cy="55.0000" r="0.5500" /> 
</g>
<g style="fill:#FFFFFF; fill-opacity:1.0000; stroke:none;">
<circle cx="232.0022" cy="97.0000" r="0.4000" /> 
</g>
<g style="fill:#FFFFFF; fill-opacity:1.0000; stroke:none;">
<circle cx="229.5022" cy="97.0000" r="0.4000" /> 
</g>
<g style="fill:#FFFFFF; fill-opacity:1.0000; stroke:none;">
<circle cx="227.0022" cy="97.0000" r="0.4000" /> 
</g>
<g style="fill:#FFFFFF; fill-opacity:1.0000; stroke:none;">
<circle cx="222.0022" cy="92.0000" r="0.4000" /> 
</g>
<g style="fill:#FFFFFF; fill-opacity:1.0000; stroke:none;">
<circle cx="211.8422" cy="92.0000" r="0.4000" /> 
</g>
<g style="fill:#FFFFFF; fill-opacity:1.0000; stroke:none;">
<circle cx="223.3222" cy="86.1100" r="0.3500" /> 
</g>
<g style="fill:#FFFFFF; fill-opacity:1.0000; stroke:none;">
<circle cx="205.5422" cy="86.1100" r="0.3500" /> 
</g>
<g style="fill:#FFFFFF; fill-opacity:1.0000; stroke:none;">
<circle cx="208.0822" cy="86.1100" r="0.3500" /> 
</g>
<g style="fill:#FFFFFF; fill-opacity:1.0000; stroke:none;">
<circle cx="228.4022" cy="86.1100" r="0.3500" /> 
</g>
<g style="fill:#FFFFFF; fill-opacity:1.0000; stroke:none;">
<circle cx="228.4022" cy="70.8900" r="0.3500" /> 
</g>
<g style="fill:#FFFFFF; fill-opacity:1.0000; stroke:none;">
<circle cx="223.3222" cy="70.8900" r="0.3500" /> 
</g>
<g style="fill:#FFFFFF; fill-opacity:1.0000; stroke:none;">
<circle cx="208.0822" cy="70.8900" r="0.3500" /> 
</g>
<g style="fill:#FFFFFF; fill-opacity:1.0000; stroke:none;">
<circle cx="205.5422" cy="70.8900" r="0.3500" /> 
</g>
<g style="fill:#FFFFFF; fill-opacity:1.0000; stroke:none;">
<circle cx="234.0022" cy="127.5000" r="0.4000" /> 
</g>
<g style="fill:#FFFFFF; fill-opacity:1.0000; stroke:none;">
<circle cx="234.0022" cy="137.6600" r="0.4000" /> 
</g>
<g style="fill:#FFFFFF; fill-opacity:1.0000; stroke:none;">
<circle cx="217.5022" cy="102.0000" r="0.4500" /> 
</g>
<g style="fill:#FFFFFF; fill-opacity:1.0000; stroke:none;">
<circle cx="220.0422" cy="102.0000" r="0.4500" /> 
</g>
<g style="fill:#FFFFFF; fill-opacity:1.0000; stroke:none;">
<circle cx="251.0022" cy="54.0000" r="1.6000" /> 
</g>
<g style="fill:#FFFFFF; fill-opacity:1.0000; stroke:none;">
<circle cx="235.0022" cy="92.0000" r="0.4000" /> 
</g>
<g style="fill:#FFFFFF; fill-opacity:1.0000; stroke:none;">
<circle cx="224.8422" cy="92.0000" r="0.4000" /> 
</g>
<g style="fill:#FFFFFF; fill-opacity:1.0000; stroke:none;">
<circle cx="191.0022" cy="126.0000" r="0.4000" /> 
</g>
<g style="fill:#FFFFFF; fill-opacity:1.0000; stroke:none;">
<circle cx="196.0022" cy="126.0000" r="0.4000" /> 
</g>
<g style="fill:#FFFFFF; fill-opacity:1.0000; stroke:none;">
<circle cx="236.5022" cy="102.0000" r="0.4000" /> 
</g>
<g style="fill:#FFFFFF; fill-opacity:1.0000; stroke:none;">
<circle cx="246.6622" cy="102.0000" r="0.4000" /> 
</g> 
</svg>
