<?xml version="1.0" standalone="no"?>
 <!DOCTYPE svg PUBLIC "-//W3C//DTD SVG 1.1//EN" 
 "http://www.w3.org/Graphics/SVG/1.1/DTD/svg11.dtd"> 
<svg
  xmlns:svg="http://www.w3.org/2000/svg"
  xmlns="http://www.w3.org/2000/svg"
  xmlns:xlink="http://www.w3.org/1999/xlink"
  version="1.1"
  width="297.0022mm" height="210.0072mm" viewBox="0.0000 0.0000 297.0022 210.0072">
<title>SVG Image created as miniv_motor_controller_board-F_Courtyard.svg date 2025/02/14 10:52:00 </title>
  <desc>Image generated by PCBNEW </desc>
<g style="fill:#000000; fill-opacity:1.0000;stroke:#000000; stroke-opacity:1.0000;
stroke-linecap:round; stroke-linejoin:round;"
 transform="translate(0 0) scale(1 1)">
</g>
<g style="fill:none; 
stroke:#000000; stroke-width:0.0500; stroke-opacity:1; 
stroke-linecap:round; stroke-linejoin:round;">
<path d="M66.5000 132.7900
L66.5000 145.0500
" />
<path d="M66.5000 145.0500
L69.5000 145.0500
" />
<path d="M69.5000 132.7900
L66.5000 132.7900
" />
<path d="M69.5000 145.0500
L69.5000 132.7900
" />
<path d="M110.1000 78.0500
L110.1000 86.4500
" />
<path d="M110.1000 86.4500
L116.8500 86.4500
" />
<path d="M116.8500 78.0500
L110.1000 78.0500
" />
<path d="M116.8500 86.4500
L116.8500 78.0500
" />
<path d="M42.7000 110.7000
L42.7000 113.3000
" />
<path d="M42.7000 113.3000
L45.3000 113.3000
" />
<path d="M45.3000 110.7000
L42.7000 110.7000
" />
<path d="M45.3000 113.3000
L45.3000 110.7000
" />
<path d="M72.9000 138.4500
L72.9000 144.1000
" />
<path d="M72.9000 144.1000
L82.7000 144.1000
" />
<path d="M82.7000 138.4500
L72.9000 138.4500
" />
<path d="M82.7000 144.1000
L82.7000 138.4500
" />
<path d="M77.1500 42.1500
L77.1500 60.5500
" />
<path d="M77.1500 42.1500
L93.6500 42.1500
" />
<path d="M93.6500 60.5500
L77.1500 60.5500
" />
<path d="M93.6500 60.5500
L93.6500 42.1500
" />
<circle cx="118.0000" cy="54.0000" r="3.4500" /> 
<path d="M49.2000 64.2000
L49.2000 66.8000
" />
<path d="M49.2000 66.8000
L51.8000 66.8000
" />
<path d="M51.8000 64.2000
L49.2000 64.2000
" />
<path d="M51.8000 66.8000
L51.8000 64.2000
" />
<circle cx="46.0000" cy="146.0000" r="3.4500" /> 
<path d="M36.4500 129.5800
L42.4500 129.5800
" />
<path d="M36.4500 139.4200
L36.4500 129.5800
" />
<path d="M36.4500 139.4200
L42.4500 139.4200
" />
<path d="M42.4500 127.3500
L53.2500 127.3500
" />
<path d="M42.4500 129.5800
L42.4500 127.3500
" />
<path d="M42.4500 141.6500
L42.4500 139.4200
" />
<path d="M42.4500 141.6500
L53.2500 141.6500
" />
<path d="M53.2500 141.6500
L53.2500 127.3500
" />
<path d="M49.2900 95.5000
L49.2900 98.5000
" />
<path d="M49.2900 98.5000
L61.5500 98.5000
" />
<path d="M61.5500 95.5000
L49.2900 95.5000
" />
<path d="M61.5500 98.5000
L61.5500 95.5000
" />
<path d="M95.1500 42.1500
L95.1500 60.5500
" />
<path d="M95.1500 42.1500
L111.6500 42.1500
" />
<path d="M111.6500 60.5500
L95.1500 60.5500
" />
<path d="M111.6500 60.5500
L111.6500 42.1500
" />
<path d="M98.2000 60.9500
L98.2000 64.0500
" />
<path d="M98.2000 64.0500
L101.8000 64.0500
" />
<path d="M101.8000 60.9500
L98.2000 60.9500
" />
<path d="M101.8000 64.0500
L101.8000 60.9500
" />
<circle cx="118.0000" cy="146.0000" r="3.4500" /> 
<path d="M46.4000 105.4500
L46.4000 123.8000
" />
<path d="M46.4000 123.8000
L56.2000 123.8000
" />
<path d="M56.2000 105.4500
L46.4000 105.4500
" />
<path d="M56.2000 123.8000
L56.2000 105.4500
" />
<path d="M47.5000 81.9500
L47.5000 94.2100
" />
<path d="M47.5000 94.2100
L50.5000 94.2100
" />
<path d="M50.5000 81.9500
L47.5000 81.9500
" />
<path d="M50.5000 94.2100
L50.5000 81.9500
" />
<path d="M116.7000 101.2000
L116.7000 103.8000
" />
<path d="M116.7000 103.8000
L119.3000 103.8000
" />
<path d="M119.3000 101.2000
L116.7000 101.2000
" />
<path d="M119.3000 103.8000
L119.3000 101.2000
" />
<path d="M47.9000 70.4000
L47.9000 80.2000
" />
<path d="M47.9000 80.2000
L53.5500 80.2000
" />
<path d="M53.5500 70.4000
L47.9000 70.4000
" />
<path d="M53.5500 80.2000
L53.5500 70.4000
" />
<path d="M50.2000 53.4500
L50.2000 56.5500
" />
<path d="M50.2000 56.5500
L53.8000 56.5500
" />
<path d="M53.8000 53.4500
L50.2000 53.4500
" />
<path d="M53.8000 56.5500
L53.8000 53.4500
" />
<path d="M73.9500 90.5000
L73.9500 93.5000
" />
<path d="M73.9500 93.5000
L86.2100 93.5000
" />
<path d="M86.2100 90.5000
L73.9500 90.5000
" />
<path d="M86.2100 93.5000
L86.2100 90.5000
" />
<path d="M61.5000 126.4500
L61.5000 138.7100
" />
<path d="M61.5000 138.7100
L64.5000 138.7100
" />
<path d="M64.5000 126.4500
L61.5000 126.4500
" />
<path d="M64.5000 138.7100
L64.5000 126.4500
" />
<path d="M75.8000 99.7500
L75.8000 104.2500
" />
<path d="M75.8000 104.2500
L80.6500 104.2500
" />
<path d="M80.6500 99.7500
L75.8000 99.7500
" />
<path d="M80.6500 104.2500
L80.6500 99.7500
" />
<circle cx="46.0000" cy="54.0000" r="3.4500" /> 
<path d="M60.9500 90.5000
L60.9500 93.5000
" />
<path d="M60.9500 93.5000
L73.2100 93.5000
" />
<path d="M73.2100 90.5000
L60.9500 90.5000
" />
<path d="M73.2100 93.5000
L73.2100 90.5000
" />
<path d="M99.9500 124.1500
L99.9500 127.8500
" />
<path d="M99.9500 127.8500
L107.0500 127.8500
" />
<path d="M107.0500 124.1500
L99.9500 124.1500
" />
<path d="M107.0500 127.8500
L107.0500 124.1500
" />
<path d="M49.2900 100.5000
L49.2900 103.5000
" />
<path d="M49.2900 103.5000
L61.5500 103.5000
" />
<path d="M61.5500 100.5000
L49.2900 100.5000
" />
<path d="M61.5500 103.5000
L61.5500 100.5000
" />
</g> 
</svg>
