<?xml version="1.0" standalone="no"?>
 <!DOCTYPE svg PUBLIC "-//W3C//DTD SVG 1.1//EN" 
 "http://www.w3.org/Graphics/SVG/1.1/DTD/svg11.dtd"> 
<svg
  xmlns:svg="http://www.w3.org/2000/svg"
  xmlns="http://www.w3.org/2000/svg"
  xmlns:xlink="http://www.w3.org/1999/xlink"
  version="1.1"
  width="297.0022mm" height="210.0072mm" viewBox="0.0000 0.0000 297.0022 210.0072">
<title>SVG Image created as miniv_estop_board-F_Courtyard.svg date 2025/01/18 00:51:08 </title>
  <desc>Image generated by PCBNEW </desc>
<g style="fill:#000000; fill-opacity:1.0000;stroke:#000000; stroke-opacity:1.0000;
stroke-linecap:round; stroke-linejoin:round;"
 transform="translate(0 0) scale(1 1)">
</g>
<g style="fill:none; 
stroke:#000000; stroke-width:0.0500; stroke-opacity:1; 
stroke-linecap:round; stroke-linejoin:round;">
<path d="M93.1500 84.8500
L93.1500 68.3500
" />
<path d="M93.1500 84.8500
L111.5500 84.8500
" />
<path d="M111.5500 68.3500
L93.1500 68.3500
" />
<path d="M111.5500 68.3500
L111.5500 84.8500
" />
<path d="M142.7500 44.3000
L142.7500 49.1500
" />
<path d="M142.7500 49.1500
L147.2500 49.1500
" />
<path d="M147.2500 44.3000
L142.7500 44.3000
" />
<path d="M147.2500 49.1500
L147.2500 44.3000
" />
<path d="M95.4500 92.5800
L101.4500 92.5800
" />
<path d="M95.4500 102.4200
L95.4500 92.5800
" />
<path d="M95.4500 102.4200
L101.4500 102.4200
" />
<path d="M101.4500 90.3500
L112.2500 90.3500
" />
<path d="M101.4500 92.5800
L101.4500 90.3500
" />
<path d="M101.4500 104.6500
L101.4500 102.4200
" />
<path d="M101.4500 104.6500
L112.2500 104.6500
" />
<path d="M112.2500 104.6500
L112.2500 90.3500
" />
<path d="M140.6500 132.5000
L140.6500 137.5000
" />
<path d="M140.6500 137.5000
L148.3500 137.5000
" />
<path d="M148.3500 132.5000
L140.6500 132.5000
" />
<path d="M148.3500 137.5000
L148.3500 132.5000
" />
<path d="M154.9500 104.5000
L154.9500 107.5000
" />
<path d="M154.9500 107.5000
L167.2100 107.5000
" />
<path d="M167.2100 104.5000
L154.9500 104.5000
" />
<path d="M167.2100 107.5000
L167.2100 104.5000
" />
<path d="M105.5000 53.7900
L105.5000 66.0500
" />
<path d="M105.5000 66.0500
L108.5000 66.0500
" />
<path d="M108.5000 53.7900
L105.5000 53.7900
" />
<path d="M108.5000 66.0500
L108.5000 53.7900
" />
<path d="M133.9500 70.5000
L133.9500 73.5000
" />
<path d="M133.9500 73.5000
L146.2100 73.5000
" />
<path d="M146.2100 70.5000
L133.9500 70.5000
" />
<path d="M146.2100 73.5000
L146.2100 70.5000
" />
<path d="M154.9500 125.5000
L154.9500 128.5000
" />
<path d="M154.9500 128.5000
L167.2100 128.5000
" />
<path d="M167.2100 125.5000
L154.9500 125.5000
" />
<path d="M167.2100 128.5000
L167.2100 125.5000
" />
<path d="M121.7900 29.9000
L121.7900 40.7100
" />
<path d="M121.7900 40.7100
L138.0400 40.7100
" />
<path d="M138.0400 29.9000
L121.7900 29.9000
" />
<path d="M138.0400 40.7100
L138.0400 29.9000
" />
<path d="M137.9500 104.5000
L137.9500 107.5000
" />
<path d="M137.9500 107.5000
L150.2100 107.5000
" />
<path d="M150.2100 104.5000
L137.9500 104.5000
" />
<path d="M150.2100 107.5000
L150.2100 104.5000
" />
<path d="M137.9900 103.0000
L137.9900 97.5400
" />
<path d="M137.9900 103.0000
L143.0500 103.0000
" />
<path d="M143.0500 97.5400
L143.0500 103.0000
" />
<path d="M143.0500 97.5500
L137.9900 97.5400
" />
<path d="M104.7500 44.3000
L104.7500 49.1500
" />
<path d="M104.7500 49.1500
L109.2500 49.1500
" />
<path d="M109.2500 44.3000
L104.7500 44.3000
" />
<path d="M109.2500 49.1500
L109.2500 44.3000
" />
<circle cx="177.0000" cy="147.0000" r="3.4500" /> 
<path d="M143.5000 53.7900
L143.5000 66.0500
" />
<path d="M143.5000 66.0500
L146.5000 66.0500
" />
<path d="M146.5000 53.7900
L143.5000 53.7900
" />
<path d="M146.5000 66.0500
L146.5000 53.7900
" />
<path d="M154.9900 103.0000
L154.9900 97.5400
" />
<path d="M154.9900 103.0000
L160.0500 103.0000
" />
<path d="M160.0500 97.5400
L160.0500 103.0000
" />
<path d="M160.0500 97.5500
L154.9900 97.5400
" />
<path d="M161.7900 29.9000
L161.7900 40.7100
" />
<path d="M161.7900 40.7100
L178.0400 40.7100
" />
<path d="M178.0400 29.9000
L161.7900 29.9000
" />
<path d="M178.0400 40.7100
L178.0400 29.9000
" />
<path d="M117.9500 96.5000
L117.9500 99.5000
" />
<path d="M117.9500 99.5000
L130.2100 99.5000
" />
<path d="M130.2100 96.5000
L117.9500 96.5000
" />
<path d="M130.2100 99.5000
L130.2100 96.5000
" />
<path d="M95.4500 107.5800
L101.4500 107.5800
" />
<path d="M95.4500 117.4200
L95.4500 107.5800
" />
<path d="M95.4500 117.4200
L101.4500 117.4200
" />
<path d="M101.4500 105.3500
L112.2500 105.3500
" />
<path d="M101.4500 107.5800
L101.4500 105.3500
" />
<path d="M101.4500 119.6500
L101.4500 117.4200
" />
<path d="M101.4500 119.6500
L112.2500 119.6500
" />
<path d="M112.2500 119.6500
L112.2500 105.3500
" />
<path d="M154.9900 124.0000
L154.9900 118.5400
" />
<path d="M154.9900 124.0000
L160.0500 124.0000
" />
<path d="M160.0500 118.5400
L160.0500 124.0000
" />
<path d="M160.0500 118.5500
L154.9900 118.5400
" />
<path d="M101.7900 29.9000
L101.7900 40.7100
" />
<path d="M101.7900 40.7100
L118.0400 40.7100
" />
<path d="M118.0400 29.9000
L101.7900 29.9000
" />
<path d="M118.0400 40.7100
L118.0400 29.9000
" />
<path d="M111.4500 60.7500
L111.4500 66.5000
" />
<path d="M111.4500 66.5000
L127.4500 66.5000
" />
<path d="M127.4500 60.7500
L111.4500 60.7500
" />
<path d="M127.4500 66.5000
L127.4500 60.7500
" />
<path d="M157.6500 111.5000
L157.6500 116.5000
" />
<path d="M157.6500 116.5000
L165.3500 116.5000
" />
<path d="M165.3500 111.5000
L157.6500 111.5000
" />
<path d="M165.3500 116.5000
L165.3500 111.5000
" />
<path d="M167.7900 108.5000
L167.7900 111.5000
" />
<path d="M167.7900 111.5000
L180.0500 111.5000
" />
<path d="M180.0500 108.5000
L167.7900 108.5000
" />
<path d="M180.0500 111.5000
L180.0500 108.5000
" />
<path d="M141.7900 29.9000
L141.7900 40.7100
" />
<path d="M141.7900 40.7100
L158.0400 40.7100
" />
<path d="M158.0400 29.9000
L141.7900 29.9000
" />
<path d="M158.0400 40.7100
L158.0400 29.9000
" />
<circle cx="97.0000" cy="147.0000" r="3.4500" /> 
<path d="M151.4500 60.7500
L151.4500 66.5000
" />
<path d="M151.4500 66.5000
L167.4500 66.5000
" />
<path d="M167.4500 60.7500
L151.4500 60.7500
" />
<path d="M167.4500 66.5000
L167.4500 60.7500
" />
<circle cx="177.0000" cy="47.0000" r="3.4500" /> 
<path d="M167.7900 118.5000
L167.7900 121.5000
" />
<path d="M167.7900 121.5000
L180.0500 121.5000
" />
<path d="M180.0500 118.5000
L167.7900 118.5000
" />
<path d="M180.0500 121.5000
L180.0500 118.5000
" />
<circle cx="97.0000" cy="47.0000" r="3.4500" /> 
<path d="M140.6500 111.5000
L140.6500 116.5000
" />
<path d="M140.6500 116.5000
L148.3500 116.5000
" />
<path d="M148.3500 111.5000
L140.6500 111.5000
" />
<path d="M148.3500 116.5000
L148.3500 111.5000
" />
<path d="M137.9500 125.5000
L137.9500 128.5000
" />
<path d="M137.9500 128.5000
L150.2100 128.5000
" />
<path d="M150.2100 125.5000
L137.9500 125.5000
" />
<path d="M150.2100 128.5000
L150.2100 125.5000
" />
<path d="M94.1500 139.8500
L94.1500 123.3500
" />
<path d="M94.1500 139.8500
L112.5500 139.8500
" />
<path d="M112.5500 123.3500
L94.1500 123.3500
" />
<path d="M112.5500 123.3500
L112.5500 139.8500
" />
<path d="M137.9900 124.0000
L137.9900 118.5400
" />
<path d="M137.9900 124.0000
L143.0500 124.0000
" />
<path d="M143.0500 118.5400
L143.0500 124.0000
" />
<path d="M143.0500 118.5500
L137.9900 118.5400
" />
<path d="M157.6500 132.5000
L157.6500 137.5000
" />
<path d="M157.6500 137.5000
L165.3500 137.5000
" />
<path d="M165.3500 132.5000
L157.6500 132.5000
" />
<path d="M165.3500 137.5000
L165.3500 132.5000
" />
<path d="M167.7900 128.5000
L167.7900 131.5000
" />
<path d="M167.7900 131.5000
L180.0500 131.5000
" />
<path d="M180.0500 128.5000
L167.7900 128.5000
" />
<path d="M180.0500 131.5000
L180.0500 128.5000
" />
<path d="M167.7900 98.5000
L167.7900 101.5000
" />
<path d="M167.7900 101.5000
L180.0500 101.5000
" />
<path d="M180.0500 98.5000
L167.7900 98.5000
" />
<path d="M180.0500 101.5000
L180.0500 98.5000
" />
</g> 
</svg>
