<?xml version="1.0" standalone="no"?>
 <!DOCTYPE svg PUBLIC "-//W3C//DTD SVG 1.1//EN" 
 "http://www.w3.org/Graphics/SVG/1.1/DTD/svg11.dtd"> 
<svg
  xmlns:svg="http://www.w3.org/2000/svg"
  xmlns="http://www.w3.org/2000/svg"
  xmlns:xlink="http://www.w3.org/1999/xlink"
  version="1.1"
  width="297.0022mm" height="210.0072mm" viewBox="0.0000 0.0000 297.0022 210.0072">
<title>SVG Image created as miniv_estop_board-F_Courtyard.svg date 2025/02/28 15:10:05 </title>
  <desc>Image generated by PCBNEW </desc>
<g style="fill:#000000; fill-opacity:1.0000;stroke:#000000; stroke-opacity:1.0000;
stroke-linecap:round; stroke-linejoin:round;"
 transform="translate(0 0) scale(1 1)">
</g>
<g style="fill:none; 
stroke:#000000; stroke-width:0.0500; stroke-opacity:1; 
stroke-linecap:round; stroke-linejoin:round;">
<path d="M93.1500 84.8500
L93.1500 68.3500
" />
<path d="M93.1500 84.8500
L111.5500 84.8500
" />
<path d="M111.5500 68.3500
L93.1500 68.3500
" />
<path d="M111.5500 68.3500
L111.5500 84.8500
" />
<path d="M145.7500 44.3000
L145.7500 49.1500
" />
<path d="M145.7500 49.1500
L150.2500 49.1500
" />
<path d="M150.2500 44.3000
L145.7500 44.3000
" />
<path d="M150.2500 49.1500
L150.2500 44.3000
" />
<path d="M95.4500 92.5800
L101.4500 92.5800
" />
<path d="M95.4500 102.4200
L95.4500 92.5800
" />
<path d="M95.4500 102.4200
L101.4500 102.4200
" />
<path d="M101.4500 90.3500
L112.2500 90.3500
" />
<path d="M101.4500 92.5800
L101.4500 90.3500
" />
<path d="M101.4500 104.6500
L101.4500 102.4200
" />
<path d="M101.4500 104.6500
L112.2500 104.6500
" />
<path d="M112.2500 104.6500
L112.2500 90.3500
" />
<path d="M140.6500 132.5000
L140.6500 137.5000
" />
<path d="M140.6500 137.5000
L148.3500 137.5000
" />
<path d="M148.3500 132.5000
L140.6500 132.5000
" />
<path d="M148.3500 137.5000
L148.3500 132.5000
" />
<path d="M183.5000 45.9500
L183.5000 58.2100
" />
<path d="M183.5000 58.2100
L186.5000 58.2100
" />
<path d="M186.5000 45.9500
L183.5000 45.9500
" />
<path d="M186.5000 58.2100
L186.5000 45.9500
" />
<path d="M154.9500 104.5000
L154.9500 107.5000
" />
<path d="M154.9500 107.5000
L167.2100 107.5000
" />
<path d="M167.2100 104.5000
L154.9500 104.5000
" />
<path d="M167.2100 107.5000
L167.2100 104.5000
" />
<path d="M106.5000 49.7900
L106.5000 62.0500
" />
<path d="M106.5000 62.0500
L109.5000 62.0500
" />
<path d="M109.5000 49.7900
L106.5000 49.7900
" />
<path d="M109.5000 62.0500
L109.5000 49.7900
" />
<path d="M133.9500 70.5000
L133.9500 73.5000
" />
<path d="M133.9500 73.5000
L146.2100 73.5000
" />
<path d="M146.2100 70.5000
L133.9500 70.5000
" />
<path d="M146.2100 73.5000
L146.2100 70.5000
" />
<circle cx="112.5000" cy="34.0000" r="6.5000" /> 
<path d="M154.9500 125.5000
L154.9500 128.5000
" />
<path d="M154.9500 128.5000
L167.2100 128.5000
" />
<path d="M167.2100 125.5000
L154.9500 125.5000
" />
<path d="M167.2100 128.5000
L167.2100 125.5000
" />
<path d="M121.7900 14.9000
L121.7900 25.7100
" />
<path d="M121.7900 25.7100
L138.0400 25.7100
" />
<path d="M138.0400 14.9000
L121.7900 14.9000
" />
<path d="M138.0400 25.7100
L138.0400 14.9000
" />
<path d="M137.9500 104.5000
L137.9500 107.5000
" />
<path d="M137.9500 107.5000
L150.2100 107.5000
" />
<path d="M150.2100 104.5000
L137.9500 104.5000
" />
<path d="M150.2100 107.5000
L150.2100 104.5000
" />
<path d="M181.5000 58.9500
L181.5000 71.2100
" />
<path d="M181.5000 71.2100
L184.5000 71.2100
" />
<path d="M184.5000 58.9500
L181.5000 58.9500
" />
<path d="M184.5000 71.2100
L184.5000 58.9500
" />
<path d="M137.9900 103.0000
L137.9900 97.5400
" />
<path d="M137.9900 103.0000
L143.0500 103.0000
" />
<path d="M143.0500 97.5400
L143.0500 103.0000
" />
<path d="M143.0500 97.5500
L137.9900 97.5400
" />
<circle cx="152.5000" cy="35.0000" r="6.5000" /> 
<path d="M105.7500 44.3000
L105.7500 49.1500
" />
<path d="M105.7500 49.1500
L110.2500 49.1500
" />
<path d="M110.2500 44.3000
L105.7500 44.3000
" />
<path d="M110.2500 49.1500
L110.2500 44.3000
" />
<path d="M188.5000 45.9500
L188.5000 58.2100
" />
<path d="M188.5000 58.2100
L191.5000 58.2100
" />
<path d="M191.5000 45.9500
L188.5000 45.9500
" />
<path d="M191.5000 58.2100
L191.5000 45.9500
" />
<circle cx="188.0000" cy="137.0000" r="3.4500" /> 
<path d="M146.5000 49.7900
L146.5000 62.0500
" />
<path d="M146.5000 62.0500
L149.5000 62.0500
" />
<path d="M149.5000 49.7900
L146.5000 49.7900
" />
<path d="M149.5000 62.0500
L149.5000 49.7900
" />
<path d="M154.9900 103.0000
L154.9900 97.5400
" />
<path d="M154.9900 103.0000
L160.0500 103.0000
" />
<path d="M160.0500 97.5400
L160.0500 103.0000
" />
<path d="M160.0500 97.5500
L154.9900 97.5400
" />
<path d="M161.7900 14.9000
L161.7900 25.7100
" />
<path d="M161.7900 25.7100
L178.0400 25.7100
" />
<path d="M178.0400 14.9000
L161.7900 14.9000
" />
<path d="M178.0400 25.7100
L178.0400 14.9000
" />
<path d="M117.9500 96.5000
L117.9500 99.5000
" />
<path d="M117.9500 99.5000
L130.2100 99.5000
" />
<path d="M130.2100 96.5000
L117.9500 96.5000
" />
<path d="M130.2100 99.5000
L130.2100 96.5000
" />
<path d="M95.4500 107.5800
L101.4500 107.5800
" />
<path d="M95.4500 117.4200
L95.4500 107.5800
" />
<path d="M95.4500 117.4200
L101.4500 117.4200
" />
<path d="M101.4500 105.3500
L112.2500 105.3500
" />
<path d="M101.4500 107.5800
L101.4500 105.3500
" />
<path d="M101.4500 119.6500
L101.4500 117.4200
" />
<path d="M101.4500 119.6500
L112.2500 119.6500
" />
<path d="M112.2500 119.6500
L112.2500 105.3500
" />
<path d="M154.9900 124.0000
L154.9900 118.5400
" />
<path d="M154.9900 124.0000
L160.0500 124.0000
" />
<path d="M160.0500 118.5400
L160.0500 124.0000
" />
<path d="M160.0500 118.5500
L154.9900 118.5400
" />
<path d="M101.7900 14.9000
L101.7900 25.7100
" />
<path d="M101.7900 25.7100
L118.0400 25.7100
" />
<path d="M118.0400 14.9000
L101.7900 14.9000
" />
<path d="M118.0400 25.7100
L118.0400 14.9000
" />
<path d="M111.4500 60.7500
L111.4500 66.5000
" />
<path d="M111.4500 66.5000
L127.4500 66.5000
" />
<path d="M127.4500 60.7500
L111.4500 60.7500
" />
<path d="M127.4500 66.5000
L127.4500 60.7500
" />
<path d="M157.6500 111.5000
L157.6500 116.5000
" />
<path d="M157.6500 116.5000
L165.3500 116.5000
" />
<path d="M165.3500 111.5000
L157.6500 111.5000
" />
<path d="M165.3500 116.5000
L165.3500 111.5000
" />
<path d="M167.7900 108.5000
L167.7900 111.5000
" />
<path d="M167.7900 111.5000
L180.0500 111.5000
" />
<path d="M180.0500 108.5000
L167.7900 108.5000
" />
<path d="M180.0500 111.5000
L180.0500 108.5000
" />
<path d="M141.7900 14.9000
L141.7900 25.7100
" />
<path d="M141.7900 25.7100
L158.0400 25.7100
" />
<path d="M158.0400 14.9000
L141.7900 14.9000
" />
<path d="M158.0400 25.7100
L158.0400 14.9000
" />
<circle cx="96.0000" cy="137.0000" r="3.4500" /> 
<path d="M186.5000 58.9500
L186.5000 71.2100
" />
<path d="M186.5000 71.2100
L189.5000 71.2100
" />
<path d="M189.5000 58.9500
L186.5000 58.9500
" />
<path d="M189.5000 71.2100
L189.5000 58.9500
" />
<circle cx="172.5000" cy="35.0000" r="6.5000" /> 
<circle cx="132.5000" cy="34.0000" r="6.5000" /> 
<path d="M151.4500 60.7500
L151.4500 66.5000
" />
<path d="M151.4500 66.5000
L167.4500 66.5000
" />
<path d="M167.4500 60.7500
L151.4500 60.7500
" />
<path d="M167.4500 66.5000
L167.4500 60.7500
" />
<circle cx="188.0000" cy="19.0000" r="3.4500" /> 
<path d="M167.7900 118.5000
L167.7900 121.5000
" />
<path d="M167.7900 121.5000
L180.0500 121.5000
" />
<path d="M180.0500 118.5000
L167.7900 118.5000
" />
<path d="M180.0500 121.5000
L180.0500 118.5000
" />
<circle cx="96.0000" cy="19.0000" r="3.4500" /> 
<path d="M140.6500 111.5000
L140.6500 116.5000
" />
<path d="M140.6500 116.5000
L148.3500 116.5000
" />
<path d="M148.3500 111.5000
L140.6500 111.5000
" />
<path d="M148.3500 116.5000
L148.3500 111.5000
" />
<path d="M137.9500 125.5000
L137.9500 128.5000
" />
<path d="M137.9500 128.5000
L150.2100 128.5000
" />
<path d="M150.2100 125.5000
L137.9500 125.5000
" />
<path d="M150.2100 128.5000
L150.2100 125.5000
" />
<path d="M119.3500 132.4500
L119.3500 150.8500
" />
<path d="M119.3500 132.4500
L135.8500 132.4500
" />
<path d="M135.8500 150.8500
L119.3500 150.8500
" />
<path d="M135.8500 150.8500
L135.8500 132.4500
" />
<path d="M137.9900 124.0000
L137.9900 118.5400
" />
<path d="M137.9900 124.0000
L143.0500 124.0000
" />
<path d="M143.0500 118.5400
L143.0500 124.0000
" />
<path d="M143.0500 118.5500
L137.9900 118.5400
" />
<path d="M157.6500 132.5000
L157.6500 137.5000
" />
<path d="M157.6500 137.5000
L165.3500 137.5000
" />
<path d="M165.3500 132.5000
L157.6500 132.5000
" />
<path d="M165.3500 137.5000
L165.3500 132.5000
" />
<path d="M167.7900 128.5000
L167.7900 131.5000
" />
<path d="M167.7900 131.5000
L180.0500 131.5000
" />
<path d="M180.0500 128.5000
L167.7900 128.5000
" />
<path d="M180.0500 131.5000
L180.0500 128.5000
" />
<path d="M167.7900 98.5000
L167.7900 101.5000
" />
<path d="M167.7900 101.5000
L180.0500 101.5000
" />
<path d="M180.0500 98.5000
L167.7900 98.5000
" />
<path d="M180.0500 101.5000
L180.0500 98.5000
" />
</g> 
</svg>
