%TF.GenerationSoftware,KiCad,Pcbnew,8.0.6-8.0.6-0~ubuntu22.04.1*%
%TF.CreationDate,2024-12-03T15:31:05+00:00*%
%TF.ProjectId,computer_sensor_board,636f6d70-7574-4657-925f-73656e736f72,rev?*%
%TF.SameCoordinates,Original*%
%TF.FileFunction,Other,User*%
%FSLAX46Y46*%
G04 Gerber Fmt 4.6, Leading zero omitted, Abs format (unit mm)*
G04 Created by KiCad (PCBNEW 8.0.6-8.0.6-0~ubuntu22.04.1) date 2024-12-03 15:31:05*
%MOMM*%
%LPD*%
G01*
G04 APERTURE LIST*
%ADD10C,0.050000*%
G04 APERTURE END LIST*
D10*
%TO.C,H1*%
X178450000Y-60000000D02*
G75*
G02*
X171550000Y-60000000I-3450000J0D01*
G01*
X171550000Y-60000000D02*
G75*
G02*
X178450000Y-60000000I3450000J0D01*
G01*
%TO.C,H2*%
X238450000Y-60000000D02*
G75*
G02*
X231550000Y-60000000I-3450000J0D01*
G01*
X231550000Y-60000000D02*
G75*
G02*
X238450000Y-60000000I3450000J0D01*
G01*
%TO.C,J7*%
X200350000Y-55600000D02*
X200350000Y-66400000D01*
X200350000Y-55600000D02*
X202580000Y-55600000D01*
X200350000Y-66400000D02*
X214650000Y-66400000D01*
X202580000Y-49600000D02*
X202580000Y-55600000D01*
X202580000Y-49600000D02*
X212420000Y-49600000D01*
X212420000Y-49600000D02*
X212420000Y-55600000D01*
X212420000Y-55600000D02*
X214650000Y-55600000D01*
X214650000Y-55600000D02*
X214650000Y-66400000D01*
%TO.C,J5*%
X215350000Y-55600000D02*
X215350000Y-66400000D01*
X215350000Y-55600000D02*
X217580000Y-55600000D01*
X215350000Y-66400000D02*
X229650000Y-66400000D01*
X217580000Y-49600000D02*
X217580000Y-55600000D01*
X217580000Y-49600000D02*
X227420000Y-49600000D01*
X227420000Y-49600000D02*
X227420000Y-55600000D01*
X227420000Y-55600000D02*
X229650000Y-55600000D01*
X229650000Y-55600000D02*
X229650000Y-66400000D01*
%TO.C,H3*%
X178450000Y-85000000D02*
G75*
G02*
X171550000Y-85000000I-3450000J0D01*
G01*
X171550000Y-85000000D02*
G75*
G02*
X178450000Y-85000000I3450000J0D01*
G01*
%TO.C,H4*%
X238450000Y-85000000D02*
G75*
G02*
X231550000Y-85000000I-3450000J0D01*
G01*
X231550000Y-85000000D02*
G75*
G02*
X238450000Y-85000000I3450000J0D01*
G01*
%TO.C,C1*%
X205000000Y-70150000D02*
X205000000Y-77850000D01*
X205000000Y-77850000D02*
X210000000Y-77850000D01*
X210000000Y-70150000D02*
X205000000Y-70150000D01*
X210000000Y-77850000D02*
X210000000Y-70150000D01*
%TO.C,J2*%
X180350000Y-89550000D02*
X180350000Y-78750000D01*
X182580000Y-89550000D02*
X180350000Y-89550000D01*
X182580000Y-95550000D02*
X182580000Y-89550000D01*
X192420000Y-95550000D02*
X182580000Y-95550000D01*
X192420000Y-95550000D02*
X192420000Y-89550000D01*
X194650000Y-78750000D02*
X180350000Y-78750000D01*
X194650000Y-89550000D02*
X192420000Y-89550000D01*
X194650000Y-89550000D02*
X194650000Y-78750000D01*
%TO.C,J6*%
X180350000Y-55450000D02*
X180350000Y-66250000D01*
X180350000Y-55450000D02*
X182580000Y-55450000D01*
X180350000Y-66250000D02*
X194650000Y-66250000D01*
X182580000Y-49450000D02*
X182580000Y-55450000D01*
X182580000Y-49450000D02*
X192420000Y-49450000D01*
X192420000Y-49450000D02*
X192420000Y-55450000D01*
X192420000Y-55450000D02*
X194650000Y-55450000D01*
X194650000Y-55450000D02*
X194650000Y-66250000D01*
%TD*%
M02*
