%TF.GenerationSoftware,KiCad,Pcbnew,8.0.6-8.0.6-0~ubuntu22.04.1*%
%TF.CreationDate,2024-12-18T00:56:20+00:00*%
%TF.ProjectId,computer_sensor_board,636f6d70-7574-4657-925f-73656e736f72,rev?*%
%TF.SameCoordinates,Original*%
%TF.FileFunction,AssemblyDrawing,Top*%
%FSLAX46Y46*%
G04 Gerber Fmt 4.6, Leading zero omitted, Abs format (unit mm)*
G04 Created by KiCad (PCBNEW 8.0.6-8.0.6-0~ubuntu22.04.1) date 2024-12-18 00:56:20*
%MOMM*%
%LPD*%
G01*
G04 APERTURE LIST*
%ADD10C,0.150000*%
%ADD11C,0.100000*%
G04 APERTURE END LIST*
D10*
X170214285Y-64654819D02*
X170214285Y-63654819D01*
X170214285Y-63654819D02*
X170547618Y-64369104D01*
X170547618Y-64369104D02*
X170880951Y-63654819D01*
X170880951Y-63654819D02*
X170880951Y-64654819D01*
X171499999Y-64654819D02*
X171404761Y-64607200D01*
X171404761Y-64607200D02*
X171357142Y-64559580D01*
X171357142Y-64559580D02*
X171309523Y-64464342D01*
X171309523Y-64464342D02*
X171309523Y-64178628D01*
X171309523Y-64178628D02*
X171357142Y-64083390D01*
X171357142Y-64083390D02*
X171404761Y-64035771D01*
X171404761Y-64035771D02*
X171499999Y-63988152D01*
X171499999Y-63988152D02*
X171642856Y-63988152D01*
X171642856Y-63988152D02*
X171738094Y-64035771D01*
X171738094Y-64035771D02*
X171785713Y-64083390D01*
X171785713Y-64083390D02*
X171833332Y-64178628D01*
X171833332Y-64178628D02*
X171833332Y-64464342D01*
X171833332Y-64464342D02*
X171785713Y-64559580D01*
X171785713Y-64559580D02*
X171738094Y-64607200D01*
X171738094Y-64607200D02*
X171642856Y-64654819D01*
X171642856Y-64654819D02*
X171499999Y-64654819D01*
X172690475Y-63988152D02*
X172690475Y-64654819D01*
X172261904Y-63988152D02*
X172261904Y-64511961D01*
X172261904Y-64511961D02*
X172309523Y-64607200D01*
X172309523Y-64607200D02*
X172404761Y-64654819D01*
X172404761Y-64654819D02*
X172547618Y-64654819D01*
X172547618Y-64654819D02*
X172642856Y-64607200D01*
X172642856Y-64607200D02*
X172690475Y-64559580D01*
X173166666Y-63988152D02*
X173166666Y-64654819D01*
X173166666Y-64083390D02*
X173214285Y-64035771D01*
X173214285Y-64035771D02*
X173309523Y-63988152D01*
X173309523Y-63988152D02*
X173452380Y-63988152D01*
X173452380Y-63988152D02*
X173547618Y-64035771D01*
X173547618Y-64035771D02*
X173595237Y-64131009D01*
X173595237Y-64131009D02*
X173595237Y-64654819D01*
X173928571Y-63988152D02*
X174309523Y-63988152D01*
X174071428Y-63654819D02*
X174071428Y-64511961D01*
X174071428Y-64511961D02*
X174119047Y-64607200D01*
X174119047Y-64607200D02*
X174214285Y-64654819D01*
X174214285Y-64654819D02*
X174309523Y-64654819D01*
X174642857Y-64654819D02*
X174642857Y-63988152D01*
X174642857Y-63654819D02*
X174595238Y-63702438D01*
X174595238Y-63702438D02*
X174642857Y-63750057D01*
X174642857Y-63750057D02*
X174690476Y-63702438D01*
X174690476Y-63702438D02*
X174642857Y-63654819D01*
X174642857Y-63654819D02*
X174642857Y-63750057D01*
X175119047Y-63988152D02*
X175119047Y-64654819D01*
X175119047Y-64083390D02*
X175166666Y-64035771D01*
X175166666Y-64035771D02*
X175261904Y-63988152D01*
X175261904Y-63988152D02*
X175404761Y-63988152D01*
X175404761Y-63988152D02*
X175499999Y-64035771D01*
X175499999Y-64035771D02*
X175547618Y-64131009D01*
X175547618Y-64131009D02*
X175547618Y-64654819D01*
X176452380Y-63988152D02*
X176452380Y-64797676D01*
X176452380Y-64797676D02*
X176404761Y-64892914D01*
X176404761Y-64892914D02*
X176357142Y-64940533D01*
X176357142Y-64940533D02*
X176261904Y-64988152D01*
X176261904Y-64988152D02*
X176119047Y-64988152D01*
X176119047Y-64988152D02*
X176023809Y-64940533D01*
X176452380Y-64607200D02*
X176357142Y-64654819D01*
X176357142Y-64654819D02*
X176166666Y-64654819D01*
X176166666Y-64654819D02*
X176071428Y-64607200D01*
X176071428Y-64607200D02*
X176023809Y-64559580D01*
X176023809Y-64559580D02*
X175976190Y-64464342D01*
X175976190Y-64464342D02*
X175976190Y-64178628D01*
X175976190Y-64178628D02*
X176023809Y-64083390D01*
X176023809Y-64083390D02*
X176071428Y-64035771D01*
X176071428Y-64035771D02*
X176166666Y-63988152D01*
X176166666Y-63988152D02*
X176357142Y-63988152D01*
X176357142Y-63988152D02*
X176452380Y-64035771D01*
X176928571Y-64654819D02*
X176928571Y-63654819D01*
X176928571Y-64131009D02*
X177499999Y-64131009D01*
X177499999Y-64654819D02*
X177499999Y-63654819D01*
X178119047Y-64654819D02*
X178023809Y-64607200D01*
X178023809Y-64607200D02*
X177976190Y-64559580D01*
X177976190Y-64559580D02*
X177928571Y-64464342D01*
X177928571Y-64464342D02*
X177928571Y-64178628D01*
X177928571Y-64178628D02*
X177976190Y-64083390D01*
X177976190Y-64083390D02*
X178023809Y-64035771D01*
X178023809Y-64035771D02*
X178119047Y-63988152D01*
X178119047Y-63988152D02*
X178261904Y-63988152D01*
X178261904Y-63988152D02*
X178357142Y-64035771D01*
X178357142Y-64035771D02*
X178404761Y-64083390D01*
X178404761Y-64083390D02*
X178452380Y-64178628D01*
X178452380Y-64178628D02*
X178452380Y-64464342D01*
X178452380Y-64464342D02*
X178404761Y-64559580D01*
X178404761Y-64559580D02*
X178357142Y-64607200D01*
X178357142Y-64607200D02*
X178261904Y-64654819D01*
X178261904Y-64654819D02*
X178119047Y-64654819D01*
X179023809Y-64654819D02*
X178928571Y-64607200D01*
X178928571Y-64607200D02*
X178880952Y-64511961D01*
X178880952Y-64511961D02*
X178880952Y-63654819D01*
X179785714Y-64607200D02*
X179690476Y-64654819D01*
X179690476Y-64654819D02*
X179500000Y-64654819D01*
X179500000Y-64654819D02*
X179404762Y-64607200D01*
X179404762Y-64607200D02*
X179357143Y-64511961D01*
X179357143Y-64511961D02*
X179357143Y-64131009D01*
X179357143Y-64131009D02*
X179404762Y-64035771D01*
X179404762Y-64035771D02*
X179500000Y-63988152D01*
X179500000Y-63988152D02*
X179690476Y-63988152D01*
X179690476Y-63988152D02*
X179785714Y-64035771D01*
X179785714Y-64035771D02*
X179833333Y-64131009D01*
X179833333Y-64131009D02*
X179833333Y-64226247D01*
X179833333Y-64226247D02*
X179357143Y-64321485D01*
X174238095Y-60454819D02*
X174238095Y-59454819D01*
X174238095Y-59931009D02*
X174809523Y-59931009D01*
X174809523Y-60454819D02*
X174809523Y-59454819D01*
X175809523Y-60454819D02*
X175238095Y-60454819D01*
X175523809Y-60454819D02*
X175523809Y-59454819D01*
X175523809Y-59454819D02*
X175428571Y-59597676D01*
X175428571Y-59597676D02*
X175333333Y-59692914D01*
X175333333Y-59692914D02*
X175238095Y-59740533D01*
X230214285Y-64654819D02*
X230214285Y-63654819D01*
X230214285Y-63654819D02*
X230547618Y-64369104D01*
X230547618Y-64369104D02*
X230880951Y-63654819D01*
X230880951Y-63654819D02*
X230880951Y-64654819D01*
X231499999Y-64654819D02*
X231404761Y-64607200D01*
X231404761Y-64607200D02*
X231357142Y-64559580D01*
X231357142Y-64559580D02*
X231309523Y-64464342D01*
X231309523Y-64464342D02*
X231309523Y-64178628D01*
X231309523Y-64178628D02*
X231357142Y-64083390D01*
X231357142Y-64083390D02*
X231404761Y-64035771D01*
X231404761Y-64035771D02*
X231499999Y-63988152D01*
X231499999Y-63988152D02*
X231642856Y-63988152D01*
X231642856Y-63988152D02*
X231738094Y-64035771D01*
X231738094Y-64035771D02*
X231785713Y-64083390D01*
X231785713Y-64083390D02*
X231833332Y-64178628D01*
X231833332Y-64178628D02*
X231833332Y-64464342D01*
X231833332Y-64464342D02*
X231785713Y-64559580D01*
X231785713Y-64559580D02*
X231738094Y-64607200D01*
X231738094Y-64607200D02*
X231642856Y-64654819D01*
X231642856Y-64654819D02*
X231499999Y-64654819D01*
X232690475Y-63988152D02*
X232690475Y-64654819D01*
X232261904Y-63988152D02*
X232261904Y-64511961D01*
X232261904Y-64511961D02*
X232309523Y-64607200D01*
X232309523Y-64607200D02*
X232404761Y-64654819D01*
X232404761Y-64654819D02*
X232547618Y-64654819D01*
X232547618Y-64654819D02*
X232642856Y-64607200D01*
X232642856Y-64607200D02*
X232690475Y-64559580D01*
X233166666Y-63988152D02*
X233166666Y-64654819D01*
X233166666Y-64083390D02*
X233214285Y-64035771D01*
X233214285Y-64035771D02*
X233309523Y-63988152D01*
X233309523Y-63988152D02*
X233452380Y-63988152D01*
X233452380Y-63988152D02*
X233547618Y-64035771D01*
X233547618Y-64035771D02*
X233595237Y-64131009D01*
X233595237Y-64131009D02*
X233595237Y-64654819D01*
X233928571Y-63988152D02*
X234309523Y-63988152D01*
X234071428Y-63654819D02*
X234071428Y-64511961D01*
X234071428Y-64511961D02*
X234119047Y-64607200D01*
X234119047Y-64607200D02*
X234214285Y-64654819D01*
X234214285Y-64654819D02*
X234309523Y-64654819D01*
X234642857Y-64654819D02*
X234642857Y-63988152D01*
X234642857Y-63654819D02*
X234595238Y-63702438D01*
X234595238Y-63702438D02*
X234642857Y-63750057D01*
X234642857Y-63750057D02*
X234690476Y-63702438D01*
X234690476Y-63702438D02*
X234642857Y-63654819D01*
X234642857Y-63654819D02*
X234642857Y-63750057D01*
X235119047Y-63988152D02*
X235119047Y-64654819D01*
X235119047Y-64083390D02*
X235166666Y-64035771D01*
X235166666Y-64035771D02*
X235261904Y-63988152D01*
X235261904Y-63988152D02*
X235404761Y-63988152D01*
X235404761Y-63988152D02*
X235499999Y-64035771D01*
X235499999Y-64035771D02*
X235547618Y-64131009D01*
X235547618Y-64131009D02*
X235547618Y-64654819D01*
X236452380Y-63988152D02*
X236452380Y-64797676D01*
X236452380Y-64797676D02*
X236404761Y-64892914D01*
X236404761Y-64892914D02*
X236357142Y-64940533D01*
X236357142Y-64940533D02*
X236261904Y-64988152D01*
X236261904Y-64988152D02*
X236119047Y-64988152D01*
X236119047Y-64988152D02*
X236023809Y-64940533D01*
X236452380Y-64607200D02*
X236357142Y-64654819D01*
X236357142Y-64654819D02*
X236166666Y-64654819D01*
X236166666Y-64654819D02*
X236071428Y-64607200D01*
X236071428Y-64607200D02*
X236023809Y-64559580D01*
X236023809Y-64559580D02*
X235976190Y-64464342D01*
X235976190Y-64464342D02*
X235976190Y-64178628D01*
X235976190Y-64178628D02*
X236023809Y-64083390D01*
X236023809Y-64083390D02*
X236071428Y-64035771D01*
X236071428Y-64035771D02*
X236166666Y-63988152D01*
X236166666Y-63988152D02*
X236357142Y-63988152D01*
X236357142Y-63988152D02*
X236452380Y-64035771D01*
X236928571Y-64654819D02*
X236928571Y-63654819D01*
X236928571Y-64131009D02*
X237499999Y-64131009D01*
X237499999Y-64654819D02*
X237499999Y-63654819D01*
X238119047Y-64654819D02*
X238023809Y-64607200D01*
X238023809Y-64607200D02*
X237976190Y-64559580D01*
X237976190Y-64559580D02*
X237928571Y-64464342D01*
X237928571Y-64464342D02*
X237928571Y-64178628D01*
X237928571Y-64178628D02*
X237976190Y-64083390D01*
X237976190Y-64083390D02*
X238023809Y-64035771D01*
X238023809Y-64035771D02*
X238119047Y-63988152D01*
X238119047Y-63988152D02*
X238261904Y-63988152D01*
X238261904Y-63988152D02*
X238357142Y-64035771D01*
X238357142Y-64035771D02*
X238404761Y-64083390D01*
X238404761Y-64083390D02*
X238452380Y-64178628D01*
X238452380Y-64178628D02*
X238452380Y-64464342D01*
X238452380Y-64464342D02*
X238404761Y-64559580D01*
X238404761Y-64559580D02*
X238357142Y-64607200D01*
X238357142Y-64607200D02*
X238261904Y-64654819D01*
X238261904Y-64654819D02*
X238119047Y-64654819D01*
X239023809Y-64654819D02*
X238928571Y-64607200D01*
X238928571Y-64607200D02*
X238880952Y-64511961D01*
X238880952Y-64511961D02*
X238880952Y-63654819D01*
X239785714Y-64607200D02*
X239690476Y-64654819D01*
X239690476Y-64654819D02*
X239500000Y-64654819D01*
X239500000Y-64654819D02*
X239404762Y-64607200D01*
X239404762Y-64607200D02*
X239357143Y-64511961D01*
X239357143Y-64511961D02*
X239357143Y-64131009D01*
X239357143Y-64131009D02*
X239404762Y-64035771D01*
X239404762Y-64035771D02*
X239500000Y-63988152D01*
X239500000Y-63988152D02*
X239690476Y-63988152D01*
X239690476Y-63988152D02*
X239785714Y-64035771D01*
X239785714Y-64035771D02*
X239833333Y-64131009D01*
X239833333Y-64131009D02*
X239833333Y-64226247D01*
X239833333Y-64226247D02*
X239357143Y-64321485D01*
X234238095Y-60454819D02*
X234238095Y-59454819D01*
X234238095Y-59931009D02*
X234809523Y-59931009D01*
X234809523Y-60454819D02*
X234809523Y-59454819D01*
X235238095Y-59550057D02*
X235285714Y-59502438D01*
X235285714Y-59502438D02*
X235380952Y-59454819D01*
X235380952Y-59454819D02*
X235619047Y-59454819D01*
X235619047Y-59454819D02*
X235714285Y-59502438D01*
X235714285Y-59502438D02*
X235761904Y-59550057D01*
X235761904Y-59550057D02*
X235809523Y-59645295D01*
X235809523Y-59645295D02*
X235809523Y-59740533D01*
X235809523Y-59740533D02*
X235761904Y-59883390D01*
X235761904Y-59883390D02*
X235190476Y-60454819D01*
X235190476Y-60454819D02*
X235809523Y-60454819D01*
X200642856Y-67859580D02*
X200595237Y-67907200D01*
X200595237Y-67907200D02*
X200452380Y-67954819D01*
X200452380Y-67954819D02*
X200357142Y-67954819D01*
X200357142Y-67954819D02*
X200214285Y-67907200D01*
X200214285Y-67907200D02*
X200119047Y-67811961D01*
X200119047Y-67811961D02*
X200071428Y-67716723D01*
X200071428Y-67716723D02*
X200023809Y-67526247D01*
X200023809Y-67526247D02*
X200023809Y-67383390D01*
X200023809Y-67383390D02*
X200071428Y-67192914D01*
X200071428Y-67192914D02*
X200119047Y-67097676D01*
X200119047Y-67097676D02*
X200214285Y-67002438D01*
X200214285Y-67002438D02*
X200357142Y-66954819D01*
X200357142Y-66954819D02*
X200452380Y-66954819D01*
X200452380Y-66954819D02*
X200595237Y-67002438D01*
X200595237Y-67002438D02*
X200642856Y-67050057D01*
X201214285Y-67954819D02*
X201119047Y-67907200D01*
X201119047Y-67907200D02*
X201071428Y-67859580D01*
X201071428Y-67859580D02*
X201023809Y-67764342D01*
X201023809Y-67764342D02*
X201023809Y-67478628D01*
X201023809Y-67478628D02*
X201071428Y-67383390D01*
X201071428Y-67383390D02*
X201119047Y-67335771D01*
X201119047Y-67335771D02*
X201214285Y-67288152D01*
X201214285Y-67288152D02*
X201357142Y-67288152D01*
X201357142Y-67288152D02*
X201452380Y-67335771D01*
X201452380Y-67335771D02*
X201499999Y-67383390D01*
X201499999Y-67383390D02*
X201547618Y-67478628D01*
X201547618Y-67478628D02*
X201547618Y-67764342D01*
X201547618Y-67764342D02*
X201499999Y-67859580D01*
X201499999Y-67859580D02*
X201452380Y-67907200D01*
X201452380Y-67907200D02*
X201357142Y-67954819D01*
X201357142Y-67954819D02*
X201214285Y-67954819D01*
X201976190Y-67288152D02*
X201976190Y-67954819D01*
X201976190Y-67383390D02*
X202023809Y-67335771D01*
X202023809Y-67335771D02*
X202119047Y-67288152D01*
X202119047Y-67288152D02*
X202261904Y-67288152D01*
X202261904Y-67288152D02*
X202357142Y-67335771D01*
X202357142Y-67335771D02*
X202404761Y-67431009D01*
X202404761Y-67431009D02*
X202404761Y-67954819D01*
X202880952Y-67288152D02*
X202880952Y-67954819D01*
X202880952Y-67383390D02*
X202928571Y-67335771D01*
X202928571Y-67335771D02*
X203023809Y-67288152D01*
X203023809Y-67288152D02*
X203166666Y-67288152D01*
X203166666Y-67288152D02*
X203261904Y-67335771D01*
X203261904Y-67335771D02*
X203309523Y-67431009D01*
X203309523Y-67431009D02*
X203309523Y-67954819D01*
X203547619Y-68050057D02*
X204309523Y-68050057D01*
X205119047Y-67954819D02*
X204785714Y-67478628D01*
X204547619Y-67954819D02*
X204547619Y-66954819D01*
X204547619Y-66954819D02*
X204928571Y-66954819D01*
X204928571Y-66954819D02*
X205023809Y-67002438D01*
X205023809Y-67002438D02*
X205071428Y-67050057D01*
X205071428Y-67050057D02*
X205119047Y-67145295D01*
X205119047Y-67145295D02*
X205119047Y-67288152D01*
X205119047Y-67288152D02*
X205071428Y-67383390D01*
X205071428Y-67383390D02*
X205023809Y-67431009D01*
X205023809Y-67431009D02*
X204928571Y-67478628D01*
X204928571Y-67478628D02*
X204547619Y-67478628D01*
X205690476Y-67954819D02*
X205595238Y-67907200D01*
X205595238Y-67907200D02*
X205547619Y-67859580D01*
X205547619Y-67859580D02*
X205500000Y-67764342D01*
X205500000Y-67764342D02*
X205500000Y-67478628D01*
X205500000Y-67478628D02*
X205547619Y-67383390D01*
X205547619Y-67383390D02*
X205595238Y-67335771D01*
X205595238Y-67335771D02*
X205690476Y-67288152D01*
X205690476Y-67288152D02*
X205833333Y-67288152D01*
X205833333Y-67288152D02*
X205928571Y-67335771D01*
X205928571Y-67335771D02*
X205976190Y-67383390D01*
X205976190Y-67383390D02*
X206023809Y-67478628D01*
X206023809Y-67478628D02*
X206023809Y-67764342D01*
X206023809Y-67764342D02*
X205976190Y-67859580D01*
X205976190Y-67859580D02*
X205928571Y-67907200D01*
X205928571Y-67907200D02*
X205833333Y-67954819D01*
X205833333Y-67954819D02*
X205690476Y-67954819D01*
X206880952Y-67288152D02*
X206880952Y-67954819D01*
X206452381Y-67288152D02*
X206452381Y-67811961D01*
X206452381Y-67811961D02*
X206500000Y-67907200D01*
X206500000Y-67907200D02*
X206595238Y-67954819D01*
X206595238Y-67954819D02*
X206738095Y-67954819D01*
X206738095Y-67954819D02*
X206833333Y-67907200D01*
X206833333Y-67907200D02*
X206880952Y-67859580D01*
X207214286Y-67288152D02*
X207595238Y-67288152D01*
X207357143Y-66954819D02*
X207357143Y-67811961D01*
X207357143Y-67811961D02*
X207404762Y-67907200D01*
X207404762Y-67907200D02*
X207500000Y-67954819D01*
X207500000Y-67954819D02*
X207595238Y-67954819D01*
X208309524Y-67907200D02*
X208214286Y-67954819D01*
X208214286Y-67954819D02*
X208023810Y-67954819D01*
X208023810Y-67954819D02*
X207928572Y-67907200D01*
X207928572Y-67907200D02*
X207880953Y-67811961D01*
X207880953Y-67811961D02*
X207880953Y-67431009D01*
X207880953Y-67431009D02*
X207928572Y-67335771D01*
X207928572Y-67335771D02*
X208023810Y-67288152D01*
X208023810Y-67288152D02*
X208214286Y-67288152D01*
X208214286Y-67288152D02*
X208309524Y-67335771D01*
X208309524Y-67335771D02*
X208357143Y-67431009D01*
X208357143Y-67431009D02*
X208357143Y-67526247D01*
X208357143Y-67526247D02*
X207880953Y-67621485D01*
X208785715Y-67954819D02*
X208785715Y-67288152D01*
X208785715Y-67478628D02*
X208833334Y-67383390D01*
X208833334Y-67383390D02*
X208880953Y-67335771D01*
X208880953Y-67335771D02*
X208976191Y-67288152D01*
X208976191Y-67288152D02*
X209071429Y-67288152D01*
X204166666Y-60454819D02*
X204166666Y-61169104D01*
X204166666Y-61169104D02*
X204119047Y-61311961D01*
X204119047Y-61311961D02*
X204023809Y-61407200D01*
X204023809Y-61407200D02*
X203880952Y-61454819D01*
X203880952Y-61454819D02*
X203785714Y-61454819D01*
X204547619Y-60454819D02*
X205214285Y-60454819D01*
X205214285Y-60454819D02*
X204785714Y-61454819D01*
X201073866Y-73261904D02*
X201026247Y-73214285D01*
X201026247Y-73214285D02*
X200978628Y-73119047D01*
X200978628Y-73119047D02*
X201073866Y-72928571D01*
X201073866Y-72928571D02*
X201026247Y-72833333D01*
X201026247Y-72833333D02*
X200978628Y-72785714D01*
X202954819Y-77261904D02*
X201954819Y-77261904D01*
X201954819Y-77261904D02*
X202669104Y-76928571D01*
X202669104Y-76928571D02*
X201954819Y-76595238D01*
X201954819Y-76595238D02*
X202954819Y-76595238D01*
X201954819Y-76214285D02*
X201954819Y-75547619D01*
X201954819Y-75547619D02*
X202954819Y-75976190D01*
X202383390Y-75023809D02*
X202335771Y-75119047D01*
X202335771Y-75119047D02*
X202288152Y-75166666D01*
X202288152Y-75166666D02*
X202192914Y-75214285D01*
X202192914Y-75214285D02*
X202145295Y-75214285D01*
X202145295Y-75214285D02*
X202050057Y-75166666D01*
X202050057Y-75166666D02*
X202002438Y-75119047D01*
X202002438Y-75119047D02*
X201954819Y-75023809D01*
X201954819Y-75023809D02*
X201954819Y-74833333D01*
X201954819Y-74833333D02*
X202002438Y-74738095D01*
X202002438Y-74738095D02*
X202050057Y-74690476D01*
X202050057Y-74690476D02*
X202145295Y-74642857D01*
X202145295Y-74642857D02*
X202192914Y-74642857D01*
X202192914Y-74642857D02*
X202288152Y-74690476D01*
X202288152Y-74690476D02*
X202335771Y-74738095D01*
X202335771Y-74738095D02*
X202383390Y-74833333D01*
X202383390Y-74833333D02*
X202383390Y-75023809D01*
X202383390Y-75023809D02*
X202431009Y-75119047D01*
X202431009Y-75119047D02*
X202478628Y-75166666D01*
X202478628Y-75166666D02*
X202573866Y-75214285D01*
X202573866Y-75214285D02*
X202764342Y-75214285D01*
X202764342Y-75214285D02*
X202859580Y-75166666D01*
X202859580Y-75166666D02*
X202907200Y-75119047D01*
X202907200Y-75119047D02*
X202954819Y-75023809D01*
X202954819Y-75023809D02*
X202954819Y-74833333D01*
X202954819Y-74833333D02*
X202907200Y-74738095D01*
X202907200Y-74738095D02*
X202859580Y-74690476D01*
X202859580Y-74690476D02*
X202764342Y-74642857D01*
X202764342Y-74642857D02*
X202573866Y-74642857D01*
X202573866Y-74642857D02*
X202478628Y-74690476D01*
X202478628Y-74690476D02*
X202431009Y-74738095D01*
X202431009Y-74738095D02*
X202383390Y-74833333D01*
X202669104Y-74261904D02*
X202669104Y-73785714D01*
X202954819Y-74357142D02*
X201954819Y-74023809D01*
X201954819Y-74023809D02*
X202954819Y-73690476D01*
X202954819Y-72785714D02*
X202478628Y-73119047D01*
X202954819Y-73357142D02*
X201954819Y-73357142D01*
X201954819Y-73357142D02*
X201954819Y-72976190D01*
X201954819Y-72976190D02*
X202002438Y-72880952D01*
X202002438Y-72880952D02*
X202050057Y-72833333D01*
X202050057Y-72833333D02*
X202145295Y-72785714D01*
X202145295Y-72785714D02*
X202288152Y-72785714D01*
X202288152Y-72785714D02*
X202383390Y-72833333D01*
X202383390Y-72833333D02*
X202431009Y-72880952D01*
X202431009Y-72880952D02*
X202478628Y-72976190D01*
X202478628Y-72976190D02*
X202478628Y-73357142D01*
X201954819Y-72166666D02*
X201954819Y-72071428D01*
X201954819Y-72071428D02*
X202002438Y-71976190D01*
X202002438Y-71976190D02*
X202050057Y-71928571D01*
X202050057Y-71928571D02*
X202145295Y-71880952D01*
X202145295Y-71880952D02*
X202335771Y-71833333D01*
X202335771Y-71833333D02*
X202573866Y-71833333D01*
X202573866Y-71833333D02*
X202764342Y-71880952D01*
X202764342Y-71880952D02*
X202859580Y-71928571D01*
X202859580Y-71928571D02*
X202907200Y-71976190D01*
X202907200Y-71976190D02*
X202954819Y-72071428D01*
X202954819Y-72071428D02*
X202954819Y-72166666D01*
X202954819Y-72166666D02*
X202907200Y-72261904D01*
X202907200Y-72261904D02*
X202859580Y-72309523D01*
X202859580Y-72309523D02*
X202764342Y-72357142D01*
X202764342Y-72357142D02*
X202573866Y-72404761D01*
X202573866Y-72404761D02*
X202335771Y-72404761D01*
X202335771Y-72404761D02*
X202145295Y-72357142D01*
X202145295Y-72357142D02*
X202050057Y-72309523D01*
X202050057Y-72309523D02*
X202002438Y-72261904D01*
X202002438Y-72261904D02*
X201954819Y-72166666D01*
X201954819Y-70928571D02*
X201954819Y-71404761D01*
X201954819Y-71404761D02*
X202431009Y-71452380D01*
X202431009Y-71452380D02*
X202383390Y-71404761D01*
X202383390Y-71404761D02*
X202335771Y-71309523D01*
X202335771Y-71309523D02*
X202335771Y-71071428D01*
X202335771Y-71071428D02*
X202383390Y-70976190D01*
X202383390Y-70976190D02*
X202431009Y-70928571D01*
X202431009Y-70928571D02*
X202526247Y-70880952D01*
X202526247Y-70880952D02*
X202764342Y-70880952D01*
X202764342Y-70880952D02*
X202859580Y-70928571D01*
X202859580Y-70928571D02*
X202907200Y-70976190D01*
X202907200Y-70976190D02*
X202954819Y-71071428D01*
X202954819Y-71071428D02*
X202954819Y-71309523D01*
X202954819Y-71309523D02*
X202907200Y-71404761D01*
X202907200Y-71404761D02*
X202859580Y-71452380D01*
X202573866Y-70452380D02*
X202573866Y-69690476D01*
X202954819Y-68690476D02*
X202954819Y-69261904D01*
X202954819Y-68976190D02*
X201954819Y-68976190D01*
X201954819Y-68976190D02*
X202097676Y-69071428D01*
X202097676Y-69071428D02*
X202192914Y-69166666D01*
X202192914Y-69166666D02*
X202240533Y-69261904D01*
X204708095Y-80563866D02*
X204755714Y-80516247D01*
X204755714Y-80516247D02*
X204850952Y-80468628D01*
X204850952Y-80468628D02*
X205041428Y-80563866D01*
X205041428Y-80563866D02*
X205136666Y-80516247D01*
X205136666Y-80516247D02*
X205184285Y-80468628D01*
X204208095Y-81444819D02*
X204208095Y-82254342D01*
X204208095Y-82254342D02*
X204255714Y-82349580D01*
X204255714Y-82349580D02*
X204303333Y-82397200D01*
X204303333Y-82397200D02*
X204398571Y-82444819D01*
X204398571Y-82444819D02*
X204589047Y-82444819D01*
X204589047Y-82444819D02*
X204684285Y-82397200D01*
X204684285Y-82397200D02*
X204731904Y-82349580D01*
X204731904Y-82349580D02*
X204779523Y-82254342D01*
X204779523Y-82254342D02*
X204779523Y-81444819D01*
X205208095Y-81540057D02*
X205255714Y-81492438D01*
X205255714Y-81492438D02*
X205350952Y-81444819D01*
X205350952Y-81444819D02*
X205589047Y-81444819D01*
X205589047Y-81444819D02*
X205684285Y-81492438D01*
X205684285Y-81492438D02*
X205731904Y-81540057D01*
X205731904Y-81540057D02*
X205779523Y-81635295D01*
X205779523Y-81635295D02*
X205779523Y-81730533D01*
X205779523Y-81730533D02*
X205731904Y-81873390D01*
X205731904Y-81873390D02*
X205160476Y-82444819D01*
X205160476Y-82444819D02*
X205779523Y-82444819D01*
X182659580Y-77214286D02*
X182707200Y-77261905D01*
X182707200Y-77261905D02*
X182754819Y-77404762D01*
X182754819Y-77404762D02*
X182754819Y-77500000D01*
X182754819Y-77500000D02*
X182707200Y-77642857D01*
X182707200Y-77642857D02*
X182611961Y-77738095D01*
X182611961Y-77738095D02*
X182516723Y-77785714D01*
X182516723Y-77785714D02*
X182326247Y-77833333D01*
X182326247Y-77833333D02*
X182183390Y-77833333D01*
X182183390Y-77833333D02*
X181992914Y-77785714D01*
X181992914Y-77785714D02*
X181897676Y-77738095D01*
X181897676Y-77738095D02*
X181802438Y-77642857D01*
X181802438Y-77642857D02*
X181754819Y-77500000D01*
X181754819Y-77500000D02*
X181754819Y-77404762D01*
X181754819Y-77404762D02*
X181802438Y-77261905D01*
X181802438Y-77261905D02*
X181850057Y-77214286D01*
X182754819Y-76642857D02*
X182707200Y-76738095D01*
X182707200Y-76738095D02*
X182659580Y-76785714D01*
X182659580Y-76785714D02*
X182564342Y-76833333D01*
X182564342Y-76833333D02*
X182278628Y-76833333D01*
X182278628Y-76833333D02*
X182183390Y-76785714D01*
X182183390Y-76785714D02*
X182135771Y-76738095D01*
X182135771Y-76738095D02*
X182088152Y-76642857D01*
X182088152Y-76642857D02*
X182088152Y-76500000D01*
X182088152Y-76500000D02*
X182135771Y-76404762D01*
X182135771Y-76404762D02*
X182183390Y-76357143D01*
X182183390Y-76357143D02*
X182278628Y-76309524D01*
X182278628Y-76309524D02*
X182564342Y-76309524D01*
X182564342Y-76309524D02*
X182659580Y-76357143D01*
X182659580Y-76357143D02*
X182707200Y-76404762D01*
X182707200Y-76404762D02*
X182754819Y-76500000D01*
X182754819Y-76500000D02*
X182754819Y-76642857D01*
X182088152Y-75880952D02*
X182754819Y-75880952D01*
X182183390Y-75880952D02*
X182135771Y-75833333D01*
X182135771Y-75833333D02*
X182088152Y-75738095D01*
X182088152Y-75738095D02*
X182088152Y-75595238D01*
X182088152Y-75595238D02*
X182135771Y-75500000D01*
X182135771Y-75500000D02*
X182231009Y-75452381D01*
X182231009Y-75452381D02*
X182754819Y-75452381D01*
X182088152Y-74976190D02*
X182754819Y-74976190D01*
X182183390Y-74976190D02*
X182135771Y-74928571D01*
X182135771Y-74928571D02*
X182088152Y-74833333D01*
X182088152Y-74833333D02*
X182088152Y-74690476D01*
X182088152Y-74690476D02*
X182135771Y-74595238D01*
X182135771Y-74595238D02*
X182231009Y-74547619D01*
X182231009Y-74547619D02*
X182754819Y-74547619D01*
X182850057Y-74309524D02*
X182850057Y-73547619D01*
X181754819Y-73452380D02*
X182754819Y-73119047D01*
X182754819Y-73119047D02*
X181754819Y-72785714D01*
X182754819Y-71976190D02*
X182754819Y-72452380D01*
X182754819Y-72452380D02*
X181754819Y-72452380D01*
X182754819Y-71642856D02*
X181754819Y-71642856D01*
X181754819Y-71642856D02*
X181754819Y-71261904D01*
X181754819Y-71261904D02*
X181802438Y-71166666D01*
X181802438Y-71166666D02*
X181850057Y-71119047D01*
X181850057Y-71119047D02*
X181945295Y-71071428D01*
X181945295Y-71071428D02*
X182088152Y-71071428D01*
X182088152Y-71071428D02*
X182183390Y-71119047D01*
X182183390Y-71119047D02*
X182231009Y-71166666D01*
X182231009Y-71166666D02*
X182278628Y-71261904D01*
X182278628Y-71261904D02*
X182278628Y-71642856D01*
X182754819Y-70119047D02*
X182754819Y-70690475D01*
X182754819Y-70404761D02*
X181754819Y-70404761D01*
X181754819Y-70404761D02*
X181897676Y-70499999D01*
X181897676Y-70499999D02*
X181992914Y-70595237D01*
X181992914Y-70595237D02*
X182040533Y-70690475D01*
X181754819Y-69261904D02*
X181754819Y-69452380D01*
X181754819Y-69452380D02*
X181802438Y-69547618D01*
X181802438Y-69547618D02*
X181850057Y-69595237D01*
X181850057Y-69595237D02*
X181992914Y-69690475D01*
X181992914Y-69690475D02*
X182183390Y-69738094D01*
X182183390Y-69738094D02*
X182564342Y-69738094D01*
X182564342Y-69738094D02*
X182659580Y-69690475D01*
X182659580Y-69690475D02*
X182707200Y-69642856D01*
X182707200Y-69642856D02*
X182754819Y-69547618D01*
X182754819Y-69547618D02*
X182754819Y-69357142D01*
X182754819Y-69357142D02*
X182707200Y-69261904D01*
X182707200Y-69261904D02*
X182659580Y-69214285D01*
X182659580Y-69214285D02*
X182564342Y-69166666D01*
X182564342Y-69166666D02*
X182326247Y-69166666D01*
X182326247Y-69166666D02*
X182231009Y-69214285D01*
X182231009Y-69214285D02*
X182183390Y-69261904D01*
X182183390Y-69261904D02*
X182135771Y-69357142D01*
X182135771Y-69357142D02*
X182135771Y-69547618D01*
X182135771Y-69547618D02*
X182183390Y-69642856D01*
X182183390Y-69642856D02*
X182231009Y-69690475D01*
X182231009Y-69690475D02*
X182326247Y-69738094D01*
X175254819Y-73833333D02*
X175969104Y-73833333D01*
X175969104Y-73833333D02*
X176111961Y-73880952D01*
X176111961Y-73880952D02*
X176207200Y-73976190D01*
X176207200Y-73976190D02*
X176254819Y-74119047D01*
X176254819Y-74119047D02*
X176254819Y-74214285D01*
X175254819Y-72880952D02*
X175254819Y-73357142D01*
X175254819Y-73357142D02*
X175731009Y-73404761D01*
X175731009Y-73404761D02*
X175683390Y-73357142D01*
X175683390Y-73357142D02*
X175635771Y-73261904D01*
X175635771Y-73261904D02*
X175635771Y-73023809D01*
X175635771Y-73023809D02*
X175683390Y-72928571D01*
X175683390Y-72928571D02*
X175731009Y-72880952D01*
X175731009Y-72880952D02*
X175826247Y-72833333D01*
X175826247Y-72833333D02*
X176064342Y-72833333D01*
X176064342Y-72833333D02*
X176159580Y-72880952D01*
X176159580Y-72880952D02*
X176207200Y-72928571D01*
X176207200Y-72928571D02*
X176254819Y-73023809D01*
X176254819Y-73023809D02*
X176254819Y-73261904D01*
X176254819Y-73261904D02*
X176207200Y-73357142D01*
X176207200Y-73357142D02*
X176159580Y-73404761D01*
X170214285Y-89654819D02*
X170214285Y-88654819D01*
X170214285Y-88654819D02*
X170547618Y-89369104D01*
X170547618Y-89369104D02*
X170880951Y-88654819D01*
X170880951Y-88654819D02*
X170880951Y-89654819D01*
X171499999Y-89654819D02*
X171404761Y-89607200D01*
X171404761Y-89607200D02*
X171357142Y-89559580D01*
X171357142Y-89559580D02*
X171309523Y-89464342D01*
X171309523Y-89464342D02*
X171309523Y-89178628D01*
X171309523Y-89178628D02*
X171357142Y-89083390D01*
X171357142Y-89083390D02*
X171404761Y-89035771D01*
X171404761Y-89035771D02*
X171499999Y-88988152D01*
X171499999Y-88988152D02*
X171642856Y-88988152D01*
X171642856Y-88988152D02*
X171738094Y-89035771D01*
X171738094Y-89035771D02*
X171785713Y-89083390D01*
X171785713Y-89083390D02*
X171833332Y-89178628D01*
X171833332Y-89178628D02*
X171833332Y-89464342D01*
X171833332Y-89464342D02*
X171785713Y-89559580D01*
X171785713Y-89559580D02*
X171738094Y-89607200D01*
X171738094Y-89607200D02*
X171642856Y-89654819D01*
X171642856Y-89654819D02*
X171499999Y-89654819D01*
X172690475Y-88988152D02*
X172690475Y-89654819D01*
X172261904Y-88988152D02*
X172261904Y-89511961D01*
X172261904Y-89511961D02*
X172309523Y-89607200D01*
X172309523Y-89607200D02*
X172404761Y-89654819D01*
X172404761Y-89654819D02*
X172547618Y-89654819D01*
X172547618Y-89654819D02*
X172642856Y-89607200D01*
X172642856Y-89607200D02*
X172690475Y-89559580D01*
X173166666Y-88988152D02*
X173166666Y-89654819D01*
X173166666Y-89083390D02*
X173214285Y-89035771D01*
X173214285Y-89035771D02*
X173309523Y-88988152D01*
X173309523Y-88988152D02*
X173452380Y-88988152D01*
X173452380Y-88988152D02*
X173547618Y-89035771D01*
X173547618Y-89035771D02*
X173595237Y-89131009D01*
X173595237Y-89131009D02*
X173595237Y-89654819D01*
X173928571Y-88988152D02*
X174309523Y-88988152D01*
X174071428Y-88654819D02*
X174071428Y-89511961D01*
X174071428Y-89511961D02*
X174119047Y-89607200D01*
X174119047Y-89607200D02*
X174214285Y-89654819D01*
X174214285Y-89654819D02*
X174309523Y-89654819D01*
X174642857Y-89654819D02*
X174642857Y-88988152D01*
X174642857Y-88654819D02*
X174595238Y-88702438D01*
X174595238Y-88702438D02*
X174642857Y-88750057D01*
X174642857Y-88750057D02*
X174690476Y-88702438D01*
X174690476Y-88702438D02*
X174642857Y-88654819D01*
X174642857Y-88654819D02*
X174642857Y-88750057D01*
X175119047Y-88988152D02*
X175119047Y-89654819D01*
X175119047Y-89083390D02*
X175166666Y-89035771D01*
X175166666Y-89035771D02*
X175261904Y-88988152D01*
X175261904Y-88988152D02*
X175404761Y-88988152D01*
X175404761Y-88988152D02*
X175499999Y-89035771D01*
X175499999Y-89035771D02*
X175547618Y-89131009D01*
X175547618Y-89131009D02*
X175547618Y-89654819D01*
X176452380Y-88988152D02*
X176452380Y-89797676D01*
X176452380Y-89797676D02*
X176404761Y-89892914D01*
X176404761Y-89892914D02*
X176357142Y-89940533D01*
X176357142Y-89940533D02*
X176261904Y-89988152D01*
X176261904Y-89988152D02*
X176119047Y-89988152D01*
X176119047Y-89988152D02*
X176023809Y-89940533D01*
X176452380Y-89607200D02*
X176357142Y-89654819D01*
X176357142Y-89654819D02*
X176166666Y-89654819D01*
X176166666Y-89654819D02*
X176071428Y-89607200D01*
X176071428Y-89607200D02*
X176023809Y-89559580D01*
X176023809Y-89559580D02*
X175976190Y-89464342D01*
X175976190Y-89464342D02*
X175976190Y-89178628D01*
X175976190Y-89178628D02*
X176023809Y-89083390D01*
X176023809Y-89083390D02*
X176071428Y-89035771D01*
X176071428Y-89035771D02*
X176166666Y-88988152D01*
X176166666Y-88988152D02*
X176357142Y-88988152D01*
X176357142Y-88988152D02*
X176452380Y-89035771D01*
X176928571Y-89654819D02*
X176928571Y-88654819D01*
X176928571Y-89131009D02*
X177499999Y-89131009D01*
X177499999Y-89654819D02*
X177499999Y-88654819D01*
X178119047Y-89654819D02*
X178023809Y-89607200D01*
X178023809Y-89607200D02*
X177976190Y-89559580D01*
X177976190Y-89559580D02*
X177928571Y-89464342D01*
X177928571Y-89464342D02*
X177928571Y-89178628D01*
X177928571Y-89178628D02*
X177976190Y-89083390D01*
X177976190Y-89083390D02*
X178023809Y-89035771D01*
X178023809Y-89035771D02*
X178119047Y-88988152D01*
X178119047Y-88988152D02*
X178261904Y-88988152D01*
X178261904Y-88988152D02*
X178357142Y-89035771D01*
X178357142Y-89035771D02*
X178404761Y-89083390D01*
X178404761Y-89083390D02*
X178452380Y-89178628D01*
X178452380Y-89178628D02*
X178452380Y-89464342D01*
X178452380Y-89464342D02*
X178404761Y-89559580D01*
X178404761Y-89559580D02*
X178357142Y-89607200D01*
X178357142Y-89607200D02*
X178261904Y-89654819D01*
X178261904Y-89654819D02*
X178119047Y-89654819D01*
X179023809Y-89654819D02*
X178928571Y-89607200D01*
X178928571Y-89607200D02*
X178880952Y-89511961D01*
X178880952Y-89511961D02*
X178880952Y-88654819D01*
X179785714Y-89607200D02*
X179690476Y-89654819D01*
X179690476Y-89654819D02*
X179500000Y-89654819D01*
X179500000Y-89654819D02*
X179404762Y-89607200D01*
X179404762Y-89607200D02*
X179357143Y-89511961D01*
X179357143Y-89511961D02*
X179357143Y-89131009D01*
X179357143Y-89131009D02*
X179404762Y-89035771D01*
X179404762Y-89035771D02*
X179500000Y-88988152D01*
X179500000Y-88988152D02*
X179690476Y-88988152D01*
X179690476Y-88988152D02*
X179785714Y-89035771D01*
X179785714Y-89035771D02*
X179833333Y-89131009D01*
X179833333Y-89131009D02*
X179833333Y-89226247D01*
X179833333Y-89226247D02*
X179357143Y-89321485D01*
X174238095Y-85454819D02*
X174238095Y-84454819D01*
X174238095Y-84931009D02*
X174809523Y-84931009D01*
X174809523Y-85454819D02*
X174809523Y-84454819D01*
X175190476Y-84454819D02*
X175809523Y-84454819D01*
X175809523Y-84454819D02*
X175476190Y-84835771D01*
X175476190Y-84835771D02*
X175619047Y-84835771D01*
X175619047Y-84835771D02*
X175714285Y-84883390D01*
X175714285Y-84883390D02*
X175761904Y-84931009D01*
X175761904Y-84931009D02*
X175809523Y-85026247D01*
X175809523Y-85026247D02*
X175809523Y-85264342D01*
X175809523Y-85264342D02*
X175761904Y-85359580D01*
X175761904Y-85359580D02*
X175714285Y-85407200D01*
X175714285Y-85407200D02*
X175619047Y-85454819D01*
X175619047Y-85454819D02*
X175333333Y-85454819D01*
X175333333Y-85454819D02*
X175238095Y-85407200D01*
X175238095Y-85407200D02*
X175190476Y-85359580D01*
X212714285Y-67859580D02*
X212666666Y-67907200D01*
X212666666Y-67907200D02*
X212523809Y-67954819D01*
X212523809Y-67954819D02*
X212428571Y-67954819D01*
X212428571Y-67954819D02*
X212285714Y-67907200D01*
X212285714Y-67907200D02*
X212190476Y-67811961D01*
X212190476Y-67811961D02*
X212142857Y-67716723D01*
X212142857Y-67716723D02*
X212095238Y-67526247D01*
X212095238Y-67526247D02*
X212095238Y-67383390D01*
X212095238Y-67383390D02*
X212142857Y-67192914D01*
X212142857Y-67192914D02*
X212190476Y-67097676D01*
X212190476Y-67097676D02*
X212285714Y-67002438D01*
X212285714Y-67002438D02*
X212428571Y-66954819D01*
X212428571Y-66954819D02*
X212523809Y-66954819D01*
X212523809Y-66954819D02*
X212666666Y-67002438D01*
X212666666Y-67002438D02*
X212714285Y-67050057D01*
X213285714Y-67954819D02*
X213190476Y-67907200D01*
X213190476Y-67907200D02*
X213142857Y-67859580D01*
X213142857Y-67859580D02*
X213095238Y-67764342D01*
X213095238Y-67764342D02*
X213095238Y-67478628D01*
X213095238Y-67478628D02*
X213142857Y-67383390D01*
X213142857Y-67383390D02*
X213190476Y-67335771D01*
X213190476Y-67335771D02*
X213285714Y-67288152D01*
X213285714Y-67288152D02*
X213428571Y-67288152D01*
X213428571Y-67288152D02*
X213523809Y-67335771D01*
X213523809Y-67335771D02*
X213571428Y-67383390D01*
X213571428Y-67383390D02*
X213619047Y-67478628D01*
X213619047Y-67478628D02*
X213619047Y-67764342D01*
X213619047Y-67764342D02*
X213571428Y-67859580D01*
X213571428Y-67859580D02*
X213523809Y-67907200D01*
X213523809Y-67907200D02*
X213428571Y-67954819D01*
X213428571Y-67954819D02*
X213285714Y-67954819D01*
X214047619Y-67288152D02*
X214047619Y-67954819D01*
X214047619Y-67383390D02*
X214095238Y-67335771D01*
X214095238Y-67335771D02*
X214190476Y-67288152D01*
X214190476Y-67288152D02*
X214333333Y-67288152D01*
X214333333Y-67288152D02*
X214428571Y-67335771D01*
X214428571Y-67335771D02*
X214476190Y-67431009D01*
X214476190Y-67431009D02*
X214476190Y-67954819D01*
X214952381Y-67288152D02*
X214952381Y-67954819D01*
X214952381Y-67383390D02*
X215000000Y-67335771D01*
X215000000Y-67335771D02*
X215095238Y-67288152D01*
X215095238Y-67288152D02*
X215238095Y-67288152D01*
X215238095Y-67288152D02*
X215333333Y-67335771D01*
X215333333Y-67335771D02*
X215380952Y-67431009D01*
X215380952Y-67431009D02*
X215380952Y-67954819D01*
X215619048Y-68050057D02*
X216380952Y-68050057D01*
X216571429Y-67907200D02*
X216714286Y-67954819D01*
X216714286Y-67954819D02*
X216952381Y-67954819D01*
X216952381Y-67954819D02*
X217047619Y-67907200D01*
X217047619Y-67907200D02*
X217095238Y-67859580D01*
X217095238Y-67859580D02*
X217142857Y-67764342D01*
X217142857Y-67764342D02*
X217142857Y-67669104D01*
X217142857Y-67669104D02*
X217095238Y-67573866D01*
X217095238Y-67573866D02*
X217047619Y-67526247D01*
X217047619Y-67526247D02*
X216952381Y-67478628D01*
X216952381Y-67478628D02*
X216761905Y-67431009D01*
X216761905Y-67431009D02*
X216666667Y-67383390D01*
X216666667Y-67383390D02*
X216619048Y-67335771D01*
X216619048Y-67335771D02*
X216571429Y-67240533D01*
X216571429Y-67240533D02*
X216571429Y-67145295D01*
X216571429Y-67145295D02*
X216619048Y-67050057D01*
X216619048Y-67050057D02*
X216666667Y-67002438D01*
X216666667Y-67002438D02*
X216761905Y-66954819D01*
X216761905Y-66954819D02*
X217000000Y-66954819D01*
X217000000Y-66954819D02*
X217142857Y-67002438D01*
X217476191Y-67288152D02*
X217666667Y-67954819D01*
X217666667Y-67954819D02*
X217857143Y-67478628D01*
X217857143Y-67478628D02*
X218047619Y-67954819D01*
X218047619Y-67954819D02*
X218238095Y-67288152D01*
X218619048Y-67954819D02*
X218619048Y-67288152D01*
X218619048Y-66954819D02*
X218571429Y-67002438D01*
X218571429Y-67002438D02*
X218619048Y-67050057D01*
X218619048Y-67050057D02*
X218666667Y-67002438D01*
X218666667Y-67002438D02*
X218619048Y-66954819D01*
X218619048Y-66954819D02*
X218619048Y-67050057D01*
X218952381Y-67288152D02*
X219333333Y-67288152D01*
X219095238Y-66954819D02*
X219095238Y-67811961D01*
X219095238Y-67811961D02*
X219142857Y-67907200D01*
X219142857Y-67907200D02*
X219238095Y-67954819D01*
X219238095Y-67954819D02*
X219333333Y-67954819D01*
X220095238Y-67907200D02*
X220000000Y-67954819D01*
X220000000Y-67954819D02*
X219809524Y-67954819D01*
X219809524Y-67954819D02*
X219714286Y-67907200D01*
X219714286Y-67907200D02*
X219666667Y-67859580D01*
X219666667Y-67859580D02*
X219619048Y-67764342D01*
X219619048Y-67764342D02*
X219619048Y-67478628D01*
X219619048Y-67478628D02*
X219666667Y-67383390D01*
X219666667Y-67383390D02*
X219714286Y-67335771D01*
X219714286Y-67335771D02*
X219809524Y-67288152D01*
X219809524Y-67288152D02*
X220000000Y-67288152D01*
X220000000Y-67288152D02*
X220095238Y-67335771D01*
X220523810Y-67954819D02*
X220523810Y-66954819D01*
X220952381Y-67954819D02*
X220952381Y-67431009D01*
X220952381Y-67431009D02*
X220904762Y-67335771D01*
X220904762Y-67335771D02*
X220809524Y-67288152D01*
X220809524Y-67288152D02*
X220666667Y-67288152D01*
X220666667Y-67288152D02*
X220571429Y-67335771D01*
X220571429Y-67335771D02*
X220523810Y-67383390D01*
X221428572Y-67954819D02*
X221428572Y-67288152D01*
X221428572Y-66954819D02*
X221380953Y-67002438D01*
X221380953Y-67002438D02*
X221428572Y-67050057D01*
X221428572Y-67050057D02*
X221476191Y-67002438D01*
X221476191Y-67002438D02*
X221428572Y-66954819D01*
X221428572Y-66954819D02*
X221428572Y-67050057D01*
X221904762Y-67288152D02*
X221904762Y-67954819D01*
X221904762Y-67383390D02*
X221952381Y-67335771D01*
X221952381Y-67335771D02*
X222047619Y-67288152D01*
X222047619Y-67288152D02*
X222190476Y-67288152D01*
X222190476Y-67288152D02*
X222285714Y-67335771D01*
X222285714Y-67335771D02*
X222333333Y-67431009D01*
X222333333Y-67431009D02*
X222333333Y-67954819D01*
X223238095Y-67288152D02*
X223238095Y-68097676D01*
X223238095Y-68097676D02*
X223190476Y-68192914D01*
X223190476Y-68192914D02*
X223142857Y-68240533D01*
X223142857Y-68240533D02*
X223047619Y-68288152D01*
X223047619Y-68288152D02*
X222904762Y-68288152D01*
X222904762Y-68288152D02*
X222809524Y-68240533D01*
X223238095Y-67907200D02*
X223142857Y-67954819D01*
X223142857Y-67954819D02*
X222952381Y-67954819D01*
X222952381Y-67954819D02*
X222857143Y-67907200D01*
X222857143Y-67907200D02*
X222809524Y-67859580D01*
X222809524Y-67859580D02*
X222761905Y-67764342D01*
X222761905Y-67764342D02*
X222761905Y-67478628D01*
X222761905Y-67478628D02*
X222809524Y-67383390D01*
X222809524Y-67383390D02*
X222857143Y-67335771D01*
X222857143Y-67335771D02*
X222952381Y-67288152D01*
X222952381Y-67288152D02*
X223142857Y-67288152D01*
X223142857Y-67288152D02*
X223238095Y-67335771D01*
X223476191Y-68050057D02*
X224238095Y-68050057D01*
X224476191Y-67954819D02*
X224476191Y-66954819D01*
X224476191Y-67431009D02*
X225047619Y-67431009D01*
X225047619Y-67954819D02*
X225047619Y-66954819D01*
X225952381Y-67288152D02*
X225952381Y-67954819D01*
X225523810Y-67288152D02*
X225523810Y-67811961D01*
X225523810Y-67811961D02*
X225571429Y-67907200D01*
X225571429Y-67907200D02*
X225666667Y-67954819D01*
X225666667Y-67954819D02*
X225809524Y-67954819D01*
X225809524Y-67954819D02*
X225904762Y-67907200D01*
X225904762Y-67907200D02*
X225952381Y-67859580D01*
X226428572Y-67954819D02*
X226428572Y-66954819D01*
X226428572Y-67335771D02*
X226523810Y-67288152D01*
X226523810Y-67288152D02*
X226714286Y-67288152D01*
X226714286Y-67288152D02*
X226809524Y-67335771D01*
X226809524Y-67335771D02*
X226857143Y-67383390D01*
X226857143Y-67383390D02*
X226904762Y-67478628D01*
X226904762Y-67478628D02*
X226904762Y-67764342D01*
X226904762Y-67764342D02*
X226857143Y-67859580D01*
X226857143Y-67859580D02*
X226809524Y-67907200D01*
X226809524Y-67907200D02*
X226714286Y-67954819D01*
X226714286Y-67954819D02*
X226523810Y-67954819D01*
X226523810Y-67954819D02*
X226428572Y-67907200D01*
X219166666Y-60454819D02*
X219166666Y-61169104D01*
X219166666Y-61169104D02*
X219119047Y-61311961D01*
X219119047Y-61311961D02*
X219023809Y-61407200D01*
X219023809Y-61407200D02*
X218880952Y-61454819D01*
X218880952Y-61454819D02*
X218785714Y-61454819D01*
X220166666Y-61454819D02*
X219595238Y-61454819D01*
X219880952Y-61454819D02*
X219880952Y-60454819D01*
X219880952Y-60454819D02*
X219785714Y-60597676D01*
X219785714Y-60597676D02*
X219690476Y-60692914D01*
X219690476Y-60692914D02*
X219595238Y-60740533D01*
X222708095Y-80563866D02*
X222755714Y-80516247D01*
X222755714Y-80516247D02*
X222850952Y-80468628D01*
X222850952Y-80468628D02*
X223041428Y-80563866D01*
X223041428Y-80563866D02*
X223136666Y-80516247D01*
X223136666Y-80516247D02*
X223184285Y-80468628D01*
X222208095Y-81444819D02*
X222208095Y-82254342D01*
X222208095Y-82254342D02*
X222255714Y-82349580D01*
X222255714Y-82349580D02*
X222303333Y-82397200D01*
X222303333Y-82397200D02*
X222398571Y-82444819D01*
X222398571Y-82444819D02*
X222589047Y-82444819D01*
X222589047Y-82444819D02*
X222684285Y-82397200D01*
X222684285Y-82397200D02*
X222731904Y-82349580D01*
X222731904Y-82349580D02*
X222779523Y-82254342D01*
X222779523Y-82254342D02*
X222779523Y-81444819D01*
X223779523Y-82444819D02*
X223208095Y-82444819D01*
X223493809Y-82444819D02*
X223493809Y-81444819D01*
X223493809Y-81444819D02*
X223398571Y-81587676D01*
X223398571Y-81587676D02*
X223303333Y-81682914D01*
X223303333Y-81682914D02*
X223208095Y-81730533D01*
X230214285Y-89654819D02*
X230214285Y-88654819D01*
X230214285Y-88654819D02*
X230547618Y-89369104D01*
X230547618Y-89369104D02*
X230880951Y-88654819D01*
X230880951Y-88654819D02*
X230880951Y-89654819D01*
X231499999Y-89654819D02*
X231404761Y-89607200D01*
X231404761Y-89607200D02*
X231357142Y-89559580D01*
X231357142Y-89559580D02*
X231309523Y-89464342D01*
X231309523Y-89464342D02*
X231309523Y-89178628D01*
X231309523Y-89178628D02*
X231357142Y-89083390D01*
X231357142Y-89083390D02*
X231404761Y-89035771D01*
X231404761Y-89035771D02*
X231499999Y-88988152D01*
X231499999Y-88988152D02*
X231642856Y-88988152D01*
X231642856Y-88988152D02*
X231738094Y-89035771D01*
X231738094Y-89035771D02*
X231785713Y-89083390D01*
X231785713Y-89083390D02*
X231833332Y-89178628D01*
X231833332Y-89178628D02*
X231833332Y-89464342D01*
X231833332Y-89464342D02*
X231785713Y-89559580D01*
X231785713Y-89559580D02*
X231738094Y-89607200D01*
X231738094Y-89607200D02*
X231642856Y-89654819D01*
X231642856Y-89654819D02*
X231499999Y-89654819D01*
X232690475Y-88988152D02*
X232690475Y-89654819D01*
X232261904Y-88988152D02*
X232261904Y-89511961D01*
X232261904Y-89511961D02*
X232309523Y-89607200D01*
X232309523Y-89607200D02*
X232404761Y-89654819D01*
X232404761Y-89654819D02*
X232547618Y-89654819D01*
X232547618Y-89654819D02*
X232642856Y-89607200D01*
X232642856Y-89607200D02*
X232690475Y-89559580D01*
X233166666Y-88988152D02*
X233166666Y-89654819D01*
X233166666Y-89083390D02*
X233214285Y-89035771D01*
X233214285Y-89035771D02*
X233309523Y-88988152D01*
X233309523Y-88988152D02*
X233452380Y-88988152D01*
X233452380Y-88988152D02*
X233547618Y-89035771D01*
X233547618Y-89035771D02*
X233595237Y-89131009D01*
X233595237Y-89131009D02*
X233595237Y-89654819D01*
X233928571Y-88988152D02*
X234309523Y-88988152D01*
X234071428Y-88654819D02*
X234071428Y-89511961D01*
X234071428Y-89511961D02*
X234119047Y-89607200D01*
X234119047Y-89607200D02*
X234214285Y-89654819D01*
X234214285Y-89654819D02*
X234309523Y-89654819D01*
X234642857Y-89654819D02*
X234642857Y-88988152D01*
X234642857Y-88654819D02*
X234595238Y-88702438D01*
X234595238Y-88702438D02*
X234642857Y-88750057D01*
X234642857Y-88750057D02*
X234690476Y-88702438D01*
X234690476Y-88702438D02*
X234642857Y-88654819D01*
X234642857Y-88654819D02*
X234642857Y-88750057D01*
X235119047Y-88988152D02*
X235119047Y-89654819D01*
X235119047Y-89083390D02*
X235166666Y-89035771D01*
X235166666Y-89035771D02*
X235261904Y-88988152D01*
X235261904Y-88988152D02*
X235404761Y-88988152D01*
X235404761Y-88988152D02*
X235499999Y-89035771D01*
X235499999Y-89035771D02*
X235547618Y-89131009D01*
X235547618Y-89131009D02*
X235547618Y-89654819D01*
X236452380Y-88988152D02*
X236452380Y-89797676D01*
X236452380Y-89797676D02*
X236404761Y-89892914D01*
X236404761Y-89892914D02*
X236357142Y-89940533D01*
X236357142Y-89940533D02*
X236261904Y-89988152D01*
X236261904Y-89988152D02*
X236119047Y-89988152D01*
X236119047Y-89988152D02*
X236023809Y-89940533D01*
X236452380Y-89607200D02*
X236357142Y-89654819D01*
X236357142Y-89654819D02*
X236166666Y-89654819D01*
X236166666Y-89654819D02*
X236071428Y-89607200D01*
X236071428Y-89607200D02*
X236023809Y-89559580D01*
X236023809Y-89559580D02*
X235976190Y-89464342D01*
X235976190Y-89464342D02*
X235976190Y-89178628D01*
X235976190Y-89178628D02*
X236023809Y-89083390D01*
X236023809Y-89083390D02*
X236071428Y-89035771D01*
X236071428Y-89035771D02*
X236166666Y-88988152D01*
X236166666Y-88988152D02*
X236357142Y-88988152D01*
X236357142Y-88988152D02*
X236452380Y-89035771D01*
X236928571Y-89654819D02*
X236928571Y-88654819D01*
X236928571Y-89131009D02*
X237499999Y-89131009D01*
X237499999Y-89654819D02*
X237499999Y-88654819D01*
X238119047Y-89654819D02*
X238023809Y-89607200D01*
X238023809Y-89607200D02*
X237976190Y-89559580D01*
X237976190Y-89559580D02*
X237928571Y-89464342D01*
X237928571Y-89464342D02*
X237928571Y-89178628D01*
X237928571Y-89178628D02*
X237976190Y-89083390D01*
X237976190Y-89083390D02*
X238023809Y-89035771D01*
X238023809Y-89035771D02*
X238119047Y-88988152D01*
X238119047Y-88988152D02*
X238261904Y-88988152D01*
X238261904Y-88988152D02*
X238357142Y-89035771D01*
X238357142Y-89035771D02*
X238404761Y-89083390D01*
X238404761Y-89083390D02*
X238452380Y-89178628D01*
X238452380Y-89178628D02*
X238452380Y-89464342D01*
X238452380Y-89464342D02*
X238404761Y-89559580D01*
X238404761Y-89559580D02*
X238357142Y-89607200D01*
X238357142Y-89607200D02*
X238261904Y-89654819D01*
X238261904Y-89654819D02*
X238119047Y-89654819D01*
X239023809Y-89654819D02*
X238928571Y-89607200D01*
X238928571Y-89607200D02*
X238880952Y-89511961D01*
X238880952Y-89511961D02*
X238880952Y-88654819D01*
X239785714Y-89607200D02*
X239690476Y-89654819D01*
X239690476Y-89654819D02*
X239500000Y-89654819D01*
X239500000Y-89654819D02*
X239404762Y-89607200D01*
X239404762Y-89607200D02*
X239357143Y-89511961D01*
X239357143Y-89511961D02*
X239357143Y-89131009D01*
X239357143Y-89131009D02*
X239404762Y-89035771D01*
X239404762Y-89035771D02*
X239500000Y-88988152D01*
X239500000Y-88988152D02*
X239690476Y-88988152D01*
X239690476Y-88988152D02*
X239785714Y-89035771D01*
X239785714Y-89035771D02*
X239833333Y-89131009D01*
X239833333Y-89131009D02*
X239833333Y-89226247D01*
X239833333Y-89226247D02*
X239357143Y-89321485D01*
X234238095Y-85454819D02*
X234238095Y-84454819D01*
X234238095Y-84931009D02*
X234809523Y-84931009D01*
X234809523Y-85454819D02*
X234809523Y-84454819D01*
X235714285Y-84788152D02*
X235714285Y-85454819D01*
X235476190Y-84407200D02*
X235238095Y-85121485D01*
X235238095Y-85121485D02*
X235857142Y-85121485D01*
X203454819Y-75928570D02*
X203454819Y-75309523D01*
X203454819Y-75309523D02*
X203835771Y-75642856D01*
X203835771Y-75642856D02*
X203835771Y-75499999D01*
X203835771Y-75499999D02*
X203883390Y-75404761D01*
X203883390Y-75404761D02*
X203931009Y-75357142D01*
X203931009Y-75357142D02*
X204026247Y-75309523D01*
X204026247Y-75309523D02*
X204264342Y-75309523D01*
X204264342Y-75309523D02*
X204359580Y-75357142D01*
X204359580Y-75357142D02*
X204407200Y-75404761D01*
X204407200Y-75404761D02*
X204454819Y-75499999D01*
X204454819Y-75499999D02*
X204454819Y-75785713D01*
X204454819Y-75785713D02*
X204407200Y-75880951D01*
X204407200Y-75880951D02*
X204359580Y-75928570D01*
X204359580Y-74880951D02*
X204407200Y-74833332D01*
X204407200Y-74833332D02*
X204454819Y-74880951D01*
X204454819Y-74880951D02*
X204407200Y-74928570D01*
X204407200Y-74928570D02*
X204359580Y-74880951D01*
X204359580Y-74880951D02*
X204454819Y-74880951D01*
X203454819Y-74499999D02*
X203454819Y-73880952D01*
X203454819Y-73880952D02*
X203835771Y-74214285D01*
X203835771Y-74214285D02*
X203835771Y-74071428D01*
X203835771Y-74071428D02*
X203883390Y-73976190D01*
X203883390Y-73976190D02*
X203931009Y-73928571D01*
X203931009Y-73928571D02*
X204026247Y-73880952D01*
X204026247Y-73880952D02*
X204264342Y-73880952D01*
X204264342Y-73880952D02*
X204359580Y-73928571D01*
X204359580Y-73928571D02*
X204407200Y-73976190D01*
X204407200Y-73976190D02*
X204454819Y-74071428D01*
X204454819Y-74071428D02*
X204454819Y-74357142D01*
X204454819Y-74357142D02*
X204407200Y-74452380D01*
X204407200Y-74452380D02*
X204359580Y-74499999D01*
X203788152Y-73023809D02*
X204454819Y-73023809D01*
X203788152Y-73452380D02*
X204311961Y-73452380D01*
X204311961Y-73452380D02*
X204407200Y-73404761D01*
X204407200Y-73404761D02*
X204454819Y-73309523D01*
X204454819Y-73309523D02*
X204454819Y-73166666D01*
X204454819Y-73166666D02*
X204407200Y-73071428D01*
X204407200Y-73071428D02*
X204359580Y-73023809D01*
X203931009Y-72214285D02*
X203931009Y-72547618D01*
X204454819Y-72547618D02*
X203454819Y-72547618D01*
X203454819Y-72547618D02*
X203454819Y-72071428D01*
X207859580Y-74166666D02*
X207907200Y-74214285D01*
X207907200Y-74214285D02*
X207954819Y-74357142D01*
X207954819Y-74357142D02*
X207954819Y-74452380D01*
X207954819Y-74452380D02*
X207907200Y-74595237D01*
X207907200Y-74595237D02*
X207811961Y-74690475D01*
X207811961Y-74690475D02*
X207716723Y-74738094D01*
X207716723Y-74738094D02*
X207526247Y-74785713D01*
X207526247Y-74785713D02*
X207383390Y-74785713D01*
X207383390Y-74785713D02*
X207192914Y-74738094D01*
X207192914Y-74738094D02*
X207097676Y-74690475D01*
X207097676Y-74690475D02*
X207002438Y-74595237D01*
X207002438Y-74595237D02*
X206954819Y-74452380D01*
X206954819Y-74452380D02*
X206954819Y-74357142D01*
X206954819Y-74357142D02*
X207002438Y-74214285D01*
X207002438Y-74214285D02*
X207050057Y-74166666D01*
X207954819Y-73214285D02*
X207954819Y-73785713D01*
X207954819Y-73499999D02*
X206954819Y-73499999D01*
X206954819Y-73499999D02*
X207097676Y-73595237D01*
X207097676Y-73595237D02*
X207192914Y-73690475D01*
X207192914Y-73690475D02*
X207240533Y-73785713D01*
X184666665Y-77859580D02*
X184619046Y-77907200D01*
X184619046Y-77907200D02*
X184476189Y-77954819D01*
X184476189Y-77954819D02*
X184380951Y-77954819D01*
X184380951Y-77954819D02*
X184238094Y-77907200D01*
X184238094Y-77907200D02*
X184142856Y-77811961D01*
X184142856Y-77811961D02*
X184095237Y-77716723D01*
X184095237Y-77716723D02*
X184047618Y-77526247D01*
X184047618Y-77526247D02*
X184047618Y-77383390D01*
X184047618Y-77383390D02*
X184095237Y-77192914D01*
X184095237Y-77192914D02*
X184142856Y-77097676D01*
X184142856Y-77097676D02*
X184238094Y-77002438D01*
X184238094Y-77002438D02*
X184380951Y-76954819D01*
X184380951Y-76954819D02*
X184476189Y-76954819D01*
X184476189Y-76954819D02*
X184619046Y-77002438D01*
X184619046Y-77002438D02*
X184666665Y-77050057D01*
X185238094Y-77954819D02*
X185142856Y-77907200D01*
X185142856Y-77907200D02*
X185095237Y-77859580D01*
X185095237Y-77859580D02*
X185047618Y-77764342D01*
X185047618Y-77764342D02*
X185047618Y-77478628D01*
X185047618Y-77478628D02*
X185095237Y-77383390D01*
X185095237Y-77383390D02*
X185142856Y-77335771D01*
X185142856Y-77335771D02*
X185238094Y-77288152D01*
X185238094Y-77288152D02*
X185380951Y-77288152D01*
X185380951Y-77288152D02*
X185476189Y-77335771D01*
X185476189Y-77335771D02*
X185523808Y-77383390D01*
X185523808Y-77383390D02*
X185571427Y-77478628D01*
X185571427Y-77478628D02*
X185571427Y-77764342D01*
X185571427Y-77764342D02*
X185523808Y-77859580D01*
X185523808Y-77859580D02*
X185476189Y-77907200D01*
X185476189Y-77907200D02*
X185380951Y-77954819D01*
X185380951Y-77954819D02*
X185238094Y-77954819D01*
X185999999Y-77288152D02*
X185999999Y-77954819D01*
X185999999Y-77383390D02*
X186047618Y-77335771D01*
X186047618Y-77335771D02*
X186142856Y-77288152D01*
X186142856Y-77288152D02*
X186285713Y-77288152D01*
X186285713Y-77288152D02*
X186380951Y-77335771D01*
X186380951Y-77335771D02*
X186428570Y-77431009D01*
X186428570Y-77431009D02*
X186428570Y-77954819D01*
X186904761Y-77288152D02*
X186904761Y-77954819D01*
X186904761Y-77383390D02*
X186952380Y-77335771D01*
X186952380Y-77335771D02*
X187047618Y-77288152D01*
X187047618Y-77288152D02*
X187190475Y-77288152D01*
X187190475Y-77288152D02*
X187285713Y-77335771D01*
X187285713Y-77335771D02*
X187333332Y-77431009D01*
X187333332Y-77431009D02*
X187333332Y-77954819D01*
X187571428Y-78050057D02*
X188333332Y-78050057D01*
X188857142Y-76954819D02*
X188857142Y-77669104D01*
X188857142Y-77669104D02*
X188809523Y-77811961D01*
X188809523Y-77811961D02*
X188714285Y-77907200D01*
X188714285Y-77907200D02*
X188571428Y-77954819D01*
X188571428Y-77954819D02*
X188476190Y-77954819D01*
X189714285Y-77907200D02*
X189619047Y-77954819D01*
X189619047Y-77954819D02*
X189428571Y-77954819D01*
X189428571Y-77954819D02*
X189333333Y-77907200D01*
X189333333Y-77907200D02*
X189285714Y-77811961D01*
X189285714Y-77811961D02*
X189285714Y-77431009D01*
X189285714Y-77431009D02*
X189333333Y-77335771D01*
X189333333Y-77335771D02*
X189428571Y-77288152D01*
X189428571Y-77288152D02*
X189619047Y-77288152D01*
X189619047Y-77288152D02*
X189714285Y-77335771D01*
X189714285Y-77335771D02*
X189761904Y-77431009D01*
X189761904Y-77431009D02*
X189761904Y-77526247D01*
X189761904Y-77526247D02*
X189285714Y-77621485D01*
X190047619Y-77288152D02*
X190428571Y-77288152D01*
X190190476Y-76954819D02*
X190190476Y-77811961D01*
X190190476Y-77811961D02*
X190238095Y-77907200D01*
X190238095Y-77907200D02*
X190333333Y-77954819D01*
X190333333Y-77954819D02*
X190428571Y-77954819D01*
X190714286Y-77907200D02*
X190809524Y-77954819D01*
X190809524Y-77954819D02*
X191000000Y-77954819D01*
X191000000Y-77954819D02*
X191095238Y-77907200D01*
X191095238Y-77907200D02*
X191142857Y-77811961D01*
X191142857Y-77811961D02*
X191142857Y-77764342D01*
X191142857Y-77764342D02*
X191095238Y-77669104D01*
X191095238Y-77669104D02*
X191000000Y-77621485D01*
X191000000Y-77621485D02*
X190857143Y-77621485D01*
X190857143Y-77621485D02*
X190761905Y-77573866D01*
X190761905Y-77573866D02*
X190714286Y-77478628D01*
X190714286Y-77478628D02*
X190714286Y-77431009D01*
X190714286Y-77431009D02*
X190761905Y-77335771D01*
X190761905Y-77335771D02*
X190857143Y-77288152D01*
X190857143Y-77288152D02*
X191000000Y-77288152D01*
X191000000Y-77288152D02*
X191095238Y-77335771D01*
X191714286Y-77954819D02*
X191619048Y-77907200D01*
X191619048Y-77907200D02*
X191571429Y-77859580D01*
X191571429Y-77859580D02*
X191523810Y-77764342D01*
X191523810Y-77764342D02*
X191523810Y-77478628D01*
X191523810Y-77478628D02*
X191571429Y-77383390D01*
X191571429Y-77383390D02*
X191619048Y-77335771D01*
X191619048Y-77335771D02*
X191714286Y-77288152D01*
X191714286Y-77288152D02*
X191857143Y-77288152D01*
X191857143Y-77288152D02*
X191952381Y-77335771D01*
X191952381Y-77335771D02*
X192000000Y-77383390D01*
X192000000Y-77383390D02*
X192047619Y-77478628D01*
X192047619Y-77478628D02*
X192047619Y-77764342D01*
X192047619Y-77764342D02*
X192000000Y-77859580D01*
X192000000Y-77859580D02*
X191952381Y-77907200D01*
X191952381Y-77907200D02*
X191857143Y-77954819D01*
X191857143Y-77954819D02*
X191714286Y-77954819D01*
X192476191Y-77288152D02*
X192476191Y-77954819D01*
X192476191Y-77383390D02*
X192523810Y-77335771D01*
X192523810Y-77335771D02*
X192619048Y-77288152D01*
X192619048Y-77288152D02*
X192761905Y-77288152D01*
X192761905Y-77288152D02*
X192857143Y-77335771D01*
X192857143Y-77335771D02*
X192904762Y-77431009D01*
X192904762Y-77431009D02*
X192904762Y-77954819D01*
X188166666Y-83454819D02*
X188166666Y-84169104D01*
X188166666Y-84169104D02*
X188119047Y-84311961D01*
X188119047Y-84311961D02*
X188023809Y-84407200D01*
X188023809Y-84407200D02*
X187880952Y-84454819D01*
X187880952Y-84454819D02*
X187785714Y-84454819D01*
X188595238Y-83550057D02*
X188642857Y-83502438D01*
X188642857Y-83502438D02*
X188738095Y-83454819D01*
X188738095Y-83454819D02*
X188976190Y-83454819D01*
X188976190Y-83454819D02*
X189071428Y-83502438D01*
X189071428Y-83502438D02*
X189119047Y-83550057D01*
X189119047Y-83550057D02*
X189166666Y-83645295D01*
X189166666Y-83645295D02*
X189166666Y-83740533D01*
X189166666Y-83740533D02*
X189119047Y-83883390D01*
X189119047Y-83883390D02*
X188547619Y-84454819D01*
X188547619Y-84454819D02*
X189166666Y-84454819D01*
X181876190Y-67359580D02*
X181828571Y-67407200D01*
X181828571Y-67407200D02*
X181685714Y-67454819D01*
X181685714Y-67454819D02*
X181590476Y-67454819D01*
X181590476Y-67454819D02*
X181447619Y-67407200D01*
X181447619Y-67407200D02*
X181352381Y-67311961D01*
X181352381Y-67311961D02*
X181304762Y-67216723D01*
X181304762Y-67216723D02*
X181257143Y-67026247D01*
X181257143Y-67026247D02*
X181257143Y-66883390D01*
X181257143Y-66883390D02*
X181304762Y-66692914D01*
X181304762Y-66692914D02*
X181352381Y-66597676D01*
X181352381Y-66597676D02*
X181447619Y-66502438D01*
X181447619Y-66502438D02*
X181590476Y-66454819D01*
X181590476Y-66454819D02*
X181685714Y-66454819D01*
X181685714Y-66454819D02*
X181828571Y-66502438D01*
X181828571Y-66502438D02*
X181876190Y-66550057D01*
X182447619Y-67454819D02*
X182352381Y-67407200D01*
X182352381Y-67407200D02*
X182304762Y-67359580D01*
X182304762Y-67359580D02*
X182257143Y-67264342D01*
X182257143Y-67264342D02*
X182257143Y-66978628D01*
X182257143Y-66978628D02*
X182304762Y-66883390D01*
X182304762Y-66883390D02*
X182352381Y-66835771D01*
X182352381Y-66835771D02*
X182447619Y-66788152D01*
X182447619Y-66788152D02*
X182590476Y-66788152D01*
X182590476Y-66788152D02*
X182685714Y-66835771D01*
X182685714Y-66835771D02*
X182733333Y-66883390D01*
X182733333Y-66883390D02*
X182780952Y-66978628D01*
X182780952Y-66978628D02*
X182780952Y-67264342D01*
X182780952Y-67264342D02*
X182733333Y-67359580D01*
X182733333Y-67359580D02*
X182685714Y-67407200D01*
X182685714Y-67407200D02*
X182590476Y-67454819D01*
X182590476Y-67454819D02*
X182447619Y-67454819D01*
X183209524Y-66788152D02*
X183209524Y-67454819D01*
X183209524Y-66883390D02*
X183257143Y-66835771D01*
X183257143Y-66835771D02*
X183352381Y-66788152D01*
X183352381Y-66788152D02*
X183495238Y-66788152D01*
X183495238Y-66788152D02*
X183590476Y-66835771D01*
X183590476Y-66835771D02*
X183638095Y-66931009D01*
X183638095Y-66931009D02*
X183638095Y-67454819D01*
X184114286Y-66788152D02*
X184114286Y-67454819D01*
X184114286Y-66883390D02*
X184161905Y-66835771D01*
X184161905Y-66835771D02*
X184257143Y-66788152D01*
X184257143Y-66788152D02*
X184400000Y-66788152D01*
X184400000Y-66788152D02*
X184495238Y-66835771D01*
X184495238Y-66835771D02*
X184542857Y-66931009D01*
X184542857Y-66931009D02*
X184542857Y-67454819D01*
X184780953Y-67550057D02*
X185542857Y-67550057D01*
X185780953Y-67454819D02*
X185780953Y-66454819D01*
X185780953Y-66454819D02*
X186114286Y-67169104D01*
X186114286Y-67169104D02*
X186447619Y-66454819D01*
X186447619Y-66454819D02*
X186447619Y-67454819D01*
X187352381Y-67454819D02*
X187352381Y-66931009D01*
X187352381Y-66931009D02*
X187304762Y-66835771D01*
X187304762Y-66835771D02*
X187209524Y-66788152D01*
X187209524Y-66788152D02*
X187019048Y-66788152D01*
X187019048Y-66788152D02*
X186923810Y-66835771D01*
X187352381Y-67407200D02*
X187257143Y-67454819D01*
X187257143Y-67454819D02*
X187019048Y-67454819D01*
X187019048Y-67454819D02*
X186923810Y-67407200D01*
X186923810Y-67407200D02*
X186876191Y-67311961D01*
X186876191Y-67311961D02*
X186876191Y-67216723D01*
X186876191Y-67216723D02*
X186923810Y-67121485D01*
X186923810Y-67121485D02*
X187019048Y-67073866D01*
X187019048Y-67073866D02*
X187257143Y-67073866D01*
X187257143Y-67073866D02*
X187352381Y-67026247D01*
X187828572Y-67454819D02*
X187828572Y-66788152D01*
X187828572Y-66454819D02*
X187780953Y-66502438D01*
X187780953Y-66502438D02*
X187828572Y-66550057D01*
X187828572Y-66550057D02*
X187876191Y-66502438D01*
X187876191Y-66502438D02*
X187828572Y-66454819D01*
X187828572Y-66454819D02*
X187828572Y-66550057D01*
X188304762Y-66788152D02*
X188304762Y-67454819D01*
X188304762Y-66883390D02*
X188352381Y-66835771D01*
X188352381Y-66835771D02*
X188447619Y-66788152D01*
X188447619Y-66788152D02*
X188590476Y-66788152D01*
X188590476Y-66788152D02*
X188685714Y-66835771D01*
X188685714Y-66835771D02*
X188733333Y-66931009D01*
X188733333Y-66931009D02*
X188733333Y-67454819D01*
X188971429Y-67550057D02*
X189733333Y-67550057D01*
X189971429Y-67454819D02*
X189971429Y-66454819D01*
X189971429Y-66454819D02*
X190209524Y-66454819D01*
X190209524Y-66454819D02*
X190352381Y-66502438D01*
X190352381Y-66502438D02*
X190447619Y-66597676D01*
X190447619Y-66597676D02*
X190495238Y-66692914D01*
X190495238Y-66692914D02*
X190542857Y-66883390D01*
X190542857Y-66883390D02*
X190542857Y-67026247D01*
X190542857Y-67026247D02*
X190495238Y-67216723D01*
X190495238Y-67216723D02*
X190447619Y-67311961D01*
X190447619Y-67311961D02*
X190352381Y-67407200D01*
X190352381Y-67407200D02*
X190209524Y-67454819D01*
X190209524Y-67454819D02*
X189971429Y-67454819D01*
X191542857Y-67359580D02*
X191495238Y-67407200D01*
X191495238Y-67407200D02*
X191352381Y-67454819D01*
X191352381Y-67454819D02*
X191257143Y-67454819D01*
X191257143Y-67454819D02*
X191114286Y-67407200D01*
X191114286Y-67407200D02*
X191019048Y-67311961D01*
X191019048Y-67311961D02*
X190971429Y-67216723D01*
X190971429Y-67216723D02*
X190923810Y-67026247D01*
X190923810Y-67026247D02*
X190923810Y-66883390D01*
X190923810Y-66883390D02*
X190971429Y-66692914D01*
X190971429Y-66692914D02*
X191019048Y-66597676D01*
X191019048Y-66597676D02*
X191114286Y-66502438D01*
X191114286Y-66502438D02*
X191257143Y-66454819D01*
X191257143Y-66454819D02*
X191352381Y-66454819D01*
X191352381Y-66454819D02*
X191495238Y-66502438D01*
X191495238Y-66502438D02*
X191542857Y-66550057D01*
X191971429Y-67454819D02*
X191971429Y-66454819D01*
X191971429Y-66454819D02*
X192209524Y-66454819D01*
X192209524Y-66454819D02*
X192352381Y-66502438D01*
X192352381Y-66502438D02*
X192447619Y-66597676D01*
X192447619Y-66597676D02*
X192495238Y-66692914D01*
X192495238Y-66692914D02*
X192542857Y-66883390D01*
X192542857Y-66883390D02*
X192542857Y-67026247D01*
X192542857Y-67026247D02*
X192495238Y-67216723D01*
X192495238Y-67216723D02*
X192447619Y-67311961D01*
X192447619Y-67311961D02*
X192352381Y-67407200D01*
X192352381Y-67407200D02*
X192209524Y-67454819D01*
X192209524Y-67454819D02*
X191971429Y-67454819D01*
X193542857Y-67359580D02*
X193495238Y-67407200D01*
X193495238Y-67407200D02*
X193352381Y-67454819D01*
X193352381Y-67454819D02*
X193257143Y-67454819D01*
X193257143Y-67454819D02*
X193114286Y-67407200D01*
X193114286Y-67407200D02*
X193019048Y-67311961D01*
X193019048Y-67311961D02*
X192971429Y-67216723D01*
X192971429Y-67216723D02*
X192923810Y-67026247D01*
X192923810Y-67026247D02*
X192923810Y-66883390D01*
X192923810Y-66883390D02*
X192971429Y-66692914D01*
X192971429Y-66692914D02*
X193019048Y-66597676D01*
X193019048Y-66597676D02*
X193114286Y-66502438D01*
X193114286Y-66502438D02*
X193257143Y-66454819D01*
X193257143Y-66454819D02*
X193352381Y-66454819D01*
X193352381Y-66454819D02*
X193495238Y-66502438D01*
X193495238Y-66502438D02*
X193542857Y-66550057D01*
X187066666Y-58854819D02*
X187066666Y-59569104D01*
X187066666Y-59569104D02*
X187019047Y-59711961D01*
X187019047Y-59711961D02*
X186923809Y-59807200D01*
X186923809Y-59807200D02*
X186780952Y-59854819D01*
X186780952Y-59854819D02*
X186685714Y-59854819D01*
X187971428Y-58854819D02*
X187780952Y-58854819D01*
X187780952Y-58854819D02*
X187685714Y-58902438D01*
X187685714Y-58902438D02*
X187638095Y-58950057D01*
X187638095Y-58950057D02*
X187542857Y-59092914D01*
X187542857Y-59092914D02*
X187495238Y-59283390D01*
X187495238Y-59283390D02*
X187495238Y-59664342D01*
X187495238Y-59664342D02*
X187542857Y-59759580D01*
X187542857Y-59759580D02*
X187590476Y-59807200D01*
X187590476Y-59807200D02*
X187685714Y-59854819D01*
X187685714Y-59854819D02*
X187876190Y-59854819D01*
X187876190Y-59854819D02*
X187971428Y-59807200D01*
X187971428Y-59807200D02*
X188019047Y-59759580D01*
X188019047Y-59759580D02*
X188066666Y-59664342D01*
X188066666Y-59664342D02*
X188066666Y-59426247D01*
X188066666Y-59426247D02*
X188019047Y-59331009D01*
X188019047Y-59331009D02*
X187971428Y-59283390D01*
X187971428Y-59283390D02*
X187876190Y-59235771D01*
X187876190Y-59235771D02*
X187685714Y-59235771D01*
X187685714Y-59235771D02*
X187590476Y-59283390D01*
X187590476Y-59283390D02*
X187542857Y-59331009D01*
X187542857Y-59331009D02*
X187495238Y-59426247D01*
D11*
%TO.C,J7*%
X198850000Y-58000000D02*
X199550000Y-58000000D01*
X198850000Y-60000000D02*
X210150000Y-60000000D01*
X199550000Y-55950000D02*
X199550000Y-58000000D01*
X199550000Y-55950000D02*
X209450000Y-55950000D01*
X200080000Y-49950000D02*
X200080000Y-55950000D01*
X200080000Y-49950000D02*
X208920000Y-49950000D01*
X208920000Y-49950000D02*
X208920000Y-55950000D01*
X209450000Y-55950000D02*
X209450000Y-57950000D01*
X209450000Y-58000000D02*
X210150000Y-58000000D01*
X198850000Y-60000000D02*
G75*
G02*
X198850000Y-58000000I0J1000000D01*
G01*
X210150000Y-58000000D02*
G75*
G02*
X210150000Y-60000000I0J-1000000D01*
G01*
%TO.C,J5*%
X164750000Y-69080000D02*
X170750000Y-69080000D01*
X164750000Y-77920000D02*
X164750000Y-69080000D01*
X164750000Y-77920000D02*
X170750000Y-77920000D01*
X170750000Y-68550000D02*
X172750000Y-68550000D01*
X170750000Y-78450000D02*
X170750000Y-68550000D01*
X170750000Y-78450000D02*
X172800000Y-78450000D01*
X172800000Y-68550000D02*
X172800000Y-67850000D01*
X172800000Y-79150000D02*
X172800000Y-78450000D01*
X174800000Y-79150000D02*
X174800000Y-67850000D01*
X172800000Y-67850000D02*
G75*
G02*
X174800000Y-67850000I1000000J0D01*
G01*
X174800000Y-79150000D02*
G75*
G02*
X172800000Y-79150000I-1000000J0D01*
G01*
%TO.C,J1*%
X213850000Y-58000000D02*
X214550000Y-58000000D01*
X213850000Y-60000000D02*
X225150000Y-60000000D01*
X214550000Y-55950000D02*
X214550000Y-58000000D01*
X214550000Y-55950000D02*
X224450000Y-55950000D01*
X215080000Y-49950000D02*
X215080000Y-55950000D01*
X215080000Y-49950000D02*
X223920000Y-49950000D01*
X223920000Y-49950000D02*
X223920000Y-55950000D01*
X224450000Y-55950000D02*
X224450000Y-57950000D01*
X224450000Y-58000000D02*
X225150000Y-58000000D01*
X213850000Y-60000000D02*
G75*
G02*
X213850000Y-58000000I0J1000000D01*
G01*
X225150000Y-58000000D02*
G75*
G02*
X225150000Y-60000000I0J-1000000D01*
G01*
%TO.C,C1*%
X205250000Y-70400000D02*
X205250000Y-77600000D01*
X205250000Y-77600000D02*
X209750000Y-77600000D01*
X209750000Y-70400000D02*
X205250000Y-70400000D01*
X209750000Y-77600000D02*
X209750000Y-70400000D01*
%TO.C,J2*%
X183550000Y-87000000D02*
X182850000Y-87000000D01*
X183550000Y-89050000D02*
X183550000Y-87050000D01*
X184080000Y-95050000D02*
X184080000Y-89050000D01*
X192920000Y-95050000D02*
X184080000Y-95050000D01*
X192920000Y-95050000D02*
X192920000Y-89050000D01*
X193450000Y-89050000D02*
X183550000Y-89050000D01*
X193450000Y-89050000D02*
X193450000Y-87000000D01*
X194150000Y-85000000D02*
X182850000Y-85000000D01*
X194150000Y-87000000D02*
X193450000Y-87000000D01*
X182850000Y-87000000D02*
G75*
G02*
X182850000Y-85000000I0J1000000D01*
G01*
X194150000Y-85000000D02*
G75*
G02*
X194150000Y-87000000I0J-1000000D01*
G01*
%TO.C,J6*%
X179650000Y-55350000D02*
X179650000Y-60850000D01*
X179650000Y-55350000D02*
X195150000Y-55350000D01*
X180500000Y-47650000D02*
X194300000Y-47650000D01*
X180500000Y-55350000D02*
X180500000Y-47650000D01*
X183650000Y-64850000D02*
X191150000Y-64850000D01*
X194300000Y-55350000D02*
X194300000Y-47650000D01*
X195150000Y-55350000D02*
X195150000Y-60850000D01*
X183615000Y-64885000D02*
G75*
G02*
X179650000Y-60850000I35000J4000000D01*
G01*
X195150000Y-60850000D02*
G75*
G02*
X191150000Y-64850000I-4000000J0D01*
G01*
%TD*%
M02*
