%TF.GenerationSoftware,KiCad,Pcbnew,8.0.6-8.0.6-0~ubuntu22.04.1*%
%TF.CreationDate,2024-12-01T13:21:48+00:00*%
%TF.ProjectId,computer_sensor_board,636f6d70-7574-4657-925f-73656e736f72,rev?*%
%TF.SameCoordinates,Original*%
%TF.FileFunction,Legend,Top*%
%TF.FilePolarity,Positive*%
%FSLAX46Y46*%
G04 Gerber Fmt 4.6, Leading zero omitted, Abs format (unit mm)*
G04 Created by KiCad (PCBNEW 8.0.6-8.0.6-0~ubuntu22.04.1) date 2024-12-01 13:21:48*
%MOMM*%
%LPD*%
G01*
G04 APERTURE LIST*
%ADD10C,0.150000*%
%ADD11C,0.100000*%
%ADD12C,0.120000*%
G04 APERTURE END LIST*
D10*
X174238095Y-56254819D02*
X174238095Y-55254819D01*
X174238095Y-55731009D02*
X174809523Y-55731009D01*
X174809523Y-56254819D02*
X174809523Y-55254819D01*
X175809523Y-56254819D02*
X175238095Y-56254819D01*
X175523809Y-56254819D02*
X175523809Y-55254819D01*
X175523809Y-55254819D02*
X175428571Y-55397676D01*
X175428571Y-55397676D02*
X175333333Y-55492914D01*
X175333333Y-55492914D02*
X175238095Y-55540533D01*
X234238095Y-56254819D02*
X234238095Y-55254819D01*
X234238095Y-55731009D02*
X234809523Y-55731009D01*
X234809523Y-56254819D02*
X234809523Y-55254819D01*
X235238095Y-55350057D02*
X235285714Y-55302438D01*
X235285714Y-55302438D02*
X235380952Y-55254819D01*
X235380952Y-55254819D02*
X235619047Y-55254819D01*
X235619047Y-55254819D02*
X235714285Y-55302438D01*
X235714285Y-55302438D02*
X235761904Y-55350057D01*
X235761904Y-55350057D02*
X235809523Y-55445295D01*
X235809523Y-55445295D02*
X235809523Y-55540533D01*
X235809523Y-55540533D02*
X235761904Y-55683390D01*
X235761904Y-55683390D02*
X235190476Y-56254819D01*
X235190476Y-56254819D02*
X235809523Y-56254819D01*
X207166666Y-48104819D02*
X207166666Y-48819104D01*
X207166666Y-48819104D02*
X207119047Y-48961961D01*
X207119047Y-48961961D02*
X207023809Y-49057200D01*
X207023809Y-49057200D02*
X206880952Y-49104819D01*
X206880952Y-49104819D02*
X206785714Y-49104819D01*
X207547619Y-48104819D02*
X208214285Y-48104819D01*
X208214285Y-48104819D02*
X207785714Y-49104819D01*
X212428571Y-64264700D02*
X213571429Y-64264700D01*
X213000000Y-64836128D02*
X213000000Y-63693271D01*
X201428571Y-64264700D02*
X202571429Y-64264700D01*
D11*
X198973419Y-78051904D02*
X197973419Y-78051904D01*
X197973419Y-78051904D02*
X198687704Y-77718571D01*
X198687704Y-77718571D02*
X197973419Y-77385238D01*
X197973419Y-77385238D02*
X198973419Y-77385238D01*
X197973419Y-77004285D02*
X197973419Y-76337619D01*
X197973419Y-76337619D02*
X198973419Y-76766190D01*
X198401990Y-75813809D02*
X198354371Y-75909047D01*
X198354371Y-75909047D02*
X198306752Y-75956666D01*
X198306752Y-75956666D02*
X198211514Y-76004285D01*
X198211514Y-76004285D02*
X198163895Y-76004285D01*
X198163895Y-76004285D02*
X198068657Y-75956666D01*
X198068657Y-75956666D02*
X198021038Y-75909047D01*
X198021038Y-75909047D02*
X197973419Y-75813809D01*
X197973419Y-75813809D02*
X197973419Y-75623333D01*
X197973419Y-75623333D02*
X198021038Y-75528095D01*
X198021038Y-75528095D02*
X198068657Y-75480476D01*
X198068657Y-75480476D02*
X198163895Y-75432857D01*
X198163895Y-75432857D02*
X198211514Y-75432857D01*
X198211514Y-75432857D02*
X198306752Y-75480476D01*
X198306752Y-75480476D02*
X198354371Y-75528095D01*
X198354371Y-75528095D02*
X198401990Y-75623333D01*
X198401990Y-75623333D02*
X198401990Y-75813809D01*
X198401990Y-75813809D02*
X198449609Y-75909047D01*
X198449609Y-75909047D02*
X198497228Y-75956666D01*
X198497228Y-75956666D02*
X198592466Y-76004285D01*
X198592466Y-76004285D02*
X198782942Y-76004285D01*
X198782942Y-76004285D02*
X198878180Y-75956666D01*
X198878180Y-75956666D02*
X198925800Y-75909047D01*
X198925800Y-75909047D02*
X198973419Y-75813809D01*
X198973419Y-75813809D02*
X198973419Y-75623333D01*
X198973419Y-75623333D02*
X198925800Y-75528095D01*
X198925800Y-75528095D02*
X198878180Y-75480476D01*
X198878180Y-75480476D02*
X198782942Y-75432857D01*
X198782942Y-75432857D02*
X198592466Y-75432857D01*
X198592466Y-75432857D02*
X198497228Y-75480476D01*
X198497228Y-75480476D02*
X198449609Y-75528095D01*
X198449609Y-75528095D02*
X198401990Y-75623333D01*
X198687704Y-75051904D02*
X198687704Y-74575714D01*
X198973419Y-75147142D02*
X197973419Y-74813809D01*
X197973419Y-74813809D02*
X198973419Y-74480476D01*
X198973419Y-73575714D02*
X198497228Y-73909047D01*
X198973419Y-74147142D02*
X197973419Y-74147142D01*
X197973419Y-74147142D02*
X197973419Y-73766190D01*
X197973419Y-73766190D02*
X198021038Y-73670952D01*
X198021038Y-73670952D02*
X198068657Y-73623333D01*
X198068657Y-73623333D02*
X198163895Y-73575714D01*
X198163895Y-73575714D02*
X198306752Y-73575714D01*
X198306752Y-73575714D02*
X198401990Y-73623333D01*
X198401990Y-73623333D02*
X198449609Y-73670952D01*
X198449609Y-73670952D02*
X198497228Y-73766190D01*
X198497228Y-73766190D02*
X198497228Y-74147142D01*
X197973419Y-72956666D02*
X197973419Y-72861428D01*
X197973419Y-72861428D02*
X198021038Y-72766190D01*
X198021038Y-72766190D02*
X198068657Y-72718571D01*
X198068657Y-72718571D02*
X198163895Y-72670952D01*
X198163895Y-72670952D02*
X198354371Y-72623333D01*
X198354371Y-72623333D02*
X198592466Y-72623333D01*
X198592466Y-72623333D02*
X198782942Y-72670952D01*
X198782942Y-72670952D02*
X198878180Y-72718571D01*
X198878180Y-72718571D02*
X198925800Y-72766190D01*
X198925800Y-72766190D02*
X198973419Y-72861428D01*
X198973419Y-72861428D02*
X198973419Y-72956666D01*
X198973419Y-72956666D02*
X198925800Y-73051904D01*
X198925800Y-73051904D02*
X198878180Y-73099523D01*
X198878180Y-73099523D02*
X198782942Y-73147142D01*
X198782942Y-73147142D02*
X198592466Y-73194761D01*
X198592466Y-73194761D02*
X198354371Y-73194761D01*
X198354371Y-73194761D02*
X198163895Y-73147142D01*
X198163895Y-73147142D02*
X198068657Y-73099523D01*
X198068657Y-73099523D02*
X198021038Y-73051904D01*
X198021038Y-73051904D02*
X197973419Y-72956666D01*
X197973419Y-71718571D02*
X197973419Y-72194761D01*
X197973419Y-72194761D02*
X198449609Y-72242380D01*
X198449609Y-72242380D02*
X198401990Y-72194761D01*
X198401990Y-72194761D02*
X198354371Y-72099523D01*
X198354371Y-72099523D02*
X198354371Y-71861428D01*
X198354371Y-71861428D02*
X198401990Y-71766190D01*
X198401990Y-71766190D02*
X198449609Y-71718571D01*
X198449609Y-71718571D02*
X198544847Y-71670952D01*
X198544847Y-71670952D02*
X198782942Y-71670952D01*
X198782942Y-71670952D02*
X198878180Y-71718571D01*
X198878180Y-71718571D02*
X198925800Y-71766190D01*
X198925800Y-71766190D02*
X198973419Y-71861428D01*
X198973419Y-71861428D02*
X198973419Y-72099523D01*
X198973419Y-72099523D02*
X198925800Y-72194761D01*
X198925800Y-72194761D02*
X198878180Y-72242380D01*
X198592466Y-71242380D02*
X198592466Y-70480476D01*
X198973419Y-69480476D02*
X198973419Y-70051904D01*
X198973419Y-69766190D02*
X197973419Y-69766190D01*
X197973419Y-69766190D02*
X198116276Y-69861428D01*
X198116276Y-69861428D02*
X198211514Y-69956666D01*
X198211514Y-69956666D02*
X198259133Y-70051904D01*
X203208095Y-78447419D02*
X203208095Y-79256942D01*
X203208095Y-79256942D02*
X203255714Y-79352180D01*
X203255714Y-79352180D02*
X203303333Y-79399800D01*
X203303333Y-79399800D02*
X203398571Y-79447419D01*
X203398571Y-79447419D02*
X203589047Y-79447419D01*
X203589047Y-79447419D02*
X203684285Y-79399800D01*
X203684285Y-79399800D02*
X203731904Y-79352180D01*
X203731904Y-79352180D02*
X203779523Y-79256942D01*
X203779523Y-79256942D02*
X203779523Y-78447419D01*
X204208095Y-78542657D02*
X204255714Y-78495038D01*
X204255714Y-78495038D02*
X204350952Y-78447419D01*
X204350952Y-78447419D02*
X204589047Y-78447419D01*
X204589047Y-78447419D02*
X204684285Y-78495038D01*
X204684285Y-78495038D02*
X204731904Y-78542657D01*
X204731904Y-78542657D02*
X204779523Y-78637895D01*
X204779523Y-78637895D02*
X204779523Y-78733133D01*
X204779523Y-78733133D02*
X204731904Y-78875990D01*
X204731904Y-78875990D02*
X204160476Y-79447419D01*
X204160476Y-79447419D02*
X204779523Y-79447419D01*
D10*
X222166666Y-48104819D02*
X222166666Y-48819104D01*
X222166666Y-48819104D02*
X222119047Y-48961961D01*
X222119047Y-48961961D02*
X222023809Y-49057200D01*
X222023809Y-49057200D02*
X221880952Y-49104819D01*
X221880952Y-49104819D02*
X221785714Y-49104819D01*
X223119047Y-48104819D02*
X222642857Y-48104819D01*
X222642857Y-48104819D02*
X222595238Y-48581009D01*
X222595238Y-48581009D02*
X222642857Y-48533390D01*
X222642857Y-48533390D02*
X222738095Y-48485771D01*
X222738095Y-48485771D02*
X222976190Y-48485771D01*
X222976190Y-48485771D02*
X223071428Y-48533390D01*
X223071428Y-48533390D02*
X223119047Y-48581009D01*
X223119047Y-48581009D02*
X223166666Y-48676247D01*
X223166666Y-48676247D02*
X223166666Y-48914342D01*
X223166666Y-48914342D02*
X223119047Y-49009580D01*
X223119047Y-49009580D02*
X223071428Y-49057200D01*
X223071428Y-49057200D02*
X222976190Y-49104819D01*
X222976190Y-49104819D02*
X222738095Y-49104819D01*
X222738095Y-49104819D02*
X222642857Y-49057200D01*
X222642857Y-49057200D02*
X222595238Y-49009580D01*
X216428571Y-64264700D02*
X217571429Y-64264700D01*
X227428571Y-64264700D02*
X228571429Y-64264700D01*
X228000000Y-64836128D02*
X228000000Y-63693271D01*
X174238095Y-81254819D02*
X174238095Y-80254819D01*
X174238095Y-80731009D02*
X174809523Y-80731009D01*
X174809523Y-81254819D02*
X174809523Y-80254819D01*
X175190476Y-80254819D02*
X175809523Y-80254819D01*
X175809523Y-80254819D02*
X175476190Y-80635771D01*
X175476190Y-80635771D02*
X175619047Y-80635771D01*
X175619047Y-80635771D02*
X175714285Y-80683390D01*
X175714285Y-80683390D02*
X175761904Y-80731009D01*
X175761904Y-80731009D02*
X175809523Y-80826247D01*
X175809523Y-80826247D02*
X175809523Y-81064342D01*
X175809523Y-81064342D02*
X175761904Y-81159580D01*
X175761904Y-81159580D02*
X175714285Y-81207200D01*
X175714285Y-81207200D02*
X175619047Y-81254819D01*
X175619047Y-81254819D02*
X175333333Y-81254819D01*
X175333333Y-81254819D02*
X175238095Y-81207200D01*
X175238095Y-81207200D02*
X175190476Y-81159580D01*
D11*
X220208095Y-78447419D02*
X220208095Y-79256942D01*
X220208095Y-79256942D02*
X220255714Y-79352180D01*
X220255714Y-79352180D02*
X220303333Y-79399800D01*
X220303333Y-79399800D02*
X220398571Y-79447419D01*
X220398571Y-79447419D02*
X220589047Y-79447419D01*
X220589047Y-79447419D02*
X220684285Y-79399800D01*
X220684285Y-79399800D02*
X220731904Y-79352180D01*
X220731904Y-79352180D02*
X220779523Y-79256942D01*
X220779523Y-79256942D02*
X220779523Y-78447419D01*
X221779523Y-79447419D02*
X221208095Y-79447419D01*
X221493809Y-79447419D02*
X221493809Y-78447419D01*
X221493809Y-78447419D02*
X221398571Y-78590276D01*
X221398571Y-78590276D02*
X221303333Y-78685514D01*
X221303333Y-78685514D02*
X221208095Y-78733133D01*
D10*
X234238095Y-81254819D02*
X234238095Y-80254819D01*
X234238095Y-80731009D02*
X234809523Y-80731009D01*
X234809523Y-81254819D02*
X234809523Y-80254819D01*
X235714285Y-80588152D02*
X235714285Y-81254819D01*
X235476190Y-80207200D02*
X235238095Y-80921485D01*
X235238095Y-80921485D02*
X235857142Y-80921485D01*
X211359580Y-74166666D02*
X211407200Y-74214285D01*
X211407200Y-74214285D02*
X211454819Y-74357142D01*
X211454819Y-74357142D02*
X211454819Y-74452380D01*
X211454819Y-74452380D02*
X211407200Y-74595237D01*
X211407200Y-74595237D02*
X211311961Y-74690475D01*
X211311961Y-74690475D02*
X211216723Y-74738094D01*
X211216723Y-74738094D02*
X211026247Y-74785713D01*
X211026247Y-74785713D02*
X210883390Y-74785713D01*
X210883390Y-74785713D02*
X210692914Y-74738094D01*
X210692914Y-74738094D02*
X210597676Y-74690475D01*
X210597676Y-74690475D02*
X210502438Y-74595237D01*
X210502438Y-74595237D02*
X210454819Y-74452380D01*
X210454819Y-74452380D02*
X210454819Y-74357142D01*
X210454819Y-74357142D02*
X210502438Y-74214285D01*
X210502438Y-74214285D02*
X210550057Y-74166666D01*
X211454819Y-73214285D02*
X211454819Y-73785713D01*
X211454819Y-73499999D02*
X210454819Y-73499999D01*
X210454819Y-73499999D02*
X210597676Y-73595237D01*
X210597676Y-73595237D02*
X210692914Y-73690475D01*
X210692914Y-73690475D02*
X210740533Y-73785713D01*
X187166666Y-95954819D02*
X187166666Y-96669104D01*
X187166666Y-96669104D02*
X187119047Y-96811961D01*
X187119047Y-96811961D02*
X187023809Y-96907200D01*
X187023809Y-96907200D02*
X186880952Y-96954819D01*
X186880952Y-96954819D02*
X186785714Y-96954819D01*
X187595238Y-96050057D02*
X187642857Y-96002438D01*
X187642857Y-96002438D02*
X187738095Y-95954819D01*
X187738095Y-95954819D02*
X187976190Y-95954819D01*
X187976190Y-95954819D02*
X188071428Y-96002438D01*
X188071428Y-96002438D02*
X188119047Y-96050057D01*
X188119047Y-96050057D02*
X188166666Y-96145295D01*
X188166666Y-96145295D02*
X188166666Y-96240533D01*
X188166666Y-96240533D02*
X188119047Y-96383390D01*
X188119047Y-96383390D02*
X187547619Y-96954819D01*
X187547619Y-96954819D02*
X188166666Y-96954819D01*
X181428571Y-81114700D02*
X182571429Y-81114700D01*
X182000000Y-81686128D02*
X182000000Y-80543271D01*
X192428571Y-81114700D02*
X193571429Y-81114700D01*
X187166666Y-47954819D02*
X187166666Y-48669104D01*
X187166666Y-48669104D02*
X187119047Y-48811961D01*
X187119047Y-48811961D02*
X187023809Y-48907200D01*
X187023809Y-48907200D02*
X186880952Y-48954819D01*
X186880952Y-48954819D02*
X186785714Y-48954819D01*
X188071428Y-47954819D02*
X187880952Y-47954819D01*
X187880952Y-47954819D02*
X187785714Y-48002438D01*
X187785714Y-48002438D02*
X187738095Y-48050057D01*
X187738095Y-48050057D02*
X187642857Y-48192914D01*
X187642857Y-48192914D02*
X187595238Y-48383390D01*
X187595238Y-48383390D02*
X187595238Y-48764342D01*
X187595238Y-48764342D02*
X187642857Y-48859580D01*
X187642857Y-48859580D02*
X187690476Y-48907200D01*
X187690476Y-48907200D02*
X187785714Y-48954819D01*
X187785714Y-48954819D02*
X187976190Y-48954819D01*
X187976190Y-48954819D02*
X188071428Y-48907200D01*
X188071428Y-48907200D02*
X188119047Y-48859580D01*
X188119047Y-48859580D02*
X188166666Y-48764342D01*
X188166666Y-48764342D02*
X188166666Y-48526247D01*
X188166666Y-48526247D02*
X188119047Y-48431009D01*
X188119047Y-48431009D02*
X188071428Y-48383390D01*
X188071428Y-48383390D02*
X187976190Y-48335771D01*
X187976190Y-48335771D02*
X187785714Y-48335771D01*
X187785714Y-48335771D02*
X187690476Y-48383390D01*
X187690476Y-48383390D02*
X187642857Y-48431009D01*
X187642857Y-48431009D02*
X187595238Y-48526247D01*
X192428571Y-64114700D02*
X193571429Y-64114700D01*
X193000000Y-64686128D02*
X193000000Y-63543271D01*
X181428571Y-64114700D02*
X182571429Y-64114700D01*
D12*
%TO.C,J7*%
X201740000Y-58040000D02*
X202440000Y-58040000D01*
X201740000Y-60260000D02*
X213260000Y-60260000D01*
X202440000Y-55990000D02*
X202440000Y-58040000D01*
X202440000Y-55990000D02*
X202970000Y-55990000D01*
X202970000Y-49990000D02*
X202970000Y-55990000D01*
X202970000Y-49990000D02*
X212000000Y-49990000D01*
X212030000Y-49990000D02*
X212030000Y-55990000D01*
X212030000Y-55990000D02*
X212560000Y-55990000D01*
X212560000Y-55990000D02*
X212560000Y-58040000D01*
X212560000Y-58040000D02*
X213260000Y-58040000D01*
X201678271Y-60246635D02*
G75*
G02*
X201850000Y-58040000I171730J1096635D01*
G01*
X213150000Y-58040000D02*
G75*
G02*
X213150000Y-60260000I0J-1110000D01*
G01*
%TO.C,M78AR05-1*%
D11*
X195016000Y-79790000D02*
X202566000Y-79790000D01*
X202566000Y-68290000D01*
X195016000Y-68290000D01*
X195016000Y-79790000D01*
D12*
%TO.C,J5*%
X216740000Y-58040000D02*
X217440000Y-58040000D01*
X216740000Y-60260000D02*
X228260000Y-60260000D01*
X217440000Y-55990000D02*
X217440000Y-58040000D01*
X217440000Y-55990000D02*
X217970000Y-55990000D01*
X217970000Y-49990000D02*
X217970000Y-55990000D01*
X217970000Y-49990000D02*
X227000000Y-49990000D01*
X227030000Y-49990000D02*
X227030000Y-55990000D01*
X227030000Y-55990000D02*
X227560000Y-55990000D01*
X227560000Y-55990000D02*
X227560000Y-58040000D01*
X227560000Y-58040000D02*
X228260000Y-58040000D01*
X216678271Y-60246635D02*
G75*
G02*
X216850000Y-58040000I171730J1096635D01*
G01*
X228150000Y-58040000D02*
G75*
G02*
X228150000Y-60260000I0J-1110000D01*
G01*
%TO.C,C1*%
X205130000Y-70280000D02*
X205130000Y-77720000D01*
X209870000Y-70280000D02*
X205130000Y-70280000D01*
X209870000Y-70280000D02*
X209870000Y-77720000D01*
X209870000Y-77720000D02*
X205130000Y-77720000D01*
%TO.C,J2*%
X182440000Y-87110000D02*
X181740000Y-87110000D01*
X182440000Y-89160000D02*
X182440000Y-87110000D01*
X182970000Y-89160000D02*
X182440000Y-89160000D01*
X182970000Y-95160000D02*
X182970000Y-89160000D01*
X192030000Y-95160000D02*
X183000000Y-95160000D01*
X192030000Y-95160000D02*
X192030000Y-89160000D01*
X192560000Y-89160000D02*
X192030000Y-89160000D01*
X192560000Y-89160000D02*
X192560000Y-87110000D01*
X193260000Y-84890000D02*
X181740000Y-84890000D01*
X193260000Y-87110000D02*
X192560000Y-87110000D01*
X181850000Y-87110000D02*
G75*
G02*
X181850000Y-84890000I0J1110000D01*
G01*
X193321729Y-84903365D02*
G75*
G02*
X193150000Y-87110000I-171730J-1096635D01*
G01*
%TO.C,J6*%
X181740000Y-57890000D02*
X182440000Y-57890000D01*
X181740000Y-60110000D02*
X193260000Y-60110000D01*
X182440000Y-55840000D02*
X182440000Y-57890000D01*
X182440000Y-55840000D02*
X182970000Y-55840000D01*
X182970000Y-49840000D02*
X182970000Y-55840000D01*
X182970000Y-49840000D02*
X192000000Y-49840000D01*
X192030000Y-49840000D02*
X192030000Y-55840000D01*
X192030000Y-55840000D02*
X192560000Y-55840000D01*
X192560000Y-55840000D02*
X192560000Y-57890000D01*
X192560000Y-57890000D02*
X193260000Y-57890000D01*
X181678271Y-60096635D02*
G75*
G02*
X181850000Y-57890000I171730J1096635D01*
G01*
X193150000Y-57890000D02*
G75*
G02*
X193150000Y-60110000I0J-1110000D01*
G01*
%TD*%
M02*
