%TF.GenerationSoftware,KiCad,Pcbnew,9.0.4-9.0.4-0~ubuntu24.04.1*%
%TF.CreationDate,2025-09-11T07:43:35+00:00*%
%TF.ProjectId,computer_sensor_board,636f6d70-7574-4657-925f-73656e736f72,rev?*%
%TF.SameCoordinates,Original*%
%TF.FileFunction,Copper,L2,Bot*%
%TF.FilePolarity,Positive*%
%FSLAX46Y46*%
G04 Gerber Fmt 4.6, Leading zero omitted, Abs format (unit mm)*
G04 Created by KiCad (PCBNEW 9.0.4-9.0.4-0~ubuntu24.04.1) date 2025-09-11 07:43:35*
%MOMM*%
%LPD*%
G01*
G04 APERTURE LIST*
G04 Aperture macros list*
%AMRoundRect*
0 Rectangle with rounded corners*
0 $1 Rounding radius*
0 $2 $3 $4 $5 $6 $7 $8 $9 X,Y pos of 4 corners*
0 Add a 4 corners polygon primitive as box body*
4,1,4,$2,$3,$4,$5,$6,$7,$8,$9,$2,$3,0*
0 Add four circle primitives for the rounded corners*
1,1,$1+$1,$2,$3*
1,1,$1+$1,$4,$5*
1,1,$1+$1,$6,$7*
1,1,$1+$1,$8,$9*
0 Add four rect primitives between the rounded corners*
20,1,$1+$1,$2,$3,$4,$5,0*
20,1,$1+$1,$4,$5,$6,$7,0*
20,1,$1+$1,$6,$7,$8,$9,0*
20,1,$1+$1,$8,$9,$2,$3,0*%
G04 Aperture macros list end*
%TA.AperFunction,ComponentPad*%
%ADD10C,1.600000*%
%TD*%
%TA.AperFunction,ComponentPad*%
%ADD11O,1.600000X1.600000*%
%TD*%
%TA.AperFunction,ComponentPad*%
%ADD12R,1.800000X1.800000*%
%TD*%
%TA.AperFunction,ComponentPad*%
%ADD13C,1.800000*%
%TD*%
%TA.AperFunction,ComponentPad*%
%ADD14C,2.400000*%
%TD*%
%TA.AperFunction,ComponentPad*%
%ADD15C,1.400000*%
%TD*%
%TA.AperFunction,ComponentPad*%
%ADD16R,3.500000X3.500000*%
%TD*%
%TA.AperFunction,ComponentPad*%
%ADD17C,3.500000*%
%TD*%
%TA.AperFunction,ComponentPad*%
%ADD18C,1.524000*%
%TD*%
%TA.AperFunction,ComponentPad*%
%ADD19C,3.100000*%
%TD*%
%TA.AperFunction,ComponentPad*%
%ADD20C,1.720000*%
%TD*%
%TA.AperFunction,ComponentPad*%
%ADD21RoundRect,0.770000X-0.980000X-0.980000X0.980000X-0.980000X0.980000X0.980000X-0.980000X0.980000X0*%
%TD*%
%TA.AperFunction,ComponentPad*%
%ADD22RoundRect,0.770000X-0.980000X0.980000X-0.980000X-0.980000X0.980000X-0.980000X0.980000X0.980000X0*%
%TD*%
%TA.AperFunction,ComponentPad*%
%ADD23R,2.500000X4.500000*%
%TD*%
%TA.AperFunction,ComponentPad*%
%ADD24O,2.500000X4.500000*%
%TD*%
%TA.AperFunction,ComponentPad*%
%ADD25R,0.900000X2.000000*%
%TD*%
%TA.AperFunction,ComponentPad*%
%ADD26RoundRect,1.025000X1.025000X1.025000X-1.025000X1.025000X-1.025000X-1.025000X1.025000X-1.025000X0*%
%TD*%
%TA.AperFunction,ComponentPad*%
%ADD27C,4.100000*%
%TD*%
%TA.AperFunction,ComponentPad*%
%ADD28RoundRect,1.025000X-1.025000X-1.025000X1.025000X-1.025000X1.025000X1.025000X-1.025000X1.025000X0*%
%TD*%
%TA.AperFunction,Conductor*%
%ADD29C,1.000000*%
%TD*%
%TA.AperFunction,Conductor*%
%ADD30C,3.000000*%
%TD*%
%TA.AperFunction,Conductor*%
%ADD31C,5.000000*%
%TD*%
G04 APERTURE END LIST*
D10*
%TO.P,R1,1*%
%TO.N,Net-(J6-Pin_2)*%
X197420000Y-62000000D03*
D11*
%TO.P,R1,2*%
%TO.N,GND*%
X207580000Y-62000000D03*
%TD*%
D12*
%TO.P,D1,1,K*%
%TO.N,Net-(D1-K)*%
X200000000Y-75000000D03*
D13*
%TO.P,D1,2,A*%
%TO.N,Net-(D1-A)*%
X200000000Y-77540000D03*
%TD*%
D14*
%TO.P,HS1,*%
%TO.N,*%
X182450000Y-68700000D03*
X192450000Y-68700000D03*
%TD*%
D15*
%TO.P,J7,*%
%TO.N,*%
X199000000Y-49000000D03*
X210000000Y-49000000D03*
D16*
%TO.P,J7,1,Pin_1*%
%TO.N,GND*%
X202000000Y-54000000D03*
D17*
%TO.P,J7,2,Pin_2*%
%TO.N,Net-(D1-A)*%
X207000000Y-54000000D03*
%TD*%
D18*
%TO.P,M78AR05-1,1,Vin*%
%TO.N,Net-(D1-A)*%
X214000000Y-77790000D03*
%TO.P,M78AR05-1,2,GND*%
%TO.N,GND*%
X214000000Y-75250000D03*
%TO.P,M78AR05-1,3,Vout*%
%TO.N,Net-(M78AR05-1-Vout)*%
X214000000Y-72710000D03*
%TD*%
D19*
%TO.P,U2,-*%
%TO.N,N/C*%
X198460000Y-87200000D03*
X211540000Y-87200000D03*
D20*
%TO.P,U2,1,VBus*%
%TO.N,Net-(M78AR05-1-Vout)*%
X201500000Y-84500000D03*
%TO.P,U2,2,D-*%
%TO.N,unconnected-(U2-D--Pad2)*%
X204000000Y-84500000D03*
%TO.P,U2,3,D+*%
%TO.N,unconnected-(U2-D+-Pad3)*%
X206000000Y-84500000D03*
%TO.P,U2,4,GND*%
%TO.N,GND*%
X208500000Y-84500000D03*
%TD*%
D10*
%TO.P,R2,1*%
%TO.N,Net-(D1-K)*%
X200000000Y-70500000D03*
D11*
%TO.P,R2,2*%
%TO.N,GND*%
X210160000Y-70500000D03*
%TD*%
D15*
%TO.P,J1,*%
%TO.N,*%
X214000000Y-49000000D03*
X225000000Y-49000000D03*
D21*
%TO.P,J1,1,Pin_1*%
%TO.N,GND*%
X217000000Y-54000000D03*
D17*
%TO.P,J1,2,Pin_2*%
%TO.N,Net-(D1-A)*%
X222000000Y-54000000D03*
%TD*%
D19*
%TO.P,U1,-*%
%TO.N,N/C*%
X216460000Y-87200000D03*
X229540000Y-87200000D03*
D20*
%TO.P,U1,1,VBus*%
%TO.N,Net-(M78AR05-1-Vout)*%
X219500000Y-84500000D03*
%TO.P,U1,2,D-*%
%TO.N,unconnected-(U1-D--Pad2)*%
X222000000Y-84500000D03*
%TO.P,U1,3,D+*%
%TO.N,unconnected-(U1-D+-Pad3)*%
X224000000Y-84500000D03*
%TO.P,U1,4,GND*%
%TO.N,GND*%
X226500000Y-84500000D03*
%TD*%
D15*
%TO.P,J5,*%
%TO.N,*%
X236000000Y-66500000D03*
X236000000Y-77500000D03*
D22*
%TO.P,J5,1,Pin_1*%
%TO.N,GND*%
X231000000Y-69500000D03*
D17*
%TO.P,J5,2,Pin_2*%
%TO.N,Net-(D1-A)*%
X231000000Y-74500000D03*
%TD*%
D23*
%TO.P,Q2,1,G*%
%TO.N,GND*%
X182000000Y-75500000D03*
D24*
%TO.P,Q2,2,D*%
%TO.N,Net-(J6-Pin_2)*%
X187450000Y-75500000D03*
%TO.P,Q2,3,S*%
%TO.N,Net-(D1-A)*%
X192900000Y-75500000D03*
%TD*%
D10*
%TO.P,C1,1*%
%TO.N,Net-(M78AR05-1-Vout)*%
X223000000Y-70500000D03*
%TO.P,C1,2*%
%TO.N,GND*%
X223000000Y-75500000D03*
%TD*%
D25*
%TO.P,J2,*%
%TO.N,*%
X194350000Y-88000000D03*
X180850000Y-88000000D03*
D26*
%TO.P,J2,1,Pin_1*%
%TO.N,GND*%
X184000000Y-82000000D03*
D27*
%TO.P,J2,2,Pin_2*%
%TO.N,Net-(D1-A)*%
X191200000Y-82000000D03*
%TD*%
D25*
%TO.P,J6,*%
%TO.N,*%
X180650000Y-47000000D03*
X194150000Y-47000000D03*
D28*
%TO.P,J6,1,Pin_1*%
%TO.N,GND*%
X191000000Y-53000000D03*
D27*
%TO.P,J6,2,Pin_2*%
%TO.N,Net-(J6-Pin_2)*%
X183800000Y-53000000D03*
%TD*%
D29*
%TO.N,Net-(M78AR05-1-Vout)*%
X216000000Y-81000000D02*
X219500000Y-84500000D01*
X209000000Y-86500000D02*
X214500000Y-81000000D01*
X214000000Y-72710000D02*
X216000000Y-74710000D01*
X202000000Y-86500000D02*
X209000000Y-86500000D01*
X201500000Y-86000000D02*
X202000000Y-86500000D01*
X214500000Y-81000000D02*
X216000000Y-81000000D01*
X201500000Y-84500000D02*
X201500000Y-86000000D01*
X216000000Y-74710000D02*
X216000000Y-81000000D01*
D30*
%TO.N,GND*%
X191000000Y-53000000D02*
X201000000Y-53000000D01*
D29*
X210160000Y-64580000D02*
X207580000Y-62000000D01*
X210160000Y-70500000D02*
X210160000Y-82840000D01*
D30*
X182000000Y-80000000D02*
X184000000Y-82000000D01*
D29*
X210160000Y-82840000D02*
X208500000Y-84500000D01*
D30*
X191000000Y-65500000D02*
X182000000Y-74500000D01*
X191000000Y-53000000D02*
X191000000Y-65500000D01*
X182000000Y-75500000D02*
X182000000Y-80000000D01*
X182000000Y-74500000D02*
X182000000Y-75500000D01*
X201000000Y-53000000D02*
X202000000Y-54000000D01*
D29*
X210160000Y-70500000D02*
X210500000Y-70500000D01*
X210160000Y-70500000D02*
X210160000Y-64580000D01*
D30*
%TO.N,Net-(D1-A)*%
X222000000Y-59500000D02*
X221974873Y-59500000D01*
X208044466Y-58000000D02*
X220474873Y-58000000D01*
X202600000Y-77600000D02*
X200000000Y-77600000D01*
X204100000Y-68100000D02*
X206000000Y-70000000D01*
D31*
X192900000Y-75500000D02*
X192900000Y-80300000D01*
X192900000Y-80300000D02*
X191200000Y-82000000D01*
D30*
X222000000Y-56474873D02*
X222000000Y-54000000D01*
X206000000Y-74200000D02*
X202600000Y-77600000D01*
X206000000Y-70000000D02*
X206000000Y-74200000D01*
X204100000Y-61944466D02*
X204100000Y-68100000D01*
X204100000Y-61944466D02*
X208044466Y-58000000D01*
X230535534Y-74500000D02*
X231000000Y-74500000D01*
X222000000Y-59500000D02*
X222000000Y-54000000D01*
D31*
X192900000Y-75500000D02*
X196000000Y-78600000D01*
D30*
X222000000Y-65964466D02*
X230535534Y-74500000D01*
X207000000Y-59044466D02*
X207000000Y-54000000D01*
X220474873Y-58000000D02*
X222000000Y-56474873D01*
X222000000Y-65964466D02*
X222000000Y-59500000D01*
X204100000Y-61944466D02*
X207000000Y-59044466D01*
X221974873Y-59500000D02*
X220474873Y-58000000D01*
D31*
X196000000Y-78600000D02*
X200000000Y-78600000D01*
%TD*%
%TA.AperFunction,Conductor*%
%TO.N,GND*%
G36*
X179768038Y-45520185D02*
G01*
X179813793Y-45572989D01*
X179823737Y-45642147D01*
X179800265Y-45698810D01*
X179780238Y-45725562D01*
X179756204Y-45757668D01*
X179756202Y-45757671D01*
X179705908Y-45892517D01*
X179699501Y-45952116D01*
X179699501Y-45952123D01*
X179699500Y-45952135D01*
X179699500Y-48047870D01*
X179699501Y-48047876D01*
X179705908Y-48107483D01*
X179756202Y-48242328D01*
X179756206Y-48242335D01*
X179842452Y-48357544D01*
X179842455Y-48357547D01*
X179957664Y-48443793D01*
X179957671Y-48443797D01*
X180092517Y-48494091D01*
X180092516Y-48494091D01*
X180099444Y-48494835D01*
X180152127Y-48500500D01*
X181147872Y-48500499D01*
X181207483Y-48494091D01*
X181342331Y-48443796D01*
X181457546Y-48357546D01*
X181543796Y-48242331D01*
X181594091Y-48107483D01*
X181600500Y-48047873D01*
X181600499Y-45952128D01*
X181594091Y-45892517D01*
X181543796Y-45757669D01*
X181499734Y-45698810D01*
X181475317Y-45633348D01*
X181490168Y-45565075D01*
X181539573Y-45515669D01*
X181599001Y-45500500D01*
X193200999Y-45500500D01*
X193268038Y-45520185D01*
X193313793Y-45572989D01*
X193323737Y-45642147D01*
X193300265Y-45698810D01*
X193280238Y-45725562D01*
X193256204Y-45757668D01*
X193256202Y-45757671D01*
X193205908Y-45892517D01*
X193199501Y-45952116D01*
X193199501Y-45952123D01*
X193199500Y-45952135D01*
X193199500Y-48047870D01*
X193199501Y-48047876D01*
X193205908Y-48107483D01*
X193256202Y-48242328D01*
X193256206Y-48242335D01*
X193342452Y-48357544D01*
X193342455Y-48357547D01*
X193457664Y-48443793D01*
X193457671Y-48443797D01*
X193592517Y-48494091D01*
X193592516Y-48494091D01*
X193599444Y-48494835D01*
X193652127Y-48500500D01*
X194647872Y-48500499D01*
X194707483Y-48494091D01*
X194842331Y-48443796D01*
X194957546Y-48357546D01*
X195043796Y-48242331D01*
X195094091Y-48107483D01*
X195100500Y-48047873D01*
X195100499Y-45952128D01*
X195094091Y-45892517D01*
X195043796Y-45757669D01*
X194999734Y-45698810D01*
X194975317Y-45633348D01*
X194990168Y-45565075D01*
X195039573Y-45515669D01*
X195099001Y-45500500D01*
X239375500Y-45500500D01*
X239442539Y-45520185D01*
X239488294Y-45572989D01*
X239499500Y-45624500D01*
X239499500Y-89375500D01*
X239479815Y-89442539D01*
X239427011Y-89488294D01*
X239375500Y-89499500D01*
X195299001Y-89499500D01*
X195231962Y-89479815D01*
X195186207Y-89427011D01*
X195176263Y-89357853D01*
X195199734Y-89301189D01*
X195243796Y-89242331D01*
X195294091Y-89107483D01*
X195300500Y-89047873D01*
X195300499Y-87200000D01*
X196404709Y-87200000D01*
X196423852Y-87479862D01*
X196480921Y-87754499D01*
X196480926Y-87754516D01*
X196574863Y-88018828D01*
X196574864Y-88018830D01*
X196703919Y-88267896D01*
X196865688Y-88497069D01*
X196865692Y-88497073D01*
X196865692Y-88497074D01*
X197057154Y-88702080D01*
X197057155Y-88702081D01*
X197274754Y-88879111D01*
X197274756Y-88879112D01*
X197274757Y-88879113D01*
X197514433Y-89024863D01*
X197704645Y-89107483D01*
X197771725Y-89136620D01*
X198041839Y-89212303D01*
X198286159Y-89245884D01*
X198319741Y-89250500D01*
X198319742Y-89250500D01*
X198600259Y-89250500D01*
X198630219Y-89246381D01*
X198878161Y-89212303D01*
X199148275Y-89136620D01*
X199405568Y-89024862D01*
X199645246Y-88879111D01*
X199862845Y-88702081D01*
X200054312Y-88497069D01*
X200216081Y-88267896D01*
X200345136Y-88018830D01*
X200439075Y-87754511D01*
X200439077Y-87754502D01*
X200439078Y-87754499D01*
X200496148Y-87479862D01*
X200498877Y-87439961D01*
X200515291Y-87200000D01*
X200496148Y-86920138D01*
X200439075Y-86645489D01*
X200438381Y-86642149D01*
X200444014Y-86572506D01*
X200486404Y-86516965D01*
X200552093Y-86493159D01*
X200620225Y-86508646D01*
X200662889Y-86548029D01*
X200722860Y-86637781D01*
X200722863Y-86637785D01*
X200866537Y-86781459D01*
X200866559Y-86781479D01*
X201219735Y-87134655D01*
X201219764Y-87134686D01*
X201362214Y-87277136D01*
X201362218Y-87277139D01*
X201526079Y-87386628D01*
X201526092Y-87386635D01*
X201654833Y-87439961D01*
X201708159Y-87462049D01*
X201708164Y-87462051D01*
X201797706Y-87479862D01*
X201823644Y-87485021D01*
X201901456Y-87500500D01*
X201901459Y-87500500D01*
X209098543Y-87500500D01*
X209167709Y-87486741D01*
X209202294Y-87479862D01*
X209291836Y-87462051D01*
X209345165Y-87439961D01*
X209345170Y-87439974D01*
X209345273Y-87439916D01*
X209345373Y-87439874D01*
X209414848Y-87432475D01*
X209477295Y-87463813D01*
X209512888Y-87523937D01*
X209514115Y-87529254D01*
X209560922Y-87754502D01*
X209560926Y-87754516D01*
X209654863Y-88018828D01*
X209654864Y-88018830D01*
X209783919Y-88267896D01*
X209945688Y-88497069D01*
X209945692Y-88497073D01*
X209945692Y-88497074D01*
X210137154Y-88702080D01*
X210137155Y-88702081D01*
X210354754Y-88879111D01*
X210354756Y-88879112D01*
X210354757Y-88879113D01*
X210594433Y-89024863D01*
X210784645Y-89107483D01*
X210851725Y-89136620D01*
X211121839Y-89212303D01*
X211366159Y-89245884D01*
X211399741Y-89250500D01*
X211399742Y-89250500D01*
X211680259Y-89250500D01*
X211710219Y-89246381D01*
X211958161Y-89212303D01*
X212228275Y-89136620D01*
X212485568Y-89024862D01*
X212725246Y-88879111D01*
X212942845Y-88702081D01*
X213134312Y-88497069D01*
X213296081Y-88267896D01*
X213425136Y-88018830D01*
X213519075Y-87754511D01*
X213519077Y-87754502D01*
X213519078Y-87754499D01*
X213576148Y-87479862D01*
X213578877Y-87439961D01*
X213595291Y-87200000D01*
X214404709Y-87200000D01*
X214423852Y-87479862D01*
X214480921Y-87754499D01*
X214480926Y-87754516D01*
X214574863Y-88018828D01*
X214574864Y-88018830D01*
X214703919Y-88267896D01*
X214865688Y-88497069D01*
X214865692Y-88497073D01*
X214865692Y-88497074D01*
X215057154Y-88702080D01*
X215057155Y-88702081D01*
X215274754Y-88879111D01*
X215274756Y-88879112D01*
X215274757Y-88879113D01*
X215514433Y-89024863D01*
X215704645Y-89107483D01*
X215771725Y-89136620D01*
X216041839Y-89212303D01*
X216286159Y-89245884D01*
X216319741Y-89250500D01*
X216319742Y-89250500D01*
X216600259Y-89250500D01*
X216630219Y-89246381D01*
X216878161Y-89212303D01*
X217148275Y-89136620D01*
X217405568Y-89024862D01*
X217645246Y-88879111D01*
X217862845Y-88702081D01*
X218054312Y-88497069D01*
X218216081Y-88267896D01*
X218345136Y-88018830D01*
X218439075Y-87754511D01*
X218439077Y-87754502D01*
X218439078Y-87754499D01*
X218496148Y-87479862D01*
X218498877Y-87439961D01*
X218515291Y-87200000D01*
X227484709Y-87200000D01*
X227503852Y-87479862D01*
X227560921Y-87754499D01*
X227560926Y-87754516D01*
X227654863Y-88018828D01*
X227654864Y-88018830D01*
X227783919Y-88267896D01*
X227945688Y-88497069D01*
X227945692Y-88497073D01*
X227945692Y-88497074D01*
X228137154Y-88702080D01*
X228137155Y-88702081D01*
X228354754Y-88879111D01*
X228354756Y-88879112D01*
X228354757Y-88879113D01*
X228594433Y-89024863D01*
X228784645Y-89107483D01*
X228851725Y-89136620D01*
X229121839Y-89212303D01*
X229366159Y-89245884D01*
X229399741Y-89250500D01*
X229399742Y-89250500D01*
X229680259Y-89250500D01*
X229710219Y-89246381D01*
X229958161Y-89212303D01*
X230228275Y-89136620D01*
X230485568Y-89024862D01*
X230725246Y-88879111D01*
X230942845Y-88702081D01*
X231134312Y-88497069D01*
X231296081Y-88267896D01*
X231425136Y-88018830D01*
X231519075Y-87754511D01*
X231519077Y-87754502D01*
X231519078Y-87754499D01*
X231576148Y-87479862D01*
X231578877Y-87439961D01*
X231595291Y-87200000D01*
X231576148Y-86920138D01*
X231546433Y-86777141D01*
X231519078Y-86645500D01*
X231519073Y-86645483D01*
X231482271Y-86541932D01*
X231425136Y-86381170D01*
X231296081Y-86132104D01*
X231134312Y-85902931D01*
X231134307Y-85902925D01*
X230942845Y-85697919D01*
X230875172Y-85642863D01*
X230725246Y-85520889D01*
X230725244Y-85520888D01*
X230725242Y-85520886D01*
X230485566Y-85375136D01*
X230228276Y-85263380D01*
X229958166Y-85187698D01*
X229958162Y-85187697D01*
X229958161Y-85187697D01*
X229819209Y-85168598D01*
X229680259Y-85149500D01*
X229680258Y-85149500D01*
X229399742Y-85149500D01*
X229399741Y-85149500D01*
X229121839Y-85187697D01*
X229121833Y-85187698D01*
X228851723Y-85263380D01*
X228594433Y-85375136D01*
X228354757Y-85520886D01*
X228137154Y-85697919D01*
X227945692Y-85902925D01*
X227945692Y-85902926D01*
X227783919Y-86132103D01*
X227654863Y-86381171D01*
X227560926Y-86645483D01*
X227560921Y-86645500D01*
X227503852Y-86920135D01*
X227503851Y-86920137D01*
X227484709Y-87200000D01*
X218515291Y-87200000D01*
X218496148Y-86920138D01*
X218466433Y-86777141D01*
X218439078Y-86645500D01*
X218439073Y-86645483D01*
X218402271Y-86541932D01*
X218345136Y-86381170D01*
X218216081Y-86132104D01*
X218054312Y-85902931D01*
X218054307Y-85902925D01*
X217862845Y-85697919D01*
X217795172Y-85642863D01*
X217645246Y-85520889D01*
X217645244Y-85520888D01*
X217645242Y-85520886D01*
X217405566Y-85375136D01*
X217148276Y-85263380D01*
X216878166Y-85187698D01*
X216878162Y-85187697D01*
X216878161Y-85187697D01*
X216739209Y-85168598D01*
X216600259Y-85149500D01*
X216600258Y-85149500D01*
X216319742Y-85149500D01*
X216319741Y-85149500D01*
X216041839Y-85187697D01*
X216041833Y-85187698D01*
X215771723Y-85263380D01*
X215514433Y-85375136D01*
X215274757Y-85520886D01*
X215057154Y-85697919D01*
X214865692Y-85902925D01*
X214865692Y-85902926D01*
X214703919Y-86132103D01*
X214574863Y-86381171D01*
X214480926Y-86645483D01*
X214480921Y-86645500D01*
X214423852Y-86920135D01*
X214423851Y-86920137D01*
X214404709Y-87200000D01*
X213595291Y-87200000D01*
X213576148Y-86920138D01*
X213546433Y-86777141D01*
X213519078Y-86645500D01*
X213519073Y-86645483D01*
X213482271Y-86541932D01*
X213425136Y-86381170D01*
X213296081Y-86132104D01*
X213134312Y-85902931D01*
X213134307Y-85902925D01*
X212942845Y-85697919D01*
X212875172Y-85642863D01*
X212725246Y-85520889D01*
X212725244Y-85520888D01*
X212725242Y-85520886D01*
X212485566Y-85375136D01*
X212228277Y-85263381D01*
X212228275Y-85263380D01*
X212120066Y-85233061D01*
X211981883Y-85194343D01*
X211922641Y-85157301D01*
X211892830Y-85094110D01*
X211901914Y-85024833D01*
X211927655Y-84987263D01*
X214878102Y-82036819D01*
X214939425Y-82003334D01*
X214965783Y-82000500D01*
X215534218Y-82000500D01*
X215601257Y-82020185D01*
X215621899Y-82036819D01*
X218107190Y-84522111D01*
X218140675Y-84583434D01*
X218143085Y-84599552D01*
X218153455Y-84724694D01*
X218208805Y-84943268D01*
X218299375Y-85149747D01*
X218422693Y-85338497D01*
X218422697Y-85338502D01*
X218575397Y-85504380D01*
X218575406Y-85504388D01*
X218753318Y-85642863D01*
X218753324Y-85642867D01*
X218753327Y-85642869D01*
X218951620Y-85750180D01*
X218951623Y-85750181D01*
X219164868Y-85823388D01*
X219164870Y-85823388D01*
X219164872Y-85823389D01*
X219387266Y-85860500D01*
X219387267Y-85860500D01*
X219612733Y-85860500D01*
X219612734Y-85860500D01*
X219835128Y-85823389D01*
X220048380Y-85750180D01*
X220246673Y-85642869D01*
X220247217Y-85642446D01*
X220403393Y-85520889D01*
X220424600Y-85504383D01*
X220577305Y-85338500D01*
X220646192Y-85233060D01*
X220699338Y-85187705D01*
X220768569Y-85178281D01*
X220831905Y-85207783D01*
X220853808Y-85233061D01*
X220922693Y-85338497D01*
X220922697Y-85338502D01*
X221075397Y-85504380D01*
X221075406Y-85504388D01*
X221253318Y-85642863D01*
X221253324Y-85642867D01*
X221253327Y-85642869D01*
X221451620Y-85750180D01*
X221451623Y-85750181D01*
X221664868Y-85823388D01*
X221664870Y-85823388D01*
X221664872Y-85823389D01*
X221887266Y-85860500D01*
X221887267Y-85860500D01*
X222112733Y-85860500D01*
X222112734Y-85860500D01*
X222335128Y-85823389D01*
X222548380Y-85750180D01*
X222746673Y-85642869D01*
X222923839Y-85504975D01*
X222988831Y-85479333D01*
X223057371Y-85492899D01*
X223076156Y-85504971D01*
X223193238Y-85596100D01*
X223252783Y-85642446D01*
X223253327Y-85642869D01*
X223451620Y-85750180D01*
X223451623Y-85750181D01*
X223664868Y-85823388D01*
X223664870Y-85823388D01*
X223664872Y-85823389D01*
X223887266Y-85860500D01*
X223887267Y-85860500D01*
X224112733Y-85860500D01*
X224112734Y-85860500D01*
X224335128Y-85823389D01*
X224548380Y-85750180D01*
X224746673Y-85642869D01*
X224747217Y-85642446D01*
X224903393Y-85520889D01*
X224924600Y-85504383D01*
X225077305Y-85338500D01*
X225146490Y-85232604D01*
X225199636Y-85187248D01*
X225268867Y-85177825D01*
X225332203Y-85207327D01*
X225354107Y-85232605D01*
X225377711Y-85268734D01*
X226049697Y-84596748D01*
X226071349Y-84677553D01*
X226131909Y-84782446D01*
X226217554Y-84868091D01*
X226322447Y-84928651D01*
X226403250Y-84950302D01*
X225729703Y-85623848D01*
X225729704Y-85623850D01*
X225753595Y-85642444D01*
X225951820Y-85749719D01*
X225951829Y-85749722D01*
X226164992Y-85822902D01*
X226387308Y-85860000D01*
X226612692Y-85860000D01*
X226835007Y-85822902D01*
X227048170Y-85749722D01*
X227048179Y-85749719D01*
X227246401Y-85642446D01*
X227270294Y-85623849D01*
X227270294Y-85623848D01*
X226596750Y-84950302D01*
X226677553Y-84928651D01*
X226782446Y-84868091D01*
X226868091Y-84782446D01*
X226928651Y-84677553D01*
X226950302Y-84596749D01*
X227622287Y-85268734D01*
X227700181Y-85149510D01*
X227700186Y-85149502D01*
X227790720Y-84943103D01*
X227807026Y-84878711D01*
X233149500Y-84878711D01*
X233149500Y-85121288D01*
X233181161Y-85361785D01*
X233243947Y-85596104D01*
X233307577Y-85749719D01*
X233336776Y-85820212D01*
X233458064Y-86030289D01*
X233458066Y-86030292D01*
X233458067Y-86030293D01*
X233605733Y-86222736D01*
X233605739Y-86222743D01*
X233777256Y-86394260D01*
X233777262Y-86394265D01*
X233969711Y-86541936D01*
X234179788Y-86663224D01*
X234403900Y-86756054D01*
X234638211Y-86818838D01*
X234818586Y-86842584D01*
X234878711Y-86850500D01*
X234878712Y-86850500D01*
X235121289Y-86850500D01*
X235169388Y-86844167D01*
X235361789Y-86818838D01*
X235596100Y-86756054D01*
X235820212Y-86663224D01*
X236030289Y-86541936D01*
X236222738Y-86394265D01*
X236394265Y-86222738D01*
X236541936Y-86030289D01*
X236663224Y-85820212D01*
X236756054Y-85596100D01*
X236818838Y-85361789D01*
X236850500Y-85121288D01*
X236850500Y-84878712D01*
X236818838Y-84638211D01*
X236756054Y-84403900D01*
X236663224Y-84179788D01*
X236541936Y-83969711D01*
X236481018Y-83890321D01*
X236394266Y-83777263D01*
X236394260Y-83777256D01*
X236222743Y-83605739D01*
X236222736Y-83605733D01*
X236030293Y-83458067D01*
X236030292Y-83458066D01*
X236030289Y-83458064D01*
X235820212Y-83336776D01*
X235820205Y-83336773D01*
X235596104Y-83243947D01*
X235361785Y-83181161D01*
X235121289Y-83149500D01*
X235121288Y-83149500D01*
X234878712Y-83149500D01*
X234878711Y-83149500D01*
X234638214Y-83181161D01*
X234403895Y-83243947D01*
X234179794Y-83336773D01*
X234179785Y-83336777D01*
X233969706Y-83458067D01*
X233777263Y-83605733D01*
X233777256Y-83605739D01*
X233605739Y-83777256D01*
X233605733Y-83777263D01*
X233458067Y-83969706D01*
X233336777Y-84179785D01*
X233336773Y-84179794D01*
X233243947Y-84403895D01*
X233181161Y-84638214D01*
X233149500Y-84878711D01*
X227807026Y-84878711D01*
X227846049Y-84724612D01*
X227864661Y-84500005D01*
X227864661Y-84499994D01*
X227846049Y-84275387D01*
X227790720Y-84056896D01*
X227700183Y-83850491D01*
X227622287Y-83731264D01*
X226950302Y-84403249D01*
X226928651Y-84322447D01*
X226868091Y-84217554D01*
X226782446Y-84131909D01*
X226677553Y-84071349D01*
X226596749Y-84049697D01*
X227270294Y-83376151D01*
X227270294Y-83376149D01*
X227246403Y-83357555D01*
X227048178Y-83250280D01*
X227048170Y-83250277D01*
X226835007Y-83177097D01*
X226612692Y-83140000D01*
X226387308Y-83140000D01*
X226164992Y-83177097D01*
X225951829Y-83250277D01*
X225951821Y-83250280D01*
X225753596Y-83357555D01*
X225729704Y-83376149D01*
X225729704Y-83376150D01*
X226403251Y-84049697D01*
X226322447Y-84071349D01*
X226217554Y-84131909D01*
X226131909Y-84217554D01*
X226071349Y-84322447D01*
X226049697Y-84403250D01*
X225377711Y-83731265D01*
X225354107Y-83767394D01*
X225300960Y-83812750D01*
X225231729Y-83822174D01*
X225168393Y-83792672D01*
X225146490Y-83767394D01*
X225077306Y-83661502D01*
X225077305Y-83661500D01*
X224924600Y-83495617D01*
X224924597Y-83495615D01*
X224924593Y-83495611D01*
X224746681Y-83357136D01*
X224746675Y-83357132D01*
X224548381Y-83249820D01*
X224548376Y-83249818D01*
X224335131Y-83176611D01*
X224168332Y-83148777D01*
X224112734Y-83139500D01*
X223887266Y-83139500D01*
X223842787Y-83146922D01*
X223664868Y-83176611D01*
X223451623Y-83249818D01*
X223451618Y-83249820D01*
X223253324Y-83357132D01*
X223253318Y-83357136D01*
X223076162Y-83495023D01*
X223011168Y-83520666D01*
X222942628Y-83507100D01*
X222923838Y-83495023D01*
X222746681Y-83357136D01*
X222746675Y-83357132D01*
X222548381Y-83249820D01*
X222548376Y-83249818D01*
X222335131Y-83176611D01*
X222168332Y-83148777D01*
X222112734Y-83139500D01*
X221887266Y-83139500D01*
X221842787Y-83146922D01*
X221664868Y-83176611D01*
X221451623Y-83249818D01*
X221451618Y-83249820D01*
X221253324Y-83357132D01*
X221253318Y-83357136D01*
X221075406Y-83495611D01*
X221075397Y-83495619D01*
X220922697Y-83661497D01*
X220922693Y-83661502D01*
X220853808Y-83766938D01*
X220800661Y-83812295D01*
X220731430Y-83821718D01*
X220668095Y-83792215D01*
X220646192Y-83766938D01*
X220577306Y-83661502D01*
X220577305Y-83661500D01*
X220424600Y-83495617D01*
X220424597Y-83495615D01*
X220424593Y-83495611D01*
X220246681Y-83357136D01*
X220246675Y-83357132D01*
X220048381Y-83249820D01*
X220048376Y-83249818D01*
X219835131Y-83176611D01*
X219668332Y-83148777D01*
X219612734Y-83139500D01*
X219612733Y-83139500D01*
X219605783Y-83139500D01*
X219538744Y-83119815D01*
X219518102Y-83103181D01*
X217036819Y-80621898D01*
X217003334Y-80560575D01*
X217000500Y-80534217D01*
X217000500Y-77499999D01*
X234794357Y-77499999D01*
X234794357Y-77500000D01*
X234814884Y-77721535D01*
X234814885Y-77721537D01*
X234875769Y-77935523D01*
X234875775Y-77935538D01*
X234974938Y-78134683D01*
X234974943Y-78134691D01*
X235109020Y-78312238D01*
X235273437Y-78462123D01*
X235273439Y-78462125D01*
X235462595Y-78579245D01*
X235462596Y-78579245D01*
X235462599Y-78579247D01*
X235670060Y-78659618D01*
X235888757Y-78700500D01*
X235888759Y-78700500D01*
X236111241Y-78700500D01*
X236111243Y-78700500D01*
X236329940Y-78659618D01*
X236537401Y-78579247D01*
X236726562Y-78462124D01*
X236890981Y-78312236D01*
X237025058Y-78134689D01*
X237124229Y-77935528D01*
X237185115Y-77721536D01*
X237205643Y-77500000D01*
X237203290Y-77474612D01*
X237185115Y-77278464D01*
X237185114Y-77278462D01*
X237184382Y-77275890D01*
X237124229Y-77064472D01*
X237100257Y-77016330D01*
X237025061Y-76865316D01*
X237025056Y-76865308D01*
X236890979Y-76687761D01*
X236726562Y-76537876D01*
X236726560Y-76537874D01*
X236537404Y-76420754D01*
X236537398Y-76420752D01*
X236329940Y-76340382D01*
X236111243Y-76299500D01*
X235888757Y-76299500D01*
X235670060Y-76340382D01*
X235538864Y-76391207D01*
X235462601Y-76420752D01*
X235462595Y-76420754D01*
X235273439Y-76537874D01*
X235273437Y-76537876D01*
X235109020Y-76687761D01*
X234974943Y-76865308D01*
X234974938Y-76865316D01*
X234875775Y-77064461D01*
X234875769Y-77064476D01*
X234814885Y-77278462D01*
X234814884Y-77278464D01*
X234794357Y-77499999D01*
X217000500Y-77499999D01*
X217000500Y-75499997D01*
X221695034Y-75499997D01*
X221695034Y-75500002D01*
X221714858Y-75726599D01*
X221714860Y-75726610D01*
X221773730Y-75946317D01*
X221773735Y-75946331D01*
X221869863Y-76152478D01*
X221920974Y-76225472D01*
X222600000Y-75546446D01*
X222600000Y-75552661D01*
X222627259Y-75654394D01*
X222679920Y-75745606D01*
X222754394Y-75820080D01*
X222845606Y-75872741D01*
X222947339Y-75900000D01*
X222953553Y-75900000D01*
X222274526Y-76579025D01*
X222347513Y-76630132D01*
X222347521Y-76630136D01*
X222553668Y-76726264D01*
X222553682Y-76726269D01*
X222773389Y-76785139D01*
X222773400Y-76785141D01*
X222999998Y-76804966D01*
X223000002Y-76804966D01*
X223226599Y-76785141D01*
X223226610Y-76785139D01*
X223446317Y-76726269D01*
X223446331Y-76726264D01*
X223652478Y-76630136D01*
X223725471Y-76579024D01*
X223046447Y-75900000D01*
X223052661Y-75900000D01*
X223154394Y-75872741D01*
X223245606Y-75820080D01*
X223320080Y-75745606D01*
X223372741Y-75654394D01*
X223400000Y-75552661D01*
X223400000Y-75546447D01*
X224079024Y-76225471D01*
X224130136Y-76152478D01*
X224226264Y-75946331D01*
X224226269Y-75946317D01*
X224285139Y-75726610D01*
X224285141Y-75726599D01*
X224304966Y-75500002D01*
X224304966Y-75499997D01*
X224285141Y-75273400D01*
X224285139Y-75273389D01*
X224226269Y-75053682D01*
X224226264Y-75053668D01*
X224130136Y-74847521D01*
X224130132Y-74847513D01*
X224079025Y-74774526D01*
X223400000Y-75453551D01*
X223400000Y-75447339D01*
X223372741Y-75345606D01*
X223320080Y-75254394D01*
X223245606Y-75179920D01*
X223154394Y-75127259D01*
X223052661Y-75100000D01*
X223046448Y-75100000D01*
X223725472Y-74420974D01*
X223652478Y-74369863D01*
X223446331Y-74273735D01*
X223446317Y-74273730D01*
X223226610Y-74214860D01*
X223226599Y-74214858D01*
X223000002Y-74195034D01*
X222999998Y-74195034D01*
X222773400Y-74214858D01*
X222773389Y-74214860D01*
X222553682Y-74273730D01*
X222553673Y-74273734D01*
X222347516Y-74369866D01*
X222347512Y-74369868D01*
X222274526Y-74420973D01*
X222274526Y-74420974D01*
X222953553Y-75100000D01*
X222947339Y-75100000D01*
X222845606Y-75127259D01*
X222754394Y-75179920D01*
X222679920Y-75254394D01*
X222627259Y-75345606D01*
X222600000Y-75447339D01*
X222600000Y-75453552D01*
X221920974Y-74774526D01*
X221920973Y-74774526D01*
X221869868Y-74847512D01*
X221869866Y-74847516D01*
X221773734Y-75053673D01*
X221773730Y-75053682D01*
X221714860Y-75273389D01*
X221714858Y-75273400D01*
X221695034Y-75499997D01*
X217000500Y-75499997D01*
X217000500Y-74611456D01*
X216962052Y-74418170D01*
X216962051Y-74418169D01*
X216962051Y-74418165D01*
X216948424Y-74385266D01*
X216886635Y-74236092D01*
X216886628Y-74236079D01*
X216777139Y-74072218D01*
X216777136Y-74072214D01*
X216634686Y-73929764D01*
X216634655Y-73929735D01*
X215285085Y-72580165D01*
X215251600Y-72518842D01*
X215249238Y-72503287D01*
X215248070Y-72489935D01*
X215248070Y-72489932D01*
X215190894Y-72276550D01*
X215097534Y-72076339D01*
X214970826Y-71895380D01*
X214814620Y-71739174D01*
X214814616Y-71739171D01*
X214814615Y-71739170D01*
X214633666Y-71612468D01*
X214633662Y-71612466D01*
X214583407Y-71589032D01*
X214433450Y-71519106D01*
X214433447Y-71519105D01*
X214433445Y-71519104D01*
X214220070Y-71461930D01*
X214220062Y-71461929D01*
X214000002Y-71442677D01*
X213999998Y-71442677D01*
X213779937Y-71461929D01*
X213779929Y-71461930D01*
X213566554Y-71519104D01*
X213566548Y-71519107D01*
X213366340Y-71612465D01*
X213366338Y-71612466D01*
X213185377Y-71739175D01*
X213029175Y-71895377D01*
X212902466Y-72076338D01*
X212902465Y-72076340D01*
X212809107Y-72276548D01*
X212809104Y-72276554D01*
X212751930Y-72489929D01*
X212751929Y-72489937D01*
X212732677Y-72709997D01*
X212732677Y-72710002D01*
X212751929Y-72930062D01*
X212751930Y-72930070D01*
X212809104Y-73143445D01*
X212809105Y-73143447D01*
X212809106Y-73143450D01*
X212863069Y-73259174D01*
X212902466Y-73343662D01*
X212902468Y-73343666D01*
X213029170Y-73524615D01*
X213029175Y-73524621D01*
X213185378Y-73680824D01*
X213185384Y-73680829D01*
X213366333Y-73807531D01*
X213366335Y-73807532D01*
X213366338Y-73807534D01*
X213473858Y-73857671D01*
X213495781Y-73867894D01*
X213548220Y-73914066D01*
X213567372Y-73981260D01*
X213547156Y-74048141D01*
X213495781Y-74092658D01*
X213366590Y-74152901D01*
X213301811Y-74198258D01*
X213972553Y-74869000D01*
X213949840Y-74869000D01*
X213852939Y-74894964D01*
X213766060Y-74945124D01*
X213695124Y-75016060D01*
X213644964Y-75102939D01*
X213619000Y-75199840D01*
X213619000Y-75222552D01*
X212948258Y-74551811D01*
X212902901Y-74616590D01*
X212809579Y-74816720D01*
X212809575Y-74816729D01*
X212752426Y-75030013D01*
X212752424Y-75030023D01*
X212733179Y-75249999D01*
X212733179Y-75250000D01*
X212752424Y-75469976D01*
X212752426Y-75469986D01*
X212809575Y-75683270D01*
X212809580Y-75683284D01*
X212902898Y-75883405D01*
X212902901Y-75883411D01*
X212948258Y-75948187D01*
X212948259Y-75948188D01*
X213619000Y-75277447D01*
X213619000Y-75300160D01*
X213644964Y-75397061D01*
X213695124Y-75483940D01*
X213766060Y-75554876D01*
X213852939Y-75605036D01*
X213949840Y-75631000D01*
X213972551Y-75631000D01*
X213301810Y-76301740D01*
X213366589Y-76347098D01*
X213495781Y-76407342D01*
X213548220Y-76453514D01*
X213567372Y-76520708D01*
X213547156Y-76587589D01*
X213495781Y-76632106D01*
X213366340Y-76692465D01*
X213366338Y-76692466D01*
X213185377Y-76819175D01*
X213029175Y-76975377D01*
X212902466Y-77156338D01*
X212902465Y-77156340D01*
X212809107Y-77356548D01*
X212809104Y-77356554D01*
X212751930Y-77569929D01*
X212751929Y-77569937D01*
X212732677Y-77789997D01*
X212732677Y-77790002D01*
X212751929Y-78010062D01*
X212751930Y-78010070D01*
X212809104Y-78223445D01*
X212809105Y-78223447D01*
X212809106Y-78223450D01*
X212902466Y-78423662D01*
X212902468Y-78423666D01*
X213029170Y-78604615D01*
X213029175Y-78604621D01*
X213185378Y-78760824D01*
X213185384Y-78760829D01*
X213366333Y-78887531D01*
X213366335Y-78887532D01*
X213366338Y-78887534D01*
X213566550Y-78980894D01*
X213779932Y-79038070D01*
X213937123Y-79051822D01*
X213999998Y-79057323D01*
X214000000Y-79057323D01*
X214000002Y-79057323D01*
X214055017Y-79052509D01*
X214220068Y-79038070D01*
X214433450Y-78980894D01*
X214633662Y-78887534D01*
X214804378Y-78767997D01*
X214870582Y-78745671D01*
X214938350Y-78762681D01*
X214986163Y-78813629D01*
X214999500Y-78869573D01*
X214999500Y-79875500D01*
X214979815Y-79942539D01*
X214927011Y-79988294D01*
X214875500Y-79999500D01*
X214604675Y-79999500D01*
X214604655Y-79999499D01*
X214598541Y-79999499D01*
X214401460Y-79999499D01*
X214401457Y-79999499D01*
X214208172Y-80037946D01*
X214208164Y-80037948D01*
X214026088Y-80113366D01*
X214026079Y-80113371D01*
X213862219Y-80222859D01*
X213862215Y-80222862D01*
X209991455Y-84093623D01*
X209930132Y-84127108D01*
X209860440Y-84122124D01*
X209804507Y-84080252D01*
X209790218Y-84055752D01*
X209700183Y-83850491D01*
X209622287Y-83731264D01*
X208950302Y-84403249D01*
X208928651Y-84322447D01*
X208868091Y-84217554D01*
X208782446Y-84131909D01*
X208677553Y-84071349D01*
X208596749Y-84049697D01*
X209270294Y-83376151D01*
X209270294Y-83376149D01*
X209246403Y-83357555D01*
X209048178Y-83250280D01*
X209048170Y-83250277D01*
X208835007Y-83177097D01*
X208612692Y-83140000D01*
X208387308Y-83140000D01*
X208164992Y-83177097D01*
X207951829Y-83250277D01*
X207951821Y-83250280D01*
X207753596Y-83357555D01*
X207729704Y-83376149D01*
X207729704Y-83376150D01*
X208403251Y-84049697D01*
X208322447Y-84071349D01*
X208217554Y-84131909D01*
X208131909Y-84217554D01*
X208071349Y-84322447D01*
X208049697Y-84403251D01*
X207377711Y-83731265D01*
X207354107Y-83767394D01*
X207300960Y-83812750D01*
X207231729Y-83822174D01*
X207168393Y-83792672D01*
X207146490Y-83767394D01*
X207077306Y-83661502D01*
X207077305Y-83661500D01*
X206924600Y-83495617D01*
X206924597Y-83495615D01*
X206924593Y-83495611D01*
X206746681Y-83357136D01*
X206746675Y-83357132D01*
X206548381Y-83249820D01*
X206548376Y-83249818D01*
X206335131Y-83176611D01*
X206168332Y-83148777D01*
X206112734Y-83139500D01*
X205887266Y-83139500D01*
X205842787Y-83146922D01*
X205664868Y-83176611D01*
X205451623Y-83249818D01*
X205451618Y-83249820D01*
X205253324Y-83357132D01*
X205253318Y-83357136D01*
X205076162Y-83495023D01*
X205011168Y-83520666D01*
X204942628Y-83507100D01*
X204923838Y-83495023D01*
X204746681Y-83357136D01*
X204746675Y-83357132D01*
X204548381Y-83249820D01*
X204548376Y-83249818D01*
X204335131Y-83176611D01*
X204168332Y-83148777D01*
X204112734Y-83139500D01*
X203887266Y-83139500D01*
X203842787Y-83146922D01*
X203664868Y-83176611D01*
X203451623Y-83249818D01*
X203451618Y-83249820D01*
X203253324Y-83357132D01*
X203253318Y-83357136D01*
X203075406Y-83495611D01*
X203075397Y-83495619D01*
X202922697Y-83661497D01*
X202922693Y-83661502D01*
X202853808Y-83766938D01*
X202800661Y-83812295D01*
X202731430Y-83821718D01*
X202668095Y-83792215D01*
X202646192Y-83766938D01*
X202577306Y-83661502D01*
X202577305Y-83661500D01*
X202424600Y-83495617D01*
X202424597Y-83495615D01*
X202424593Y-83495611D01*
X202246681Y-83357136D01*
X202246675Y-83357132D01*
X202048381Y-83249820D01*
X202048376Y-83249818D01*
X201835131Y-83176611D01*
X201668332Y-83148777D01*
X201612734Y-83139500D01*
X201387266Y-83139500D01*
X201342787Y-83146922D01*
X201164868Y-83176611D01*
X200951623Y-83249818D01*
X200951618Y-83249820D01*
X200753324Y-83357132D01*
X200753318Y-83357136D01*
X200575406Y-83495611D01*
X200575397Y-83495619D01*
X200422697Y-83661497D01*
X200422693Y-83661502D01*
X200299375Y-83850252D01*
X200208805Y-84056731D01*
X200153455Y-84275305D01*
X200134837Y-84499994D01*
X200134837Y-84500005D01*
X200153455Y-84724694D01*
X200208805Y-84943268D01*
X200299375Y-85149747D01*
X200373616Y-85263380D01*
X200422695Y-85338500D01*
X200466730Y-85386335D01*
X200497652Y-85448989D01*
X200499500Y-85470317D01*
X200499500Y-86098545D01*
X200516322Y-86183115D01*
X200510095Y-86252707D01*
X200467232Y-86307884D01*
X200401342Y-86331128D01*
X200333345Y-86315060D01*
X200284829Y-86264781D01*
X200284607Y-86264354D01*
X200263046Y-86222743D01*
X200216081Y-86132104D01*
X200054312Y-85902931D01*
X200054307Y-85902925D01*
X199862845Y-85697919D01*
X199795172Y-85642863D01*
X199645246Y-85520889D01*
X199645244Y-85520888D01*
X199645242Y-85520886D01*
X199405566Y-85375136D01*
X199148276Y-85263380D01*
X198878166Y-85187698D01*
X198878162Y-85187697D01*
X198878161Y-85187697D01*
X198739209Y-85168598D01*
X198600259Y-85149500D01*
X198600258Y-85149500D01*
X198319742Y-85149500D01*
X198319741Y-85149500D01*
X198041839Y-85187697D01*
X198041833Y-85187698D01*
X197771723Y-85263380D01*
X197514433Y-85375136D01*
X197274757Y-85520886D01*
X197057154Y-85697919D01*
X196865692Y-85902925D01*
X196865692Y-85902926D01*
X196703919Y-86132103D01*
X196574863Y-86381171D01*
X196480926Y-86645483D01*
X196480921Y-86645500D01*
X196423852Y-86920135D01*
X196423851Y-86920137D01*
X196404709Y-87200000D01*
X195300499Y-87200000D01*
X195300499Y-86952128D01*
X195294091Y-86892517D01*
X195243796Y-86757669D01*
X195243795Y-86757668D01*
X195243793Y-86757664D01*
X195157547Y-86642455D01*
X195157544Y-86642452D01*
X195042335Y-86556206D01*
X195042328Y-86556202D01*
X194907482Y-86505908D01*
X194907483Y-86505908D01*
X194847883Y-86499501D01*
X194847881Y-86499500D01*
X194847873Y-86499500D01*
X194847864Y-86499500D01*
X193852129Y-86499500D01*
X193852123Y-86499501D01*
X193792516Y-86505908D01*
X193657671Y-86556202D01*
X193657664Y-86556206D01*
X193542455Y-86642452D01*
X193542452Y-86642455D01*
X193456206Y-86757664D01*
X193456202Y-86757671D01*
X193405908Y-86892517D01*
X193402939Y-86920137D01*
X193399501Y-86952123D01*
X193399500Y-86952135D01*
X193399500Y-89047870D01*
X193399501Y-89047876D01*
X193405908Y-89107483D01*
X193456202Y-89242328D01*
X193456204Y-89242331D01*
X193500265Y-89301189D01*
X193524683Y-89366652D01*
X193509832Y-89434925D01*
X193460427Y-89484331D01*
X193400999Y-89499500D01*
X181799001Y-89499500D01*
X181731962Y-89479815D01*
X181686207Y-89427011D01*
X181676263Y-89357853D01*
X181699734Y-89301189D01*
X181743796Y-89242331D01*
X181794091Y-89107483D01*
X181800500Y-89047873D01*
X181800499Y-86952128D01*
X181794091Y-86892517D01*
X181743796Y-86757669D01*
X181743795Y-86757668D01*
X181743793Y-86757664D01*
X181657547Y-86642455D01*
X181657544Y-86642452D01*
X181542335Y-86556206D01*
X181542328Y-86556202D01*
X181407482Y-86505908D01*
X181407483Y-86505908D01*
X181347883Y-86499501D01*
X181347881Y-86499500D01*
X181347873Y-86499500D01*
X181347864Y-86499500D01*
X180352129Y-86499500D01*
X180352123Y-86499501D01*
X180292516Y-86505908D01*
X180157671Y-86556202D01*
X180157664Y-86556206D01*
X180042455Y-86642452D01*
X180042452Y-86642455D01*
X179956206Y-86757664D01*
X179956202Y-86757671D01*
X179905908Y-86892517D01*
X179902939Y-86920137D01*
X179899501Y-86952123D01*
X179899500Y-86952135D01*
X179899500Y-89047870D01*
X179899501Y-89047876D01*
X179905908Y-89107483D01*
X179956202Y-89242328D01*
X179956204Y-89242331D01*
X180000265Y-89301189D01*
X180024683Y-89366652D01*
X180009832Y-89434925D01*
X179960427Y-89484331D01*
X179900999Y-89499500D01*
X170624500Y-89499500D01*
X170557461Y-89479815D01*
X170511706Y-89427011D01*
X170500500Y-89375500D01*
X170500500Y-84878711D01*
X173149500Y-84878711D01*
X173149500Y-85121288D01*
X173181161Y-85361785D01*
X173243947Y-85596104D01*
X173307577Y-85749719D01*
X173336776Y-85820212D01*
X173458064Y-86030289D01*
X173458066Y-86030292D01*
X173458067Y-86030293D01*
X173605733Y-86222736D01*
X173605739Y-86222743D01*
X173777256Y-86394260D01*
X173777262Y-86394265D01*
X173969711Y-86541936D01*
X174179788Y-86663224D01*
X174403900Y-86756054D01*
X174638211Y-86818838D01*
X174818586Y-86842584D01*
X174878711Y-86850500D01*
X174878712Y-86850500D01*
X175121289Y-86850500D01*
X175169388Y-86844167D01*
X175361789Y-86818838D01*
X175596100Y-86756054D01*
X175820212Y-86663224D01*
X176030289Y-86541936D01*
X176222738Y-86394265D01*
X176394265Y-86222738D01*
X176541936Y-86030289D01*
X176663224Y-85820212D01*
X176756054Y-85596100D01*
X176818838Y-85361789D01*
X176850500Y-85121288D01*
X176850500Y-84878712D01*
X176818838Y-84638211D01*
X176756054Y-84403900D01*
X176663224Y-84179788D01*
X176541936Y-83969711D01*
X176481018Y-83890321D01*
X176394266Y-83777263D01*
X176394260Y-83777256D01*
X176222743Y-83605739D01*
X176222736Y-83605733D01*
X176030293Y-83458067D01*
X176030292Y-83458066D01*
X176030289Y-83458064D01*
X175820212Y-83336776D01*
X175820205Y-83336773D01*
X175596104Y-83243947D01*
X175361785Y-83181161D01*
X175121289Y-83149500D01*
X175121288Y-83149500D01*
X174878712Y-83149500D01*
X174878711Y-83149500D01*
X174638214Y-83181161D01*
X174403895Y-83243947D01*
X174179794Y-83336773D01*
X174179785Y-83336777D01*
X173969706Y-83458067D01*
X173777263Y-83605733D01*
X173777256Y-83605739D01*
X173605739Y-83777256D01*
X173605733Y-83777263D01*
X173458067Y-83969706D01*
X173336777Y-84179785D01*
X173336773Y-84179794D01*
X173243947Y-84403895D01*
X173181161Y-84638214D01*
X173149500Y-84878711D01*
X170500500Y-84878711D01*
X170500500Y-80904731D01*
X181450000Y-80904731D01*
X181450000Y-81750000D01*
X182672769Y-81750000D01*
X182650000Y-81893753D01*
X182650000Y-82106247D01*
X182672769Y-82250000D01*
X181450000Y-82250000D01*
X181450000Y-83095268D01*
X181460215Y-83239958D01*
X181460217Y-83239968D01*
X181514313Y-83480165D01*
X181514315Y-83480172D01*
X181606244Y-83708585D01*
X181733620Y-83919289D01*
X181733627Y-83919299D01*
X181893153Y-84106846D01*
X182080700Y-84266372D01*
X182080710Y-84266379D01*
X182291414Y-84393755D01*
X182519827Y-84485684D01*
X182519834Y-84485686D01*
X182760031Y-84539782D01*
X182760041Y-84539784D01*
X182904731Y-84549999D01*
X182904734Y-84550000D01*
X183750000Y-84550000D01*
X183750000Y-83327231D01*
X183893753Y-83350000D01*
X184106247Y-83350000D01*
X184250000Y-83327231D01*
X184250000Y-84550000D01*
X185095266Y-84550000D01*
X185095268Y-84549999D01*
X185239958Y-84539784D01*
X185239968Y-84539782D01*
X185480165Y-84485686D01*
X185480172Y-84485684D01*
X185708585Y-84393755D01*
X185919289Y-84266379D01*
X185919299Y-84266372D01*
X186106846Y-84106846D01*
X186266372Y-83919299D01*
X186266379Y-83919289D01*
X186393755Y-83708585D01*
X186485684Y-83480172D01*
X186485686Y-83480165D01*
X186539782Y-83239968D01*
X186539784Y-83239958D01*
X186549999Y-83095268D01*
X186550000Y-83095266D01*
X186550000Y-82250000D01*
X185327231Y-82250000D01*
X185350000Y-82106247D01*
X185350000Y-81893753D01*
X185340138Y-81831490D01*
X188199500Y-81831490D01*
X188199500Y-82168505D01*
X188237231Y-82503381D01*
X188237233Y-82503397D01*
X188312223Y-82831953D01*
X188312227Y-82831965D01*
X188423532Y-83150054D01*
X188569752Y-83453683D01*
X188625216Y-83541953D01*
X188749054Y-83739039D01*
X188837745Y-83850254D01*
X188933008Y-83969711D01*
X188959176Y-84002524D01*
X189197476Y-84240824D01*
X189460961Y-84450946D01*
X189746314Y-84630246D01*
X190049949Y-84776469D01*
X190270242Y-84853553D01*
X190368034Y-84887772D01*
X190368046Y-84887776D01*
X190696606Y-84962767D01*
X191031491Y-85000499D01*
X191031492Y-85000500D01*
X191031495Y-85000500D01*
X191368508Y-85000500D01*
X191368508Y-85000499D01*
X191703394Y-84962767D01*
X192031954Y-84887776D01*
X192350051Y-84776469D01*
X192653686Y-84630246D01*
X192939039Y-84450946D01*
X193202524Y-84240824D01*
X195140824Y-82302524D01*
X195247701Y-82168505D01*
X195350946Y-82039039D01*
X195530246Y-81753686D01*
X195577550Y-81655455D01*
X195624370Y-81603599D01*
X195691797Y-81585285D01*
X195703151Y-81586038D01*
X195831490Y-81600499D01*
X195831491Y-81600500D01*
X195831495Y-81600500D01*
X200168507Y-81600500D01*
X200168507Y-81600499D01*
X200503394Y-81562767D01*
X200831954Y-81487776D01*
X201150051Y-81376469D01*
X201453686Y-81230246D01*
X201739039Y-81050946D01*
X202002523Y-80840825D01*
X202240825Y-80602523D01*
X202450946Y-80339039D01*
X202630246Y-80053686D01*
X202776469Y-79750051D01*
X202808313Y-79659043D01*
X202849034Y-79602267D01*
X202909169Y-79577059D01*
X202991116Y-79566271D01*
X203244419Y-79498398D01*
X203486697Y-79398043D01*
X203713803Y-79266924D01*
X203790025Y-79208436D01*
X203866248Y-79149949D01*
X203866248Y-79149947D01*
X203896282Y-79126902D01*
X203921845Y-79107288D01*
X203921856Y-79107278D01*
X207507278Y-75521856D01*
X207507283Y-75521851D01*
X207629114Y-75363077D01*
X207666924Y-75313803D01*
X207798043Y-75086697D01*
X207898398Y-74844419D01*
X207911806Y-74794380D01*
X207966271Y-74591116D01*
X207993371Y-74385266D01*
X208000500Y-74331120D01*
X208000500Y-70249999D01*
X208881127Y-70249999D01*
X208881128Y-70250000D01*
X209844314Y-70250000D01*
X209839920Y-70254394D01*
X209787259Y-70345606D01*
X209760000Y-70447339D01*
X209760000Y-70552661D01*
X209787259Y-70654394D01*
X209839920Y-70745606D01*
X209844314Y-70750000D01*
X208881128Y-70750000D01*
X208933730Y-70946317D01*
X208933734Y-70946326D01*
X209029865Y-71152482D01*
X209160342Y-71338820D01*
X209321179Y-71499657D01*
X209507517Y-71630134D01*
X209713673Y-71726265D01*
X209713682Y-71726269D01*
X209909999Y-71778872D01*
X209910000Y-71778871D01*
X209910000Y-70815686D01*
X209914394Y-70820080D01*
X210005606Y-70872741D01*
X210107339Y-70900000D01*
X210212661Y-70900000D01*
X210314394Y-70872741D01*
X210405606Y-70820080D01*
X210410000Y-70815686D01*
X210410000Y-71778872D01*
X210606317Y-71726269D01*
X210606326Y-71726265D01*
X210812482Y-71630134D01*
X210998820Y-71499657D01*
X211159657Y-71338820D01*
X211290134Y-71152482D01*
X211386265Y-70946326D01*
X211386269Y-70946317D01*
X211438872Y-70750000D01*
X210475686Y-70750000D01*
X210480080Y-70745606D01*
X210532741Y-70654394D01*
X210560000Y-70552661D01*
X210560000Y-70447339D01*
X210532741Y-70345606D01*
X210480080Y-70254394D01*
X210475686Y-70250000D01*
X211438872Y-70250000D01*
X211438872Y-70249999D01*
X211386269Y-70053682D01*
X211386265Y-70053673D01*
X211290134Y-69847517D01*
X211159657Y-69661179D01*
X210998820Y-69500342D01*
X210812482Y-69369865D01*
X210606328Y-69273734D01*
X210410000Y-69221127D01*
X210410000Y-70184314D01*
X210405606Y-70179920D01*
X210314394Y-70127259D01*
X210212661Y-70100000D01*
X210107339Y-70100000D01*
X210005606Y-70127259D01*
X209914394Y-70179920D01*
X209910000Y-70184314D01*
X209910000Y-69221127D01*
X209713671Y-69273734D01*
X209507517Y-69369865D01*
X209321179Y-69500342D01*
X209160342Y-69661179D01*
X209029865Y-69847517D01*
X208933734Y-70053673D01*
X208933730Y-70053682D01*
X208881127Y-70249999D01*
X208000500Y-70249999D01*
X208000500Y-69868880D01*
X207997654Y-69847267D01*
X207977208Y-69691966D01*
X207977208Y-69691965D01*
X207973080Y-69660611D01*
X207966271Y-69608885D01*
X207898398Y-69355581D01*
X207798043Y-69113303D01*
X207666924Y-68886197D01*
X207597611Y-68795868D01*
X207507283Y-68678149D01*
X207507280Y-68678146D01*
X207507277Y-68678142D01*
X206136819Y-67307684D01*
X206103334Y-67246361D01*
X206100500Y-67220003D01*
X206100500Y-62824461D01*
X206120185Y-62757422D01*
X206136809Y-62736790D01*
X206251903Y-62621696D01*
X206313220Y-62588215D01*
X206382912Y-62593199D01*
X206438846Y-62635070D01*
X206446649Y-62648092D01*
X206447161Y-62647797D01*
X206449865Y-62652481D01*
X206580342Y-62838820D01*
X206741179Y-62999657D01*
X206927517Y-63130134D01*
X207133673Y-63226265D01*
X207133682Y-63226269D01*
X207329999Y-63278872D01*
X207330000Y-63278871D01*
X207330000Y-62315686D01*
X207334394Y-62320080D01*
X207425606Y-62372741D01*
X207527339Y-62400000D01*
X207632661Y-62400000D01*
X207734394Y-62372741D01*
X207825606Y-62320080D01*
X207830000Y-62315686D01*
X207830000Y-63278872D01*
X208026317Y-63226269D01*
X208026326Y-63226265D01*
X208232482Y-63130134D01*
X208418820Y-62999657D01*
X208579657Y-62838820D01*
X208710134Y-62652482D01*
X208806265Y-62446326D01*
X208806269Y-62446317D01*
X208858872Y-62250000D01*
X207895686Y-62250000D01*
X207900080Y-62245606D01*
X207952741Y-62154394D01*
X207980000Y-62052661D01*
X207980000Y-61947339D01*
X207952741Y-61845606D01*
X207900080Y-61754394D01*
X207895686Y-61750000D01*
X208858872Y-61750000D01*
X208858872Y-61749999D01*
X208806269Y-61553682D01*
X208806265Y-61553673D01*
X208710134Y-61347517D01*
X208579657Y-61161179D01*
X208418820Y-61000342D01*
X208232478Y-60869863D01*
X208227793Y-60867158D01*
X208229039Y-60864998D01*
X208184483Y-60825702D01*
X208165387Y-60758493D01*
X208185658Y-60691629D01*
X208201688Y-60671912D01*
X208507283Y-60366318D01*
X208507284Y-60366315D01*
X208512647Y-60360953D01*
X208512654Y-60360944D01*
X208836782Y-60036816D01*
X208898104Y-60003334D01*
X208924462Y-60000500D01*
X219594877Y-60000500D01*
X219661916Y-60020185D01*
X219682558Y-60036819D01*
X219963181Y-60317442D01*
X219996666Y-60378765D01*
X219999500Y-60405123D01*
X219999500Y-66095592D01*
X220004522Y-66133728D01*
X220004522Y-66133730D01*
X220033728Y-66355580D01*
X220054494Y-66433076D01*
X220101602Y-66608885D01*
X220201951Y-66851151D01*
X220201958Y-66851166D01*
X220309531Y-67037488D01*
X220333076Y-67078269D01*
X220402388Y-67168597D01*
X220492715Y-67286315D01*
X220492718Y-67286319D01*
X222377922Y-69171522D01*
X222411407Y-69232845D01*
X222406423Y-69302537D01*
X222364551Y-69358470D01*
X222351667Y-69366212D01*
X222351961Y-69366721D01*
X222347268Y-69369430D01*
X222160858Y-69499954D01*
X221999954Y-69660858D01*
X221869432Y-69847265D01*
X221869431Y-69847267D01*
X221773261Y-70053502D01*
X221773258Y-70053511D01*
X221714366Y-70273302D01*
X221714364Y-70273313D01*
X221694532Y-70499998D01*
X221694532Y-70500001D01*
X221714364Y-70726686D01*
X221714366Y-70726697D01*
X221773258Y-70946488D01*
X221773261Y-70946497D01*
X221869431Y-71152732D01*
X221869432Y-71152734D01*
X221999954Y-71339141D01*
X222160858Y-71500045D01*
X222160861Y-71500047D01*
X222347266Y-71630568D01*
X222553504Y-71726739D01*
X222773308Y-71785635D01*
X222935230Y-71799801D01*
X222999998Y-71805468D01*
X223000000Y-71805468D01*
X223000002Y-71805468D01*
X223056673Y-71800509D01*
X223226692Y-71785635D01*
X223446496Y-71726739D01*
X223652734Y-71630568D01*
X223839139Y-71500047D01*
X224000047Y-71339139D01*
X224130568Y-71152734D01*
X224130572Y-71152725D01*
X224133276Y-71148043D01*
X224135564Y-71149364D01*
X224174197Y-71105159D01*
X224241319Y-71085758D01*
X224308275Y-71105726D01*
X224328476Y-71122076D01*
X229213677Y-76007278D01*
X229213684Y-76007284D01*
X229327682Y-76094757D01*
X229327683Y-76094759D01*
X229421729Y-76166923D01*
X229421731Y-76166924D01*
X229603746Y-76272009D01*
X229623492Y-76286159D01*
X229627043Y-76289273D01*
X229627046Y-76289275D01*
X229627053Y-76289281D01*
X229872332Y-76453170D01*
X229872339Y-76453174D01*
X230004629Y-76518412D01*
X230136923Y-76583652D01*
X230416278Y-76678481D01*
X230705620Y-76736034D01*
X230733888Y-76737886D01*
X230999993Y-76755329D01*
X231000000Y-76755329D01*
X231000007Y-76755329D01*
X231235675Y-76739881D01*
X231294380Y-76736034D01*
X231583722Y-76678481D01*
X231863077Y-76583652D01*
X232127665Y-76453172D01*
X232372957Y-76289273D01*
X232594758Y-76094758D01*
X232789273Y-75872957D01*
X232953172Y-75627665D01*
X233083652Y-75363077D01*
X233178481Y-75083722D01*
X233236034Y-74794380D01*
X233247687Y-74616590D01*
X233255329Y-74500007D01*
X233255329Y-74499992D01*
X233236640Y-74214860D01*
X233236034Y-74205620D01*
X233178481Y-73916278D01*
X233083652Y-73636923D01*
X232953172Y-73372336D01*
X232934015Y-73343666D01*
X232825385Y-73181089D01*
X232789273Y-73127043D01*
X232714156Y-73041389D01*
X232594758Y-72905241D01*
X232372955Y-72710725D01*
X232127667Y-72546829D01*
X232127660Y-72546825D01*
X231863080Y-72416349D01*
X231583730Y-72321521D01*
X231583724Y-72321519D01*
X231583722Y-72321519D01*
X231294380Y-72263966D01*
X231294373Y-72263965D01*
X231294363Y-72263964D01*
X231163578Y-72255392D01*
X231097969Y-72231365D01*
X231084007Y-72219339D01*
X230770014Y-71905346D01*
X230736529Y-71844023D01*
X230741513Y-71774331D01*
X230750000Y-71761125D01*
X230750000Y-70418883D01*
X230906433Y-70450000D01*
X231093567Y-70450000D01*
X231250000Y-70418883D01*
X231250000Y-71749999D01*
X232045212Y-71749999D01*
X232045227Y-71749998D01*
X232179474Y-71739433D01*
X232401152Y-71683576D01*
X232609287Y-71589037D01*
X232609296Y-71589032D01*
X232797203Y-71458848D01*
X232958848Y-71297203D01*
X233089032Y-71109296D01*
X233089037Y-71109287D01*
X233183576Y-70901152D01*
X233239433Y-70679474D01*
X233249999Y-70545226D01*
X233250000Y-70545213D01*
X233250000Y-69750000D01*
X231918884Y-69750000D01*
X231950000Y-69593567D01*
X231950000Y-69406433D01*
X231918884Y-69250000D01*
X233249999Y-69250000D01*
X233249999Y-68454787D01*
X233249998Y-68454772D01*
X233239433Y-68320525D01*
X233183576Y-68098847D01*
X233089037Y-67890712D01*
X233089032Y-67890703D01*
X232958848Y-67702796D01*
X232797203Y-67541151D01*
X232609296Y-67410967D01*
X232609287Y-67410962D01*
X232401152Y-67316423D01*
X232179474Y-67260566D01*
X232045226Y-67250000D01*
X231250000Y-67250000D01*
X231250000Y-68581116D01*
X231093567Y-68550000D01*
X230906433Y-68550000D01*
X230750000Y-68581116D01*
X230750000Y-67250000D01*
X229954787Y-67250000D01*
X229954772Y-67250001D01*
X229820525Y-67260566D01*
X229598847Y-67316423D01*
X229390712Y-67410962D01*
X229390703Y-67410967D01*
X229202796Y-67541151D01*
X229041151Y-67702796D01*
X228910967Y-67890703D01*
X228910962Y-67890712D01*
X228816423Y-68098847D01*
X228760566Y-68320525D01*
X228750000Y-68454773D01*
X228750000Y-69250000D01*
X230081116Y-69250000D01*
X230050000Y-69406433D01*
X230050000Y-69593567D01*
X230081116Y-69750000D01*
X228733360Y-69750000D01*
X228708688Y-69763471D01*
X228638997Y-69758484D01*
X228594653Y-69729985D01*
X225364667Y-66499999D01*
X234794357Y-66499999D01*
X234794357Y-66500000D01*
X234814884Y-66721535D01*
X234814885Y-66721537D01*
X234875769Y-66935523D01*
X234875775Y-66935538D01*
X234974938Y-67134683D01*
X234974943Y-67134691D01*
X235109020Y-67312238D01*
X235273437Y-67462123D01*
X235273439Y-67462125D01*
X235462595Y-67579245D01*
X235462596Y-67579245D01*
X235462599Y-67579247D01*
X235670060Y-67659618D01*
X235888757Y-67700500D01*
X235888759Y-67700500D01*
X236111241Y-67700500D01*
X236111243Y-67700500D01*
X236329940Y-67659618D01*
X236537401Y-67579247D01*
X236726562Y-67462124D01*
X236890981Y-67312236D01*
X237025058Y-67134689D01*
X237124229Y-66935528D01*
X237185115Y-66721536D01*
X237205643Y-66500000D01*
X237185115Y-66278464D01*
X237124229Y-66064472D01*
X237124224Y-66064461D01*
X237025061Y-65865316D01*
X237025056Y-65865308D01*
X236890979Y-65687761D01*
X236726562Y-65537876D01*
X236726560Y-65537874D01*
X236537404Y-65420754D01*
X236537398Y-65420752D01*
X236329940Y-65340382D01*
X236111243Y-65299500D01*
X235888757Y-65299500D01*
X235670060Y-65340382D01*
X235538864Y-65391207D01*
X235462601Y-65420752D01*
X235462595Y-65420754D01*
X235273439Y-65537874D01*
X235273437Y-65537876D01*
X235109020Y-65687761D01*
X234974943Y-65865308D01*
X234974938Y-65865316D01*
X234875775Y-66064461D01*
X234875769Y-66064476D01*
X234814885Y-66278462D01*
X234814884Y-66278464D01*
X234794357Y-66499999D01*
X225364667Y-66499999D01*
X224036819Y-65172151D01*
X224003334Y-65110828D01*
X224000500Y-65084470D01*
X224000500Y-55060605D01*
X224013288Y-55005761D01*
X224058790Y-54913492D01*
X224083652Y-54863077D01*
X224178481Y-54583722D01*
X224236034Y-54294380D01*
X224255329Y-54000000D01*
X224255329Y-53999992D01*
X224236035Y-53705636D01*
X224236034Y-53705620D01*
X224178481Y-53416278D01*
X224083652Y-53136923D01*
X223953172Y-52872336D01*
X223789273Y-52627043D01*
X223746655Y-52578447D01*
X223594758Y-52405241D01*
X223372955Y-52210725D01*
X223127667Y-52046829D01*
X223127660Y-52046825D01*
X222863080Y-51916349D01*
X222583730Y-51821521D01*
X222583724Y-51821519D01*
X222583722Y-51821519D01*
X222294380Y-51763966D01*
X222294373Y-51763965D01*
X222294363Y-51763964D01*
X222000007Y-51744671D01*
X221999993Y-51744671D01*
X221705636Y-51763964D01*
X221705624Y-51763965D01*
X221705620Y-51763966D01*
X221705612Y-51763967D01*
X221705609Y-51763968D01*
X221416283Y-51821518D01*
X221416269Y-51821521D01*
X221136919Y-51916349D01*
X220872334Y-52046828D01*
X220627041Y-52210728D01*
X220405241Y-52405241D01*
X220210728Y-52627041D01*
X220046828Y-52872334D01*
X219916349Y-53136919D01*
X219821521Y-53416269D01*
X219821518Y-53416283D01*
X219763968Y-53705609D01*
X219763964Y-53705636D01*
X219744671Y-53999992D01*
X219744671Y-54000007D01*
X219763964Y-54294363D01*
X219763965Y-54294373D01*
X219763966Y-54294380D01*
X219800920Y-54480165D01*
X219821518Y-54583716D01*
X219821521Y-54583730D01*
X219916349Y-54863080D01*
X219986712Y-55005761D01*
X219999500Y-55060605D01*
X219999500Y-55594877D01*
X219979815Y-55661916D01*
X219963181Y-55682558D01*
X219682558Y-55963181D01*
X219621235Y-55996666D01*
X219594877Y-55999500D01*
X219055015Y-55999500D01*
X218987976Y-55979815D01*
X218942221Y-55927011D01*
X218932277Y-55857853D01*
X218956888Y-55802618D01*
X218955678Y-55801780D01*
X219089032Y-55609296D01*
X219089037Y-55609287D01*
X219183576Y-55401152D01*
X219239433Y-55179474D01*
X219249999Y-55045226D01*
X219250000Y-55045213D01*
X219250000Y-54250000D01*
X217918884Y-54250000D01*
X217950000Y-54093567D01*
X217950000Y-53906433D01*
X217918884Y-53750000D01*
X219249999Y-53750000D01*
X219249999Y-52954787D01*
X219249998Y-52954772D01*
X219239433Y-52820525D01*
X219183576Y-52598847D01*
X219089037Y-52390712D01*
X219089032Y-52390703D01*
X218958848Y-52202796D01*
X218797203Y-52041151D01*
X218609296Y-51910967D01*
X218609287Y-51910962D01*
X218401152Y-51816423D01*
X218179474Y-51760566D01*
X218045226Y-51750000D01*
X217250000Y-51750000D01*
X217250000Y-53081116D01*
X217093567Y-53050000D01*
X216906433Y-53050000D01*
X216750000Y-53081116D01*
X216750000Y-51750000D01*
X215954787Y-51750000D01*
X215954772Y-51750001D01*
X215820525Y-51760566D01*
X215598847Y-51816423D01*
X215390712Y-51910962D01*
X215390703Y-51910967D01*
X215202796Y-52041151D01*
X215041151Y-52202796D01*
X214910967Y-52390703D01*
X214910962Y-52390712D01*
X214816423Y-52598847D01*
X214760566Y-52820525D01*
X214750000Y-52954773D01*
X214750000Y-53750000D01*
X216081116Y-53750000D01*
X216050000Y-53906433D01*
X216050000Y-54093567D01*
X216081116Y-54250000D01*
X214750001Y-54250000D01*
X214750001Y-55045227D01*
X214760566Y-55179474D01*
X214816423Y-55401152D01*
X214910962Y-55609287D01*
X214910967Y-55609296D01*
X215044322Y-55801780D01*
X215043055Y-55802657D01*
X215068027Y-55860119D01*
X215056811Y-55929082D01*
X215010090Y-55981034D01*
X214944985Y-55999500D01*
X209124500Y-55999500D01*
X209057461Y-55979815D01*
X209011706Y-55927011D01*
X209000500Y-55875500D01*
X209000500Y-55060605D01*
X209013288Y-55005761D01*
X209058790Y-54913492D01*
X209083652Y-54863077D01*
X209178481Y-54583722D01*
X209236034Y-54294380D01*
X209255329Y-54000000D01*
X209255329Y-53999992D01*
X209236035Y-53705636D01*
X209236034Y-53705620D01*
X209178481Y-53416278D01*
X209083652Y-53136923D01*
X208953172Y-52872336D01*
X208789273Y-52627043D01*
X208746655Y-52578447D01*
X208594758Y-52405241D01*
X208372955Y-52210725D01*
X208127667Y-52046829D01*
X208127660Y-52046825D01*
X207863080Y-51916349D01*
X207583730Y-51821521D01*
X207583724Y-51821519D01*
X207583722Y-51821519D01*
X207294380Y-51763966D01*
X207294373Y-51763965D01*
X207294363Y-51763964D01*
X207000007Y-51744671D01*
X206999993Y-51744671D01*
X206705636Y-51763964D01*
X206705624Y-51763965D01*
X206705620Y-51763966D01*
X206705612Y-51763967D01*
X206705609Y-51763968D01*
X206416283Y-51821518D01*
X206416269Y-51821521D01*
X206136919Y-51916349D01*
X205872334Y-52046828D01*
X205627041Y-52210728D01*
X205405241Y-52405241D01*
X205210728Y-52627041D01*
X205046828Y-52872334D01*
X204916349Y-53136919D01*
X204821521Y-53416269D01*
X204821518Y-53416283D01*
X204763968Y-53705609D01*
X204763964Y-53705636D01*
X204744671Y-53999992D01*
X204744671Y-54000007D01*
X204763964Y-54294363D01*
X204763965Y-54294373D01*
X204763966Y-54294380D01*
X204800920Y-54480165D01*
X204821518Y-54583716D01*
X204821521Y-54583730D01*
X204916349Y-54863080D01*
X204986712Y-55005761D01*
X204999500Y-55060605D01*
X204999500Y-58164469D01*
X204979815Y-58231508D01*
X204963181Y-58252150D01*
X202592721Y-60622609D01*
X202592715Y-60622616D01*
X202524598Y-60711389D01*
X202433078Y-60830659D01*
X202433072Y-60830668D01*
X202426237Y-60842508D01*
X202426237Y-60842509D01*
X202301958Y-61057765D01*
X202301954Y-61057775D01*
X202201602Y-61300046D01*
X202133728Y-61553353D01*
X202116615Y-61683347D01*
X202116615Y-61683348D01*
X202099500Y-61813338D01*
X202099500Y-68231127D01*
X202112923Y-68333076D01*
X202112923Y-68333077D01*
X202133728Y-68491112D01*
X202183845Y-68678149D01*
X202201602Y-68744419D01*
X202301951Y-68986685D01*
X202301958Y-68986700D01*
X202433075Y-69213802D01*
X202478695Y-69273256D01*
X202478700Y-69273261D01*
X202592715Y-69421849D01*
X202592721Y-69421856D01*
X203963181Y-70792315D01*
X203996666Y-70853638D01*
X203999500Y-70879996D01*
X203999500Y-73320004D01*
X203979815Y-73387043D01*
X203963181Y-73407685D01*
X201807685Y-75563181D01*
X201746362Y-75596666D01*
X201720004Y-75599500D01*
X201524500Y-75599500D01*
X201457461Y-75579815D01*
X201411706Y-75527011D01*
X201400500Y-75475500D01*
X201400499Y-74052129D01*
X201400498Y-74052123D01*
X201400497Y-74052116D01*
X201394091Y-73992517D01*
X201389892Y-73981260D01*
X201343797Y-73857671D01*
X201343793Y-73857664D01*
X201257547Y-73742455D01*
X201257544Y-73742452D01*
X201142335Y-73656206D01*
X201142328Y-73656202D01*
X201007482Y-73605908D01*
X201007483Y-73605908D01*
X200947883Y-73599501D01*
X200947881Y-73599500D01*
X200947873Y-73599500D01*
X200947864Y-73599500D01*
X199052129Y-73599500D01*
X199052123Y-73599501D01*
X198992516Y-73605908D01*
X198857671Y-73656202D01*
X198857664Y-73656206D01*
X198742455Y-73742452D01*
X198742452Y-73742455D01*
X198656206Y-73857664D01*
X198656202Y-73857671D01*
X198605908Y-73992517D01*
X198599501Y-74052116D01*
X198599500Y-74052127D01*
X198599500Y-74816729D01*
X198599501Y-75475500D01*
X198579816Y-75542539D01*
X198527013Y-75588294D01*
X198475501Y-75599500D01*
X197294210Y-75599500D01*
X197227171Y-75579815D01*
X197206529Y-75563181D01*
X194902523Y-73259175D01*
X194757408Y-73143450D01*
X194639039Y-73049054D01*
X194410163Y-72905241D01*
X194353683Y-72869752D01*
X194050054Y-72723532D01*
X193731965Y-72612227D01*
X193731953Y-72612223D01*
X193403397Y-72537233D01*
X193403381Y-72537231D01*
X193068509Y-72499500D01*
X193068505Y-72499500D01*
X192731495Y-72499500D01*
X192731490Y-72499500D01*
X192433500Y-72533076D01*
X192433498Y-72533076D01*
X192396621Y-72537230D01*
X192396602Y-72537233D01*
X192068046Y-72612223D01*
X192068034Y-72612227D01*
X191749945Y-72723532D01*
X191446316Y-72869752D01*
X191160962Y-73049053D01*
X190897477Y-73259174D01*
X190659174Y-73497477D01*
X190584194Y-73591500D01*
X190584193Y-73591499D01*
X190449056Y-73760956D01*
X190449055Y-73760958D01*
X190269752Y-74046316D01*
X190123532Y-74349945D01*
X190012227Y-74668034D01*
X190012223Y-74668046D01*
X189937231Y-74996612D01*
X189901494Y-75313799D01*
X189901494Y-75313805D01*
X189899500Y-75331495D01*
X189899500Y-79005790D01*
X189879815Y-79072829D01*
X189863181Y-79093471D01*
X188959175Y-79997476D01*
X188749053Y-80260962D01*
X188569752Y-80546316D01*
X188423532Y-80849945D01*
X188312227Y-81168034D01*
X188312223Y-81168046D01*
X188237233Y-81496602D01*
X188237231Y-81496618D01*
X188199500Y-81831490D01*
X185340138Y-81831490D01*
X185327231Y-81750000D01*
X186550000Y-81750000D01*
X186550000Y-80904734D01*
X186549999Y-80904731D01*
X186539784Y-80760041D01*
X186539782Y-80760031D01*
X186485686Y-80519834D01*
X186485684Y-80519827D01*
X186393755Y-80291414D01*
X186266379Y-80080710D01*
X186266372Y-80080700D01*
X186106846Y-79893153D01*
X185919299Y-79733627D01*
X185919289Y-79733620D01*
X185708585Y-79606244D01*
X185480172Y-79514315D01*
X185480165Y-79514313D01*
X185239968Y-79460217D01*
X185239958Y-79460215D01*
X185095268Y-79450000D01*
X184250000Y-79450000D01*
X184250000Y-80672768D01*
X184106247Y-80650000D01*
X183893753Y-80650000D01*
X183750000Y-80672768D01*
X183750000Y-79450000D01*
X182904731Y-79450000D01*
X182760041Y-79460215D01*
X182760031Y-79460217D01*
X182519834Y-79514313D01*
X182519827Y-79514315D01*
X182291414Y-79606244D01*
X182080710Y-79733620D01*
X182080700Y-79733627D01*
X181893153Y-79893153D01*
X181733627Y-80080700D01*
X181733620Y-80080710D01*
X181606244Y-80291414D01*
X181514315Y-80519827D01*
X181514313Y-80519834D01*
X181460217Y-80760031D01*
X181460215Y-80760041D01*
X181450000Y-80904731D01*
X170500500Y-80904731D01*
X170500500Y-73202155D01*
X180250000Y-73202155D01*
X180250000Y-75250000D01*
X181291759Y-75250000D01*
X181278822Y-75281233D01*
X181250000Y-75426131D01*
X181250000Y-75573869D01*
X181278822Y-75718767D01*
X181291759Y-75750000D01*
X180250000Y-75750000D01*
X180250000Y-77797844D01*
X180256401Y-77857372D01*
X180256403Y-77857379D01*
X180306645Y-77992086D01*
X180306649Y-77992093D01*
X180392809Y-78107187D01*
X180392812Y-78107190D01*
X180507906Y-78193350D01*
X180507913Y-78193354D01*
X180642620Y-78243596D01*
X180642627Y-78243598D01*
X180702155Y-78249999D01*
X180702172Y-78250000D01*
X181750000Y-78250000D01*
X181750000Y-76208240D01*
X181781233Y-76221178D01*
X181926131Y-76250000D01*
X182073869Y-76250000D01*
X182218767Y-76221178D01*
X182250000Y-76208240D01*
X182250000Y-78250000D01*
X183297828Y-78250000D01*
X183297844Y-78249999D01*
X183357372Y-78243598D01*
X183357379Y-78243596D01*
X183492086Y-78193354D01*
X183492093Y-78193350D01*
X183607187Y-78107190D01*
X183607190Y-78107187D01*
X183693350Y-77992093D01*
X183693354Y-77992086D01*
X183743596Y-77857379D01*
X183743598Y-77857372D01*
X183749999Y-77797844D01*
X183750000Y-77797827D01*
X183750000Y-75750000D01*
X182708241Y-75750000D01*
X182721178Y-75718767D01*
X182750000Y-75573869D01*
X182750000Y-75426131D01*
X182721178Y-75281233D01*
X182708241Y-75250000D01*
X183750000Y-75250000D01*
X183750000Y-74385258D01*
X185699500Y-74385258D01*
X185699500Y-76614741D01*
X185715470Y-76736035D01*
X185729452Y-76842238D01*
X185735636Y-76865316D01*
X185788842Y-77063887D01*
X185876650Y-77275876D01*
X185876657Y-77275890D01*
X185991392Y-77474617D01*
X186131081Y-77656661D01*
X186131089Y-77656670D01*
X186293330Y-77818911D01*
X186293338Y-77818918D01*
X186475382Y-77958607D01*
X186475385Y-77958608D01*
X186475388Y-77958611D01*
X186674112Y-78073344D01*
X186674117Y-78073346D01*
X186674123Y-78073349D01*
X186755816Y-78107187D01*
X186886113Y-78161158D01*
X187107762Y-78220548D01*
X187324312Y-78249057D01*
X187331460Y-78249999D01*
X187335266Y-78250500D01*
X187335273Y-78250500D01*
X187564727Y-78250500D01*
X187564734Y-78250500D01*
X187792238Y-78220548D01*
X188013887Y-78161158D01*
X188225888Y-78073344D01*
X188424612Y-77958611D01*
X188606661Y-77818919D01*
X188606665Y-77818914D01*
X188606670Y-77818911D01*
X188768911Y-77656670D01*
X188768914Y-77656665D01*
X188768919Y-77656661D01*
X188908611Y-77474612D01*
X189023344Y-77275888D01*
X189111158Y-77063887D01*
X189170548Y-76842238D01*
X189200500Y-76614734D01*
X189200500Y-74385266D01*
X189170548Y-74157762D01*
X189111158Y-73936113D01*
X189057897Y-73807531D01*
X189023349Y-73724123D01*
X189023346Y-73724117D01*
X189023344Y-73724112D01*
X188908611Y-73525388D01*
X188908608Y-73525385D01*
X188908607Y-73525382D01*
X188768918Y-73343338D01*
X188768911Y-73343330D01*
X188606670Y-73181089D01*
X188606661Y-73181081D01*
X188424617Y-73041392D01*
X188225890Y-72926657D01*
X188225876Y-72926650D01*
X188013887Y-72838842D01*
X187792238Y-72779452D01*
X187754215Y-72774446D01*
X187564741Y-72749500D01*
X187564734Y-72749500D01*
X187335266Y-72749500D01*
X187335258Y-72749500D01*
X187118715Y-72778009D01*
X187107762Y-72779452D01*
X187014076Y-72804554D01*
X186886112Y-72838842D01*
X186674123Y-72926650D01*
X186674109Y-72926657D01*
X186475382Y-73041392D01*
X186293338Y-73181081D01*
X186131081Y-73343338D01*
X185991392Y-73525382D01*
X185876657Y-73724109D01*
X185876650Y-73724123D01*
X185788842Y-73936112D01*
X185757759Y-74052116D01*
X185730755Y-74152901D01*
X185729453Y-74157759D01*
X185729451Y-74157770D01*
X185699500Y-74385258D01*
X183750000Y-74385258D01*
X183750000Y-73202172D01*
X183749999Y-73202155D01*
X183743598Y-73142627D01*
X183743596Y-73142620D01*
X183693354Y-73007913D01*
X183693350Y-73007906D01*
X183607190Y-72892812D01*
X183607187Y-72892809D01*
X183492093Y-72806649D01*
X183492086Y-72806645D01*
X183357379Y-72756403D01*
X183357372Y-72756401D01*
X183297844Y-72750000D01*
X182250000Y-72750000D01*
X182250000Y-74791759D01*
X182218767Y-74778822D01*
X182073869Y-74750000D01*
X181926131Y-74750000D01*
X181781233Y-74778822D01*
X181750000Y-74791759D01*
X181750000Y-72750000D01*
X180702155Y-72750000D01*
X180642627Y-72756401D01*
X180642620Y-72756403D01*
X180507913Y-72806645D01*
X180507906Y-72806649D01*
X180392812Y-72892809D01*
X180392809Y-72892812D01*
X180306649Y-73007906D01*
X180306645Y-73007913D01*
X180256403Y-73142620D01*
X180256401Y-73142627D01*
X180250000Y-73202155D01*
X170500500Y-73202155D01*
X170500500Y-70499998D01*
X198694532Y-70499998D01*
X198694532Y-70500001D01*
X198714364Y-70726686D01*
X198714366Y-70726697D01*
X198773258Y-70946488D01*
X198773261Y-70946497D01*
X198869431Y-71152732D01*
X198869432Y-71152734D01*
X198999954Y-71339141D01*
X199160858Y-71500045D01*
X199160861Y-71500047D01*
X199347266Y-71630568D01*
X199553504Y-71726739D01*
X199773308Y-71785635D01*
X199935230Y-71799801D01*
X199999998Y-71805468D01*
X200000000Y-71805468D01*
X200000002Y-71805468D01*
X200056673Y-71800509D01*
X200226692Y-71785635D01*
X200446496Y-71726739D01*
X200652734Y-71630568D01*
X200839139Y-71500047D01*
X201000047Y-71339139D01*
X201130568Y-71152734D01*
X201226739Y-70946496D01*
X201285635Y-70726692D01*
X201305468Y-70500000D01*
X201285635Y-70273308D01*
X201226739Y-70053504D01*
X201130568Y-69847266D01*
X201000047Y-69660861D01*
X201000045Y-69660858D01*
X200839141Y-69499954D01*
X200652734Y-69369432D01*
X200652732Y-69369431D01*
X200446497Y-69273261D01*
X200446488Y-69273258D01*
X200226697Y-69214366D01*
X200226693Y-69214365D01*
X200226692Y-69214365D01*
X200226691Y-69214364D01*
X200226686Y-69214364D01*
X200000002Y-69194532D01*
X199999998Y-69194532D01*
X199773313Y-69214364D01*
X199773302Y-69214366D01*
X199553511Y-69273258D01*
X199553502Y-69273261D01*
X199347267Y-69369431D01*
X199347265Y-69369432D01*
X199160858Y-69499954D01*
X198999954Y-69660858D01*
X198869432Y-69847265D01*
X198869431Y-69847267D01*
X198773261Y-70053502D01*
X198773258Y-70053511D01*
X198714366Y-70273302D01*
X198714364Y-70273313D01*
X198694532Y-70499998D01*
X170500500Y-70499998D01*
X170500500Y-68699995D01*
X180744732Y-68699995D01*
X180744732Y-68700004D01*
X180763777Y-68954154D01*
X180800104Y-69113314D01*
X180820492Y-69202637D01*
X180913607Y-69439888D01*
X181041041Y-69660612D01*
X181199950Y-69859877D01*
X181386783Y-70033232D01*
X181597366Y-70176805D01*
X181597371Y-70176807D01*
X181597372Y-70176808D01*
X181597373Y-70176809D01*
X181719328Y-70235538D01*
X181826992Y-70287387D01*
X181826993Y-70287387D01*
X181826996Y-70287389D01*
X182070542Y-70362513D01*
X182322565Y-70400500D01*
X182577435Y-70400500D01*
X182829458Y-70362513D01*
X183073004Y-70287389D01*
X183302634Y-70176805D01*
X183513217Y-70033232D01*
X183700050Y-69859877D01*
X183858959Y-69660612D01*
X183986393Y-69439888D01*
X184079508Y-69202637D01*
X184136222Y-68954157D01*
X184148084Y-68795867D01*
X184155268Y-68700004D01*
X184155268Y-68699995D01*
X190744732Y-68699995D01*
X190744732Y-68700004D01*
X190763777Y-68954154D01*
X190800104Y-69113314D01*
X190820492Y-69202637D01*
X190913607Y-69439888D01*
X191041041Y-69660612D01*
X191199950Y-69859877D01*
X191386783Y-70033232D01*
X191597366Y-70176805D01*
X191597371Y-70176807D01*
X191597372Y-70176808D01*
X191597373Y-70176809D01*
X191719328Y-70235538D01*
X191826992Y-70287387D01*
X191826993Y-70287387D01*
X191826996Y-70287389D01*
X192070542Y-70362513D01*
X192322565Y-70400500D01*
X192577435Y-70400500D01*
X192829458Y-70362513D01*
X193073004Y-70287389D01*
X193302634Y-70176805D01*
X193513217Y-70033232D01*
X193700050Y-69859877D01*
X193858959Y-69660612D01*
X193986393Y-69439888D01*
X194079508Y-69202637D01*
X194136222Y-68954157D01*
X194148084Y-68795867D01*
X194155268Y-68700004D01*
X194155268Y-68699995D01*
X194136222Y-68445845D01*
X194110483Y-68333077D01*
X194079508Y-68197363D01*
X193986393Y-67960112D01*
X193858959Y-67739388D01*
X193700050Y-67540123D01*
X193513217Y-67366768D01*
X193302634Y-67223195D01*
X193302630Y-67223193D01*
X193302627Y-67223191D01*
X193302626Y-67223190D01*
X193073006Y-67112612D01*
X193073008Y-67112612D01*
X192829466Y-67037489D01*
X192829462Y-67037488D01*
X192829458Y-67037487D01*
X192708231Y-67019214D01*
X192577440Y-66999500D01*
X192577435Y-66999500D01*
X192322565Y-66999500D01*
X192322559Y-66999500D01*
X192165609Y-67023157D01*
X192070542Y-67037487D01*
X192070539Y-67037488D01*
X192070533Y-67037489D01*
X191826992Y-67112612D01*
X191597373Y-67223190D01*
X191597372Y-67223191D01*
X191386782Y-67366768D01*
X191199952Y-67540121D01*
X191199950Y-67540123D01*
X191041041Y-67739388D01*
X190913608Y-67960109D01*
X190820492Y-68197362D01*
X190820490Y-68197369D01*
X190763777Y-68445845D01*
X190744732Y-68699995D01*
X184155268Y-68699995D01*
X184136222Y-68445845D01*
X184110483Y-68333077D01*
X184079508Y-68197363D01*
X183986393Y-67960112D01*
X183858959Y-67739388D01*
X183700050Y-67540123D01*
X183513217Y-67366768D01*
X183302634Y-67223195D01*
X183302630Y-67223193D01*
X183302627Y-67223191D01*
X183302626Y-67223190D01*
X183073006Y-67112612D01*
X183073008Y-67112612D01*
X182829466Y-67037489D01*
X182829462Y-67037488D01*
X182829458Y-67037487D01*
X182708231Y-67019214D01*
X182577440Y-66999500D01*
X182577435Y-66999500D01*
X182322565Y-66999500D01*
X182322559Y-66999500D01*
X182165609Y-67023157D01*
X182070542Y-67037487D01*
X182070539Y-67037488D01*
X182070533Y-67037489D01*
X181826992Y-67112612D01*
X181597373Y-67223190D01*
X181597372Y-67223191D01*
X181386782Y-67366768D01*
X181199952Y-67540121D01*
X181199950Y-67540123D01*
X181041041Y-67739388D01*
X180913608Y-67960109D01*
X180820492Y-68197362D01*
X180820490Y-68197369D01*
X180763777Y-68445845D01*
X180744732Y-68699995D01*
X170500500Y-68699995D01*
X170500500Y-61999998D01*
X196114532Y-61999998D01*
X196114532Y-62000001D01*
X196134364Y-62226686D01*
X196134366Y-62226697D01*
X196193258Y-62446488D01*
X196193261Y-62446497D01*
X196289431Y-62652732D01*
X196289432Y-62652734D01*
X196419954Y-62839141D01*
X196580858Y-63000045D01*
X196580861Y-63000047D01*
X196767266Y-63130568D01*
X196973504Y-63226739D01*
X197193308Y-63285635D01*
X197355230Y-63299801D01*
X197419998Y-63305468D01*
X197420000Y-63305468D01*
X197420002Y-63305468D01*
X197476673Y-63300509D01*
X197646692Y-63285635D01*
X197866496Y-63226739D01*
X198072734Y-63130568D01*
X198259139Y-63000047D01*
X198420047Y-62839139D01*
X198550568Y-62652734D01*
X198646739Y-62446496D01*
X198705635Y-62226692D01*
X198725468Y-62000000D01*
X198705635Y-61773308D01*
X198646739Y-61553504D01*
X198550568Y-61347266D01*
X198420047Y-61160861D01*
X198420045Y-61160858D01*
X198259141Y-60999954D01*
X198072734Y-60869432D01*
X198072732Y-60869431D01*
X197866497Y-60773261D01*
X197866488Y-60773258D01*
X197646697Y-60714366D01*
X197646693Y-60714365D01*
X197646692Y-60714365D01*
X197646691Y-60714364D01*
X197646686Y-60714364D01*
X197420002Y-60694532D01*
X197419998Y-60694532D01*
X197193313Y-60714364D01*
X197193302Y-60714366D01*
X196973511Y-60773258D01*
X196973502Y-60773261D01*
X196767267Y-60869431D01*
X196767265Y-60869432D01*
X196580858Y-60999954D01*
X196419954Y-61160858D01*
X196289432Y-61347265D01*
X196289431Y-61347267D01*
X196193261Y-61553502D01*
X196193258Y-61553511D01*
X196134366Y-61773302D01*
X196134364Y-61773313D01*
X196114532Y-61999998D01*
X170500500Y-61999998D01*
X170500500Y-52999994D01*
X181244457Y-52999994D01*
X181244457Y-53000005D01*
X181264606Y-53320283D01*
X181264607Y-53320290D01*
X181324745Y-53635542D01*
X181423916Y-53940759D01*
X181423918Y-53940764D01*
X181560558Y-54231138D01*
X181560562Y-54231144D01*
X181732520Y-54502108D01*
X181732522Y-54502111D01*
X181903332Y-54708585D01*
X181937089Y-54749390D01*
X182118025Y-54919299D01*
X182171034Y-54969078D01*
X182171044Y-54969086D01*
X182430660Y-55157708D01*
X182430666Y-55157711D01*
X182430672Y-55157716D01*
X182711903Y-55312324D01*
X183010294Y-55430466D01*
X183010293Y-55430466D01*
X183321135Y-55510276D01*
X183321139Y-55510277D01*
X183387935Y-55518715D01*
X183639524Y-55550499D01*
X183639533Y-55550499D01*
X183639536Y-55550500D01*
X183639538Y-55550500D01*
X183960462Y-55550500D01*
X183960464Y-55550500D01*
X183960467Y-55550499D01*
X183960475Y-55550499D01*
X184150463Y-55526497D01*
X184278861Y-55510277D01*
X184589706Y-55430466D01*
X184888097Y-55312324D01*
X185169328Y-55157716D01*
X185428964Y-54969080D01*
X185662911Y-54749390D01*
X185867478Y-54502110D01*
X186039439Y-54231142D01*
X186176084Y-53940758D01*
X186275256Y-53635538D01*
X186335392Y-53320294D01*
X186335393Y-53320283D01*
X186355543Y-53000005D01*
X186355543Y-52999994D01*
X186335393Y-52679716D01*
X186335392Y-52679709D01*
X186335392Y-52679706D01*
X186275256Y-52364462D01*
X186176084Y-52059242D01*
X186170243Y-52046829D01*
X186103377Y-51904731D01*
X188450000Y-51904731D01*
X188450000Y-52750000D01*
X189672769Y-52750000D01*
X189650000Y-52893753D01*
X189650000Y-53106247D01*
X189672769Y-53250000D01*
X188450000Y-53250000D01*
X188450000Y-54095268D01*
X188460215Y-54239958D01*
X188460217Y-54239968D01*
X188514313Y-54480165D01*
X188514315Y-54480172D01*
X188606244Y-54708585D01*
X188733620Y-54919289D01*
X188733627Y-54919299D01*
X188893153Y-55106846D01*
X189080700Y-55266372D01*
X189080710Y-55266379D01*
X189291414Y-55393755D01*
X189519827Y-55485684D01*
X189519834Y-55485686D01*
X189760031Y-55539782D01*
X189760041Y-55539784D01*
X189904731Y-55549999D01*
X189904734Y-55550000D01*
X190750000Y-55550000D01*
X190750000Y-54327231D01*
X190893753Y-54350000D01*
X191106247Y-54350000D01*
X191250000Y-54327231D01*
X191250000Y-55550000D01*
X192095266Y-55550000D01*
X192095268Y-55549999D01*
X192239958Y-55539784D01*
X192239968Y-55539782D01*
X192480165Y-55485686D01*
X192480172Y-55485684D01*
X192708585Y-55393755D01*
X192919289Y-55266379D01*
X192919299Y-55266372D01*
X193106846Y-55106846D01*
X193266372Y-54919299D01*
X193266379Y-54919289D01*
X193393755Y-54708585D01*
X193485684Y-54480172D01*
X193485686Y-54480165D01*
X193539782Y-54239968D01*
X193539784Y-54239958D01*
X193549999Y-54095268D01*
X193550000Y-54095266D01*
X193550000Y-53250000D01*
X192327231Y-53250000D01*
X192350000Y-53106247D01*
X192350000Y-52893753D01*
X192327231Y-52750000D01*
X193550000Y-52750000D01*
X193550000Y-52202155D01*
X199750000Y-52202155D01*
X199750000Y-53750000D01*
X201081116Y-53750000D01*
X201050000Y-53906433D01*
X201050000Y-54093567D01*
X201081116Y-54250000D01*
X199750000Y-54250000D01*
X199750000Y-55797844D01*
X199756401Y-55857372D01*
X199756403Y-55857379D01*
X199806645Y-55992086D01*
X199806649Y-55992093D01*
X199892809Y-56107187D01*
X199892812Y-56107190D01*
X200007906Y-56193350D01*
X200007913Y-56193354D01*
X200142620Y-56243596D01*
X200142627Y-56243598D01*
X200202155Y-56249999D01*
X200202172Y-56250000D01*
X201750000Y-56250000D01*
X201750000Y-54918883D01*
X201906433Y-54950000D01*
X202093567Y-54950000D01*
X202250000Y-54918883D01*
X202250000Y-56250000D01*
X203797828Y-56250000D01*
X203797844Y-56249999D01*
X203857372Y-56243598D01*
X203857379Y-56243596D01*
X203992086Y-56193354D01*
X203992093Y-56193350D01*
X204107187Y-56107190D01*
X204107190Y-56107187D01*
X204193350Y-55992093D01*
X204193354Y-55992086D01*
X204243596Y-55857379D01*
X204243598Y-55857372D01*
X204249999Y-55797844D01*
X204250000Y-55797827D01*
X204250000Y-54250000D01*
X202918884Y-54250000D01*
X202950000Y-54093567D01*
X202950000Y-53906433D01*
X202918884Y-53750000D01*
X204250000Y-53750000D01*
X204250000Y-52202172D01*
X204249999Y-52202155D01*
X204243598Y-52142627D01*
X204243596Y-52142620D01*
X204193354Y-52007913D01*
X204193350Y-52007906D01*
X204107190Y-51892812D01*
X204107187Y-51892809D01*
X203992093Y-51806649D01*
X203992086Y-51806645D01*
X203857379Y-51756403D01*
X203857372Y-51756401D01*
X203797844Y-51750000D01*
X202250000Y-51750000D01*
X202250000Y-53081116D01*
X202093567Y-53050000D01*
X201906433Y-53050000D01*
X201750000Y-53081116D01*
X201750000Y-51750000D01*
X200202155Y-51750000D01*
X200142627Y-51756401D01*
X200142620Y-51756403D01*
X200007913Y-51806645D01*
X200007906Y-51806649D01*
X199892812Y-51892809D01*
X199892809Y-51892812D01*
X199806649Y-52007906D01*
X199806645Y-52007913D01*
X199756403Y-52142620D01*
X199756401Y-52142627D01*
X199750000Y-52202155D01*
X193550000Y-52202155D01*
X193550000Y-51904734D01*
X193549999Y-51904731D01*
X193539784Y-51760041D01*
X193539782Y-51760031D01*
X193485686Y-51519834D01*
X193485684Y-51519827D01*
X193393755Y-51291414D01*
X193266379Y-51080710D01*
X193266372Y-51080700D01*
X193106846Y-50893153D01*
X192919299Y-50733627D01*
X192919289Y-50733620D01*
X192708585Y-50606244D01*
X192480172Y-50514315D01*
X192480165Y-50514313D01*
X192239968Y-50460217D01*
X192239958Y-50460215D01*
X192095268Y-50450000D01*
X191250000Y-50450000D01*
X191250000Y-51672768D01*
X191106247Y-51650000D01*
X190893753Y-51650000D01*
X190750000Y-51672768D01*
X190750000Y-50450000D01*
X189904731Y-50450000D01*
X189760041Y-50460215D01*
X189760031Y-50460217D01*
X189519834Y-50514313D01*
X189519827Y-50514315D01*
X189291414Y-50606244D01*
X189080710Y-50733620D01*
X189080700Y-50733627D01*
X188893153Y-50893153D01*
X188733627Y-51080700D01*
X188733620Y-51080710D01*
X188606244Y-51291414D01*
X188514315Y-51519827D01*
X188514313Y-51519834D01*
X188460217Y-51760031D01*
X188460215Y-51760041D01*
X188450000Y-51904731D01*
X186103377Y-51904731D01*
X186039441Y-51768861D01*
X186039437Y-51768855D01*
X186033843Y-51760041D01*
X185964010Y-51650000D01*
X185867479Y-51497891D01*
X185867477Y-51497888D01*
X185662912Y-51250611D01*
X185633236Y-51222743D01*
X185428964Y-51030920D01*
X185428961Y-51030918D01*
X185428955Y-51030913D01*
X185169339Y-50842291D01*
X185169321Y-50842280D01*
X184888096Y-50687675D01*
X184888093Y-50687674D01*
X184589703Y-50569533D01*
X184589706Y-50569533D01*
X184278864Y-50489723D01*
X184278851Y-50489721D01*
X183960475Y-50449500D01*
X183960464Y-50449500D01*
X183639536Y-50449500D01*
X183639524Y-50449500D01*
X183321148Y-50489721D01*
X183321135Y-50489723D01*
X183010294Y-50569533D01*
X182711906Y-50687674D01*
X182711903Y-50687675D01*
X182430678Y-50842280D01*
X182430660Y-50842291D01*
X182171044Y-51030913D01*
X182171034Y-51030921D01*
X181937087Y-51250611D01*
X181732522Y-51497888D01*
X181732520Y-51497891D01*
X181560562Y-51768855D01*
X181560558Y-51768861D01*
X181423918Y-52059235D01*
X181423916Y-52059240D01*
X181324745Y-52364457D01*
X181264607Y-52679709D01*
X181264606Y-52679716D01*
X181244457Y-52999994D01*
X170500500Y-52999994D01*
X170500500Y-49878711D01*
X173149500Y-49878711D01*
X173149500Y-50121288D01*
X173181161Y-50361785D01*
X173243947Y-50596104D01*
X173300911Y-50733627D01*
X173336776Y-50820212D01*
X173458064Y-51030289D01*
X173458066Y-51030292D01*
X173458067Y-51030293D01*
X173605733Y-51222736D01*
X173605739Y-51222743D01*
X173777256Y-51394260D01*
X173777262Y-51394265D01*
X173969711Y-51541936D01*
X174179788Y-51663224D01*
X174403900Y-51756054D01*
X174638211Y-51818838D01*
X174818586Y-51842584D01*
X174878711Y-51850500D01*
X174878712Y-51850500D01*
X175121289Y-51850500D01*
X175169388Y-51844167D01*
X175361789Y-51818838D01*
X175596100Y-51756054D01*
X175820212Y-51663224D01*
X176030289Y-51541936D01*
X176222738Y-51394265D01*
X176394265Y-51222738D01*
X176541936Y-51030289D01*
X176663224Y-50820212D01*
X176756054Y-50596100D01*
X176818838Y-50361789D01*
X176850500Y-50121288D01*
X176850500Y-49878712D01*
X176818838Y-49638211D01*
X176756054Y-49403900D01*
X176663224Y-49179788D01*
X176559423Y-48999999D01*
X197794357Y-48999999D01*
X197794357Y-49000000D01*
X197814884Y-49221535D01*
X197814885Y-49221537D01*
X197875769Y-49435523D01*
X197875775Y-49435538D01*
X197974938Y-49634683D01*
X197974943Y-49634691D01*
X198109020Y-49812238D01*
X198273437Y-49962123D01*
X198273439Y-49962125D01*
X198462595Y-50079245D01*
X198462596Y-50079245D01*
X198462599Y-50079247D01*
X198670060Y-50159618D01*
X198888757Y-50200500D01*
X198888759Y-50200500D01*
X199111241Y-50200500D01*
X199111243Y-50200500D01*
X199329940Y-50159618D01*
X199537401Y-50079247D01*
X199726562Y-49962124D01*
X199890981Y-49812236D01*
X200025058Y-49634689D01*
X200124229Y-49435528D01*
X200185115Y-49221536D01*
X200205643Y-49000000D01*
X200205643Y-48999999D01*
X208794357Y-48999999D01*
X208794357Y-49000000D01*
X208814884Y-49221535D01*
X208814885Y-49221537D01*
X208875769Y-49435523D01*
X208875775Y-49435538D01*
X208974938Y-49634683D01*
X208974943Y-49634691D01*
X209109020Y-49812238D01*
X209273437Y-49962123D01*
X209273439Y-49962125D01*
X209462595Y-50079245D01*
X209462596Y-50079245D01*
X209462599Y-50079247D01*
X209670060Y-50159618D01*
X209888757Y-50200500D01*
X209888759Y-50200500D01*
X210111241Y-50200500D01*
X210111243Y-50200500D01*
X210329940Y-50159618D01*
X210537401Y-50079247D01*
X210726562Y-49962124D01*
X210890981Y-49812236D01*
X211025058Y-49634689D01*
X211124229Y-49435528D01*
X211185115Y-49221536D01*
X211205643Y-49000000D01*
X211205643Y-48999999D01*
X212794357Y-48999999D01*
X212794357Y-49000000D01*
X212814884Y-49221535D01*
X212814885Y-49221537D01*
X212875769Y-49435523D01*
X212875775Y-49435538D01*
X212974938Y-49634683D01*
X212974943Y-49634691D01*
X213109020Y-49812238D01*
X213273437Y-49962123D01*
X213273439Y-49962125D01*
X213462595Y-50079245D01*
X213462596Y-50079245D01*
X213462599Y-50079247D01*
X213670060Y-50159618D01*
X213888757Y-50200500D01*
X213888759Y-50200500D01*
X214111241Y-50200500D01*
X214111243Y-50200500D01*
X214329940Y-50159618D01*
X214537401Y-50079247D01*
X214726562Y-49962124D01*
X214890981Y-49812236D01*
X215025058Y-49634689D01*
X215124229Y-49435528D01*
X215185115Y-49221536D01*
X215205643Y-49000000D01*
X215205643Y-48999999D01*
X223794357Y-48999999D01*
X223794357Y-49000000D01*
X223814884Y-49221535D01*
X223814885Y-49221537D01*
X223875769Y-49435523D01*
X223875775Y-49435538D01*
X223974938Y-49634683D01*
X223974943Y-49634691D01*
X224109020Y-49812238D01*
X224273437Y-49962123D01*
X224273439Y-49962125D01*
X224462595Y-50079245D01*
X224462596Y-50079245D01*
X224462599Y-50079247D01*
X224670060Y-50159618D01*
X224888757Y-50200500D01*
X224888759Y-50200500D01*
X225111241Y-50200500D01*
X225111243Y-50200500D01*
X225329940Y-50159618D01*
X225537401Y-50079247D01*
X225726562Y-49962124D01*
X225818062Y-49878711D01*
X233149500Y-49878711D01*
X233149500Y-50121288D01*
X233181161Y-50361785D01*
X233243947Y-50596104D01*
X233300911Y-50733627D01*
X233336776Y-50820212D01*
X233458064Y-51030289D01*
X233458066Y-51030292D01*
X233458067Y-51030293D01*
X233605733Y-51222736D01*
X233605739Y-51222743D01*
X233777256Y-51394260D01*
X233777262Y-51394265D01*
X233969711Y-51541936D01*
X234179788Y-51663224D01*
X234403900Y-51756054D01*
X234638211Y-51818838D01*
X234818586Y-51842584D01*
X234878711Y-51850500D01*
X234878712Y-51850500D01*
X235121289Y-51850500D01*
X235169388Y-51844167D01*
X235361789Y-51818838D01*
X235596100Y-51756054D01*
X235820212Y-51663224D01*
X236030289Y-51541936D01*
X236222738Y-51394265D01*
X236394265Y-51222738D01*
X236541936Y-51030289D01*
X236663224Y-50820212D01*
X236756054Y-50596100D01*
X236818838Y-50361789D01*
X236850500Y-50121288D01*
X236850500Y-49878712D01*
X236818838Y-49638211D01*
X236756054Y-49403900D01*
X236663224Y-49179788D01*
X236541936Y-48969711D01*
X236481018Y-48890321D01*
X236394266Y-48777263D01*
X236394260Y-48777256D01*
X236222743Y-48605739D01*
X236222736Y-48605733D01*
X236030293Y-48458067D01*
X236030292Y-48458066D01*
X236030289Y-48458064D01*
X235820212Y-48336776D01*
X235820205Y-48336773D01*
X235596104Y-48243947D01*
X235386428Y-48187764D01*
X235361789Y-48181162D01*
X235361788Y-48181161D01*
X235361785Y-48181161D01*
X235121289Y-48149500D01*
X235121288Y-48149500D01*
X234878712Y-48149500D01*
X234878711Y-48149500D01*
X234638214Y-48181161D01*
X234403895Y-48243947D01*
X234179794Y-48336773D01*
X234179785Y-48336777D01*
X233969706Y-48458067D01*
X233777263Y-48605733D01*
X233777256Y-48605739D01*
X233605739Y-48777256D01*
X233605733Y-48777263D01*
X233458067Y-48969706D01*
X233336777Y-49179785D01*
X233336773Y-49179794D01*
X233243947Y-49403895D01*
X233181161Y-49638214D01*
X233149500Y-49878711D01*
X225818062Y-49878711D01*
X225890981Y-49812236D01*
X226025058Y-49634689D01*
X226124229Y-49435528D01*
X226185115Y-49221536D01*
X226205643Y-49000000D01*
X226185115Y-48778464D01*
X226124229Y-48564472D01*
X226092375Y-48500500D01*
X226025061Y-48365316D01*
X226025056Y-48365308D01*
X225890979Y-48187761D01*
X225726562Y-48037876D01*
X225726560Y-48037874D01*
X225537404Y-47920754D01*
X225537398Y-47920752D01*
X225329940Y-47840382D01*
X225111243Y-47799500D01*
X224888757Y-47799500D01*
X224670060Y-47840382D01*
X224538864Y-47891207D01*
X224462601Y-47920752D01*
X224462595Y-47920754D01*
X224273439Y-48037874D01*
X224273437Y-48037876D01*
X224109020Y-48187761D01*
X223974943Y-48365308D01*
X223974938Y-48365316D01*
X223875775Y-48564461D01*
X223875769Y-48564476D01*
X223814885Y-48778462D01*
X223814884Y-48778464D01*
X223794357Y-48999999D01*
X215205643Y-48999999D01*
X215185115Y-48778464D01*
X215124229Y-48564472D01*
X215092375Y-48500500D01*
X215025061Y-48365316D01*
X215025056Y-48365308D01*
X214890979Y-48187761D01*
X214726562Y-48037876D01*
X214726560Y-48037874D01*
X214537404Y-47920754D01*
X214537398Y-47920752D01*
X214329940Y-47840382D01*
X214111243Y-47799500D01*
X213888757Y-47799500D01*
X213670060Y-47840382D01*
X213538864Y-47891207D01*
X213462601Y-47920752D01*
X213462595Y-47920754D01*
X213273439Y-48037874D01*
X213273437Y-48037876D01*
X213109020Y-48187761D01*
X212974943Y-48365308D01*
X212974938Y-48365316D01*
X212875775Y-48564461D01*
X212875769Y-48564476D01*
X212814885Y-48778462D01*
X212814884Y-48778464D01*
X212794357Y-48999999D01*
X211205643Y-48999999D01*
X211185115Y-48778464D01*
X211124229Y-48564472D01*
X211092375Y-48500500D01*
X211025061Y-48365316D01*
X211025056Y-48365308D01*
X210890979Y-48187761D01*
X210726562Y-48037876D01*
X210726560Y-48037874D01*
X210537404Y-47920754D01*
X210537398Y-47920752D01*
X210329940Y-47840382D01*
X210111243Y-47799500D01*
X209888757Y-47799500D01*
X209670060Y-47840382D01*
X209538864Y-47891207D01*
X209462601Y-47920752D01*
X209462595Y-47920754D01*
X209273439Y-48037874D01*
X209273437Y-48037876D01*
X209109020Y-48187761D01*
X208974943Y-48365308D01*
X208974938Y-48365316D01*
X208875775Y-48564461D01*
X208875769Y-48564476D01*
X208814885Y-48778462D01*
X208814884Y-48778464D01*
X208794357Y-48999999D01*
X200205643Y-48999999D01*
X200185115Y-48778464D01*
X200124229Y-48564472D01*
X200092375Y-48500500D01*
X200025061Y-48365316D01*
X200025056Y-48365308D01*
X199890979Y-48187761D01*
X199726562Y-48037876D01*
X199726560Y-48037874D01*
X199537404Y-47920754D01*
X199537398Y-47920752D01*
X199329940Y-47840382D01*
X199111243Y-47799500D01*
X198888757Y-47799500D01*
X198670060Y-47840382D01*
X198538864Y-47891207D01*
X198462601Y-47920752D01*
X198462595Y-47920754D01*
X198273439Y-48037874D01*
X198273437Y-48037876D01*
X198109020Y-48187761D01*
X197974943Y-48365308D01*
X197974938Y-48365316D01*
X197875775Y-48564461D01*
X197875769Y-48564476D01*
X197814885Y-48778462D01*
X197814884Y-48778464D01*
X197794357Y-48999999D01*
X176559423Y-48999999D01*
X176541936Y-48969711D01*
X176481018Y-48890321D01*
X176394266Y-48777263D01*
X176394260Y-48777256D01*
X176222743Y-48605739D01*
X176222736Y-48605733D01*
X176030293Y-48458067D01*
X176030292Y-48458066D01*
X176030289Y-48458064D01*
X175820212Y-48336776D01*
X175820205Y-48336773D01*
X175596104Y-48243947D01*
X175386428Y-48187764D01*
X175361789Y-48181162D01*
X175361788Y-48181161D01*
X175361785Y-48181161D01*
X175121289Y-48149500D01*
X175121288Y-48149500D01*
X174878712Y-48149500D01*
X174878711Y-48149500D01*
X174638214Y-48181161D01*
X174403895Y-48243947D01*
X174179794Y-48336773D01*
X174179785Y-48336777D01*
X173969706Y-48458067D01*
X173777263Y-48605733D01*
X173777256Y-48605739D01*
X173605739Y-48777256D01*
X173605733Y-48777263D01*
X173458067Y-48969706D01*
X173336777Y-49179785D01*
X173336773Y-49179794D01*
X173243947Y-49403895D01*
X173181161Y-49638214D01*
X173149500Y-49878711D01*
X170500500Y-49878711D01*
X170500500Y-45624500D01*
X170520185Y-45557461D01*
X170572989Y-45511706D01*
X170624500Y-45500500D01*
X179700999Y-45500500D01*
X179768038Y-45520185D01*
G37*
%TD.AperFunction*%
%TD*%
M02*
