%TF.GenerationSoftware,KiCad,Pcbnew,8.0.6-8.0.6-0~ubuntu22.04.1*%
%TF.CreationDate,2025-01-16T15:42:38+00:00*%
%TF.ProjectId,computer_sensor_board,636f6d70-7574-4657-925f-73656e736f72,rev?*%
%TF.SameCoordinates,Original*%
%TF.FileFunction,Legend,Top*%
%TF.FilePolarity,Positive*%
%FSLAX46Y46*%
G04 Gerber Fmt 4.6, Leading zero omitted, Abs format (unit mm)*
G04 Created by KiCad (PCBNEW 8.0.6-8.0.6-0~ubuntu22.04.1) date 2025-01-16 15:42:38*
%MOMM*%
%LPD*%
G01*
G04 APERTURE LIST*
%ADD10C,0.150000*%
%ADD11C,0.100000*%
%ADD12C,0.120000*%
G04 APERTURE END LIST*
D10*
X202333333Y-60084819D02*
X202000000Y-59608628D01*
X201761905Y-60084819D02*
X201761905Y-59084819D01*
X201761905Y-59084819D02*
X202142857Y-59084819D01*
X202142857Y-59084819D02*
X202238095Y-59132438D01*
X202238095Y-59132438D02*
X202285714Y-59180057D01*
X202285714Y-59180057D02*
X202333333Y-59275295D01*
X202333333Y-59275295D02*
X202333333Y-59418152D01*
X202333333Y-59418152D02*
X202285714Y-59513390D01*
X202285714Y-59513390D02*
X202238095Y-59561009D01*
X202238095Y-59561009D02*
X202142857Y-59608628D01*
X202142857Y-59608628D02*
X201761905Y-59608628D01*
X203285714Y-60084819D02*
X202714286Y-60084819D01*
X203000000Y-60084819D02*
X203000000Y-59084819D01*
X203000000Y-59084819D02*
X202904762Y-59227676D01*
X202904762Y-59227676D02*
X202809524Y-59322914D01*
X202809524Y-59322914D02*
X202714286Y-59370533D01*
X174238095Y-46254819D02*
X174238095Y-45254819D01*
X174238095Y-45731009D02*
X174809523Y-45731009D01*
X174809523Y-46254819D02*
X174809523Y-45254819D01*
X175809523Y-46254819D02*
X175238095Y-46254819D01*
X175523809Y-46254819D02*
X175523809Y-45254819D01*
X175523809Y-45254819D02*
X175428571Y-45397676D01*
X175428571Y-45397676D02*
X175333333Y-45492914D01*
X175333333Y-45492914D02*
X175238095Y-45540533D01*
X203414819Y-77008094D02*
X202414819Y-77008094D01*
X202414819Y-77008094D02*
X202414819Y-76769999D01*
X202414819Y-76769999D02*
X202462438Y-76627142D01*
X202462438Y-76627142D02*
X202557676Y-76531904D01*
X202557676Y-76531904D02*
X202652914Y-76484285D01*
X202652914Y-76484285D02*
X202843390Y-76436666D01*
X202843390Y-76436666D02*
X202986247Y-76436666D01*
X202986247Y-76436666D02*
X203176723Y-76484285D01*
X203176723Y-76484285D02*
X203271961Y-76531904D01*
X203271961Y-76531904D02*
X203367200Y-76627142D01*
X203367200Y-76627142D02*
X203414819Y-76769999D01*
X203414819Y-76769999D02*
X203414819Y-77008094D01*
X203414819Y-75484285D02*
X203414819Y-76055713D01*
X203414819Y-75769999D02*
X202414819Y-75769999D01*
X202414819Y-75769999D02*
X202557676Y-75865237D01*
X202557676Y-75865237D02*
X202652914Y-75960475D01*
X202652914Y-75960475D02*
X202700533Y-76055713D01*
D11*
X186688095Y-71257419D02*
X186688095Y-72066942D01*
X186688095Y-72066942D02*
X186735714Y-72162180D01*
X186735714Y-72162180D02*
X186783333Y-72209800D01*
X186783333Y-72209800D02*
X186878571Y-72257419D01*
X186878571Y-72257419D02*
X187069047Y-72257419D01*
X187069047Y-72257419D02*
X187164285Y-72209800D01*
X187164285Y-72209800D02*
X187211904Y-72162180D01*
X187211904Y-72162180D02*
X187259523Y-72066942D01*
X187259523Y-72066942D02*
X187259523Y-71257419D01*
X187640476Y-71257419D02*
X188259523Y-71257419D01*
X188259523Y-71257419D02*
X187926190Y-71638371D01*
X187926190Y-71638371D02*
X188069047Y-71638371D01*
X188069047Y-71638371D02*
X188164285Y-71685990D01*
X188164285Y-71685990D02*
X188211904Y-71733609D01*
X188211904Y-71733609D02*
X188259523Y-71828847D01*
X188259523Y-71828847D02*
X188259523Y-72066942D01*
X188259523Y-72066942D02*
X188211904Y-72162180D01*
X188211904Y-72162180D02*
X188164285Y-72209800D01*
X188164285Y-72209800D02*
X188069047Y-72257419D01*
X188069047Y-72257419D02*
X187783333Y-72257419D01*
X187783333Y-72257419D02*
X187688095Y-72209800D01*
X187688095Y-72209800D02*
X187640476Y-72162180D01*
X186211905Y-64157419D02*
X186211905Y-63157419D01*
X186211905Y-63633609D02*
X186783333Y-63633609D01*
X186783333Y-64157419D02*
X186783333Y-63157419D01*
X187211905Y-64109800D02*
X187354762Y-64157419D01*
X187354762Y-64157419D02*
X187592857Y-64157419D01*
X187592857Y-64157419D02*
X187688095Y-64109800D01*
X187688095Y-64109800D02*
X187735714Y-64062180D01*
X187735714Y-64062180D02*
X187783333Y-63966942D01*
X187783333Y-63966942D02*
X187783333Y-63871704D01*
X187783333Y-63871704D02*
X187735714Y-63776466D01*
X187735714Y-63776466D02*
X187688095Y-63728847D01*
X187688095Y-63728847D02*
X187592857Y-63681228D01*
X187592857Y-63681228D02*
X187402381Y-63633609D01*
X187402381Y-63633609D02*
X187307143Y-63585990D01*
X187307143Y-63585990D02*
X187259524Y-63538371D01*
X187259524Y-63538371D02*
X187211905Y-63443133D01*
X187211905Y-63443133D02*
X187211905Y-63347895D01*
X187211905Y-63347895D02*
X187259524Y-63252657D01*
X187259524Y-63252657D02*
X187307143Y-63205038D01*
X187307143Y-63205038D02*
X187402381Y-63157419D01*
X187402381Y-63157419D02*
X187640476Y-63157419D01*
X187640476Y-63157419D02*
X187783333Y-63205038D01*
X188735714Y-64157419D02*
X188164286Y-64157419D01*
X188450000Y-64157419D02*
X188450000Y-63157419D01*
X188450000Y-63157419D02*
X188354762Y-63300276D01*
X188354762Y-63300276D02*
X188259524Y-63395514D01*
X188259524Y-63395514D02*
X188164286Y-63443133D01*
D10*
X234238095Y-46254819D02*
X234238095Y-45254819D01*
X234238095Y-45731009D02*
X234809523Y-45731009D01*
X234809523Y-46254819D02*
X234809523Y-45254819D01*
X235238095Y-45350057D02*
X235285714Y-45302438D01*
X235285714Y-45302438D02*
X235380952Y-45254819D01*
X235380952Y-45254819D02*
X235619047Y-45254819D01*
X235619047Y-45254819D02*
X235714285Y-45302438D01*
X235714285Y-45302438D02*
X235761904Y-45350057D01*
X235761904Y-45350057D02*
X235809523Y-45445295D01*
X235809523Y-45445295D02*
X235809523Y-45540533D01*
X235809523Y-45540533D02*
X235761904Y-45683390D01*
X235761904Y-45683390D02*
X235190476Y-46254819D01*
X235190476Y-46254819D02*
X235809523Y-46254819D01*
X204166666Y-37954819D02*
X204166666Y-38669104D01*
X204166666Y-38669104D02*
X204119047Y-38811961D01*
X204119047Y-38811961D02*
X204023809Y-38907200D01*
X204023809Y-38907200D02*
X203880952Y-38954819D01*
X203880952Y-38954819D02*
X203785714Y-38954819D01*
X204547619Y-37954819D02*
X205214285Y-37954819D01*
X205214285Y-37954819D02*
X204785714Y-38954819D01*
X209428571Y-54114700D02*
X210571429Y-54114700D01*
X210000000Y-54686128D02*
X210000000Y-53543271D01*
X198428571Y-54114700D02*
X199571429Y-54114700D01*
D11*
X215957419Y-79261904D02*
X214957419Y-79261904D01*
X214957419Y-79261904D02*
X215671704Y-78928571D01*
X215671704Y-78928571D02*
X214957419Y-78595238D01*
X214957419Y-78595238D02*
X215957419Y-78595238D01*
X214957419Y-78214285D02*
X214957419Y-77547619D01*
X214957419Y-77547619D02*
X215957419Y-77976190D01*
X215385990Y-77023809D02*
X215338371Y-77119047D01*
X215338371Y-77119047D02*
X215290752Y-77166666D01*
X215290752Y-77166666D02*
X215195514Y-77214285D01*
X215195514Y-77214285D02*
X215147895Y-77214285D01*
X215147895Y-77214285D02*
X215052657Y-77166666D01*
X215052657Y-77166666D02*
X215005038Y-77119047D01*
X215005038Y-77119047D02*
X214957419Y-77023809D01*
X214957419Y-77023809D02*
X214957419Y-76833333D01*
X214957419Y-76833333D02*
X215005038Y-76738095D01*
X215005038Y-76738095D02*
X215052657Y-76690476D01*
X215052657Y-76690476D02*
X215147895Y-76642857D01*
X215147895Y-76642857D02*
X215195514Y-76642857D01*
X215195514Y-76642857D02*
X215290752Y-76690476D01*
X215290752Y-76690476D02*
X215338371Y-76738095D01*
X215338371Y-76738095D02*
X215385990Y-76833333D01*
X215385990Y-76833333D02*
X215385990Y-77023809D01*
X215385990Y-77023809D02*
X215433609Y-77119047D01*
X215433609Y-77119047D02*
X215481228Y-77166666D01*
X215481228Y-77166666D02*
X215576466Y-77214285D01*
X215576466Y-77214285D02*
X215766942Y-77214285D01*
X215766942Y-77214285D02*
X215862180Y-77166666D01*
X215862180Y-77166666D02*
X215909800Y-77119047D01*
X215909800Y-77119047D02*
X215957419Y-77023809D01*
X215957419Y-77023809D02*
X215957419Y-76833333D01*
X215957419Y-76833333D02*
X215909800Y-76738095D01*
X215909800Y-76738095D02*
X215862180Y-76690476D01*
X215862180Y-76690476D02*
X215766942Y-76642857D01*
X215766942Y-76642857D02*
X215576466Y-76642857D01*
X215576466Y-76642857D02*
X215481228Y-76690476D01*
X215481228Y-76690476D02*
X215433609Y-76738095D01*
X215433609Y-76738095D02*
X215385990Y-76833333D01*
X215671704Y-76261904D02*
X215671704Y-75785714D01*
X215957419Y-76357142D02*
X214957419Y-76023809D01*
X214957419Y-76023809D02*
X215957419Y-75690476D01*
X215957419Y-74785714D02*
X215481228Y-75119047D01*
X215957419Y-75357142D02*
X214957419Y-75357142D01*
X214957419Y-75357142D02*
X214957419Y-74976190D01*
X214957419Y-74976190D02*
X215005038Y-74880952D01*
X215005038Y-74880952D02*
X215052657Y-74833333D01*
X215052657Y-74833333D02*
X215147895Y-74785714D01*
X215147895Y-74785714D02*
X215290752Y-74785714D01*
X215290752Y-74785714D02*
X215385990Y-74833333D01*
X215385990Y-74833333D02*
X215433609Y-74880952D01*
X215433609Y-74880952D02*
X215481228Y-74976190D01*
X215481228Y-74976190D02*
X215481228Y-75357142D01*
X214957419Y-74166666D02*
X214957419Y-74071428D01*
X214957419Y-74071428D02*
X215005038Y-73976190D01*
X215005038Y-73976190D02*
X215052657Y-73928571D01*
X215052657Y-73928571D02*
X215147895Y-73880952D01*
X215147895Y-73880952D02*
X215338371Y-73833333D01*
X215338371Y-73833333D02*
X215576466Y-73833333D01*
X215576466Y-73833333D02*
X215766942Y-73880952D01*
X215766942Y-73880952D02*
X215862180Y-73928571D01*
X215862180Y-73928571D02*
X215909800Y-73976190D01*
X215909800Y-73976190D02*
X215957419Y-74071428D01*
X215957419Y-74071428D02*
X215957419Y-74166666D01*
X215957419Y-74166666D02*
X215909800Y-74261904D01*
X215909800Y-74261904D02*
X215862180Y-74309523D01*
X215862180Y-74309523D02*
X215766942Y-74357142D01*
X215766942Y-74357142D02*
X215576466Y-74404761D01*
X215576466Y-74404761D02*
X215338371Y-74404761D01*
X215338371Y-74404761D02*
X215147895Y-74357142D01*
X215147895Y-74357142D02*
X215052657Y-74309523D01*
X215052657Y-74309523D02*
X215005038Y-74261904D01*
X215005038Y-74261904D02*
X214957419Y-74166666D01*
X214957419Y-72928571D02*
X214957419Y-73404761D01*
X214957419Y-73404761D02*
X215433609Y-73452380D01*
X215433609Y-73452380D02*
X215385990Y-73404761D01*
X215385990Y-73404761D02*
X215338371Y-73309523D01*
X215338371Y-73309523D02*
X215338371Y-73071428D01*
X215338371Y-73071428D02*
X215385990Y-72976190D01*
X215385990Y-72976190D02*
X215433609Y-72928571D01*
X215433609Y-72928571D02*
X215528847Y-72880952D01*
X215528847Y-72880952D02*
X215766942Y-72880952D01*
X215766942Y-72880952D02*
X215862180Y-72928571D01*
X215862180Y-72928571D02*
X215909800Y-72976190D01*
X215909800Y-72976190D02*
X215957419Y-73071428D01*
X215957419Y-73071428D02*
X215957419Y-73309523D01*
X215957419Y-73309523D02*
X215909800Y-73404761D01*
X215909800Y-73404761D02*
X215862180Y-73452380D01*
X215576466Y-72452380D02*
X215576466Y-71690476D01*
X215957419Y-70690476D02*
X215957419Y-71261904D01*
X215957419Y-70976190D02*
X214957419Y-70976190D01*
X214957419Y-70976190D02*
X215100276Y-71071428D01*
X215100276Y-71071428D02*
X215195514Y-71166666D01*
X215195514Y-71166666D02*
X215243133Y-71261904D01*
X204208095Y-78447419D02*
X204208095Y-79256942D01*
X204208095Y-79256942D02*
X204255714Y-79352180D01*
X204255714Y-79352180D02*
X204303333Y-79399800D01*
X204303333Y-79399800D02*
X204398571Y-79447419D01*
X204398571Y-79447419D02*
X204589047Y-79447419D01*
X204589047Y-79447419D02*
X204684285Y-79399800D01*
X204684285Y-79399800D02*
X204731904Y-79352180D01*
X204731904Y-79352180D02*
X204779523Y-79256942D01*
X204779523Y-79256942D02*
X204779523Y-78447419D01*
X205208095Y-78542657D02*
X205255714Y-78495038D01*
X205255714Y-78495038D02*
X205350952Y-78447419D01*
X205350952Y-78447419D02*
X205589047Y-78447419D01*
X205589047Y-78447419D02*
X205684285Y-78495038D01*
X205684285Y-78495038D02*
X205731904Y-78542657D01*
X205731904Y-78542657D02*
X205779523Y-78637895D01*
X205779523Y-78637895D02*
X205779523Y-78733133D01*
X205779523Y-78733133D02*
X205731904Y-78875990D01*
X205731904Y-78875990D02*
X205160476Y-79447419D01*
X205160476Y-79447419D02*
X205779523Y-79447419D01*
D10*
X204913333Y-68584819D02*
X204580000Y-68108628D01*
X204341905Y-68584819D02*
X204341905Y-67584819D01*
X204341905Y-67584819D02*
X204722857Y-67584819D01*
X204722857Y-67584819D02*
X204818095Y-67632438D01*
X204818095Y-67632438D02*
X204865714Y-67680057D01*
X204865714Y-67680057D02*
X204913333Y-67775295D01*
X204913333Y-67775295D02*
X204913333Y-67918152D01*
X204913333Y-67918152D02*
X204865714Y-68013390D01*
X204865714Y-68013390D02*
X204818095Y-68061009D01*
X204818095Y-68061009D02*
X204722857Y-68108628D01*
X204722857Y-68108628D02*
X204341905Y-68108628D01*
X205294286Y-67680057D02*
X205341905Y-67632438D01*
X205341905Y-67632438D02*
X205437143Y-67584819D01*
X205437143Y-67584819D02*
X205675238Y-67584819D01*
X205675238Y-67584819D02*
X205770476Y-67632438D01*
X205770476Y-67632438D02*
X205818095Y-67680057D01*
X205818095Y-67680057D02*
X205865714Y-67775295D01*
X205865714Y-67775295D02*
X205865714Y-67870533D01*
X205865714Y-67870533D02*
X205818095Y-68013390D01*
X205818095Y-68013390D02*
X205246667Y-68584819D01*
X205246667Y-68584819D02*
X205865714Y-68584819D01*
X174238095Y-81254819D02*
X174238095Y-80254819D01*
X174238095Y-80731009D02*
X174809523Y-80731009D01*
X174809523Y-81254819D02*
X174809523Y-80254819D01*
X175190476Y-80254819D02*
X175809523Y-80254819D01*
X175809523Y-80254819D02*
X175476190Y-80635771D01*
X175476190Y-80635771D02*
X175619047Y-80635771D01*
X175619047Y-80635771D02*
X175714285Y-80683390D01*
X175714285Y-80683390D02*
X175761904Y-80731009D01*
X175761904Y-80731009D02*
X175809523Y-80826247D01*
X175809523Y-80826247D02*
X175809523Y-81064342D01*
X175809523Y-81064342D02*
X175761904Y-81159580D01*
X175761904Y-81159580D02*
X175714285Y-81207200D01*
X175714285Y-81207200D02*
X175619047Y-81254819D01*
X175619047Y-81254819D02*
X175333333Y-81254819D01*
X175333333Y-81254819D02*
X175238095Y-81207200D01*
X175238095Y-81207200D02*
X175190476Y-81159580D01*
X219166666Y-37954819D02*
X219166666Y-38669104D01*
X219166666Y-38669104D02*
X219119047Y-38811961D01*
X219119047Y-38811961D02*
X219023809Y-38907200D01*
X219023809Y-38907200D02*
X218880952Y-38954819D01*
X218880952Y-38954819D02*
X218785714Y-38954819D01*
X220166666Y-38954819D02*
X219595238Y-38954819D01*
X219880952Y-38954819D02*
X219880952Y-37954819D01*
X219880952Y-37954819D02*
X219785714Y-38097676D01*
X219785714Y-38097676D02*
X219690476Y-38192914D01*
X219690476Y-38192914D02*
X219595238Y-38240533D01*
X224428571Y-54114700D02*
X225571429Y-54114700D01*
X225000000Y-54686128D02*
X225000000Y-53543271D01*
X213428571Y-54114700D02*
X214571429Y-54114700D01*
D11*
X222208095Y-78447419D02*
X222208095Y-79256942D01*
X222208095Y-79256942D02*
X222255714Y-79352180D01*
X222255714Y-79352180D02*
X222303333Y-79399800D01*
X222303333Y-79399800D02*
X222398571Y-79447419D01*
X222398571Y-79447419D02*
X222589047Y-79447419D01*
X222589047Y-79447419D02*
X222684285Y-79399800D01*
X222684285Y-79399800D02*
X222731904Y-79352180D01*
X222731904Y-79352180D02*
X222779523Y-79256942D01*
X222779523Y-79256942D02*
X222779523Y-78447419D01*
X223779523Y-79447419D02*
X223208095Y-79447419D01*
X223493809Y-79447419D02*
X223493809Y-78447419D01*
X223493809Y-78447419D02*
X223398571Y-78590276D01*
X223398571Y-78590276D02*
X223303333Y-78685514D01*
X223303333Y-78685514D02*
X223208095Y-78733133D01*
D10*
X245954819Y-72333333D02*
X246669104Y-72333333D01*
X246669104Y-72333333D02*
X246811961Y-72380952D01*
X246811961Y-72380952D02*
X246907200Y-72476190D01*
X246907200Y-72476190D02*
X246954819Y-72619047D01*
X246954819Y-72619047D02*
X246954819Y-72714285D01*
X245954819Y-71380952D02*
X245954819Y-71857142D01*
X245954819Y-71857142D02*
X246431009Y-71904761D01*
X246431009Y-71904761D02*
X246383390Y-71857142D01*
X246383390Y-71857142D02*
X246335771Y-71761904D01*
X246335771Y-71761904D02*
X246335771Y-71523809D01*
X246335771Y-71523809D02*
X246383390Y-71428571D01*
X246383390Y-71428571D02*
X246431009Y-71380952D01*
X246431009Y-71380952D02*
X246526247Y-71333333D01*
X246526247Y-71333333D02*
X246764342Y-71333333D01*
X246764342Y-71333333D02*
X246859580Y-71380952D01*
X246859580Y-71380952D02*
X246907200Y-71428571D01*
X246907200Y-71428571D02*
X246954819Y-71523809D01*
X246954819Y-71523809D02*
X246954819Y-71761904D01*
X246954819Y-71761904D02*
X246907200Y-71857142D01*
X246907200Y-71857142D02*
X246859580Y-71904761D01*
X231114700Y-67071428D02*
X231114700Y-65928571D01*
X231114700Y-78071428D02*
X231114700Y-76928571D01*
X231686128Y-77499999D02*
X230543271Y-77499999D01*
X174904761Y-74550057D02*
X174809523Y-74502438D01*
X174809523Y-74502438D02*
X174714285Y-74407200D01*
X174714285Y-74407200D02*
X174571428Y-74264342D01*
X174571428Y-74264342D02*
X174476190Y-74216723D01*
X174476190Y-74216723D02*
X174380952Y-74216723D01*
X174428571Y-74454819D02*
X174333333Y-74407200D01*
X174333333Y-74407200D02*
X174238095Y-74311961D01*
X174238095Y-74311961D02*
X174190476Y-74121485D01*
X174190476Y-74121485D02*
X174190476Y-73788152D01*
X174190476Y-73788152D02*
X174238095Y-73597676D01*
X174238095Y-73597676D02*
X174333333Y-73502438D01*
X174333333Y-73502438D02*
X174428571Y-73454819D01*
X174428571Y-73454819D02*
X174619047Y-73454819D01*
X174619047Y-73454819D02*
X174714285Y-73502438D01*
X174714285Y-73502438D02*
X174809523Y-73597676D01*
X174809523Y-73597676D02*
X174857142Y-73788152D01*
X174857142Y-73788152D02*
X174857142Y-74121485D01*
X174857142Y-74121485D02*
X174809523Y-74311961D01*
X174809523Y-74311961D02*
X174714285Y-74407200D01*
X174714285Y-74407200D02*
X174619047Y-74454819D01*
X174619047Y-74454819D02*
X174428571Y-74454819D01*
X175238095Y-73550057D02*
X175285714Y-73502438D01*
X175285714Y-73502438D02*
X175380952Y-73454819D01*
X175380952Y-73454819D02*
X175619047Y-73454819D01*
X175619047Y-73454819D02*
X175714285Y-73502438D01*
X175714285Y-73502438D02*
X175761904Y-73550057D01*
X175761904Y-73550057D02*
X175809523Y-73645295D01*
X175809523Y-73645295D02*
X175809523Y-73740533D01*
X175809523Y-73740533D02*
X175761904Y-73883390D01*
X175761904Y-73883390D02*
X175190476Y-74454819D01*
X175190476Y-74454819D02*
X175809523Y-74454819D01*
X234238095Y-81254819D02*
X234238095Y-80254819D01*
X234238095Y-80731009D02*
X234809523Y-80731009D01*
X234809523Y-81254819D02*
X234809523Y-80254819D01*
X235714285Y-80588152D02*
X235714285Y-81254819D01*
X235476190Y-80207200D02*
X235238095Y-80921485D01*
X235238095Y-80921485D02*
X235857142Y-80921485D01*
X224859580Y-73166666D02*
X224907200Y-73214285D01*
X224907200Y-73214285D02*
X224954819Y-73357142D01*
X224954819Y-73357142D02*
X224954819Y-73452380D01*
X224954819Y-73452380D02*
X224907200Y-73595237D01*
X224907200Y-73595237D02*
X224811961Y-73690475D01*
X224811961Y-73690475D02*
X224716723Y-73738094D01*
X224716723Y-73738094D02*
X224526247Y-73785713D01*
X224526247Y-73785713D02*
X224383390Y-73785713D01*
X224383390Y-73785713D02*
X224192914Y-73738094D01*
X224192914Y-73738094D02*
X224097676Y-73690475D01*
X224097676Y-73690475D02*
X224002438Y-73595237D01*
X224002438Y-73595237D02*
X223954819Y-73452380D01*
X223954819Y-73452380D02*
X223954819Y-73357142D01*
X223954819Y-73357142D02*
X224002438Y-73214285D01*
X224002438Y-73214285D02*
X224050057Y-73166666D01*
X224954819Y-72214285D02*
X224954819Y-72785713D01*
X224954819Y-72499999D02*
X223954819Y-72499999D01*
X223954819Y-72499999D02*
X224097676Y-72595237D01*
X224097676Y-72595237D02*
X224192914Y-72690475D01*
X224192914Y-72690475D02*
X224240533Y-72785713D01*
X187266666Y-97954819D02*
X187266666Y-98669104D01*
X187266666Y-98669104D02*
X187219047Y-98811961D01*
X187219047Y-98811961D02*
X187123809Y-98907200D01*
X187123809Y-98907200D02*
X186980952Y-98954819D01*
X186980952Y-98954819D02*
X186885714Y-98954819D01*
X187695238Y-98050057D02*
X187742857Y-98002438D01*
X187742857Y-98002438D02*
X187838095Y-97954819D01*
X187838095Y-97954819D02*
X188076190Y-97954819D01*
X188076190Y-97954819D02*
X188171428Y-98002438D01*
X188171428Y-98002438D02*
X188219047Y-98050057D01*
X188219047Y-98050057D02*
X188266666Y-98145295D01*
X188266666Y-98145295D02*
X188266666Y-98240533D01*
X188266666Y-98240533D02*
X188219047Y-98383390D01*
X188219047Y-98383390D02*
X187647619Y-98954819D01*
X187647619Y-98954819D02*
X188266666Y-98954819D01*
X180819048Y-79573866D02*
X181580953Y-79573866D01*
X192928571Y-79614700D02*
X194071429Y-79614700D01*
X193500000Y-80186128D02*
X193500000Y-79043271D01*
X187066666Y-35954819D02*
X187066666Y-36669104D01*
X187066666Y-36669104D02*
X187019047Y-36811961D01*
X187019047Y-36811961D02*
X186923809Y-36907200D01*
X186923809Y-36907200D02*
X186780952Y-36954819D01*
X186780952Y-36954819D02*
X186685714Y-36954819D01*
X187971428Y-35954819D02*
X187780952Y-35954819D01*
X187780952Y-35954819D02*
X187685714Y-36002438D01*
X187685714Y-36002438D02*
X187638095Y-36050057D01*
X187638095Y-36050057D02*
X187542857Y-36192914D01*
X187542857Y-36192914D02*
X187495238Y-36383390D01*
X187495238Y-36383390D02*
X187495238Y-36764342D01*
X187495238Y-36764342D02*
X187542857Y-36859580D01*
X187542857Y-36859580D02*
X187590476Y-36907200D01*
X187590476Y-36907200D02*
X187685714Y-36954819D01*
X187685714Y-36954819D02*
X187876190Y-36954819D01*
X187876190Y-36954819D02*
X187971428Y-36907200D01*
X187971428Y-36907200D02*
X188019047Y-36859580D01*
X188019047Y-36859580D02*
X188066666Y-36764342D01*
X188066666Y-36764342D02*
X188066666Y-36526247D01*
X188066666Y-36526247D02*
X188019047Y-36431009D01*
X188019047Y-36431009D02*
X187971428Y-36383390D01*
X187971428Y-36383390D02*
X187876190Y-36335771D01*
X187876190Y-36335771D02*
X187685714Y-36335771D01*
X187685714Y-36335771D02*
X187590476Y-36383390D01*
X187590476Y-36383390D02*
X187542857Y-36431009D01*
X187542857Y-36431009D02*
X187495238Y-36526247D01*
X180928571Y-55614700D02*
X182071429Y-55614700D01*
X181500000Y-56186128D02*
X181500000Y-55043271D01*
X193419048Y-55573866D02*
X194180953Y-55573866D01*
D12*
%TO.C,R1*%
X198460000Y-62000000D02*
X199230000Y-62000000D01*
X199230000Y-60630000D02*
X199230000Y-63370000D01*
X199230000Y-63370000D02*
X205770000Y-63370000D01*
X205770000Y-60630000D02*
X199230000Y-60630000D01*
X205770000Y-63370000D02*
X205770000Y-60630000D01*
X206540000Y-62000000D02*
X205770000Y-62000000D01*
%TO.C,D1*%
X198920000Y-74710000D02*
X198764000Y-74710000D01*
X201236000Y-74710000D02*
X201080000Y-74710000D01*
X198920163Y-77311130D02*
G75*
G02*
X198920000Y-75229039I1079837J1041130D01*
G01*
X198921392Y-77942335D02*
G75*
G02*
X198764484Y-74710000I1078608J1672335D01*
G01*
X201080000Y-75229039D02*
G75*
G02*
X201079837Y-77311130I-1080000J-1040961D01*
G01*
X201235516Y-74710000D02*
G75*
G02*
X201078608Y-77942335I-1235516J-1560000D01*
G01*
%TO.C,U3*%
D11*
X177950000Y-72300000D02*
X196950000Y-72300000D01*
X196950000Y-72350000D01*
X177950000Y-72350000D01*
X177950000Y-72300000D01*
%TO.C,HS1*%
X179200000Y-72200000D02*
X195700000Y-72200000D01*
X195700000Y-56200000D01*
X179200000Y-56200000D01*
X179200000Y-72200000D01*
D12*
%TO.C,J7*%
X198740000Y-47890000D02*
X199440000Y-47890000D01*
X198740000Y-50110000D02*
X210260000Y-50110000D01*
X199440000Y-45840000D02*
X199440000Y-47890000D01*
X199440000Y-45840000D02*
X199970000Y-45840000D01*
X199970000Y-39840000D02*
X199970000Y-45840000D01*
X199970000Y-39840000D02*
X209000000Y-39840000D01*
X209030000Y-39840000D02*
X209030000Y-45840000D01*
X209030000Y-45840000D02*
X209560000Y-45840000D01*
X209560000Y-45840000D02*
X209560000Y-47890000D01*
X209560000Y-47890000D02*
X210260000Y-47890000D01*
X198678271Y-50096635D02*
G75*
G02*
X198850000Y-47890000I171730J1096635D01*
G01*
X210150000Y-47890000D02*
G75*
G02*
X210150000Y-50110000I0J-1110000D01*
G01*
%TO.C,M78AR05-1*%
D11*
X212000000Y-81000000D02*
X219550000Y-81000000D01*
X219550000Y-69500000D01*
X212000000Y-69500000D01*
X212000000Y-81000000D01*
D12*
%TO.C,R2*%
X201040000Y-70500000D02*
X201810000Y-70500000D01*
X201810000Y-69130000D02*
X201810000Y-71870000D01*
X201810000Y-71870000D02*
X208350000Y-71870000D01*
X208350000Y-69130000D02*
X201810000Y-69130000D01*
X208350000Y-71870000D02*
X208350000Y-69130000D01*
X209120000Y-70500000D02*
X208350000Y-70500000D01*
%TO.C,J1*%
X213740000Y-47890000D02*
X214440000Y-47890000D01*
X213740000Y-50110000D02*
X225260000Y-50110000D01*
X214440000Y-45840000D02*
X214440000Y-47890000D01*
X214440000Y-45840000D02*
X214970000Y-45840000D01*
X214970000Y-39840000D02*
X214970000Y-45840000D01*
X214970000Y-39840000D02*
X224000000Y-39840000D01*
X224030000Y-39840000D02*
X224030000Y-45840000D01*
X224030000Y-45840000D02*
X224560000Y-45840000D01*
X224560000Y-45840000D02*
X224560000Y-47890000D01*
X224560000Y-47890000D02*
X225260000Y-47890000D01*
X213678271Y-50096635D02*
G75*
G02*
X213850000Y-47890000I171730J1096635D01*
G01*
X225150000Y-47890000D02*
G75*
G02*
X225150000Y-50110000I0J-1110000D01*
G01*
%TO.C,J5*%
X234890000Y-66240000D02*
X234890000Y-77760000D01*
X237110000Y-66240000D02*
X237110000Y-66940000D01*
X237110000Y-77060000D02*
X237110000Y-77760000D01*
X239160000Y-66940000D02*
X237110000Y-66940000D01*
X239160000Y-66940000D02*
X239160000Y-67470000D01*
X239160000Y-76530000D02*
X239160000Y-77060000D01*
X239160000Y-77060000D02*
X237110000Y-77060000D01*
X245160000Y-67470000D02*
X239160000Y-67470000D01*
X245160000Y-67470000D02*
X245160000Y-76500000D01*
X245160000Y-76530000D02*
X239160000Y-76530000D01*
X234903365Y-66178271D02*
G75*
G02*
X237110000Y-66350000I1096635J-171730D01*
G01*
X237110000Y-77650000D02*
G75*
G02*
X234890000Y-77650000I-1110000J0D01*
G01*
%TO.C,Q2*%
X179580000Y-72380000D02*
X179580000Y-77120000D01*
X179580000Y-72380000D02*
X195320000Y-72380000D01*
X179580000Y-74120000D02*
X180600000Y-74120000D01*
X179580000Y-77120000D02*
X180600000Y-77120000D01*
X183400000Y-74120000D02*
X186051000Y-74120000D01*
X183400000Y-77120000D02*
X186051000Y-77120000D01*
X185850000Y-72380000D02*
X185850000Y-74120000D01*
X188850000Y-74120000D02*
X191500000Y-74120000D01*
X188850000Y-77120000D02*
X191500000Y-77120000D01*
X189051000Y-72380000D02*
X189051000Y-74120000D01*
X194300000Y-74120000D02*
X195320000Y-74120000D01*
X194300000Y-77120000D02*
X195320000Y-77120000D01*
X195320000Y-72380000D02*
X195320000Y-77120000D01*
%TO.C,C1*%
X220630000Y-69280000D02*
X220630000Y-76720000D01*
X225370000Y-69280000D02*
X220630000Y-69280000D01*
X225370000Y-69280000D02*
X225370000Y-76720000D01*
X225370000Y-76720000D02*
X220630000Y-76720000D01*
%TO.C,J2*%
X179740000Y-89760000D02*
X179740000Y-84150000D01*
X180590000Y-89760000D02*
X179740000Y-89760000D01*
X180590000Y-97460000D02*
X180590000Y-89760000D01*
X190050000Y-80040000D02*
X186310000Y-80040000D01*
X194610000Y-97460000D02*
X180590000Y-97460000D01*
X194610000Y-97460000D02*
X194610000Y-89760000D01*
X195460000Y-89760000D02*
X194610000Y-89760000D01*
X195460000Y-89760000D02*
X195460000Y-84150000D01*
X179740000Y-84150000D02*
G75*
G02*
X181733194Y-80627042I4110000J0D01*
G01*
X192589900Y-80191282D02*
G75*
G02*
X195460000Y-84150000I-1239898J-3918716D01*
G01*
%TO.C,J6*%
X179540000Y-45240000D02*
X179540000Y-50850000D01*
X179540000Y-45240000D02*
X180390000Y-45240000D01*
X180390000Y-37540000D02*
X180390000Y-45240000D01*
X180390000Y-37540000D02*
X194410000Y-37540000D01*
X184950000Y-54960000D02*
X188690000Y-54960000D01*
X194410000Y-37540000D02*
X194410000Y-45240000D01*
X194410000Y-45240000D02*
X195260000Y-45240000D01*
X195260000Y-45240000D02*
X195260000Y-50850000D01*
X182410100Y-54808718D02*
G75*
G02*
X179540000Y-50850000I1239898J3918716D01*
G01*
X195260000Y-50850000D02*
G75*
G02*
X193266806Y-54372958I-4110000J0D01*
G01*
%TD*%
M02*
