%TF.GenerationSoftware,KiCad,Pcbnew,8.0.6-8.0.6-0~ubuntu22.04.1*%
%TF.CreationDate,2024-12-08T01:02:42+00:00*%
%TF.ProjectId,computer_sensor_board,636f6d70-7574-4657-925f-73656e736f72,rev?*%
%TF.SameCoordinates,Original*%
%TF.FileFunction,AssemblyDrawing,Top*%
%FSLAX46Y46*%
G04 Gerber Fmt 4.6, Leading zero omitted, Abs format (unit mm)*
G04 Created by KiCad (PCBNEW 8.0.6-8.0.6-0~ubuntu22.04.1) date 2024-12-08 01:02:42*
%MOMM*%
%LPD*%
G01*
G04 APERTURE LIST*
%ADD10C,0.150000*%
%ADD11C,0.100000*%
G04 APERTURE END LIST*
D10*
X170214285Y-64654819D02*
X170214285Y-63654819D01*
X170214285Y-63654819D02*
X170547618Y-64369104D01*
X170547618Y-64369104D02*
X170880951Y-63654819D01*
X170880951Y-63654819D02*
X170880951Y-64654819D01*
X171499999Y-64654819D02*
X171404761Y-64607200D01*
X171404761Y-64607200D02*
X171357142Y-64559580D01*
X171357142Y-64559580D02*
X171309523Y-64464342D01*
X171309523Y-64464342D02*
X171309523Y-64178628D01*
X171309523Y-64178628D02*
X171357142Y-64083390D01*
X171357142Y-64083390D02*
X171404761Y-64035771D01*
X171404761Y-64035771D02*
X171499999Y-63988152D01*
X171499999Y-63988152D02*
X171642856Y-63988152D01*
X171642856Y-63988152D02*
X171738094Y-64035771D01*
X171738094Y-64035771D02*
X171785713Y-64083390D01*
X171785713Y-64083390D02*
X171833332Y-64178628D01*
X171833332Y-64178628D02*
X171833332Y-64464342D01*
X171833332Y-64464342D02*
X171785713Y-64559580D01*
X171785713Y-64559580D02*
X171738094Y-64607200D01*
X171738094Y-64607200D02*
X171642856Y-64654819D01*
X171642856Y-64654819D02*
X171499999Y-64654819D01*
X172690475Y-63988152D02*
X172690475Y-64654819D01*
X172261904Y-63988152D02*
X172261904Y-64511961D01*
X172261904Y-64511961D02*
X172309523Y-64607200D01*
X172309523Y-64607200D02*
X172404761Y-64654819D01*
X172404761Y-64654819D02*
X172547618Y-64654819D01*
X172547618Y-64654819D02*
X172642856Y-64607200D01*
X172642856Y-64607200D02*
X172690475Y-64559580D01*
X173166666Y-63988152D02*
X173166666Y-64654819D01*
X173166666Y-64083390D02*
X173214285Y-64035771D01*
X173214285Y-64035771D02*
X173309523Y-63988152D01*
X173309523Y-63988152D02*
X173452380Y-63988152D01*
X173452380Y-63988152D02*
X173547618Y-64035771D01*
X173547618Y-64035771D02*
X173595237Y-64131009D01*
X173595237Y-64131009D02*
X173595237Y-64654819D01*
X173928571Y-63988152D02*
X174309523Y-63988152D01*
X174071428Y-63654819D02*
X174071428Y-64511961D01*
X174071428Y-64511961D02*
X174119047Y-64607200D01*
X174119047Y-64607200D02*
X174214285Y-64654819D01*
X174214285Y-64654819D02*
X174309523Y-64654819D01*
X174642857Y-64654819D02*
X174642857Y-63988152D01*
X174642857Y-63654819D02*
X174595238Y-63702438D01*
X174595238Y-63702438D02*
X174642857Y-63750057D01*
X174642857Y-63750057D02*
X174690476Y-63702438D01*
X174690476Y-63702438D02*
X174642857Y-63654819D01*
X174642857Y-63654819D02*
X174642857Y-63750057D01*
X175119047Y-63988152D02*
X175119047Y-64654819D01*
X175119047Y-64083390D02*
X175166666Y-64035771D01*
X175166666Y-64035771D02*
X175261904Y-63988152D01*
X175261904Y-63988152D02*
X175404761Y-63988152D01*
X175404761Y-63988152D02*
X175499999Y-64035771D01*
X175499999Y-64035771D02*
X175547618Y-64131009D01*
X175547618Y-64131009D02*
X175547618Y-64654819D01*
X176452380Y-63988152D02*
X176452380Y-64797676D01*
X176452380Y-64797676D02*
X176404761Y-64892914D01*
X176404761Y-64892914D02*
X176357142Y-64940533D01*
X176357142Y-64940533D02*
X176261904Y-64988152D01*
X176261904Y-64988152D02*
X176119047Y-64988152D01*
X176119047Y-64988152D02*
X176023809Y-64940533D01*
X176452380Y-64607200D02*
X176357142Y-64654819D01*
X176357142Y-64654819D02*
X176166666Y-64654819D01*
X176166666Y-64654819D02*
X176071428Y-64607200D01*
X176071428Y-64607200D02*
X176023809Y-64559580D01*
X176023809Y-64559580D02*
X175976190Y-64464342D01*
X175976190Y-64464342D02*
X175976190Y-64178628D01*
X175976190Y-64178628D02*
X176023809Y-64083390D01*
X176023809Y-64083390D02*
X176071428Y-64035771D01*
X176071428Y-64035771D02*
X176166666Y-63988152D01*
X176166666Y-63988152D02*
X176357142Y-63988152D01*
X176357142Y-63988152D02*
X176452380Y-64035771D01*
X176928571Y-64654819D02*
X176928571Y-63654819D01*
X176928571Y-64131009D02*
X177499999Y-64131009D01*
X177499999Y-64654819D02*
X177499999Y-63654819D01*
X178119047Y-64654819D02*
X178023809Y-64607200D01*
X178023809Y-64607200D02*
X177976190Y-64559580D01*
X177976190Y-64559580D02*
X177928571Y-64464342D01*
X177928571Y-64464342D02*
X177928571Y-64178628D01*
X177928571Y-64178628D02*
X177976190Y-64083390D01*
X177976190Y-64083390D02*
X178023809Y-64035771D01*
X178023809Y-64035771D02*
X178119047Y-63988152D01*
X178119047Y-63988152D02*
X178261904Y-63988152D01*
X178261904Y-63988152D02*
X178357142Y-64035771D01*
X178357142Y-64035771D02*
X178404761Y-64083390D01*
X178404761Y-64083390D02*
X178452380Y-64178628D01*
X178452380Y-64178628D02*
X178452380Y-64464342D01*
X178452380Y-64464342D02*
X178404761Y-64559580D01*
X178404761Y-64559580D02*
X178357142Y-64607200D01*
X178357142Y-64607200D02*
X178261904Y-64654819D01*
X178261904Y-64654819D02*
X178119047Y-64654819D01*
X179023809Y-64654819D02*
X178928571Y-64607200D01*
X178928571Y-64607200D02*
X178880952Y-64511961D01*
X178880952Y-64511961D02*
X178880952Y-63654819D01*
X179785714Y-64607200D02*
X179690476Y-64654819D01*
X179690476Y-64654819D02*
X179500000Y-64654819D01*
X179500000Y-64654819D02*
X179404762Y-64607200D01*
X179404762Y-64607200D02*
X179357143Y-64511961D01*
X179357143Y-64511961D02*
X179357143Y-64131009D01*
X179357143Y-64131009D02*
X179404762Y-64035771D01*
X179404762Y-64035771D02*
X179500000Y-63988152D01*
X179500000Y-63988152D02*
X179690476Y-63988152D01*
X179690476Y-63988152D02*
X179785714Y-64035771D01*
X179785714Y-64035771D02*
X179833333Y-64131009D01*
X179833333Y-64131009D02*
X179833333Y-64226247D01*
X179833333Y-64226247D02*
X179357143Y-64321485D01*
X174238095Y-60454819D02*
X174238095Y-59454819D01*
X174238095Y-59931009D02*
X174809523Y-59931009D01*
X174809523Y-60454819D02*
X174809523Y-59454819D01*
X175809523Y-60454819D02*
X175238095Y-60454819D01*
X175523809Y-60454819D02*
X175523809Y-59454819D01*
X175523809Y-59454819D02*
X175428571Y-59597676D01*
X175428571Y-59597676D02*
X175333333Y-59692914D01*
X175333333Y-59692914D02*
X175238095Y-59740533D01*
X230214285Y-64654819D02*
X230214285Y-63654819D01*
X230214285Y-63654819D02*
X230547618Y-64369104D01*
X230547618Y-64369104D02*
X230880951Y-63654819D01*
X230880951Y-63654819D02*
X230880951Y-64654819D01*
X231499999Y-64654819D02*
X231404761Y-64607200D01*
X231404761Y-64607200D02*
X231357142Y-64559580D01*
X231357142Y-64559580D02*
X231309523Y-64464342D01*
X231309523Y-64464342D02*
X231309523Y-64178628D01*
X231309523Y-64178628D02*
X231357142Y-64083390D01*
X231357142Y-64083390D02*
X231404761Y-64035771D01*
X231404761Y-64035771D02*
X231499999Y-63988152D01*
X231499999Y-63988152D02*
X231642856Y-63988152D01*
X231642856Y-63988152D02*
X231738094Y-64035771D01*
X231738094Y-64035771D02*
X231785713Y-64083390D01*
X231785713Y-64083390D02*
X231833332Y-64178628D01*
X231833332Y-64178628D02*
X231833332Y-64464342D01*
X231833332Y-64464342D02*
X231785713Y-64559580D01*
X231785713Y-64559580D02*
X231738094Y-64607200D01*
X231738094Y-64607200D02*
X231642856Y-64654819D01*
X231642856Y-64654819D02*
X231499999Y-64654819D01*
X232690475Y-63988152D02*
X232690475Y-64654819D01*
X232261904Y-63988152D02*
X232261904Y-64511961D01*
X232261904Y-64511961D02*
X232309523Y-64607200D01*
X232309523Y-64607200D02*
X232404761Y-64654819D01*
X232404761Y-64654819D02*
X232547618Y-64654819D01*
X232547618Y-64654819D02*
X232642856Y-64607200D01*
X232642856Y-64607200D02*
X232690475Y-64559580D01*
X233166666Y-63988152D02*
X233166666Y-64654819D01*
X233166666Y-64083390D02*
X233214285Y-64035771D01*
X233214285Y-64035771D02*
X233309523Y-63988152D01*
X233309523Y-63988152D02*
X233452380Y-63988152D01*
X233452380Y-63988152D02*
X233547618Y-64035771D01*
X233547618Y-64035771D02*
X233595237Y-64131009D01*
X233595237Y-64131009D02*
X233595237Y-64654819D01*
X233928571Y-63988152D02*
X234309523Y-63988152D01*
X234071428Y-63654819D02*
X234071428Y-64511961D01*
X234071428Y-64511961D02*
X234119047Y-64607200D01*
X234119047Y-64607200D02*
X234214285Y-64654819D01*
X234214285Y-64654819D02*
X234309523Y-64654819D01*
X234642857Y-64654819D02*
X234642857Y-63988152D01*
X234642857Y-63654819D02*
X234595238Y-63702438D01*
X234595238Y-63702438D02*
X234642857Y-63750057D01*
X234642857Y-63750057D02*
X234690476Y-63702438D01*
X234690476Y-63702438D02*
X234642857Y-63654819D01*
X234642857Y-63654819D02*
X234642857Y-63750057D01*
X235119047Y-63988152D02*
X235119047Y-64654819D01*
X235119047Y-64083390D02*
X235166666Y-64035771D01*
X235166666Y-64035771D02*
X235261904Y-63988152D01*
X235261904Y-63988152D02*
X235404761Y-63988152D01*
X235404761Y-63988152D02*
X235499999Y-64035771D01*
X235499999Y-64035771D02*
X235547618Y-64131009D01*
X235547618Y-64131009D02*
X235547618Y-64654819D01*
X236452380Y-63988152D02*
X236452380Y-64797676D01*
X236452380Y-64797676D02*
X236404761Y-64892914D01*
X236404761Y-64892914D02*
X236357142Y-64940533D01*
X236357142Y-64940533D02*
X236261904Y-64988152D01*
X236261904Y-64988152D02*
X236119047Y-64988152D01*
X236119047Y-64988152D02*
X236023809Y-64940533D01*
X236452380Y-64607200D02*
X236357142Y-64654819D01*
X236357142Y-64654819D02*
X236166666Y-64654819D01*
X236166666Y-64654819D02*
X236071428Y-64607200D01*
X236071428Y-64607200D02*
X236023809Y-64559580D01*
X236023809Y-64559580D02*
X235976190Y-64464342D01*
X235976190Y-64464342D02*
X235976190Y-64178628D01*
X235976190Y-64178628D02*
X236023809Y-64083390D01*
X236023809Y-64083390D02*
X236071428Y-64035771D01*
X236071428Y-64035771D02*
X236166666Y-63988152D01*
X236166666Y-63988152D02*
X236357142Y-63988152D01*
X236357142Y-63988152D02*
X236452380Y-64035771D01*
X236928571Y-64654819D02*
X236928571Y-63654819D01*
X236928571Y-64131009D02*
X237499999Y-64131009D01*
X237499999Y-64654819D02*
X237499999Y-63654819D01*
X238119047Y-64654819D02*
X238023809Y-64607200D01*
X238023809Y-64607200D02*
X237976190Y-64559580D01*
X237976190Y-64559580D02*
X237928571Y-64464342D01*
X237928571Y-64464342D02*
X237928571Y-64178628D01*
X237928571Y-64178628D02*
X237976190Y-64083390D01*
X237976190Y-64083390D02*
X238023809Y-64035771D01*
X238023809Y-64035771D02*
X238119047Y-63988152D01*
X238119047Y-63988152D02*
X238261904Y-63988152D01*
X238261904Y-63988152D02*
X238357142Y-64035771D01*
X238357142Y-64035771D02*
X238404761Y-64083390D01*
X238404761Y-64083390D02*
X238452380Y-64178628D01*
X238452380Y-64178628D02*
X238452380Y-64464342D01*
X238452380Y-64464342D02*
X238404761Y-64559580D01*
X238404761Y-64559580D02*
X238357142Y-64607200D01*
X238357142Y-64607200D02*
X238261904Y-64654819D01*
X238261904Y-64654819D02*
X238119047Y-64654819D01*
X239023809Y-64654819D02*
X238928571Y-64607200D01*
X238928571Y-64607200D02*
X238880952Y-64511961D01*
X238880952Y-64511961D02*
X238880952Y-63654819D01*
X239785714Y-64607200D02*
X239690476Y-64654819D01*
X239690476Y-64654819D02*
X239500000Y-64654819D01*
X239500000Y-64654819D02*
X239404762Y-64607200D01*
X239404762Y-64607200D02*
X239357143Y-64511961D01*
X239357143Y-64511961D02*
X239357143Y-64131009D01*
X239357143Y-64131009D02*
X239404762Y-64035771D01*
X239404762Y-64035771D02*
X239500000Y-63988152D01*
X239500000Y-63988152D02*
X239690476Y-63988152D01*
X239690476Y-63988152D02*
X239785714Y-64035771D01*
X239785714Y-64035771D02*
X239833333Y-64131009D01*
X239833333Y-64131009D02*
X239833333Y-64226247D01*
X239833333Y-64226247D02*
X239357143Y-64321485D01*
X234238095Y-60454819D02*
X234238095Y-59454819D01*
X234238095Y-59931009D02*
X234809523Y-59931009D01*
X234809523Y-60454819D02*
X234809523Y-59454819D01*
X235238095Y-59550057D02*
X235285714Y-59502438D01*
X235285714Y-59502438D02*
X235380952Y-59454819D01*
X235380952Y-59454819D02*
X235619047Y-59454819D01*
X235619047Y-59454819D02*
X235714285Y-59502438D01*
X235714285Y-59502438D02*
X235761904Y-59550057D01*
X235761904Y-59550057D02*
X235809523Y-59645295D01*
X235809523Y-59645295D02*
X235809523Y-59740533D01*
X235809523Y-59740533D02*
X235761904Y-59883390D01*
X235761904Y-59883390D02*
X235190476Y-60454819D01*
X235190476Y-60454819D02*
X235809523Y-60454819D01*
X203642856Y-68009580D02*
X203595237Y-68057200D01*
X203595237Y-68057200D02*
X203452380Y-68104819D01*
X203452380Y-68104819D02*
X203357142Y-68104819D01*
X203357142Y-68104819D02*
X203214285Y-68057200D01*
X203214285Y-68057200D02*
X203119047Y-67961961D01*
X203119047Y-67961961D02*
X203071428Y-67866723D01*
X203071428Y-67866723D02*
X203023809Y-67676247D01*
X203023809Y-67676247D02*
X203023809Y-67533390D01*
X203023809Y-67533390D02*
X203071428Y-67342914D01*
X203071428Y-67342914D02*
X203119047Y-67247676D01*
X203119047Y-67247676D02*
X203214285Y-67152438D01*
X203214285Y-67152438D02*
X203357142Y-67104819D01*
X203357142Y-67104819D02*
X203452380Y-67104819D01*
X203452380Y-67104819D02*
X203595237Y-67152438D01*
X203595237Y-67152438D02*
X203642856Y-67200057D01*
X204214285Y-68104819D02*
X204119047Y-68057200D01*
X204119047Y-68057200D02*
X204071428Y-68009580D01*
X204071428Y-68009580D02*
X204023809Y-67914342D01*
X204023809Y-67914342D02*
X204023809Y-67628628D01*
X204023809Y-67628628D02*
X204071428Y-67533390D01*
X204071428Y-67533390D02*
X204119047Y-67485771D01*
X204119047Y-67485771D02*
X204214285Y-67438152D01*
X204214285Y-67438152D02*
X204357142Y-67438152D01*
X204357142Y-67438152D02*
X204452380Y-67485771D01*
X204452380Y-67485771D02*
X204499999Y-67533390D01*
X204499999Y-67533390D02*
X204547618Y-67628628D01*
X204547618Y-67628628D02*
X204547618Y-67914342D01*
X204547618Y-67914342D02*
X204499999Y-68009580D01*
X204499999Y-68009580D02*
X204452380Y-68057200D01*
X204452380Y-68057200D02*
X204357142Y-68104819D01*
X204357142Y-68104819D02*
X204214285Y-68104819D01*
X204976190Y-67438152D02*
X204976190Y-68104819D01*
X204976190Y-67533390D02*
X205023809Y-67485771D01*
X205023809Y-67485771D02*
X205119047Y-67438152D01*
X205119047Y-67438152D02*
X205261904Y-67438152D01*
X205261904Y-67438152D02*
X205357142Y-67485771D01*
X205357142Y-67485771D02*
X205404761Y-67581009D01*
X205404761Y-67581009D02*
X205404761Y-68104819D01*
X205880952Y-67438152D02*
X205880952Y-68104819D01*
X205880952Y-67533390D02*
X205928571Y-67485771D01*
X205928571Y-67485771D02*
X206023809Y-67438152D01*
X206023809Y-67438152D02*
X206166666Y-67438152D01*
X206166666Y-67438152D02*
X206261904Y-67485771D01*
X206261904Y-67485771D02*
X206309523Y-67581009D01*
X206309523Y-67581009D02*
X206309523Y-68104819D01*
X206547619Y-68200057D02*
X207309523Y-68200057D01*
X208119047Y-68104819D02*
X207785714Y-67628628D01*
X207547619Y-68104819D02*
X207547619Y-67104819D01*
X207547619Y-67104819D02*
X207928571Y-67104819D01*
X207928571Y-67104819D02*
X208023809Y-67152438D01*
X208023809Y-67152438D02*
X208071428Y-67200057D01*
X208071428Y-67200057D02*
X208119047Y-67295295D01*
X208119047Y-67295295D02*
X208119047Y-67438152D01*
X208119047Y-67438152D02*
X208071428Y-67533390D01*
X208071428Y-67533390D02*
X208023809Y-67581009D01*
X208023809Y-67581009D02*
X207928571Y-67628628D01*
X207928571Y-67628628D02*
X207547619Y-67628628D01*
X208690476Y-68104819D02*
X208595238Y-68057200D01*
X208595238Y-68057200D02*
X208547619Y-68009580D01*
X208547619Y-68009580D02*
X208500000Y-67914342D01*
X208500000Y-67914342D02*
X208500000Y-67628628D01*
X208500000Y-67628628D02*
X208547619Y-67533390D01*
X208547619Y-67533390D02*
X208595238Y-67485771D01*
X208595238Y-67485771D02*
X208690476Y-67438152D01*
X208690476Y-67438152D02*
X208833333Y-67438152D01*
X208833333Y-67438152D02*
X208928571Y-67485771D01*
X208928571Y-67485771D02*
X208976190Y-67533390D01*
X208976190Y-67533390D02*
X209023809Y-67628628D01*
X209023809Y-67628628D02*
X209023809Y-67914342D01*
X209023809Y-67914342D02*
X208976190Y-68009580D01*
X208976190Y-68009580D02*
X208928571Y-68057200D01*
X208928571Y-68057200D02*
X208833333Y-68104819D01*
X208833333Y-68104819D02*
X208690476Y-68104819D01*
X209880952Y-67438152D02*
X209880952Y-68104819D01*
X209452381Y-67438152D02*
X209452381Y-67961961D01*
X209452381Y-67961961D02*
X209500000Y-68057200D01*
X209500000Y-68057200D02*
X209595238Y-68104819D01*
X209595238Y-68104819D02*
X209738095Y-68104819D01*
X209738095Y-68104819D02*
X209833333Y-68057200D01*
X209833333Y-68057200D02*
X209880952Y-68009580D01*
X210214286Y-67438152D02*
X210595238Y-67438152D01*
X210357143Y-67104819D02*
X210357143Y-67961961D01*
X210357143Y-67961961D02*
X210404762Y-68057200D01*
X210404762Y-68057200D02*
X210500000Y-68104819D01*
X210500000Y-68104819D02*
X210595238Y-68104819D01*
X211309524Y-68057200D02*
X211214286Y-68104819D01*
X211214286Y-68104819D02*
X211023810Y-68104819D01*
X211023810Y-68104819D02*
X210928572Y-68057200D01*
X210928572Y-68057200D02*
X210880953Y-67961961D01*
X210880953Y-67961961D02*
X210880953Y-67581009D01*
X210880953Y-67581009D02*
X210928572Y-67485771D01*
X210928572Y-67485771D02*
X211023810Y-67438152D01*
X211023810Y-67438152D02*
X211214286Y-67438152D01*
X211214286Y-67438152D02*
X211309524Y-67485771D01*
X211309524Y-67485771D02*
X211357143Y-67581009D01*
X211357143Y-67581009D02*
X211357143Y-67676247D01*
X211357143Y-67676247D02*
X210880953Y-67771485D01*
X211785715Y-68104819D02*
X211785715Y-67438152D01*
X211785715Y-67628628D02*
X211833334Y-67533390D01*
X211833334Y-67533390D02*
X211880953Y-67485771D01*
X211880953Y-67485771D02*
X211976191Y-67438152D01*
X211976191Y-67438152D02*
X212071429Y-67438152D01*
X207166666Y-60604819D02*
X207166666Y-61319104D01*
X207166666Y-61319104D02*
X207119047Y-61461961D01*
X207119047Y-61461961D02*
X207023809Y-61557200D01*
X207023809Y-61557200D02*
X206880952Y-61604819D01*
X206880952Y-61604819D02*
X206785714Y-61604819D01*
X207547619Y-60604819D02*
X208214285Y-60604819D01*
X208214285Y-60604819D02*
X207785714Y-61604819D01*
X200089866Y-74051904D02*
X200042247Y-74004285D01*
X200042247Y-74004285D02*
X199994628Y-73909047D01*
X199994628Y-73909047D02*
X200089866Y-73718571D01*
X200089866Y-73718571D02*
X200042247Y-73623333D01*
X200042247Y-73623333D02*
X199994628Y-73575714D01*
X201970819Y-78051904D02*
X200970819Y-78051904D01*
X200970819Y-78051904D02*
X201685104Y-77718571D01*
X201685104Y-77718571D02*
X200970819Y-77385238D01*
X200970819Y-77385238D02*
X201970819Y-77385238D01*
X200970819Y-77004285D02*
X200970819Y-76337619D01*
X200970819Y-76337619D02*
X201970819Y-76766190D01*
X201399390Y-75813809D02*
X201351771Y-75909047D01*
X201351771Y-75909047D02*
X201304152Y-75956666D01*
X201304152Y-75956666D02*
X201208914Y-76004285D01*
X201208914Y-76004285D02*
X201161295Y-76004285D01*
X201161295Y-76004285D02*
X201066057Y-75956666D01*
X201066057Y-75956666D02*
X201018438Y-75909047D01*
X201018438Y-75909047D02*
X200970819Y-75813809D01*
X200970819Y-75813809D02*
X200970819Y-75623333D01*
X200970819Y-75623333D02*
X201018438Y-75528095D01*
X201018438Y-75528095D02*
X201066057Y-75480476D01*
X201066057Y-75480476D02*
X201161295Y-75432857D01*
X201161295Y-75432857D02*
X201208914Y-75432857D01*
X201208914Y-75432857D02*
X201304152Y-75480476D01*
X201304152Y-75480476D02*
X201351771Y-75528095D01*
X201351771Y-75528095D02*
X201399390Y-75623333D01*
X201399390Y-75623333D02*
X201399390Y-75813809D01*
X201399390Y-75813809D02*
X201447009Y-75909047D01*
X201447009Y-75909047D02*
X201494628Y-75956666D01*
X201494628Y-75956666D02*
X201589866Y-76004285D01*
X201589866Y-76004285D02*
X201780342Y-76004285D01*
X201780342Y-76004285D02*
X201875580Y-75956666D01*
X201875580Y-75956666D02*
X201923200Y-75909047D01*
X201923200Y-75909047D02*
X201970819Y-75813809D01*
X201970819Y-75813809D02*
X201970819Y-75623333D01*
X201970819Y-75623333D02*
X201923200Y-75528095D01*
X201923200Y-75528095D02*
X201875580Y-75480476D01*
X201875580Y-75480476D02*
X201780342Y-75432857D01*
X201780342Y-75432857D02*
X201589866Y-75432857D01*
X201589866Y-75432857D02*
X201494628Y-75480476D01*
X201494628Y-75480476D02*
X201447009Y-75528095D01*
X201447009Y-75528095D02*
X201399390Y-75623333D01*
X201685104Y-75051904D02*
X201685104Y-74575714D01*
X201970819Y-75147142D02*
X200970819Y-74813809D01*
X200970819Y-74813809D02*
X201970819Y-74480476D01*
X201970819Y-73575714D02*
X201494628Y-73909047D01*
X201970819Y-74147142D02*
X200970819Y-74147142D01*
X200970819Y-74147142D02*
X200970819Y-73766190D01*
X200970819Y-73766190D02*
X201018438Y-73670952D01*
X201018438Y-73670952D02*
X201066057Y-73623333D01*
X201066057Y-73623333D02*
X201161295Y-73575714D01*
X201161295Y-73575714D02*
X201304152Y-73575714D01*
X201304152Y-73575714D02*
X201399390Y-73623333D01*
X201399390Y-73623333D02*
X201447009Y-73670952D01*
X201447009Y-73670952D02*
X201494628Y-73766190D01*
X201494628Y-73766190D02*
X201494628Y-74147142D01*
X200970819Y-72956666D02*
X200970819Y-72861428D01*
X200970819Y-72861428D02*
X201018438Y-72766190D01*
X201018438Y-72766190D02*
X201066057Y-72718571D01*
X201066057Y-72718571D02*
X201161295Y-72670952D01*
X201161295Y-72670952D02*
X201351771Y-72623333D01*
X201351771Y-72623333D02*
X201589866Y-72623333D01*
X201589866Y-72623333D02*
X201780342Y-72670952D01*
X201780342Y-72670952D02*
X201875580Y-72718571D01*
X201875580Y-72718571D02*
X201923200Y-72766190D01*
X201923200Y-72766190D02*
X201970819Y-72861428D01*
X201970819Y-72861428D02*
X201970819Y-72956666D01*
X201970819Y-72956666D02*
X201923200Y-73051904D01*
X201923200Y-73051904D02*
X201875580Y-73099523D01*
X201875580Y-73099523D02*
X201780342Y-73147142D01*
X201780342Y-73147142D02*
X201589866Y-73194761D01*
X201589866Y-73194761D02*
X201351771Y-73194761D01*
X201351771Y-73194761D02*
X201161295Y-73147142D01*
X201161295Y-73147142D02*
X201066057Y-73099523D01*
X201066057Y-73099523D02*
X201018438Y-73051904D01*
X201018438Y-73051904D02*
X200970819Y-72956666D01*
X200970819Y-71718571D02*
X200970819Y-72194761D01*
X200970819Y-72194761D02*
X201447009Y-72242380D01*
X201447009Y-72242380D02*
X201399390Y-72194761D01*
X201399390Y-72194761D02*
X201351771Y-72099523D01*
X201351771Y-72099523D02*
X201351771Y-71861428D01*
X201351771Y-71861428D02*
X201399390Y-71766190D01*
X201399390Y-71766190D02*
X201447009Y-71718571D01*
X201447009Y-71718571D02*
X201542247Y-71670952D01*
X201542247Y-71670952D02*
X201780342Y-71670952D01*
X201780342Y-71670952D02*
X201875580Y-71718571D01*
X201875580Y-71718571D02*
X201923200Y-71766190D01*
X201923200Y-71766190D02*
X201970819Y-71861428D01*
X201970819Y-71861428D02*
X201970819Y-72099523D01*
X201970819Y-72099523D02*
X201923200Y-72194761D01*
X201923200Y-72194761D02*
X201875580Y-72242380D01*
X201589866Y-71242380D02*
X201589866Y-70480476D01*
X201970819Y-69480476D02*
X201970819Y-70051904D01*
X201970819Y-69766190D02*
X200970819Y-69766190D01*
X200970819Y-69766190D02*
X201113676Y-69861428D01*
X201113676Y-69861428D02*
X201208914Y-69956666D01*
X201208914Y-69956666D02*
X201256533Y-70051904D01*
X203708095Y-80563866D02*
X203755714Y-80516247D01*
X203755714Y-80516247D02*
X203850952Y-80468628D01*
X203850952Y-80468628D02*
X204041428Y-80563866D01*
X204041428Y-80563866D02*
X204136666Y-80516247D01*
X204136666Y-80516247D02*
X204184285Y-80468628D01*
X203208095Y-81444819D02*
X203208095Y-82254342D01*
X203208095Y-82254342D02*
X203255714Y-82349580D01*
X203255714Y-82349580D02*
X203303333Y-82397200D01*
X203303333Y-82397200D02*
X203398571Y-82444819D01*
X203398571Y-82444819D02*
X203589047Y-82444819D01*
X203589047Y-82444819D02*
X203684285Y-82397200D01*
X203684285Y-82397200D02*
X203731904Y-82349580D01*
X203731904Y-82349580D02*
X203779523Y-82254342D01*
X203779523Y-82254342D02*
X203779523Y-81444819D01*
X204208095Y-81540057D02*
X204255714Y-81492438D01*
X204255714Y-81492438D02*
X204350952Y-81444819D01*
X204350952Y-81444819D02*
X204589047Y-81444819D01*
X204589047Y-81444819D02*
X204684285Y-81492438D01*
X204684285Y-81492438D02*
X204731904Y-81540057D01*
X204731904Y-81540057D02*
X204779523Y-81635295D01*
X204779523Y-81635295D02*
X204779523Y-81730533D01*
X204779523Y-81730533D02*
X204731904Y-81873390D01*
X204731904Y-81873390D02*
X204160476Y-82444819D01*
X204160476Y-82444819D02*
X204779523Y-82444819D01*
X218785713Y-68009580D02*
X218738094Y-68057200D01*
X218738094Y-68057200D02*
X218595237Y-68104819D01*
X218595237Y-68104819D02*
X218499999Y-68104819D01*
X218499999Y-68104819D02*
X218357142Y-68057200D01*
X218357142Y-68057200D02*
X218261904Y-67961961D01*
X218261904Y-67961961D02*
X218214285Y-67866723D01*
X218214285Y-67866723D02*
X218166666Y-67676247D01*
X218166666Y-67676247D02*
X218166666Y-67533390D01*
X218166666Y-67533390D02*
X218214285Y-67342914D01*
X218214285Y-67342914D02*
X218261904Y-67247676D01*
X218261904Y-67247676D02*
X218357142Y-67152438D01*
X218357142Y-67152438D02*
X218499999Y-67104819D01*
X218499999Y-67104819D02*
X218595237Y-67104819D01*
X218595237Y-67104819D02*
X218738094Y-67152438D01*
X218738094Y-67152438D02*
X218785713Y-67200057D01*
X219357142Y-68104819D02*
X219261904Y-68057200D01*
X219261904Y-68057200D02*
X219214285Y-68009580D01*
X219214285Y-68009580D02*
X219166666Y-67914342D01*
X219166666Y-67914342D02*
X219166666Y-67628628D01*
X219166666Y-67628628D02*
X219214285Y-67533390D01*
X219214285Y-67533390D02*
X219261904Y-67485771D01*
X219261904Y-67485771D02*
X219357142Y-67438152D01*
X219357142Y-67438152D02*
X219499999Y-67438152D01*
X219499999Y-67438152D02*
X219595237Y-67485771D01*
X219595237Y-67485771D02*
X219642856Y-67533390D01*
X219642856Y-67533390D02*
X219690475Y-67628628D01*
X219690475Y-67628628D02*
X219690475Y-67914342D01*
X219690475Y-67914342D02*
X219642856Y-68009580D01*
X219642856Y-68009580D02*
X219595237Y-68057200D01*
X219595237Y-68057200D02*
X219499999Y-68104819D01*
X219499999Y-68104819D02*
X219357142Y-68104819D01*
X220119047Y-67438152D02*
X220119047Y-68104819D01*
X220119047Y-67533390D02*
X220166666Y-67485771D01*
X220166666Y-67485771D02*
X220261904Y-67438152D01*
X220261904Y-67438152D02*
X220404761Y-67438152D01*
X220404761Y-67438152D02*
X220499999Y-67485771D01*
X220499999Y-67485771D02*
X220547618Y-67581009D01*
X220547618Y-67581009D02*
X220547618Y-68104819D01*
X221023809Y-67438152D02*
X221023809Y-68104819D01*
X221023809Y-67533390D02*
X221071428Y-67485771D01*
X221071428Y-67485771D02*
X221166666Y-67438152D01*
X221166666Y-67438152D02*
X221309523Y-67438152D01*
X221309523Y-67438152D02*
X221404761Y-67485771D01*
X221404761Y-67485771D02*
X221452380Y-67581009D01*
X221452380Y-67581009D02*
X221452380Y-68104819D01*
X221690476Y-68200057D02*
X222452380Y-68200057D01*
X222547619Y-67104819D02*
X222880952Y-68104819D01*
X222880952Y-68104819D02*
X223214285Y-67104819D01*
X224023809Y-68104819D02*
X223547619Y-68104819D01*
X223547619Y-68104819D02*
X223547619Y-67104819D01*
X224357143Y-68104819D02*
X224357143Y-67104819D01*
X224357143Y-67104819D02*
X224738095Y-67104819D01*
X224738095Y-67104819D02*
X224833333Y-67152438D01*
X224833333Y-67152438D02*
X224880952Y-67200057D01*
X224880952Y-67200057D02*
X224928571Y-67295295D01*
X224928571Y-67295295D02*
X224928571Y-67438152D01*
X224928571Y-67438152D02*
X224880952Y-67533390D01*
X224880952Y-67533390D02*
X224833333Y-67581009D01*
X224833333Y-67581009D02*
X224738095Y-67628628D01*
X224738095Y-67628628D02*
X224357143Y-67628628D01*
X225880952Y-68104819D02*
X225309524Y-68104819D01*
X225595238Y-68104819D02*
X225595238Y-67104819D01*
X225595238Y-67104819D02*
X225500000Y-67247676D01*
X225500000Y-67247676D02*
X225404762Y-67342914D01*
X225404762Y-67342914D02*
X225309524Y-67390533D01*
X226738095Y-67104819D02*
X226547619Y-67104819D01*
X226547619Y-67104819D02*
X226452381Y-67152438D01*
X226452381Y-67152438D02*
X226404762Y-67200057D01*
X226404762Y-67200057D02*
X226309524Y-67342914D01*
X226309524Y-67342914D02*
X226261905Y-67533390D01*
X226261905Y-67533390D02*
X226261905Y-67914342D01*
X226261905Y-67914342D02*
X226309524Y-68009580D01*
X226309524Y-68009580D02*
X226357143Y-68057200D01*
X226357143Y-68057200D02*
X226452381Y-68104819D01*
X226452381Y-68104819D02*
X226642857Y-68104819D01*
X226642857Y-68104819D02*
X226738095Y-68057200D01*
X226738095Y-68057200D02*
X226785714Y-68009580D01*
X226785714Y-68009580D02*
X226833333Y-67914342D01*
X226833333Y-67914342D02*
X226833333Y-67676247D01*
X226833333Y-67676247D02*
X226785714Y-67581009D01*
X226785714Y-67581009D02*
X226738095Y-67533390D01*
X226738095Y-67533390D02*
X226642857Y-67485771D01*
X226642857Y-67485771D02*
X226452381Y-67485771D01*
X226452381Y-67485771D02*
X226357143Y-67533390D01*
X226357143Y-67533390D02*
X226309524Y-67581009D01*
X226309524Y-67581009D02*
X226261905Y-67676247D01*
X222166666Y-60604819D02*
X222166666Y-61319104D01*
X222166666Y-61319104D02*
X222119047Y-61461961D01*
X222119047Y-61461961D02*
X222023809Y-61557200D01*
X222023809Y-61557200D02*
X221880952Y-61604819D01*
X221880952Y-61604819D02*
X221785714Y-61604819D01*
X223119047Y-60604819D02*
X222642857Y-60604819D01*
X222642857Y-60604819D02*
X222595238Y-61081009D01*
X222595238Y-61081009D02*
X222642857Y-61033390D01*
X222642857Y-61033390D02*
X222738095Y-60985771D01*
X222738095Y-60985771D02*
X222976190Y-60985771D01*
X222976190Y-60985771D02*
X223071428Y-61033390D01*
X223071428Y-61033390D02*
X223119047Y-61081009D01*
X223119047Y-61081009D02*
X223166666Y-61176247D01*
X223166666Y-61176247D02*
X223166666Y-61414342D01*
X223166666Y-61414342D02*
X223119047Y-61509580D01*
X223119047Y-61509580D02*
X223071428Y-61557200D01*
X223071428Y-61557200D02*
X222976190Y-61604819D01*
X222976190Y-61604819D02*
X222738095Y-61604819D01*
X222738095Y-61604819D02*
X222642857Y-61557200D01*
X222642857Y-61557200D02*
X222595238Y-61509580D01*
X170214285Y-89654819D02*
X170214285Y-88654819D01*
X170214285Y-88654819D02*
X170547618Y-89369104D01*
X170547618Y-89369104D02*
X170880951Y-88654819D01*
X170880951Y-88654819D02*
X170880951Y-89654819D01*
X171499999Y-89654819D02*
X171404761Y-89607200D01*
X171404761Y-89607200D02*
X171357142Y-89559580D01*
X171357142Y-89559580D02*
X171309523Y-89464342D01*
X171309523Y-89464342D02*
X171309523Y-89178628D01*
X171309523Y-89178628D02*
X171357142Y-89083390D01*
X171357142Y-89083390D02*
X171404761Y-89035771D01*
X171404761Y-89035771D02*
X171499999Y-88988152D01*
X171499999Y-88988152D02*
X171642856Y-88988152D01*
X171642856Y-88988152D02*
X171738094Y-89035771D01*
X171738094Y-89035771D02*
X171785713Y-89083390D01*
X171785713Y-89083390D02*
X171833332Y-89178628D01*
X171833332Y-89178628D02*
X171833332Y-89464342D01*
X171833332Y-89464342D02*
X171785713Y-89559580D01*
X171785713Y-89559580D02*
X171738094Y-89607200D01*
X171738094Y-89607200D02*
X171642856Y-89654819D01*
X171642856Y-89654819D02*
X171499999Y-89654819D01*
X172690475Y-88988152D02*
X172690475Y-89654819D01*
X172261904Y-88988152D02*
X172261904Y-89511961D01*
X172261904Y-89511961D02*
X172309523Y-89607200D01*
X172309523Y-89607200D02*
X172404761Y-89654819D01*
X172404761Y-89654819D02*
X172547618Y-89654819D01*
X172547618Y-89654819D02*
X172642856Y-89607200D01*
X172642856Y-89607200D02*
X172690475Y-89559580D01*
X173166666Y-88988152D02*
X173166666Y-89654819D01*
X173166666Y-89083390D02*
X173214285Y-89035771D01*
X173214285Y-89035771D02*
X173309523Y-88988152D01*
X173309523Y-88988152D02*
X173452380Y-88988152D01*
X173452380Y-88988152D02*
X173547618Y-89035771D01*
X173547618Y-89035771D02*
X173595237Y-89131009D01*
X173595237Y-89131009D02*
X173595237Y-89654819D01*
X173928571Y-88988152D02*
X174309523Y-88988152D01*
X174071428Y-88654819D02*
X174071428Y-89511961D01*
X174071428Y-89511961D02*
X174119047Y-89607200D01*
X174119047Y-89607200D02*
X174214285Y-89654819D01*
X174214285Y-89654819D02*
X174309523Y-89654819D01*
X174642857Y-89654819D02*
X174642857Y-88988152D01*
X174642857Y-88654819D02*
X174595238Y-88702438D01*
X174595238Y-88702438D02*
X174642857Y-88750057D01*
X174642857Y-88750057D02*
X174690476Y-88702438D01*
X174690476Y-88702438D02*
X174642857Y-88654819D01*
X174642857Y-88654819D02*
X174642857Y-88750057D01*
X175119047Y-88988152D02*
X175119047Y-89654819D01*
X175119047Y-89083390D02*
X175166666Y-89035771D01*
X175166666Y-89035771D02*
X175261904Y-88988152D01*
X175261904Y-88988152D02*
X175404761Y-88988152D01*
X175404761Y-88988152D02*
X175499999Y-89035771D01*
X175499999Y-89035771D02*
X175547618Y-89131009D01*
X175547618Y-89131009D02*
X175547618Y-89654819D01*
X176452380Y-88988152D02*
X176452380Y-89797676D01*
X176452380Y-89797676D02*
X176404761Y-89892914D01*
X176404761Y-89892914D02*
X176357142Y-89940533D01*
X176357142Y-89940533D02*
X176261904Y-89988152D01*
X176261904Y-89988152D02*
X176119047Y-89988152D01*
X176119047Y-89988152D02*
X176023809Y-89940533D01*
X176452380Y-89607200D02*
X176357142Y-89654819D01*
X176357142Y-89654819D02*
X176166666Y-89654819D01*
X176166666Y-89654819D02*
X176071428Y-89607200D01*
X176071428Y-89607200D02*
X176023809Y-89559580D01*
X176023809Y-89559580D02*
X175976190Y-89464342D01*
X175976190Y-89464342D02*
X175976190Y-89178628D01*
X175976190Y-89178628D02*
X176023809Y-89083390D01*
X176023809Y-89083390D02*
X176071428Y-89035771D01*
X176071428Y-89035771D02*
X176166666Y-88988152D01*
X176166666Y-88988152D02*
X176357142Y-88988152D01*
X176357142Y-88988152D02*
X176452380Y-89035771D01*
X176928571Y-89654819D02*
X176928571Y-88654819D01*
X176928571Y-89131009D02*
X177499999Y-89131009D01*
X177499999Y-89654819D02*
X177499999Y-88654819D01*
X178119047Y-89654819D02*
X178023809Y-89607200D01*
X178023809Y-89607200D02*
X177976190Y-89559580D01*
X177976190Y-89559580D02*
X177928571Y-89464342D01*
X177928571Y-89464342D02*
X177928571Y-89178628D01*
X177928571Y-89178628D02*
X177976190Y-89083390D01*
X177976190Y-89083390D02*
X178023809Y-89035771D01*
X178023809Y-89035771D02*
X178119047Y-88988152D01*
X178119047Y-88988152D02*
X178261904Y-88988152D01*
X178261904Y-88988152D02*
X178357142Y-89035771D01*
X178357142Y-89035771D02*
X178404761Y-89083390D01*
X178404761Y-89083390D02*
X178452380Y-89178628D01*
X178452380Y-89178628D02*
X178452380Y-89464342D01*
X178452380Y-89464342D02*
X178404761Y-89559580D01*
X178404761Y-89559580D02*
X178357142Y-89607200D01*
X178357142Y-89607200D02*
X178261904Y-89654819D01*
X178261904Y-89654819D02*
X178119047Y-89654819D01*
X179023809Y-89654819D02*
X178928571Y-89607200D01*
X178928571Y-89607200D02*
X178880952Y-89511961D01*
X178880952Y-89511961D02*
X178880952Y-88654819D01*
X179785714Y-89607200D02*
X179690476Y-89654819D01*
X179690476Y-89654819D02*
X179500000Y-89654819D01*
X179500000Y-89654819D02*
X179404762Y-89607200D01*
X179404762Y-89607200D02*
X179357143Y-89511961D01*
X179357143Y-89511961D02*
X179357143Y-89131009D01*
X179357143Y-89131009D02*
X179404762Y-89035771D01*
X179404762Y-89035771D02*
X179500000Y-88988152D01*
X179500000Y-88988152D02*
X179690476Y-88988152D01*
X179690476Y-88988152D02*
X179785714Y-89035771D01*
X179785714Y-89035771D02*
X179833333Y-89131009D01*
X179833333Y-89131009D02*
X179833333Y-89226247D01*
X179833333Y-89226247D02*
X179357143Y-89321485D01*
X174238095Y-85454819D02*
X174238095Y-84454819D01*
X174238095Y-84931009D02*
X174809523Y-84931009D01*
X174809523Y-85454819D02*
X174809523Y-84454819D01*
X175190476Y-84454819D02*
X175809523Y-84454819D01*
X175809523Y-84454819D02*
X175476190Y-84835771D01*
X175476190Y-84835771D02*
X175619047Y-84835771D01*
X175619047Y-84835771D02*
X175714285Y-84883390D01*
X175714285Y-84883390D02*
X175761904Y-84931009D01*
X175761904Y-84931009D02*
X175809523Y-85026247D01*
X175809523Y-85026247D02*
X175809523Y-85264342D01*
X175809523Y-85264342D02*
X175761904Y-85359580D01*
X175761904Y-85359580D02*
X175714285Y-85407200D01*
X175714285Y-85407200D02*
X175619047Y-85454819D01*
X175619047Y-85454819D02*
X175333333Y-85454819D01*
X175333333Y-85454819D02*
X175238095Y-85407200D01*
X175238095Y-85407200D02*
X175190476Y-85359580D01*
X220708095Y-80563866D02*
X220755714Y-80516247D01*
X220755714Y-80516247D02*
X220850952Y-80468628D01*
X220850952Y-80468628D02*
X221041428Y-80563866D01*
X221041428Y-80563866D02*
X221136666Y-80516247D01*
X221136666Y-80516247D02*
X221184285Y-80468628D01*
X220208095Y-81444819D02*
X220208095Y-82254342D01*
X220208095Y-82254342D02*
X220255714Y-82349580D01*
X220255714Y-82349580D02*
X220303333Y-82397200D01*
X220303333Y-82397200D02*
X220398571Y-82444819D01*
X220398571Y-82444819D02*
X220589047Y-82444819D01*
X220589047Y-82444819D02*
X220684285Y-82397200D01*
X220684285Y-82397200D02*
X220731904Y-82349580D01*
X220731904Y-82349580D02*
X220779523Y-82254342D01*
X220779523Y-82254342D02*
X220779523Y-81444819D01*
X221779523Y-82444819D02*
X221208095Y-82444819D01*
X221493809Y-82444819D02*
X221493809Y-81444819D01*
X221493809Y-81444819D02*
X221398571Y-81587676D01*
X221398571Y-81587676D02*
X221303333Y-81682914D01*
X221303333Y-81682914D02*
X221208095Y-81730533D01*
X230214285Y-89654819D02*
X230214285Y-88654819D01*
X230214285Y-88654819D02*
X230547618Y-89369104D01*
X230547618Y-89369104D02*
X230880951Y-88654819D01*
X230880951Y-88654819D02*
X230880951Y-89654819D01*
X231499999Y-89654819D02*
X231404761Y-89607200D01*
X231404761Y-89607200D02*
X231357142Y-89559580D01*
X231357142Y-89559580D02*
X231309523Y-89464342D01*
X231309523Y-89464342D02*
X231309523Y-89178628D01*
X231309523Y-89178628D02*
X231357142Y-89083390D01*
X231357142Y-89083390D02*
X231404761Y-89035771D01*
X231404761Y-89035771D02*
X231499999Y-88988152D01*
X231499999Y-88988152D02*
X231642856Y-88988152D01*
X231642856Y-88988152D02*
X231738094Y-89035771D01*
X231738094Y-89035771D02*
X231785713Y-89083390D01*
X231785713Y-89083390D02*
X231833332Y-89178628D01*
X231833332Y-89178628D02*
X231833332Y-89464342D01*
X231833332Y-89464342D02*
X231785713Y-89559580D01*
X231785713Y-89559580D02*
X231738094Y-89607200D01*
X231738094Y-89607200D02*
X231642856Y-89654819D01*
X231642856Y-89654819D02*
X231499999Y-89654819D01*
X232690475Y-88988152D02*
X232690475Y-89654819D01*
X232261904Y-88988152D02*
X232261904Y-89511961D01*
X232261904Y-89511961D02*
X232309523Y-89607200D01*
X232309523Y-89607200D02*
X232404761Y-89654819D01*
X232404761Y-89654819D02*
X232547618Y-89654819D01*
X232547618Y-89654819D02*
X232642856Y-89607200D01*
X232642856Y-89607200D02*
X232690475Y-89559580D01*
X233166666Y-88988152D02*
X233166666Y-89654819D01*
X233166666Y-89083390D02*
X233214285Y-89035771D01*
X233214285Y-89035771D02*
X233309523Y-88988152D01*
X233309523Y-88988152D02*
X233452380Y-88988152D01*
X233452380Y-88988152D02*
X233547618Y-89035771D01*
X233547618Y-89035771D02*
X233595237Y-89131009D01*
X233595237Y-89131009D02*
X233595237Y-89654819D01*
X233928571Y-88988152D02*
X234309523Y-88988152D01*
X234071428Y-88654819D02*
X234071428Y-89511961D01*
X234071428Y-89511961D02*
X234119047Y-89607200D01*
X234119047Y-89607200D02*
X234214285Y-89654819D01*
X234214285Y-89654819D02*
X234309523Y-89654819D01*
X234642857Y-89654819D02*
X234642857Y-88988152D01*
X234642857Y-88654819D02*
X234595238Y-88702438D01*
X234595238Y-88702438D02*
X234642857Y-88750057D01*
X234642857Y-88750057D02*
X234690476Y-88702438D01*
X234690476Y-88702438D02*
X234642857Y-88654819D01*
X234642857Y-88654819D02*
X234642857Y-88750057D01*
X235119047Y-88988152D02*
X235119047Y-89654819D01*
X235119047Y-89083390D02*
X235166666Y-89035771D01*
X235166666Y-89035771D02*
X235261904Y-88988152D01*
X235261904Y-88988152D02*
X235404761Y-88988152D01*
X235404761Y-88988152D02*
X235499999Y-89035771D01*
X235499999Y-89035771D02*
X235547618Y-89131009D01*
X235547618Y-89131009D02*
X235547618Y-89654819D01*
X236452380Y-88988152D02*
X236452380Y-89797676D01*
X236452380Y-89797676D02*
X236404761Y-89892914D01*
X236404761Y-89892914D02*
X236357142Y-89940533D01*
X236357142Y-89940533D02*
X236261904Y-89988152D01*
X236261904Y-89988152D02*
X236119047Y-89988152D01*
X236119047Y-89988152D02*
X236023809Y-89940533D01*
X236452380Y-89607200D02*
X236357142Y-89654819D01*
X236357142Y-89654819D02*
X236166666Y-89654819D01*
X236166666Y-89654819D02*
X236071428Y-89607200D01*
X236071428Y-89607200D02*
X236023809Y-89559580D01*
X236023809Y-89559580D02*
X235976190Y-89464342D01*
X235976190Y-89464342D02*
X235976190Y-89178628D01*
X235976190Y-89178628D02*
X236023809Y-89083390D01*
X236023809Y-89083390D02*
X236071428Y-89035771D01*
X236071428Y-89035771D02*
X236166666Y-88988152D01*
X236166666Y-88988152D02*
X236357142Y-88988152D01*
X236357142Y-88988152D02*
X236452380Y-89035771D01*
X236928571Y-89654819D02*
X236928571Y-88654819D01*
X236928571Y-89131009D02*
X237499999Y-89131009D01*
X237499999Y-89654819D02*
X237499999Y-88654819D01*
X238119047Y-89654819D02*
X238023809Y-89607200D01*
X238023809Y-89607200D02*
X237976190Y-89559580D01*
X237976190Y-89559580D02*
X237928571Y-89464342D01*
X237928571Y-89464342D02*
X237928571Y-89178628D01*
X237928571Y-89178628D02*
X237976190Y-89083390D01*
X237976190Y-89083390D02*
X238023809Y-89035771D01*
X238023809Y-89035771D02*
X238119047Y-88988152D01*
X238119047Y-88988152D02*
X238261904Y-88988152D01*
X238261904Y-88988152D02*
X238357142Y-89035771D01*
X238357142Y-89035771D02*
X238404761Y-89083390D01*
X238404761Y-89083390D02*
X238452380Y-89178628D01*
X238452380Y-89178628D02*
X238452380Y-89464342D01*
X238452380Y-89464342D02*
X238404761Y-89559580D01*
X238404761Y-89559580D02*
X238357142Y-89607200D01*
X238357142Y-89607200D02*
X238261904Y-89654819D01*
X238261904Y-89654819D02*
X238119047Y-89654819D01*
X239023809Y-89654819D02*
X238928571Y-89607200D01*
X238928571Y-89607200D02*
X238880952Y-89511961D01*
X238880952Y-89511961D02*
X238880952Y-88654819D01*
X239785714Y-89607200D02*
X239690476Y-89654819D01*
X239690476Y-89654819D02*
X239500000Y-89654819D01*
X239500000Y-89654819D02*
X239404762Y-89607200D01*
X239404762Y-89607200D02*
X239357143Y-89511961D01*
X239357143Y-89511961D02*
X239357143Y-89131009D01*
X239357143Y-89131009D02*
X239404762Y-89035771D01*
X239404762Y-89035771D02*
X239500000Y-88988152D01*
X239500000Y-88988152D02*
X239690476Y-88988152D01*
X239690476Y-88988152D02*
X239785714Y-89035771D01*
X239785714Y-89035771D02*
X239833333Y-89131009D01*
X239833333Y-89131009D02*
X239833333Y-89226247D01*
X239833333Y-89226247D02*
X239357143Y-89321485D01*
X234238095Y-85454819D02*
X234238095Y-84454819D01*
X234238095Y-84931009D02*
X234809523Y-84931009D01*
X234809523Y-85454819D02*
X234809523Y-84454819D01*
X235714285Y-84788152D02*
X235714285Y-85454819D01*
X235476190Y-84407200D02*
X235238095Y-85121485D01*
X235238095Y-85121485D02*
X235857142Y-85121485D01*
X203454819Y-75928570D02*
X203454819Y-75309523D01*
X203454819Y-75309523D02*
X203835771Y-75642856D01*
X203835771Y-75642856D02*
X203835771Y-75499999D01*
X203835771Y-75499999D02*
X203883390Y-75404761D01*
X203883390Y-75404761D02*
X203931009Y-75357142D01*
X203931009Y-75357142D02*
X204026247Y-75309523D01*
X204026247Y-75309523D02*
X204264342Y-75309523D01*
X204264342Y-75309523D02*
X204359580Y-75357142D01*
X204359580Y-75357142D02*
X204407200Y-75404761D01*
X204407200Y-75404761D02*
X204454819Y-75499999D01*
X204454819Y-75499999D02*
X204454819Y-75785713D01*
X204454819Y-75785713D02*
X204407200Y-75880951D01*
X204407200Y-75880951D02*
X204359580Y-75928570D01*
X204359580Y-74880951D02*
X204407200Y-74833332D01*
X204407200Y-74833332D02*
X204454819Y-74880951D01*
X204454819Y-74880951D02*
X204407200Y-74928570D01*
X204407200Y-74928570D02*
X204359580Y-74880951D01*
X204359580Y-74880951D02*
X204454819Y-74880951D01*
X203454819Y-74499999D02*
X203454819Y-73880952D01*
X203454819Y-73880952D02*
X203835771Y-74214285D01*
X203835771Y-74214285D02*
X203835771Y-74071428D01*
X203835771Y-74071428D02*
X203883390Y-73976190D01*
X203883390Y-73976190D02*
X203931009Y-73928571D01*
X203931009Y-73928571D02*
X204026247Y-73880952D01*
X204026247Y-73880952D02*
X204264342Y-73880952D01*
X204264342Y-73880952D02*
X204359580Y-73928571D01*
X204359580Y-73928571D02*
X204407200Y-73976190D01*
X204407200Y-73976190D02*
X204454819Y-74071428D01*
X204454819Y-74071428D02*
X204454819Y-74357142D01*
X204454819Y-74357142D02*
X204407200Y-74452380D01*
X204407200Y-74452380D02*
X204359580Y-74499999D01*
X203788152Y-73023809D02*
X204454819Y-73023809D01*
X203788152Y-73452380D02*
X204311961Y-73452380D01*
X204311961Y-73452380D02*
X204407200Y-73404761D01*
X204407200Y-73404761D02*
X204454819Y-73309523D01*
X204454819Y-73309523D02*
X204454819Y-73166666D01*
X204454819Y-73166666D02*
X204407200Y-73071428D01*
X204407200Y-73071428D02*
X204359580Y-73023809D01*
X203931009Y-72214285D02*
X203931009Y-72547618D01*
X204454819Y-72547618D02*
X203454819Y-72547618D01*
X203454819Y-72547618D02*
X203454819Y-72071428D01*
X207859580Y-74166666D02*
X207907200Y-74214285D01*
X207907200Y-74214285D02*
X207954819Y-74357142D01*
X207954819Y-74357142D02*
X207954819Y-74452380D01*
X207954819Y-74452380D02*
X207907200Y-74595237D01*
X207907200Y-74595237D02*
X207811961Y-74690475D01*
X207811961Y-74690475D02*
X207716723Y-74738094D01*
X207716723Y-74738094D02*
X207526247Y-74785713D01*
X207526247Y-74785713D02*
X207383390Y-74785713D01*
X207383390Y-74785713D02*
X207192914Y-74738094D01*
X207192914Y-74738094D02*
X207097676Y-74690475D01*
X207097676Y-74690475D02*
X207002438Y-74595237D01*
X207002438Y-74595237D02*
X206954819Y-74452380D01*
X206954819Y-74452380D02*
X206954819Y-74357142D01*
X206954819Y-74357142D02*
X207002438Y-74214285D01*
X207002438Y-74214285D02*
X207050057Y-74166666D01*
X207954819Y-73214285D02*
X207954819Y-73785713D01*
X207954819Y-73499999D02*
X206954819Y-73499999D01*
X206954819Y-73499999D02*
X207097676Y-73595237D01*
X207097676Y-73595237D02*
X207192914Y-73690475D01*
X207192914Y-73690475D02*
X207240533Y-73785713D01*
X183666665Y-77859580D02*
X183619046Y-77907200D01*
X183619046Y-77907200D02*
X183476189Y-77954819D01*
X183476189Y-77954819D02*
X183380951Y-77954819D01*
X183380951Y-77954819D02*
X183238094Y-77907200D01*
X183238094Y-77907200D02*
X183142856Y-77811961D01*
X183142856Y-77811961D02*
X183095237Y-77716723D01*
X183095237Y-77716723D02*
X183047618Y-77526247D01*
X183047618Y-77526247D02*
X183047618Y-77383390D01*
X183047618Y-77383390D02*
X183095237Y-77192914D01*
X183095237Y-77192914D02*
X183142856Y-77097676D01*
X183142856Y-77097676D02*
X183238094Y-77002438D01*
X183238094Y-77002438D02*
X183380951Y-76954819D01*
X183380951Y-76954819D02*
X183476189Y-76954819D01*
X183476189Y-76954819D02*
X183619046Y-77002438D01*
X183619046Y-77002438D02*
X183666665Y-77050057D01*
X184238094Y-77954819D02*
X184142856Y-77907200D01*
X184142856Y-77907200D02*
X184095237Y-77859580D01*
X184095237Y-77859580D02*
X184047618Y-77764342D01*
X184047618Y-77764342D02*
X184047618Y-77478628D01*
X184047618Y-77478628D02*
X184095237Y-77383390D01*
X184095237Y-77383390D02*
X184142856Y-77335771D01*
X184142856Y-77335771D02*
X184238094Y-77288152D01*
X184238094Y-77288152D02*
X184380951Y-77288152D01*
X184380951Y-77288152D02*
X184476189Y-77335771D01*
X184476189Y-77335771D02*
X184523808Y-77383390D01*
X184523808Y-77383390D02*
X184571427Y-77478628D01*
X184571427Y-77478628D02*
X184571427Y-77764342D01*
X184571427Y-77764342D02*
X184523808Y-77859580D01*
X184523808Y-77859580D02*
X184476189Y-77907200D01*
X184476189Y-77907200D02*
X184380951Y-77954819D01*
X184380951Y-77954819D02*
X184238094Y-77954819D01*
X184999999Y-77288152D02*
X184999999Y-77954819D01*
X184999999Y-77383390D02*
X185047618Y-77335771D01*
X185047618Y-77335771D02*
X185142856Y-77288152D01*
X185142856Y-77288152D02*
X185285713Y-77288152D01*
X185285713Y-77288152D02*
X185380951Y-77335771D01*
X185380951Y-77335771D02*
X185428570Y-77431009D01*
X185428570Y-77431009D02*
X185428570Y-77954819D01*
X185904761Y-77288152D02*
X185904761Y-77954819D01*
X185904761Y-77383390D02*
X185952380Y-77335771D01*
X185952380Y-77335771D02*
X186047618Y-77288152D01*
X186047618Y-77288152D02*
X186190475Y-77288152D01*
X186190475Y-77288152D02*
X186285713Y-77335771D01*
X186285713Y-77335771D02*
X186333332Y-77431009D01*
X186333332Y-77431009D02*
X186333332Y-77954819D01*
X186571428Y-78050057D02*
X187333332Y-78050057D01*
X187857142Y-76954819D02*
X187857142Y-77669104D01*
X187857142Y-77669104D02*
X187809523Y-77811961D01*
X187809523Y-77811961D02*
X187714285Y-77907200D01*
X187714285Y-77907200D02*
X187571428Y-77954819D01*
X187571428Y-77954819D02*
X187476190Y-77954819D01*
X188714285Y-77907200D02*
X188619047Y-77954819D01*
X188619047Y-77954819D02*
X188428571Y-77954819D01*
X188428571Y-77954819D02*
X188333333Y-77907200D01*
X188333333Y-77907200D02*
X188285714Y-77811961D01*
X188285714Y-77811961D02*
X188285714Y-77431009D01*
X188285714Y-77431009D02*
X188333333Y-77335771D01*
X188333333Y-77335771D02*
X188428571Y-77288152D01*
X188428571Y-77288152D02*
X188619047Y-77288152D01*
X188619047Y-77288152D02*
X188714285Y-77335771D01*
X188714285Y-77335771D02*
X188761904Y-77431009D01*
X188761904Y-77431009D02*
X188761904Y-77526247D01*
X188761904Y-77526247D02*
X188285714Y-77621485D01*
X189047619Y-77288152D02*
X189428571Y-77288152D01*
X189190476Y-76954819D02*
X189190476Y-77811961D01*
X189190476Y-77811961D02*
X189238095Y-77907200D01*
X189238095Y-77907200D02*
X189333333Y-77954819D01*
X189333333Y-77954819D02*
X189428571Y-77954819D01*
X189714286Y-77907200D02*
X189809524Y-77954819D01*
X189809524Y-77954819D02*
X190000000Y-77954819D01*
X190000000Y-77954819D02*
X190095238Y-77907200D01*
X190095238Y-77907200D02*
X190142857Y-77811961D01*
X190142857Y-77811961D02*
X190142857Y-77764342D01*
X190142857Y-77764342D02*
X190095238Y-77669104D01*
X190095238Y-77669104D02*
X190000000Y-77621485D01*
X190000000Y-77621485D02*
X189857143Y-77621485D01*
X189857143Y-77621485D02*
X189761905Y-77573866D01*
X189761905Y-77573866D02*
X189714286Y-77478628D01*
X189714286Y-77478628D02*
X189714286Y-77431009D01*
X189714286Y-77431009D02*
X189761905Y-77335771D01*
X189761905Y-77335771D02*
X189857143Y-77288152D01*
X189857143Y-77288152D02*
X190000000Y-77288152D01*
X190000000Y-77288152D02*
X190095238Y-77335771D01*
X190714286Y-77954819D02*
X190619048Y-77907200D01*
X190619048Y-77907200D02*
X190571429Y-77859580D01*
X190571429Y-77859580D02*
X190523810Y-77764342D01*
X190523810Y-77764342D02*
X190523810Y-77478628D01*
X190523810Y-77478628D02*
X190571429Y-77383390D01*
X190571429Y-77383390D02*
X190619048Y-77335771D01*
X190619048Y-77335771D02*
X190714286Y-77288152D01*
X190714286Y-77288152D02*
X190857143Y-77288152D01*
X190857143Y-77288152D02*
X190952381Y-77335771D01*
X190952381Y-77335771D02*
X191000000Y-77383390D01*
X191000000Y-77383390D02*
X191047619Y-77478628D01*
X191047619Y-77478628D02*
X191047619Y-77764342D01*
X191047619Y-77764342D02*
X191000000Y-77859580D01*
X191000000Y-77859580D02*
X190952381Y-77907200D01*
X190952381Y-77907200D02*
X190857143Y-77954819D01*
X190857143Y-77954819D02*
X190714286Y-77954819D01*
X191476191Y-77288152D02*
X191476191Y-77954819D01*
X191476191Y-77383390D02*
X191523810Y-77335771D01*
X191523810Y-77335771D02*
X191619048Y-77288152D01*
X191619048Y-77288152D02*
X191761905Y-77288152D01*
X191761905Y-77288152D02*
X191857143Y-77335771D01*
X191857143Y-77335771D02*
X191904762Y-77431009D01*
X191904762Y-77431009D02*
X191904762Y-77954819D01*
X187166666Y-83454819D02*
X187166666Y-84169104D01*
X187166666Y-84169104D02*
X187119047Y-84311961D01*
X187119047Y-84311961D02*
X187023809Y-84407200D01*
X187023809Y-84407200D02*
X186880952Y-84454819D01*
X186880952Y-84454819D02*
X186785714Y-84454819D01*
X187595238Y-83550057D02*
X187642857Y-83502438D01*
X187642857Y-83502438D02*
X187738095Y-83454819D01*
X187738095Y-83454819D02*
X187976190Y-83454819D01*
X187976190Y-83454819D02*
X188071428Y-83502438D01*
X188071428Y-83502438D02*
X188119047Y-83550057D01*
X188119047Y-83550057D02*
X188166666Y-83645295D01*
X188166666Y-83645295D02*
X188166666Y-83740533D01*
X188166666Y-83740533D02*
X188119047Y-83883390D01*
X188119047Y-83883390D02*
X187547619Y-84454819D01*
X187547619Y-84454819D02*
X188166666Y-84454819D01*
X181976190Y-67859580D02*
X181928571Y-67907200D01*
X181928571Y-67907200D02*
X181785714Y-67954819D01*
X181785714Y-67954819D02*
X181690476Y-67954819D01*
X181690476Y-67954819D02*
X181547619Y-67907200D01*
X181547619Y-67907200D02*
X181452381Y-67811961D01*
X181452381Y-67811961D02*
X181404762Y-67716723D01*
X181404762Y-67716723D02*
X181357143Y-67526247D01*
X181357143Y-67526247D02*
X181357143Y-67383390D01*
X181357143Y-67383390D02*
X181404762Y-67192914D01*
X181404762Y-67192914D02*
X181452381Y-67097676D01*
X181452381Y-67097676D02*
X181547619Y-67002438D01*
X181547619Y-67002438D02*
X181690476Y-66954819D01*
X181690476Y-66954819D02*
X181785714Y-66954819D01*
X181785714Y-66954819D02*
X181928571Y-67002438D01*
X181928571Y-67002438D02*
X181976190Y-67050057D01*
X182547619Y-67954819D02*
X182452381Y-67907200D01*
X182452381Y-67907200D02*
X182404762Y-67859580D01*
X182404762Y-67859580D02*
X182357143Y-67764342D01*
X182357143Y-67764342D02*
X182357143Y-67478628D01*
X182357143Y-67478628D02*
X182404762Y-67383390D01*
X182404762Y-67383390D02*
X182452381Y-67335771D01*
X182452381Y-67335771D02*
X182547619Y-67288152D01*
X182547619Y-67288152D02*
X182690476Y-67288152D01*
X182690476Y-67288152D02*
X182785714Y-67335771D01*
X182785714Y-67335771D02*
X182833333Y-67383390D01*
X182833333Y-67383390D02*
X182880952Y-67478628D01*
X182880952Y-67478628D02*
X182880952Y-67764342D01*
X182880952Y-67764342D02*
X182833333Y-67859580D01*
X182833333Y-67859580D02*
X182785714Y-67907200D01*
X182785714Y-67907200D02*
X182690476Y-67954819D01*
X182690476Y-67954819D02*
X182547619Y-67954819D01*
X183309524Y-67288152D02*
X183309524Y-67954819D01*
X183309524Y-67383390D02*
X183357143Y-67335771D01*
X183357143Y-67335771D02*
X183452381Y-67288152D01*
X183452381Y-67288152D02*
X183595238Y-67288152D01*
X183595238Y-67288152D02*
X183690476Y-67335771D01*
X183690476Y-67335771D02*
X183738095Y-67431009D01*
X183738095Y-67431009D02*
X183738095Y-67954819D01*
X184214286Y-67288152D02*
X184214286Y-67954819D01*
X184214286Y-67383390D02*
X184261905Y-67335771D01*
X184261905Y-67335771D02*
X184357143Y-67288152D01*
X184357143Y-67288152D02*
X184500000Y-67288152D01*
X184500000Y-67288152D02*
X184595238Y-67335771D01*
X184595238Y-67335771D02*
X184642857Y-67431009D01*
X184642857Y-67431009D02*
X184642857Y-67954819D01*
X184880953Y-68050057D02*
X185642857Y-68050057D01*
X185880953Y-67954819D02*
X185880953Y-66954819D01*
X185880953Y-66954819D02*
X186214286Y-67669104D01*
X186214286Y-67669104D02*
X186547619Y-66954819D01*
X186547619Y-66954819D02*
X186547619Y-67954819D01*
X187452381Y-67954819D02*
X187452381Y-67431009D01*
X187452381Y-67431009D02*
X187404762Y-67335771D01*
X187404762Y-67335771D02*
X187309524Y-67288152D01*
X187309524Y-67288152D02*
X187119048Y-67288152D01*
X187119048Y-67288152D02*
X187023810Y-67335771D01*
X187452381Y-67907200D02*
X187357143Y-67954819D01*
X187357143Y-67954819D02*
X187119048Y-67954819D01*
X187119048Y-67954819D02*
X187023810Y-67907200D01*
X187023810Y-67907200D02*
X186976191Y-67811961D01*
X186976191Y-67811961D02*
X186976191Y-67716723D01*
X186976191Y-67716723D02*
X187023810Y-67621485D01*
X187023810Y-67621485D02*
X187119048Y-67573866D01*
X187119048Y-67573866D02*
X187357143Y-67573866D01*
X187357143Y-67573866D02*
X187452381Y-67526247D01*
X187928572Y-67954819D02*
X187928572Y-67288152D01*
X187928572Y-66954819D02*
X187880953Y-67002438D01*
X187880953Y-67002438D02*
X187928572Y-67050057D01*
X187928572Y-67050057D02*
X187976191Y-67002438D01*
X187976191Y-67002438D02*
X187928572Y-66954819D01*
X187928572Y-66954819D02*
X187928572Y-67050057D01*
X188404762Y-67288152D02*
X188404762Y-67954819D01*
X188404762Y-67383390D02*
X188452381Y-67335771D01*
X188452381Y-67335771D02*
X188547619Y-67288152D01*
X188547619Y-67288152D02*
X188690476Y-67288152D01*
X188690476Y-67288152D02*
X188785714Y-67335771D01*
X188785714Y-67335771D02*
X188833333Y-67431009D01*
X188833333Y-67431009D02*
X188833333Y-67954819D01*
X189071429Y-68050057D02*
X189833333Y-68050057D01*
X190071429Y-67954819D02*
X190071429Y-66954819D01*
X190071429Y-66954819D02*
X190309524Y-66954819D01*
X190309524Y-66954819D02*
X190452381Y-67002438D01*
X190452381Y-67002438D02*
X190547619Y-67097676D01*
X190547619Y-67097676D02*
X190595238Y-67192914D01*
X190595238Y-67192914D02*
X190642857Y-67383390D01*
X190642857Y-67383390D02*
X190642857Y-67526247D01*
X190642857Y-67526247D02*
X190595238Y-67716723D01*
X190595238Y-67716723D02*
X190547619Y-67811961D01*
X190547619Y-67811961D02*
X190452381Y-67907200D01*
X190452381Y-67907200D02*
X190309524Y-67954819D01*
X190309524Y-67954819D02*
X190071429Y-67954819D01*
X191642857Y-67859580D02*
X191595238Y-67907200D01*
X191595238Y-67907200D02*
X191452381Y-67954819D01*
X191452381Y-67954819D02*
X191357143Y-67954819D01*
X191357143Y-67954819D02*
X191214286Y-67907200D01*
X191214286Y-67907200D02*
X191119048Y-67811961D01*
X191119048Y-67811961D02*
X191071429Y-67716723D01*
X191071429Y-67716723D02*
X191023810Y-67526247D01*
X191023810Y-67526247D02*
X191023810Y-67383390D01*
X191023810Y-67383390D02*
X191071429Y-67192914D01*
X191071429Y-67192914D02*
X191119048Y-67097676D01*
X191119048Y-67097676D02*
X191214286Y-67002438D01*
X191214286Y-67002438D02*
X191357143Y-66954819D01*
X191357143Y-66954819D02*
X191452381Y-66954819D01*
X191452381Y-66954819D02*
X191595238Y-67002438D01*
X191595238Y-67002438D02*
X191642857Y-67050057D01*
X192071429Y-67954819D02*
X192071429Y-66954819D01*
X192071429Y-66954819D02*
X192309524Y-66954819D01*
X192309524Y-66954819D02*
X192452381Y-67002438D01*
X192452381Y-67002438D02*
X192547619Y-67097676D01*
X192547619Y-67097676D02*
X192595238Y-67192914D01*
X192595238Y-67192914D02*
X192642857Y-67383390D01*
X192642857Y-67383390D02*
X192642857Y-67526247D01*
X192642857Y-67526247D02*
X192595238Y-67716723D01*
X192595238Y-67716723D02*
X192547619Y-67811961D01*
X192547619Y-67811961D02*
X192452381Y-67907200D01*
X192452381Y-67907200D02*
X192309524Y-67954819D01*
X192309524Y-67954819D02*
X192071429Y-67954819D01*
X193642857Y-67859580D02*
X193595238Y-67907200D01*
X193595238Y-67907200D02*
X193452381Y-67954819D01*
X193452381Y-67954819D02*
X193357143Y-67954819D01*
X193357143Y-67954819D02*
X193214286Y-67907200D01*
X193214286Y-67907200D02*
X193119048Y-67811961D01*
X193119048Y-67811961D02*
X193071429Y-67716723D01*
X193071429Y-67716723D02*
X193023810Y-67526247D01*
X193023810Y-67526247D02*
X193023810Y-67383390D01*
X193023810Y-67383390D02*
X193071429Y-67192914D01*
X193071429Y-67192914D02*
X193119048Y-67097676D01*
X193119048Y-67097676D02*
X193214286Y-67002438D01*
X193214286Y-67002438D02*
X193357143Y-66954819D01*
X193357143Y-66954819D02*
X193452381Y-66954819D01*
X193452381Y-66954819D02*
X193595238Y-67002438D01*
X193595238Y-67002438D02*
X193642857Y-67050057D01*
X187166666Y-60454819D02*
X187166666Y-61169104D01*
X187166666Y-61169104D02*
X187119047Y-61311961D01*
X187119047Y-61311961D02*
X187023809Y-61407200D01*
X187023809Y-61407200D02*
X186880952Y-61454819D01*
X186880952Y-61454819D02*
X186785714Y-61454819D01*
X188071428Y-60454819D02*
X187880952Y-60454819D01*
X187880952Y-60454819D02*
X187785714Y-60502438D01*
X187785714Y-60502438D02*
X187738095Y-60550057D01*
X187738095Y-60550057D02*
X187642857Y-60692914D01*
X187642857Y-60692914D02*
X187595238Y-60883390D01*
X187595238Y-60883390D02*
X187595238Y-61264342D01*
X187595238Y-61264342D02*
X187642857Y-61359580D01*
X187642857Y-61359580D02*
X187690476Y-61407200D01*
X187690476Y-61407200D02*
X187785714Y-61454819D01*
X187785714Y-61454819D02*
X187976190Y-61454819D01*
X187976190Y-61454819D02*
X188071428Y-61407200D01*
X188071428Y-61407200D02*
X188119047Y-61359580D01*
X188119047Y-61359580D02*
X188166666Y-61264342D01*
X188166666Y-61264342D02*
X188166666Y-61026247D01*
X188166666Y-61026247D02*
X188119047Y-60931009D01*
X188119047Y-60931009D02*
X188071428Y-60883390D01*
X188071428Y-60883390D02*
X187976190Y-60835771D01*
X187976190Y-60835771D02*
X187785714Y-60835771D01*
X187785714Y-60835771D02*
X187690476Y-60883390D01*
X187690476Y-60883390D02*
X187642857Y-60931009D01*
X187642857Y-60931009D02*
X187595238Y-61026247D01*
D11*
%TO.C,J7*%
X201850000Y-58150000D02*
X202550000Y-58150000D01*
X201850000Y-60150000D02*
X213150000Y-60150000D01*
X202550000Y-56100000D02*
X202550000Y-58150000D01*
X202550000Y-56100000D02*
X212450000Y-56100000D01*
X203080000Y-50100000D02*
X203080000Y-56100000D01*
X203080000Y-50100000D02*
X211920000Y-50100000D01*
X211920000Y-50100000D02*
X211920000Y-56100000D01*
X212450000Y-56100000D02*
X212450000Y-58100000D01*
X212450000Y-58150000D02*
X213150000Y-58150000D01*
X201850000Y-60150000D02*
G75*
G02*
X201850000Y-58150000I0J1000000D01*
G01*
X213150000Y-58150000D02*
G75*
G02*
X213150000Y-60150000I0J-1000000D01*
G01*
%TO.C,J5*%
X216850000Y-58150000D02*
X217550000Y-58150000D01*
X216850000Y-60150000D02*
X228150000Y-60150000D01*
X217550000Y-56100000D02*
X217550000Y-58150000D01*
X217550000Y-56100000D02*
X227450000Y-56100000D01*
X218080000Y-50100000D02*
X218080000Y-56100000D01*
X218080000Y-50100000D02*
X226920000Y-50100000D01*
X226920000Y-50100000D02*
X226920000Y-56100000D01*
X227450000Y-56100000D02*
X227450000Y-58100000D01*
X227450000Y-58150000D02*
X228150000Y-58150000D01*
X216850000Y-60150000D02*
G75*
G02*
X216850000Y-58150000I0J1000000D01*
G01*
X228150000Y-58150000D02*
G75*
G02*
X228150000Y-60150000I0J-1000000D01*
G01*
%TO.C,C1*%
X205250000Y-70400000D02*
X205250000Y-77600000D01*
X205250000Y-77600000D02*
X209750000Y-77600000D01*
X209750000Y-70400000D02*
X205250000Y-70400000D01*
X209750000Y-77600000D02*
X209750000Y-70400000D01*
%TO.C,J2*%
X182550000Y-87000000D02*
X181850000Y-87000000D01*
X182550000Y-89050000D02*
X182550000Y-87050000D01*
X183080000Y-95050000D02*
X183080000Y-89050000D01*
X191920000Y-95050000D02*
X183080000Y-95050000D01*
X191920000Y-95050000D02*
X191920000Y-89050000D01*
X192450000Y-89050000D02*
X182550000Y-89050000D01*
X192450000Y-89050000D02*
X192450000Y-87000000D01*
X193150000Y-85000000D02*
X181850000Y-85000000D01*
X193150000Y-87000000D02*
X192450000Y-87000000D01*
X181850000Y-87000000D02*
G75*
G02*
X181850000Y-85000000I0J1000000D01*
G01*
X193150000Y-85000000D02*
G75*
G02*
X193150000Y-87000000I0J-1000000D01*
G01*
%TO.C,J6*%
X181850000Y-58000000D02*
X182550000Y-58000000D01*
X181850000Y-60000000D02*
X193150000Y-60000000D01*
X182550000Y-55950000D02*
X182550000Y-58000000D01*
X182550000Y-55950000D02*
X192450000Y-55950000D01*
X183080000Y-49950000D02*
X183080000Y-55950000D01*
X183080000Y-49950000D02*
X191920000Y-49950000D01*
X191920000Y-49950000D02*
X191920000Y-55950000D01*
X192450000Y-55950000D02*
X192450000Y-57950000D01*
X192450000Y-58000000D02*
X193150000Y-58000000D01*
X181850000Y-60000000D02*
G75*
G02*
X181850000Y-58000000I0J1000000D01*
G01*
X193150000Y-58000000D02*
G75*
G02*
X193150000Y-60000000I0J-1000000D01*
G01*
%TD*%
M02*
