%TF.GenerationSoftware,KiCad,Pcbnew,8.0.6-8.0.6-0~ubuntu22.04.1*%
%TF.CreationDate,2024-12-15T05:01:14+00:00*%
%TF.ProjectId,computer_sensor_board,636f6d70-7574-4657-925f-73656e736f72,rev?*%
%TF.SameCoordinates,Original*%
%TF.FileFunction,Other,User*%
%FSLAX46Y46*%
G04 Gerber Fmt 4.6, Leading zero omitted, Abs format (unit mm)*
G04 Created by KiCad (PCBNEW 8.0.6-8.0.6-0~ubuntu22.04.1) date 2024-12-15 05:01:14*
%MOMM*%
%LPD*%
G01*
G04 APERTURE LIST*
%ADD10C,0.050000*%
G04 APERTURE END LIST*
D10*
%TO.C,H1*%
X178450000Y-60000000D02*
G75*
G02*
X171550000Y-60000000I-3450000J0D01*
G01*
X171550000Y-60000000D02*
G75*
G02*
X178450000Y-60000000I3450000J0D01*
G01*
%TO.C,H2*%
X238450000Y-60000000D02*
G75*
G02*
X231550000Y-60000000I-3450000J0D01*
G01*
X231550000Y-60000000D02*
G75*
G02*
X238450000Y-60000000I3450000J0D01*
G01*
%TO.C,J7*%
X197350000Y-55450000D02*
X197350000Y-66250000D01*
X197350000Y-55450000D02*
X199580000Y-55450000D01*
X197350000Y-66250000D02*
X211650000Y-66250000D01*
X199580000Y-49450000D02*
X199580000Y-55450000D01*
X199580000Y-49450000D02*
X209420000Y-49450000D01*
X209420000Y-49450000D02*
X209420000Y-55450000D01*
X209420000Y-55450000D02*
X211650000Y-55450000D01*
X211650000Y-55450000D02*
X211650000Y-66250000D01*
%TO.C,J5*%
X164250000Y-68580000D02*
X170250000Y-68580000D01*
X164250000Y-78420000D02*
X164250000Y-68580000D01*
X164250000Y-78420000D02*
X170250000Y-78420000D01*
X170250000Y-66350000D02*
X181050000Y-66350000D01*
X170250000Y-68580000D02*
X170250000Y-66350000D01*
X170250000Y-80650000D02*
X170250000Y-78420000D01*
X170250000Y-80650000D02*
X181050000Y-80650000D01*
X181050000Y-80650000D02*
X181050000Y-66350000D01*
%TO.C,H3*%
X178450000Y-85000000D02*
G75*
G02*
X171550000Y-85000000I-3450000J0D01*
G01*
X171550000Y-85000000D02*
G75*
G02*
X178450000Y-85000000I3450000J0D01*
G01*
%TO.C,J1*%
X212350000Y-55450000D02*
X212350000Y-66250000D01*
X212350000Y-55450000D02*
X214580000Y-55450000D01*
X212350000Y-66250000D02*
X226650000Y-66250000D01*
X214580000Y-49450000D02*
X214580000Y-55450000D01*
X214580000Y-49450000D02*
X224420000Y-49450000D01*
X224420000Y-49450000D02*
X224420000Y-55450000D01*
X224420000Y-55450000D02*
X226650000Y-55450000D01*
X226650000Y-55450000D02*
X226650000Y-66250000D01*
%TO.C,H4*%
X238450000Y-85000000D02*
G75*
G02*
X231550000Y-85000000I-3450000J0D01*
G01*
X231550000Y-85000000D02*
G75*
G02*
X238450000Y-85000000I3450000J0D01*
G01*
%TO.C,C1*%
X205000000Y-70150000D02*
X205000000Y-77850000D01*
X205000000Y-77850000D02*
X210000000Y-77850000D01*
X210000000Y-70150000D02*
X205000000Y-70150000D01*
X210000000Y-77850000D02*
X210000000Y-70150000D01*
%TO.C,J2*%
X181350000Y-89550000D02*
X181350000Y-78750000D01*
X183580000Y-89550000D02*
X181350000Y-89550000D01*
X183580000Y-95550000D02*
X183580000Y-89550000D01*
X193420000Y-95550000D02*
X183580000Y-95550000D01*
X193420000Y-95550000D02*
X193420000Y-89550000D01*
X195650000Y-78750000D02*
X181350000Y-78750000D01*
X195650000Y-89550000D02*
X193420000Y-89550000D01*
X195650000Y-89550000D02*
X195650000Y-78750000D01*
%TO.C,J6*%
X179150000Y-47150000D02*
X179150000Y-65550000D01*
X179150000Y-47150000D02*
X195650000Y-47150000D01*
X195650000Y-65550000D02*
X179150000Y-65550000D01*
X195650000Y-65550000D02*
X195650000Y-47150000D01*
%TD*%
M02*
