%TF.GenerationSoftware,KiCad,Pcbnew,8.0.8-8.0.8-0~ubuntu22.04.1*%
%TF.CreationDate,2025-03-06T00:56:17+00:00*%
%TF.ProjectId,computer_sensor_board,636f6d70-7574-4657-925f-73656e736f72,rev?*%
%TF.SameCoordinates,Original*%
%TF.FileFunction,AssemblyDrawing,Top*%
%FSLAX46Y46*%
G04 Gerber Fmt 4.6, Leading zero omitted, Abs format (unit mm)*
G04 Created by KiCad (PCBNEW 8.0.8-8.0.8-0~ubuntu22.04.1) date 2025-03-06 00:56:17*
%MOMM*%
%LPD*%
G01*
G04 APERTURE LIST*
%ADD10C,0.150000*%
%ADD11C,0.100000*%
G04 APERTURE END LIST*
D10*
X201333333Y-64824819D02*
X200761905Y-64824819D01*
X201047619Y-64824819D02*
X201047619Y-63824819D01*
X201047619Y-63824819D02*
X200952381Y-63967676D01*
X200952381Y-63967676D02*
X200857143Y-64062914D01*
X200857143Y-64062914D02*
X200761905Y-64110533D01*
X201952381Y-63824819D02*
X202047619Y-63824819D01*
X202047619Y-63824819D02*
X202142857Y-63872438D01*
X202142857Y-63872438D02*
X202190476Y-63920057D01*
X202190476Y-63920057D02*
X202238095Y-64015295D01*
X202238095Y-64015295D02*
X202285714Y-64205771D01*
X202285714Y-64205771D02*
X202285714Y-64443866D01*
X202285714Y-64443866D02*
X202238095Y-64634342D01*
X202238095Y-64634342D02*
X202190476Y-64729580D01*
X202190476Y-64729580D02*
X202142857Y-64777200D01*
X202142857Y-64777200D02*
X202047619Y-64824819D01*
X202047619Y-64824819D02*
X201952381Y-64824819D01*
X201952381Y-64824819D02*
X201857143Y-64777200D01*
X201857143Y-64777200D02*
X201809524Y-64729580D01*
X201809524Y-64729580D02*
X201761905Y-64634342D01*
X201761905Y-64634342D02*
X201714286Y-64443866D01*
X201714286Y-64443866D02*
X201714286Y-64205771D01*
X201714286Y-64205771D02*
X201761905Y-64015295D01*
X201761905Y-64015295D02*
X201809524Y-63920057D01*
X201809524Y-63920057D02*
X201857143Y-63872438D01*
X201857143Y-63872438D02*
X201952381Y-63824819D01*
X202904762Y-63824819D02*
X203000000Y-63824819D01*
X203000000Y-63824819D02*
X203095238Y-63872438D01*
X203095238Y-63872438D02*
X203142857Y-63920057D01*
X203142857Y-63920057D02*
X203190476Y-64015295D01*
X203190476Y-64015295D02*
X203238095Y-64205771D01*
X203238095Y-64205771D02*
X203238095Y-64443866D01*
X203238095Y-64443866D02*
X203190476Y-64634342D01*
X203190476Y-64634342D02*
X203142857Y-64729580D01*
X203142857Y-64729580D02*
X203095238Y-64777200D01*
X203095238Y-64777200D02*
X203000000Y-64824819D01*
X203000000Y-64824819D02*
X202904762Y-64824819D01*
X202904762Y-64824819D02*
X202809524Y-64777200D01*
X202809524Y-64777200D02*
X202761905Y-64729580D01*
X202761905Y-64729580D02*
X202714286Y-64634342D01*
X202714286Y-64634342D02*
X202666667Y-64443866D01*
X202666667Y-64443866D02*
X202666667Y-64205771D01*
X202666667Y-64205771D02*
X202714286Y-64015295D01*
X202714286Y-64015295D02*
X202761905Y-63920057D01*
X202761905Y-63920057D02*
X202809524Y-63872438D01*
X202809524Y-63872438D02*
X202904762Y-63824819D01*
X203666667Y-64824819D02*
X203666667Y-63824819D01*
X204238095Y-64824819D02*
X203809524Y-64253390D01*
X204238095Y-63824819D02*
X203666667Y-64396247D01*
X202333333Y-62454819D02*
X202000000Y-61978628D01*
X201761905Y-62454819D02*
X201761905Y-61454819D01*
X201761905Y-61454819D02*
X202142857Y-61454819D01*
X202142857Y-61454819D02*
X202238095Y-61502438D01*
X202238095Y-61502438D02*
X202285714Y-61550057D01*
X202285714Y-61550057D02*
X202333333Y-61645295D01*
X202333333Y-61645295D02*
X202333333Y-61788152D01*
X202333333Y-61788152D02*
X202285714Y-61883390D01*
X202285714Y-61883390D02*
X202238095Y-61931009D01*
X202238095Y-61931009D02*
X202142857Y-61978628D01*
X202142857Y-61978628D02*
X201761905Y-61978628D01*
X203285714Y-62454819D02*
X202714286Y-62454819D01*
X203000000Y-62454819D02*
X203000000Y-61454819D01*
X203000000Y-61454819D02*
X202904762Y-61597676D01*
X202904762Y-61597676D02*
X202809524Y-61692914D01*
X202809524Y-61692914D02*
X202714286Y-61740533D01*
X170214285Y-54654819D02*
X170214285Y-53654819D01*
X170214285Y-53654819D02*
X170547618Y-54369104D01*
X170547618Y-54369104D02*
X170880951Y-53654819D01*
X170880951Y-53654819D02*
X170880951Y-54654819D01*
X171499999Y-54654819D02*
X171404761Y-54607200D01*
X171404761Y-54607200D02*
X171357142Y-54559580D01*
X171357142Y-54559580D02*
X171309523Y-54464342D01*
X171309523Y-54464342D02*
X171309523Y-54178628D01*
X171309523Y-54178628D02*
X171357142Y-54083390D01*
X171357142Y-54083390D02*
X171404761Y-54035771D01*
X171404761Y-54035771D02*
X171499999Y-53988152D01*
X171499999Y-53988152D02*
X171642856Y-53988152D01*
X171642856Y-53988152D02*
X171738094Y-54035771D01*
X171738094Y-54035771D02*
X171785713Y-54083390D01*
X171785713Y-54083390D02*
X171833332Y-54178628D01*
X171833332Y-54178628D02*
X171833332Y-54464342D01*
X171833332Y-54464342D02*
X171785713Y-54559580D01*
X171785713Y-54559580D02*
X171738094Y-54607200D01*
X171738094Y-54607200D02*
X171642856Y-54654819D01*
X171642856Y-54654819D02*
X171499999Y-54654819D01*
X172690475Y-53988152D02*
X172690475Y-54654819D01*
X172261904Y-53988152D02*
X172261904Y-54511961D01*
X172261904Y-54511961D02*
X172309523Y-54607200D01*
X172309523Y-54607200D02*
X172404761Y-54654819D01*
X172404761Y-54654819D02*
X172547618Y-54654819D01*
X172547618Y-54654819D02*
X172642856Y-54607200D01*
X172642856Y-54607200D02*
X172690475Y-54559580D01*
X173166666Y-53988152D02*
X173166666Y-54654819D01*
X173166666Y-54083390D02*
X173214285Y-54035771D01*
X173214285Y-54035771D02*
X173309523Y-53988152D01*
X173309523Y-53988152D02*
X173452380Y-53988152D01*
X173452380Y-53988152D02*
X173547618Y-54035771D01*
X173547618Y-54035771D02*
X173595237Y-54131009D01*
X173595237Y-54131009D02*
X173595237Y-54654819D01*
X173928571Y-53988152D02*
X174309523Y-53988152D01*
X174071428Y-53654819D02*
X174071428Y-54511961D01*
X174071428Y-54511961D02*
X174119047Y-54607200D01*
X174119047Y-54607200D02*
X174214285Y-54654819D01*
X174214285Y-54654819D02*
X174309523Y-54654819D01*
X174642857Y-54654819D02*
X174642857Y-53988152D01*
X174642857Y-53654819D02*
X174595238Y-53702438D01*
X174595238Y-53702438D02*
X174642857Y-53750057D01*
X174642857Y-53750057D02*
X174690476Y-53702438D01*
X174690476Y-53702438D02*
X174642857Y-53654819D01*
X174642857Y-53654819D02*
X174642857Y-53750057D01*
X175119047Y-53988152D02*
X175119047Y-54654819D01*
X175119047Y-54083390D02*
X175166666Y-54035771D01*
X175166666Y-54035771D02*
X175261904Y-53988152D01*
X175261904Y-53988152D02*
X175404761Y-53988152D01*
X175404761Y-53988152D02*
X175499999Y-54035771D01*
X175499999Y-54035771D02*
X175547618Y-54131009D01*
X175547618Y-54131009D02*
X175547618Y-54654819D01*
X176452380Y-53988152D02*
X176452380Y-54797676D01*
X176452380Y-54797676D02*
X176404761Y-54892914D01*
X176404761Y-54892914D02*
X176357142Y-54940533D01*
X176357142Y-54940533D02*
X176261904Y-54988152D01*
X176261904Y-54988152D02*
X176119047Y-54988152D01*
X176119047Y-54988152D02*
X176023809Y-54940533D01*
X176452380Y-54607200D02*
X176357142Y-54654819D01*
X176357142Y-54654819D02*
X176166666Y-54654819D01*
X176166666Y-54654819D02*
X176071428Y-54607200D01*
X176071428Y-54607200D02*
X176023809Y-54559580D01*
X176023809Y-54559580D02*
X175976190Y-54464342D01*
X175976190Y-54464342D02*
X175976190Y-54178628D01*
X175976190Y-54178628D02*
X176023809Y-54083390D01*
X176023809Y-54083390D02*
X176071428Y-54035771D01*
X176071428Y-54035771D02*
X176166666Y-53988152D01*
X176166666Y-53988152D02*
X176357142Y-53988152D01*
X176357142Y-53988152D02*
X176452380Y-54035771D01*
X176928571Y-54654819D02*
X176928571Y-53654819D01*
X176928571Y-54131009D02*
X177499999Y-54131009D01*
X177499999Y-54654819D02*
X177499999Y-53654819D01*
X178119047Y-54654819D02*
X178023809Y-54607200D01*
X178023809Y-54607200D02*
X177976190Y-54559580D01*
X177976190Y-54559580D02*
X177928571Y-54464342D01*
X177928571Y-54464342D02*
X177928571Y-54178628D01*
X177928571Y-54178628D02*
X177976190Y-54083390D01*
X177976190Y-54083390D02*
X178023809Y-54035771D01*
X178023809Y-54035771D02*
X178119047Y-53988152D01*
X178119047Y-53988152D02*
X178261904Y-53988152D01*
X178261904Y-53988152D02*
X178357142Y-54035771D01*
X178357142Y-54035771D02*
X178404761Y-54083390D01*
X178404761Y-54083390D02*
X178452380Y-54178628D01*
X178452380Y-54178628D02*
X178452380Y-54464342D01*
X178452380Y-54464342D02*
X178404761Y-54559580D01*
X178404761Y-54559580D02*
X178357142Y-54607200D01*
X178357142Y-54607200D02*
X178261904Y-54654819D01*
X178261904Y-54654819D02*
X178119047Y-54654819D01*
X179023809Y-54654819D02*
X178928571Y-54607200D01*
X178928571Y-54607200D02*
X178880952Y-54511961D01*
X178880952Y-54511961D02*
X178880952Y-53654819D01*
X179785714Y-54607200D02*
X179690476Y-54654819D01*
X179690476Y-54654819D02*
X179500000Y-54654819D01*
X179500000Y-54654819D02*
X179404762Y-54607200D01*
X179404762Y-54607200D02*
X179357143Y-54511961D01*
X179357143Y-54511961D02*
X179357143Y-54131009D01*
X179357143Y-54131009D02*
X179404762Y-54035771D01*
X179404762Y-54035771D02*
X179500000Y-53988152D01*
X179500000Y-53988152D02*
X179690476Y-53988152D01*
X179690476Y-53988152D02*
X179785714Y-54035771D01*
X179785714Y-54035771D02*
X179833333Y-54131009D01*
X179833333Y-54131009D02*
X179833333Y-54226247D01*
X179833333Y-54226247D02*
X179357143Y-54321485D01*
X174238095Y-50454819D02*
X174238095Y-49454819D01*
X174238095Y-49931009D02*
X174809523Y-49931009D01*
X174809523Y-50454819D02*
X174809523Y-49454819D01*
X175809523Y-50454819D02*
X175238095Y-50454819D01*
X175523809Y-50454819D02*
X175523809Y-49454819D01*
X175523809Y-49454819D02*
X175428571Y-49597676D01*
X175428571Y-49597676D02*
X175333333Y-49692914D01*
X175333333Y-49692914D02*
X175238095Y-49740533D01*
X197494819Y-76912857D02*
X197494819Y-77389047D01*
X197494819Y-77389047D02*
X196494819Y-77389047D01*
X196971009Y-76579523D02*
X196971009Y-76246190D01*
X197494819Y-76103333D02*
X197494819Y-76579523D01*
X197494819Y-76579523D02*
X196494819Y-76579523D01*
X196494819Y-76579523D02*
X196494819Y-76103333D01*
X197494819Y-75674761D02*
X196494819Y-75674761D01*
X196494819Y-75674761D02*
X196494819Y-75436666D01*
X196494819Y-75436666D02*
X196542438Y-75293809D01*
X196542438Y-75293809D02*
X196637676Y-75198571D01*
X196637676Y-75198571D02*
X196732914Y-75150952D01*
X196732914Y-75150952D02*
X196923390Y-75103333D01*
X196923390Y-75103333D02*
X197066247Y-75103333D01*
X197066247Y-75103333D02*
X197256723Y-75150952D01*
X197256723Y-75150952D02*
X197351961Y-75198571D01*
X197351961Y-75198571D02*
X197447200Y-75293809D01*
X197447200Y-75293809D02*
X197494819Y-75436666D01*
X197494819Y-75436666D02*
X197494819Y-75674761D01*
X182116666Y-73754819D02*
X182116666Y-72754819D01*
X182116666Y-73231009D02*
X182688094Y-73231009D01*
X182688094Y-73754819D02*
X182688094Y-72754819D01*
X183545237Y-73707200D02*
X183449999Y-73754819D01*
X183449999Y-73754819D02*
X183259523Y-73754819D01*
X183259523Y-73754819D02*
X183164285Y-73707200D01*
X183164285Y-73707200D02*
X183116666Y-73611961D01*
X183116666Y-73611961D02*
X183116666Y-73231009D01*
X183116666Y-73231009D02*
X183164285Y-73135771D01*
X183164285Y-73135771D02*
X183259523Y-73088152D01*
X183259523Y-73088152D02*
X183449999Y-73088152D01*
X183449999Y-73088152D02*
X183545237Y-73135771D01*
X183545237Y-73135771D02*
X183592856Y-73231009D01*
X183592856Y-73231009D02*
X183592856Y-73326247D01*
X183592856Y-73326247D02*
X183116666Y-73421485D01*
X184449999Y-73754819D02*
X184449999Y-73231009D01*
X184449999Y-73231009D02*
X184402380Y-73135771D01*
X184402380Y-73135771D02*
X184307142Y-73088152D01*
X184307142Y-73088152D02*
X184116666Y-73088152D01*
X184116666Y-73088152D02*
X184021428Y-73135771D01*
X184449999Y-73707200D02*
X184354761Y-73754819D01*
X184354761Y-73754819D02*
X184116666Y-73754819D01*
X184116666Y-73754819D02*
X184021428Y-73707200D01*
X184021428Y-73707200D02*
X183973809Y-73611961D01*
X183973809Y-73611961D02*
X183973809Y-73516723D01*
X183973809Y-73516723D02*
X184021428Y-73421485D01*
X184021428Y-73421485D02*
X184116666Y-73373866D01*
X184116666Y-73373866D02*
X184354761Y-73373866D01*
X184354761Y-73373866D02*
X184449999Y-73326247D01*
X184783333Y-73088152D02*
X185164285Y-73088152D01*
X184926190Y-72754819D02*
X184926190Y-73611961D01*
X184926190Y-73611961D02*
X184973809Y-73707200D01*
X184973809Y-73707200D02*
X185069047Y-73754819D01*
X185069047Y-73754819D02*
X185164285Y-73754819D01*
X185450000Y-73707200D02*
X185545238Y-73754819D01*
X185545238Y-73754819D02*
X185735714Y-73754819D01*
X185735714Y-73754819D02*
X185830952Y-73707200D01*
X185830952Y-73707200D02*
X185878571Y-73611961D01*
X185878571Y-73611961D02*
X185878571Y-73564342D01*
X185878571Y-73564342D02*
X185830952Y-73469104D01*
X185830952Y-73469104D02*
X185735714Y-73421485D01*
X185735714Y-73421485D02*
X185592857Y-73421485D01*
X185592857Y-73421485D02*
X185497619Y-73373866D01*
X185497619Y-73373866D02*
X185450000Y-73278628D01*
X185450000Y-73278628D02*
X185450000Y-73231009D01*
X185450000Y-73231009D02*
X185497619Y-73135771D01*
X185497619Y-73135771D02*
X185592857Y-73088152D01*
X185592857Y-73088152D02*
X185735714Y-73088152D01*
X185735714Y-73088152D02*
X185830952Y-73135771D01*
X186307143Y-73754819D02*
X186307143Y-73088152D01*
X186307143Y-72754819D02*
X186259524Y-72802438D01*
X186259524Y-72802438D02*
X186307143Y-72850057D01*
X186307143Y-72850057D02*
X186354762Y-72802438D01*
X186354762Y-72802438D02*
X186307143Y-72754819D01*
X186307143Y-72754819D02*
X186307143Y-72850057D01*
X186783333Y-73088152D02*
X186783333Y-73754819D01*
X186783333Y-73183390D02*
X186830952Y-73135771D01*
X186830952Y-73135771D02*
X186926190Y-73088152D01*
X186926190Y-73088152D02*
X187069047Y-73088152D01*
X187069047Y-73088152D02*
X187164285Y-73135771D01*
X187164285Y-73135771D02*
X187211904Y-73231009D01*
X187211904Y-73231009D02*
X187211904Y-73754819D01*
X187688095Y-73754819D02*
X187688095Y-72754819D01*
X187783333Y-73373866D02*
X188069047Y-73754819D01*
X188069047Y-73088152D02*
X187688095Y-73469104D01*
X188259524Y-73850057D02*
X189021428Y-73850057D01*
X189211905Y-73707200D02*
X189307143Y-73754819D01*
X189307143Y-73754819D02*
X189497619Y-73754819D01*
X189497619Y-73754819D02*
X189592857Y-73707200D01*
X189592857Y-73707200D02*
X189640476Y-73611961D01*
X189640476Y-73611961D02*
X189640476Y-73564342D01*
X189640476Y-73564342D02*
X189592857Y-73469104D01*
X189592857Y-73469104D02*
X189497619Y-73421485D01*
X189497619Y-73421485D02*
X189354762Y-73421485D01*
X189354762Y-73421485D02*
X189259524Y-73373866D01*
X189259524Y-73373866D02*
X189211905Y-73278628D01*
X189211905Y-73278628D02*
X189211905Y-73231009D01*
X189211905Y-73231009D02*
X189259524Y-73135771D01*
X189259524Y-73135771D02*
X189354762Y-73088152D01*
X189354762Y-73088152D02*
X189497619Y-73088152D01*
X189497619Y-73088152D02*
X189592857Y-73135771D01*
X190069048Y-73754819D02*
X190069048Y-72754819D01*
X190497619Y-73754819D02*
X190497619Y-73231009D01*
X190497619Y-73231009D02*
X190450000Y-73135771D01*
X190450000Y-73135771D02*
X190354762Y-73088152D01*
X190354762Y-73088152D02*
X190211905Y-73088152D01*
X190211905Y-73088152D02*
X190116667Y-73135771D01*
X190116667Y-73135771D02*
X190069048Y-73183390D01*
X191354762Y-73707200D02*
X191259524Y-73754819D01*
X191259524Y-73754819D02*
X191069048Y-73754819D01*
X191069048Y-73754819D02*
X190973810Y-73707200D01*
X190973810Y-73707200D02*
X190926191Y-73611961D01*
X190926191Y-73611961D02*
X190926191Y-73231009D01*
X190926191Y-73231009D02*
X190973810Y-73135771D01*
X190973810Y-73135771D02*
X191069048Y-73088152D01*
X191069048Y-73088152D02*
X191259524Y-73088152D01*
X191259524Y-73088152D02*
X191354762Y-73135771D01*
X191354762Y-73135771D02*
X191402381Y-73231009D01*
X191402381Y-73231009D02*
X191402381Y-73326247D01*
X191402381Y-73326247D02*
X190926191Y-73421485D01*
X192211905Y-73707200D02*
X192116667Y-73754819D01*
X192116667Y-73754819D02*
X191926191Y-73754819D01*
X191926191Y-73754819D02*
X191830953Y-73707200D01*
X191830953Y-73707200D02*
X191783334Y-73611961D01*
X191783334Y-73611961D02*
X191783334Y-73231009D01*
X191783334Y-73231009D02*
X191830953Y-73135771D01*
X191830953Y-73135771D02*
X191926191Y-73088152D01*
X191926191Y-73088152D02*
X192116667Y-73088152D01*
X192116667Y-73088152D02*
X192211905Y-73135771D01*
X192211905Y-73135771D02*
X192259524Y-73231009D01*
X192259524Y-73231009D02*
X192259524Y-73326247D01*
X192259524Y-73326247D02*
X191783334Y-73421485D01*
X192545239Y-73088152D02*
X192926191Y-73088152D01*
X192688096Y-72754819D02*
X192688096Y-73611961D01*
X192688096Y-73611961D02*
X192735715Y-73707200D01*
X192735715Y-73707200D02*
X192830953Y-73754819D01*
X192830953Y-73754819D02*
X192926191Y-73754819D01*
X186688095Y-74254819D02*
X186688095Y-75064342D01*
X186688095Y-75064342D02*
X186735714Y-75159580D01*
X186735714Y-75159580D02*
X186783333Y-75207200D01*
X186783333Y-75207200D02*
X186878571Y-75254819D01*
X186878571Y-75254819D02*
X187069047Y-75254819D01*
X187069047Y-75254819D02*
X187164285Y-75207200D01*
X187164285Y-75207200D02*
X187211904Y-75159580D01*
X187211904Y-75159580D02*
X187259523Y-75064342D01*
X187259523Y-75064342D02*
X187259523Y-74254819D01*
X187640476Y-74254819D02*
X188259523Y-74254819D01*
X188259523Y-74254819D02*
X187926190Y-74635771D01*
X187926190Y-74635771D02*
X188069047Y-74635771D01*
X188069047Y-74635771D02*
X188164285Y-74683390D01*
X188164285Y-74683390D02*
X188211904Y-74731009D01*
X188211904Y-74731009D02*
X188259523Y-74826247D01*
X188259523Y-74826247D02*
X188259523Y-75064342D01*
X188259523Y-75064342D02*
X188211904Y-75159580D01*
X188211904Y-75159580D02*
X188164285Y-75207200D01*
X188164285Y-75207200D02*
X188069047Y-75254819D01*
X188069047Y-75254819D02*
X187783333Y-75254819D01*
X187783333Y-75254819D02*
X187688095Y-75207200D01*
X187688095Y-75207200D02*
X187640476Y-75159580D01*
X184497619Y-65654819D02*
X184497619Y-64654819D01*
X184497619Y-65131009D02*
X185069047Y-65131009D01*
X185069047Y-65654819D02*
X185069047Y-64654819D01*
X185926190Y-65607200D02*
X185830952Y-65654819D01*
X185830952Y-65654819D02*
X185640476Y-65654819D01*
X185640476Y-65654819D02*
X185545238Y-65607200D01*
X185545238Y-65607200D02*
X185497619Y-65511961D01*
X185497619Y-65511961D02*
X185497619Y-65131009D01*
X185497619Y-65131009D02*
X185545238Y-65035771D01*
X185545238Y-65035771D02*
X185640476Y-64988152D01*
X185640476Y-64988152D02*
X185830952Y-64988152D01*
X185830952Y-64988152D02*
X185926190Y-65035771D01*
X185926190Y-65035771D02*
X185973809Y-65131009D01*
X185973809Y-65131009D02*
X185973809Y-65226247D01*
X185973809Y-65226247D02*
X185497619Y-65321485D01*
X186830952Y-65654819D02*
X186830952Y-65131009D01*
X186830952Y-65131009D02*
X186783333Y-65035771D01*
X186783333Y-65035771D02*
X186688095Y-64988152D01*
X186688095Y-64988152D02*
X186497619Y-64988152D01*
X186497619Y-64988152D02*
X186402381Y-65035771D01*
X186830952Y-65607200D02*
X186735714Y-65654819D01*
X186735714Y-65654819D02*
X186497619Y-65654819D01*
X186497619Y-65654819D02*
X186402381Y-65607200D01*
X186402381Y-65607200D02*
X186354762Y-65511961D01*
X186354762Y-65511961D02*
X186354762Y-65416723D01*
X186354762Y-65416723D02*
X186402381Y-65321485D01*
X186402381Y-65321485D02*
X186497619Y-65273866D01*
X186497619Y-65273866D02*
X186735714Y-65273866D01*
X186735714Y-65273866D02*
X186830952Y-65226247D01*
X187164286Y-64988152D02*
X187545238Y-64988152D01*
X187307143Y-64654819D02*
X187307143Y-65511961D01*
X187307143Y-65511961D02*
X187354762Y-65607200D01*
X187354762Y-65607200D02*
X187450000Y-65654819D01*
X187450000Y-65654819D02*
X187545238Y-65654819D01*
X187830953Y-65607200D02*
X187926191Y-65654819D01*
X187926191Y-65654819D02*
X188116667Y-65654819D01*
X188116667Y-65654819D02*
X188211905Y-65607200D01*
X188211905Y-65607200D02*
X188259524Y-65511961D01*
X188259524Y-65511961D02*
X188259524Y-65464342D01*
X188259524Y-65464342D02*
X188211905Y-65369104D01*
X188211905Y-65369104D02*
X188116667Y-65321485D01*
X188116667Y-65321485D02*
X187973810Y-65321485D01*
X187973810Y-65321485D02*
X187878572Y-65273866D01*
X187878572Y-65273866D02*
X187830953Y-65178628D01*
X187830953Y-65178628D02*
X187830953Y-65131009D01*
X187830953Y-65131009D02*
X187878572Y-65035771D01*
X187878572Y-65035771D02*
X187973810Y-64988152D01*
X187973810Y-64988152D02*
X188116667Y-64988152D01*
X188116667Y-64988152D02*
X188211905Y-65035771D01*
X188688096Y-65654819D02*
X188688096Y-64988152D01*
X188688096Y-64654819D02*
X188640477Y-64702438D01*
X188640477Y-64702438D02*
X188688096Y-64750057D01*
X188688096Y-64750057D02*
X188735715Y-64702438D01*
X188735715Y-64702438D02*
X188688096Y-64654819D01*
X188688096Y-64654819D02*
X188688096Y-64750057D01*
X189164286Y-64988152D02*
X189164286Y-65654819D01*
X189164286Y-65083390D02*
X189211905Y-65035771D01*
X189211905Y-65035771D02*
X189307143Y-64988152D01*
X189307143Y-64988152D02*
X189450000Y-64988152D01*
X189450000Y-64988152D02*
X189545238Y-65035771D01*
X189545238Y-65035771D02*
X189592857Y-65131009D01*
X189592857Y-65131009D02*
X189592857Y-65654819D01*
X190069048Y-65654819D02*
X190069048Y-64654819D01*
X190164286Y-65273866D02*
X190450000Y-65654819D01*
X190450000Y-64988152D02*
X190069048Y-65369104D01*
X186211905Y-67154819D02*
X186211905Y-66154819D01*
X186211905Y-66631009D02*
X186783333Y-66631009D01*
X186783333Y-67154819D02*
X186783333Y-66154819D01*
X187211905Y-67107200D02*
X187354762Y-67154819D01*
X187354762Y-67154819D02*
X187592857Y-67154819D01*
X187592857Y-67154819D02*
X187688095Y-67107200D01*
X187688095Y-67107200D02*
X187735714Y-67059580D01*
X187735714Y-67059580D02*
X187783333Y-66964342D01*
X187783333Y-66964342D02*
X187783333Y-66869104D01*
X187783333Y-66869104D02*
X187735714Y-66773866D01*
X187735714Y-66773866D02*
X187688095Y-66726247D01*
X187688095Y-66726247D02*
X187592857Y-66678628D01*
X187592857Y-66678628D02*
X187402381Y-66631009D01*
X187402381Y-66631009D02*
X187307143Y-66583390D01*
X187307143Y-66583390D02*
X187259524Y-66535771D01*
X187259524Y-66535771D02*
X187211905Y-66440533D01*
X187211905Y-66440533D02*
X187211905Y-66345295D01*
X187211905Y-66345295D02*
X187259524Y-66250057D01*
X187259524Y-66250057D02*
X187307143Y-66202438D01*
X187307143Y-66202438D02*
X187402381Y-66154819D01*
X187402381Y-66154819D02*
X187640476Y-66154819D01*
X187640476Y-66154819D02*
X187783333Y-66202438D01*
X188735714Y-67154819D02*
X188164286Y-67154819D01*
X188450000Y-67154819D02*
X188450000Y-66154819D01*
X188450000Y-66154819D02*
X188354762Y-66297676D01*
X188354762Y-66297676D02*
X188259524Y-66392914D01*
X188259524Y-66392914D02*
X188164286Y-66440533D01*
X230214285Y-54654819D02*
X230214285Y-53654819D01*
X230214285Y-53654819D02*
X230547618Y-54369104D01*
X230547618Y-54369104D02*
X230880951Y-53654819D01*
X230880951Y-53654819D02*
X230880951Y-54654819D01*
X231499999Y-54654819D02*
X231404761Y-54607200D01*
X231404761Y-54607200D02*
X231357142Y-54559580D01*
X231357142Y-54559580D02*
X231309523Y-54464342D01*
X231309523Y-54464342D02*
X231309523Y-54178628D01*
X231309523Y-54178628D02*
X231357142Y-54083390D01*
X231357142Y-54083390D02*
X231404761Y-54035771D01*
X231404761Y-54035771D02*
X231499999Y-53988152D01*
X231499999Y-53988152D02*
X231642856Y-53988152D01*
X231642856Y-53988152D02*
X231738094Y-54035771D01*
X231738094Y-54035771D02*
X231785713Y-54083390D01*
X231785713Y-54083390D02*
X231833332Y-54178628D01*
X231833332Y-54178628D02*
X231833332Y-54464342D01*
X231833332Y-54464342D02*
X231785713Y-54559580D01*
X231785713Y-54559580D02*
X231738094Y-54607200D01*
X231738094Y-54607200D02*
X231642856Y-54654819D01*
X231642856Y-54654819D02*
X231499999Y-54654819D01*
X232690475Y-53988152D02*
X232690475Y-54654819D01*
X232261904Y-53988152D02*
X232261904Y-54511961D01*
X232261904Y-54511961D02*
X232309523Y-54607200D01*
X232309523Y-54607200D02*
X232404761Y-54654819D01*
X232404761Y-54654819D02*
X232547618Y-54654819D01*
X232547618Y-54654819D02*
X232642856Y-54607200D01*
X232642856Y-54607200D02*
X232690475Y-54559580D01*
X233166666Y-53988152D02*
X233166666Y-54654819D01*
X233166666Y-54083390D02*
X233214285Y-54035771D01*
X233214285Y-54035771D02*
X233309523Y-53988152D01*
X233309523Y-53988152D02*
X233452380Y-53988152D01*
X233452380Y-53988152D02*
X233547618Y-54035771D01*
X233547618Y-54035771D02*
X233595237Y-54131009D01*
X233595237Y-54131009D02*
X233595237Y-54654819D01*
X233928571Y-53988152D02*
X234309523Y-53988152D01*
X234071428Y-53654819D02*
X234071428Y-54511961D01*
X234071428Y-54511961D02*
X234119047Y-54607200D01*
X234119047Y-54607200D02*
X234214285Y-54654819D01*
X234214285Y-54654819D02*
X234309523Y-54654819D01*
X234642857Y-54654819D02*
X234642857Y-53988152D01*
X234642857Y-53654819D02*
X234595238Y-53702438D01*
X234595238Y-53702438D02*
X234642857Y-53750057D01*
X234642857Y-53750057D02*
X234690476Y-53702438D01*
X234690476Y-53702438D02*
X234642857Y-53654819D01*
X234642857Y-53654819D02*
X234642857Y-53750057D01*
X235119047Y-53988152D02*
X235119047Y-54654819D01*
X235119047Y-54083390D02*
X235166666Y-54035771D01*
X235166666Y-54035771D02*
X235261904Y-53988152D01*
X235261904Y-53988152D02*
X235404761Y-53988152D01*
X235404761Y-53988152D02*
X235499999Y-54035771D01*
X235499999Y-54035771D02*
X235547618Y-54131009D01*
X235547618Y-54131009D02*
X235547618Y-54654819D01*
X236452380Y-53988152D02*
X236452380Y-54797676D01*
X236452380Y-54797676D02*
X236404761Y-54892914D01*
X236404761Y-54892914D02*
X236357142Y-54940533D01*
X236357142Y-54940533D02*
X236261904Y-54988152D01*
X236261904Y-54988152D02*
X236119047Y-54988152D01*
X236119047Y-54988152D02*
X236023809Y-54940533D01*
X236452380Y-54607200D02*
X236357142Y-54654819D01*
X236357142Y-54654819D02*
X236166666Y-54654819D01*
X236166666Y-54654819D02*
X236071428Y-54607200D01*
X236071428Y-54607200D02*
X236023809Y-54559580D01*
X236023809Y-54559580D02*
X235976190Y-54464342D01*
X235976190Y-54464342D02*
X235976190Y-54178628D01*
X235976190Y-54178628D02*
X236023809Y-54083390D01*
X236023809Y-54083390D02*
X236071428Y-54035771D01*
X236071428Y-54035771D02*
X236166666Y-53988152D01*
X236166666Y-53988152D02*
X236357142Y-53988152D01*
X236357142Y-53988152D02*
X236452380Y-54035771D01*
X236928571Y-54654819D02*
X236928571Y-53654819D01*
X236928571Y-54131009D02*
X237499999Y-54131009D01*
X237499999Y-54654819D02*
X237499999Y-53654819D01*
X238119047Y-54654819D02*
X238023809Y-54607200D01*
X238023809Y-54607200D02*
X237976190Y-54559580D01*
X237976190Y-54559580D02*
X237928571Y-54464342D01*
X237928571Y-54464342D02*
X237928571Y-54178628D01*
X237928571Y-54178628D02*
X237976190Y-54083390D01*
X237976190Y-54083390D02*
X238023809Y-54035771D01*
X238023809Y-54035771D02*
X238119047Y-53988152D01*
X238119047Y-53988152D02*
X238261904Y-53988152D01*
X238261904Y-53988152D02*
X238357142Y-54035771D01*
X238357142Y-54035771D02*
X238404761Y-54083390D01*
X238404761Y-54083390D02*
X238452380Y-54178628D01*
X238452380Y-54178628D02*
X238452380Y-54464342D01*
X238452380Y-54464342D02*
X238404761Y-54559580D01*
X238404761Y-54559580D02*
X238357142Y-54607200D01*
X238357142Y-54607200D02*
X238261904Y-54654819D01*
X238261904Y-54654819D02*
X238119047Y-54654819D01*
X239023809Y-54654819D02*
X238928571Y-54607200D01*
X238928571Y-54607200D02*
X238880952Y-54511961D01*
X238880952Y-54511961D02*
X238880952Y-53654819D01*
X239785714Y-54607200D02*
X239690476Y-54654819D01*
X239690476Y-54654819D02*
X239500000Y-54654819D01*
X239500000Y-54654819D02*
X239404762Y-54607200D01*
X239404762Y-54607200D02*
X239357143Y-54511961D01*
X239357143Y-54511961D02*
X239357143Y-54131009D01*
X239357143Y-54131009D02*
X239404762Y-54035771D01*
X239404762Y-54035771D02*
X239500000Y-53988152D01*
X239500000Y-53988152D02*
X239690476Y-53988152D01*
X239690476Y-53988152D02*
X239785714Y-54035771D01*
X239785714Y-54035771D02*
X239833333Y-54131009D01*
X239833333Y-54131009D02*
X239833333Y-54226247D01*
X239833333Y-54226247D02*
X239357143Y-54321485D01*
X234238095Y-50454819D02*
X234238095Y-49454819D01*
X234238095Y-49931009D02*
X234809523Y-49931009D01*
X234809523Y-50454819D02*
X234809523Y-49454819D01*
X235238095Y-49550057D02*
X235285714Y-49502438D01*
X235285714Y-49502438D02*
X235380952Y-49454819D01*
X235380952Y-49454819D02*
X235619047Y-49454819D01*
X235619047Y-49454819D02*
X235714285Y-49502438D01*
X235714285Y-49502438D02*
X235761904Y-49550057D01*
X235761904Y-49550057D02*
X235809523Y-49645295D01*
X235809523Y-49645295D02*
X235809523Y-49740533D01*
X235809523Y-49740533D02*
X235761904Y-49883390D01*
X235761904Y-49883390D02*
X235190476Y-50454819D01*
X235190476Y-50454819D02*
X235809523Y-50454819D01*
X200642856Y-57859580D02*
X200595237Y-57907200D01*
X200595237Y-57907200D02*
X200452380Y-57954819D01*
X200452380Y-57954819D02*
X200357142Y-57954819D01*
X200357142Y-57954819D02*
X200214285Y-57907200D01*
X200214285Y-57907200D02*
X200119047Y-57811961D01*
X200119047Y-57811961D02*
X200071428Y-57716723D01*
X200071428Y-57716723D02*
X200023809Y-57526247D01*
X200023809Y-57526247D02*
X200023809Y-57383390D01*
X200023809Y-57383390D02*
X200071428Y-57192914D01*
X200071428Y-57192914D02*
X200119047Y-57097676D01*
X200119047Y-57097676D02*
X200214285Y-57002438D01*
X200214285Y-57002438D02*
X200357142Y-56954819D01*
X200357142Y-56954819D02*
X200452380Y-56954819D01*
X200452380Y-56954819D02*
X200595237Y-57002438D01*
X200595237Y-57002438D02*
X200642856Y-57050057D01*
X201214285Y-57954819D02*
X201119047Y-57907200D01*
X201119047Y-57907200D02*
X201071428Y-57859580D01*
X201071428Y-57859580D02*
X201023809Y-57764342D01*
X201023809Y-57764342D02*
X201023809Y-57478628D01*
X201023809Y-57478628D02*
X201071428Y-57383390D01*
X201071428Y-57383390D02*
X201119047Y-57335771D01*
X201119047Y-57335771D02*
X201214285Y-57288152D01*
X201214285Y-57288152D02*
X201357142Y-57288152D01*
X201357142Y-57288152D02*
X201452380Y-57335771D01*
X201452380Y-57335771D02*
X201499999Y-57383390D01*
X201499999Y-57383390D02*
X201547618Y-57478628D01*
X201547618Y-57478628D02*
X201547618Y-57764342D01*
X201547618Y-57764342D02*
X201499999Y-57859580D01*
X201499999Y-57859580D02*
X201452380Y-57907200D01*
X201452380Y-57907200D02*
X201357142Y-57954819D01*
X201357142Y-57954819D02*
X201214285Y-57954819D01*
X201976190Y-57288152D02*
X201976190Y-57954819D01*
X201976190Y-57383390D02*
X202023809Y-57335771D01*
X202023809Y-57335771D02*
X202119047Y-57288152D01*
X202119047Y-57288152D02*
X202261904Y-57288152D01*
X202261904Y-57288152D02*
X202357142Y-57335771D01*
X202357142Y-57335771D02*
X202404761Y-57431009D01*
X202404761Y-57431009D02*
X202404761Y-57954819D01*
X202880952Y-57288152D02*
X202880952Y-57954819D01*
X202880952Y-57383390D02*
X202928571Y-57335771D01*
X202928571Y-57335771D02*
X203023809Y-57288152D01*
X203023809Y-57288152D02*
X203166666Y-57288152D01*
X203166666Y-57288152D02*
X203261904Y-57335771D01*
X203261904Y-57335771D02*
X203309523Y-57431009D01*
X203309523Y-57431009D02*
X203309523Y-57954819D01*
X203547619Y-58050057D02*
X204309523Y-58050057D01*
X205119047Y-57954819D02*
X204785714Y-57478628D01*
X204547619Y-57954819D02*
X204547619Y-56954819D01*
X204547619Y-56954819D02*
X204928571Y-56954819D01*
X204928571Y-56954819D02*
X205023809Y-57002438D01*
X205023809Y-57002438D02*
X205071428Y-57050057D01*
X205071428Y-57050057D02*
X205119047Y-57145295D01*
X205119047Y-57145295D02*
X205119047Y-57288152D01*
X205119047Y-57288152D02*
X205071428Y-57383390D01*
X205071428Y-57383390D02*
X205023809Y-57431009D01*
X205023809Y-57431009D02*
X204928571Y-57478628D01*
X204928571Y-57478628D02*
X204547619Y-57478628D01*
X205690476Y-57954819D02*
X205595238Y-57907200D01*
X205595238Y-57907200D02*
X205547619Y-57859580D01*
X205547619Y-57859580D02*
X205500000Y-57764342D01*
X205500000Y-57764342D02*
X205500000Y-57478628D01*
X205500000Y-57478628D02*
X205547619Y-57383390D01*
X205547619Y-57383390D02*
X205595238Y-57335771D01*
X205595238Y-57335771D02*
X205690476Y-57288152D01*
X205690476Y-57288152D02*
X205833333Y-57288152D01*
X205833333Y-57288152D02*
X205928571Y-57335771D01*
X205928571Y-57335771D02*
X205976190Y-57383390D01*
X205976190Y-57383390D02*
X206023809Y-57478628D01*
X206023809Y-57478628D02*
X206023809Y-57764342D01*
X206023809Y-57764342D02*
X205976190Y-57859580D01*
X205976190Y-57859580D02*
X205928571Y-57907200D01*
X205928571Y-57907200D02*
X205833333Y-57954819D01*
X205833333Y-57954819D02*
X205690476Y-57954819D01*
X206880952Y-57288152D02*
X206880952Y-57954819D01*
X206452381Y-57288152D02*
X206452381Y-57811961D01*
X206452381Y-57811961D02*
X206500000Y-57907200D01*
X206500000Y-57907200D02*
X206595238Y-57954819D01*
X206595238Y-57954819D02*
X206738095Y-57954819D01*
X206738095Y-57954819D02*
X206833333Y-57907200D01*
X206833333Y-57907200D02*
X206880952Y-57859580D01*
X207214286Y-57288152D02*
X207595238Y-57288152D01*
X207357143Y-56954819D02*
X207357143Y-57811961D01*
X207357143Y-57811961D02*
X207404762Y-57907200D01*
X207404762Y-57907200D02*
X207500000Y-57954819D01*
X207500000Y-57954819D02*
X207595238Y-57954819D01*
X208309524Y-57907200D02*
X208214286Y-57954819D01*
X208214286Y-57954819D02*
X208023810Y-57954819D01*
X208023810Y-57954819D02*
X207928572Y-57907200D01*
X207928572Y-57907200D02*
X207880953Y-57811961D01*
X207880953Y-57811961D02*
X207880953Y-57431009D01*
X207880953Y-57431009D02*
X207928572Y-57335771D01*
X207928572Y-57335771D02*
X208023810Y-57288152D01*
X208023810Y-57288152D02*
X208214286Y-57288152D01*
X208214286Y-57288152D02*
X208309524Y-57335771D01*
X208309524Y-57335771D02*
X208357143Y-57431009D01*
X208357143Y-57431009D02*
X208357143Y-57526247D01*
X208357143Y-57526247D02*
X207880953Y-57621485D01*
X208785715Y-57954819D02*
X208785715Y-57288152D01*
X208785715Y-57478628D02*
X208833334Y-57383390D01*
X208833334Y-57383390D02*
X208880953Y-57335771D01*
X208880953Y-57335771D02*
X208976191Y-57288152D01*
X208976191Y-57288152D02*
X209071429Y-57288152D01*
X204166666Y-50454819D02*
X204166666Y-51169104D01*
X204166666Y-51169104D02*
X204119047Y-51311961D01*
X204119047Y-51311961D02*
X204023809Y-51407200D01*
X204023809Y-51407200D02*
X203880952Y-51454819D01*
X203880952Y-51454819D02*
X203785714Y-51454819D01*
X204547619Y-50454819D02*
X205214285Y-50454819D01*
X205214285Y-50454819D02*
X204785714Y-51454819D01*
X217073866Y-75261904D02*
X217026247Y-75214285D01*
X217026247Y-75214285D02*
X216978628Y-75119047D01*
X216978628Y-75119047D02*
X217073866Y-74928571D01*
X217073866Y-74928571D02*
X217026247Y-74833333D01*
X217026247Y-74833333D02*
X216978628Y-74785714D01*
X218954819Y-79261904D02*
X217954819Y-79261904D01*
X217954819Y-79261904D02*
X218669104Y-78928571D01*
X218669104Y-78928571D02*
X217954819Y-78595238D01*
X217954819Y-78595238D02*
X218954819Y-78595238D01*
X217954819Y-78214285D02*
X217954819Y-77547619D01*
X217954819Y-77547619D02*
X218954819Y-77976190D01*
X218383390Y-77023809D02*
X218335771Y-77119047D01*
X218335771Y-77119047D02*
X218288152Y-77166666D01*
X218288152Y-77166666D02*
X218192914Y-77214285D01*
X218192914Y-77214285D02*
X218145295Y-77214285D01*
X218145295Y-77214285D02*
X218050057Y-77166666D01*
X218050057Y-77166666D02*
X218002438Y-77119047D01*
X218002438Y-77119047D02*
X217954819Y-77023809D01*
X217954819Y-77023809D02*
X217954819Y-76833333D01*
X217954819Y-76833333D02*
X218002438Y-76738095D01*
X218002438Y-76738095D02*
X218050057Y-76690476D01*
X218050057Y-76690476D02*
X218145295Y-76642857D01*
X218145295Y-76642857D02*
X218192914Y-76642857D01*
X218192914Y-76642857D02*
X218288152Y-76690476D01*
X218288152Y-76690476D02*
X218335771Y-76738095D01*
X218335771Y-76738095D02*
X218383390Y-76833333D01*
X218383390Y-76833333D02*
X218383390Y-77023809D01*
X218383390Y-77023809D02*
X218431009Y-77119047D01*
X218431009Y-77119047D02*
X218478628Y-77166666D01*
X218478628Y-77166666D02*
X218573866Y-77214285D01*
X218573866Y-77214285D02*
X218764342Y-77214285D01*
X218764342Y-77214285D02*
X218859580Y-77166666D01*
X218859580Y-77166666D02*
X218907200Y-77119047D01*
X218907200Y-77119047D02*
X218954819Y-77023809D01*
X218954819Y-77023809D02*
X218954819Y-76833333D01*
X218954819Y-76833333D02*
X218907200Y-76738095D01*
X218907200Y-76738095D02*
X218859580Y-76690476D01*
X218859580Y-76690476D02*
X218764342Y-76642857D01*
X218764342Y-76642857D02*
X218573866Y-76642857D01*
X218573866Y-76642857D02*
X218478628Y-76690476D01*
X218478628Y-76690476D02*
X218431009Y-76738095D01*
X218431009Y-76738095D02*
X218383390Y-76833333D01*
X218669104Y-76261904D02*
X218669104Y-75785714D01*
X218954819Y-76357142D02*
X217954819Y-76023809D01*
X217954819Y-76023809D02*
X218954819Y-75690476D01*
X218954819Y-74785714D02*
X218478628Y-75119047D01*
X218954819Y-75357142D02*
X217954819Y-75357142D01*
X217954819Y-75357142D02*
X217954819Y-74976190D01*
X217954819Y-74976190D02*
X218002438Y-74880952D01*
X218002438Y-74880952D02*
X218050057Y-74833333D01*
X218050057Y-74833333D02*
X218145295Y-74785714D01*
X218145295Y-74785714D02*
X218288152Y-74785714D01*
X218288152Y-74785714D02*
X218383390Y-74833333D01*
X218383390Y-74833333D02*
X218431009Y-74880952D01*
X218431009Y-74880952D02*
X218478628Y-74976190D01*
X218478628Y-74976190D02*
X218478628Y-75357142D01*
X217954819Y-74166666D02*
X217954819Y-74071428D01*
X217954819Y-74071428D02*
X218002438Y-73976190D01*
X218002438Y-73976190D02*
X218050057Y-73928571D01*
X218050057Y-73928571D02*
X218145295Y-73880952D01*
X218145295Y-73880952D02*
X218335771Y-73833333D01*
X218335771Y-73833333D02*
X218573866Y-73833333D01*
X218573866Y-73833333D02*
X218764342Y-73880952D01*
X218764342Y-73880952D02*
X218859580Y-73928571D01*
X218859580Y-73928571D02*
X218907200Y-73976190D01*
X218907200Y-73976190D02*
X218954819Y-74071428D01*
X218954819Y-74071428D02*
X218954819Y-74166666D01*
X218954819Y-74166666D02*
X218907200Y-74261904D01*
X218907200Y-74261904D02*
X218859580Y-74309523D01*
X218859580Y-74309523D02*
X218764342Y-74357142D01*
X218764342Y-74357142D02*
X218573866Y-74404761D01*
X218573866Y-74404761D02*
X218335771Y-74404761D01*
X218335771Y-74404761D02*
X218145295Y-74357142D01*
X218145295Y-74357142D02*
X218050057Y-74309523D01*
X218050057Y-74309523D02*
X218002438Y-74261904D01*
X218002438Y-74261904D02*
X217954819Y-74166666D01*
X217954819Y-72928571D02*
X217954819Y-73404761D01*
X217954819Y-73404761D02*
X218431009Y-73452380D01*
X218431009Y-73452380D02*
X218383390Y-73404761D01*
X218383390Y-73404761D02*
X218335771Y-73309523D01*
X218335771Y-73309523D02*
X218335771Y-73071428D01*
X218335771Y-73071428D02*
X218383390Y-72976190D01*
X218383390Y-72976190D02*
X218431009Y-72928571D01*
X218431009Y-72928571D02*
X218526247Y-72880952D01*
X218526247Y-72880952D02*
X218764342Y-72880952D01*
X218764342Y-72880952D02*
X218859580Y-72928571D01*
X218859580Y-72928571D02*
X218907200Y-72976190D01*
X218907200Y-72976190D02*
X218954819Y-73071428D01*
X218954819Y-73071428D02*
X218954819Y-73309523D01*
X218954819Y-73309523D02*
X218907200Y-73404761D01*
X218907200Y-73404761D02*
X218859580Y-73452380D01*
X218573866Y-72452380D02*
X218573866Y-71690476D01*
X218954819Y-70690476D02*
X218954819Y-71261904D01*
X218954819Y-70976190D02*
X217954819Y-70976190D01*
X217954819Y-70976190D02*
X218097676Y-71071428D01*
X218097676Y-71071428D02*
X218192914Y-71166666D01*
X218192914Y-71166666D02*
X218240533Y-71261904D01*
X204708095Y-80563866D02*
X204755714Y-80516247D01*
X204755714Y-80516247D02*
X204850952Y-80468628D01*
X204850952Y-80468628D02*
X205041428Y-80563866D01*
X205041428Y-80563866D02*
X205136666Y-80516247D01*
X205136666Y-80516247D02*
X205184285Y-80468628D01*
X204208095Y-81444819D02*
X204208095Y-82254342D01*
X204208095Y-82254342D02*
X204255714Y-82349580D01*
X204255714Y-82349580D02*
X204303333Y-82397200D01*
X204303333Y-82397200D02*
X204398571Y-82444819D01*
X204398571Y-82444819D02*
X204589047Y-82444819D01*
X204589047Y-82444819D02*
X204684285Y-82397200D01*
X204684285Y-82397200D02*
X204731904Y-82349580D01*
X204731904Y-82349580D02*
X204779523Y-82254342D01*
X204779523Y-82254342D02*
X204779523Y-81444819D01*
X205208095Y-81540057D02*
X205255714Y-81492438D01*
X205255714Y-81492438D02*
X205350952Y-81444819D01*
X205350952Y-81444819D02*
X205589047Y-81444819D01*
X205589047Y-81444819D02*
X205684285Y-81492438D01*
X205684285Y-81492438D02*
X205731904Y-81540057D01*
X205731904Y-81540057D02*
X205779523Y-81635295D01*
X205779523Y-81635295D02*
X205779523Y-81730533D01*
X205779523Y-81730533D02*
X205731904Y-81873390D01*
X205731904Y-81873390D02*
X205160476Y-82444819D01*
X205160476Y-82444819D02*
X205779523Y-82444819D01*
X203794286Y-72324819D02*
X204413333Y-72324819D01*
X204413333Y-72324819D02*
X204080000Y-72705771D01*
X204080000Y-72705771D02*
X204222857Y-72705771D01*
X204222857Y-72705771D02*
X204318095Y-72753390D01*
X204318095Y-72753390D02*
X204365714Y-72801009D01*
X204365714Y-72801009D02*
X204413333Y-72896247D01*
X204413333Y-72896247D02*
X204413333Y-73134342D01*
X204413333Y-73134342D02*
X204365714Y-73229580D01*
X204365714Y-73229580D02*
X204318095Y-73277200D01*
X204318095Y-73277200D02*
X204222857Y-73324819D01*
X204222857Y-73324819D02*
X203937143Y-73324819D01*
X203937143Y-73324819D02*
X203841905Y-73277200D01*
X203841905Y-73277200D02*
X203794286Y-73229580D01*
X204889524Y-73324819D02*
X205080000Y-73324819D01*
X205080000Y-73324819D02*
X205175238Y-73277200D01*
X205175238Y-73277200D02*
X205222857Y-73229580D01*
X205222857Y-73229580D02*
X205318095Y-73086723D01*
X205318095Y-73086723D02*
X205365714Y-72896247D01*
X205365714Y-72896247D02*
X205365714Y-72515295D01*
X205365714Y-72515295D02*
X205318095Y-72420057D01*
X205318095Y-72420057D02*
X205270476Y-72372438D01*
X205270476Y-72372438D02*
X205175238Y-72324819D01*
X205175238Y-72324819D02*
X204984762Y-72324819D01*
X204984762Y-72324819D02*
X204889524Y-72372438D01*
X204889524Y-72372438D02*
X204841905Y-72420057D01*
X204841905Y-72420057D02*
X204794286Y-72515295D01*
X204794286Y-72515295D02*
X204794286Y-72753390D01*
X204794286Y-72753390D02*
X204841905Y-72848628D01*
X204841905Y-72848628D02*
X204889524Y-72896247D01*
X204889524Y-72896247D02*
X204984762Y-72943866D01*
X204984762Y-72943866D02*
X205175238Y-72943866D01*
X205175238Y-72943866D02*
X205270476Y-72896247D01*
X205270476Y-72896247D02*
X205318095Y-72848628D01*
X205318095Y-72848628D02*
X205365714Y-72753390D01*
X205984762Y-72324819D02*
X206080000Y-72324819D01*
X206080000Y-72324819D02*
X206175238Y-72372438D01*
X206175238Y-72372438D02*
X206222857Y-72420057D01*
X206222857Y-72420057D02*
X206270476Y-72515295D01*
X206270476Y-72515295D02*
X206318095Y-72705771D01*
X206318095Y-72705771D02*
X206318095Y-72943866D01*
X206318095Y-72943866D02*
X206270476Y-73134342D01*
X206270476Y-73134342D02*
X206222857Y-73229580D01*
X206222857Y-73229580D02*
X206175238Y-73277200D01*
X206175238Y-73277200D02*
X206080000Y-73324819D01*
X206080000Y-73324819D02*
X205984762Y-73324819D01*
X205984762Y-73324819D02*
X205889524Y-73277200D01*
X205889524Y-73277200D02*
X205841905Y-73229580D01*
X205841905Y-73229580D02*
X205794286Y-73134342D01*
X205794286Y-73134342D02*
X205746667Y-72943866D01*
X205746667Y-72943866D02*
X205746667Y-72705771D01*
X205746667Y-72705771D02*
X205794286Y-72515295D01*
X205794286Y-72515295D02*
X205841905Y-72420057D01*
X205841905Y-72420057D02*
X205889524Y-72372438D01*
X205889524Y-72372438D02*
X205984762Y-72324819D01*
X204913333Y-70954819D02*
X204580000Y-70478628D01*
X204341905Y-70954819D02*
X204341905Y-69954819D01*
X204341905Y-69954819D02*
X204722857Y-69954819D01*
X204722857Y-69954819D02*
X204818095Y-70002438D01*
X204818095Y-70002438D02*
X204865714Y-70050057D01*
X204865714Y-70050057D02*
X204913333Y-70145295D01*
X204913333Y-70145295D02*
X204913333Y-70288152D01*
X204913333Y-70288152D02*
X204865714Y-70383390D01*
X204865714Y-70383390D02*
X204818095Y-70431009D01*
X204818095Y-70431009D02*
X204722857Y-70478628D01*
X204722857Y-70478628D02*
X204341905Y-70478628D01*
X205294286Y-70050057D02*
X205341905Y-70002438D01*
X205341905Y-70002438D02*
X205437143Y-69954819D01*
X205437143Y-69954819D02*
X205675238Y-69954819D01*
X205675238Y-69954819D02*
X205770476Y-70002438D01*
X205770476Y-70002438D02*
X205818095Y-70050057D01*
X205818095Y-70050057D02*
X205865714Y-70145295D01*
X205865714Y-70145295D02*
X205865714Y-70240533D01*
X205865714Y-70240533D02*
X205818095Y-70383390D01*
X205818095Y-70383390D02*
X205246667Y-70954819D01*
X205246667Y-70954819D02*
X205865714Y-70954819D01*
X170214285Y-89654819D02*
X170214285Y-88654819D01*
X170214285Y-88654819D02*
X170547618Y-89369104D01*
X170547618Y-89369104D02*
X170880951Y-88654819D01*
X170880951Y-88654819D02*
X170880951Y-89654819D01*
X171499999Y-89654819D02*
X171404761Y-89607200D01*
X171404761Y-89607200D02*
X171357142Y-89559580D01*
X171357142Y-89559580D02*
X171309523Y-89464342D01*
X171309523Y-89464342D02*
X171309523Y-89178628D01*
X171309523Y-89178628D02*
X171357142Y-89083390D01*
X171357142Y-89083390D02*
X171404761Y-89035771D01*
X171404761Y-89035771D02*
X171499999Y-88988152D01*
X171499999Y-88988152D02*
X171642856Y-88988152D01*
X171642856Y-88988152D02*
X171738094Y-89035771D01*
X171738094Y-89035771D02*
X171785713Y-89083390D01*
X171785713Y-89083390D02*
X171833332Y-89178628D01*
X171833332Y-89178628D02*
X171833332Y-89464342D01*
X171833332Y-89464342D02*
X171785713Y-89559580D01*
X171785713Y-89559580D02*
X171738094Y-89607200D01*
X171738094Y-89607200D02*
X171642856Y-89654819D01*
X171642856Y-89654819D02*
X171499999Y-89654819D01*
X172690475Y-88988152D02*
X172690475Y-89654819D01*
X172261904Y-88988152D02*
X172261904Y-89511961D01*
X172261904Y-89511961D02*
X172309523Y-89607200D01*
X172309523Y-89607200D02*
X172404761Y-89654819D01*
X172404761Y-89654819D02*
X172547618Y-89654819D01*
X172547618Y-89654819D02*
X172642856Y-89607200D01*
X172642856Y-89607200D02*
X172690475Y-89559580D01*
X173166666Y-88988152D02*
X173166666Y-89654819D01*
X173166666Y-89083390D02*
X173214285Y-89035771D01*
X173214285Y-89035771D02*
X173309523Y-88988152D01*
X173309523Y-88988152D02*
X173452380Y-88988152D01*
X173452380Y-88988152D02*
X173547618Y-89035771D01*
X173547618Y-89035771D02*
X173595237Y-89131009D01*
X173595237Y-89131009D02*
X173595237Y-89654819D01*
X173928571Y-88988152D02*
X174309523Y-88988152D01*
X174071428Y-88654819D02*
X174071428Y-89511961D01*
X174071428Y-89511961D02*
X174119047Y-89607200D01*
X174119047Y-89607200D02*
X174214285Y-89654819D01*
X174214285Y-89654819D02*
X174309523Y-89654819D01*
X174642857Y-89654819D02*
X174642857Y-88988152D01*
X174642857Y-88654819D02*
X174595238Y-88702438D01*
X174595238Y-88702438D02*
X174642857Y-88750057D01*
X174642857Y-88750057D02*
X174690476Y-88702438D01*
X174690476Y-88702438D02*
X174642857Y-88654819D01*
X174642857Y-88654819D02*
X174642857Y-88750057D01*
X175119047Y-88988152D02*
X175119047Y-89654819D01*
X175119047Y-89083390D02*
X175166666Y-89035771D01*
X175166666Y-89035771D02*
X175261904Y-88988152D01*
X175261904Y-88988152D02*
X175404761Y-88988152D01*
X175404761Y-88988152D02*
X175499999Y-89035771D01*
X175499999Y-89035771D02*
X175547618Y-89131009D01*
X175547618Y-89131009D02*
X175547618Y-89654819D01*
X176452380Y-88988152D02*
X176452380Y-89797676D01*
X176452380Y-89797676D02*
X176404761Y-89892914D01*
X176404761Y-89892914D02*
X176357142Y-89940533D01*
X176357142Y-89940533D02*
X176261904Y-89988152D01*
X176261904Y-89988152D02*
X176119047Y-89988152D01*
X176119047Y-89988152D02*
X176023809Y-89940533D01*
X176452380Y-89607200D02*
X176357142Y-89654819D01*
X176357142Y-89654819D02*
X176166666Y-89654819D01*
X176166666Y-89654819D02*
X176071428Y-89607200D01*
X176071428Y-89607200D02*
X176023809Y-89559580D01*
X176023809Y-89559580D02*
X175976190Y-89464342D01*
X175976190Y-89464342D02*
X175976190Y-89178628D01*
X175976190Y-89178628D02*
X176023809Y-89083390D01*
X176023809Y-89083390D02*
X176071428Y-89035771D01*
X176071428Y-89035771D02*
X176166666Y-88988152D01*
X176166666Y-88988152D02*
X176357142Y-88988152D01*
X176357142Y-88988152D02*
X176452380Y-89035771D01*
X176928571Y-89654819D02*
X176928571Y-88654819D01*
X176928571Y-89131009D02*
X177499999Y-89131009D01*
X177499999Y-89654819D02*
X177499999Y-88654819D01*
X178119047Y-89654819D02*
X178023809Y-89607200D01*
X178023809Y-89607200D02*
X177976190Y-89559580D01*
X177976190Y-89559580D02*
X177928571Y-89464342D01*
X177928571Y-89464342D02*
X177928571Y-89178628D01*
X177928571Y-89178628D02*
X177976190Y-89083390D01*
X177976190Y-89083390D02*
X178023809Y-89035771D01*
X178023809Y-89035771D02*
X178119047Y-88988152D01*
X178119047Y-88988152D02*
X178261904Y-88988152D01*
X178261904Y-88988152D02*
X178357142Y-89035771D01*
X178357142Y-89035771D02*
X178404761Y-89083390D01*
X178404761Y-89083390D02*
X178452380Y-89178628D01*
X178452380Y-89178628D02*
X178452380Y-89464342D01*
X178452380Y-89464342D02*
X178404761Y-89559580D01*
X178404761Y-89559580D02*
X178357142Y-89607200D01*
X178357142Y-89607200D02*
X178261904Y-89654819D01*
X178261904Y-89654819D02*
X178119047Y-89654819D01*
X179023809Y-89654819D02*
X178928571Y-89607200D01*
X178928571Y-89607200D02*
X178880952Y-89511961D01*
X178880952Y-89511961D02*
X178880952Y-88654819D01*
X179785714Y-89607200D02*
X179690476Y-89654819D01*
X179690476Y-89654819D02*
X179500000Y-89654819D01*
X179500000Y-89654819D02*
X179404762Y-89607200D01*
X179404762Y-89607200D02*
X179357143Y-89511961D01*
X179357143Y-89511961D02*
X179357143Y-89131009D01*
X179357143Y-89131009D02*
X179404762Y-89035771D01*
X179404762Y-89035771D02*
X179500000Y-88988152D01*
X179500000Y-88988152D02*
X179690476Y-88988152D01*
X179690476Y-88988152D02*
X179785714Y-89035771D01*
X179785714Y-89035771D02*
X179833333Y-89131009D01*
X179833333Y-89131009D02*
X179833333Y-89226247D01*
X179833333Y-89226247D02*
X179357143Y-89321485D01*
X174238095Y-85454819D02*
X174238095Y-84454819D01*
X174238095Y-84931009D02*
X174809523Y-84931009D01*
X174809523Y-85454819D02*
X174809523Y-84454819D01*
X175190476Y-84454819D02*
X175809523Y-84454819D01*
X175809523Y-84454819D02*
X175476190Y-84835771D01*
X175476190Y-84835771D02*
X175619047Y-84835771D01*
X175619047Y-84835771D02*
X175714285Y-84883390D01*
X175714285Y-84883390D02*
X175761904Y-84931009D01*
X175761904Y-84931009D02*
X175809523Y-85026247D01*
X175809523Y-85026247D02*
X175809523Y-85264342D01*
X175809523Y-85264342D02*
X175761904Y-85359580D01*
X175761904Y-85359580D02*
X175714285Y-85407200D01*
X175714285Y-85407200D02*
X175619047Y-85454819D01*
X175619047Y-85454819D02*
X175333333Y-85454819D01*
X175333333Y-85454819D02*
X175238095Y-85407200D01*
X175238095Y-85407200D02*
X175190476Y-85359580D01*
X212714285Y-57859580D02*
X212666666Y-57907200D01*
X212666666Y-57907200D02*
X212523809Y-57954819D01*
X212523809Y-57954819D02*
X212428571Y-57954819D01*
X212428571Y-57954819D02*
X212285714Y-57907200D01*
X212285714Y-57907200D02*
X212190476Y-57811961D01*
X212190476Y-57811961D02*
X212142857Y-57716723D01*
X212142857Y-57716723D02*
X212095238Y-57526247D01*
X212095238Y-57526247D02*
X212095238Y-57383390D01*
X212095238Y-57383390D02*
X212142857Y-57192914D01*
X212142857Y-57192914D02*
X212190476Y-57097676D01*
X212190476Y-57097676D02*
X212285714Y-57002438D01*
X212285714Y-57002438D02*
X212428571Y-56954819D01*
X212428571Y-56954819D02*
X212523809Y-56954819D01*
X212523809Y-56954819D02*
X212666666Y-57002438D01*
X212666666Y-57002438D02*
X212714285Y-57050057D01*
X213285714Y-57954819D02*
X213190476Y-57907200D01*
X213190476Y-57907200D02*
X213142857Y-57859580D01*
X213142857Y-57859580D02*
X213095238Y-57764342D01*
X213095238Y-57764342D02*
X213095238Y-57478628D01*
X213095238Y-57478628D02*
X213142857Y-57383390D01*
X213142857Y-57383390D02*
X213190476Y-57335771D01*
X213190476Y-57335771D02*
X213285714Y-57288152D01*
X213285714Y-57288152D02*
X213428571Y-57288152D01*
X213428571Y-57288152D02*
X213523809Y-57335771D01*
X213523809Y-57335771D02*
X213571428Y-57383390D01*
X213571428Y-57383390D02*
X213619047Y-57478628D01*
X213619047Y-57478628D02*
X213619047Y-57764342D01*
X213619047Y-57764342D02*
X213571428Y-57859580D01*
X213571428Y-57859580D02*
X213523809Y-57907200D01*
X213523809Y-57907200D02*
X213428571Y-57954819D01*
X213428571Y-57954819D02*
X213285714Y-57954819D01*
X214047619Y-57288152D02*
X214047619Y-57954819D01*
X214047619Y-57383390D02*
X214095238Y-57335771D01*
X214095238Y-57335771D02*
X214190476Y-57288152D01*
X214190476Y-57288152D02*
X214333333Y-57288152D01*
X214333333Y-57288152D02*
X214428571Y-57335771D01*
X214428571Y-57335771D02*
X214476190Y-57431009D01*
X214476190Y-57431009D02*
X214476190Y-57954819D01*
X214952381Y-57288152D02*
X214952381Y-57954819D01*
X214952381Y-57383390D02*
X215000000Y-57335771D01*
X215000000Y-57335771D02*
X215095238Y-57288152D01*
X215095238Y-57288152D02*
X215238095Y-57288152D01*
X215238095Y-57288152D02*
X215333333Y-57335771D01*
X215333333Y-57335771D02*
X215380952Y-57431009D01*
X215380952Y-57431009D02*
X215380952Y-57954819D01*
X215619048Y-58050057D02*
X216380952Y-58050057D01*
X216571429Y-57907200D02*
X216714286Y-57954819D01*
X216714286Y-57954819D02*
X216952381Y-57954819D01*
X216952381Y-57954819D02*
X217047619Y-57907200D01*
X217047619Y-57907200D02*
X217095238Y-57859580D01*
X217095238Y-57859580D02*
X217142857Y-57764342D01*
X217142857Y-57764342D02*
X217142857Y-57669104D01*
X217142857Y-57669104D02*
X217095238Y-57573866D01*
X217095238Y-57573866D02*
X217047619Y-57526247D01*
X217047619Y-57526247D02*
X216952381Y-57478628D01*
X216952381Y-57478628D02*
X216761905Y-57431009D01*
X216761905Y-57431009D02*
X216666667Y-57383390D01*
X216666667Y-57383390D02*
X216619048Y-57335771D01*
X216619048Y-57335771D02*
X216571429Y-57240533D01*
X216571429Y-57240533D02*
X216571429Y-57145295D01*
X216571429Y-57145295D02*
X216619048Y-57050057D01*
X216619048Y-57050057D02*
X216666667Y-57002438D01*
X216666667Y-57002438D02*
X216761905Y-56954819D01*
X216761905Y-56954819D02*
X217000000Y-56954819D01*
X217000000Y-56954819D02*
X217142857Y-57002438D01*
X217476191Y-57288152D02*
X217666667Y-57954819D01*
X217666667Y-57954819D02*
X217857143Y-57478628D01*
X217857143Y-57478628D02*
X218047619Y-57954819D01*
X218047619Y-57954819D02*
X218238095Y-57288152D01*
X218619048Y-57954819D02*
X218619048Y-57288152D01*
X218619048Y-56954819D02*
X218571429Y-57002438D01*
X218571429Y-57002438D02*
X218619048Y-57050057D01*
X218619048Y-57050057D02*
X218666667Y-57002438D01*
X218666667Y-57002438D02*
X218619048Y-56954819D01*
X218619048Y-56954819D02*
X218619048Y-57050057D01*
X218952381Y-57288152D02*
X219333333Y-57288152D01*
X219095238Y-56954819D02*
X219095238Y-57811961D01*
X219095238Y-57811961D02*
X219142857Y-57907200D01*
X219142857Y-57907200D02*
X219238095Y-57954819D01*
X219238095Y-57954819D02*
X219333333Y-57954819D01*
X220095238Y-57907200D02*
X220000000Y-57954819D01*
X220000000Y-57954819D02*
X219809524Y-57954819D01*
X219809524Y-57954819D02*
X219714286Y-57907200D01*
X219714286Y-57907200D02*
X219666667Y-57859580D01*
X219666667Y-57859580D02*
X219619048Y-57764342D01*
X219619048Y-57764342D02*
X219619048Y-57478628D01*
X219619048Y-57478628D02*
X219666667Y-57383390D01*
X219666667Y-57383390D02*
X219714286Y-57335771D01*
X219714286Y-57335771D02*
X219809524Y-57288152D01*
X219809524Y-57288152D02*
X220000000Y-57288152D01*
X220000000Y-57288152D02*
X220095238Y-57335771D01*
X220523810Y-57954819D02*
X220523810Y-56954819D01*
X220952381Y-57954819D02*
X220952381Y-57431009D01*
X220952381Y-57431009D02*
X220904762Y-57335771D01*
X220904762Y-57335771D02*
X220809524Y-57288152D01*
X220809524Y-57288152D02*
X220666667Y-57288152D01*
X220666667Y-57288152D02*
X220571429Y-57335771D01*
X220571429Y-57335771D02*
X220523810Y-57383390D01*
X221428572Y-57954819D02*
X221428572Y-57288152D01*
X221428572Y-56954819D02*
X221380953Y-57002438D01*
X221380953Y-57002438D02*
X221428572Y-57050057D01*
X221428572Y-57050057D02*
X221476191Y-57002438D01*
X221476191Y-57002438D02*
X221428572Y-56954819D01*
X221428572Y-56954819D02*
X221428572Y-57050057D01*
X221904762Y-57288152D02*
X221904762Y-57954819D01*
X221904762Y-57383390D02*
X221952381Y-57335771D01*
X221952381Y-57335771D02*
X222047619Y-57288152D01*
X222047619Y-57288152D02*
X222190476Y-57288152D01*
X222190476Y-57288152D02*
X222285714Y-57335771D01*
X222285714Y-57335771D02*
X222333333Y-57431009D01*
X222333333Y-57431009D02*
X222333333Y-57954819D01*
X223238095Y-57288152D02*
X223238095Y-58097676D01*
X223238095Y-58097676D02*
X223190476Y-58192914D01*
X223190476Y-58192914D02*
X223142857Y-58240533D01*
X223142857Y-58240533D02*
X223047619Y-58288152D01*
X223047619Y-58288152D02*
X222904762Y-58288152D01*
X222904762Y-58288152D02*
X222809524Y-58240533D01*
X223238095Y-57907200D02*
X223142857Y-57954819D01*
X223142857Y-57954819D02*
X222952381Y-57954819D01*
X222952381Y-57954819D02*
X222857143Y-57907200D01*
X222857143Y-57907200D02*
X222809524Y-57859580D01*
X222809524Y-57859580D02*
X222761905Y-57764342D01*
X222761905Y-57764342D02*
X222761905Y-57478628D01*
X222761905Y-57478628D02*
X222809524Y-57383390D01*
X222809524Y-57383390D02*
X222857143Y-57335771D01*
X222857143Y-57335771D02*
X222952381Y-57288152D01*
X222952381Y-57288152D02*
X223142857Y-57288152D01*
X223142857Y-57288152D02*
X223238095Y-57335771D01*
X223476191Y-58050057D02*
X224238095Y-58050057D01*
X224476191Y-57954819D02*
X224476191Y-56954819D01*
X224476191Y-57431009D02*
X225047619Y-57431009D01*
X225047619Y-57954819D02*
X225047619Y-56954819D01*
X225952381Y-57288152D02*
X225952381Y-57954819D01*
X225523810Y-57288152D02*
X225523810Y-57811961D01*
X225523810Y-57811961D02*
X225571429Y-57907200D01*
X225571429Y-57907200D02*
X225666667Y-57954819D01*
X225666667Y-57954819D02*
X225809524Y-57954819D01*
X225809524Y-57954819D02*
X225904762Y-57907200D01*
X225904762Y-57907200D02*
X225952381Y-57859580D01*
X226428572Y-57954819D02*
X226428572Y-56954819D01*
X226428572Y-57335771D02*
X226523810Y-57288152D01*
X226523810Y-57288152D02*
X226714286Y-57288152D01*
X226714286Y-57288152D02*
X226809524Y-57335771D01*
X226809524Y-57335771D02*
X226857143Y-57383390D01*
X226857143Y-57383390D02*
X226904762Y-57478628D01*
X226904762Y-57478628D02*
X226904762Y-57764342D01*
X226904762Y-57764342D02*
X226857143Y-57859580D01*
X226857143Y-57859580D02*
X226809524Y-57907200D01*
X226809524Y-57907200D02*
X226714286Y-57954819D01*
X226714286Y-57954819D02*
X226523810Y-57954819D01*
X226523810Y-57954819D02*
X226428572Y-57907200D01*
X219166666Y-50454819D02*
X219166666Y-51169104D01*
X219166666Y-51169104D02*
X219119047Y-51311961D01*
X219119047Y-51311961D02*
X219023809Y-51407200D01*
X219023809Y-51407200D02*
X218880952Y-51454819D01*
X218880952Y-51454819D02*
X218785714Y-51454819D01*
X220166666Y-51454819D02*
X219595238Y-51454819D01*
X219880952Y-51454819D02*
X219880952Y-50454819D01*
X219880952Y-50454819D02*
X219785714Y-50597676D01*
X219785714Y-50597676D02*
X219690476Y-50692914D01*
X219690476Y-50692914D02*
X219595238Y-50740533D01*
X222708095Y-80563866D02*
X222755714Y-80516247D01*
X222755714Y-80516247D02*
X222850952Y-80468628D01*
X222850952Y-80468628D02*
X223041428Y-80563866D01*
X223041428Y-80563866D02*
X223136666Y-80516247D01*
X223136666Y-80516247D02*
X223184285Y-80468628D01*
X222208095Y-81444819D02*
X222208095Y-82254342D01*
X222208095Y-82254342D02*
X222255714Y-82349580D01*
X222255714Y-82349580D02*
X222303333Y-82397200D01*
X222303333Y-82397200D02*
X222398571Y-82444819D01*
X222398571Y-82444819D02*
X222589047Y-82444819D01*
X222589047Y-82444819D02*
X222684285Y-82397200D01*
X222684285Y-82397200D02*
X222731904Y-82349580D01*
X222731904Y-82349580D02*
X222779523Y-82254342D01*
X222779523Y-82254342D02*
X222779523Y-81444819D01*
X223779523Y-82444819D02*
X223208095Y-82444819D01*
X223493809Y-82444819D02*
X223493809Y-81444819D01*
X223493809Y-81444819D02*
X223398571Y-81587676D01*
X223398571Y-81587676D02*
X223303333Y-81682914D01*
X223303333Y-81682914D02*
X223208095Y-81730533D01*
X227859580Y-75714286D02*
X227907200Y-75761905D01*
X227907200Y-75761905D02*
X227954819Y-75904762D01*
X227954819Y-75904762D02*
X227954819Y-76000000D01*
X227954819Y-76000000D02*
X227907200Y-76142857D01*
X227907200Y-76142857D02*
X227811961Y-76238095D01*
X227811961Y-76238095D02*
X227716723Y-76285714D01*
X227716723Y-76285714D02*
X227526247Y-76333333D01*
X227526247Y-76333333D02*
X227383390Y-76333333D01*
X227383390Y-76333333D02*
X227192914Y-76285714D01*
X227192914Y-76285714D02*
X227097676Y-76238095D01*
X227097676Y-76238095D02*
X227002438Y-76142857D01*
X227002438Y-76142857D02*
X226954819Y-76000000D01*
X226954819Y-76000000D02*
X226954819Y-75904762D01*
X226954819Y-75904762D02*
X227002438Y-75761905D01*
X227002438Y-75761905D02*
X227050057Y-75714286D01*
X227954819Y-75142857D02*
X227907200Y-75238095D01*
X227907200Y-75238095D02*
X227859580Y-75285714D01*
X227859580Y-75285714D02*
X227764342Y-75333333D01*
X227764342Y-75333333D02*
X227478628Y-75333333D01*
X227478628Y-75333333D02*
X227383390Y-75285714D01*
X227383390Y-75285714D02*
X227335771Y-75238095D01*
X227335771Y-75238095D02*
X227288152Y-75142857D01*
X227288152Y-75142857D02*
X227288152Y-75000000D01*
X227288152Y-75000000D02*
X227335771Y-74904762D01*
X227335771Y-74904762D02*
X227383390Y-74857143D01*
X227383390Y-74857143D02*
X227478628Y-74809524D01*
X227478628Y-74809524D02*
X227764342Y-74809524D01*
X227764342Y-74809524D02*
X227859580Y-74857143D01*
X227859580Y-74857143D02*
X227907200Y-74904762D01*
X227907200Y-74904762D02*
X227954819Y-75000000D01*
X227954819Y-75000000D02*
X227954819Y-75142857D01*
X227288152Y-74380952D02*
X227954819Y-74380952D01*
X227383390Y-74380952D02*
X227335771Y-74333333D01*
X227335771Y-74333333D02*
X227288152Y-74238095D01*
X227288152Y-74238095D02*
X227288152Y-74095238D01*
X227288152Y-74095238D02*
X227335771Y-74000000D01*
X227335771Y-74000000D02*
X227431009Y-73952381D01*
X227431009Y-73952381D02*
X227954819Y-73952381D01*
X227288152Y-73476190D02*
X227954819Y-73476190D01*
X227383390Y-73476190D02*
X227335771Y-73428571D01*
X227335771Y-73428571D02*
X227288152Y-73333333D01*
X227288152Y-73333333D02*
X227288152Y-73190476D01*
X227288152Y-73190476D02*
X227335771Y-73095238D01*
X227335771Y-73095238D02*
X227431009Y-73047619D01*
X227431009Y-73047619D02*
X227954819Y-73047619D01*
X228050057Y-72809524D02*
X228050057Y-72047619D01*
X226954819Y-71952380D02*
X227954819Y-71619047D01*
X227954819Y-71619047D02*
X226954819Y-71285714D01*
X227954819Y-70476190D02*
X227954819Y-70952380D01*
X227954819Y-70952380D02*
X226954819Y-70952380D01*
X227954819Y-70142856D02*
X226954819Y-70142856D01*
X226954819Y-70142856D02*
X226954819Y-69761904D01*
X226954819Y-69761904D02*
X227002438Y-69666666D01*
X227002438Y-69666666D02*
X227050057Y-69619047D01*
X227050057Y-69619047D02*
X227145295Y-69571428D01*
X227145295Y-69571428D02*
X227288152Y-69571428D01*
X227288152Y-69571428D02*
X227383390Y-69619047D01*
X227383390Y-69619047D02*
X227431009Y-69666666D01*
X227431009Y-69666666D02*
X227478628Y-69761904D01*
X227478628Y-69761904D02*
X227478628Y-70142856D01*
X227954819Y-68619047D02*
X227954819Y-69190475D01*
X227954819Y-68904761D02*
X226954819Y-68904761D01*
X226954819Y-68904761D02*
X227097676Y-68999999D01*
X227097676Y-68999999D02*
X227192914Y-69095237D01*
X227192914Y-69095237D02*
X227240533Y-69190475D01*
X226954819Y-67761904D02*
X226954819Y-67952380D01*
X226954819Y-67952380D02*
X227002438Y-68047618D01*
X227002438Y-68047618D02*
X227050057Y-68095237D01*
X227050057Y-68095237D02*
X227192914Y-68190475D01*
X227192914Y-68190475D02*
X227383390Y-68238094D01*
X227383390Y-68238094D02*
X227764342Y-68238094D01*
X227764342Y-68238094D02*
X227859580Y-68190475D01*
X227859580Y-68190475D02*
X227907200Y-68142856D01*
X227907200Y-68142856D02*
X227954819Y-68047618D01*
X227954819Y-68047618D02*
X227954819Y-67857142D01*
X227954819Y-67857142D02*
X227907200Y-67761904D01*
X227907200Y-67761904D02*
X227859580Y-67714285D01*
X227859580Y-67714285D02*
X227764342Y-67666666D01*
X227764342Y-67666666D02*
X227526247Y-67666666D01*
X227526247Y-67666666D02*
X227431009Y-67714285D01*
X227431009Y-67714285D02*
X227383390Y-67761904D01*
X227383390Y-67761904D02*
X227335771Y-67857142D01*
X227335771Y-67857142D02*
X227335771Y-68047618D01*
X227335771Y-68047618D02*
X227383390Y-68142856D01*
X227383390Y-68142856D02*
X227431009Y-68190475D01*
X227431009Y-68190475D02*
X227526247Y-68238094D01*
X233454819Y-72333333D02*
X234169104Y-72333333D01*
X234169104Y-72333333D02*
X234311961Y-72380952D01*
X234311961Y-72380952D02*
X234407200Y-72476190D01*
X234407200Y-72476190D02*
X234454819Y-72619047D01*
X234454819Y-72619047D02*
X234454819Y-72714285D01*
X233454819Y-71380952D02*
X233454819Y-71857142D01*
X233454819Y-71857142D02*
X233931009Y-71904761D01*
X233931009Y-71904761D02*
X233883390Y-71857142D01*
X233883390Y-71857142D02*
X233835771Y-71761904D01*
X233835771Y-71761904D02*
X233835771Y-71523809D01*
X233835771Y-71523809D02*
X233883390Y-71428571D01*
X233883390Y-71428571D02*
X233931009Y-71380952D01*
X233931009Y-71380952D02*
X234026247Y-71333333D01*
X234026247Y-71333333D02*
X234264342Y-71333333D01*
X234264342Y-71333333D02*
X234359580Y-71380952D01*
X234359580Y-71380952D02*
X234407200Y-71428571D01*
X234407200Y-71428571D02*
X234454819Y-71523809D01*
X234454819Y-71523809D02*
X234454819Y-71761904D01*
X234454819Y-71761904D02*
X234407200Y-71857142D01*
X234407200Y-71857142D02*
X234359580Y-71904761D01*
X171357143Y-75050057D02*
X171404762Y-75002438D01*
X171404762Y-75002438D02*
X171500000Y-74954819D01*
X171500000Y-74954819D02*
X171738095Y-74954819D01*
X171738095Y-74954819D02*
X171833333Y-75002438D01*
X171833333Y-75002438D02*
X171880952Y-75050057D01*
X171880952Y-75050057D02*
X171928571Y-75145295D01*
X171928571Y-75145295D02*
X171928571Y-75240533D01*
X171928571Y-75240533D02*
X171880952Y-75383390D01*
X171880952Y-75383390D02*
X171309524Y-75954819D01*
X171309524Y-75954819D02*
X171928571Y-75954819D01*
X172309524Y-75907200D02*
X172452381Y-75954819D01*
X172452381Y-75954819D02*
X172690476Y-75954819D01*
X172690476Y-75954819D02*
X172785714Y-75907200D01*
X172785714Y-75907200D02*
X172833333Y-75859580D01*
X172833333Y-75859580D02*
X172880952Y-75764342D01*
X172880952Y-75764342D02*
X172880952Y-75669104D01*
X172880952Y-75669104D02*
X172833333Y-75573866D01*
X172833333Y-75573866D02*
X172785714Y-75526247D01*
X172785714Y-75526247D02*
X172690476Y-75478628D01*
X172690476Y-75478628D02*
X172500000Y-75431009D01*
X172500000Y-75431009D02*
X172404762Y-75383390D01*
X172404762Y-75383390D02*
X172357143Y-75335771D01*
X172357143Y-75335771D02*
X172309524Y-75240533D01*
X172309524Y-75240533D02*
X172309524Y-75145295D01*
X172309524Y-75145295D02*
X172357143Y-75050057D01*
X172357143Y-75050057D02*
X172404762Y-75002438D01*
X172404762Y-75002438D02*
X172500000Y-74954819D01*
X172500000Y-74954819D02*
X172738095Y-74954819D01*
X172738095Y-74954819D02*
X172880952Y-75002438D01*
X173595238Y-74954819D02*
X173595238Y-75669104D01*
X173595238Y-75669104D02*
X173547619Y-75811961D01*
X173547619Y-75811961D02*
X173452381Y-75907200D01*
X173452381Y-75907200D02*
X173309524Y-75954819D01*
X173309524Y-75954819D02*
X173214286Y-75954819D01*
X174547619Y-74954819D02*
X174071429Y-74954819D01*
X174071429Y-74954819D02*
X174023810Y-75431009D01*
X174023810Y-75431009D02*
X174071429Y-75383390D01*
X174071429Y-75383390D02*
X174166667Y-75335771D01*
X174166667Y-75335771D02*
X174404762Y-75335771D01*
X174404762Y-75335771D02*
X174500000Y-75383390D01*
X174500000Y-75383390D02*
X174547619Y-75431009D01*
X174547619Y-75431009D02*
X174595238Y-75526247D01*
X174595238Y-75526247D02*
X174595238Y-75764342D01*
X174595238Y-75764342D02*
X174547619Y-75859580D01*
X174547619Y-75859580D02*
X174500000Y-75907200D01*
X174500000Y-75907200D02*
X174404762Y-75954819D01*
X174404762Y-75954819D02*
X174166667Y-75954819D01*
X174166667Y-75954819D02*
X174071429Y-75907200D01*
X174071429Y-75907200D02*
X174023810Y-75859580D01*
X175500000Y-74954819D02*
X175023810Y-74954819D01*
X175023810Y-74954819D02*
X174976191Y-75431009D01*
X174976191Y-75431009D02*
X175023810Y-75383390D01*
X175023810Y-75383390D02*
X175119048Y-75335771D01*
X175119048Y-75335771D02*
X175357143Y-75335771D01*
X175357143Y-75335771D02*
X175452381Y-75383390D01*
X175452381Y-75383390D02*
X175500000Y-75431009D01*
X175500000Y-75431009D02*
X175547619Y-75526247D01*
X175547619Y-75526247D02*
X175547619Y-75764342D01*
X175547619Y-75764342D02*
X175500000Y-75859580D01*
X175500000Y-75859580D02*
X175452381Y-75907200D01*
X175452381Y-75907200D02*
X175357143Y-75954819D01*
X175357143Y-75954819D02*
X175119048Y-75954819D01*
X175119048Y-75954819D02*
X175023810Y-75907200D01*
X175023810Y-75907200D02*
X174976191Y-75859580D01*
X176452381Y-74954819D02*
X175976191Y-74954819D01*
X175976191Y-74954819D02*
X175928572Y-75431009D01*
X175928572Y-75431009D02*
X175976191Y-75383390D01*
X175976191Y-75383390D02*
X176071429Y-75335771D01*
X176071429Y-75335771D02*
X176309524Y-75335771D01*
X176309524Y-75335771D02*
X176404762Y-75383390D01*
X176404762Y-75383390D02*
X176452381Y-75431009D01*
X176452381Y-75431009D02*
X176500000Y-75526247D01*
X176500000Y-75526247D02*
X176500000Y-75764342D01*
X176500000Y-75764342D02*
X176452381Y-75859580D01*
X176452381Y-75859580D02*
X176404762Y-75907200D01*
X176404762Y-75907200D02*
X176309524Y-75954819D01*
X176309524Y-75954819D02*
X176071429Y-75954819D01*
X176071429Y-75954819D02*
X175976191Y-75907200D01*
X175976191Y-75907200D02*
X175928572Y-75859580D01*
X176928572Y-75573866D02*
X177690477Y-75573866D01*
X178166667Y-75431009D02*
X178500000Y-75431009D01*
X178642857Y-75954819D02*
X178166667Y-75954819D01*
X178166667Y-75954819D02*
X178166667Y-74954819D01*
X178166667Y-74954819D02*
X178642857Y-74954819D01*
X184404761Y-76050057D02*
X184309523Y-76002438D01*
X184309523Y-76002438D02*
X184214285Y-75907200D01*
X184214285Y-75907200D02*
X184071428Y-75764342D01*
X184071428Y-75764342D02*
X183976190Y-75716723D01*
X183976190Y-75716723D02*
X183880952Y-75716723D01*
X183928571Y-75954819D02*
X183833333Y-75907200D01*
X183833333Y-75907200D02*
X183738095Y-75811961D01*
X183738095Y-75811961D02*
X183690476Y-75621485D01*
X183690476Y-75621485D02*
X183690476Y-75288152D01*
X183690476Y-75288152D02*
X183738095Y-75097676D01*
X183738095Y-75097676D02*
X183833333Y-75002438D01*
X183833333Y-75002438D02*
X183928571Y-74954819D01*
X183928571Y-74954819D02*
X184119047Y-74954819D01*
X184119047Y-74954819D02*
X184214285Y-75002438D01*
X184214285Y-75002438D02*
X184309523Y-75097676D01*
X184309523Y-75097676D02*
X184357142Y-75288152D01*
X184357142Y-75288152D02*
X184357142Y-75621485D01*
X184357142Y-75621485D02*
X184309523Y-75811961D01*
X184309523Y-75811961D02*
X184214285Y-75907200D01*
X184214285Y-75907200D02*
X184119047Y-75954819D01*
X184119047Y-75954819D02*
X183928571Y-75954819D01*
X184738095Y-75050057D02*
X184785714Y-75002438D01*
X184785714Y-75002438D02*
X184880952Y-74954819D01*
X184880952Y-74954819D02*
X185119047Y-74954819D01*
X185119047Y-74954819D02*
X185214285Y-75002438D01*
X185214285Y-75002438D02*
X185261904Y-75050057D01*
X185261904Y-75050057D02*
X185309523Y-75145295D01*
X185309523Y-75145295D02*
X185309523Y-75240533D01*
X185309523Y-75240533D02*
X185261904Y-75383390D01*
X185261904Y-75383390D02*
X184690476Y-75954819D01*
X184690476Y-75954819D02*
X185309523Y-75954819D01*
X230214285Y-89654819D02*
X230214285Y-88654819D01*
X230214285Y-88654819D02*
X230547618Y-89369104D01*
X230547618Y-89369104D02*
X230880951Y-88654819D01*
X230880951Y-88654819D02*
X230880951Y-89654819D01*
X231499999Y-89654819D02*
X231404761Y-89607200D01*
X231404761Y-89607200D02*
X231357142Y-89559580D01*
X231357142Y-89559580D02*
X231309523Y-89464342D01*
X231309523Y-89464342D02*
X231309523Y-89178628D01*
X231309523Y-89178628D02*
X231357142Y-89083390D01*
X231357142Y-89083390D02*
X231404761Y-89035771D01*
X231404761Y-89035771D02*
X231499999Y-88988152D01*
X231499999Y-88988152D02*
X231642856Y-88988152D01*
X231642856Y-88988152D02*
X231738094Y-89035771D01*
X231738094Y-89035771D02*
X231785713Y-89083390D01*
X231785713Y-89083390D02*
X231833332Y-89178628D01*
X231833332Y-89178628D02*
X231833332Y-89464342D01*
X231833332Y-89464342D02*
X231785713Y-89559580D01*
X231785713Y-89559580D02*
X231738094Y-89607200D01*
X231738094Y-89607200D02*
X231642856Y-89654819D01*
X231642856Y-89654819D02*
X231499999Y-89654819D01*
X232690475Y-88988152D02*
X232690475Y-89654819D01*
X232261904Y-88988152D02*
X232261904Y-89511961D01*
X232261904Y-89511961D02*
X232309523Y-89607200D01*
X232309523Y-89607200D02*
X232404761Y-89654819D01*
X232404761Y-89654819D02*
X232547618Y-89654819D01*
X232547618Y-89654819D02*
X232642856Y-89607200D01*
X232642856Y-89607200D02*
X232690475Y-89559580D01*
X233166666Y-88988152D02*
X233166666Y-89654819D01*
X233166666Y-89083390D02*
X233214285Y-89035771D01*
X233214285Y-89035771D02*
X233309523Y-88988152D01*
X233309523Y-88988152D02*
X233452380Y-88988152D01*
X233452380Y-88988152D02*
X233547618Y-89035771D01*
X233547618Y-89035771D02*
X233595237Y-89131009D01*
X233595237Y-89131009D02*
X233595237Y-89654819D01*
X233928571Y-88988152D02*
X234309523Y-88988152D01*
X234071428Y-88654819D02*
X234071428Y-89511961D01*
X234071428Y-89511961D02*
X234119047Y-89607200D01*
X234119047Y-89607200D02*
X234214285Y-89654819D01*
X234214285Y-89654819D02*
X234309523Y-89654819D01*
X234642857Y-89654819D02*
X234642857Y-88988152D01*
X234642857Y-88654819D02*
X234595238Y-88702438D01*
X234595238Y-88702438D02*
X234642857Y-88750057D01*
X234642857Y-88750057D02*
X234690476Y-88702438D01*
X234690476Y-88702438D02*
X234642857Y-88654819D01*
X234642857Y-88654819D02*
X234642857Y-88750057D01*
X235119047Y-88988152D02*
X235119047Y-89654819D01*
X235119047Y-89083390D02*
X235166666Y-89035771D01*
X235166666Y-89035771D02*
X235261904Y-88988152D01*
X235261904Y-88988152D02*
X235404761Y-88988152D01*
X235404761Y-88988152D02*
X235499999Y-89035771D01*
X235499999Y-89035771D02*
X235547618Y-89131009D01*
X235547618Y-89131009D02*
X235547618Y-89654819D01*
X236452380Y-88988152D02*
X236452380Y-89797676D01*
X236452380Y-89797676D02*
X236404761Y-89892914D01*
X236404761Y-89892914D02*
X236357142Y-89940533D01*
X236357142Y-89940533D02*
X236261904Y-89988152D01*
X236261904Y-89988152D02*
X236119047Y-89988152D01*
X236119047Y-89988152D02*
X236023809Y-89940533D01*
X236452380Y-89607200D02*
X236357142Y-89654819D01*
X236357142Y-89654819D02*
X236166666Y-89654819D01*
X236166666Y-89654819D02*
X236071428Y-89607200D01*
X236071428Y-89607200D02*
X236023809Y-89559580D01*
X236023809Y-89559580D02*
X235976190Y-89464342D01*
X235976190Y-89464342D02*
X235976190Y-89178628D01*
X235976190Y-89178628D02*
X236023809Y-89083390D01*
X236023809Y-89083390D02*
X236071428Y-89035771D01*
X236071428Y-89035771D02*
X236166666Y-88988152D01*
X236166666Y-88988152D02*
X236357142Y-88988152D01*
X236357142Y-88988152D02*
X236452380Y-89035771D01*
X236928571Y-89654819D02*
X236928571Y-88654819D01*
X236928571Y-89131009D02*
X237499999Y-89131009D01*
X237499999Y-89654819D02*
X237499999Y-88654819D01*
X238119047Y-89654819D02*
X238023809Y-89607200D01*
X238023809Y-89607200D02*
X237976190Y-89559580D01*
X237976190Y-89559580D02*
X237928571Y-89464342D01*
X237928571Y-89464342D02*
X237928571Y-89178628D01*
X237928571Y-89178628D02*
X237976190Y-89083390D01*
X237976190Y-89083390D02*
X238023809Y-89035771D01*
X238023809Y-89035771D02*
X238119047Y-88988152D01*
X238119047Y-88988152D02*
X238261904Y-88988152D01*
X238261904Y-88988152D02*
X238357142Y-89035771D01*
X238357142Y-89035771D02*
X238404761Y-89083390D01*
X238404761Y-89083390D02*
X238452380Y-89178628D01*
X238452380Y-89178628D02*
X238452380Y-89464342D01*
X238452380Y-89464342D02*
X238404761Y-89559580D01*
X238404761Y-89559580D02*
X238357142Y-89607200D01*
X238357142Y-89607200D02*
X238261904Y-89654819D01*
X238261904Y-89654819D02*
X238119047Y-89654819D01*
X239023809Y-89654819D02*
X238928571Y-89607200D01*
X238928571Y-89607200D02*
X238880952Y-89511961D01*
X238880952Y-89511961D02*
X238880952Y-88654819D01*
X239785714Y-89607200D02*
X239690476Y-89654819D01*
X239690476Y-89654819D02*
X239500000Y-89654819D01*
X239500000Y-89654819D02*
X239404762Y-89607200D01*
X239404762Y-89607200D02*
X239357143Y-89511961D01*
X239357143Y-89511961D02*
X239357143Y-89131009D01*
X239357143Y-89131009D02*
X239404762Y-89035771D01*
X239404762Y-89035771D02*
X239500000Y-88988152D01*
X239500000Y-88988152D02*
X239690476Y-88988152D01*
X239690476Y-88988152D02*
X239785714Y-89035771D01*
X239785714Y-89035771D02*
X239833333Y-89131009D01*
X239833333Y-89131009D02*
X239833333Y-89226247D01*
X239833333Y-89226247D02*
X239357143Y-89321485D01*
X234238095Y-85454819D02*
X234238095Y-84454819D01*
X234238095Y-84931009D02*
X234809523Y-84931009D01*
X234809523Y-85454819D02*
X234809523Y-84454819D01*
X235714285Y-84788152D02*
X235714285Y-85454819D01*
X235476190Y-84407200D02*
X235238095Y-85121485D01*
X235238095Y-85121485D02*
X235857142Y-85121485D01*
X220954819Y-74928570D02*
X220954819Y-74309523D01*
X220954819Y-74309523D02*
X221335771Y-74642856D01*
X221335771Y-74642856D02*
X221335771Y-74499999D01*
X221335771Y-74499999D02*
X221383390Y-74404761D01*
X221383390Y-74404761D02*
X221431009Y-74357142D01*
X221431009Y-74357142D02*
X221526247Y-74309523D01*
X221526247Y-74309523D02*
X221764342Y-74309523D01*
X221764342Y-74309523D02*
X221859580Y-74357142D01*
X221859580Y-74357142D02*
X221907200Y-74404761D01*
X221907200Y-74404761D02*
X221954819Y-74499999D01*
X221954819Y-74499999D02*
X221954819Y-74785713D01*
X221954819Y-74785713D02*
X221907200Y-74880951D01*
X221907200Y-74880951D02*
X221859580Y-74928570D01*
X221859580Y-73880951D02*
X221907200Y-73833332D01*
X221907200Y-73833332D02*
X221954819Y-73880951D01*
X221954819Y-73880951D02*
X221907200Y-73928570D01*
X221907200Y-73928570D02*
X221859580Y-73880951D01*
X221859580Y-73880951D02*
X221954819Y-73880951D01*
X220954819Y-73499999D02*
X220954819Y-72880952D01*
X220954819Y-72880952D02*
X221335771Y-73214285D01*
X221335771Y-73214285D02*
X221335771Y-73071428D01*
X221335771Y-73071428D02*
X221383390Y-72976190D01*
X221383390Y-72976190D02*
X221431009Y-72928571D01*
X221431009Y-72928571D02*
X221526247Y-72880952D01*
X221526247Y-72880952D02*
X221764342Y-72880952D01*
X221764342Y-72880952D02*
X221859580Y-72928571D01*
X221859580Y-72928571D02*
X221907200Y-72976190D01*
X221907200Y-72976190D02*
X221954819Y-73071428D01*
X221954819Y-73071428D02*
X221954819Y-73357142D01*
X221954819Y-73357142D02*
X221907200Y-73452380D01*
X221907200Y-73452380D02*
X221859580Y-73499999D01*
X221288152Y-72023809D02*
X221954819Y-72023809D01*
X221288152Y-72452380D02*
X221811961Y-72452380D01*
X221811961Y-72452380D02*
X221907200Y-72404761D01*
X221907200Y-72404761D02*
X221954819Y-72309523D01*
X221954819Y-72309523D02*
X221954819Y-72166666D01*
X221954819Y-72166666D02*
X221907200Y-72071428D01*
X221907200Y-72071428D02*
X221859580Y-72023809D01*
X221431009Y-71214285D02*
X221431009Y-71547618D01*
X221954819Y-71547618D02*
X220954819Y-71547618D01*
X220954819Y-71547618D02*
X220954819Y-71071428D01*
X223359580Y-73166666D02*
X223407200Y-73214285D01*
X223407200Y-73214285D02*
X223454819Y-73357142D01*
X223454819Y-73357142D02*
X223454819Y-73452380D01*
X223454819Y-73452380D02*
X223407200Y-73595237D01*
X223407200Y-73595237D02*
X223311961Y-73690475D01*
X223311961Y-73690475D02*
X223216723Y-73738094D01*
X223216723Y-73738094D02*
X223026247Y-73785713D01*
X223026247Y-73785713D02*
X222883390Y-73785713D01*
X222883390Y-73785713D02*
X222692914Y-73738094D01*
X222692914Y-73738094D02*
X222597676Y-73690475D01*
X222597676Y-73690475D02*
X222502438Y-73595237D01*
X222502438Y-73595237D02*
X222454819Y-73452380D01*
X222454819Y-73452380D02*
X222454819Y-73357142D01*
X222454819Y-73357142D02*
X222502438Y-73214285D01*
X222502438Y-73214285D02*
X222550057Y-73166666D01*
X223454819Y-72214285D02*
X223454819Y-72785713D01*
X223454819Y-72499999D02*
X222454819Y-72499999D01*
X222454819Y-72499999D02*
X222597676Y-72595237D01*
X222597676Y-72595237D02*
X222692914Y-72690475D01*
X222692914Y-72690475D02*
X222740533Y-72785713D01*
X183766665Y-78359580D02*
X183719046Y-78407200D01*
X183719046Y-78407200D02*
X183576189Y-78454819D01*
X183576189Y-78454819D02*
X183480951Y-78454819D01*
X183480951Y-78454819D02*
X183338094Y-78407200D01*
X183338094Y-78407200D02*
X183242856Y-78311961D01*
X183242856Y-78311961D02*
X183195237Y-78216723D01*
X183195237Y-78216723D02*
X183147618Y-78026247D01*
X183147618Y-78026247D02*
X183147618Y-77883390D01*
X183147618Y-77883390D02*
X183195237Y-77692914D01*
X183195237Y-77692914D02*
X183242856Y-77597676D01*
X183242856Y-77597676D02*
X183338094Y-77502438D01*
X183338094Y-77502438D02*
X183480951Y-77454819D01*
X183480951Y-77454819D02*
X183576189Y-77454819D01*
X183576189Y-77454819D02*
X183719046Y-77502438D01*
X183719046Y-77502438D02*
X183766665Y-77550057D01*
X184338094Y-78454819D02*
X184242856Y-78407200D01*
X184242856Y-78407200D02*
X184195237Y-78359580D01*
X184195237Y-78359580D02*
X184147618Y-78264342D01*
X184147618Y-78264342D02*
X184147618Y-77978628D01*
X184147618Y-77978628D02*
X184195237Y-77883390D01*
X184195237Y-77883390D02*
X184242856Y-77835771D01*
X184242856Y-77835771D02*
X184338094Y-77788152D01*
X184338094Y-77788152D02*
X184480951Y-77788152D01*
X184480951Y-77788152D02*
X184576189Y-77835771D01*
X184576189Y-77835771D02*
X184623808Y-77883390D01*
X184623808Y-77883390D02*
X184671427Y-77978628D01*
X184671427Y-77978628D02*
X184671427Y-78264342D01*
X184671427Y-78264342D02*
X184623808Y-78359580D01*
X184623808Y-78359580D02*
X184576189Y-78407200D01*
X184576189Y-78407200D02*
X184480951Y-78454819D01*
X184480951Y-78454819D02*
X184338094Y-78454819D01*
X185099999Y-77788152D02*
X185099999Y-78454819D01*
X185099999Y-77883390D02*
X185147618Y-77835771D01*
X185147618Y-77835771D02*
X185242856Y-77788152D01*
X185242856Y-77788152D02*
X185385713Y-77788152D01*
X185385713Y-77788152D02*
X185480951Y-77835771D01*
X185480951Y-77835771D02*
X185528570Y-77931009D01*
X185528570Y-77931009D02*
X185528570Y-78454819D01*
X186004761Y-77788152D02*
X186004761Y-78454819D01*
X186004761Y-77883390D02*
X186052380Y-77835771D01*
X186052380Y-77835771D02*
X186147618Y-77788152D01*
X186147618Y-77788152D02*
X186290475Y-77788152D01*
X186290475Y-77788152D02*
X186385713Y-77835771D01*
X186385713Y-77835771D02*
X186433332Y-77931009D01*
X186433332Y-77931009D02*
X186433332Y-78454819D01*
X186671428Y-78550057D02*
X187433332Y-78550057D01*
X187957142Y-77454819D02*
X187957142Y-78169104D01*
X187957142Y-78169104D02*
X187909523Y-78311961D01*
X187909523Y-78311961D02*
X187814285Y-78407200D01*
X187814285Y-78407200D02*
X187671428Y-78454819D01*
X187671428Y-78454819D02*
X187576190Y-78454819D01*
X188814285Y-78407200D02*
X188719047Y-78454819D01*
X188719047Y-78454819D02*
X188528571Y-78454819D01*
X188528571Y-78454819D02*
X188433333Y-78407200D01*
X188433333Y-78407200D02*
X188385714Y-78311961D01*
X188385714Y-78311961D02*
X188385714Y-77931009D01*
X188385714Y-77931009D02*
X188433333Y-77835771D01*
X188433333Y-77835771D02*
X188528571Y-77788152D01*
X188528571Y-77788152D02*
X188719047Y-77788152D01*
X188719047Y-77788152D02*
X188814285Y-77835771D01*
X188814285Y-77835771D02*
X188861904Y-77931009D01*
X188861904Y-77931009D02*
X188861904Y-78026247D01*
X188861904Y-78026247D02*
X188385714Y-78121485D01*
X189147619Y-77788152D02*
X189528571Y-77788152D01*
X189290476Y-77454819D02*
X189290476Y-78311961D01*
X189290476Y-78311961D02*
X189338095Y-78407200D01*
X189338095Y-78407200D02*
X189433333Y-78454819D01*
X189433333Y-78454819D02*
X189528571Y-78454819D01*
X189814286Y-78407200D02*
X189909524Y-78454819D01*
X189909524Y-78454819D02*
X190100000Y-78454819D01*
X190100000Y-78454819D02*
X190195238Y-78407200D01*
X190195238Y-78407200D02*
X190242857Y-78311961D01*
X190242857Y-78311961D02*
X190242857Y-78264342D01*
X190242857Y-78264342D02*
X190195238Y-78169104D01*
X190195238Y-78169104D02*
X190100000Y-78121485D01*
X190100000Y-78121485D02*
X189957143Y-78121485D01*
X189957143Y-78121485D02*
X189861905Y-78073866D01*
X189861905Y-78073866D02*
X189814286Y-77978628D01*
X189814286Y-77978628D02*
X189814286Y-77931009D01*
X189814286Y-77931009D02*
X189861905Y-77835771D01*
X189861905Y-77835771D02*
X189957143Y-77788152D01*
X189957143Y-77788152D02*
X190100000Y-77788152D01*
X190100000Y-77788152D02*
X190195238Y-77835771D01*
X190814286Y-78454819D02*
X190719048Y-78407200D01*
X190719048Y-78407200D02*
X190671429Y-78359580D01*
X190671429Y-78359580D02*
X190623810Y-78264342D01*
X190623810Y-78264342D02*
X190623810Y-77978628D01*
X190623810Y-77978628D02*
X190671429Y-77883390D01*
X190671429Y-77883390D02*
X190719048Y-77835771D01*
X190719048Y-77835771D02*
X190814286Y-77788152D01*
X190814286Y-77788152D02*
X190957143Y-77788152D01*
X190957143Y-77788152D02*
X191052381Y-77835771D01*
X191052381Y-77835771D02*
X191100000Y-77883390D01*
X191100000Y-77883390D02*
X191147619Y-77978628D01*
X191147619Y-77978628D02*
X191147619Y-78264342D01*
X191147619Y-78264342D02*
X191100000Y-78359580D01*
X191100000Y-78359580D02*
X191052381Y-78407200D01*
X191052381Y-78407200D02*
X190957143Y-78454819D01*
X190957143Y-78454819D02*
X190814286Y-78454819D01*
X191576191Y-77788152D02*
X191576191Y-78454819D01*
X191576191Y-77883390D02*
X191623810Y-77835771D01*
X191623810Y-77835771D02*
X191719048Y-77788152D01*
X191719048Y-77788152D02*
X191861905Y-77788152D01*
X191861905Y-77788152D02*
X191957143Y-77835771D01*
X191957143Y-77835771D02*
X192004762Y-77931009D01*
X192004762Y-77931009D02*
X192004762Y-78454819D01*
X187266666Y-85054819D02*
X187266666Y-85769104D01*
X187266666Y-85769104D02*
X187219047Y-85911961D01*
X187219047Y-85911961D02*
X187123809Y-86007200D01*
X187123809Y-86007200D02*
X186980952Y-86054819D01*
X186980952Y-86054819D02*
X186885714Y-86054819D01*
X187695238Y-85150057D02*
X187742857Y-85102438D01*
X187742857Y-85102438D02*
X187838095Y-85054819D01*
X187838095Y-85054819D02*
X188076190Y-85054819D01*
X188076190Y-85054819D02*
X188171428Y-85102438D01*
X188171428Y-85102438D02*
X188219047Y-85150057D01*
X188219047Y-85150057D02*
X188266666Y-85245295D01*
X188266666Y-85245295D02*
X188266666Y-85340533D01*
X188266666Y-85340533D02*
X188219047Y-85483390D01*
X188219047Y-85483390D02*
X187647619Y-86054819D01*
X187647619Y-86054819D02*
X188266666Y-86054819D01*
X181876190Y-57359580D02*
X181828571Y-57407200D01*
X181828571Y-57407200D02*
X181685714Y-57454819D01*
X181685714Y-57454819D02*
X181590476Y-57454819D01*
X181590476Y-57454819D02*
X181447619Y-57407200D01*
X181447619Y-57407200D02*
X181352381Y-57311961D01*
X181352381Y-57311961D02*
X181304762Y-57216723D01*
X181304762Y-57216723D02*
X181257143Y-57026247D01*
X181257143Y-57026247D02*
X181257143Y-56883390D01*
X181257143Y-56883390D02*
X181304762Y-56692914D01*
X181304762Y-56692914D02*
X181352381Y-56597676D01*
X181352381Y-56597676D02*
X181447619Y-56502438D01*
X181447619Y-56502438D02*
X181590476Y-56454819D01*
X181590476Y-56454819D02*
X181685714Y-56454819D01*
X181685714Y-56454819D02*
X181828571Y-56502438D01*
X181828571Y-56502438D02*
X181876190Y-56550057D01*
X182447619Y-57454819D02*
X182352381Y-57407200D01*
X182352381Y-57407200D02*
X182304762Y-57359580D01*
X182304762Y-57359580D02*
X182257143Y-57264342D01*
X182257143Y-57264342D02*
X182257143Y-56978628D01*
X182257143Y-56978628D02*
X182304762Y-56883390D01*
X182304762Y-56883390D02*
X182352381Y-56835771D01*
X182352381Y-56835771D02*
X182447619Y-56788152D01*
X182447619Y-56788152D02*
X182590476Y-56788152D01*
X182590476Y-56788152D02*
X182685714Y-56835771D01*
X182685714Y-56835771D02*
X182733333Y-56883390D01*
X182733333Y-56883390D02*
X182780952Y-56978628D01*
X182780952Y-56978628D02*
X182780952Y-57264342D01*
X182780952Y-57264342D02*
X182733333Y-57359580D01*
X182733333Y-57359580D02*
X182685714Y-57407200D01*
X182685714Y-57407200D02*
X182590476Y-57454819D01*
X182590476Y-57454819D02*
X182447619Y-57454819D01*
X183209524Y-56788152D02*
X183209524Y-57454819D01*
X183209524Y-56883390D02*
X183257143Y-56835771D01*
X183257143Y-56835771D02*
X183352381Y-56788152D01*
X183352381Y-56788152D02*
X183495238Y-56788152D01*
X183495238Y-56788152D02*
X183590476Y-56835771D01*
X183590476Y-56835771D02*
X183638095Y-56931009D01*
X183638095Y-56931009D02*
X183638095Y-57454819D01*
X184114286Y-56788152D02*
X184114286Y-57454819D01*
X184114286Y-56883390D02*
X184161905Y-56835771D01*
X184161905Y-56835771D02*
X184257143Y-56788152D01*
X184257143Y-56788152D02*
X184400000Y-56788152D01*
X184400000Y-56788152D02*
X184495238Y-56835771D01*
X184495238Y-56835771D02*
X184542857Y-56931009D01*
X184542857Y-56931009D02*
X184542857Y-57454819D01*
X184780953Y-57550057D02*
X185542857Y-57550057D01*
X185780953Y-57454819D02*
X185780953Y-56454819D01*
X185780953Y-56454819D02*
X186114286Y-57169104D01*
X186114286Y-57169104D02*
X186447619Y-56454819D01*
X186447619Y-56454819D02*
X186447619Y-57454819D01*
X187352381Y-57454819D02*
X187352381Y-56931009D01*
X187352381Y-56931009D02*
X187304762Y-56835771D01*
X187304762Y-56835771D02*
X187209524Y-56788152D01*
X187209524Y-56788152D02*
X187019048Y-56788152D01*
X187019048Y-56788152D02*
X186923810Y-56835771D01*
X187352381Y-57407200D02*
X187257143Y-57454819D01*
X187257143Y-57454819D02*
X187019048Y-57454819D01*
X187019048Y-57454819D02*
X186923810Y-57407200D01*
X186923810Y-57407200D02*
X186876191Y-57311961D01*
X186876191Y-57311961D02*
X186876191Y-57216723D01*
X186876191Y-57216723D02*
X186923810Y-57121485D01*
X186923810Y-57121485D02*
X187019048Y-57073866D01*
X187019048Y-57073866D02*
X187257143Y-57073866D01*
X187257143Y-57073866D02*
X187352381Y-57026247D01*
X187828572Y-57454819D02*
X187828572Y-56788152D01*
X187828572Y-56454819D02*
X187780953Y-56502438D01*
X187780953Y-56502438D02*
X187828572Y-56550057D01*
X187828572Y-56550057D02*
X187876191Y-56502438D01*
X187876191Y-56502438D02*
X187828572Y-56454819D01*
X187828572Y-56454819D02*
X187828572Y-56550057D01*
X188304762Y-56788152D02*
X188304762Y-57454819D01*
X188304762Y-56883390D02*
X188352381Y-56835771D01*
X188352381Y-56835771D02*
X188447619Y-56788152D01*
X188447619Y-56788152D02*
X188590476Y-56788152D01*
X188590476Y-56788152D02*
X188685714Y-56835771D01*
X188685714Y-56835771D02*
X188733333Y-56931009D01*
X188733333Y-56931009D02*
X188733333Y-57454819D01*
X188971429Y-57550057D02*
X189733333Y-57550057D01*
X189971429Y-57454819D02*
X189971429Y-56454819D01*
X189971429Y-56454819D02*
X190209524Y-56454819D01*
X190209524Y-56454819D02*
X190352381Y-56502438D01*
X190352381Y-56502438D02*
X190447619Y-56597676D01*
X190447619Y-56597676D02*
X190495238Y-56692914D01*
X190495238Y-56692914D02*
X190542857Y-56883390D01*
X190542857Y-56883390D02*
X190542857Y-57026247D01*
X190542857Y-57026247D02*
X190495238Y-57216723D01*
X190495238Y-57216723D02*
X190447619Y-57311961D01*
X190447619Y-57311961D02*
X190352381Y-57407200D01*
X190352381Y-57407200D02*
X190209524Y-57454819D01*
X190209524Y-57454819D02*
X189971429Y-57454819D01*
X191542857Y-57359580D02*
X191495238Y-57407200D01*
X191495238Y-57407200D02*
X191352381Y-57454819D01*
X191352381Y-57454819D02*
X191257143Y-57454819D01*
X191257143Y-57454819D02*
X191114286Y-57407200D01*
X191114286Y-57407200D02*
X191019048Y-57311961D01*
X191019048Y-57311961D02*
X190971429Y-57216723D01*
X190971429Y-57216723D02*
X190923810Y-57026247D01*
X190923810Y-57026247D02*
X190923810Y-56883390D01*
X190923810Y-56883390D02*
X190971429Y-56692914D01*
X190971429Y-56692914D02*
X191019048Y-56597676D01*
X191019048Y-56597676D02*
X191114286Y-56502438D01*
X191114286Y-56502438D02*
X191257143Y-56454819D01*
X191257143Y-56454819D02*
X191352381Y-56454819D01*
X191352381Y-56454819D02*
X191495238Y-56502438D01*
X191495238Y-56502438D02*
X191542857Y-56550057D01*
X191971429Y-57454819D02*
X191971429Y-56454819D01*
X191971429Y-56454819D02*
X192209524Y-56454819D01*
X192209524Y-56454819D02*
X192352381Y-56502438D01*
X192352381Y-56502438D02*
X192447619Y-56597676D01*
X192447619Y-56597676D02*
X192495238Y-56692914D01*
X192495238Y-56692914D02*
X192542857Y-56883390D01*
X192542857Y-56883390D02*
X192542857Y-57026247D01*
X192542857Y-57026247D02*
X192495238Y-57216723D01*
X192495238Y-57216723D02*
X192447619Y-57311961D01*
X192447619Y-57311961D02*
X192352381Y-57407200D01*
X192352381Y-57407200D02*
X192209524Y-57454819D01*
X192209524Y-57454819D02*
X191971429Y-57454819D01*
X193542857Y-57359580D02*
X193495238Y-57407200D01*
X193495238Y-57407200D02*
X193352381Y-57454819D01*
X193352381Y-57454819D02*
X193257143Y-57454819D01*
X193257143Y-57454819D02*
X193114286Y-57407200D01*
X193114286Y-57407200D02*
X193019048Y-57311961D01*
X193019048Y-57311961D02*
X192971429Y-57216723D01*
X192971429Y-57216723D02*
X192923810Y-57026247D01*
X192923810Y-57026247D02*
X192923810Y-56883390D01*
X192923810Y-56883390D02*
X192971429Y-56692914D01*
X192971429Y-56692914D02*
X193019048Y-56597676D01*
X193019048Y-56597676D02*
X193114286Y-56502438D01*
X193114286Y-56502438D02*
X193257143Y-56454819D01*
X193257143Y-56454819D02*
X193352381Y-56454819D01*
X193352381Y-56454819D02*
X193495238Y-56502438D01*
X193495238Y-56502438D02*
X193542857Y-56550057D01*
X187066666Y-48854819D02*
X187066666Y-49569104D01*
X187066666Y-49569104D02*
X187019047Y-49711961D01*
X187019047Y-49711961D02*
X186923809Y-49807200D01*
X186923809Y-49807200D02*
X186780952Y-49854819D01*
X186780952Y-49854819D02*
X186685714Y-49854819D01*
X187971428Y-48854819D02*
X187780952Y-48854819D01*
X187780952Y-48854819D02*
X187685714Y-48902438D01*
X187685714Y-48902438D02*
X187638095Y-48950057D01*
X187638095Y-48950057D02*
X187542857Y-49092914D01*
X187542857Y-49092914D02*
X187495238Y-49283390D01*
X187495238Y-49283390D02*
X187495238Y-49664342D01*
X187495238Y-49664342D02*
X187542857Y-49759580D01*
X187542857Y-49759580D02*
X187590476Y-49807200D01*
X187590476Y-49807200D02*
X187685714Y-49854819D01*
X187685714Y-49854819D02*
X187876190Y-49854819D01*
X187876190Y-49854819D02*
X187971428Y-49807200D01*
X187971428Y-49807200D02*
X188019047Y-49759580D01*
X188019047Y-49759580D02*
X188066666Y-49664342D01*
X188066666Y-49664342D02*
X188066666Y-49426247D01*
X188066666Y-49426247D02*
X188019047Y-49331009D01*
X188019047Y-49331009D02*
X187971428Y-49283390D01*
X187971428Y-49283390D02*
X187876190Y-49235771D01*
X187876190Y-49235771D02*
X187685714Y-49235771D01*
X187685714Y-49235771D02*
X187590476Y-49283390D01*
X187590476Y-49283390D02*
X187542857Y-49331009D01*
X187542857Y-49331009D02*
X187495238Y-49426247D01*
D11*
%TO.C,R1*%
X197420000Y-62000000D02*
X199350000Y-62000000D01*
X199350000Y-60750000D02*
X199350000Y-63250000D01*
X199350000Y-63250000D02*
X205650000Y-63250000D01*
X205650000Y-60750000D02*
X199350000Y-60750000D01*
X205650000Y-63250000D02*
X205650000Y-60750000D01*
X207580000Y-62000000D02*
X205650000Y-62000000D01*
%TO.C,D1*%
X201166190Y-74770000D02*
X198833810Y-74770000D01*
X201166190Y-74770000D02*
G75*
G02*
X198834524Y-74769445I-1166190J-1500000D01*
G01*
X201500000Y-76270000D02*
G75*
G02*
X198500000Y-76270000I-1500000J0D01*
G01*
X198500000Y-76270000D02*
G75*
G02*
X201500000Y-76270000I1500000J0D01*
G01*
%TO.C,J7*%
X198850000Y-48000000D02*
X199550000Y-48000000D01*
X198850000Y-50000000D02*
X210150000Y-50000000D01*
X199550000Y-45950000D02*
X199550000Y-48000000D01*
X199550000Y-45950000D02*
X209450000Y-45950000D01*
X200080000Y-39950000D02*
X200080000Y-45950000D01*
X200080000Y-39950000D02*
X208920000Y-39950000D01*
X208920000Y-39950000D02*
X208920000Y-45950000D01*
X209450000Y-45950000D02*
X209450000Y-47950000D01*
X209450000Y-48000000D02*
X210150000Y-48000000D01*
X198850000Y-50000000D02*
G75*
G02*
X198850000Y-48000000I0J1000000D01*
G01*
X210150000Y-48000000D02*
G75*
G02*
X210150000Y-50000000I0J-1000000D01*
G01*
%TO.C,R2*%
X200000000Y-70500000D02*
X201930000Y-70500000D01*
X201930000Y-69250000D02*
X201930000Y-71750000D01*
X201930000Y-71750000D02*
X208230000Y-71750000D01*
X208230000Y-69250000D02*
X201930000Y-69250000D01*
X208230000Y-71750000D02*
X208230000Y-69250000D01*
X210160000Y-70500000D02*
X208230000Y-70500000D01*
%TO.C,J1*%
X213850000Y-48000000D02*
X214550000Y-48000000D01*
X213850000Y-50000000D02*
X225150000Y-50000000D01*
X214550000Y-45950000D02*
X214550000Y-48000000D01*
X214550000Y-45950000D02*
X224450000Y-45950000D01*
X215080000Y-39950000D02*
X215080000Y-45950000D01*
X215080000Y-39950000D02*
X223920000Y-39950000D01*
X223920000Y-39950000D02*
X223920000Y-45950000D01*
X224450000Y-45950000D02*
X224450000Y-47950000D01*
X224450000Y-48000000D02*
X225150000Y-48000000D01*
X213850000Y-50000000D02*
G75*
G02*
X213850000Y-48000000I0J1000000D01*
G01*
X225150000Y-48000000D02*
G75*
G02*
X225150000Y-50000000I0J-1000000D01*
G01*
%TO.C,J5*%
X235000000Y-66350000D02*
X235000000Y-77650000D01*
X237000000Y-66350000D02*
X237000000Y-67050000D01*
X237000000Y-76950000D02*
X237000000Y-77650000D01*
X239050000Y-67050000D02*
X237000000Y-67050000D01*
X239050000Y-67050000D02*
X239050000Y-76950000D01*
X239050000Y-76950000D02*
X237050000Y-76950000D01*
X245050000Y-67580000D02*
X239050000Y-67580000D01*
X245050000Y-67580000D02*
X245050000Y-76420000D01*
X245050000Y-76420000D02*
X239050000Y-76420000D01*
X235000000Y-66350000D02*
G75*
G02*
X237000000Y-66350000I1000000J0D01*
G01*
X237000000Y-77650000D02*
G75*
G02*
X235000000Y-77650000I-1000000J0D01*
G01*
%TO.C,Q2*%
X179700000Y-72500000D02*
X179700000Y-77000000D01*
X179700000Y-74000000D02*
X195200000Y-74000000D01*
X179700000Y-77000000D02*
X195200000Y-77000000D01*
X185850000Y-72500000D02*
X185850000Y-74000000D01*
X189050000Y-72500000D02*
X189050000Y-74000000D01*
X195200000Y-72500000D02*
X179700000Y-72500000D01*
X195200000Y-77000000D02*
X195200000Y-72500000D01*
%TO.C,C1*%
X220750000Y-69400000D02*
X220750000Y-76600000D01*
X220750000Y-76600000D02*
X225250000Y-76600000D01*
X225250000Y-69400000D02*
X220750000Y-69400000D01*
X225250000Y-76600000D02*
X225250000Y-69400000D01*
%TO.C,J2*%
X179850000Y-89650000D02*
X179850000Y-84150000D01*
X180700000Y-89650000D02*
X180700000Y-97350000D01*
X191350000Y-80150000D02*
X183850000Y-80150000D01*
X194500000Y-89650000D02*
X194500000Y-97350000D01*
X194500000Y-97350000D02*
X180700000Y-97350000D01*
X195350000Y-89650000D02*
X179850000Y-89650000D01*
X195350000Y-89650000D02*
X195350000Y-84150000D01*
X179850000Y-84150000D02*
G75*
G02*
X183850000Y-80150000I4000000J0D01*
G01*
X191385000Y-80115000D02*
G75*
G02*
X195350000Y-84150000I-35000J-4000000D01*
G01*
%TO.C,J6*%
X179650000Y-45350000D02*
X179650000Y-50850000D01*
X179650000Y-45350000D02*
X195150000Y-45350000D01*
X180500000Y-37650000D02*
X194300000Y-37650000D01*
X180500000Y-45350000D02*
X180500000Y-37650000D01*
X183650000Y-54850000D02*
X191150000Y-54850000D01*
X194300000Y-45350000D02*
X194300000Y-37650000D01*
X195150000Y-45350000D02*
X195150000Y-50850000D01*
X183615000Y-54885000D02*
G75*
G02*
X179650000Y-50850000I35000J4000000D01*
G01*
X195150000Y-50850000D02*
G75*
G02*
X191150000Y-54850000I-4000000J0D01*
G01*
%TD*%
M02*
