<?xml version="1.0" standalone="no"?>
 <!DOCTYPE svg PUBLIC "-//W3C//DTD SVG 1.1//EN" 
 "http://www.w3.org/Graphics/SVG/1.1/DTD/svg11.dtd"> 
<svg
  xmlns:svg="http://www.w3.org/2000/svg"
  xmlns="http://www.w3.org/2000/svg"
  xmlns:xlink="http://www.w3.org/1999/xlink"
  version="1.1"
  width="297.0022mm" height="210.0072mm" viewBox="0.0000 0.0000 297.0022 210.0072">
<title>SVG Image created as computer_sensor_board-F_Silkscreen.svg date 2024/11/04 00:55:24 </title>
  <desc>Image generated by PCBNEW </desc>
<g style="fill:#000000; fill-opacity:1.0000;stroke:#000000; stroke-opacity:1.0000;
stroke-linecap:round; stroke-linejoin:round;"
 transform="translate(0 0) scale(1 1)">
</g>
<g style="fill:none; 
stroke:#000000; stroke-width:0.1500; stroke-opacity:1; 
stroke-linecap:round; stroke-linejoin:round;">
<text x="207.5000" y="49.1500"
textLength="1.9643" font-size="1.3333" lengthAdjust="spacingAndGlyphs"
text-anchor="middle" opacity="0" stroke-opacity="0">J7</text>
<g class="stroked-text"><desc>J7</desc>
<path d="M207.1667 48.1048
L207.1667 48.8191
" />
<path d="M207.1667 48.8191
L207.1190 48.9620
" />
<path d="M207.1190 48.9620
L207.0238 49.0572
" />
<path d="M207.0238 49.0572
L206.8810 49.1048
" />
<path d="M206.8810 49.1048
L206.7857 49.1048
" />
<path d="M207.5476 48.1048
L208.2143 48.1048
" />
<path d="M208.2143 48.1048
L207.7857 49.1048
" />
</g><text x="213.0000" y="64.9000"
textLength="2.0071" font-size="2.0000" lengthAdjust="spacingAndGlyphs"
text-anchor="middle" opacity="0" stroke-opacity="0">+</text>
<g class="stroked-text"><desc>+</desc>
<path d="M212.4286 64.2647
L213.5714 64.2647
" />
<path d="M213.0000 64.8361
L213.0000 63.6933
" />
</g><text x="202.0000" y="64.9000"
textLength="2.0071" font-size="2.0000" lengthAdjust="spacingAndGlyphs"
text-anchor="middle" opacity="0" stroke-opacity="0">-</text>
<g class="stroked-text"><desc>-</desc>
<path d="M201.4286 64.2647
L202.5714 64.2647
" />
</g></g>
<g style="fill:none; 
stroke:#000000; stroke-width:0.1000; stroke-opacity:1; 
stroke-linecap:round; stroke-linejoin:round;">
<text x="203.9700" y="79.4900"
textLength="2.1000" font-size="1.3333" lengthAdjust="spacingAndGlyphs"
text-anchor="middle" opacity="0" stroke-opacity="0">U2</text>
<g class="stroked-text"><desc>U2</desc>
<path d="M203.2081 78.4474
L203.2081 79.2569
" />
<path d="M203.2081 79.2569
L203.2557 79.3522
" />
<path d="M203.2557 79.3522
L203.3033 79.3998
" />
<path d="M203.3033 79.3998
L203.3986 79.4474
" />
<path d="M203.3986 79.4474
L203.5890 79.4474
" />
<path d="M203.5890 79.4474
L203.6843 79.3998
" />
<path d="M203.6843 79.3998
L203.7319 79.3522
" />
<path d="M203.7319 79.3522
L203.7795 79.2569
" />
<path d="M203.7795 79.2569
L203.7795 78.4474
" />
<path d="M204.2081 78.5427
L204.2557 78.4950
" />
<path d="M204.2557 78.4950
L204.3510 78.4474
" />
<path d="M204.3510 78.4474
L204.5890 78.4474
" />
<path d="M204.5890 78.4474
L204.6843 78.4950
" />
<path d="M204.6843 78.4950
L204.7319 78.5427
" />
<path d="M204.7319 78.5427
L204.7795 78.6379
" />
<path d="M204.7795 78.6379
L204.7795 78.7331
" />
<path d="M204.7795 78.7331
L204.7319 78.8760
" />
<path d="M204.7319 78.8760
L204.1605 79.4474
" />
<path d="M204.1605 79.4474
L204.7795 79.4474
" />
</g></g>
<g style="fill:none; 
stroke:#000000; stroke-width:0.1500; stroke-opacity:1; 
stroke-linecap:round; stroke-linejoin:round;">
<text x="222.5000" y="49.1500"
textLength="1.9643" font-size="1.3333" lengthAdjust="spacingAndGlyphs"
text-anchor="middle" opacity="0" stroke-opacity="0">J5</text>
<g class="stroked-text"><desc>J5</desc>
<path d="M222.1667 48.1048
L222.1667 48.8191
" />
<path d="M222.1667 48.8191
L222.1190 48.9620
" />
<path d="M222.1190 48.9620
L222.0238 49.0572
" />
<path d="M222.0238 49.0572
L221.8810 49.1048
" />
<path d="M221.8810 49.1048
L221.7857 49.1048
" />
<path d="M223.1190 48.1048
L222.6429 48.1048
" />
<path d="M222.6429 48.1048
L222.5952 48.5810
" />
<path d="M222.5952 48.5810
L222.6429 48.5334
" />
<path d="M222.6429 48.5334
L222.7381 48.4858
" />
<path d="M222.7381 48.4858
L222.9762 48.4858
" />
<path d="M222.9762 48.4858
L223.0714 48.5334
" />
<path d="M223.0714 48.5334
L223.1190 48.5810
" />
<path d="M223.1190 48.5810
L223.1667 48.6762
" />
<path d="M223.1667 48.6762
L223.1667 48.9143
" />
<path d="M223.1667 48.9143
L223.1190 49.0096
" />
<path d="M223.1190 49.0096
L223.0714 49.0572
" />
<path d="M223.0714 49.0572
L222.9762 49.1048
" />
<path d="M222.9762 49.1048
L222.7381 49.1048
" />
<path d="M222.7381 49.1048
L222.6429 49.0572
" />
<path d="M222.6429 49.0572
L222.5952 49.0096
" />
</g><text x="217.0000" y="64.9000"
textLength="2.0071" font-size="2.0000" lengthAdjust="spacingAndGlyphs"
text-anchor="middle" opacity="0" stroke-opacity="0">-</text>
<g class="stroked-text"><desc>-</desc>
<path d="M216.4286 64.2647
L217.5714 64.2647
" />
</g><text x="228.0000" y="64.9000"
textLength="2.0071" font-size="2.0000" lengthAdjust="spacingAndGlyphs"
text-anchor="middle" opacity="0" stroke-opacity="0">+</text>
<g class="stroked-text"><desc>+</desc>
<path d="M227.4286 64.2647
L228.5714 64.2647
" />
<path d="M228.0000 64.8361
L228.0000 63.6933
" />
</g></g>
<g style="fill:none; 
stroke:#000000; stroke-width:0.1000; stroke-opacity:1; 
stroke-linecap:round; stroke-linejoin:round;">
<g transform="rotate(-90.000000 191.5000 74.0000)">
<text x="191.5000" y="74.5000"
textLength="9.1000" font-size="1.3333" lengthAdjust="spacingAndGlyphs"
text-anchor="middle" opacity="0" stroke-opacity="0">M78AR12-1</text>
</g>
<g class="stroked-text"><desc>M78AR12-1</desc>
<path d="M191.9574 78.2619
L190.9574 78.2619
" />
<path d="M190.9574 78.2619
L191.6717 77.9286
" />
<path d="M191.6717 77.9286
L190.9574 77.5952
" />
<path d="M190.9574 77.5952
L191.9574 77.5952
" />
<path d="M190.9574 77.2143
L190.9574 76.5476
" />
<path d="M190.9574 76.5476
L191.9574 76.9762
" />
<path d="M191.3860 76.0238
L191.3384 76.1190
" />
<path d="M191.3384 76.1190
L191.2908 76.1667
" />
<path d="M191.2908 76.1667
L191.1955 76.2143
" />
<path d="M191.1955 76.2143
L191.1479 76.2143
" />
<path d="M191.1479 76.2143
L191.0527 76.1667
" />
<path d="M191.0527 76.1667
L191.0050 76.1190
" />
<path d="M191.0050 76.1190
L190.9574 76.0238
" />
<path d="M190.9574 76.0238
L190.9574 75.8333
" />
<path d="M190.9574 75.8333
L191.0050 75.7381
" />
<path d="M191.0050 75.7381
L191.0527 75.6905
" />
<path d="M191.0527 75.6905
L191.1479 75.6429
" />
<path d="M191.1479 75.6429
L191.1955 75.6429
" />
<path d="M191.1955 75.6429
L191.2908 75.6905
" />
<path d="M191.2908 75.6905
L191.3384 75.7381
" />
<path d="M191.3384 75.7381
L191.3860 75.8333
" />
<path d="M191.3860 75.8333
L191.3860 76.0238
" />
<path d="M191.3860 76.0238
L191.4336 76.1190
" />
<path d="M191.4336 76.1190
L191.4812 76.1667
" />
<path d="M191.4812 76.1667
L191.5765 76.2143
" />
<path d="M191.5765 76.2143
L191.7669 76.2143
" />
<path d="M191.7669 76.2143
L191.8622 76.1667
" />
<path d="M191.8622 76.1667
L191.9098 76.1190
" />
<path d="M191.9098 76.1190
L191.9574 76.0238
" />
<path d="M191.9574 76.0238
L191.9574 75.8333
" />
<path d="M191.9574 75.8333
L191.9098 75.7381
" />
<path d="M191.9098 75.7381
L191.8622 75.6905
" />
<path d="M191.8622 75.6905
L191.7669 75.6429
" />
<path d="M191.7669 75.6429
L191.5765 75.6429
" />
<path d="M191.5765 75.6429
L191.4812 75.6905
" />
<path d="M191.4812 75.6905
L191.4336 75.7381
" />
<path d="M191.4336 75.7381
L191.3860 75.8333
" />
<path d="M191.6717 75.2619
L191.6717 74.7857
" />
<path d="M191.9574 75.3571
L190.9574 75.0238
" />
<path d="M190.9574 75.0238
L191.9574 74.6905
" />
<path d="M191.9574 73.7857
L191.4812 74.1190
" />
<path d="M191.9574 74.3571
L190.9574 74.3571
" />
<path d="M190.9574 74.3571
L190.9574 73.9762
" />
<path d="M190.9574 73.9762
L191.0050 73.8810
" />
<path d="M191.0050 73.8810
L191.0527 73.8333
" />
<path d="M191.0527 73.8333
L191.1479 73.7857
" />
<path d="M191.1479 73.7857
L191.2908 73.7857
" />
<path d="M191.2908 73.7857
L191.3860 73.8333
" />
<path d="M191.3860 73.8333
L191.4336 73.8810
" />
<path d="M191.4336 73.8810
L191.4812 73.9762
" />
<path d="M191.4812 73.9762
L191.4812 74.3571
" />
<path d="M191.9574 72.8333
L191.9574 73.4048
" />
<path d="M191.9574 73.1190
L190.9574 73.1190
" />
<path d="M190.9574 73.1190
L191.1003 73.2143
" />
<path d="M191.1003 73.2143
L191.1955 73.3095
" />
<path d="M191.1955 73.3095
L191.2431 73.4048
" />
<path d="M191.0527 72.4524
L191.0050 72.4048
" />
<path d="M191.0050 72.4048
L190.9574 72.3095
" />
<path d="M190.9574 72.3095
L190.9574 72.0714
" />
<path d="M190.9574 72.0714
L191.0050 71.9762
" />
<path d="M191.0050 71.9762
L191.0527 71.9286
" />
<path d="M191.0527 71.9286
L191.1479 71.8810
" />
<path d="M191.1479 71.8810
L191.2431 71.8810
" />
<path d="M191.2431 71.8810
L191.3860 71.9286
" />
<path d="M191.3860 71.9286
L191.9574 72.5000
" />
<path d="M191.9574 72.5000
L191.9574 71.8810
" />
<path d="M191.5765 71.4524
L191.5765 70.6905
" />
<path d="M191.9574 69.6905
L191.9574 70.2619
" />
<path d="M191.9574 69.9762
L190.9574 69.9762
" />
<path d="M190.9574 69.9762
L191.1003 70.0714
" />
<path d="M191.1003 70.0714
L191.1955 70.1667
" />
<path d="M191.1955 70.1667
L191.2431 70.2619
" />
</g><text x="220.9700" y="79.4900"
textLength="2.1000" font-size="1.3333" lengthAdjust="spacingAndGlyphs"
text-anchor="middle" opacity="0" stroke-opacity="0">U1</text>
<g class="stroked-text"><desc>U1</desc>
<path d="M220.2081 78.4474
L220.2081 79.2569
" />
<path d="M220.2081 79.2569
L220.2557 79.3522
" />
<path d="M220.2557 79.3522
L220.3033 79.3998
" />
<path d="M220.3033 79.3998
L220.3986 79.4474
" />
<path d="M220.3986 79.4474
L220.5890 79.4474
" />
<path d="M220.5890 79.4474
L220.6843 79.3998
" />
<path d="M220.6843 79.3998
L220.7319 79.3522
" />
<path d="M220.7319 79.3522
L220.7795 79.2569
" />
<path d="M220.7795 79.2569
L220.7795 78.4474
" />
<path d="M221.7795 79.4474
L221.2081 79.4474
" />
<path d="M221.4938 79.4474
L221.4938 78.4474
" />
<path d="M221.4938 78.4474
L221.3986 78.5903
" />
<path d="M221.3986 78.5903
L221.3033 78.6855
" />
<path d="M221.3033 78.6855
L221.2081 78.7331
" />
</g></g>
<g style="fill:none; 
stroke:#000000; stroke-width:0.1500; stroke-opacity:1; 
stroke-linecap:round; stroke-linejoin:round;">
<text x="187.5000" y="97.0000"
textLength="1.9643" font-size="1.3333" lengthAdjust="spacingAndGlyphs"
text-anchor="middle" opacity="0" stroke-opacity="0">J2</text>
<g class="stroked-text"><desc>J2</desc>
<path d="M187.1667 95.9548
L187.1667 96.6691
" />
<path d="M187.1667 96.6691
L187.1190 96.8120
" />
<path d="M187.1190 96.8120
L187.0238 96.9072
" />
<path d="M187.0238 96.9072
L186.8810 96.9548
" />
<path d="M186.8810 96.9548
L186.7857 96.9548
" />
<path d="M187.5952 96.0501
L187.6429 96.0024
" />
<path d="M187.6429 96.0024
L187.7381 95.9548
" />
<path d="M187.7381 95.9548
L187.9762 95.9548
" />
<path d="M187.9762 95.9548
L188.0714 96.0024
" />
<path d="M188.0714 96.0024
L188.1190 96.0501
" />
<path d="M188.1190 96.0501
L188.1667 96.1453
" />
<path d="M188.1667 96.1453
L188.1667 96.2405
" />
<path d="M188.1667 96.2405
L188.1190 96.3834
" />
<path d="M188.1190 96.3834
L187.5476 96.9548
" />
<path d="M187.5476 96.9548
L188.1667 96.9548
" />
</g><text x="182.0000" y="81.7500"
textLength="2.0071" font-size="2.0000" lengthAdjust="spacingAndGlyphs"
text-anchor="middle" opacity="0" stroke-opacity="0">+</text>
<g class="stroked-text"><desc>+</desc>
<path d="M181.4286 81.1147
L182.5714 81.1147
" />
<path d="M182.0000 81.6861
L182.0000 80.5433
" />
</g><text x="193.0000" y="81.7500"
textLength="2.0071" font-size="2.0000" lengthAdjust="spacingAndGlyphs"
text-anchor="middle" opacity="0" stroke-opacity="0">-</text>
<g class="stroked-text"><desc>-</desc>
<path d="M192.4286 81.1147
L193.5714 81.1147
" />
</g><text x="187.5000" y="49.0000"
textLength="1.9643" font-size="1.3333" lengthAdjust="spacingAndGlyphs"
text-anchor="middle" opacity="0" stroke-opacity="0">J6</text>
<g class="stroked-text"><desc>J6</desc>
<path d="M187.1667 47.9548
L187.1667 48.6691
" />
<path d="M187.1667 48.6691
L187.1190 48.8120
" />
<path d="M187.1190 48.8120
L187.0238 48.9072
" />
<path d="M187.0238 48.9072
L186.8810 48.9548
" />
<path d="M186.8810 48.9548
L186.7857 48.9548
" />
<path d="M188.0714 47.9548
L187.8810 47.9548
" />
<path d="M187.8810 47.9548
L187.7857 48.0024
" />
<path d="M187.7857 48.0024
L187.7381 48.0501
" />
<path d="M187.7381 48.0501
L187.6429 48.1929
" />
<path d="M187.6429 48.1929
L187.5952 48.3834
" />
<path d="M187.5952 48.3834
L187.5952 48.7643
" />
<path d="M187.5952 48.7643
L187.6429 48.8596
" />
<path d="M187.6429 48.8596
L187.6905 48.9072
" />
<path d="M187.6905 48.9072
L187.7857 48.9548
" />
<path d="M187.7857 48.9548
L187.9762 48.9548
" />
<path d="M187.9762 48.9548
L188.0714 48.9072
" />
<path d="M188.0714 48.9072
L188.1190 48.8596
" />
<path d="M188.1190 48.8596
L188.1667 48.7643
" />
<path d="M188.1667 48.7643
L188.1667 48.5262
" />
<path d="M188.1667 48.5262
L188.1190 48.4310
" />
<path d="M188.1190 48.4310
L188.0714 48.3834
" />
<path d="M188.0714 48.3834
L187.9762 48.3358
" />
<path d="M187.9762 48.3358
L187.7857 48.3358
" />
<path d="M187.7857 48.3358
L187.6905 48.3834
" />
<path d="M187.6905 48.3834
L187.6429 48.4310
" />
<path d="M187.6429 48.4310
L187.5952 48.5262
" />
</g><text x="193.0000" y="64.7500"
textLength="2.0071" font-size="2.0000" lengthAdjust="spacingAndGlyphs"
text-anchor="middle" opacity="0" stroke-opacity="0">+</text>
<g class="stroked-text"><desc>+</desc>
<path d="M192.4286 64.1147
L193.5714 64.1147
" />
<path d="M193.0000 64.6861
L193.0000 63.5433
" />
</g><text x="182.0000" y="64.7500"
textLength="2.0071" font-size="2.0000" lengthAdjust="spacingAndGlyphs"
text-anchor="middle" opacity="0" stroke-opacity="0">-</text>
<g class="stroked-text"><desc>-</desc>
<path d="M181.4286 64.1147
L182.5714 64.1147
" />
</g></g>
<g style="fill:none; 
stroke:#000000; stroke-width:0.1200; stroke-opacity:1; 
stroke-linecap:round; stroke-linejoin:round;">
<path d="M201.7400 58.0400
L202.4400 58.0400
" />
<path d="M201.7400 60.2600
L213.2600 60.2600
" />
<path d="M202.4400 55.9900
L202.4400 58.0400
" />
<path d="M202.4400 55.9900
L202.9700 55.9900
" />
<path d="M202.9700 49.9900
L202.9700 55.9900
" />
<path d="M202.9700 49.9900
L212.0000 49.9900
" />
<path d="M212.0300 49.9900
L212.0300 55.9900
" />
<path d="M212.0300 55.9900
L212.5600 55.9900
" />
<path d="M212.5600 55.9900
L212.5600 58.0400
" />
<path d="M212.5600 58.0400
L213.2600 58.0400
" />
<path d="M201.8500 58.0400 A1.1100 1.1100 0.0 0 0 201.6783 60.2466" />
<path d="M213.1500 60.2600 A1.1100 1.1100 0.0 0 0 213.1500 58.0400" />
<path d="M216.7400 58.0400
L217.4400 58.0400
" />
<path d="M216.7400 60.2600
L228.2600 60.2600
" />
<path d="M217.4400 55.9900
L217.4400 58.0400
" />
<path d="M217.4400 55.9900
L217.9700 55.9900
" />
<path d="M217.9700 49.9900
L217.9700 55.9900
" />
<path d="M217.9700 49.9900
L227.0000 49.9900
" />
<path d="M227.0300 49.9900
L227.0300 55.9900
" />
<path d="M227.0300 55.9900
L227.5600 55.9900
" />
<path d="M227.5600 55.9900
L227.5600 58.0400
" />
<path d="M227.5600 58.0400
L228.2600 58.0400
" />
<path d="M216.8500 58.0400 A1.1100 1.1100 0.0 0 0 216.6783 60.2466" />
<path d="M228.1500 60.2600 A1.1100 1.1100 0.0 0 0 228.1500 58.0400" />
<path style="fill:none; 
stroke:#000000; stroke-width:0.1000; stroke-opacity:1; 
stroke-linecap:round; stroke-linejoin:round;fill:none"
d="M 195.5000,79.7500
203.0500,79.7500
203.0500,68.2500
195.5000,68.2500
Z" /> 
</g>
<g style="fill:none; 
stroke:#000000; stroke-width:0.1200; stroke-opacity:1; 
stroke-linecap:round; stroke-linejoin:round;">
<path d="M182.4400 87.1100
L181.7400 87.1100
" />
<path d="M182.4400 89.1600
L182.4400 87.1100
" />
<path d="M182.9700 89.1600
L182.4400 89.1600
" />
<path d="M182.9700 95.1600
L182.9700 89.1600
" />
<path d="M192.0300 95.1600
L183.0000 95.1600
" />
<path d="M192.0300 95.1600
L192.0300 89.1600
" />
<path d="M192.5600 89.1600
L192.0300 89.1600
" />
<path d="M192.5600 89.1600
L192.5600 87.1100
" />
<path d="M193.2600 84.8900
L181.7400 84.8900
" />
<path d="M193.2600 87.1100
L192.5600 87.1100
" />
<path d="M181.8500 84.8900 A1.1100 1.1100 0.0 0 0 181.8500 87.1100" />
<path d="M193.1500 87.1100 A1.1100 1.1100 0.0 0 0 193.3217 84.9034" />
<path d="M181.7400 57.8900
L182.4400 57.8900
" />
<path d="M181.7400 60.1100
L193.2600 60.1100
" />
<path d="M182.4400 55.8400
L182.4400 57.8900
" />
<path d="M182.4400 55.8400
L182.9700 55.8400
" />
<path d="M182.9700 49.8400
L182.9700 55.8400
" />
<path d="M182.9700 49.8400
L192.0000 49.8400
" />
<path d="M192.0300 49.8400
L192.0300 55.8400
" />
<path d="M192.0300 55.8400
L192.5600 55.8400
" />
<path d="M192.5600 55.8400
L192.5600 57.8900
" />
<path d="M192.5600 57.8900
L193.2600 57.8900
" />
<path d="M181.8500 57.8900 A1.1100 1.1100 0.0 0 0 181.6783 60.0966" />
<path d="M193.1500 60.1100 A1.1100 1.1100 0.0 0 0 193.1500 57.8900" />
</g> 
</svg>
