<?xml version="1.0" standalone="no"?>
 <!DOCTYPE svg PUBLIC "-//W3C//DTD SVG 1.1//EN" 
 "http://www.w3.org/Graphics/SVG/1.1/DTD/svg11.dtd"> 
<svg
  xmlns:svg="http://www.w3.org/2000/svg"
  xmlns="http://www.w3.org/2000/svg"
  xmlns:xlink="http://www.w3.org/1999/xlink"
  version="1.1"
  width="297.0022mm" height="210.0072mm" viewBox="0.0000 0.0000 297.0022 210.0072">
<title>SVG Image created as computer_sensor_board-F_Cu.svg date 2024/12/03 16:17:43 </title>
  <desc>Image generated by PCBNEW </desc>
<g style="fill:#000000; fill-opacity:1.0000;stroke:#000000; stroke-opacity:1.0000;
stroke-linecap:round; stroke-linejoin:round;"
 transform="translate(0 0) scale(1 1)">
</g>
<g style="fill:#000000; fill-opacity:1.0000; stroke:none;">
<circle cx="202.0000" cy="59.1500" r="0.7000" /> 
</g>
<g style="fill:#000000; fill-opacity:1.0000; stroke:none;">
<circle cx="213.0000" cy="59.1500" r="0.7000" /> 
<path style="fill:#000000; fill-opacity:1.0000; stroke:none;fill-rule:evenodd;"
d="M 203.2500,65.9000
203.2500,62.4000
206.7500,62.4000
206.7500,65.9000
Z" /> 
</g>
<g style="fill:#000000; fill-opacity:1.0000; stroke:none;">
<circle cx="210.0000" cy="64.1500" r="1.7500" /> 
</g>
<g style="fill:#000000; fill-opacity:1.0000; stroke:none;">
<circle cx="197.0160" cy="76.5800" r="0.7620" /> 
</g>
<g style="fill:#000000; fill-opacity:1.0000; stroke:none;">
<circle cx="197.0160" cy="74.0400" r="0.7620" /> 
</g>
<g style="fill:#000000; fill-opacity:1.0000; stroke:none;">
<circle cx="197.0160" cy="71.5000" r="0.7620" /> 
</g>
<g style="fill:#000000; fill-opacity:1.0000; stroke:none;">
<circle cx="197.4600" cy="87.2000" r="1.5500" /> 
</g>
<g style="fill:#000000; fill-opacity:1.0000; stroke:none;">
<circle cx="210.5400" cy="87.2000" r="1.5500" /> 
</g>
<g style="fill:#000000; fill-opacity:1.0000; stroke:none;">
<circle cx="200.5000" cy="84.5000" r="0.8600" /> 
</g>
<g style="fill:#000000; fill-opacity:1.0000; stroke:none;">
<circle cx="203.0000" cy="84.5000" r="0.8600" /> 
</g>
<g style="fill:#000000; fill-opacity:1.0000; stroke:none;">
<circle cx="205.0000" cy="84.5000" r="0.8600" /> 
</g>
<g style="fill:#000000; fill-opacity:1.0000; stroke:none;">
<circle cx="207.5000" cy="84.5000" r="0.8600" /> 
</g>
<g style="fill:#000000; fill-opacity:1.0000; stroke:none;">
<circle cx="217.0000" cy="59.1500" r="0.7000" /> 
</g>
<g style="fill:#000000; fill-opacity:1.0000; stroke:none;">
<circle cx="228.0000" cy="59.1500" r="0.7000" /> 
<path style="fill:#000000; fill-opacity:1.0000; stroke:none;fill-rule:evenodd;"
d="M 218.2500,65.9000
218.2500,62.4000
221.7500,62.4000
221.7500,65.9000
Z" /> 
</g>
<g style="fill:#000000; fill-opacity:1.0000; stroke:none;">
<circle cx="225.0000" cy="64.1500" r="1.7500" /> 
</g>
<g style="fill:#000000; fill-opacity:1.0000; stroke:none;">
<circle cx="214.4600" cy="87.2000" r="1.5500" /> 
</g>
<g style="fill:#000000; fill-opacity:1.0000; stroke:none;">
<circle cx="227.5400" cy="87.2000" r="1.5500" /> 
</g>
<g style="fill:#000000; fill-opacity:1.0000; stroke:none;">
<circle cx="217.5000" cy="84.5000" r="0.8600" /> 
</g>
<g style="fill:#000000; fill-opacity:1.0000; stroke:none;">
<circle cx="220.0000" cy="84.5000" r="0.8600" /> 
</g>
<g style="fill:#000000; fill-opacity:1.0000; stroke:none;">
<circle cx="222.0000" cy="84.5000" r="0.8600" /> 
</g>
<g style="fill:#000000; fill-opacity:1.0000; stroke:none;">
<circle cx="224.5000" cy="84.5000" r="0.8600" /> 
</g>
<g style="fill:#000000; fill-opacity:1.0000; stroke:none;">
<circle cx="207.5000" cy="71.5000" r="0.8000" /> 
</g>
<g style="fill:#000000; fill-opacity:1.0000; stroke:none;">
<circle cx="207.5000" cy="76.5000" r="0.8000" /> 
</g>
<g style="fill:#000000; fill-opacity:1.0000; stroke:none;">
<circle cx="193.0000" cy="86.0000" r="0.7000" /> 
</g>
<g style="fill:#000000; fill-opacity:1.0000; stroke:none;">
<circle cx="182.0000" cy="86.0000" r="0.7000" /> 
<path style="fill:#000000; fill-opacity:1.0000; stroke:none;fill-rule:evenodd;"
d="M 191.7500,79.2500
191.7500,82.7500
188.2500,82.7500
188.2500,79.2500
Z" /> 
</g>
<g style="fill:#000000; fill-opacity:1.0000; stroke:none;">
<circle cx="185.0000" cy="81.0000" r="1.7500" /> 
</g>
<g style="fill:#000000; fill-opacity:1.0000; stroke:none;">
<circle cx="182.0000" cy="59.0000" r="0.7000" /> 
</g>
<g style="fill:#000000; fill-opacity:1.0000; stroke:none;">
<circle cx="193.0000" cy="59.0000" r="0.7000" /> 
<path style="fill:#000000; fill-opacity:1.0000; stroke:none;fill-rule:evenodd;"
d="M 183.2500,65.7500
183.2500,62.2500
186.7500,62.2500
186.7500,65.7500
Z" /> 
</g>
<g style="fill:#000000; fill-opacity:1.0000; stroke:none;">
<circle cx="190.0000" cy="64.0000" r="1.7500" /> 
</g>
<g style="fill:none; 
stroke:#000000; stroke-width:1.0000; stroke-opacity:1; 
stroke-linecap:round; stroke-linejoin:round;">
<path d="M210.0000 72.0000
L217.1500 72.0000
" />
<path d="M207.9600 74.0400
L210.0000 72.0000
" />
<path d="M210.0000 72.0000
L210.0000 64.1500
" />
<path d="M207.5000 76.5000
L207.5000 84.5000
" />
<path d="M205.0400 74.0400
L207.9600 74.0400
" />
<path d="M205.0400 74.0400
L207.5000 76.5000
" />
<path d="M217.1500 72.0000
L225.0000 64.1500
" />
<path d="M224.5000 84.5000
L224.5000 79.3500
" />
<path d="M224.5000 79.3500
L217.1500 72.0000
" />
<path d="M197.0160 74.0400
L205.0400 74.0400
" />
<path d="M205.0000 59.0000
L205.0000 64.1500
" />
<path d="M218.0000 57.0000
L207.0000 57.0000
" />
<path d="M220.0000 64.1500
L220.0000 59.0000
" />
</g>
<g style="fill:none; 
stroke:#000000; stroke-width:2.0000; stroke-opacity:1; 
stroke-linecap:round; stroke-linejoin:round;">
<path d="M203.0000 69.0000
L187.5000 69.0000
" />
</g>
<g style="fill:none; 
stroke:#000000; stroke-width:3.0000; stroke-opacity:1; 
stroke-linecap:round; stroke-linejoin:round;">
<path d="M197.0160 76.5800
L190.0800 76.5800
" />
</g>
<g style="fill:none; 
stroke:#000000; stroke-width:0.2000; stroke-opacity:1; 
stroke-linecap:round; stroke-linejoin:round;">
<path d="M190.0800 76.5800
L190.0000 76.5000
" />
</g>
<g style="fill:none; 
stroke:#000000; stroke-width:1.0000; stroke-opacity:1; 
stroke-linecap:round; stroke-linejoin:round;">
<path d="M207.0000 57.0000
L205.0000 59.0000
" />
</g>
<g style="fill:none; 
stroke:#000000; stroke-width:5.0000; stroke-opacity:1; 
stroke-linecap:round; stroke-linejoin:round;">
<path d="M185.0000 64.0000
L185.0000 71.5000
" />
</g>
<g style="fill:none; 
stroke:#000000; stroke-width:1.0000; stroke-opacity:1; 
stroke-linecap:round; stroke-linejoin:round;">
<path d="M220.0000 59.0000
L218.0000 57.0000
" />
</g>
<g style="fill:none; 
stroke:#000000; stroke-width:5.0000; stroke-opacity:1; 
stroke-linecap:round; stroke-linejoin:round;">
<path d="M185.0000 71.5000
L190.0000 76.5000
" />
<path d="M190.0000 76.5000
L190.0000 81.0000
" />
</g>
<g style="fill:none; 
stroke:#000000; stroke-width:2.0000; stroke-opacity:1; 
stroke-linecap:round; stroke-linejoin:round;">
<path d="M205.0000 67.0000
L203.0000 69.0000
" />
<path d="M205.0000 64.1500
L205.0000 67.0000
" />
</g>
<g style="fill:none; 
stroke:#000000; stroke-width:0.2000; stroke-opacity:1; 
stroke-linecap:round; stroke-linejoin:round;">
<path d="M187.5000 69.0000
L185.0000 71.5000
" />
</g>
<g style="fill:none; 
stroke:#000000; stroke-width:1.0000; stroke-opacity:1; 
stroke-linecap:round; stroke-linejoin:round;">
<path d="M197.0160 71.5000
L207.5000 71.5000
" />
</g>
<g style="fill:#FFFFFF; fill-opacity:1.0000; stroke:none;">
<circle cx="175.0000" cy="60.0000" r="1.6000" /> 
</g>
<g style="fill:#FFFFFF; fill-opacity:1.0000; stroke:none;">
<circle cx="235.0000" cy="60.0000" r="1.6000" /> 
</g>
<g style="fill:#FFFFFF; fill-opacity:1.0000; stroke:none;">
<circle cx="202.0000" cy="59.1500" r="0.5000" /> 
</g>
<g style="fill:#FFFFFF; fill-opacity:1.0000; stroke:none;">
<circle cx="213.0000" cy="59.1500" r="0.5000" /> 
</g>
<g style="fill:#FFFFFF; fill-opacity:1.0000; stroke:none;">
<circle cx="205.0000" cy="64.1500" r="0.9500" /> 
</g>
<g style="fill:#FFFFFF; fill-opacity:1.0000; stroke:none;">
<circle cx="210.0000" cy="64.1500" r="0.9500" /> 
</g>
<g style="fill:#FFFFFF; fill-opacity:1.0000; stroke:none;">
<circle cx="197.0160" cy="76.5800" r="0.3810" /> 
</g>
<g style="fill:#FFFFFF; fill-opacity:1.0000; stroke:none;">
<circle cx="197.0160" cy="74.0400" r="0.3810" /> 
</g>
<g style="fill:#FFFFFF; fill-opacity:1.0000; stroke:none;">
<circle cx="197.0160" cy="71.5000" r="0.3810" /> 
</g>
<g style="fill:#FFFFFF; fill-opacity:1.0000; stroke:none;">
<circle cx="197.4600" cy="87.2000" r="1.1500" /> 
</g>
<g style="fill:#FFFFFF; fill-opacity:1.0000; stroke:none;">
<circle cx="210.5400" cy="87.2000" r="1.1500" /> 
</g>
<g style="fill:#FFFFFF; fill-opacity:1.0000; stroke:none;">
<circle cx="200.5000" cy="84.5000" r="0.4600" /> 
</g>
<g style="fill:#FFFFFF; fill-opacity:1.0000; stroke:none;">
<circle cx="203.0000" cy="84.5000" r="0.4600" /> 
</g>
<g style="fill:#FFFFFF; fill-opacity:1.0000; stroke:none;">
<circle cx="205.0000" cy="84.5000" r="0.4600" /> 
</g>
<g style="fill:#FFFFFF; fill-opacity:1.0000; stroke:none;">
<circle cx="207.5000" cy="84.5000" r="0.4600" /> 
</g>
<g style="fill:#FFFFFF; fill-opacity:1.0000; stroke:none;">
<circle cx="217.0000" cy="59.1500" r="0.5000" /> 
</g>
<g style="fill:#FFFFFF; fill-opacity:1.0000; stroke:none;">
<circle cx="228.0000" cy="59.1500" r="0.5000" /> 
</g>
<g style="fill:#FFFFFF; fill-opacity:1.0000; stroke:none;">
<circle cx="220.0000" cy="64.1500" r="0.9500" /> 
</g>
<g style="fill:#FFFFFF; fill-opacity:1.0000; stroke:none;">
<circle cx="225.0000" cy="64.1500" r="0.9500" /> 
</g>
<g style="fill:#FFFFFF; fill-opacity:1.0000; stroke:none;">
<circle cx="175.0000" cy="85.0000" r="1.6000" /> 
</g>
<g style="fill:#FFFFFF; fill-opacity:1.0000; stroke:none;">
<circle cx="214.4600" cy="87.2000" r="1.1500" /> 
</g>
<g style="fill:#FFFFFF; fill-opacity:1.0000; stroke:none;">
<circle cx="227.5400" cy="87.2000" r="1.1500" /> 
</g>
<g style="fill:#FFFFFF; fill-opacity:1.0000; stroke:none;">
<circle cx="217.5000" cy="84.5000" r="0.4600" /> 
</g>
<g style="fill:#FFFFFF; fill-opacity:1.0000; stroke:none;">
<circle cx="220.0000" cy="84.5000" r="0.4600" /> 
</g>
<g style="fill:#FFFFFF; fill-opacity:1.0000; stroke:none;">
<circle cx="222.0000" cy="84.5000" r="0.4600" /> 
</g>
<g style="fill:#FFFFFF; fill-opacity:1.0000; stroke:none;">
<circle cx="224.5000" cy="84.5000" r="0.4600" /> 
</g>
<g style="fill:#FFFFFF; fill-opacity:1.0000; stroke:none;">
<circle cx="235.0000" cy="85.0000" r="1.6000" /> 
</g>
<g style="fill:#FFFFFF; fill-opacity:1.0000; stroke:none;">
<circle cx="207.5000" cy="71.5000" r="0.4000" /> 
</g>
<g style="fill:#FFFFFF; fill-opacity:1.0000; stroke:none;">
<circle cx="207.5000" cy="76.5000" r="0.4000" /> 
</g>
<g style="fill:#FFFFFF; fill-opacity:1.0000; stroke:none;">
<circle cx="193.0000" cy="86.0000" r="0.5000" /> 
</g>
<g style="fill:#FFFFFF; fill-opacity:1.0000; stroke:none;">
<circle cx="182.0000" cy="86.0000" r="0.5000" /> 
</g>
<g style="fill:#FFFFFF; fill-opacity:1.0000; stroke:none;">
<circle cx="190.0000" cy="81.0000" r="0.9500" /> 
</g>
<g style="fill:#FFFFFF; fill-opacity:1.0000; stroke:none;">
<circle cx="185.0000" cy="81.0000" r="0.9500" /> 
</g>
<g style="fill:#FFFFFF; fill-opacity:1.0000; stroke:none;">
<circle cx="182.0000" cy="59.0000" r="0.5000" /> 
</g>
<g style="fill:#FFFFFF; fill-opacity:1.0000; stroke:none;">
<circle cx="193.0000" cy="59.0000" r="0.5000" /> 
</g>
<g style="fill:#FFFFFF; fill-opacity:1.0000; stroke:none;">
<circle cx="185.0000" cy="64.0000" r="0.9500" /> 
</g>
<g style="fill:#FFFFFF; fill-opacity:1.0000; stroke:none;">
<circle cx="190.0000" cy="64.0000" r="0.9500" /> 
</g> 
</svg>
