<?xml version="1.0" standalone="no"?>
 <!DOCTYPE svg PUBLIC "-//W3C//DTD SVG 1.1//EN" 
 "http://www.w3.org/Graphics/SVG/1.1/DTD/svg11.dtd"> 
<svg
  xmlns:svg="http://www.w3.org/2000/svg"
  xmlns="http://www.w3.org/2000/svg"
  xmlns:xlink="http://www.w3.org/1999/xlink"
  version="1.1"
  width="297.0022mm" height="210.0072mm" viewBox="0.0000 0.0000 297.0022 210.0072">
<title>SVG Image created as computer_sensor_board-F_Silkscreen.svg date 2025/03/06 10:02:01 </title>
  <desc>Image generated by PCBNEW </desc>
<g style="fill:#000000; fill-opacity:1.0000;stroke:#000000; stroke-opacity:1.0000;
stroke-linecap:round; stroke-linejoin:round;"
 transform="translate(0 0) scale(1 1)">
</g>
<g style="fill:none; 
stroke:#000000; stroke-width:0.1500; stroke-opacity:1; 
stroke-linecap:round; stroke-linejoin:round;">
<text x="202.5000" y="60.1300"
textLength="2.2024" font-size="1.3333" lengthAdjust="spacingAndGlyphs"
text-anchor="middle" opacity="0" stroke-opacity="0">R1</text>
<g class="stroked-text"><desc>R1</desc>
<path d="M202.3333 60.0848
L202.0000 59.6086
" />
<path d="M201.7619 60.0848
L201.7619 59.0848
" />
<path d="M201.7619 59.0848
L202.1429 59.0848
" />
<path d="M202.1429 59.0848
L202.2381 59.1324
" />
<path d="M202.2381 59.1324
L202.2857 59.1801
" />
<path d="M202.2857 59.1801
L202.3333 59.2753
" />
<path d="M202.3333 59.2753
L202.3333 59.4182
" />
<path d="M202.3333 59.4182
L202.2857 59.5134
" />
<path d="M202.2857 59.5134
L202.2381 59.5610
" />
<path d="M202.2381 59.5610
L202.1429 59.6086
" />
<path d="M202.1429 59.6086
L201.7619 59.6086
" />
<path d="M203.2857 60.0848
L202.7143 60.0848
" />
<path d="M203.0000 60.0848
L203.0000 59.0848
" />
<path d="M203.0000 59.0848
L202.9048 59.2277
" />
<path d="M202.9048 59.2277
L202.8095 59.3229
" />
<path d="M202.8095 59.3229
L202.7143 59.3705
" />
</g><text x="175.0000" y="46.3000"
textLength="2.2500" font-size="1.3333" lengthAdjust="spacingAndGlyphs"
text-anchor="middle" opacity="0" stroke-opacity="0">H1</text>
<g class="stroked-text"><desc>H1</desc>
<path d="M174.2381 46.2548
L174.2381 45.2548
" />
<path d="M174.2381 45.7310
L174.8095 45.7310
" />
<path d="M174.8095 46.2548
L174.8095 45.2548
" />
<path d="M175.8095 46.2548
L175.2381 46.2548
" />
<path d="M175.5238 46.2548
L175.5238 45.2548
" />
<path d="M175.5238 45.2548
L175.4286 45.3977
" />
<path d="M175.4286 45.3977
L175.3333 45.4929
" />
<path d="M175.3333 45.4929
L175.2381 45.5405
" />
</g><g transform="rotate(-90.000000 202.9600 76.2700)">
<text x="202.9600" y="76.7700"
textLength="2.2024" font-size="1.3333" lengthAdjust="spacingAndGlyphs"
text-anchor="middle" opacity="0" stroke-opacity="0">D1</text>
</g>
<g class="stroked-text"><desc>D1</desc>
<path d="M203.4148 77.0081
L202.4148 77.0081
" />
<path d="M202.4148 77.0081
L202.4148 76.7700
" />
<path d="M202.4148 76.7700
L202.4624 76.6271
" />
<path d="M202.4624 76.6271
L202.5577 76.5319
" />
<path d="M202.5577 76.5319
L202.6529 76.4843
" />
<path d="M202.6529 76.4843
L202.8434 76.4367
" />
<path d="M202.8434 76.4367
L202.9862 76.4367
" />
<path d="M202.9862 76.4367
L203.1767 76.4843
" />
<path d="M203.1767 76.4843
L203.2720 76.5319
" />
<path d="M203.2720 76.5319
L203.3672 76.6271
" />
<path d="M203.3672 76.6271
L203.4148 76.7700
" />
<path d="M203.4148 76.7700
L203.4148 77.0081
" />
<path d="M203.4148 75.4843
L203.4148 76.0557
" />
<path d="M203.4148 75.7700
L202.4148 75.7700
" />
<path d="M202.4148 75.7700
L202.5577 75.8652
" />
<path d="M202.5577 75.8652
L202.6529 75.9605
" />
<path d="M202.6529 75.9605
L202.7005 76.0557
" />
</g></g>
<g style="fill:none; 
stroke:#000000; stroke-width:0.1000; stroke-opacity:1; 
stroke-linecap:round; stroke-linejoin:round;">
<text x="187.4500" y="72.3000"
textLength="2.1000" font-size="1.3333" lengthAdjust="spacingAndGlyphs"
text-anchor="middle" opacity="0" stroke-opacity="0">U3</text>
<g class="stroked-text"><desc>U3</desc>
<path d="M186.6881 71.2574
L186.6881 72.0669
" />
<path d="M186.6881 72.0669
L186.7357 72.1622
" />
<path d="M186.7357 72.1622
L186.7833 72.2098
" />
<path d="M186.7833 72.2098
L186.8786 72.2574
" />
<path d="M186.8786 72.2574
L187.0690 72.2574
" />
<path d="M187.0690 72.2574
L187.1643 72.2098
" />
<path d="M187.1643 72.2098
L187.2119 72.1622
" />
<path d="M187.2119 72.1622
L187.2595 72.0669
" />
<path d="M187.2595 72.0669
L187.2595 71.2574
" />
<path d="M187.6405 71.2574
L188.2595 71.2574
" />
<path d="M188.2595 71.2574
L187.9262 71.6384
" />
<path d="M187.9262 71.6384
L188.0690 71.6384
" />
<path d="M188.0690 71.6384
L188.1643 71.6860
" />
<path d="M188.1643 71.6860
L188.2119 71.7336
" />
<path d="M188.2119 71.7336
L188.2595 71.8288
" />
<path d="M188.2595 71.8288
L188.2595 72.0669
" />
<path d="M188.2595 72.0669
L188.2119 72.1622
" />
<path d="M188.2119 72.1622
L188.1643 72.2098
" />
<path d="M188.1643 72.2098
L188.0690 72.2574
" />
<path d="M188.0690 72.2574
L187.7833 72.2574
" />
<path d="M187.7833 72.2574
L187.6881 72.2098
" />
<path d="M187.6881 72.2098
L187.6405 72.1622
" />
</g><text x="187.4500" y="64.2000"
textLength="3.0524" font-size="1.3333" lengthAdjust="spacingAndGlyphs"
text-anchor="middle" opacity="0" stroke-opacity="0">HS1</text>
<g class="stroked-text"><desc>HS1</desc>
<path d="M186.2119 64.1574
L186.2119 63.1574
" />
<path d="M186.2119 63.6336
L186.7833 63.6336
" />
<path d="M186.7833 64.1574
L186.7833 63.1574
" />
<path d="M187.2119 64.1098
L187.3548 64.1574
" />
<path d="M187.3548 64.1574
L187.5929 64.1574
" />
<path d="M187.5929 64.1574
L187.6881 64.1098
" />
<path d="M187.6881 64.1098
L187.7357 64.0622
" />
<path d="M187.7357 64.0622
L187.7833 63.9669
" />
<path d="M187.7833 63.9669
L187.7833 63.8717
" />
<path d="M187.7833 63.8717
L187.7357 63.7765
" />
<path d="M187.7357 63.7765
L187.6881 63.7288
" />
<path d="M187.6881 63.7288
L187.5929 63.6812
" />
<path d="M187.5929 63.6812
L187.4024 63.6336
" />
<path d="M187.4024 63.6336
L187.3071 63.5860
" />
<path d="M187.3071 63.5860
L187.2595 63.5384
" />
<path d="M187.2595 63.5384
L187.2119 63.4431
" />
<path d="M187.2119 63.4431
L187.2119 63.3479
" />
<path d="M187.2119 63.3479
L187.2595 63.2527
" />
<path d="M187.2595 63.2527
L187.3071 63.2050
" />
<path d="M187.3071 63.2050
L187.4024 63.1574
" />
<path d="M187.4024 63.1574
L187.6405 63.1574
" />
<path d="M187.6405 63.1574
L187.7833 63.2050
" />
<path d="M188.7357 64.1574
L188.1643 64.1574
" />
<path d="M188.4500 64.1574
L188.4500 63.1574
" />
<path d="M188.4500 63.1574
L188.3548 63.3003
" />
<path d="M188.3548 63.3003
L188.2595 63.3955
" />
<path d="M188.2595 63.3955
L188.1643 63.4431
" />
</g></g>
<g style="fill:none; 
stroke:#000000; stroke-width:0.1500; stroke-opacity:1; 
stroke-linecap:round; stroke-linejoin:round;">
<text x="235.0000" y="46.3000"
textLength="2.2500" font-size="1.3333" lengthAdjust="spacingAndGlyphs"
text-anchor="middle" opacity="0" stroke-opacity="0">H2</text>
<g class="stroked-text"><desc>H2</desc>
<path d="M234.2381 46.2548
L234.2381 45.2548
" />
<path d="M234.2381 45.7310
L234.8095 45.7310
" />
<path d="M234.8095 46.2548
L234.8095 45.2548
" />
<path d="M235.2381 45.3501
L235.2857 45.3024
" />
<path d="M235.2857 45.3024
L235.3810 45.2548
" />
<path d="M235.3810 45.2548
L235.6190 45.2548
" />
<path d="M235.6190 45.2548
L235.7143 45.3024
" />
<path d="M235.7143 45.3024
L235.7619 45.3501
" />
<path d="M235.7619 45.3501
L235.8095 45.4453
" />
<path d="M235.8095 45.4453
L235.8095 45.5405
" />
<path d="M235.8095 45.5405
L235.7619 45.6834
" />
<path d="M235.7619 45.6834
L235.1905 46.2548
" />
<path d="M235.1905 46.2548
L235.8095 46.2548
" />
</g><text x="204.5000" y="39.0000"
textLength="1.9643" font-size="1.3333" lengthAdjust="spacingAndGlyphs"
text-anchor="middle" opacity="0" stroke-opacity="0">J7</text>
<g class="stroked-text"><desc>J7</desc>
<path d="M204.1667 37.9548
L204.1667 38.6691
" />
<path d="M204.1667 38.6691
L204.1190 38.8120
" />
<path d="M204.1190 38.8120
L204.0238 38.9072
" />
<path d="M204.0238 38.9072
L203.8810 38.9548
" />
<path d="M203.8810 38.9548
L203.7857 38.9548
" />
<path d="M204.5476 37.9548
L205.2143 37.9548
" />
<path d="M205.2143 37.9548
L204.7857 38.9548
" />
</g><text x="210.0000" y="54.7500"
textLength="2.0071" font-size="2.0000" lengthAdjust="spacingAndGlyphs"
text-anchor="middle" opacity="0" stroke-opacity="0">+</text>
<g class="stroked-text"><desc>+</desc>
<path d="M209.4286 54.1147
L210.5714 54.1147
" />
<path d="M210.0000 54.6861
L210.0000 53.5433
" />
</g><text x="199.0000" y="54.7500"
textLength="2.0071" font-size="2.0000" lengthAdjust="spacingAndGlyphs"
text-anchor="middle" opacity="0" stroke-opacity="0">-</text>
<g class="stroked-text"><desc>-</desc>
<path d="M198.4286 54.1147
L199.5714 54.1147
" />
</g></g>
<g style="fill:none; 
stroke:#000000; stroke-width:0.1000; stroke-opacity:1; 
stroke-linecap:round; stroke-linejoin:round;">
<g transform="rotate(-90.000000 215.5000 75.0000)">
<text x="215.5000" y="75.5000"
textLength="9.1000" font-size="1.3333" lengthAdjust="spacingAndGlyphs"
text-anchor="middle" opacity="0" stroke-opacity="0">M78AR05-1</text>
</g>
<g class="stroked-text"><desc>M78AR05-1</desc>
<path d="M215.9574 79.2619
L214.9574 79.2619
" />
<path d="M214.9574 79.2619
L215.6717 78.9286
" />
<path d="M215.6717 78.9286
L214.9574 78.5952
" />
<path d="M214.9574 78.5952
L215.9574 78.5952
" />
<path d="M214.9574 78.2143
L214.9574 77.5476
" />
<path d="M214.9574 77.5476
L215.9574 77.9762
" />
<path d="M215.3860 77.0238
L215.3384 77.1190
" />
<path d="M215.3384 77.1190
L215.2908 77.1667
" />
<path d="M215.2908 77.1667
L215.1955 77.2143
" />
<path d="M215.1955 77.2143
L215.1479 77.2143
" />
<path d="M215.1479 77.2143
L215.0527 77.1667
" />
<path d="M215.0527 77.1667
L215.0050 77.1190
" />
<path d="M215.0050 77.1190
L214.9574 77.0238
" />
<path d="M214.9574 77.0238
L214.9574 76.8333
" />
<path d="M214.9574 76.8333
L215.0050 76.7381
" />
<path d="M215.0050 76.7381
L215.0527 76.6905
" />
<path d="M215.0527 76.6905
L215.1479 76.6429
" />
<path d="M215.1479 76.6429
L215.1955 76.6429
" />
<path d="M215.1955 76.6429
L215.2908 76.6905
" />
<path d="M215.2908 76.6905
L215.3384 76.7381
" />
<path d="M215.3384 76.7381
L215.3860 76.8333
" />
<path d="M215.3860 76.8333
L215.3860 77.0238
" />
<path d="M215.3860 77.0238
L215.4336 77.1190
" />
<path d="M215.4336 77.1190
L215.4812 77.1667
" />
<path d="M215.4812 77.1667
L215.5765 77.2143
" />
<path d="M215.5765 77.2143
L215.7669 77.2143
" />
<path d="M215.7669 77.2143
L215.8622 77.1667
" />
<path d="M215.8622 77.1667
L215.9098 77.1190
" />
<path d="M215.9098 77.1190
L215.9574 77.0238
" />
<path d="M215.9574 77.0238
L215.9574 76.8333
" />
<path d="M215.9574 76.8333
L215.9098 76.7381
" />
<path d="M215.9098 76.7381
L215.8622 76.6905
" />
<path d="M215.8622 76.6905
L215.7669 76.6429
" />
<path d="M215.7669 76.6429
L215.5765 76.6429
" />
<path d="M215.5765 76.6429
L215.4812 76.6905
" />
<path d="M215.4812 76.6905
L215.4336 76.7381
" />
<path d="M215.4336 76.7381
L215.3860 76.8333
" />
<path d="M215.6717 76.2619
L215.6717 75.7857
" />
<path d="M215.9574 76.3571
L214.9574 76.0238
" />
<path d="M214.9574 76.0238
L215.9574 75.6905
" />
<path d="M215.9574 74.7857
L215.4812 75.1190
" />
<path d="M215.9574 75.3571
L214.9574 75.3571
" />
<path d="M214.9574 75.3571
L214.9574 74.9762
" />
<path d="M214.9574 74.9762
L215.0050 74.8810
" />
<path d="M215.0050 74.8810
L215.0527 74.8333
" />
<path d="M215.0527 74.8333
L215.1479 74.7857
" />
<path d="M215.1479 74.7857
L215.2908 74.7857
" />
<path d="M215.2908 74.7857
L215.3860 74.8333
" />
<path d="M215.3860 74.8333
L215.4336 74.8810
" />
<path d="M215.4336 74.8810
L215.4812 74.9762
" />
<path d="M215.4812 74.9762
L215.4812 75.3571
" />
<path d="M214.9574 74.1667
L214.9574 74.0714
" />
<path d="M214.9574 74.0714
L215.0050 73.9762
" />
<path d="M215.0050 73.9762
L215.0527 73.9286
" />
<path d="M215.0527 73.9286
L215.1479 73.8810
" />
<path d="M215.1479 73.8810
L215.3384 73.8333
" />
<path d="M215.3384 73.8333
L215.5765 73.8333
" />
<path d="M215.5765 73.8333
L215.7669 73.8810
" />
<path d="M215.7669 73.8810
L215.8622 73.9286
" />
<path d="M215.8622 73.9286
L215.9098 73.9762
" />
<path d="M215.9098 73.9762
L215.9574 74.0714
" />
<path d="M215.9574 74.0714
L215.9574 74.1667
" />
<path d="M215.9574 74.1667
L215.9098 74.2619
" />
<path d="M215.9098 74.2619
L215.8622 74.3095
" />
<path d="M215.8622 74.3095
L215.7669 74.3571
" />
<path d="M215.7669 74.3571
L215.5765 74.4048
" />
<path d="M215.5765 74.4048
L215.3384 74.4048
" />
<path d="M215.3384 74.4048
L215.1479 74.3571
" />
<path d="M215.1479 74.3571
L215.0527 74.3095
" />
<path d="M215.0527 74.3095
L215.0050 74.2619
" />
<path d="M215.0050 74.2619
L214.9574 74.1667
" />
<path d="M214.9574 72.9286
L214.9574 73.4048
" />
<path d="M214.9574 73.4048
L215.4336 73.4524
" />
<path d="M215.4336 73.4524
L215.3860 73.4048
" />
<path d="M215.3860 73.4048
L215.3384 73.3095
" />
<path d="M215.3384 73.3095
L215.3384 73.0714
" />
<path d="M215.3384 73.0714
L215.3860 72.9762
" />
<path d="M215.3860 72.9762
L215.4336 72.9286
" />
<path d="M215.4336 72.9286
L215.5288 72.8810
" />
<path d="M215.5288 72.8810
L215.7669 72.8810
" />
<path d="M215.7669 72.8810
L215.8622 72.9286
" />
<path d="M215.8622 72.9286
L215.9098 72.9762
" />
<path d="M215.9098 72.9762
L215.9574 73.0714
" />
<path d="M215.9574 73.0714
L215.9574 73.3095
" />
<path d="M215.9574 73.3095
L215.9098 73.4048
" />
<path d="M215.9098 73.4048
L215.8622 73.4524
" />
<path d="M215.5765 72.4524
L215.5765 71.6905
" />
<path d="M215.9574 70.6905
L215.9574 71.2619
" />
<path d="M215.9574 70.9762
L214.9574 70.9762
" />
<path d="M214.9574 70.9762
L215.1003 71.0714
" />
<path d="M215.1003 71.0714
L215.1955 71.1667
" />
<path d="M215.1955 71.1667
L215.2431 71.2619
" />
</g><text x="204.9700" y="79.4900"
textLength="2.1000" font-size="1.3333" lengthAdjust="spacingAndGlyphs"
text-anchor="middle" opacity="0" stroke-opacity="0">U2</text>
<g class="stroked-text"><desc>U2</desc>
<path d="M204.2081 78.4474
L204.2081 79.2569
" />
<path d="M204.2081 79.2569
L204.2557 79.3522
" />
<path d="M204.2557 79.3522
L204.3033 79.3998
" />
<path d="M204.3033 79.3998
L204.3986 79.4474
" />
<path d="M204.3986 79.4474
L204.5890 79.4474
" />
<path d="M204.5890 79.4474
L204.6843 79.3998
" />
<path d="M204.6843 79.3998
L204.7319 79.3522
" />
<path d="M204.7319 79.3522
L204.7795 79.2569
" />
<path d="M204.7795 79.2569
L204.7795 78.4474
" />
<path d="M205.2081 78.5427
L205.2557 78.4950
" />
<path d="M205.2557 78.4950
L205.3510 78.4474
" />
<path d="M205.3510 78.4474
L205.5890 78.4474
" />
<path d="M205.5890 78.4474
L205.6843 78.4950
" />
<path d="M205.6843 78.4950
L205.7319 78.5427
" />
<path d="M205.7319 78.5427
L205.7795 78.6379
" />
<path d="M205.7795 78.6379
L205.7795 78.7331
" />
<path d="M205.7795 78.7331
L205.7319 78.8760
" />
<path d="M205.7319 78.8760
L205.1605 79.4474
" />
<path d="M205.1605 79.4474
L205.7795 79.4474
" />
</g></g>
<g style="fill:none; 
stroke:#000000; stroke-width:0.1500; stroke-opacity:1; 
stroke-linecap:round; stroke-linejoin:round;">
<text x="205.0800" y="68.6300"
textLength="2.2024" font-size="1.3333" lengthAdjust="spacingAndGlyphs"
text-anchor="middle" opacity="0" stroke-opacity="0">R2</text>
<g class="stroked-text"><desc>R2</desc>
<path d="M204.9133 68.5848
L204.5800 68.1086
" />
<path d="M204.3419 68.5848
L204.3419 67.5848
" />
<path d="M204.3419 67.5848
L204.7229 67.5848
" />
<path d="M204.7229 67.5848
L204.8181 67.6324
" />
<path d="M204.8181 67.6324
L204.8657 67.6801
" />
<path d="M204.8657 67.6801
L204.9133 67.7753
" />
<path d="M204.9133 67.7753
L204.9133 67.9182
" />
<path d="M204.9133 67.9182
L204.8657 68.0134
" />
<path d="M204.8657 68.0134
L204.8181 68.0610
" />
<path d="M204.8181 68.0610
L204.7229 68.1086
" />
<path d="M204.7229 68.1086
L204.3419 68.1086
" />
<path d="M205.2943 67.6801
L205.3419 67.6324
" />
<path d="M205.3419 67.6324
L205.4371 67.5848
" />
<path d="M205.4371 67.5848
L205.6752 67.5848
" />
<path d="M205.6752 67.5848
L205.7705 67.6324
" />
<path d="M205.7705 67.6324
L205.8181 67.6801
" />
<path d="M205.8181 67.6801
L205.8657 67.7753
" />
<path d="M205.8657 67.7753
L205.8657 67.8705
" />
<path d="M205.8657 67.8705
L205.8181 68.0134
" />
<path d="M205.8181 68.0134
L205.2467 68.5848
" />
<path d="M205.2467 68.5848
L205.8657 68.5848
" />
</g><text x="175.0000" y="81.3000"
textLength="2.2500" font-size="1.3333" lengthAdjust="spacingAndGlyphs"
text-anchor="middle" opacity="0" stroke-opacity="0">H3</text>
<g class="stroked-text"><desc>H3</desc>
<path d="M174.2381 81.2548
L174.2381 80.2548
" />
<path d="M174.2381 80.7310
L174.8095 80.7310
" />
<path d="M174.8095 81.2548
L174.8095 80.2548
" />
<path d="M175.1905 80.2548
L175.8095 80.2548
" />
<path d="M175.8095 80.2548
L175.4762 80.6358
" />
<path d="M175.4762 80.6358
L175.6190 80.6358
" />
<path d="M175.6190 80.6358
L175.7143 80.6834
" />
<path d="M175.7143 80.6834
L175.7619 80.7310
" />
<path d="M175.7619 80.7310
L175.8095 80.8262
" />
<path d="M175.8095 80.8262
L175.8095 81.0643
" />
<path d="M175.8095 81.0643
L175.7619 81.1596
" />
<path d="M175.7619 81.1596
L175.7143 81.2072
" />
<path d="M175.7143 81.2072
L175.6190 81.2548
" />
<path d="M175.6190 81.2548
L175.3333 81.2548
" />
<path d="M175.3333 81.2548
L175.2381 81.2072
" />
<path d="M175.2381 81.2072
L175.1905 81.1596
" />
</g><text x="219.5000" y="39.0000"
textLength="1.9643" font-size="1.3333" lengthAdjust="spacingAndGlyphs"
text-anchor="middle" opacity="0" stroke-opacity="0">J1</text>
<g class="stroked-text"><desc>J1</desc>
<path d="M219.1667 37.9548
L219.1667 38.6691
" />
<path d="M219.1667 38.6691
L219.1190 38.8120
" />
<path d="M219.1190 38.8120
L219.0238 38.9072
" />
<path d="M219.0238 38.9072
L218.8810 38.9548
" />
<path d="M218.8810 38.9548
L218.7857 38.9548
" />
<path d="M220.1667 38.9548
L219.5952 38.9548
" />
<path d="M219.8810 38.9548
L219.8810 37.9548
" />
<path d="M219.8810 37.9548
L219.7857 38.0977
" />
<path d="M219.7857 38.0977
L219.6905 38.1929
" />
<path d="M219.6905 38.1929
L219.5952 38.2405
" />
</g><text x="225.0000" y="54.7500"
textLength="2.0071" font-size="2.0000" lengthAdjust="spacingAndGlyphs"
text-anchor="middle" opacity="0" stroke-opacity="0">+</text>
<g class="stroked-text"><desc>+</desc>
<path d="M224.4286 54.1147
L225.5714 54.1147
" />
<path d="M225.0000 54.6861
L225.0000 53.5433
" />
</g><text x="214.0000" y="54.7500"
textLength="2.0071" font-size="2.0000" lengthAdjust="spacingAndGlyphs"
text-anchor="middle" opacity="0" stroke-opacity="0">-</text>
<g class="stroked-text"><desc>-</desc>
<path d="M213.4286 54.1147
L214.5714 54.1147
" />
</g></g>
<g style="fill:none; 
stroke:#000000; stroke-width:0.1000; stroke-opacity:1; 
stroke-linecap:round; stroke-linejoin:round;">
<text x="222.9700" y="79.4900"
textLength="2.1000" font-size="1.3333" lengthAdjust="spacingAndGlyphs"
text-anchor="middle" opacity="0" stroke-opacity="0">U1</text>
<g class="stroked-text"><desc>U1</desc>
<path d="M222.2081 78.4474
L222.2081 79.2569
" />
<path d="M222.2081 79.2569
L222.2557 79.3522
" />
<path d="M222.2557 79.3522
L222.3033 79.3998
" />
<path d="M222.3033 79.3998
L222.3986 79.4474
" />
<path d="M222.3986 79.4474
L222.5890 79.4474
" />
<path d="M222.5890 79.4474
L222.6843 79.3998
" />
<path d="M222.6843 79.3998
L222.7319 79.3522
" />
<path d="M222.7319 79.3522
L222.7795 79.2569
" />
<path d="M222.7795 79.2569
L222.7795 78.4474
" />
<path d="M223.7795 79.4474
L223.2081 79.4474
" />
<path d="M223.4938 79.4474
L223.4938 78.4474
" />
<path d="M223.4938 78.4474
L223.3986 78.5903
" />
<path d="M223.3986 78.5903
L223.3033 78.6855
" />
<path d="M223.3033 78.6855
L223.2081 78.7331
" />
</g></g>
<g style="fill:none; 
stroke:#000000; stroke-width:0.1500; stroke-opacity:1; 
stroke-linecap:round; stroke-linejoin:round;">
<g transform="rotate(-90.000000 246.5000 72.0000)">
<text x="246.5000" y="72.5000"
textLength="1.9643" font-size="1.3333" lengthAdjust="spacingAndGlyphs"
text-anchor="middle" opacity="0" stroke-opacity="0">J5</text>
</g>
<g class="stroked-text"><desc>J5</desc>
<path d="M245.9548 72.3333
L246.6691 72.3333
" />
<path d="M246.6691 72.3333
L246.8120 72.3810
" />
<path d="M246.8120 72.3810
L246.9072 72.4762
" />
<path d="M246.9072 72.4762
L246.9548 72.6190
" />
<path d="M246.9548 72.6190
L246.9548 72.7143
" />
<path d="M245.9548 71.3810
L245.9548 71.8571
" />
<path d="M245.9548 71.8571
L246.4310 71.9048
" />
<path d="M246.4310 71.9048
L246.3834 71.8571
" />
<path d="M246.3834 71.8571
L246.3358 71.7619
" />
<path d="M246.3358 71.7619
L246.3358 71.5238
" />
<path d="M246.3358 71.5238
L246.3834 71.4286
" />
<path d="M246.3834 71.4286
L246.4310 71.3810
" />
<path d="M246.4310 71.3810
L246.5262 71.3333
" />
<path d="M246.5262 71.3333
L246.7643 71.3333
" />
<path d="M246.7643 71.3333
L246.8596 71.3810
" />
<path d="M246.8596 71.3810
L246.9072 71.4286
" />
<path d="M246.9072 71.4286
L246.9548 71.5238
" />
<path d="M246.9548 71.5238
L246.9548 71.7619
" />
<path d="M246.9548 71.7619
L246.9072 71.8571
" />
<path d="M246.9072 71.8571
L246.8596 71.9048
" />
</g><g transform="rotate(-90.000000 231.0000 66.5000)">
<text x="231.0000" y="67.2500"
textLength="2.0071" font-size="2.0000" lengthAdjust="spacingAndGlyphs"
text-anchor="middle" opacity="0" stroke-opacity="0">-</text>
</g>
<g class="stroked-text"><desc>-</desc>
<path d="M231.1147 67.0714
L231.1147 65.9286
" />
</g><g transform="rotate(-90.000000 231.0000 77.5000)">
<text x="231.0000" y="78.2500"
textLength="2.0071" font-size="2.0000" lengthAdjust="spacingAndGlyphs"
text-anchor="middle" opacity="0" stroke-opacity="0">+</text>
</g>
<g class="stroked-text"><desc>+</desc>
<path d="M231.1147 78.0714
L231.1147 76.9286
" />
<path d="M231.6861 77.5000
L230.5433 77.5000
" />
</g><text x="175.0000" y="74.5000"
textLength="2.2500" font-size="1.3333" lengthAdjust="spacingAndGlyphs"
text-anchor="middle" opacity="0" stroke-opacity="0">Q2</text>
<g class="stroked-text"><desc>Q2</desc>
<path d="M174.9048 74.5501
L174.8095 74.5024
" />
<path d="M174.8095 74.5024
L174.7143 74.4072
" />
<path d="M174.7143 74.4072
L174.5714 74.2643
" />
<path d="M174.5714 74.2643
L174.4762 74.2167
" />
<path d="M174.4762 74.2167
L174.3810 74.2167
" />
<path d="M174.4286 74.4548
L174.3333 74.4072
" />
<path d="M174.3333 74.4072
L174.2381 74.3120
" />
<path d="M174.2381 74.3120
L174.1905 74.1215
" />
<path d="M174.1905 74.1215
L174.1905 73.7882
" />
<path d="M174.1905 73.7882
L174.2381 73.5977
" />
<path d="M174.2381 73.5977
L174.3333 73.5024
" />
<path d="M174.3333 73.5024
L174.4286 73.4548
" />
<path d="M174.4286 73.4548
L174.6190 73.4548
" />
<path d="M174.6190 73.4548
L174.7143 73.5024
" />
<path d="M174.7143 73.5024
L174.8095 73.5977
" />
<path d="M174.8095 73.5977
L174.8571 73.7882
" />
<path d="M174.8571 73.7882
L174.8571 74.1215
" />
<path d="M174.8571 74.1215
L174.8095 74.3120
" />
<path d="M174.8095 74.3120
L174.7143 74.4072
" />
<path d="M174.7143 74.4072
L174.6190 74.4548
" />
<path d="M174.6190 74.4548
L174.4286 74.4548
" />
<path d="M175.2381 73.5501
L175.2857 73.5024
" />
<path d="M175.2857 73.5024
L175.3810 73.4548
" />
<path d="M175.3810 73.4548
L175.6190 73.4548
" />
<path d="M175.6190 73.4548
L175.7143 73.5024
" />
<path d="M175.7143 73.5024
L175.7619 73.5501
" />
<path d="M175.7619 73.5501
L175.8095 73.6453
" />
<path d="M175.8095 73.6453
L175.8095 73.7405
" />
<path d="M175.8095 73.7405
L175.7619 73.8834
" />
<path d="M175.7619 73.8834
L175.1905 74.4548
" />
<path d="M175.1905 74.4548
L175.8095 74.4548
" />
</g><text x="235.0000" y="81.3000"
textLength="2.2500" font-size="1.3333" lengthAdjust="spacingAndGlyphs"
text-anchor="middle" opacity="0" stroke-opacity="0">H4</text>
<g class="stroked-text"><desc>H4</desc>
<path d="M234.2381 81.2548
L234.2381 80.2548
" />
<path d="M234.2381 80.7310
L234.8095 80.7310
" />
<path d="M234.8095 81.2548
L234.8095 80.2548
" />
<path d="M235.7143 80.5882
L235.7143 81.2548
" />
<path d="M235.4762 80.2072
L235.2381 80.9215
" />
<path d="M235.2381 80.9215
L235.8571 80.9215
" />
</g><g transform="rotate(-90.000000 224.5000 73.0000)">
<text x="224.5000" y="73.5000"
textLength="2.2024" font-size="1.3333" lengthAdjust="spacingAndGlyphs"
text-anchor="middle" opacity="0" stroke-opacity="0">C1</text>
</g>
<g class="stroked-text"><desc>C1</desc>
<path d="M224.8596 73.1667
L224.9072 73.2143
" />
<path d="M224.9072 73.2143
L224.9548 73.3571
" />
<path d="M224.9548 73.3571
L224.9548 73.4524
" />
<path d="M224.9548 73.4524
L224.9072 73.5952
" />
<path d="M224.9072 73.5952
L224.8120 73.6905
" />
<path d="M224.8120 73.6905
L224.7167 73.7381
" />
<path d="M224.7167 73.7381
L224.5262 73.7857
" />
<path d="M224.5262 73.7857
L224.3834 73.7857
" />
<path d="M224.3834 73.7857
L224.1929 73.7381
" />
<path d="M224.1929 73.7381
L224.0977 73.6905
" />
<path d="M224.0977 73.6905
L224.0024 73.5952
" />
<path d="M224.0024 73.5952
L223.9548 73.4524
" />
<path d="M223.9548 73.4524
L223.9548 73.3571
" />
<path d="M223.9548 73.3571
L224.0024 73.2143
" />
<path d="M224.0024 73.2143
L224.0501 73.1667
" />
<path d="M224.9548 72.2143
L224.9548 72.7857
" />
<path d="M224.9548 72.5000
L223.9548 72.5000
" />
<path d="M223.9548 72.5000
L224.0977 72.5952
" />
<path d="M224.0977 72.5952
L224.1929 72.6905
" />
<path d="M224.1929 72.6905
L224.2405 72.7857
" />
</g><text x="187.6000" y="99.0000"
textLength="1.9643" font-size="1.3333" lengthAdjust="spacingAndGlyphs"
text-anchor="middle" opacity="0" stroke-opacity="0">J2</text>
<g class="stroked-text"><desc>J2</desc>
<path d="M187.2667 97.9548
L187.2667 98.6691
" />
<path d="M187.2667 98.6691
L187.2190 98.8120
" />
<path d="M187.2190 98.8120
L187.1238 98.9072
" />
<path d="M187.1238 98.9072
L186.9810 98.9548
" />
<path d="M186.9810 98.9548
L186.8857 98.9548
" />
<path d="M187.6952 98.0501
L187.7429 98.0024
" />
<path d="M187.7429 98.0024
L187.8381 97.9548
" />
<path d="M187.8381 97.9548
L188.0762 97.9548
" />
<path d="M188.0762 97.9548
L188.1714 98.0024
" />
<path d="M188.1714 98.0024
L188.2190 98.0501
" />
<path d="M188.2190 98.0501
L188.2667 98.1453
" />
<path d="M188.2667 98.1453
L188.2667 98.2405
" />
<path d="M188.2667 98.2405
L188.2190 98.3834
" />
<path d="M188.2190 98.3834
L187.6476 98.9548
" />
<path d="M187.6476 98.9548
L188.2667 98.9548
" />
</g><text x="181.2000" y="80.0000"
textLength="1.4881" font-size="1.3333" lengthAdjust="spacingAndGlyphs"
text-anchor="middle" opacity="0" stroke-opacity="0">-</text>
<g class="stroked-text"><desc>-</desc>
<path d="M180.8190 79.5739
L181.5810 79.5739
" />
</g><text x="193.5000" y="80.2500"
textLength="2.0071" font-size="2.0000" lengthAdjust="spacingAndGlyphs"
text-anchor="middle" opacity="0" stroke-opacity="0">+</text>
<g class="stroked-text"><desc>+</desc>
<path d="M192.9286 79.6147
L194.0714 79.6147
" />
<path d="M193.5000 80.1861
L193.5000 79.0433
" />
</g><text x="187.4000" y="37.0000"
textLength="1.9643" font-size="1.3333" lengthAdjust="spacingAndGlyphs"
text-anchor="middle" opacity="0" stroke-opacity="0">J6</text>
<g class="stroked-text"><desc>J6</desc>
<path d="M187.0667 35.9548
L187.0667 36.6691
" />
<path d="M187.0667 36.6691
L187.0190 36.8120
" />
<path d="M187.0190 36.8120
L186.9238 36.9072
" />
<path d="M186.9238 36.9072
L186.7810 36.9548
" />
<path d="M186.7810 36.9548
L186.6857 36.9548
" />
<path d="M187.9714 35.9548
L187.7810 35.9548
" />
<path d="M187.7810 35.9548
L187.6857 36.0024
" />
<path d="M187.6857 36.0024
L187.6381 36.0501
" />
<path d="M187.6381 36.0501
L187.5429 36.1929
" />
<path d="M187.5429 36.1929
L187.4952 36.3834
" />
<path d="M187.4952 36.3834
L187.4952 36.7643
" />
<path d="M187.4952 36.7643
L187.5429 36.8596
" />
<path d="M187.5429 36.8596
L187.5905 36.9072
" />
<path d="M187.5905 36.9072
L187.6857 36.9548
" />
<path d="M187.6857 36.9548
L187.8762 36.9548
" />
<path d="M187.8762 36.9548
L187.9714 36.9072
" />
<path d="M187.9714 36.9072
L188.0190 36.8596
" />
<path d="M188.0190 36.8596
L188.0667 36.7643
" />
<path d="M188.0667 36.7643
L188.0667 36.5262
" />
<path d="M188.0667 36.5262
L188.0190 36.4310
" />
<path d="M188.0190 36.4310
L187.9714 36.3834
" />
<path d="M187.9714 36.3834
L187.8762 36.3358
" />
<path d="M187.8762 36.3358
L187.6857 36.3358
" />
<path d="M187.6857 36.3358
L187.5905 36.3834
" />
<path d="M187.5905 36.3834
L187.5429 36.4310
" />
<path d="M187.5429 36.4310
L187.4952 36.5262
" />
</g><text x="181.5000" y="56.2500"
textLength="2.0071" font-size="2.0000" lengthAdjust="spacingAndGlyphs"
text-anchor="middle" opacity="0" stroke-opacity="0">+</text>
<g class="stroked-text"><desc>+</desc>
<path d="M180.9286 55.6147
L182.0714 55.6147
" />
<path d="M181.5000 56.1861
L181.5000 55.0433
" />
</g><text x="193.8000" y="56.0000"
textLength="1.4881" font-size="1.3333" lengthAdjust="spacingAndGlyphs"
text-anchor="middle" opacity="0" stroke-opacity="0">-</text>
<g class="stroked-text"><desc>-</desc>
<path d="M193.4190 55.5739
L194.1810 55.5739
" />
</g></g>
<g style="fill:none; 
stroke:#000000; stroke-width:0.1200; stroke-opacity:1; 
stroke-linecap:round; stroke-linejoin:round;">
<path d="M198.4600 62.0000
L199.2300 62.0000
" />
<path d="M199.2300 60.6300
L199.2300 63.3700
" />
<path d="M199.2300 63.3700
L205.7700 63.3700
" />
<path d="M205.7700 60.6300
L199.2300 60.6300
" />
<path d="M205.7700 63.3700
L205.7700 60.6300
" />
<path d="M206.5400 62.0000
L205.7700 62.0000
" />
<path d="M198.9200 74.7100
L198.7640 74.7100
" />
<path d="M201.2360 74.7100
L201.0800 74.7100
" />
<path d="M198.9200 75.2290 A1.5000 1.5000 0.0 0 0 198.9202 77.3111" />
<path d="M198.7645 74.7100 A1.9900 1.9900 0.0 0 0 198.9214 77.9423" />
<path d="M201.0798 77.3111 A1.5000 1.5000 0.0 0 0 201.0800 75.2290" />
<path d="M201.0786 77.9423 A1.9900 1.9900 0.0 0 0 201.2355 74.7100" />
<path style="fill:none; 
stroke:#000000; stroke-width:0.1000; stroke-opacity:1; 
stroke-linecap:round; stroke-linejoin:round;fill:none"
d="M 177.9500,72.3000
196.9500,72.3000
196.9500,72.3500
177.9500,72.3500
Z" /> 
<path style="fill:none; 
stroke:#000000; stroke-width:0.1000; stroke-opacity:1; 
stroke-linecap:round; stroke-linejoin:round;fill:none"
d="M 179.2000,72.2000
195.7000,72.2000
195.7000,56.2000
179.2000,56.2000
Z" /> 
</g>
<g style="fill:none; 
stroke:#000000; stroke-width:0.1200; stroke-opacity:1; 
stroke-linecap:round; stroke-linejoin:round;">
<path d="M198.7400 47.8900
L199.4400 47.8900
" />
<path d="M198.7400 50.1100
L210.2600 50.1100
" />
<path d="M199.4400 45.8400
L199.4400 47.8900
" />
<path d="M199.4400 45.8400
L199.9700 45.8400
" />
<path d="M199.9700 39.8400
L199.9700 45.8400
" />
<path d="M199.9700 39.8400
L209.0000 39.8400
" />
<path d="M209.0300 39.8400
L209.0300 45.8400
" />
<path d="M209.0300 45.8400
L209.5600 45.8400
" />
<path d="M209.5600 45.8400
L209.5600 47.8900
" />
<path d="M209.5600 47.8900
L210.2600 47.8900
" />
<path d="M198.8500 47.8900 A1.1100 1.1100 0.0 0 0 198.6783 50.0966" />
<path d="M210.1500 50.1100 A1.1100 1.1100 0.0 0 0 210.1500 47.8900" />
<path style="fill:none; 
stroke:#000000; stroke-width:0.1000; stroke-opacity:1; 
stroke-linecap:round; stroke-linejoin:round;fill:none"
d="M 212.0000,81.0000
219.5500,81.0000
219.5500,69.5000
212.0000,69.5000
Z" /> 
</g>
<g style="fill:none; 
stroke:#000000; stroke-width:0.1200; stroke-opacity:1; 
stroke-linecap:round; stroke-linejoin:round;">
<path d="M201.0400 70.5000
L201.8100 70.5000
" />
<path d="M201.8100 69.1300
L201.8100 71.8700
" />
<path d="M201.8100 71.8700
L208.3500 71.8700
" />
<path d="M208.3500 69.1300
L201.8100 69.1300
" />
<path d="M208.3500 71.8700
L208.3500 69.1300
" />
<path d="M209.1200 70.5000
L208.3500 70.5000
" />
<path d="M213.7400 47.8900
L214.4400 47.8900
" />
<path d="M213.7400 50.1100
L225.2600 50.1100
" />
<path d="M214.4400 45.8400
L214.4400 47.8900
" />
<path d="M214.4400 45.8400
L214.9700 45.8400
" />
<path d="M214.9700 39.8400
L214.9700 45.8400
" />
<path d="M214.9700 39.8400
L224.0000 39.8400
" />
<path d="M224.0300 39.8400
L224.0300 45.8400
" />
<path d="M224.0300 45.8400
L224.5600 45.8400
" />
<path d="M224.5600 45.8400
L224.5600 47.8900
" />
<path d="M224.5600 47.8900
L225.2600 47.8900
" />
<path d="M213.8500 47.8900 A1.1100 1.1100 0.0 0 0 213.6783 50.0966" />
<path d="M225.1500 50.1100 A1.1100 1.1100 0.0 0 0 225.1500 47.8900" />
<path d="M234.8900 66.2400
L234.8900 77.7600
" />
<path d="M237.1100 66.2400
L237.1100 66.9400
" />
<path d="M237.1100 77.0600
L237.1100 77.7600
" />
<path d="M239.1600 66.9400
L237.1100 66.9400
" />
<path d="M239.1600 66.9400
L239.1600 67.4700
" />
<path d="M239.1600 76.5300
L239.1600 77.0600
" />
<path d="M239.1600 77.0600
L237.1100 77.0600
" />
<path d="M245.1600 67.4700
L239.1600 67.4700
" />
<path d="M245.1600 67.4700
L245.1600 76.5000
" />
<path d="M245.1600 76.5300
L239.1600 76.5300
" />
<path d="M237.1100 66.3500 A1.1100 1.1100 0.0 0 0 234.9034 66.1783" />
<path d="M234.8900 77.6500 A1.1100 1.1100 0.0 0 0 237.1100 77.6500" />
<path d="M179.5800 72.3800
L179.5800 77.1200
" />
<path d="M179.5800 72.3800
L195.3200 72.3800
" />
<path d="M179.5800 74.1200
L180.6000 74.1200
" />
<path d="M179.5800 77.1200
L180.6000 77.1200
" />
<path d="M183.4000 74.1200
L186.0510 74.1200
" />
<path d="M183.4000 77.1200
L186.0510 77.1200
" />
<path d="M185.8500 72.3800
L185.8500 74.1200
" />
<path d="M188.8500 74.1200
L191.5000 74.1200
" />
<path d="M188.8500 77.1200
L191.5000 77.1200
" />
<path d="M189.0510 72.3800
L189.0510 74.1200
" />
<path d="M194.3000 74.1200
L195.3200 74.1200
" />
<path d="M194.3000 77.1200
L195.3200 77.1200
" />
<path d="M195.3200 72.3800
L195.3200 77.1200
" />
<path d="M220.6300 69.2800
L220.6300 76.7200
" />
<path d="M225.3700 69.2800
L220.6300 69.2800
" />
<path d="M225.3700 69.2800
L225.3700 76.7200
" />
<path d="M225.3700 76.7200
L220.6300 76.7200
" />
<path d="M179.7400 89.7600
L179.7400 84.1500
" />
<path d="M180.5900 89.7600
L179.7400 89.7600
" />
<path d="M180.5900 97.4600
L180.5900 89.7600
" />
<path d="M190.0500 80.0400
L186.3100 80.0400
" />
<path d="M194.6100 97.4600
L180.5900 97.4600
" />
<path d="M194.6100 97.4600
L194.6100 89.7600
" />
<path d="M195.4600 89.7600
L194.6100 89.7600
" />
<path d="M195.4600 89.7600
L195.4600 84.1500
" />
<path d="M181.7332 80.6270 A4.1100 4.1100 0.0 0 0 179.7400 84.1500" />
<path d="M195.4600 84.1500 A4.1102 4.1102 0.0 0 0 192.5899 80.1913" />
<path d="M179.5400 45.2400
L179.5400 50.8500
" />
<path d="M179.5400 45.2400
L180.3900 45.2400
" />
<path d="M180.3900 37.5400
L180.3900 45.2400
" />
<path d="M180.3900 37.5400
L194.4100 37.5400
" />
<path d="M184.9500 54.9600
L188.6900 54.9600
" />
<path d="M194.4100 37.5400
L194.4100 45.2400
" />
<path d="M194.4100 45.2400
L195.2600 45.2400
" />
<path d="M195.2600 45.2400
L195.2600 50.8500
" />
<path d="M179.5400 50.8500 A4.1102 4.1102 0.0 0 0 182.4101 54.8087" />
<path d="M193.2668 54.3730 A4.1100 4.1100 0.0 0 0 195.2600 50.8500" />
</g> 
</svg>
