<?xml version="1.0" standalone="no"?>
 <!DOCTYPE svg PUBLIC "-//W3C//DTD SVG 1.1//EN" 
 "http://www.w3.org/Graphics/SVG/1.1/DTD/svg11.dtd"> 
<svg
  xmlns:svg="http://www.w3.org/2000/svg"
  xmlns="http://www.w3.org/2000/svg"
  xmlns:xlink="http://www.w3.org/1999/xlink"
  version="1.1"
  width="297.0022mm" height="210.0072mm" viewBox="0.0000 0.0000 297.0022 210.0072">
<title>SVG Image created as computer_sensor_board-F_Cu.svg date 2024/12/20 00:53:59 </title>
  <desc>Image generated by PCBNEW </desc>
<g style="fill:#000000; fill-opacity:1.0000;stroke:#000000; stroke-opacity:1.0000;
stroke-linecap:round; stroke-linejoin:round;"
 transform="translate(0 0) scale(1 1)">
</g>
<g style="fill:#000000; fill-opacity:1.0000; stroke:none;">
<circle cx="197.4200" cy="62.0000" r="0.8000" /> 
</g>
<g style="fill:#000000; fill-opacity:1.0000; stroke:none;">
<circle cx="207.5800" cy="62.0000" r="0.8000" /> 
<path style="fill:#000000; fill-opacity:1.0000; stroke:none;fill-rule:evenodd;"
d="M 199.1000,74.1000
200.9000,74.1000
200.9000,75.9000
199.1000,75.9000
Z" /> 
<circle cx="200.0000" cy="77.5400" r="0.9000" /> 
</g>
<g style="fill:#000000; fill-opacity:1.0000; stroke:none;">
<circle cx="182.4500" cy="68.7000" r="1.2000" /> 
</g>
<g style="fill:#000000; fill-opacity:1.0000; stroke:none;">
<circle cx="192.4500" cy="68.7000" r="1.2000" /> 
</g>
<g style="fill:#000000; fill-opacity:1.0000; stroke:none;">
<circle cx="199.0000" cy="49.0000" r="0.7000" /> 
</g>
<g style="fill:#000000; fill-opacity:1.0000; stroke:none;">
<circle cx="210.0000" cy="49.0000" r="0.7000" /> 
<path style="fill:#000000; fill-opacity:1.0000; stroke:none;fill-rule:evenodd;"
d="M 200.2500,55.7500
200.2500,52.2500
203.7500,52.2500
203.7500,55.7500
Z" /> 
</g>
<g style="fill:#000000; fill-opacity:1.0000; stroke:none;">
<circle cx="207.0000" cy="54.0000" r="1.7500" /> 
</g>
<g style="fill:#000000; fill-opacity:1.0000; stroke:none;">
<circle cx="214.0000" cy="77.7900" r="0.7620" /> 
</g>
<g style="fill:#000000; fill-opacity:1.0000; stroke:none;">
<circle cx="214.0000" cy="75.2500" r="0.7620" /> 
</g>
<g style="fill:#000000; fill-opacity:1.0000; stroke:none;">
<circle cx="214.0000" cy="72.7100" r="0.7620" /> 
</g>
<g style="fill:#000000; fill-opacity:1.0000; stroke:none;">
<circle cx="198.4600" cy="87.2000" r="1.5500" /> 
</g>
<g style="fill:#000000; fill-opacity:1.0000; stroke:none;">
<circle cx="211.5400" cy="87.2000" r="1.5500" /> 
</g>
<g style="fill:#000000; fill-opacity:1.0000; stroke:none;">
<circle cx="201.5000" cy="84.5000" r="0.8600" /> 
</g>
<g style="fill:#000000; fill-opacity:1.0000; stroke:none;">
<circle cx="204.0000" cy="84.5000" r="0.8600" /> 
</g>
<g style="fill:#000000; fill-opacity:1.0000; stroke:none;">
<circle cx="206.0000" cy="84.5000" r="0.8600" /> 
</g>
<g style="fill:#000000; fill-opacity:1.0000; stroke:none;">
<circle cx="208.5000" cy="84.5000" r="0.8600" /> 
</g>
<g style="fill:#000000; fill-opacity:1.0000; stroke:none;">
<circle cx="200.0000" cy="70.5000" r="0.8000" /> 
</g>
<g style="fill:#000000; fill-opacity:1.0000; stroke:none;">
<circle cx="210.1600" cy="70.5000" r="0.8000" /> 
<circle cx="214.0000" cy="49.0000" r="0.7000" /> 
</g>
<g style="fill:#000000; fill-opacity:1.0000; stroke:none;">
<circle cx="225.0000" cy="49.0000" r="0.7000" /> 
<path style="fill:#000000; fill-opacity:1.0000; stroke:none;fill-rule:evenodd;"
d="M 215.2500,53.0200
215.2659,52.8643
215.3221,52.6946
215.4160,52.5424
215.5424,52.4160
215.6946,52.3221
215.8643,52.2659
216.0200,52.2500
217.9800,52.2500
218.1357,52.2659
218.3054,52.3221
218.4576,52.4160
218.5840,52.5424
218.6779,52.6946
218.7341,52.8643
218.7500,53.0200
218.7500,54.9800
218.7341,55.1357
218.6779,55.3054
218.5840,55.4576
218.4576,55.5840
218.3054,55.6779
218.1357,55.7341
217.9800,55.7500
216.0200,55.7500
215.8643,55.7341
215.6946,55.6779
215.5424,55.5840
215.4160,55.4576
215.3221,55.3054
215.2659,55.1357
215.2500,54.9800
Z" /> 
</g>
<g style="fill:#000000; fill-opacity:1.0000; stroke:none;">
<circle cx="222.0000" cy="54.0000" r="1.7500" /> 
</g>
<g style="fill:#000000; fill-opacity:1.0000; stroke:none;">
<circle cx="216.4600" cy="87.2000" r="1.5500" /> 
</g>
<g style="fill:#000000; fill-opacity:1.0000; stroke:none;">
<circle cx="229.5400" cy="87.2000" r="1.5500" /> 
</g>
<g style="fill:#000000; fill-opacity:1.0000; stroke:none;">
<circle cx="219.5000" cy="84.5000" r="0.8600" /> 
</g>
<g style="fill:#000000; fill-opacity:1.0000; stroke:none;">
<circle cx="222.0000" cy="84.5000" r="0.8600" /> 
</g>
<g style="fill:#000000; fill-opacity:1.0000; stroke:none;">
<circle cx="224.0000" cy="84.5000" r="0.8600" /> 
</g>
<g style="fill:#000000; fill-opacity:1.0000; stroke:none;">
<circle cx="226.5000" cy="84.5000" r="0.8600" /> 
</g>
<g style="fill:#000000; fill-opacity:1.0000; stroke:none;">
<circle cx="236.0000" cy="66.5000" r="0.7000" /> 
</g>
<g style="fill:#000000; fill-opacity:1.0000; stroke:none;">
<circle cx="236.0000" cy="77.5000" r="0.7000" /> 
<path style="fill:#000000; fill-opacity:1.0000; stroke:none;fill-rule:evenodd;"
d="M 231.9800,67.7500
232.1357,67.7659
232.3054,67.8221
232.4576,67.9160
232.5840,68.0424
232.6779,68.1946
232.7341,68.3643
232.7500,68.5200
232.7500,70.4800
232.7341,70.6357
232.6779,70.8054
232.5840,70.9576
232.4576,71.0840
232.3054,71.1779
232.1357,71.2341
231.9800,71.2500
230.0200,71.2500
229.8643,71.2341
229.6946,71.1779
229.5424,71.0840
229.4160,70.9576
229.3221,70.8054
229.2659,70.6357
229.2500,70.4800
229.2500,68.5200
229.2659,68.3643
229.3221,68.1946
229.4160,68.0424
229.5424,67.9160
229.6946,67.8221
229.8643,67.7659
230.0200,67.7500
Z" /> 
</g>
<g style="fill:#000000; fill-opacity:1.0000; stroke:none;">
<circle cx="231.0000" cy="74.5000" r="1.7500" /> 
<path style="fill:#000000; fill-opacity:1.0000; stroke:none;fill-rule:evenodd;"
d="M 180.7500,77.7500
180.7500,73.2500
183.2500,73.2500
183.2500,77.7500
Z" /> 
</g>
<g style="fill:none; 
stroke:#000000; stroke-width:2.5000; stroke-opacity:1; 
stroke-linecap:round; stroke-linejoin:round;">
<path d="M187.4500 74.5000
L187.4500 76.5000
" />
<path d="M192.9000 74.5000
L192.9000 76.5000
" />
</g>
<g style="fill:#000000; fill-opacity:1.0000; stroke:none;">
<circle cx="223.0000" cy="70.5000" r="0.8000" /> 
</g>
<g style="fill:#000000; fill-opacity:1.0000; stroke:none;">
<circle cx="223.0000" cy="75.5000" r="0.8000" /> 
<path style="fill:#000000; fill-opacity:1.0000; stroke:none;fill-rule:evenodd;"
d="M 194.8000,87.0000
194.8000,89.0000
193.9000,89.0000
193.9000,87.0000
Z" /> 
<path style="fill:#000000; fill-opacity:1.0000; stroke:none;fill-rule:evenodd;"
d="M 181.3000,87.0000
181.3000,89.0000
180.4000,89.0000
180.4000,87.0000
Z" /> 
<path style="fill:#000000; fill-opacity:1.0000; stroke:none;fill-rule:evenodd;"
d="M 186.0500,83.0250
186.0303,83.2250
185.9720,83.4173
185.8773,83.5945
185.7498,83.7498
185.5945,83.8773
185.4173,83.9720
185.2250,84.0303
185.0250,84.0500
182.9750,84.0500
182.7750,84.0303
182.5827,83.9720
182.4055,83.8773
182.2502,83.7498
182.1227,83.5945
182.0280,83.4173
181.9697,83.2250
181.9500,83.0250
181.9500,80.9750
181.9697,80.7750
182.0280,80.5827
182.1227,80.4055
182.2502,80.2502
182.4055,80.1227
182.5827,80.0280
182.7750,79.9697
182.9750,79.9500
185.0250,79.9500
185.2250,79.9697
185.4173,80.0280
185.5945,80.1227
185.7498,80.2502
185.8773,80.4055
185.9720,80.5827
186.0303,80.7750
186.0500,80.9750
Z" /> 
</g>
<g style="fill:#000000; fill-opacity:1.0000; stroke:none;">
<circle cx="191.2000" cy="82.0000" r="2.0500" /> 
<path style="fill:#000000; fill-opacity:1.0000; stroke:none;fill-rule:evenodd;"
d="M 180.2000,48.0000
180.2000,46.0000
181.1000,46.0000
181.1000,48.0000
Z" /> 
<path style="fill:#000000; fill-opacity:1.0000; stroke:none;fill-rule:evenodd;"
d="M 193.7000,48.0000
193.7000,46.0000
194.6000,46.0000
194.6000,48.0000
Z" /> 
<path style="fill:#000000; fill-opacity:1.0000; stroke:none;fill-rule:evenodd;"
d="M 188.9500,51.9750
188.9697,51.7750
189.0280,51.5827
189.1227,51.4055
189.2502,51.2502
189.4055,51.1227
189.5827,51.0280
189.7750,50.9697
189.9750,50.9500
192.0250,50.9500
192.2250,50.9697
192.4173,51.0280
192.5945,51.1227
192.7498,51.2502
192.8773,51.4055
192.9720,51.5827
193.0303,51.7750
193.0500,51.9750
193.0500,54.0250
193.0303,54.2250
192.9720,54.4173
192.8773,54.5945
192.7498,54.7498
192.5945,54.8773
192.4173,54.9720
192.2250,55.0303
192.0250,55.0500
189.9750,55.0500
189.7750,55.0303
189.5827,54.9720
189.4055,54.8773
189.2502,54.7498
189.1227,54.5945
189.0280,54.4173
188.9697,54.2250
188.9500,54.0250
Z" /> 
</g>
<g style="fill:#000000; fill-opacity:1.0000; stroke:none;">
<circle cx="183.8000" cy="53.0000" r="2.0500" /> 
</g>
<g style="fill:none; 
stroke:#000000; stroke-width:1.0000; stroke-opacity:1; 
stroke-linecap:round; stroke-linejoin:round;">
<path d="M216.2100 70.5000
L214.0000 72.7100
" />
<path d="M223.0000 70.5000
L216.2100 70.5000
" />
<path d="M214.2500 75.5000
L214.0000 75.2500
" />
<path d="M207.5800 62.0000
L207.5800 59.5800
" />
<path d="M226.0000 75.5000
L226.0000 74.5000
" />
<path d="M217.0000 54.0000
L213.1600 54.0000
" />
<path d="M223.0000 75.5000
L226.0000 75.5000
" />
<path d="M226.0000 75.5000
L226.5000 76.0000
" />
<path d="M223.0000 75.5000
L214.2500 75.5000
" />
<path d="M226.5000 76.0000
L226.5000 84.5000
" />
<path d="M210.1600 70.5000
L210.1600 71.4100
" />
<path d="M210.1600 71.4100
L214.0000 75.2500
" />
<path d="M207.5800 59.5800
L202.0000 54.0000
" />
<path d="M213.1600 54.0000
L207.5800 59.5800
" />
<path d="M226.0000 74.5000
L231.0000 69.5000
" />
<path d="M210.1600 70.5000
L210.5000 70.5000
" />
</g>
<g style="fill:none; 
stroke:#000000; stroke-width:9.0000; stroke-opacity:1; 
stroke-linecap:round; stroke-linejoin:round;">
<path d="M189.8466 62.0000
L197.4200 62.0000
" />
</g>
<g style="fill:none; 
stroke:#000000; stroke-width:7.0000; stroke-opacity:1; 
stroke-linecap:round; stroke-linejoin:round;">
<path d="M187.4500 64.3966
L189.8466 62.0000
" />
</g>
<g style="fill:none; 
stroke:#000000; stroke-width:9.0000; stroke-opacity:1; 
stroke-linecap:round; stroke-linejoin:round;">
<path d="M183.8000 53.0000
L183.8000 55.9534
" />
</g>
<g style="fill:none; 
stroke:#000000; stroke-width:7.0000; stroke-opacity:1; 
stroke-linecap:round; stroke-linejoin:round;">
<path d="M187.4500 75.5000
L187.4500 64.3966
" />
</g>
<g style="fill:none; 
stroke:#000000; stroke-width:9.0000; stroke-opacity:1; 
stroke-linecap:round; stroke-linejoin:round;">
<path d="M183.8000 55.9534
L189.8466 62.0000
" />
</g>
<g style="fill:none; 
stroke:#000000; stroke-width:1.0000; stroke-opacity:1; 
stroke-linecap:round; stroke-linejoin:round;">
<path d="M200.0000 77.5400
L213.7500 77.5400
" />
<path d="M213.7500 77.5400
L214.0000 77.7900
" />
<path d="M200.0000 70.5000
L200.0000 75.0000
" />
<path style="fill:#000000; fill-opacity:1.0000; stroke:none;fill-rule:evenodd;"
d="M 179.7680,45.5202
179.8138,45.5730
179.8237,45.6421
179.8003,45.6988
179.7802,45.7256
179.7562,45.7577
179.7562,45.7577
179.7059,45.8925
179.6995,45.9521
179.6995,45.9521
179.6995,45.9521
179.6995,48.0479
179.6995,48.0479
179.7059,48.1075
179.7562,48.2423
179.7562,48.2423
179.8425,48.3575
179.8425,48.3575
179.9577,48.4438
179.9577,48.4438
180.0925,48.4941
180.0925,48.4941
180.0994,48.4948
180.1521,48.5005
181.1296,48.5005
181.1966,48.5202
181.2424,48.5730
181.2523,48.6421
181.2233,48.7057
181.1916,48.7319
181.1107,48.7786
181.1107,48.7786
180.7530,49.0291
180.4185,49.3097
180.1097,49.6185
179.8291,49.9530
179.5786,50.3107
179.5786,50.3107
179.3603,50.6888
179.3603,50.6888
179.1757,51.0846
179.1757,51.0846
179.0264,51.4949
178.9134,51.9167
178.9134,51.9167
178.8376,52.3467
178.8376,52.3467
178.7995,52.7817
178.7995,56.1717
178.8063,56.2500
178.8376,56.6067
178.9068,56.9995
178.9134,57.0367
178.9134,57.0367
179.0264,57.4585
179.1757,57.8688
179.1757,57.8688
179.3603,58.2646
179.3603,58.2646
179.5786,58.6427
179.7959,58.9530
179.8291,59.0004
180.1097,59.3349
183.6622,62.8874
183.6957,62.9487
183.6907,63.0184
183.6891,63.0225
183.6788,63.0473
183.5647,63.4234
183.5647,63.4234
183.5072,63.7125
183.4880,63.8089
183.4880,63.8089
183.4495,64.2001
183.4495,67.0966
183.4298,67.1636
183.3770,67.2094
183.3079,67.2193
183.2717,67.2083
183.0730,67.1126
183.0730,67.1126
182.8295,67.0375
182.8295,67.0375
182.8295,67.0375
182.7082,67.0192
182.5774,66.9995
182.5774,66.9995
182.3226,66.9995
182.3226,66.9995
182.1656,67.0232
182.0705,67.0375
182.0705,67.0375
182.0705,67.0375
181.8270,67.1126
181.5974,67.2232
181.5974,67.2232
181.3868,67.3668
181.2000,67.5401
181.2000,67.5401
181.0410,67.7394
180.9136,67.9601
180.8205,68.1974
180.8205,68.1974
180.7638,68.4458
180.7447,68.7000
180.7447,68.7000
180.7638,68.9542
180.7638,68.9542
180.8205,69.2026
180.9136,69.4399
181.0410,69.6606
181.2000,69.8599
181.3868,70.0332
181.5974,70.1768
181.5974,70.1768
181.5974,70.1768
181.5974,70.1768
181.7193,70.2355
181.8270,70.2874
181.8270,70.2874
181.8270,70.2874
182.0705,70.3625
182.3226,70.4005
182.5774,70.4005
182.8295,70.3625
183.0730,70.2874
183.2717,70.1917
183.3406,70.1803
183.4048,70.2081
183.4437,70.2661
183.4495,70.3034
183.4495,72.6283
183.4298,72.6953
183.3770,72.7411
183.3122,72.7515
183.2978,72.7500
182.2500,72.7500
182.2500,74.7918
182.2188,74.7788
182.0739,74.7500
181.9261,74.7500
181.7812,74.7788
181.7500,74.7918
181.7500,72.7500
180.7022,72.7500
180.6426,72.7564
180.6426,72.7564
180.5079,72.8066
180.5079,72.8066
180.3928,72.8928
180.3928,72.8928
180.3066,73.0079
180.3066,73.0079
180.2564,73.1426
180.2564,73.1426
180.2500,73.2022
180.2500,75.2500
181.2918,75.2500
181.2788,75.2812
181.2500,75.4261
181.2500,75.5739
181.2788,75.7188
181.2918,75.7500
180.2500,75.7500
180.2500,77.7978
180.2564,77.8574
180.2564,77.8574
180.3066,77.9921
180.3066,77.9921
180.3928,78.1072
180.3928,78.1072
180.5079,78.1933
180.5079,78.1934
180.6426,78.2436
180.6426,78.2436
180.7022,78.2500
180.7022,78.2500
181.7500,78.2500
181.7500,76.2082
181.7812,76.2212
181.9261,76.2500
182.0739,76.2500
182.2188,76.2212
182.2500,76.2082
182.2500,78.2500
183.2978,78.2500
183.2978,78.2500
183.3574,78.2436
183.3574,78.2436
183.4921,78.1934
183.4921,78.1933
183.6072,78.1072
183.6072,78.1072
183.6933,77.9921
183.6934,77.9921
183.7436,77.8574
183.7436,77.8574
183.7500,77.7978
183.7500,77.7978
183.7500,77.5593
183.7697,77.4923
183.8225,77.4465
183.8916,77.4366
183.9552,77.4656
183.9834,77.5008
184.0145,77.5591
184.0145,77.5592
184.0145,77.5592
184.2329,77.8860
184.2329,77.8860
184.4823,78.1898
184.7602,78.4677
184.7602,78.4677
184.7602,78.4677
185.0640,78.7171
185.3909,78.9355
185.3909,78.9355
185.3909,78.9355
185.7375,79.1208
185.7375,79.1208
185.7375,79.1208
186.1006,79.2712
186.4768,79.3853
186.4768,79.3853
186.4768,79.3853
186.4768,79.3853
186.8535,79.4602
186.8623,79.4620
187.2535,79.5005
187.2535,79.5005
187.6465,79.5005
187.6465,79.5005
188.0377,79.4620
188.1127,79.4470
188.4232,79.3853
188.4232,79.3853
188.4232,79.3853
188.4232,79.3853
188.7994,79.2712
189.1625,79.1208
189.5091,78.9355
189.8360,78.7171
190.1398,78.4677
190.4177,78.1898
190.6671,77.8860
190.8855,77.5591
191.0708,77.2125
191.0710,77.2119
191.0711,77.2118
191.0721,77.2097
191.0726,77.2100
191.1148,77.1575
191.1811,77.1354
191.2488,77.1527
191.2965,77.2038
191.3001,77.2119
191.3267,77.2759
191.3267,77.2759
191.4414,77.4746
191.5811,77.6567
191.5811,77.6567
191.7433,77.8189
191.7433,77.8189
191.9254,77.9586
191.9254,77.9586
191.9254,77.9586
192.1241,78.0733
192.1241,78.0733
192.1241,78.0733
192.2058,78.1072
192.3361,78.1612
192.5578,78.2205
192.7743,78.2491
192.7815,78.2500
192.7853,78.2505
192.7853,78.2505
193.0147,78.2505
193.0147,78.2505
193.2422,78.2205
193.4639,78.1612
193.6759,78.0733
193.8746,77.9586
194.0567,77.8189
194.0567,77.8189
194.0567,77.8189
194.2189,77.6567
194.2189,77.6567
194.2189,77.6567
194.3084,77.5400
198.5947,77.5400
198.5947,77.5400
198.6139,77.7713
198.6139,77.7713
198.6708,77.9963
198.7641,78.2088
198.8910,78.4031
198.8910,78.4032
198.8910,78.4032
199.0482,78.5739
199.0482,78.5739
199.0482,78.5739
199.2314,78.7165
199.2314,78.7165
199.2314,78.7165
199.4355,78.8269
199.5495,78.8661
199.6550,78.9023
199.6550,78.9023
199.6550,78.9023
199.8840,78.9405
199.8840,78.9405
200.1160,78.9405
200.1160,78.9405
200.3450,78.9023
200.5645,78.8269
200.7686,78.7165
200.9518,78.5739
200.9518,78.5739
200.9525,78.5733
200.9528,78.5731
200.9558,78.5708
200.9563,78.5714
201.0151,78.5423
201.0365,78.5405
212.9197,78.5405
212.9868,78.5602
213.0213,78.5934
213.0292,78.6046
213.0292,78.6046
213.0292,78.6046
213.1854,78.7608
213.1854,78.7608
213.1854,78.7608
213.3663,78.8875
213.3663,78.8875
213.3663,78.8875
213.5665,78.9809
213.7799,79.0381
213.9371,79.0518
214.0000,79.0573
214.0000,79.0573
214.0000,79.0573
214.0550,79.0525
214.2201,79.0381
214.4334,78.9809
214.6337,78.8875
214.8146,78.7608
214.9708,78.6046
215.0975,78.4237
215.1909,78.2234
215.2481,78.0101
215.2673,77.7900
215.2657,77.7713
215.2557,77.6567
215.2481,77.5699
215.2293,77.5000
234.7944,77.5000
234.7944,77.5000
234.8149,77.7215
234.8149,77.7215
234.8758,77.9355
234.8758,77.9355
234.9749,78.1347
234.9749,78.1347
235.1090,78.3122
235.2734,78.4621
235.2734,78.4621
235.4626,78.5792
235.4626,78.5792
235.4626,78.5792
235.6701,78.6596
235.8888,78.7005
235.8888,78.7005
236.1112,78.7005
236.1112,78.7005
236.3299,78.6596
236.5374,78.5792
236.7266,78.4621
236.8910,78.3122
237.0251,78.1347
237.1242,77.9355
237.1851,77.7215
237.2056,77.5000
237.2033,77.4746
237.1851,77.2785
237.1851,77.2785
237.1844,77.2759
237.1242,77.0645
237.0799,76.9754
237.0251,76.8653
237.0251,76.8653
236.8910,76.6878
236.7266,76.5379
236.7266,76.5379
236.5374,76.4208
236.5374,76.4208
236.3299,76.3404
236.1112,76.2995
235.8888,76.2995
235.6701,76.3404
235.5840,76.3737
235.4626,76.4208
235.4626,76.4208
235.2734,76.5379
235.2734,76.5379
235.1090,76.6878
234.9749,76.8653
234.9749,76.8653
234.8758,77.0645
234.8758,77.0645
234.8149,77.2785
234.8149,77.2785
234.7944,77.5000
215.2293,77.5000
215.1909,77.3565
215.0975,77.1563
214.9708,76.9754
214.8146,76.8192
214.8146,76.8192
214.8146,76.8192
214.6337,76.6925
214.6337,76.6925
214.5042,76.6321
214.4518,76.5859
214.4326,76.5187
214.4528,76.4519
214.5042,76.4073
214.6334,76.3471
214.6334,76.3471
214.6982,76.3017
214.0274,75.6310
214.0502,75.6310
214.1471,75.6050
214.2339,75.5549
214.3049,75.4839
214.3550,75.3971
214.3810,75.3002
214.3810,75.2774
215.0517,75.9482
215.0971,75.8834
215.0971,75.8834
215.1904,75.6833
215.1904,75.6833
215.2395,75.5000
221.6950,75.5000
221.6950,75.5000
221.7149,75.7266
221.7149,75.7266
221.7737,75.9463
221.7737,75.9463
221.8699,76.1525
221.9210,76.2255
222.6000,75.5464
222.6000,75.5527
222.6273,75.6544
222.6799,75.7456
222.7544,75.8201
222.8456,75.8727
222.9473,75.9000
222.9536,75.9000
222.2745,76.5790
222.3475,76.6301
222.3475,76.6301
222.5537,76.7263
222.5537,76.7263
222.7734,76.7851
222.7734,76.7851
223.0000,76.8050
223.0000,76.8050
223.2266,76.7851
223.2266,76.7851
223.4463,76.7263
223.4463,76.7263
223.6525,76.6301
223.7255,76.5790
223.0464,75.9000
223.0527,75.9000
223.1544,75.8727
223.2456,75.8201
223.3201,75.7456
223.3727,75.6544
223.4000,75.5527
223.4000,75.5464
224.0790,76.2255
224.1301,76.1525
224.2263,75.9463
224.2263,75.9463
224.2851,75.7266
224.2851,75.7266
224.3050,75.5000
224.3050,75.5000
224.2851,75.2734
224.2851,75.2734
224.2263,75.0537
224.2263,75.0537
224.1301,74.8475
224.1301,74.8475
224.0790,74.7745
223.4000,75.4536
223.4000,75.4473
223.3727,75.3456
223.3201,75.2544
223.2456,75.1799
223.1544,75.1273
223.0527,75.1000
223.0464,75.1000
223.6465,74.5000
228.7447,74.5000
228.7447,74.5000
228.7640,74.7944
228.7640,74.7944
228.7640,74.7944
228.8081,75.0161
228.8215,75.0837
228.8215,75.0837
228.9163,75.3631
229.0468,75.6277
229.0468,75.6277
229.2107,75.8730
229.4052,76.0948
229.6270,76.2893
229.8238,76.4208
229.8723,76.4532
230.1369,76.5837
230.4163,76.6785
230.7056,76.7360
230.7339,76.7379
231.0000,76.7553
231.0000,76.7553
231.0000,76.7553
231.2357,76.7399
231.2944,76.7360
231.5837,76.6785
231.8631,76.5837
232.1277,76.4532
232.3730,76.2893
232.5948,76.0948
232.7893,75.8730
232.9532,75.6277
233.0837,75.3631
233.1785,75.0837
233.2360,74.7944
233.2477,74.6166
233.2553,74.5000
233.2553,74.5000
233.2366,74.2149
233.2360,74.2056
233.1785,73.9163
233.0837,73.6369
232.9532,73.3723
232.9340,73.3437
232.8254,73.1811
232.7893,73.1270
232.7142,73.0414
232.5948,72.9052
232.3730,72.7107
232.1277,72.5468
232.1277,72.5468
231.8631,72.4163
231.5837,72.3215
231.5837,72.3215
231.5837,72.3215
231.2944,72.2640
231.2944,72.2640
231.2944,72.2640
231.0000,72.2447
231.0000,72.2447
230.7056,72.2640
230.7056,72.2640
230.7056,72.2640
230.7056,72.2640
230.7056,72.2640
230.4163,72.3215
230.4163,72.3215
230.1369,72.4163
229.8723,72.5468
229.6270,72.7107
229.4052,72.9052
229.2107,73.1270
229.0468,73.3723
228.9163,73.6369
228.8215,73.9163
228.8215,73.9163
228.7640,74.2056
228.7640,74.2056
228.7447,74.5000
223.6465,74.5000
223.7255,74.4210
223.6525,74.3699
223.4463,74.2737
223.4463,74.2737
223.2266,74.2149
223.2266,74.2149
223.0000,74.1950
223.0000,74.1950
222.7734,74.2149
222.7734,74.2149
222.5537,74.2737
222.5537,74.2737
222.3475,74.3699
222.3475,74.3699
222.2745,74.4210
222.2745,74.4210
222.9536,75.1000
222.9473,75.1000
222.8456,75.1273
222.7544,75.1799
222.6799,75.2544
222.6273,75.3456
222.6000,75.4473
222.6000,75.4536
221.9210,74.7745
221.9210,74.7745
221.8699,74.8475
221.8699,74.8475
221.7737,75.0537
221.7737,75.0537
221.7149,75.2734
221.7149,75.2734
221.6950,75.5000
215.2395,75.5000
215.2476,75.4700
215.2476,75.4700
215.2668,75.2500
215.2668,75.2500
215.2476,75.0300
215.2476,75.0300
215.1904,74.8167
215.1904,74.8167
215.0971,74.6166
215.0517,74.5518
215.0517,74.5518
214.3810,75.2226
214.3810,75.1998
214.3550,75.1029
214.3049,75.0161
214.2339,74.9451
214.1471,74.8950
214.0502,74.8690
214.0274,74.8690
214.6982,74.1983
214.6982,74.1983
214.6334,74.1529
214.6334,74.1529
214.5042,74.0927
214.4518,74.0465
214.4326,73.9793
214.4528,73.9124
214.5042,73.8679
214.5261,73.8577
214.6337,73.8075
214.8146,73.6808
214.9708,73.5246
215.0975,73.3437
215.1909,73.1435
215.2481,72.9301
215.2492,72.9167
215.2747,72.8516
215.2851,72.8398
216.5881,71.5368
216.6494,71.5033
216.6758,71.5005
222.1224,71.5005
222.1895,71.5202
222.1935,71.5229
222.3473,71.6306
222.5535,71.7267
222.7733,71.7856
222.9352,71.7998
223.0000,71.8055
223.0000,71.8055
223.0000,71.8055
223.0567,71.8005
223.2267,71.7856
223.4465,71.7267
223.6527,71.6306
223.8391,71.5000
224.0000,71.3391
224.1306,71.1527
224.2267,70.9465
224.2856,70.7267
224.3055,70.5000
224.2856,70.2733
224.2267,70.0535
224.1306,69.8473
224.0000,69.6609
224.0000,69.6609
223.8391,69.5000
223.6527,69.3694
223.6527,69.3694
223.4465,69.2733
223.4465,69.2733
223.2267,69.2144
223.2267,69.2144
223.2267,69.2144
223.2267,69.2144
223.2267,69.2144
223.0000,69.1945
223.0000,69.1945
222.7733,69.2144
222.7733,69.2144
222.5535,69.2733
222.5535,69.2733
222.3473,69.3694
222.3473,69.3694
222.1935,69.4771
222.1273,69.4994
222.1224,69.4995
216.1115,69.4995
216.0148,69.5187
215.9182,69.5379
215.9182,69.5379
215.8648,69.5600
215.8648,69.5600
215.8193,69.5789
215.7361,69.6134
215.7361,69.6134
215.5722,69.7229
215.5180,69.7771
215.4329,69.8622
215.4329,69.8622
213.8702,71.4249
213.8088,71.4584
213.7933,71.4608
213.7799,71.4619
213.7799,71.4619
213.5666,71.5191
213.5665,71.5191
213.3663,71.6125
213.3663,71.6125
213.1854,71.7392
213.0292,71.8954
212.9025,72.0763
212.9025,72.0763
212.8091,72.2765
212.8091,72.2766
212.7519,72.4899
212.7519,72.4899
212.7327,72.7100
212.7327,72.7100
212.7519,72.9301
212.7519,72.9301
212.8091,73.1434
212.8091,73.1434
212.8091,73.1435
212.8583,73.2489
212.9025,73.3437
212.9025,73.3437
213.0292,73.5246
213.0292,73.5246
213.1854,73.6808
213.1854,73.6808
213.3663,73.8075
213.3663,73.8075
213.3663,73.8075
213.4739,73.8577
213.4958,73.8679
213.5482,73.9141
213.5674,73.9813
213.5472,74.0481
213.4958,74.0927
213.3666,74.1529
213.3018,74.1983
213.9726,74.8690
213.9498,74.8690
213.8529,74.8950
213.7661,74.9451
213.6951,75.0161
213.6450,75.1029
213.6190,75.1998
213.6190,75.2226
212.9483,74.5518
212.9029,74.6166
212.8096,74.8167
212.8096,74.8167
212.7524,75.0300
212.7524,75.0300
212.7332,75.2500
212.7332,75.2500
212.7524,75.4700
212.7524,75.4700
212.8096,75.6833
212.8096,75.6833
212.9029,75.8834
212.9029,75.8834
212.9483,75.9482
212.9483,75.9482
213.6190,75.2774
213.6190,75.3002
213.6450,75.3971
213.6951,75.4839
213.7661,75.5549
213.8529,75.6050
213.9498,75.6310
213.9726,75.6310
213.3018,76.3017
213.3192,76.3139
213.3628,76.3685
213.3700,76.4380
213.3385,76.5004
213.2783,76.5358
213.2481,76.5395
201.2535,76.5395
201.1864,76.5198
201.1407,76.4670
201.1307,76.3979
201.1597,76.3343
201.1791,76.3162
201.2255,76.2815
201.2575,76.2575
201.3438,76.1423
201.3941,76.0075
201.4005,75.9479
201.4005,74.0521
201.3941,73.9925
201.3899,73.9813
201.3438,73.8577
201.3438,73.8577
201.2575,73.7425
201.2575,73.7425
201.1423,73.6562
201.1423,73.6562
201.0812,73.6334
201.0252,73.5915
201.0008,73.5261
201.0005,73.5172
201.0005,71.3776
201.0202,71.3105
201.0229,71.3065
201.1306,71.1527
201.2267,70.9465
201.2856,70.7267
201.3055,70.5000
201.2856,70.2733
201.2794,70.2500
208.8811,70.2500
208.8811,70.2500
209.8443,70.2500
209.8399,70.2544
209.7873,70.3456
209.7600,70.4473
209.7600,70.5527
209.7873,70.6544
209.8399,70.7456
209.8443,70.7500
208.8811,70.7500
208.9337,70.9463
208.9337,70.9463
209.0299,71.1525
209.1603,71.3388
209.3212,71.4997
209.5075,71.6301
209.7137,71.7263
209.7137,71.7263
209.9100,71.7789
209.9100,71.7789
209.9100,70.8157
209.9144,70.8201
210.0056,70.8727
210.1073,70.9000
210.2127,70.9000
210.3144,70.8727
210.4056,70.8201
210.4100,70.8157
210.4100,71.7789
210.6063,71.7263
210.6063,71.7263
210.8125,71.6301
210.9988,71.4997
211.1597,71.3388
211.2901,71.1525
211.3863,70.9463
211.3863,70.9463
211.4389,70.7500
210.4757,70.7500
210.4801,70.7456
210.5327,70.6544
210.5600,70.5527
210.5600,70.4473
210.5327,70.3456
210.4801,70.2544
210.4757,70.2500
211.4389,70.2500
211.4389,70.2500
211.3863,70.0537
211.3863,70.0537
211.2901,69.8475
211.1597,69.6612
210.9988,69.5003
210.8125,69.3699
210.6063,69.2737
210.4100,69.2211
210.4100,70.1843
210.4056,70.1799
210.3144,70.1273
210.2127,70.1000
210.1073,70.1000
210.0056,70.1273
209.9144,70.1799
209.9100,70.1843
209.9100,69.2211
209.7137,69.2737
209.5075,69.3699
209.3212,69.5003
209.1603,69.6612
209.0299,69.8475
208.9337,70.0537
208.9337,70.0537
208.8811,70.2500
201.2794,70.2500
201.2267,70.0535
201.1306,69.8473
201.0000,69.6609
201.0000,69.6609
200.8391,69.5000
200.6527,69.3694
200.6527,69.3694
200.4465,69.2733
200.4465,69.2733
200.2267,69.2144
200.2267,69.2144
200.2267,69.2144
200.2267,69.2144
200.2267,69.2144
200.0000,69.1945
200.0000,69.1945
199.7733,69.2144
199.7733,69.2144
199.5535,69.2733
199.5535,69.2733
199.3473,69.3694
199.3473,69.3694
199.1609,69.5000
199.0000,69.6609
198.8694,69.8473
198.8694,69.8473
198.7733,70.0535
198.7733,70.0535
198.7144,70.2733
198.7144,70.2733
198.6945,70.5000
198.6945,70.5000
198.7144,70.7267
198.7144,70.7267
198.7733,70.9465
198.7733,70.9465
198.8694,71.1527
198.9706,71.2972
198.9771,71.3065
198.9994,71.3727
198.9995,71.3776
198.9995,73.5172
198.9798,73.5842
198.9270,73.6300
198.9188,73.6334
198.8577,73.6562
198.8577,73.6562
198.7425,73.7425
198.7425,73.7425
198.6562,73.8577
198.6562,73.8577
198.6059,73.9925
198.5995,74.0521
198.5995,74.0521
198.5995,74.0521
198.5995,75.9479
198.5995,75.9479
198.6059,76.0075
198.6562,76.1423
198.6562,76.1423
198.7425,76.2575
198.7425,76.2575
198.8577,76.3438
198.8577,76.3438
198.9379,76.3737
198.9938,76.4156
199.0183,76.4811
199.0034,76.5493
198.9858,76.5739
198.8910,76.6768
198.7641,76.8712
198.6708,77.0837
198.6139,77.3087
198.6139,77.3087
198.5947,77.5400
194.3084,77.5400
194.3586,77.4746
194.4733,77.2759
194.5612,77.0639
194.6205,76.8422
194.6505,76.6147
194.6505,74.3853
194.6205,74.1578
194.5612,73.9361
194.4733,73.7241
194.3586,73.5254
194.3586,73.5254
194.3586,73.5254
194.2189,73.3433
194.2189,73.3433
194.0567,73.1811
194.0567,73.1811
193.8746,73.0414
193.6759,72.9267
193.6759,72.9266
193.4639,72.8388
193.2422,72.7795
193.2042,72.7744
193.0147,72.7495
193.0147,72.7495
192.7853,72.7495
192.7853,72.7495
192.5687,72.7780
192.5578,72.7795
192.4641,72.8046
192.3361,72.8388
192.1241,72.9266
192.1241,72.9267
191.9254,73.0414
191.7433,73.1811
191.6622,73.2622
191.6009,73.2957
191.5312,73.2907
191.4752,73.2489
191.4508,73.1834
191.4505,73.1746
191.4505,70.3034
191.4702,70.2364
191.5230,70.1906
191.5921,70.1807
191.6283,70.1917
191.8270,70.2874
192.0705,70.3625
192.3226,70.4005
192.5774,70.4005
192.8295,70.3625
193.0730,70.2874
193.3026,70.1768
193.5132,70.0332
193.7001,69.8599
193.8590,69.6606
193.9864,69.4399
194.0795,69.2026
194.1362,68.9542
194.1444,68.8452
194.1553,68.7000
194.1553,68.7000
194.1369,68.4548
228.7500,68.4548
228.7500,69.2500
230.0811,69.2500
230.0500,69.4064
230.0500,69.5936
230.0811,69.7500
228.7500,69.7500
228.7500,70.5452
228.7606,70.6795
228.8164,70.9012
228.9110,71.1093
228.9110,71.1093
229.0412,71.2972
229.2028,71.4588
229.3907,71.5890
229.3907,71.5890
229.5988,71.6836
229.8205,71.7394
229.9548,71.7500
230.7500,71.7500
230.7500,71.7500
230.7500,70.4189
230.9064,70.4500
231.0936,70.4500
231.2500,70.4189
231.2500,71.7500
232.0452,71.7500
232.0452,71.7500
232.1795,71.7394
232.4012,71.6836
232.6093,71.5890
232.6093,71.5890
232.7972,71.4588
232.9588,71.2972
233.0890,71.1093
233.0890,71.1093
233.1836,70.9012
233.2394,70.6795
233.2500,70.5452
233.2500,70.5452
233.2500,69.7500
231.9189,69.7500
231.9500,69.5936
231.9500,69.4064
231.9189,69.2500
233.2500,69.2500
233.2500,68.4548
233.2500,68.4548
233.2394,68.3205
233.1836,68.0988
233.0890,67.8907
233.0890,67.8907
232.9588,67.7028
232.7972,67.5412
232.6093,67.4110
232.6093,67.4110
232.4012,67.3164
232.1795,67.2606
232.0452,67.2500
231.2500,67.2500
231.2500,68.5811
231.0936,68.5500
230.9064,68.5500
230.7500,68.5811
230.7500,67.2500
229.9548,67.2500
229.9548,67.2500
229.8205,67.2606
229.5988,67.3164
229.3907,67.4110
229.3907,67.4110
229.2028,67.5412
229.0412,67.7028
228.9110,67.8907
228.9110,67.8907
228.8164,68.0988
228.7606,68.3205
228.7500,68.4548
194.1369,68.4548
194.1362,68.4458
194.0795,68.1974
194.0795,68.1974
193.9864,67.9601
193.8590,67.7394
193.7001,67.5401
193.5132,67.3668
193.3081,67.2270
193.2638,67.1729
193.2558,67.1035
193.2865,67.0408
193.3463,67.0046
193.3780,67.0005
197.6383,67.0005
197.6383,67.0005
198.0733,66.9624
198.5033,66.8866
198.9251,66.7736
199.3354,66.6243
199.6019,66.5000
234.7944,66.5000
234.7944,66.5000
234.8149,66.7215
234.8149,66.7215
234.8758,66.9355
234.8758,66.9355
234.9749,67.1347
234.9749,67.1347
235.1090,67.3122
235.2734,67.4621
235.2734,67.4621
235.4626,67.5792
235.4626,67.5792
235.4626,67.5792
235.6701,67.6596
235.8888,67.7005
235.8888,67.7005
236.1112,67.7005
236.1112,67.7005
236.3299,67.6596
236.5374,67.5792
236.7266,67.4621
236.8910,67.3122
237.0251,67.1347
237.1242,66.9355
237.1851,66.7215
237.2056,66.5000
237.1851,66.2785
237.1242,66.0645
237.0777,65.9709
237.0251,65.8653
237.0251,65.8653
236.8910,65.6878
236.7266,65.5379
236.7266,65.5379
236.5374,65.4208
236.5374,65.4208
236.3299,65.3404
236.1112,65.2995
235.8888,65.2995
235.6701,65.3404
235.5639,65.3815
235.4626,65.4208
235.4626,65.4208
235.2734,65.5379
235.2734,65.5379
235.1090,65.6878
234.9749,65.8653
234.9749,65.8653
234.8758,66.0645
234.8758,66.0645
234.8149,66.2785
234.8149,66.2785
234.7944,66.5000
199.6019,66.5000
199.7312,66.4397
200.1093,66.2214
200.4670,65.9709
200.8015,65.6903
201.1103,65.3815
201.3909,65.0470
201.6414,64.6893
201.8597,64.3112
202.0443,63.9154
202.1936,63.5051
202.3066,63.0833
202.3824,62.6533
202.4205,62.2183
202.4205,61.7817
202.4177,61.7500
206.3011,61.7500
206.3011,61.7500
207.2643,61.7500
207.2599,61.7544
207.2073,61.8456
207.1800,61.9473
207.1800,62.0527
207.2073,62.1544
207.2599,62.2456
207.2643,62.2500
206.3011,62.2500
206.3537,62.4463
206.3537,62.4463
206.4499,62.6525
206.5803,62.8388
206.7412,62.9997
206.9275,63.1301
207.1337,63.2263
207.1337,63.2263
207.3300,63.2789
207.3300,63.2789
207.3300,62.3157
207.3344,62.3201
207.4256,62.3727
207.5273,62.4000
207.6327,62.4000
207.7344,62.3727
207.8256,62.3201
207.8300,62.3157
207.8300,63.2789
208.0263,63.2263
208.0263,63.2263
208.2325,63.1301
208.4188,62.9997
208.5797,62.8388
208.7101,62.6525
208.8063,62.4463
208.8063,62.4463
208.8589,62.2500
207.8957,62.2500
207.9001,62.2456
207.9527,62.1544
207.9800,62.0527
207.9800,61.9473
207.9527,61.8456
207.9001,61.7544
207.8957,61.7500
208.8589,61.7500
208.8589,61.7500
208.8063,61.5537
208.8063,61.5537
208.7101,61.3475
208.5797,61.1612
208.4188,61.0003
208.2325,60.8699
208.0263,60.7737
207.8300,60.7211
207.8300,61.6843
207.8256,61.6799
207.7344,61.6273
207.6327,61.6000
207.5273,61.6000
207.4256,61.6273
207.3344,61.6799
207.3300,61.6843
207.3300,60.7211
207.1337,60.7737
206.9275,60.8699
206.7412,61.0003
206.5803,61.1612
206.4499,61.3475
206.3537,61.5537
206.3537,61.5537
206.3011,61.7500
202.4177,61.7500
202.3824,61.3467
202.3066,60.9167
202.1936,60.4949
202.0443,60.0846
201.8597,59.6888
201.6414,59.3107
201.6414,59.3107
201.6414,59.3107
201.3909,58.9530
201.2270,58.7576
201.1103,58.6185
200.8015,58.3097
200.7088,58.2319
200.4670,58.0291
200.1093,57.7786
200.1093,57.7786
200.1093,57.7786
199.9970,57.7137
199.7312,57.5603
199.7312,57.5603
199.3354,57.3757
199.3354,57.3757
199.3354,57.3757
199.1813,57.3196
198.9251,57.2264
198.5033,57.1134
198.5033,57.1134
198.5033,57.1134
198.5033,57.1134
198.5033,57.1134
198.0733,57.0376
197.6383,56.9995
197.6383,56.9995
191.9692,56.9995
191.9022,56.9798
191.8816,56.9632
190.6801,55.7617
190.6466,55.7004
190.6516,55.6307
190.6934,55.5747
190.7442,55.5558
190.7500,55.5500
190.7500,54.3272
190.8938,54.3500
191.1062,54.3500
191.2500,54.3272
191.2500,55.5500
192.0953,55.5500
192.0953,55.5500
192.2400,55.5398
192.2400,55.5398
192.4802,55.4857
192.4802,55.4857
192.7086,55.3938
192.9193,55.2664
192.9193,55.2664
193.1068,55.1068
193.2664,54.9193
193.2664,54.9193
193.3938,54.7086
193.4857,54.4802
193.4857,54.4802
193.5398,54.2400
193.5398,54.2400
193.5500,54.0953
193.5500,54.0953
193.5500,53.2500
192.3272,53.2500
192.3500,53.1062
192.3500,52.8938
192.3272,52.7500
193.5500,52.7500
193.5500,52.2022
199.7500,52.2022
199.7500,53.7500
201.0811,53.7500
201.0500,53.9064
201.0500,54.0936
201.0811,54.2500
199.7500,54.2500
199.7500,55.7978
199.7564,55.8574
199.7564,55.8574
199.8066,55.9921
199.8066,55.9921
199.8928,56.1072
199.8928,56.1072
200.0079,56.1933
200.0079,56.1934
200.1426,56.2436
200.1426,56.2436
200.2022,56.2500
200.2022,56.2500
201.7500,56.2500
201.7500,54.9189
201.9064,54.9500
202.0936,54.9500
202.2500,54.9189
202.2500,56.2500
203.7978,56.2500
203.7978,56.2500
203.8574,56.2436
203.8574,56.2436
203.9921,56.1934
203.9921,56.1933
204.1072,56.1072
204.1072,56.1072
204.1933,55.9921
204.1934,55.9921
204.2436,55.8574
204.2436,55.8574
204.2500,55.7978
204.2500,55.7978
204.2500,54.2500
202.9189,54.2500
202.9500,54.0936
202.9500,54.0000
204.7447,54.0000
204.7447,54.0000
204.7640,54.2944
204.7640,54.2944
204.7640,54.2944
204.8009,54.4802
204.8215,54.5837
204.8215,54.5837
204.9163,54.8631
205.0468,55.1277
205.0468,55.1277
205.2107,55.3730
205.4052,55.5948
205.6270,55.7893
205.8723,55.9532
205.8723,55.9532
206.1369,56.0837
206.4163,56.1785
206.7056,56.2360
206.7339,56.2379
207.0000,56.2553
207.0000,56.2553
207.0000,56.2553
207.2425,56.2394
207.2944,56.2360
207.5837,56.1785
207.8631,56.0837
208.1277,55.9532
208.3730,55.7893
208.5948,55.5948
208.7893,55.3730
208.9532,55.1277
209.0837,54.8631
209.1785,54.5837
209.2360,54.2944
209.2553,54.0000
209.2553,54.0000
209.2360,53.7056
209.2360,53.7056
209.1785,53.4163
209.0837,53.1369
208.9938,52.9548
214.7500,52.9548
214.7500,53.7500
216.0811,53.7500
216.0500,53.9064
216.0500,54.0936
216.0811,54.2500
214.7500,54.2500
214.7500,55.0452
214.7606,55.1795
214.8164,55.4012
214.9110,55.6093
214.9110,55.6093
215.0412,55.7972
215.2028,55.9588
215.3907,56.0890
215.3907,56.0890
215.5988,56.1836
215.8205,56.2394
215.9548,56.2500
216.7500,56.2500
216.7500,56.2500
216.7500,54.9189
216.9064,54.9500
217.0936,54.9500
217.2500,54.9189
217.2500,56.2500
218.0452,56.2500
218.0452,56.2500
218.1795,56.2394
218.4012,56.1836
218.6093,56.0890
218.6093,56.0890
218.7972,55.9588
218.9588,55.7972
219.0890,55.6093
219.0890,55.6093
219.1836,55.4012
219.2394,55.1795
219.2500,55.0452
219.2500,55.0452
219.2500,54.2500
217.9189,54.2500
217.9500,54.0936
217.9500,54.0000
219.7447,54.0000
219.7447,54.0000
219.7640,54.2944
219.7640,54.2944
219.7640,54.2944
219.8009,54.4802
219.8215,54.5837
219.8215,54.5837
219.9163,54.8631
220.0468,55.1277
220.0468,55.1277
220.2107,55.3730
220.4052,55.5948
220.6270,55.7893
220.8723,55.9532
220.8723,55.9532
221.1369,56.0837
221.4163,56.1785
221.7056,56.2360
221.7339,56.2379
222.0000,56.2553
222.0000,56.2553
222.0000,56.2553
222.2425,56.2394
222.2944,56.2360
222.5837,56.1785
222.8631,56.0837
223.1277,55.9532
223.3730,55.7893
223.5948,55.5948
223.7893,55.3730
223.9532,55.1277
224.0837,54.8631
224.1785,54.5837
224.2360,54.2944
224.2553,54.0000
224.2553,54.0000
224.2360,53.7056
224.2360,53.7056
224.1785,53.4163
224.0837,53.1369
223.9532,52.8723
223.7893,52.6270
223.7467,52.5784
223.5948,52.4052
223.3730,52.2107
223.1277,52.0468
223.1277,52.0468
222.8631,51.9163
222.5837,51.8215
222.5837,51.8215
222.5837,51.8215
222.2944,51.7640
222.2944,51.7640
222.2944,51.7640
222.0000,51.7447
222.0000,51.7447
221.7056,51.7640
221.7056,51.7640
221.7056,51.7640
221.7056,51.7640
221.7056,51.7640
221.4163,51.8215
221.4163,51.8215
221.1369,51.9163
220.8723,52.0468
220.6270,52.2107
220.4052,52.4052
220.2107,52.6270
220.0468,52.8723
219.9163,53.1369
219.8215,53.4163
219.8215,53.4163
219.7640,53.7056
219.7640,53.7056
219.7447,54.0000
217.9500,54.0000
217.9500,53.9064
217.9189,53.7500
219.2500,53.7500
219.2500,52.9548
219.2500,52.9548
219.2394,52.8205
219.1836,52.5988
219.0890,52.3907
219.0890,52.3907
218.9588,52.2028
218.7972,52.0412
218.6093,51.9110
218.6093,51.9110
218.4012,51.8164
218.1795,51.7606
218.0452,51.7500
217.2500,51.7500
217.2500,53.0811
217.0936,53.0500
216.9064,53.0500
216.7500,53.0811
216.7500,51.7500
215.9548,51.7500
215.9548,51.7500
215.8205,51.7606
215.5988,51.8164
215.3907,51.9110
215.3907,51.9110
215.2028,52.0412
215.0412,52.2028
214.9110,52.3907
214.9110,52.3907
214.8164,52.5988
214.7606,52.8205
214.7500,52.9548
208.9938,52.9548
208.9532,52.8723
208.7893,52.6270
208.7467,52.5784
208.5948,52.4052
208.3730,52.2107
208.1277,52.0468
208.1277,52.0468
207.8631,51.9163
207.5837,51.8215
207.5837,51.8215
207.5837,51.8215
207.2944,51.7640
207.2944,51.7640
207.2944,51.7640
207.0000,51.7447
207.0000,51.7447
206.7056,51.7640
206.7056,51.7640
206.7056,51.7640
206.7056,51.7640
206.7056,51.7640
206.4163,51.8215
206.4163,51.8215
206.1369,51.9163
205.8723,52.0468
205.6270,52.2107
205.4052,52.4052
205.2107,52.6270
205.0468,52.8723
204.9163,53.1369
204.8215,53.4163
204.8215,53.4163
204.7640,53.7056
204.7640,53.7056
204.7447,54.0000
202.9500,54.0000
202.9500,53.9064
202.9189,53.7500
204.2500,53.7500
204.2500,52.2022
204.2500,52.2022
204.2436,52.1426
204.2436,52.1426
204.1934,52.0079
204.1933,52.0079
204.1072,51.8928
204.1072,51.8928
203.9921,51.8066
203.9921,51.8066
203.8574,51.7564
203.8574,51.7564
203.7978,51.7500
202.2500,51.7500
202.2500,53.0811
202.0936,53.0500
201.9064,53.0500
201.7500,53.0811
201.7500,51.7500
200.2022,51.7500
200.1426,51.7564
200.1426,51.7564
200.0079,51.8066
200.0079,51.8066
199.8928,51.8928
199.8928,51.8928
199.8066,52.0079
199.8066,52.0079
199.7564,52.1426
199.7564,52.1426
199.7500,52.2022
193.5500,52.2022
193.5500,51.9047
193.5500,51.9047
193.5398,51.7600
193.5398,51.7600
193.4857,51.5198
193.4857,51.5198
193.3938,51.2914
193.2664,51.0807
193.2664,51.0807
193.1068,50.8932
192.9193,50.7336
192.9193,50.7336
192.7086,50.6062
192.4802,50.5143
192.4802,50.5143
192.2400,50.4602
192.2400,50.4602
192.0953,50.4500
191.2500,50.4500
191.2500,51.6728
191.1062,51.6500
190.8938,51.6500
190.7500,51.6728
190.7500,50.4500
189.9047,50.4500
189.7600,50.4602
189.7600,50.4602
189.5198,50.5143
189.5198,50.5143
189.2914,50.6062
189.0807,50.7336
189.0807,50.7336
188.8932,50.8932
188.7336,51.0807
188.7336,51.0807
188.6737,51.1799
188.6221,51.2271
188.5533,51.2389
188.4890,51.2116
188.4510,51.1581
188.4243,51.0846
188.4225,51.0807
188.2397,50.6888
188.2397,50.6888
188.1390,50.5143
188.0214,50.3107
188.0214,50.3107
188.0214,50.3107
187.7709,49.9530
187.6070,49.7576
187.4903,49.6185
187.1815,49.3097
187.0266,49.1798
186.8470,49.0291
186.8055,49.0000
197.7944,49.0000
197.7944,49.0000
197.8149,49.2215
197.8149,49.2215
197.8758,49.4355
197.8758,49.4355
197.9749,49.6347
197.9749,49.6347
198.1090,49.8122
198.2734,49.9621
198.2734,49.9621
198.4626,50.0792
198.4626,50.0792
198.4626,50.0792
198.6701,50.1596
198.8888,50.2005
198.8888,50.2005
199.1112,50.2005
199.1112,50.2005
199.3299,50.1596
199.5374,50.0792
199.7266,49.9621
199.8910,49.8122
200.0251,49.6347
200.1242,49.4355
200.1851,49.2215
200.2056,49.0000
200.2056,49.0000
208.7944,49.0000
208.7944,49.0000
208.8149,49.2215
208.8149,49.2215
208.8758,49.4355
208.8758,49.4355
208.9749,49.6347
208.9749,49.6347
209.1090,49.8122
209.2734,49.9621
209.2734,49.9621
209.4626,50.0792
209.4626,50.0792
209.4626,50.0792
209.6701,50.1596
209.8888,50.2005
209.8888,50.2005
210.1112,50.2005
210.1112,50.2005
210.3299,50.1596
210.5374,50.0792
210.7266,49.9621
210.8910,49.8122
211.0251,49.6347
211.1242,49.4355
211.1851,49.2215
211.2056,49.0000
211.2056,49.0000
212.7944,49.0000
212.7944,49.0000
212.8149,49.2215
212.8149,49.2215
212.8758,49.4355
212.8758,49.4355
212.9749,49.6347
212.9749,49.6347
213.1090,49.8122
213.2734,49.9621
213.2734,49.9621
213.4626,50.0792
213.4626,50.0792
213.4626,50.0792
213.6701,50.1596
213.8888,50.2005
213.8888,50.2005
214.1112,50.2005
214.1112,50.2005
214.3299,50.1596
214.5374,50.0792
214.7266,49.9621
214.8910,49.8122
215.0251,49.6347
215.1242,49.4355
215.1851,49.2215
215.2056,49.0000
215.2056,49.0000
223.7944,49.0000
223.7944,49.0000
223.8149,49.2215
223.8149,49.2215
223.8758,49.4355
223.8758,49.4355
223.9749,49.6347
223.9749,49.6347
224.1090,49.8122
224.2734,49.9621
224.2734,49.9621
224.4626,50.0792
224.4626,50.0792
224.4626,50.0792
224.6701,50.1596
224.8888,50.2005
224.8888,50.2005
225.1112,50.2005
225.1112,50.2005
225.3299,50.1596
225.5374,50.0792
225.7266,49.9621
225.8181,49.8787
233.1495,49.8787
233.1495,50.1213
233.1812,50.3618
233.2439,50.5961
233.3009,50.7336
233.3368,50.8202
233.4581,51.0303
233.4581,51.0303
233.4581,51.0303
233.6057,51.2227
233.6057,51.2227
233.7773,51.3943
233.7773,51.3943
233.9697,51.5419
234.1798,51.6632
234.4039,51.7561
234.6382,51.8188
234.8186,51.8426
234.8787,51.8505
234.8787,51.8505
235.1213,51.8505
235.1694,51.8442
235.3618,51.8188
235.5961,51.7561
235.8202,51.6632
236.0303,51.5419
236.2227,51.3943
236.3943,51.2227
236.5419,51.0303
236.6632,50.8202
236.7561,50.5961
236.8188,50.3618
236.8505,50.1213
236.8505,49.8787
236.8188,49.6382
236.7561,49.4039
236.6632,49.1798
236.5419,48.9697
236.4810,48.8903
236.3943,48.7773
236.3943,48.7773
236.2227,48.6057
236.2227,48.6057
236.0303,48.4581
236.0303,48.4581
236.0303,48.4581
235.8202,48.3368
235.8202,48.3368
235.5961,48.2439
235.3864,48.1878
235.3618,48.1812
235.3618,48.1812
235.3618,48.1812
235.1213,48.1495
235.1213,48.1495
234.8787,48.1495
234.8787,48.1495
234.6382,48.1812
234.4039,48.2439
234.1798,48.3368
234.1798,48.3368
233.9697,48.4581
233.7773,48.6057
233.7773,48.6057
233.6057,48.7773
233.6057,48.7773
233.4581,48.9697
233.3368,49.1798
233.3368,49.1798
233.2439,49.4039
233.1812,49.6382
233.1495,49.8787
225.8181,49.8787
225.8910,49.8122
226.0251,49.6347
226.1242,49.4355
226.1851,49.2215
226.2056,49.0000
226.1851,48.7785
226.1242,48.5645
226.1221,48.5603
226.0251,48.3653
226.0251,48.3653
225.8910,48.1878
225.7266,48.0379
225.7266,48.0379
225.5374,47.9208
225.5374,47.9208
225.3299,47.8404
225.1112,47.7995
224.8888,47.7995
224.6701,47.8404
224.5389,47.8912
224.4626,47.9208
224.4626,47.9208
224.2734,48.0379
224.2734,48.0379
224.1090,48.1878
223.9749,48.3653
223.9749,48.3653
223.8758,48.5645
223.8758,48.5645
223.8149,48.7785
223.8149,48.7785
223.7944,49.0000
215.2056,49.0000
215.1851,48.7785
215.1242,48.5645
215.1221,48.5603
215.0251,48.3653
215.0251,48.3653
214.8910,48.1878
214.7266,48.0379
214.7266,48.0379
214.5374,47.9208
214.5374,47.9208
214.3299,47.8404
214.1112,47.7995
213.8888,47.7995
213.6701,47.8404
213.5389,47.8912
213.4626,47.9208
213.4626,47.9208
213.2734,48.0379
213.2734,48.0379
213.1090,48.1878
212.9749,48.3653
212.9749,48.3653
212.8758,48.5645
212.8758,48.5645
212.8149,48.7785
212.8149,48.7785
212.7944,49.0000
211.2056,49.0000
211.1851,48.7785
211.1242,48.5645
211.1221,48.5603
211.0251,48.3653
211.0251,48.3653
210.8910,48.1878
210.7266,48.0379
210.7266,48.0379
210.5374,47.9208
210.5374,47.9208
210.3299,47.8404
210.1112,47.7995
209.8888,47.7995
209.6701,47.8404
209.5389,47.8912
209.4626,47.9208
209.4626,47.9208
209.2734,48.0379
209.2734,48.0379
209.1090,48.1878
208.9749,48.3653
208.9749,48.3653
208.8758,48.5645
208.8758,48.5645
208.8149,48.7785
208.8149,48.7785
208.7944,49.0000
200.2056,49.0000
200.1851,48.7785
200.1242,48.5645
200.1221,48.5603
200.0251,48.3653
200.0251,48.3653
199.8910,48.1878
199.7266,48.0379
199.7266,48.0379
199.5374,47.9208
199.5374,47.9208
199.3299,47.8404
199.1112,47.7995
198.8888,47.7995
198.6701,47.8404
198.5389,47.8912
198.4626,47.9208
198.4626,47.9208
198.2734,48.0379
198.2734,48.0379
198.1090,48.1878
197.9749,48.3653
197.9749,48.3653
197.8758,48.5645
197.8758,48.5645
197.8149,48.7785
197.8149,48.7785
197.7944,49.0000
186.8055,49.0000
186.4893,48.7786
186.4893,48.7786
186.4893,48.7786
186.3631,48.7057
186.1112,48.5603
186.1112,48.5603
185.7154,48.3757
185.7154,48.3757
185.7154,48.3757
185.4962,48.2959
185.3051,48.2264
184.8833,48.1134
184.8833,48.1134
184.8833,48.1134
184.8833,48.1134
184.8833,48.1134
184.4533,48.0376
184.0183,47.9995
184.0183,47.9995
183.5817,47.9995
183.5817,47.9995
183.1467,48.0376
183.1467,48.0376
182.7167,48.1134
182.7167,48.1134
182.2949,48.2264
181.8846,48.3757
181.8845,48.3757
181.6553,48.4826
181.5863,48.4931
181.5225,48.4646
181.4842,48.4061
181.4837,48.3363
181.5037,48.2959
181.5438,48.2423
181.5941,48.1075
181.6005,48.0479
181.6005,45.9521
181.5941,45.8925
181.5438,45.7577
181.4997,45.6988
181.4753,45.6333
181.4902,45.5651
181.5396,45.5157
181.5990,45.5005
193.2010,45.5005
193.2680,45.5202
193.3138,45.5730
193.3237,45.6421
193.3003,45.6988
193.2802,45.7256
193.2562,45.7577
193.2562,45.7577
193.2059,45.8925
193.1995,45.9521
193.1995,45.9521
193.1995,45.9521
193.1995,48.0479
193.1995,48.0479
193.2059,48.1075
193.2562,48.2423
193.2562,48.2423
193.3425,48.3575
193.3425,48.3575
193.4577,48.4438
193.4577,48.4438
193.5925,48.4941
193.5925,48.4941
193.5994,48.4948
193.6521,48.5005
194.6479,48.5005
194.7075,48.4941
194.8423,48.4438
194.9575,48.3575
195.0438,48.2423
195.0941,48.1075
195.1005,48.0479
195.1005,45.9521
195.0941,45.8925
195.0438,45.7577
194.9997,45.6988
194.9753,45.6333
194.9902,45.5651
195.0396,45.5157
195.0990,45.5005
239.3755,45.5005
239.4425,45.5202
239.4883,45.5730
239.4995,45.6245
239.4995,89.3755
239.4798,89.4425
239.4270,89.4883
239.3755,89.4995
195.2990,89.4995
195.2320,89.4798
195.1862,89.4270
195.1763,89.3579
195.1997,89.3012
195.2438,89.2423
195.2941,89.1075
195.3005,89.0479
195.3005,87.2000
196.4047,87.2000
196.4239,87.4799
196.4239,87.4799
196.4809,87.7545
196.4809,87.7545
196.5749,88.0188
196.5749,88.0188
196.7039,88.2679
196.8657,88.4971
196.8657,88.4971
196.8657,88.4971
197.0572,88.7021
197.0572,88.7021
197.2748,88.8791
197.2748,88.8791
197.2748,88.8791
197.5144,89.0249
197.7046,89.1075
197.7717,89.1366
198.0418,89.2123
198.2862,89.2459
198.3197,89.2505
198.3197,89.2505
198.6003,89.2505
198.6302,89.2464
198.8782,89.2123
199.1483,89.1366
199.4056,89.0249
199.6452,88.8791
199.8628,88.7021
200.0543,88.4971
200.2161,88.2679
200.3451,88.0188
200.4391,87.7545
200.4391,87.7545
200.4391,87.7545
200.4656,87.6270
200.4961,87.4799
200.5153,87.2000
209.4847,87.2000
209.5039,87.4799
209.5039,87.4799
209.5609,87.7545
209.5609,87.7545
209.6549,88.0188
209.6549,88.0188
209.7839,88.2679
209.9457,88.4971
209.9457,88.4971
209.9457,88.4971
210.1372,88.7021
210.1372,88.7021
210.3548,88.8791
210.3548,88.8791
210.3548,88.8791
210.5944,89.0249
210.7846,89.1075
210.8517,89.1366
211.1218,89.2123
211.3662,89.2459
211.3997,89.2505
211.3997,89.2505
211.6803,89.2505
211.7102,89.2464
211.9582,89.2123
212.2283,89.1366
212.4856,89.0249
212.7252,88.8791
212.9428,88.7021
213.1343,88.4971
213.2961,88.2679
213.4251,88.0188
213.5191,87.7545
213.5191,87.7545
213.5191,87.7545
213.5456,87.6270
213.5761,87.4799
213.5953,87.2000
214.4047,87.2000
214.4239,87.4799
214.4239,87.4799
214.4809,87.7545
214.4809,87.7545
214.5749,88.0188
214.5749,88.0188
214.7039,88.2679
214.8657,88.4971
214.8657,88.4971
214.8657,88.4971
215.0572,88.7021
215.0572,88.7021
215.2748,88.8791
215.2748,88.8791
215.2748,88.8791
215.5144,89.0249
215.7046,89.1075
215.7717,89.1366
216.0418,89.2123
216.2862,89.2459
216.3197,89.2505
216.3197,89.2505
216.6003,89.2505
216.6302,89.2464
216.8782,89.2123
217.1483,89.1366
217.4056,89.0249
217.6452,88.8791
217.8628,88.7021
218.0543,88.4971
218.2161,88.2679
218.3451,88.0188
218.4391,87.7545
218.4391,87.7545
218.4391,87.7545
218.4656,87.6270
218.4961,87.4799
218.5153,87.2000
227.4847,87.2000
227.5039,87.4799
227.5039,87.4799
227.5609,87.7545
227.5609,87.7545
227.6549,88.0188
227.6549,88.0188
227.7839,88.2679
227.9457,88.4971
227.9457,88.4971
227.9457,88.4971
228.1372,88.7021
228.1372,88.7021
228.3548,88.8791
228.3548,88.8791
228.3548,88.8791
228.5944,89.0249
228.7846,89.1075
228.8517,89.1366
229.1218,89.2123
229.3662,89.2459
229.3997,89.2505
229.3997,89.2505
229.6803,89.2505
229.7102,89.2464
229.9582,89.2123
230.2283,89.1366
230.4856,89.0249
230.7252,88.8791
230.9428,88.7021
231.1343,88.4971
231.2961,88.2679
231.4251,88.0188
231.5191,87.7545
231.5191,87.7545
231.5191,87.7545
231.5456,87.6270
231.5761,87.4799
231.5953,87.2000
231.5761,86.9201
231.5424,86.7577
231.5191,86.6455
231.5191,86.6455
231.4251,86.3812
231.4251,86.3812
231.2961,86.1321
231.1343,85.9029
231.1343,85.9029
230.9428,85.6979
230.8752,85.6429
230.7252,85.5209
230.7252,85.5209
230.7252,85.5209
230.4856,85.3751
230.2283,85.2634
229.9582,85.1877
229.9582,85.1877
229.9582,85.1877
229.8192,85.1686
229.6803,85.1495
229.6803,85.1495
229.3997,85.1495
229.3997,85.1495
229.1218,85.1877
229.1218,85.1877
228.8517,85.2634
228.5944,85.3751
228.3548,85.5209
228.1372,85.6979
227.9457,85.9029
227.9457,85.9029
227.7839,86.1321
227.6549,86.3812
227.5609,86.6455
227.5609,86.6455
227.5039,86.9201
227.5039,86.9201
227.4847,87.2000
218.5153,87.2000
218.4961,86.9201
218.4624,86.7577
218.4391,86.6455
218.4391,86.6455
218.3451,86.3812
218.3451,86.3812
218.2161,86.1321
218.0543,85.9029
218.0543,85.9029
217.8628,85.6979
217.7952,85.6429
217.6452,85.5209
217.6452,85.5209
217.6452,85.5209
217.4056,85.3751
217.1483,85.2634
216.8782,85.1877
216.8782,85.1877
216.8782,85.1877
216.7392,85.1686
216.6003,85.1495
216.6003,85.1495
216.3197,85.1495
216.3197,85.1495
216.0418,85.1877
216.0418,85.1877
215.7717,85.2634
215.5144,85.3751
215.2748,85.5209
215.0572,85.6979
214.8657,85.9029
214.8657,85.9029
214.7039,86.1321
214.5749,86.3812
214.4809,86.6455
214.4809,86.6455
214.4239,86.9201
214.4239,86.9201
214.4047,87.2000
213.5953,87.2000
213.5761,86.9201
213.5424,86.7577
213.5191,86.6455
213.5191,86.6455
213.4251,86.3812
213.4251,86.3812
213.2961,86.1321
213.1343,85.9029
213.1343,85.9029
212.9428,85.6979
212.8752,85.6429
212.7252,85.5209
212.7252,85.5209
212.7252,85.5209
212.4856,85.3751
212.2283,85.2634
211.9582,85.1877
211.9582,85.1877
211.9582,85.1877
211.8192,85.1686
211.6803,85.1495
211.6803,85.1495
211.3997,85.1495
211.3997,85.1495
211.1218,85.1877
211.1218,85.1877
210.8517,85.2634
210.5944,85.3751
210.3548,85.5209
210.1372,85.6979
209.9457,85.9029
209.9457,85.9029
209.7839,86.1321
209.6549,86.3812
209.5609,86.6455
209.5609,86.6455
209.5039,86.9201
209.5039,86.9201
209.4847,87.2000
200.5153,87.2000
200.4961,86.9201
200.4624,86.7577
200.4391,86.6455
200.4391,86.6455
200.3451,86.3812
200.3451,86.3812
200.2161,86.1321
200.0543,85.9029
200.0543,85.9029
199.8628,85.6979
199.7952,85.6429
199.6452,85.5209
199.6452,85.5209
199.6452,85.5209
199.4056,85.3751
199.1483,85.2634
198.8782,85.1877
198.8782,85.1877
198.8782,85.1877
198.7392,85.1686
198.6003,85.1495
198.6003,85.1495
198.3197,85.1495
198.3197,85.1495
198.0418,85.1877
198.0418,85.1877
197.7717,85.2634
197.5144,85.3751
197.2748,85.5209
197.0572,85.6979
196.8657,85.9029
196.8657,85.9029
196.7039,86.1321
196.5749,86.3812
196.4809,86.6455
196.4809,86.6455
196.4239,86.9201
196.4239,86.9201
196.4047,87.2000
195.3005,87.2000
195.3005,86.9521
195.2941,86.8925
195.2438,86.7577
195.2438,86.7577
195.2438,86.7577
195.1575,86.6425
195.1575,86.6425
195.0423,86.5562
195.0423,86.5562
194.9075,86.5059
194.9075,86.5059
194.8479,86.4995
194.8479,86.4995
194.8479,86.4995
194.8479,86.4995
193.8521,86.4995
193.8521,86.4995
193.7925,86.5059
193.6577,86.5562
193.6577,86.5562
193.5425,86.6425
193.5425,86.6425
193.4562,86.7577
193.4562,86.7577
193.4059,86.8925
193.4029,86.9201
193.3995,86.9521
193.3995,86.9521
193.3995,89.0479
193.3995,89.0479
193.4059,89.1075
193.4562,89.2423
193.4562,89.2423
193.5003,89.3012
193.5247,89.3667
193.5098,89.4349
193.4604,89.4843
193.4010,89.4995
181.7990,89.4995
181.7320,89.4798
181.6862,89.4270
181.6763,89.3579
181.6997,89.3012
181.7438,89.2423
181.7941,89.1075
181.8005,89.0479
181.8005,86.9521
181.7941,86.8925
181.7438,86.7577
181.7438,86.7577
181.7438,86.7577
181.6575,86.6425
181.6575,86.6425
181.5423,86.5562
181.5423,86.5562
181.4075,86.5059
181.4075,86.5059
181.3479,86.4995
181.3479,86.4995
181.3479,86.4995
181.3479,86.4995
180.3521,86.4995
180.3521,86.4995
180.2925,86.5059
180.1577,86.5562
180.1577,86.5562
180.0425,86.6425
180.0425,86.6425
179.9562,86.7577
179.9562,86.7577
179.9059,86.8925
179.9029,86.9201
179.8995,86.9521
179.8995,86.9521
179.8995,89.0479
179.8995,89.0479
179.9059,89.1075
179.9562,89.2423
179.9562,89.2423
180.0003,89.3012
180.0247,89.3667
180.0098,89.4349
179.9604,89.4843
179.9010,89.4995
170.6245,89.4995
170.5575,89.4798
170.5117,89.4270
170.5005,89.3755
170.5005,84.8787
173.1495,84.8787
173.1495,85.1213
173.1812,85.3618
173.2439,85.5961
173.3076,85.7497
173.3368,85.8202
173.4581,86.0303
173.4581,86.0303
173.4581,86.0303
173.6057,86.2227
173.6057,86.2227
173.7773,86.3943
173.7773,86.3943
173.9697,86.5419
174.1798,86.6632
174.4039,86.7561
174.6382,86.8188
174.8186,86.8426
174.8787,86.8505
174.8787,86.8505
175.1213,86.8505
175.1694,86.8442
175.3618,86.8188
175.5961,86.7561
175.8202,86.6632
176.0303,86.5419
176.2227,86.3943
176.3943,86.2227
176.5419,86.0303
176.6632,85.8202
176.7561,85.5961
176.8188,85.3618
176.8505,85.1213
176.8505,84.8787
176.8188,84.6382
176.7561,84.4039
176.6632,84.1798
176.5419,83.9697
176.4810,83.8903
176.3943,83.7773
176.3943,83.7773
176.2227,83.6057
176.2227,83.6057
176.0303,83.4581
176.0303,83.4581
176.0303,83.4581
175.8202,83.3368
175.8202,83.3368
175.5961,83.2439
175.3618,83.1812
175.1213,83.1495
175.1213,83.1495
174.8787,83.1495
174.8787,83.1495
174.6382,83.1812
174.4039,83.2439
174.1798,83.3368
174.1798,83.3368
173.9697,83.4581
173.7773,83.6057
173.7773,83.6057
173.6057,83.7773
173.6057,83.7773
173.4581,83.9697
173.3368,84.1798
173.3368,84.1798
173.2439,84.4039
173.1812,84.6382
173.1495,84.8787
170.5005,84.8787
170.5005,80.9047
181.4500,80.9047
181.4500,81.7500
182.6728,81.7500
182.6500,81.8938
182.6500,82.1062
182.6728,82.2500
181.4500,82.2500
181.4500,83.0953
181.4602,83.2400
181.4602,83.2400
181.5143,83.4802
181.5143,83.4802
181.6062,83.7086
181.7336,83.9193
181.7336,83.9193
181.8932,84.1068
182.0807,84.2664
182.0807,84.2664
182.2914,84.3938
182.5198,84.4857
182.5198,84.4857
182.7600,84.5398
182.7600,84.5398
182.9047,84.5500
182.9047,84.5500
183.7500,84.5500
183.7500,83.3272
183.8938,83.3500
184.1062,83.3500
184.2500,83.3272
184.2500,84.5500
185.0953,84.5500
185.0953,84.5500
185.2400,84.5398
185.2400,84.5398
185.4802,84.4857
185.4802,84.4857
185.7086,84.3938
185.9193,84.2664
185.9193,84.2664
186.1068,84.1068
186.2664,83.9193
186.2664,83.9193
186.3938,83.7086
186.4857,83.4802
186.4857,83.4802
186.5398,83.2400
186.5398,83.2400
186.5500,83.0953
186.5500,83.0953
186.5500,82.2500
185.3272,82.2500
185.3500,82.1062
185.3500,82.0000
188.6445,82.0000
188.6445,82.0000
188.6646,82.3203
188.6646,82.3203
188.7247,82.6355
188.8239,82.9408
188.8239,82.9408
188.9606,83.2311
188.9606,83.2311
189.1325,83.5021
189.1325,83.5021
189.3371,83.7494
189.3371,83.7494
189.5180,83.9193
189.5710,83.9691
189.5710,83.9691
189.8307,84.1577
189.8307,84.1577
189.8307,84.1577
190.1119,84.3123
190.4103,84.4305
190.4103,84.4305
190.6811,84.5000
190.7211,84.5103
190.7879,84.5187
191.0395,84.5505
191.0395,84.5505
191.0395,84.5505
191.0395,84.5505
191.3605,84.5505
191.3605,84.5505
191.3605,84.5505
191.3605,84.5505
191.5505,84.5265
191.6789,84.5103
191.7189,84.5000
200.1348,84.5000
200.1348,84.5000
200.1535,84.7247
200.2088,84.9433
200.2994,85.1497
200.4227,85.3385
200.4227,85.3385
200.5754,85.5044
200.5754,85.5044
200.7533,85.6429
200.7533,85.6429
200.7533,85.6429
200.9516,85.7502
200.9516,85.7502
201.1649,85.8234
201.1649,85.8234
201.1649,85.8234
201.3873,85.8605
201.3873,85.8605
201.6127,85.8605
201.6127,85.8605
201.8351,85.8234
202.0484,85.7502
202.2467,85.6429
202.2472,85.6424
202.4034,85.5209
202.4246,85.5044
202.5773,85.3385
202.6462,85.2331
202.6993,85.1877
202.7686,85.1783
202.8319,85.2078
202.8538,85.2331
202.9227,85.3385
202.9227,85.3385
203.0754,85.5044
203.0754,85.5044
203.2533,85.6429
203.2533,85.6429
203.2533,85.6429
203.4516,85.7502
203.4516,85.7502
203.6649,85.8234
203.6649,85.8234
203.6649,85.8234
203.8873,85.8605
203.8873,85.8605
204.1127,85.8605
204.1127,85.8605
204.3351,85.8234
204.5484,85.7502
204.7467,85.6429
204.9238,85.5050
204.9888,85.4793
205.0574,85.4929
205.0762,85.5050
205.1932,85.5961
205.2528,85.6424
205.2533,85.6429
205.4516,85.7502
205.4516,85.7502
205.6649,85.8234
205.6649,85.8234
205.6649,85.8234
205.8873,85.8605
205.8873,85.8605
206.1127,85.8605
206.1127,85.8605
206.3351,85.8234
206.5484,85.7502
206.7467,85.6429
206.7472,85.6424
206.9034,85.5209
206.9246,85.5044
207.0773,85.3385
207.1465,85.2326
207.1996,85.1872
207.2689,85.1778
207.3322,85.2073
207.3541,85.2326
207.3777,85.2687
208.0497,84.5967
208.0713,84.6776
208.1319,84.7824
208.2176,84.8681
208.3224,84.9287
208.4032,84.9503
207.7297,85.6238
207.7297,85.6238
207.7536,85.6424
207.9518,85.7497
207.9518,85.7497
208.1650,85.8229
208.3873,85.8600
208.6127,85.8600
208.8350,85.8229
209.0482,85.7497
209.0482,85.7497
209.2464,85.6424
209.2703,85.6238
209.2703,85.6238
208.5967,84.9503
208.6776,84.9287
208.7824,84.8681
208.8681,84.7824
208.9287,84.6776
208.9503,84.5967
209.6223,85.2687
209.7002,85.1495
209.7002,85.1495
209.7907,84.9431
209.8460,84.7246
209.8647,84.5000
209.8647,84.5000
218.1348,84.5000
218.1348,84.5000
218.1535,84.7247
218.2088,84.9433
218.2994,85.1497
218.4227,85.3385
218.4227,85.3385
218.5754,85.5044
218.5754,85.5044
218.7533,85.6429
218.7533,85.6429
218.7533,85.6429
218.9516,85.7502
218.9516,85.7502
219.1649,85.8234
219.1649,85.8234
219.1649,85.8234
219.3873,85.8605
219.3873,85.8605
219.6127,85.8605
219.6127,85.8605
219.8351,85.8234
220.0484,85.7502
220.2467,85.6429
220.2472,85.6424
220.4034,85.5209
220.4246,85.5044
220.5773,85.3385
220.6462,85.2331
220.6993,85.1877
220.7686,85.1783
220.8319,85.2078
220.8538,85.2331
220.9227,85.3385
220.9227,85.3385
221.0754,85.5044
221.0754,85.5044
221.2533,85.6429
221.2533,85.6429
221.2533,85.6429
221.4516,85.7502
221.4516,85.7502
221.6649,85.8234
221.6649,85.8234
221.6649,85.8234
221.8873,85.8605
221.8873,85.8605
222.1127,85.8605
222.1127,85.8605
222.3351,85.8234
222.5484,85.7502
222.7467,85.6429
222.9238,85.5050
222.9888,85.4793
223.0574,85.4929
223.0762,85.5050
223.1932,85.5961
223.2528,85.6424
223.2533,85.6429
223.4516,85.7502
223.4516,85.7502
223.6649,85.8234
223.6649,85.8234
223.6649,85.8234
223.8873,85.8605
223.8873,85.8605
224.1127,85.8605
224.1127,85.8605
224.3351,85.8234
224.5484,85.7502
224.7467,85.6429
224.7472,85.6424
224.9034,85.5209
224.9246,85.5044
225.0773,85.3385
225.1465,85.2326
225.1996,85.1872
225.2689,85.1778
225.3322,85.2073
225.3541,85.2326
225.3777,85.2687
226.0497,84.5967
226.0713,84.6776
226.1319,84.7824
226.2176,84.8681
226.3224,84.9287
226.4032,84.9503
225.7297,85.6238
225.7297,85.6238
225.7536,85.6424
225.9518,85.7497
225.9518,85.7497
226.1650,85.8229
226.3873,85.8600
226.6127,85.8600
226.8350,85.8229
227.0482,85.7497
227.0482,85.7497
227.2464,85.6424
227.2703,85.6238
227.2703,85.6238
226.5967,84.9503
226.6776,84.9287
226.7824,84.8681
226.8681,84.7824
226.9287,84.6776
226.9503,84.5967
227.6223,85.2687
227.7002,85.1495
227.7002,85.1495
227.7907,84.9431
227.8070,84.8787
233.1495,84.8787
233.1495,85.1213
233.1812,85.3618
233.2439,85.5961
233.3076,85.7497
233.3368,85.8202
233.4581,86.0303
233.4581,86.0303
233.4581,86.0303
233.6057,86.2227
233.6057,86.2227
233.7773,86.3943
233.7773,86.3943
233.9697,86.5419
234.1798,86.6632
234.4039,86.7561
234.6382,86.8188
234.8186,86.8426
234.8787,86.8505
234.8787,86.8505
235.1213,86.8505
235.1694,86.8442
235.3618,86.8188
235.5961,86.7561
235.8202,86.6632
236.0303,86.5419
236.2227,86.3943
236.3943,86.2227
236.5419,86.0303
236.6632,85.8202
236.7561,85.5961
236.8188,85.3618
236.8505,85.1213
236.8505,84.8787
236.8188,84.6382
236.7561,84.4039
236.6632,84.1798
236.5419,83.9697
236.4810,83.8903
236.3943,83.7773
236.3943,83.7773
236.2227,83.6057
236.2227,83.6057
236.0303,83.4581
236.0303,83.4581
236.0303,83.4581
235.8202,83.3368
235.8202,83.3368
235.5961,83.2439
235.3618,83.1812
235.1213,83.1495
235.1213,83.1495
234.8787,83.1495
234.8787,83.1495
234.6382,83.1812
234.4039,83.2439
234.1798,83.3368
234.1798,83.3368
233.9697,83.4581
233.7773,83.6057
233.7773,83.6057
233.6057,83.7773
233.6057,83.7773
233.4581,83.9697
233.3368,84.1798
233.3368,84.1798
233.2439,84.4039
233.1812,84.6382
233.1495,84.8787
227.8070,84.8787
227.8460,84.7246
227.8647,84.5000
227.8647,84.5000
227.8460,84.2754
227.7907,84.0569
227.7002,83.8505
227.6223,83.7313
226.9503,84.4032
226.9287,84.3224
226.8681,84.2176
226.7824,84.1319
226.6776,84.0713
226.5967,84.0497
227.2703,83.3762
227.2703,83.3761
227.2464,83.3576
227.0482,83.2503
227.0482,83.2503
226.8350,83.1771
226.6127,83.1400
226.3873,83.1400
226.1650,83.1771
225.9518,83.2503
225.9518,83.2503
225.7536,83.3576
225.7297,83.3761
225.7297,83.3761
226.4033,84.0497
226.3224,84.0713
226.2176,84.1319
226.1319,84.2176
226.0713,84.3224
226.0497,84.4032
225.3777,83.7313
225.3541,83.7674
225.3010,83.8127
225.2317,83.8222
225.1684,83.7927
225.1465,83.7674
225.0773,83.6615
225.0773,83.6615
224.9246,83.4956
224.9246,83.4956
224.9246,83.4956
224.7467,83.3571
224.7467,83.3571
224.5484,83.2498
224.5484,83.2498
224.3351,83.1766
224.1683,83.1488
224.1127,83.1395
223.8873,83.1395
223.8428,83.1469
223.6649,83.1766
223.4516,83.2498
223.4516,83.2498
223.2533,83.3571
223.2533,83.3571
223.0762,83.4950
223.0112,83.5207
222.9426,83.5071
222.9238,83.4950
222.7467,83.3571
222.7467,83.3571
222.5484,83.2498
222.5484,83.2498
222.3351,83.1766
222.1683,83.1488
222.1127,83.1395
221.8873,83.1395
221.8428,83.1469
221.6649,83.1766
221.4516,83.2498
221.4516,83.2498
221.2533,83.3571
221.2533,83.3571
221.0754,83.4956
221.0754,83.4956
220.9227,83.6615
220.9227,83.6615
220.8538,83.7669
220.8007,83.8123
220.7314,83.8217
220.6681,83.7922
220.6462,83.7669
220.5773,83.6615
220.5773,83.6615
220.4246,83.4956
220.4246,83.4956
220.4246,83.4956
220.2467,83.3571
220.2467,83.3571
220.0484,83.2498
220.0484,83.2498
219.8351,83.1766
219.6683,83.1488
219.6127,83.1395
219.3873,83.1395
219.3428,83.1469
219.1649,83.1766
218.9516,83.2498
218.9516,83.2498
218.7533,83.3571
218.7533,83.3571
218.5754,83.4956
218.5754,83.4956
218.4227,83.6615
218.4227,83.6615
218.2994,83.8503
218.2088,84.0567
218.1535,84.2753
218.1348,84.5000
209.8647,84.5000
209.8460,84.2754
209.7907,84.0569
209.7002,83.8505
209.6223,83.7313
208.9503,84.4032
208.9287,84.3224
208.8681,84.2176
208.7824,84.1319
208.6776,84.0713
208.5967,84.0497
209.2703,83.3762
209.2703,83.3761
209.2464,83.3576
209.0482,83.2503
209.0482,83.2503
208.8350,83.1771
208.6127,83.1400
208.3873,83.1400
208.1650,83.1771
207.9518,83.2503
207.9518,83.2503
207.7536,83.3576
207.7297,83.3761
207.7297,83.3761
208.4033,84.0497
208.3224,84.0713
208.2176,84.1319
208.1319,84.2176
208.0713,84.3224
208.0497,84.4032
207.3777,83.7313
207.3541,83.7674
207.3010,83.8127
207.2317,83.8222
207.1684,83.7927
207.1465,83.7674
207.0773,83.6615
207.0773,83.6615
206.9246,83.4956
206.9246,83.4956
206.9246,83.4956
206.7467,83.3571
206.7467,83.3571
206.5484,83.2498
206.5484,83.2498
206.3351,83.1766
206.1683,83.1488
206.1127,83.1395
205.8873,83.1395
205.8428,83.1469
205.6649,83.1766
205.4516,83.2498
205.4516,83.2498
205.2533,83.3571
205.2533,83.3571
205.0762,83.4950
205.0112,83.5207
204.9426,83.5071
204.9238,83.4950
204.7467,83.3571
204.7467,83.3571
204.5484,83.2498
204.5484,83.2498
204.3351,83.1766
204.1683,83.1488
204.1127,83.1395
203.8873,83.1395
203.8428,83.1469
203.6649,83.1766
203.4516,83.2498
203.4516,83.2498
203.2533,83.3571
203.2533,83.3571
203.0754,83.4956
203.0754,83.4956
202.9227,83.6615
202.9227,83.6615
202.8538,83.7669
202.8007,83.8123
202.7314,83.8217
202.6681,83.7922
202.6462,83.7669
202.5773,83.6615
202.5773,83.6615
202.4246,83.4956
202.4246,83.4956
202.4246,83.4956
202.2467,83.3571
202.2467,83.3571
202.0484,83.2498
202.0484,83.2498
201.8351,83.1766
201.6683,83.1488
201.6127,83.1395
201.3873,83.1395
201.3428,83.1469
201.1649,83.1766
200.9516,83.2498
200.9516,83.2498
200.7533,83.3571
200.7533,83.3571
200.5754,83.4956
200.5754,83.4956
200.4227,83.6615
200.4227,83.6615
200.2994,83.8503
200.2088,84.0567
200.1535,84.2753
200.1348,84.5000
191.7189,84.5000
191.9897,84.4305
192.2881,84.3123
192.5693,84.1577
192.8290,83.9691
193.0629,83.7494
193.2675,83.5021
193.4394,83.2311
193.4651,83.1766
193.5034,83.0953
193.5761,82.9408
193.6753,82.6355
193.7354,82.3203
193.7354,82.3203
193.7555,82.0000
193.7555,82.0000
193.7354,81.6797
193.7354,81.6797
193.7354,81.6797
193.6753,81.3645
193.5761,81.0592
193.5034,80.9047
193.4394,80.7689
193.4394,80.7689
193.4338,80.7600
193.2675,80.4979
193.2675,80.4979
193.0629,80.2506
192.8820,80.0807
192.8290,80.0309
192.8290,80.0309
192.8290,80.0309
192.5693,79.8423
192.5693,79.8423
192.2881,79.6877
192.2881,79.6877
191.9897,79.5695
191.9897,79.5695
191.6789,79.4897
191.6789,79.4897
191.3605,79.4495
191.3605,79.4495
191.0395,79.4495
191.0395,79.4495
190.7211,79.4897
190.7211,79.4897
190.4103,79.5695
190.1119,79.6877
190.1119,79.6877
189.8307,79.8423
189.8307,79.8423
189.5710,80.0309
189.5710,80.0309
189.3371,80.2506
189.1325,80.4979
189.1325,80.4979
188.9606,80.7689
188.9606,80.7689
188.8239,81.0592
188.8239,81.0592
188.7247,81.3645
188.6646,81.6797
188.6646,81.6797
188.6445,82.0000
185.3500,82.0000
185.3500,81.8938
185.3272,81.7500
186.5500,81.7500
186.5500,80.9047
186.5500,80.9047
186.5398,80.7600
186.5398,80.7600
186.4857,80.5198
186.4857,80.5198
186.3938,80.2914
186.2664,80.0807
186.2664,80.0807
186.1068,79.8932
185.9193,79.7336
185.9193,79.7336
185.7086,79.6062
185.4802,79.5143
185.4802,79.5143
185.2400,79.4602
185.2400,79.4602
185.0953,79.4500
184.2500,79.4500
184.2500,80.6728
184.1062,80.6500
183.8938,80.6500
183.7500,80.6728
183.7500,79.4500
182.9047,79.4500
182.7600,79.4602
182.7600,79.4602
182.5198,79.5143
182.5198,79.5143
182.2914,79.6062
182.0807,79.7336
182.0807,79.7336
181.8932,79.8932
181.7336,80.0807
181.7336,80.0807
181.6062,80.2914
181.5143,80.5198
181.5143,80.5198
181.4602,80.7600
181.4602,80.7600
181.4500,80.9047
170.5005,80.9047
170.5005,49.8787
173.1495,49.8787
173.1495,50.1213
173.1812,50.3618
173.2439,50.5961
173.3009,50.7336
173.3368,50.8202
173.4581,51.0303
173.4581,51.0303
173.4581,51.0303
173.6057,51.2227
173.6057,51.2227
173.7773,51.3943
173.7773,51.3943
173.9697,51.5419
174.1798,51.6632
174.4039,51.7561
174.6382,51.8188
174.8186,51.8426
174.8787,51.8505
174.8787,51.8505
175.1213,51.8505
175.1694,51.8442
175.3618,51.8188
175.5961,51.7561
175.8202,51.6632
176.0303,51.5419
176.2227,51.3943
176.3943,51.2227
176.5419,51.0303
176.6632,50.8202
176.7561,50.5961
176.8188,50.3618
176.8505,50.1213
176.8505,49.8787
176.8188,49.6382
176.7561,49.4039
176.6632,49.1798
176.5419,48.9697
176.4810,48.8903
176.3943,48.7773
176.3943,48.7773
176.2227,48.6057
176.2227,48.6057
176.0303,48.4581
176.0303,48.4581
176.0303,48.4581
175.8202,48.3368
175.8202,48.3368
175.5961,48.2439
175.3864,48.1878
175.3618,48.1812
175.3618,48.1812
175.3618,48.1812
175.1213,48.1495
175.1213,48.1495
174.8787,48.1495
174.8787,48.1495
174.6382,48.1812
174.4039,48.2439
174.1798,48.3368
174.1798,48.3368
173.9697,48.4581
173.7773,48.6057
173.7773,48.6057
173.6057,48.7773
173.6057,48.7773
173.4581,48.9697
173.3368,49.1798
173.3368,49.1798
173.2439,49.4039
173.1812,49.6382
173.1495,49.8787
170.5005,49.8787
170.5005,45.6245
170.5202,45.5575
170.5730,45.5117
170.6245,45.5005
179.7010,45.5005
Z" /> 
</g>
<g style="fill:#FFFFFF; fill-opacity:1.0000; stroke:none;">
<circle cx="197.4200" cy="62.0000" r="0.4000" /> 
</g>
<g style="fill:#FFFFFF; fill-opacity:1.0000; stroke:none;">
<circle cx="207.5800" cy="62.0000" r="0.4000" /> 
</g>
<g style="fill:#FFFFFF; fill-opacity:1.0000; stroke:none;">
<circle cx="175.0000" cy="50.0000" r="1.6000" /> 
</g>
<g style="fill:#FFFFFF; fill-opacity:1.0000; stroke:none;">
<circle cx="200.0000" cy="75.0000" r="0.4500" /> 
</g>
<g style="fill:#FFFFFF; fill-opacity:1.0000; stroke:none;">
<circle cx="200.0000" cy="77.5400" r="0.4500" /> 
</g>
<g style="fill:#FFFFFF; fill-opacity:1.0000; stroke:none;">
<circle cx="182.4500" cy="68.7000" r="0.8000" /> 
</g>
<g style="fill:#FFFFFF; fill-opacity:1.0000; stroke:none;">
<circle cx="192.4500" cy="68.7000" r="0.8000" /> 
</g>
<g style="fill:#FFFFFF; fill-opacity:1.0000; stroke:none;">
<circle cx="235.0000" cy="50.0000" r="1.6000" /> 
</g>
<g style="fill:#FFFFFF; fill-opacity:1.0000; stroke:none;">
<circle cx="199.0000" cy="49.0000" r="0.5000" /> 
</g>
<g style="fill:#FFFFFF; fill-opacity:1.0000; stroke:none;">
<circle cx="210.0000" cy="49.0000" r="0.5000" /> 
</g>
<g style="fill:#FFFFFF; fill-opacity:1.0000; stroke:none;">
<circle cx="202.0000" cy="54.0000" r="0.9500" /> 
</g>
<g style="fill:#FFFFFF; fill-opacity:1.0000; stroke:none;">
<circle cx="207.0000" cy="54.0000" r="0.9500" /> 
</g>
<g style="fill:#FFFFFF; fill-opacity:1.0000; stroke:none;">
<circle cx="214.0000" cy="77.7900" r="0.3810" /> 
</g>
<g style="fill:#FFFFFF; fill-opacity:1.0000; stroke:none;">
<circle cx="214.0000" cy="75.2500" r="0.3810" /> 
</g>
<g style="fill:#FFFFFF; fill-opacity:1.0000; stroke:none;">
<circle cx="214.0000" cy="72.7100" r="0.3810" /> 
</g>
<g style="fill:#FFFFFF; fill-opacity:1.0000; stroke:none;">
<circle cx="198.4600" cy="87.2000" r="1.1500" /> 
</g>
<g style="fill:#FFFFFF; fill-opacity:1.0000; stroke:none;">
<circle cx="211.5400" cy="87.2000" r="1.1500" /> 
</g>
<g style="fill:#FFFFFF; fill-opacity:1.0000; stroke:none;">
<circle cx="201.5000" cy="84.5000" r="0.4600" /> 
</g>
<g style="fill:#FFFFFF; fill-opacity:1.0000; stroke:none;">
<circle cx="204.0000" cy="84.5000" r="0.4600" /> 
</g>
<g style="fill:#FFFFFF; fill-opacity:1.0000; stroke:none;">
<circle cx="206.0000" cy="84.5000" r="0.4600" /> 
</g>
<g style="fill:#FFFFFF; fill-opacity:1.0000; stroke:none;">
<circle cx="208.5000" cy="84.5000" r="0.4600" /> 
</g>
<g style="fill:#FFFFFF; fill-opacity:1.0000; stroke:none;">
<circle cx="200.0000" cy="70.5000" r="0.4000" /> 
</g>
<g style="fill:#FFFFFF; fill-opacity:1.0000; stroke:none;">
<circle cx="210.1600" cy="70.5000" r="0.4000" /> 
</g>
<g style="fill:#FFFFFF; fill-opacity:1.0000; stroke:none;">
<circle cx="175.0000" cy="85.0000" r="1.6000" /> 
</g>
<g style="fill:#FFFFFF; fill-opacity:1.0000; stroke:none;">
<circle cx="214.0000" cy="49.0000" r="0.5000" /> 
</g>
<g style="fill:#FFFFFF; fill-opacity:1.0000; stroke:none;">
<circle cx="225.0000" cy="49.0000" r="0.5000" /> 
</g>
<g style="fill:#FFFFFF; fill-opacity:1.0000; stroke:none;">
<circle cx="217.0000" cy="54.0000" r="0.9500" /> 
</g>
<g style="fill:#FFFFFF; fill-opacity:1.0000; stroke:none;">
<circle cx="222.0000" cy="54.0000" r="0.9500" /> 
</g>
<g style="fill:#FFFFFF; fill-opacity:1.0000; stroke:none;">
<circle cx="216.4600" cy="87.2000" r="1.1500" /> 
</g>
<g style="fill:#FFFFFF; fill-opacity:1.0000; stroke:none;">
<circle cx="229.5400" cy="87.2000" r="1.1500" /> 
</g>
<g style="fill:#FFFFFF; fill-opacity:1.0000; stroke:none;">
<circle cx="219.5000" cy="84.5000" r="0.4600" /> 
</g>
<g style="fill:#FFFFFF; fill-opacity:1.0000; stroke:none;">
<circle cx="222.0000" cy="84.5000" r="0.4600" /> 
</g>
<g style="fill:#FFFFFF; fill-opacity:1.0000; stroke:none;">
<circle cx="224.0000" cy="84.5000" r="0.4600" /> 
</g>
<g style="fill:#FFFFFF; fill-opacity:1.0000; stroke:none;">
<circle cx="226.5000" cy="84.5000" r="0.4600" /> 
</g>
<g style="fill:#FFFFFF; fill-opacity:1.0000; stroke:none;">
<circle cx="236.0000" cy="66.5000" r="0.5000" /> 
</g>
<g style="fill:#FFFFFF; fill-opacity:1.0000; stroke:none;">
<circle cx="236.0000" cy="77.5000" r="0.5000" /> 
</g>
<g style="fill:#FFFFFF; fill-opacity:1.0000; stroke:none;">
<circle cx="231.0000" cy="69.5000" r="0.9500" /> 
</g>
<g style="fill:#FFFFFF; fill-opacity:1.0000; stroke:none;">
<circle cx="231.0000" cy="74.5000" r="0.9500" /> 
</g>
<g style="fill:#FFFFFF; fill-opacity:1.0000; stroke:none;">
<circle cx="182.0000" cy="75.5000" r="0.7500" /> 
</g>
<g style="fill:#FFFFFF; fill-opacity:1.0000; stroke:none;">
<circle cx="187.4500" cy="75.5000" r="0.7500" /> 
</g>
<g style="fill:#FFFFFF; fill-opacity:1.0000; stroke:none;">
<circle cx="192.9000" cy="75.5000" r="0.7500" /> 
</g>
<g style="fill:#FFFFFF; fill-opacity:1.0000; stroke:none;">
<circle cx="235.0000" cy="85.0000" r="1.6000" /> 
</g>
<g style="fill:#FFFFFF; fill-opacity:1.0000; stroke:none;">
<circle cx="223.0000" cy="70.5000" r="0.4000" /> 
</g>
<g style="fill:#FFFFFF; fill-opacity:1.0000; stroke:none;">
<circle cx="223.0000" cy="75.5000" r="0.4000" /> 
</g>
<g style="fill:none; 
stroke:#FFFFFF; stroke-width:0.6000; stroke-opacity:1; 
stroke-linecap:round; stroke-linejoin:round;">
<path d="M194.3500 88.5500
L194.3500 87.4500
" />
<path d="M180.8500 88.5500
L180.8500 87.4500
" />
</g>
<g style="fill:#FFFFFF; fill-opacity:1.0000; stroke:none;">
<circle cx="184.0000" cy="82.0000" r="1.3500" /> 
</g>
<g style="fill:#FFFFFF; fill-opacity:1.0000; stroke:none;">
<circle cx="191.2000" cy="82.0000" r="1.3500" /> 
</g>
<g style="fill:none; 
stroke:#FFFFFF; stroke-width:0.6000; stroke-opacity:1; 
stroke-linecap:round; stroke-linejoin:round;">
<path d="M180.6500 46.4500
L180.6500 47.5500
" />
<path d="M194.1500 46.4500
L194.1500 47.5500
" />
</g>
<g style="fill:#FFFFFF; fill-opacity:1.0000; stroke:none;">
<circle cx="191.0000" cy="53.0000" r="1.3500" /> 
</g>
<g style="fill:#FFFFFF; fill-opacity:1.0000; stroke:none;">
<circle cx="183.8000" cy="53.0000" r="1.3500" /> 
</g> 
</svg>
