<?xml version='1.0' encoding='ASCII' standalone='yes'?>
<svg xmlns="http://www.w3.org/2000/svg" version="1.1" width="297.0022mm" height="210.0072mm" viewBox="0.0000 0.0000 297.0022 210.0072">
            <title>Picture generated by PcbDraw </title>
            <desc>Picture generated by PcbDraw</desc>
        <defs><clipPath id="cut-off"><path d="M170.0000 90.0000 L170.0000 45.0000 M 240.0 45.0 L 240.0 90.0 L 170.0 90.0 L 170.0 45.0 L 240.0 45.0 " style="fill-rule: evenodd;"/></clipPath><mask id="pads-mask-silkscreen"><rect x="169.975" y="35.65175" width="77.37325" height="63.6965" fill="white"/><g style="fill:#000000; fill-opacity:1.0000; stroke:none;">
<circle cx="197.4200" cy="62.0000" r="0.9000"/> 
</g>
<g style="fill:#000000; fill-opacity:1.0000; stroke:none;">
<circle cx="207.5800" cy="62.0000" r="0.9000"/> 
<circle cx="175.0000" cy="50.0000" r="1.7000"/> 
<path style="fill:#000000; fill-opacity:1.0000; stroke:none;fill-rule:evenodd;" d="M 200.9000,74.0000 200.9383,74.0076 200.9707,74.0293 200.9924,74.0617 201.0000,74.1000 201.0000,75.9000 200.9924,75.9383 200.9707,75.9707 200.9383,75.9924 200.9000,76.0000 199.1000,76.0000 199.0617,75.9924 199.0293,75.9707 199.0076,75.9383 199.0000,75.9000 199.0000,74.1000 199.0076,74.0617 199.0293,74.0293 199.0617,74.0076 199.1000,74.0000 Z"/> 
</g>
<g style="fill:#000000; fill-opacity:1.0000; stroke:none;">
<circle cx="200.0000" cy="77.5400" r="1.0000"/> 
</g>
<g style="fill:#000000; fill-opacity:1.0000; stroke:none;">
<circle cx="182.4500" cy="68.7000" r="1.3000"/> 
</g>
<g style="fill:#000000; fill-opacity:1.0000; stroke:none;">
<circle cx="192.4500" cy="68.7000" r="1.3000"/> 
</g>
<g style="fill:#000000; fill-opacity:1.0000; stroke:none;">
<circle cx="235.0000" cy="50.0000" r="1.7000"/> 
</g>
<g style="fill:#000000; fill-opacity:1.0000; stroke:none;">
<circle cx="199.0000" cy="49.0000" r="0.8000"/> 
</g>
<g style="fill:#000000; fill-opacity:1.0000; stroke:none;">
<circle cx="210.0000" cy="49.0000" r="0.8000"/> 
<path style="fill:#000000; fill-opacity:1.0000; stroke:none;fill-rule:evenodd;" d="M 200.1500,52.2500 200.1576,52.2117 200.1793,52.1793 200.2117,52.1576 200.2500,52.1500 203.7500,52.1500 203.7883,52.1576 203.8207,52.1793 203.8424,52.2117 203.8500,52.2500 203.8500,55.7500 203.8424,55.7883 203.8207,55.8207 203.7883,55.8424 203.7500,55.8500 200.2500,55.8500 200.2117,55.8424 200.1793,55.8207 200.1576,55.7883 200.1500,55.7500 Z"/> 
</g>
<g style="fill:#000000; fill-opacity:1.0000; stroke:none;">
<circle cx="207.0000" cy="54.0000" r="1.8500"/> 
</g>
<g style="fill:#000000; fill-opacity:1.0000; stroke:none;">
<circle cx="214.0000" cy="77.7900" r="0.8620"/> 
</g>
<g style="fill:#000000; fill-opacity:1.0000; stroke:none;">
<circle cx="214.0000" cy="75.2500" r="0.8620"/> 
</g>
<g style="fill:#000000; fill-opacity:1.0000; stroke:none;">
<circle cx="214.0000" cy="72.7100" r="0.8620"/> 
</g>
<g style="fill:#000000; fill-opacity:1.0000; stroke:none;">
<circle cx="198.4600" cy="87.2000" r="1.6500"/> 
</g>
<g style="fill:#000000; fill-opacity:1.0000; stroke:none;">
<circle cx="211.5400" cy="87.2000" r="1.6500"/> 
</g>
<g style="fill:#000000; fill-opacity:1.0000; stroke:none;">
<circle cx="201.5000" cy="84.5000" r="0.9600"/> 
</g>
<g style="fill:#000000; fill-opacity:1.0000; stroke:none;">
<circle cx="204.0000" cy="84.5000" r="0.9600"/> 
</g>
<g style="fill:#000000; fill-opacity:1.0000; stroke:none;">
<circle cx="206.0000" cy="84.5000" r="0.9600"/> 
</g>
<g style="fill:#000000; fill-opacity:1.0000; stroke:none;">
<circle cx="208.5000" cy="84.5000" r="0.9600"/> 
</g>
<g style="fill:#000000; fill-opacity:1.0000; stroke:none;">
<circle cx="200.0000" cy="70.5000" r="0.9000"/> 
</g>
<g style="fill:#000000; fill-opacity:1.0000; stroke:none;">
<circle cx="210.1600" cy="70.5000" r="0.9000"/> 
<circle cx="175.0000" cy="85.0000" r="1.7000"/> 
</g>
<g style="fill:#000000; fill-opacity:1.0000; stroke:none;">
<circle cx="214.0000" cy="49.0000" r="0.8000"/> 
</g>
<g style="fill:#000000; fill-opacity:1.0000; stroke:none;">
<circle cx="225.0000" cy="49.0000" r="0.8000"/> 
<path style="fill:#000000; fill-opacity:1.0000; stroke:none;fill-rule:evenodd;" d="M 215.1500,52.9640 215.1704,52.7829 215.2306,52.6108 215.3276,52.4565 215.4565,52.3276 215.6108,52.2306 215.7829,52.1704 215.9640,52.1500 218.0360,52.1500 218.2171,52.1704 218.3892,52.2306 218.5435,52.3276 218.6724,52.4565 218.7694,52.6108 218.8296,52.7829 218.8500,52.9640 218.8500,55.0360 218.8296,55.2171 218.7694,55.3892 218.6724,55.5435 218.5435,55.6724 218.3892,55.7694 218.2171,55.8296 218.0360,55.8500 215.9640,55.8500 215.7829,55.8296 215.6108,55.7694 215.4565,55.6724 215.3276,55.5435 215.2306,55.3892 215.1704,55.2171 215.1500,55.0360 Z"/> 
</g>
<g style="fill:#000000; fill-opacity:1.0000; stroke:none;">
<circle cx="222.0000" cy="54.0000" r="1.8500"/> 
</g>
<g style="fill:#000000; fill-opacity:1.0000; stroke:none;">
<circle cx="216.4600" cy="87.2000" r="1.6500"/> 
</g>
<g style="fill:#000000; fill-opacity:1.0000; stroke:none;">
<circle cx="229.5400" cy="87.2000" r="1.6500"/> 
</g>
<g style="fill:#000000; fill-opacity:1.0000; stroke:none;">
<circle cx="219.5000" cy="84.5000" r="0.9600"/> 
</g>
<g style="fill:#000000; fill-opacity:1.0000; stroke:none;">
<circle cx="222.0000" cy="84.5000" r="0.9600"/> 
</g>
<g style="fill:#000000; fill-opacity:1.0000; stroke:none;">
<circle cx="224.0000" cy="84.5000" r="0.9600"/> 
</g>
<g style="fill:#000000; fill-opacity:1.0000; stroke:none;">
<circle cx="226.5000" cy="84.5000" r="0.9600"/> 
</g>
<g style="fill:#000000; fill-opacity:1.0000; stroke:none;">
<circle cx="236.0000" cy="66.5000" r="0.8000"/> 
</g>
<g style="fill:#000000; fill-opacity:1.0000; stroke:none;">
<circle cx="236.0000" cy="77.5000" r="0.8000"/> 
<path style="fill:#000000; fill-opacity:1.0000; stroke:none;fill-rule:evenodd;" d="M 232.0360,67.6500 232.2171,67.6704 232.3892,67.7306 232.5435,67.8276 232.6724,67.9565 232.7694,68.1108 232.8296,68.2829 232.8500,68.4640 232.8500,70.5360 232.8296,70.7171 232.7694,70.8892 232.6724,71.0435 232.5435,71.1724 232.3892,71.2694 232.2171,71.3296 232.0360,71.3500 229.9640,71.3500 229.7829,71.3296 229.6108,71.2694 229.4565,71.1724 229.3276,71.0435 229.2306,70.8892 229.1704,70.7171 229.1500,70.5360 229.1500,68.4640 229.1704,68.2829 229.2306,68.1108 229.3276,67.9565 229.4565,67.8276 229.6108,67.7306 229.7829,67.6704 229.9640,67.6500 Z"/> 
</g>
<g style="fill:#000000; fill-opacity:1.0000; stroke:none;">
<circle cx="231.0000" cy="74.5000" r="1.8500"/> 
<path style="fill:#000000; fill-opacity:1.0000; stroke:none;fill-rule:evenodd;" d="M 180.6500,73.2500 180.6576,73.2117 180.6793,73.1793 180.7117,73.1576 180.7500,73.1500 183.2500,73.1500 183.2883,73.1576 183.3207,73.1793 183.3424,73.2117 183.3500,73.2500 183.3500,77.7500 183.3424,77.7883 183.3207,77.8207 183.2883,77.8424 183.2500,77.8500 180.7500,77.8500 180.7117,77.8424 180.6793,77.8207 180.6576,77.7883 180.6500,77.7500 Z"/> 
</g>
<g style="fill:none;  stroke:#000000; stroke-width:2.7000; stroke-opacity:1;  stroke-linecap:round; stroke-linejoin:round;">
<path d="M187.4500 74.5000 L187.4500 76.5000 "/>
<path d="M192.9000 74.5000 L192.9000 76.5000 "/>
</g>
<g style="fill:#000000; fill-opacity:1.0000; stroke:none;">
<circle cx="235.0000" cy="85.0000" r="1.7000"/> 
</g>
<g style="fill:#000000; fill-opacity:1.0000; stroke:none;">
<circle cx="223.0000" cy="70.5000" r="0.9000"/> 
</g>
<g style="fill:#000000; fill-opacity:1.0000; stroke:none;">
<circle cx="223.0000" cy="75.5000" r="0.9000"/> 
<path style="fill:#000000; fill-opacity:1.0000; stroke:none;fill-rule:evenodd;" d="M 194.9000,89.0000 194.8924,89.0383 194.8707,89.0707 194.8383,89.0924 194.8000,89.1000 193.9000,89.1000 193.8617,89.0924 193.8293,89.0707 193.8076,89.0383 193.8000,89.0000 193.8000,87.0000 193.8076,86.9617 193.8293,86.9293 193.8617,86.9076 193.9000,86.9000 194.8000,86.9000 194.8383,86.9076 194.8707,86.9293 194.8924,86.9617 194.9000,87.0000 Z"/> 
<path style="fill:#000000; fill-opacity:1.0000; stroke:none;fill-rule:evenodd;" d="M 181.4000,89.0000 181.3924,89.0383 181.3707,89.0707 181.3383,89.0924 181.3000,89.1000 180.4000,89.1000 180.3617,89.0924 180.3293,89.0707 180.3076,89.0383 180.3000,89.0000 180.3000,87.0000 180.3076,86.9617 180.3293,86.9293 180.3617,86.9076 180.4000,86.9000 181.3000,86.9000 181.3383,86.9076 181.3707,86.9293 181.3924,86.9617 181.4000,87.0000 Z"/> 
<path style="fill:#000000; fill-opacity:1.0000; stroke:none;fill-rule:evenodd;" d="M 186.1500,83.0750 186.1293,83.2847 186.0682,83.4864 185.9688,83.6722 185.8351,83.8351 185.6722,83.9688 185.4864,84.0682 185.2847,84.1293 185.0750,84.1500 182.9250,84.1500 182.7153,84.1293 182.5136,84.0682 182.3278,83.9688 182.1649,83.8351 182.0312,83.6722 181.9318,83.4864 181.8707,83.2847 181.8500,83.0750 181.8500,80.9250 181.8707,80.7153 181.9318,80.5136 182.0312,80.3278 182.1649,80.1649 182.3278,80.0312 182.5136,79.9318 182.7153,79.8707 182.9250,79.8500 185.0750,79.8500 185.2847,79.8707 185.4864,79.9318 185.6722,80.0312 185.8351,80.1649 185.9688,80.3278 186.0682,80.5136 186.1293,80.7153 186.1500,80.9250 Z"/> 
</g>
<g style="fill:#000000; fill-opacity:1.0000; stroke:none;">
<circle cx="191.2000" cy="82.0000" r="2.1500"/> 
<path style="fill:#000000; fill-opacity:1.0000; stroke:none;fill-rule:evenodd;" d="M 180.1000,46.0000 180.1076,45.9617 180.1293,45.9293 180.1617,45.9076 180.2000,45.9000 181.1000,45.9000 181.1383,45.9076 181.1707,45.9293 181.1924,45.9617 181.2000,46.0000 181.2000,48.0000 181.1924,48.0383 181.1707,48.0707 181.1383,48.0924 181.1000,48.1000 180.2000,48.1000 180.1617,48.0924 180.1293,48.0707 180.1076,48.0383 180.1000,48.0000 Z"/> 
<path style="fill:#000000; fill-opacity:1.0000; stroke:none;fill-rule:evenodd;" d="M 193.6000,46.0000 193.6076,45.9617 193.6293,45.9293 193.6617,45.9076 193.7000,45.9000 194.6000,45.9000 194.6383,45.9076 194.6707,45.9293 194.6924,45.9617 194.7000,46.0000 194.7000,48.0000 194.6924,48.0383 194.6707,48.0707 194.6383,48.0924 194.6000,48.1000 193.7000,48.1000 193.6617,48.0924 193.6293,48.0707 193.6076,48.0383 193.6000,48.0000 Z"/> 
<path style="fill:#000000; fill-opacity:1.0000; stroke:none;fill-rule:evenodd;" d="M 188.8500,51.9250 188.8707,51.7153 188.9318,51.5136 189.0312,51.3278 189.1649,51.1649 189.3278,51.0312 189.5136,50.9318 189.7153,50.8707 189.9250,50.8500 192.0750,50.8500 192.2847,50.8707 192.4864,50.9318 192.6722,51.0312 192.8351,51.1649 192.9688,51.3278 193.0682,51.5136 193.1293,51.7153 193.1500,51.9250 193.1500,54.0750 193.1293,54.2847 193.0682,54.4864 192.9688,54.6722 192.8351,54.8351 192.6722,54.9688 192.4864,55.0682 192.2847,55.1293 192.0750,55.1500 189.9250,55.1500 189.7153,55.1293 189.5136,55.0682 189.3278,54.9688 189.1649,54.8351 189.0312,54.6722 188.9318,54.4864 188.8707,54.2847 188.8500,54.0750 Z"/> 
</g>
<g style="fill:#000000; fill-opacity:1.0000; stroke:none;">
<circle cx="183.8000" cy="53.0000" r="2.1500"/> 
</g> 
</mask></defs><g transform="" id="boardContainer"><g id="substrate" clip-path="url(#cut-off)" mask="url(#pads-mask-silkscreen)"><g id="substrate-board" style="fill:#143324; fill-opacity:0.25098039215686274; stroke:#143324; stroke-width:0;"><path d="M170.0000 90.0000 L170.0000 45.0000 M 240.0 45.0 L 240.0 90.0 L 170.0 90.0 L 170.0 45.0 L 240.0 45.0 " style="fill-rule: evenodd;"/><g style="fill: #4ca06c;fill-opacity: 1.0000;stroke: #4ca06c;stroke-opacity: 1.0000;stroke-linecap: round;stroke-linejoin: round" transform="translate(0 0) scale(1 1)">
<path style="fill: none;stroke: #4ca06c;stroke-width: 0.0500;stroke-opacity: 1;stroke-linecap: round;stroke-linejoin: round" d="M 170.0000,45.0000 240.0000,45.0000 240.0000,90.0000 170.0000,90.0000 Z"/> 
</g> 
</g></g></g></svg>
