<?xml version="1.0" standalone="no"?>
 <!DOCTYPE svg PUBLIC "-//W3C//DTD SVG 1.1//EN" 
 "http://www.w3.org/Graphics/SVG/1.1/DTD/svg11.dtd"> 
<svg
  xmlns:svg="http://www.w3.org/2000/svg"
  xmlns="http://www.w3.org/2000/svg"
  xmlns:xlink="http://www.w3.org/1999/xlink"
  version="1.1"
  width="297.0022mm" height="210.0072mm" viewBox="0.0000 0.0000 297.0022 210.0072">
<title>SVG Image created as computer_sensor_board-F_Cu.svg date 2024/12/16 01:00:41 </title>
  <desc>Image generated by PCBNEW </desc>
<g style="fill:#000000; fill-opacity:1.0000;stroke:#000000; stroke-opacity:1.0000;
stroke-linecap:round; stroke-linejoin:round;"
 transform="translate(0 0) scale(1 1)">
</g>
<g style="fill:#000000; fill-opacity:1.0000; stroke:none;">
<circle cx="199.0000" cy="59.0000" r="0.7000" /> 
</g>
<g style="fill:#000000; fill-opacity:1.0000; stroke:none;">
<circle cx="210.0000" cy="59.0000" r="0.7000" /> 
<path style="fill:#000000; fill-opacity:1.0000; stroke:none;fill-rule:evenodd;"
d="M 200.2500,65.7500
200.2500,62.2500
203.7500,62.2500
203.7500,65.7500
Z" /> 
</g>
<g style="fill:#000000; fill-opacity:1.0000; stroke:none;">
<circle cx="207.0000" cy="64.0000" r="1.7500" /> 
</g>
<g style="fill:#000000; fill-opacity:1.0000; stroke:none;">
<circle cx="198.0000" cy="75.7900" r="0.7620" /> 
</g>
<g style="fill:#000000; fill-opacity:1.0000; stroke:none;">
<circle cx="198.0000" cy="73.2500" r="0.7620" /> 
</g>
<g style="fill:#000000; fill-opacity:1.0000; stroke:none;">
<circle cx="198.0000" cy="70.7100" r="0.7620" /> 
</g>
<g style="fill:#000000; fill-opacity:1.0000; stroke:none;">
<circle cx="198.4600" cy="87.2000" r="1.5500" /> 
</g>
<g style="fill:#000000; fill-opacity:1.0000; stroke:none;">
<circle cx="211.5400" cy="87.2000" r="1.5500" /> 
</g>
<g style="fill:#000000; fill-opacity:1.0000; stroke:none;">
<circle cx="201.5000" cy="84.5000" r="0.8600" /> 
</g>
<g style="fill:#000000; fill-opacity:1.0000; stroke:none;">
<circle cx="204.0000" cy="84.5000" r="0.8600" /> 
</g>
<g style="fill:#000000; fill-opacity:1.0000; stroke:none;">
<circle cx="206.0000" cy="84.5000" r="0.8600" /> 
</g>
<g style="fill:#000000; fill-opacity:1.0000; stroke:none;">
<circle cx="208.5000" cy="84.5000" r="0.8600" /> 
</g>
<g style="fill:#000000; fill-opacity:1.0000; stroke:none;">
<circle cx="173.8000" cy="79.0000" r="0.7000" /> 
</g>
<g style="fill:#000000; fill-opacity:1.0000; stroke:none;">
<circle cx="173.8000" cy="68.0000" r="0.7000" /> 
<path style="fill:#000000; fill-opacity:1.0000; stroke:none;fill-rule:evenodd;"
d="M 180.5500,77.7500
177.0500,77.7500
177.0500,74.2500
180.5500,74.2500
Z" /> 
</g>
<g style="fill:#000000; fill-opacity:1.0000; stroke:none;">
<circle cx="178.8000" cy="71.0000" r="1.7500" /> 
</g>
<g style="fill:#000000; fill-opacity:1.0000; stroke:none;">
<circle cx="214.0000" cy="59.0000" r="0.7000" /> 
</g>
<g style="fill:#000000; fill-opacity:1.0000; stroke:none;">
<circle cx="225.0000" cy="59.0000" r="0.7000" /> 
<path style="fill:#000000; fill-opacity:1.0000; stroke:none;fill-rule:evenodd;"
d="M 215.2500,63.0200
215.2659,62.8643
215.3221,62.6946
215.4160,62.5424
215.5424,62.4160
215.6946,62.3221
215.8643,62.2659
216.0200,62.2500
217.9800,62.2500
218.1357,62.2659
218.3054,62.3221
218.4576,62.4160
218.5840,62.5424
218.6779,62.6946
218.7341,62.8643
218.7500,63.0200
218.7500,64.9800
218.7341,65.1357
218.6779,65.3054
218.5840,65.4576
218.4576,65.5840
218.3054,65.6779
218.1357,65.7341
217.9800,65.7500
216.0200,65.7500
215.8643,65.7341
215.6946,65.6779
215.5424,65.5840
215.4160,65.4576
215.3221,65.3054
215.2659,65.1357
215.2500,64.9800
Z" /> 
</g>
<g style="fill:#000000; fill-opacity:1.0000; stroke:none;">
<circle cx="222.0000" cy="64.0000" r="1.7500" /> 
</g>
<g style="fill:#000000; fill-opacity:1.0000; stroke:none;">
<circle cx="216.4600" cy="87.2000" r="1.5500" /> 
</g>
<g style="fill:#000000; fill-opacity:1.0000; stroke:none;">
<circle cx="229.5400" cy="87.2000" r="1.5500" /> 
</g>
<g style="fill:#000000; fill-opacity:1.0000; stroke:none;">
<circle cx="219.5000" cy="84.5000" r="0.8600" /> 
</g>
<g style="fill:#000000; fill-opacity:1.0000; stroke:none;">
<circle cx="222.0000" cy="84.5000" r="0.8600" /> 
</g>
<g style="fill:#000000; fill-opacity:1.0000; stroke:none;">
<circle cx="224.0000" cy="84.5000" r="0.8600" /> 
</g>
<g style="fill:#000000; fill-opacity:1.0000; stroke:none;">
<circle cx="226.5000" cy="84.5000" r="0.8600" /> 
</g>
<g style="fill:#000000; fill-opacity:1.0000; stroke:none;">
<circle cx="207.5000" cy="71.5000" r="0.8000" /> 
</g>
<g style="fill:#000000; fill-opacity:1.0000; stroke:none;">
<circle cx="207.5000" cy="76.5000" r="0.8000" /> 
</g>
<g style="fill:#000000; fill-opacity:1.0000; stroke:none;">
<circle cx="194.0000" cy="86.0000" r="0.7000" /> 
</g>
<g style="fill:#000000; fill-opacity:1.0000; stroke:none;">
<circle cx="183.0000" cy="86.0000" r="0.7000" /> 
<path style="fill:#000000; fill-opacity:1.0000; stroke:none;fill-rule:evenodd;"
d="M 192.7500,79.2500
192.7500,82.7500
189.2500,82.7500
189.2500,79.2500
Z" /> 
</g>
<g style="fill:#000000; fill-opacity:1.0000; stroke:none;">
<circle cx="186.0000" cy="81.0000" r="1.7500" /> 
<path style="fill:#000000; fill-opacity:1.0000; stroke:none;fill-rule:evenodd;"
d="M 180.2000,58.0000
180.2000,56.0000
181.1000,56.0000
181.1000,58.0000
Z" /> 
<path style="fill:#000000; fill-opacity:1.0000; stroke:none;fill-rule:evenodd;"
d="M 193.7000,58.0000
193.7000,56.0000
194.6000,56.0000
194.6000,58.0000
Z" /> 
<path style="fill:#000000; fill-opacity:1.0000; stroke:none;fill-rule:evenodd;"
d="M 188.9500,61.9750
188.9697,61.7750
189.0280,61.5827
189.1227,61.4055
189.2502,61.2502
189.4055,61.1227
189.5827,61.0280
189.7750,60.9697
189.9750,60.9500
192.0250,60.9500
192.2250,60.9697
192.4173,61.0280
192.5945,61.1227
192.7498,61.2502
192.8773,61.4055
192.9720,61.5827
193.0303,61.7750
193.0500,61.9750
193.0500,64.0250
193.0303,64.2250
192.9720,64.4173
192.8773,64.5945
192.7498,64.7498
192.5945,64.8773
192.4173,64.9720
192.2250,65.0303
192.0250,65.0500
189.9750,65.0500
189.7750,65.0303
189.5827,64.9720
189.4055,64.8773
189.2502,64.7498
189.1227,64.5945
189.0280,64.4173
188.9697,64.2250
188.9500,64.0250
Z" /> 
</g>
<g style="fill:#000000; fill-opacity:1.0000; stroke:none;">
<circle cx="183.8000" cy="63.0000" r="2.0500" /> 
</g>
<g style="fill:none; 
stroke:#000000; stroke-width:2.0000; stroke-opacity:1; 
stroke-linecap:round; stroke-linejoin:round;">
<path d="M219.7162 76.5000
L226.5000 83.2838
" />
<path d="M198.0000 73.2500
L199.0776 73.2500
" />
<path d="M214.0000 67.0000
L217.0000 64.0000
" />
<path d="M198.0000 73.2500
L196.9224 73.2500
" />
<path d="M192.0000 64.0000
L191.0000 63.0000
" />
<path d="M198.0000 73.2500
L204.2500 73.2500
" />
<path d="M196.9224 73.2500
L191.0000 79.1724
" />
<path d="M204.2500 73.2500
L207.5000 76.5000
" />
<path d="M226.5000 83.2838
L226.5000 84.5000
" />
<path d="M202.0000 64.0000
L205.0000 67.0000
" />
<path d="M202.0000 64.0000
L192.0000 64.0000
" />
<path d="M207.5000 76.5000
L208.5000 77.5000
" />
<path d="M191.0000 79.1724
L191.0000 81.0000
" />
<path d="M205.0000 67.0000
L214.0000 67.0000
" />
<path d="M207.5000 76.5000
L219.7162 76.5000
" />
<path d="M199.0776 73.2500
L202.0000 70.3276
" />
<path d="M202.0000 70.3276
L202.0000 64.0000
" />
</g>
<g style="fill:none; 
stroke:#000000; stroke-width:1.0000; stroke-opacity:1; 
stroke-linecap:round; stroke-linejoin:round;">
<path d="M186.0000 76.0000
L191.0000 81.0000
" />
</g>
<g style="fill:none; 
stroke:#000000; stroke-width:2.0000; stroke-opacity:1; 
stroke-linecap:round; stroke-linejoin:round;">
<path d="M208.5000 77.5000
L208.5000 84.5000
" />
</g>
<g style="fill:none; 
stroke:#000000; stroke-width:1.0000; stroke-opacity:1; 
stroke-linecap:round; stroke-linejoin:round;">
<path d="M178.8000 76.0000
L186.0000 76.0000
" />
<path style="fill:#000000; fill-opacity:1.0000; stroke:none;fill-rule:evenodd;"
d="M 179.7680,55.5202
179.8138,55.5730
179.8237,55.6421
179.8003,55.6988
179.7802,55.7256
179.7562,55.7577
179.7562,55.7577
179.7059,55.8925
179.6995,55.9521
179.6995,55.9521
179.6995,55.9521
179.6995,58.0479
179.6995,58.0479
179.7059,58.1075
179.7562,58.2423
179.7562,58.2423
179.8425,58.3575
179.8425,58.3575
179.9577,58.4438
179.9577,58.4438
180.0925,58.4941
180.0925,58.4941
180.0994,58.4948
180.1521,58.5005
181.1479,58.5005
181.2075,58.4941
181.3423,58.4438
181.4575,58.3575
181.5438,58.2423
181.5941,58.1075
181.6005,58.0479
181.6005,55.9521
181.5941,55.8925
181.5438,55.7577
181.4997,55.6988
181.4753,55.6333
181.4902,55.5651
181.5396,55.5157
181.5990,55.5005
193.2010,55.5005
193.2680,55.5202
193.3138,55.5730
193.3237,55.6421
193.3003,55.6988
193.2802,55.7256
193.2562,55.7577
193.2562,55.7577
193.2059,55.8925
193.1995,55.9521
193.1995,55.9521
193.1995,55.9521
193.1995,58.0479
193.1995,58.0479
193.2059,58.1075
193.2562,58.2423
193.2562,58.2423
193.3425,58.3575
193.3425,58.3575
193.4577,58.4438
193.4577,58.4438
193.5925,58.4941
193.5925,58.4941
193.5994,58.4948
193.6521,58.5005
194.6479,58.5005
194.7075,58.4941
194.8423,58.4438
194.9575,58.3575
195.0438,58.2423
195.0941,58.1075
195.1005,58.0479
195.1005,55.9521
195.0941,55.8925
195.0438,55.7577
194.9997,55.6988
194.9753,55.6333
194.9902,55.5651
195.0396,55.5157
195.0990,55.5005
239.3755,55.5005
239.4425,55.5202
239.4883,55.5730
239.4995,55.6245
239.4995,89.3755
239.4798,89.4425
239.4270,89.4883
239.3755,89.4995
170.6245,89.4995
170.5575,89.4798
170.5117,89.4270
170.5005,89.3755
170.5005,84.8787
173.1495,84.8787
173.1495,85.1213
173.1812,85.3618
173.2439,85.5961
173.3195,85.7785
173.3368,85.8202
173.4581,86.0303
173.4581,86.0303
173.4581,86.0303
173.6057,86.2227
173.6057,86.2227
173.7773,86.3943
173.7773,86.3943
173.8310,86.4355
173.9697,86.5419
174.1798,86.6632
174.4039,86.7561
174.6382,86.8188
174.8186,86.8426
174.8787,86.8505
174.8787,86.8505
175.1213,86.8505
175.1694,86.8442
175.3618,86.8188
175.5961,86.7561
175.8202,86.6632
176.0303,86.5419
176.2227,86.3943
176.3943,86.2227
176.5419,86.0303
176.5594,86.0000
181.7944,86.0000
181.7944,86.0000
181.8149,86.2215
181.8149,86.2215
181.8758,86.4355
181.8758,86.4355
181.9749,86.6347
181.9749,86.6347
182.1090,86.8122
182.2734,86.9621
182.2734,86.9621
182.4626,87.0792
182.4626,87.0792
182.4626,87.0792
182.6701,87.1596
182.8888,87.2005
182.8888,87.2005
183.1112,87.2005
183.1112,87.2005
183.3299,87.1596
183.5374,87.0792
183.7266,86.9621
183.8910,86.8122
184.0251,86.6347
184.1242,86.4355
184.1851,86.2215
184.2056,86.0000
184.2056,86.0000
192.7944,86.0000
192.7944,86.0000
192.8149,86.2215
192.8149,86.2215
192.8758,86.4355
192.8758,86.4355
192.9749,86.6347
192.9749,86.6347
193.1090,86.8122
193.2734,86.9621
193.2734,86.9621
193.4626,87.0792
193.4626,87.0792
193.4626,87.0792
193.6701,87.1596
193.8888,87.2005
193.8888,87.2005
194.1112,87.2005
194.1112,87.2005
194.1139,87.2000
196.4047,87.2000
196.4239,87.4799
196.4239,87.4799
196.4809,87.7545
196.4809,87.7545
196.5749,88.0188
196.5749,88.0188
196.7039,88.2679
196.8657,88.4971
196.8657,88.4971
196.8657,88.4971
197.0572,88.7021
197.0572,88.7021
197.2748,88.8791
197.2748,88.8791
197.2748,88.8791
197.5144,89.0249
197.7233,89.1156
197.7717,89.1366
198.0418,89.2123
198.2862,89.2459
198.3197,89.2505
198.3197,89.2505
198.6003,89.2505
198.6302,89.2464
198.8782,89.2123
199.1483,89.1366
199.4056,89.0249
199.6452,88.8791
199.8628,88.7021
200.0543,88.4971
200.2161,88.2679
200.3451,88.0188
200.4391,87.7545
200.4391,87.7545
200.4391,87.7545
200.4656,87.6270
200.4961,87.4799
200.5153,87.2000
209.4847,87.2000
209.5039,87.4799
209.5039,87.4799
209.5609,87.7545
209.5609,87.7545
209.6549,88.0188
209.6549,88.0188
209.7839,88.2679
209.9457,88.4971
209.9457,88.4971
209.9457,88.4971
210.1372,88.7021
210.1372,88.7021
210.3548,88.8791
210.3548,88.8791
210.3548,88.8791
210.5944,89.0249
210.8033,89.1156
210.8517,89.1366
211.1218,89.2123
211.3662,89.2459
211.3997,89.2505
211.3997,89.2505
211.6803,89.2505
211.7102,89.2464
211.9582,89.2123
212.2283,89.1366
212.4856,89.0249
212.7252,88.8791
212.9428,88.7021
213.1343,88.4971
213.2961,88.2679
213.4251,88.0188
213.5191,87.7545
213.5191,87.7545
213.5191,87.7545
213.5456,87.6270
213.5761,87.4799
213.5953,87.2000
214.4047,87.2000
214.4239,87.4799
214.4239,87.4799
214.4809,87.7545
214.4809,87.7545
214.5749,88.0188
214.5749,88.0188
214.7039,88.2679
214.8657,88.4971
214.8657,88.4971
214.8657,88.4971
215.0572,88.7021
215.0572,88.7021
215.2748,88.8791
215.2748,88.8791
215.2748,88.8791
215.5144,89.0249
215.7233,89.1156
215.7717,89.1366
216.0418,89.2123
216.2862,89.2459
216.3197,89.2505
216.3197,89.2505
216.6003,89.2505
216.6302,89.2464
216.8782,89.2123
217.1483,89.1366
217.4056,89.0249
217.6452,88.8791
217.8628,88.7021
218.0543,88.4971
218.2161,88.2679
218.3451,88.0188
218.4391,87.7545
218.4391,87.7545
218.4391,87.7545
218.4656,87.6270
218.4961,87.4799
218.5153,87.2000
227.4847,87.2000
227.5039,87.4799
227.5039,87.4799
227.5609,87.7545
227.5609,87.7545
227.6549,88.0188
227.6549,88.0188
227.7839,88.2679
227.9457,88.4971
227.9457,88.4971
227.9457,88.4971
228.1372,88.7021
228.1372,88.7021
228.3548,88.8791
228.3548,88.8791
228.3548,88.8791
228.5944,89.0249
228.8033,89.1156
228.8517,89.1366
229.1218,89.2123
229.3662,89.2459
229.3997,89.2505
229.3997,89.2505
229.6803,89.2505
229.7102,89.2464
229.9582,89.2123
230.2283,89.1366
230.4856,89.0249
230.7252,88.8791
230.9428,88.7021
231.1343,88.4971
231.2961,88.2679
231.4251,88.0188
231.5191,87.7545
231.5191,87.7545
231.5191,87.7545
231.5456,87.6270
231.5761,87.4799
231.5953,87.2000
231.5761,86.9201
231.5421,86.7561
231.5191,86.6455
231.5191,86.6455
231.4251,86.3812
231.4251,86.3812
231.2961,86.1321
231.1343,85.9029
231.1343,85.9029
230.9428,85.6979
230.8752,85.6429
230.7252,85.5209
230.7252,85.5209
230.7252,85.5209
230.4856,85.3751
230.2283,85.2634
229.9582,85.1877
229.9582,85.1877
229.9582,85.1877
229.8192,85.1686
229.6803,85.1495
229.6803,85.1495
229.3997,85.1495
229.3997,85.1495
229.1218,85.1877
229.1218,85.1877
228.8517,85.2634
228.5944,85.3751
228.3548,85.5209
228.1372,85.6979
227.9457,85.9029
227.9457,85.9029
227.7839,86.1321
227.6549,86.3812
227.5609,86.6455
227.5609,86.6455
227.5039,86.9201
227.5039,86.9201
227.4847,87.2000
218.5153,87.2000
218.4961,86.9201
218.4621,86.7561
218.4391,86.6455
218.4391,86.6455
218.3451,86.3812
218.3451,86.3812
218.2161,86.1321
218.0543,85.9029
218.0543,85.9029
217.8628,85.6979
217.7952,85.6429
217.6452,85.5209
217.6452,85.5209
217.6452,85.5209
217.4056,85.3751
217.1483,85.2634
216.8782,85.1877
216.8782,85.1877
216.8782,85.1877
216.7392,85.1686
216.6003,85.1495
216.6003,85.1495
216.3197,85.1495
216.3197,85.1495
216.0418,85.1877
216.0418,85.1877
215.7717,85.2634
215.5144,85.3751
215.2748,85.5209
215.0572,85.6979
214.8657,85.9029
214.8657,85.9029
214.7039,86.1321
214.5749,86.3812
214.4809,86.6455
214.4809,86.6455
214.4239,86.9201
214.4239,86.9201
214.4047,87.2000
213.5953,87.2000
213.5761,86.9201
213.5421,86.7561
213.5191,86.6455
213.5191,86.6455
213.4251,86.3812
213.4251,86.3812
213.2961,86.1321
213.1343,85.9029
213.1343,85.9029
212.9428,85.6979
212.8752,85.6429
212.7252,85.5209
212.7252,85.5209
212.7252,85.5209
212.4856,85.3751
212.2283,85.2634
211.9582,85.1877
211.9582,85.1877
211.9582,85.1877
211.8192,85.1686
211.6803,85.1495
211.6803,85.1495
211.3997,85.1495
211.3997,85.1495
211.1218,85.1877
211.1218,85.1877
210.8517,85.2634
210.5944,85.3751
210.3548,85.5209
210.1372,85.6979
209.9457,85.9029
209.9457,85.9029
209.7839,86.1321
209.6549,86.3812
209.5609,86.6455
209.5609,86.6455
209.5039,86.9201
209.5039,86.9201
209.4847,87.2000
200.5153,87.2000
200.4961,86.9201
200.4621,86.7561
200.4391,86.6455
200.4391,86.6455
200.3451,86.3812
200.3451,86.3812
200.2161,86.1321
200.0543,85.9029
200.0543,85.9029
199.8628,85.6979
199.7952,85.6429
199.6452,85.5209
199.6452,85.5209
199.6452,85.5209
199.4056,85.3751
199.1483,85.2634
198.8782,85.1877
198.8782,85.1877
198.8782,85.1877
198.7392,85.1686
198.6003,85.1495
198.6003,85.1495
198.3197,85.1495
198.3197,85.1495
198.0418,85.1877
198.0418,85.1877
197.7717,85.2634
197.5144,85.3751
197.2748,85.5209
197.0572,85.6979
196.8657,85.9029
196.8657,85.9029
196.7039,86.1321
196.5749,86.3812
196.4809,86.6455
196.4809,86.6455
196.4239,86.9201
196.4239,86.9201
196.4047,87.2000
194.1139,87.2000
194.3299,87.1596
194.5374,87.0792
194.7266,86.9621
194.8910,86.8122
195.0251,86.6347
195.1242,86.4355
195.1851,86.2215
195.2056,86.0000
195.1851,85.7785
195.1242,85.5645
195.1242,85.5645
195.0251,85.3653
195.0251,85.3653
194.8910,85.1878
194.7266,85.0379
194.7266,85.0379
194.5374,84.9208
194.5374,84.9208
194.3299,84.8404
194.1112,84.7995
193.8888,84.7995
193.6701,84.8404
193.5985,84.8681
193.4626,84.9208
193.4626,84.9208
193.2734,85.0379
193.2734,85.0379
193.1090,85.1878
192.9749,85.3653
192.9749,85.3653
192.8758,85.5645
192.8758,85.5645
192.8149,85.7785
192.8149,85.7785
192.7944,86.0000
184.2056,86.0000
184.1851,85.7785
184.1242,85.5645
184.1242,85.5645
184.0251,85.3653
184.0251,85.3653
183.8910,85.1878
183.7266,85.0379
183.7266,85.0379
183.5374,84.9208
183.5374,84.9208
183.3299,84.8404
183.1112,84.7995
182.8888,84.7995
182.6701,84.8404
182.5985,84.8681
182.4626,84.9208
182.4626,84.9208
182.2734,85.0379
182.2734,85.0379
182.1090,85.1878
181.9749,85.3653
181.9749,85.3653
181.8758,85.5645
181.8758,85.5645
181.8149,85.7785
181.8149,85.7785
181.7944,86.0000
176.5594,86.0000
176.6632,85.8202
176.7561,85.5961
176.8188,85.3618
176.8505,85.1213
176.8505,84.8787
176.8188,84.6382
176.7818,84.5000
200.1348,84.5000
200.1348,84.5000
200.1535,84.7247
200.2088,84.9433
200.2994,85.1497
200.4227,85.3385
200.4227,85.3385
200.5754,85.5044
200.5754,85.5044
200.7533,85.6429
200.7533,85.6429
200.7533,85.6429
200.9516,85.7502
200.9516,85.7502
201.1649,85.8234
201.1649,85.8234
201.1649,85.8234
201.3873,85.8605
201.3873,85.8605
201.6127,85.8605
201.6127,85.8605
201.8351,85.8234
202.0484,85.7502
202.2467,85.6429
202.2472,85.6424
202.3474,85.5645
202.4246,85.5044
202.5773,85.3385
202.6462,85.2331
202.6993,85.1877
202.7686,85.1783
202.8319,85.2078
202.8538,85.2331
202.9227,85.3385
202.9227,85.3385
203.0754,85.5044
203.0754,85.5044
203.2533,85.6429
203.2533,85.6429
203.2533,85.6429
203.4516,85.7502
203.4516,85.7502
203.6649,85.8234
203.6649,85.8234
203.6649,85.8234
203.8873,85.8605
203.8873,85.8605
204.1127,85.8605
204.1127,85.8605
204.3351,85.8234
204.5484,85.7502
204.7467,85.6429
204.9238,85.5050
204.9888,85.4793
205.0574,85.4929
205.0762,85.5050
205.1526,85.5645
205.2528,85.6424
205.2533,85.6429
205.4516,85.7502
205.4516,85.7502
205.6649,85.8234
205.6649,85.8234
205.6649,85.8234
205.8873,85.8605
205.8873,85.8605
206.1127,85.8605
206.1127,85.8605
206.3351,85.8234
206.5484,85.7502
206.7467,85.6429
206.7472,85.6424
206.8474,85.5645
206.9246,85.5044
207.0773,85.3385
207.1465,85.2326
207.1996,85.1872
207.2689,85.1778
207.3322,85.2073
207.3541,85.2326
207.3777,85.2687
208.0497,84.5967
208.0713,84.6776
208.1319,84.7824
208.2176,84.8681
208.3224,84.9287
208.4032,84.9503
207.7297,85.6238
207.7297,85.6238
207.7536,85.6424
207.9518,85.7497
207.9518,85.7497
208.1650,85.8229
208.3873,85.8600
208.6127,85.8600
208.8350,85.8229
209.0482,85.7497
209.0482,85.7497
209.2464,85.6424
209.2703,85.6238
209.2703,85.6238
208.5967,84.9503
208.6776,84.9287
208.7824,84.8681
208.8681,84.7824
208.9287,84.6776
208.9503,84.5967
209.6223,85.2687
209.7002,85.1495
209.7002,85.1495
209.7907,84.9431
209.8460,84.7246
209.8647,84.5000
209.8647,84.5000
218.1348,84.5000
218.1348,84.5000
218.1535,84.7247
218.2088,84.9433
218.2994,85.1497
218.4227,85.3385
218.4227,85.3385
218.5754,85.5044
218.5754,85.5044
218.7533,85.6429
218.7533,85.6429
218.7533,85.6429
218.9516,85.7502
218.9516,85.7502
219.1649,85.8234
219.1649,85.8234
219.1649,85.8234
219.3873,85.8605
219.3873,85.8605
219.6127,85.8605
219.6127,85.8605
219.8351,85.8234
220.0484,85.7502
220.2467,85.6429
220.2472,85.6424
220.3474,85.5645
220.4246,85.5044
220.5773,85.3385
220.6462,85.2331
220.6993,85.1877
220.7686,85.1783
220.8319,85.2078
220.8538,85.2331
220.9227,85.3385
220.9227,85.3385
221.0754,85.5044
221.0754,85.5044
221.2533,85.6429
221.2533,85.6429
221.2533,85.6429
221.4516,85.7502
221.4516,85.7502
221.6649,85.8234
221.6649,85.8234
221.6649,85.8234
221.8873,85.8605
221.8873,85.8605
222.1127,85.8605
222.1127,85.8605
222.3351,85.8234
222.5484,85.7502
222.7467,85.6429
222.9238,85.5050
222.9888,85.4793
223.0574,85.4929
223.0762,85.5050
223.1526,85.5645
223.2528,85.6424
223.2533,85.6429
223.4516,85.7502
223.4516,85.7502
223.6649,85.8234
223.6649,85.8234
223.6649,85.8234
223.8873,85.8605
223.8873,85.8605
224.1127,85.8605
224.1127,85.8605
224.3351,85.8234
224.5484,85.7502
224.7467,85.6429
224.7472,85.6424
224.8474,85.5645
224.9246,85.5044
225.0773,85.3385
225.1465,85.2326
225.1996,85.1872
225.2689,85.1778
225.3322,85.2073
225.3541,85.2326
225.3777,85.2687
226.0497,84.5967
226.0713,84.6776
226.1319,84.7824
226.2176,84.8681
226.3224,84.9287
226.4032,84.9503
225.7297,85.6238
225.7297,85.6238
225.7536,85.6424
225.9518,85.7497
225.9518,85.7497
226.1650,85.8229
226.3873,85.8600
226.6127,85.8600
226.8350,85.8229
227.0482,85.7497
227.0482,85.7497
227.2464,85.6424
227.2703,85.6238
227.2703,85.6238
226.5967,84.9503
226.6776,84.9287
226.7824,84.8681
226.8681,84.7824
226.9287,84.6776
226.9503,84.5967
227.6223,85.2687
227.7002,85.1495
227.7002,85.1495
227.7907,84.9431
227.8070,84.8787
233.1495,84.8787
233.1495,85.1213
233.1812,85.3618
233.2439,85.5961
233.3195,85.7785
233.3368,85.8202
233.4581,86.0303
233.4581,86.0303
233.4581,86.0303
233.6057,86.2227
233.6057,86.2227
233.7773,86.3943
233.7773,86.3943
233.8310,86.4355
233.9697,86.5419
234.1798,86.6632
234.4039,86.7561
234.6382,86.8188
234.8186,86.8426
234.8787,86.8505
234.8787,86.8505
235.1213,86.8505
235.1694,86.8442
235.3618,86.8188
235.5961,86.7561
235.8202,86.6632
236.0303,86.5419
236.2227,86.3943
236.3943,86.2227
236.5419,86.0303
236.6632,85.8202
236.7561,85.5961
236.8188,85.3618
236.8505,85.1213
236.8505,84.8787
236.8188,84.6382
236.7561,84.4039
236.6632,84.1798
236.5419,83.9697
236.4810,83.8903
236.3943,83.7773
236.3943,83.7773
236.2227,83.6057
236.2227,83.6057
236.0303,83.4581
236.0303,83.4581
236.0303,83.4581
235.8202,83.3368
235.8202,83.3368
235.5961,83.2439
235.3618,83.1812
235.1213,83.1495
235.1213,83.1495
234.8787,83.1495
234.8787,83.1495
234.6382,83.1812
234.4039,83.2439
234.1798,83.3368
234.1798,83.3368
233.9697,83.4581
233.7773,83.6057
233.7773,83.6057
233.6057,83.7773
233.6057,83.7773
233.4581,83.9697
233.3368,84.1798
233.3368,84.1798
233.2439,84.4039
233.1812,84.6382
233.1495,84.8787
227.8070,84.8787
227.8460,84.7246
227.8647,84.5000
227.8647,84.5000
227.8460,84.2754
227.7907,84.0569
227.7002,83.8505
227.6223,83.7313
226.9503,84.4032
226.9287,84.3224
226.8681,84.2176
226.7824,84.1319
226.6776,84.0713
226.5967,84.0497
227.2703,83.3762
227.2703,83.3761
227.2464,83.3576
227.0482,83.2503
227.0482,83.2503
226.8350,83.1771
226.6127,83.1400
226.3873,83.1400
226.1650,83.1771
225.9518,83.2503
225.9518,83.2503
225.7536,83.3576
225.7297,83.3761
225.7297,83.3761
226.4033,84.0497
226.3224,84.0713
226.2176,84.1319
226.1319,84.2176
226.0713,84.3224
226.0497,84.4032
225.3777,83.7313
225.3541,83.7674
225.3010,83.8127
225.2317,83.8222
225.1684,83.7927
225.1465,83.7674
225.0773,83.6615
225.0773,83.6615
224.9246,83.4956
224.9246,83.4956
224.9246,83.4956
224.7467,83.3571
224.7467,83.3571
224.5484,83.2498
224.5484,83.2498
224.3351,83.1766
224.1683,83.1488
224.1127,83.1395
223.8873,83.1395
223.8428,83.1469
223.6649,83.1766
223.4516,83.2498
223.4516,83.2498
223.2533,83.3571
223.2533,83.3571
223.0762,83.4950
223.0112,83.5207
222.9426,83.5071
222.9238,83.4950
222.7467,83.3571
222.7467,83.3571
222.5484,83.2498
222.5484,83.2498
222.3351,83.1766
222.1683,83.1488
222.1127,83.1395
221.8873,83.1395
221.8428,83.1469
221.6649,83.1766
221.4516,83.2498
221.4516,83.2498
221.2533,83.3571
221.2533,83.3571
221.0754,83.4956
221.0754,83.4956
220.9227,83.6615
220.9227,83.6615
220.8538,83.7669
220.8007,83.8123
220.7314,83.8217
220.6681,83.7922
220.6462,83.7669
220.5773,83.6615
220.5773,83.6615
220.4246,83.4956
220.4246,83.4956
220.4246,83.4956
220.2467,83.3571
220.2467,83.3571
220.0484,83.2498
220.0484,83.2498
219.8351,83.1766
219.6683,83.1488
219.6127,83.1395
219.3873,83.1395
219.3428,83.1469
219.1649,83.1766
218.9516,83.2498
218.9516,83.2498
218.7533,83.3571
218.7533,83.3571
218.5754,83.4956
218.5754,83.4956
218.4227,83.6615
218.4227,83.6615
218.2994,83.8503
218.2088,84.0567
218.1535,84.2753
218.1348,84.5000
209.8647,84.5000
209.8460,84.2754
209.7907,84.0569
209.7002,83.8505
209.6223,83.7313
208.9503,84.4032
208.9287,84.3224
208.8681,84.2176
208.7824,84.1319
208.6776,84.0713
208.5967,84.0497
209.2703,83.3762
209.2703,83.3761
209.2464,83.3576
209.0482,83.2503
209.0482,83.2503
208.8350,83.1771
208.6127,83.1400
208.3873,83.1400
208.1650,83.1771
207.9518,83.2503
207.9518,83.2503
207.7536,83.3576
207.7297,83.3761
207.7297,83.3761
208.4033,84.0497
208.3224,84.0713
208.2176,84.1319
208.1319,84.2176
208.0713,84.3224
208.0497,84.4032
207.3777,83.7313
207.3541,83.7674
207.3010,83.8127
207.2317,83.8222
207.1684,83.7927
207.1465,83.7674
207.0773,83.6615
207.0773,83.6615
206.9246,83.4956
206.9246,83.4956
206.9246,83.4956
206.7467,83.3571
206.7467,83.3571
206.5484,83.2498
206.5484,83.2498
206.3351,83.1766
206.1683,83.1488
206.1127,83.1395
205.8873,83.1395
205.8428,83.1469
205.6649,83.1766
205.4516,83.2498
205.4516,83.2498
205.2533,83.3571
205.2533,83.3571
205.0762,83.4950
205.0112,83.5207
204.9426,83.5071
204.9238,83.4950
204.7467,83.3571
204.7467,83.3571
204.5484,83.2498
204.5484,83.2498
204.3351,83.1766
204.1683,83.1488
204.1127,83.1395
203.8873,83.1395
203.8428,83.1469
203.6649,83.1766
203.4516,83.2498
203.4516,83.2498
203.2533,83.3571
203.2533,83.3571
203.0754,83.4956
203.0754,83.4956
202.9227,83.6615
202.9227,83.6615
202.8538,83.7669
202.8007,83.8123
202.7314,83.8217
202.6681,83.7922
202.6462,83.7669
202.5773,83.6615
202.5773,83.6615
202.4246,83.4956
202.4246,83.4956
202.4246,83.4956
202.2467,83.3571
202.2467,83.3571
202.0484,83.2498
202.0484,83.2498
201.8351,83.1766
201.6683,83.1488
201.6127,83.1395
201.3873,83.1395
201.3428,83.1469
201.1649,83.1766
200.9516,83.2498
200.9516,83.2498
200.7533,83.3571
200.7533,83.3571
200.5754,83.4956
200.5754,83.4956
200.4227,83.6615
200.4227,83.6615
200.2994,83.8503
200.2088,84.0567
200.1535,84.2753
200.1348,84.5000
176.7818,84.5000
176.7561,84.4039
176.6632,84.1798
176.5419,83.9697
176.4810,83.8903
176.3943,83.7773
176.3943,83.7773
176.2227,83.6057
176.2227,83.6057
176.0303,83.4581
176.0303,83.4581
176.0303,83.4581
175.8202,83.3368
175.8202,83.3368
175.5961,83.2439
175.3618,83.1812
175.1213,83.1495
175.1213,83.1495
174.8787,83.1495
174.8787,83.1495
174.6382,83.1812
174.4039,83.2439
174.1798,83.3368
174.1798,83.3368
173.9697,83.4581
173.7773,83.6057
173.7773,83.6057
173.6057,83.7773
173.6057,83.7773
173.4581,83.9697
173.3368,84.1798
173.3368,84.1798
173.2439,84.4039
173.1812,84.6382
173.1495,84.8787
170.5005,84.8787
170.5005,81.0000
183.7447,81.0000
183.7447,81.0000
183.7640,81.2944
183.7640,81.2944
183.7640,81.2944
183.7640,81.2944
183.8215,81.5837
183.8215,81.5837
183.9163,81.8631
184.0468,82.1277
184.0468,82.1277
184.2107,82.3730
184.4052,82.5948
184.6270,82.7893
184.8723,82.9532
184.8723,82.9532
185.1369,83.0837
185.4163,83.1785
185.7056,83.2360
185.7339,83.2379
186.0000,83.2553
186.0000,83.2553
186.0000,83.2553
186.2357,83.2399
186.2944,83.2360
186.5837,83.1785
186.8631,83.0837
187.1277,82.9532
187.3730,82.7893
187.5948,82.5948
187.7893,82.3730
187.9532,82.1277
188.0837,81.8631
188.1785,81.5837
188.2360,81.2944
188.2553,81.0000
188.2553,81.0000
188.2360,80.7056
188.2360,80.7056
188.1785,80.4163
188.0837,80.1369
187.9532,79.8723
187.7893,79.6270
187.7467,79.5784
187.5948,79.4052
187.3730,79.2107
187.3601,79.2022
188.7500,79.2022
188.7500,80.7500
190.0811,80.7500
190.0500,80.9064
190.0500,81.0936
190.0811,81.2500
188.7500,81.2500
188.7500,82.7978
188.7564,82.8574
188.7564,82.8574
188.8066,82.9921
188.8066,82.9921
188.8928,83.1072
188.8928,83.1072
189.0079,83.1933
189.0079,83.1934
189.1426,83.2436
189.1426,83.2436
189.2022,83.2500
189.2022,83.2500
190.7500,83.2500
190.7500,81.9189
190.9064,81.9500
191.0936,81.9500
191.2500,81.9189
191.2500,83.2500
192.7978,83.2500
192.7978,83.2500
192.8574,83.2436
192.8574,83.2436
192.9921,83.1934
192.9921,83.1933
193.1072,83.1072
193.1072,83.1072
193.1933,82.9921
193.1934,82.9921
193.2436,82.8574
193.2436,82.8574
193.2500,82.7978
193.2500,82.7978
193.2500,81.2500
191.9189,81.2500
191.9500,81.0936
191.9500,80.9064
191.9189,80.7500
193.2500,80.7500
193.2500,79.2022
193.2500,79.2022
193.2436,79.1426
193.2436,79.1426
193.1934,79.0079
193.1933,79.0079
193.1072,78.8928
193.1072,78.8928
192.9921,78.8066
192.9921,78.8066
192.8574,78.7564
192.8574,78.7564
192.7978,78.7500
191.2500,78.7500
191.2500,80.0811
191.0936,80.0500
190.9064,80.0500
190.7500,80.0811
190.7500,78.7500
189.2022,78.7500
189.1426,78.7564
189.1426,78.7564
189.0079,78.8066
189.0079,78.8066
188.8928,78.8928
188.8928,78.8928
188.8066,79.0079
188.8066,79.0079
188.7564,79.1426
188.7564,79.1426
188.7500,79.2022
187.3601,79.2022
187.1277,79.0468
187.1277,79.0468
186.8631,78.9163
186.5837,78.8215
186.5837,78.8215
186.5837,78.8215
186.2944,78.7640
186.2944,78.7640
186.2944,78.7640
186.0000,78.7447
186.0000,78.7447
185.7056,78.7640
185.7056,78.7640
185.7056,78.7640
185.7056,78.7640
185.7056,78.7640
185.4163,78.8215
185.4163,78.8215
185.1369,78.9163
184.8723,79.0468
184.6270,79.2107
184.4052,79.4052
184.2107,79.6270
184.0468,79.8723
183.9163,80.1369
183.8215,80.4163
183.8215,80.4163
183.7640,80.7056
183.7640,80.7056
183.7447,81.0000
170.5005,81.0000
170.5005,79.0000
172.5944,79.0000
172.5944,79.0000
172.6149,79.2215
172.6149,79.2215
172.6758,79.4355
172.6758,79.4355
172.7749,79.6347
172.7749,79.6347
172.9090,79.8122
173.0734,79.9621
173.0734,79.9621
173.2626,80.0792
173.2626,80.0792
173.2626,80.0792
173.4701,80.1596
173.6888,80.2005
173.6888,80.2005
173.9112,80.2005
173.9112,80.2005
174.1299,80.1596
174.3374,80.0792
174.5266,79.9621
174.6910,79.8122
174.8251,79.6347
174.9242,79.4355
174.9851,79.2215
175.0056,79.0000
174.9957,78.8928
174.9851,78.7785
174.9851,78.7785
174.9810,78.7640
174.9242,78.5645
174.9242,78.5645
174.8251,78.3653
174.8251,78.3653
174.6910,78.1878
174.5266,78.0379
174.5266,78.0379
174.3374,77.9208
174.3374,77.9208
174.1299,77.8404
173.9112,77.7995
173.6888,77.7995
173.4701,77.8404
173.4262,77.8574
173.2626,77.9208
173.2626,77.9208
173.0734,78.0379
173.0734,78.0379
172.9090,78.1878
172.7749,78.3653
172.7749,78.3653
172.6758,78.5645
172.6758,78.5645
172.6149,78.7785
172.6149,78.7785
172.5944,79.0000
170.5005,79.0000
170.5005,74.2022
176.5500,74.2022
176.5500,75.7500
177.8811,75.7500
177.8500,75.9064
177.8500,76.0936
177.8811,76.2500
176.5500,76.2500
176.5500,77.7978
176.5564,77.8574
176.5564,77.8574
176.6066,77.9921
176.6066,77.9921
176.6928,78.1072
176.6928,78.1072
176.8079,78.1933
176.8079,78.1934
176.9426,78.2436
176.9426,78.2436
177.0022,78.2500
177.0022,78.2500
178.5500,78.2500
178.5500,76.9189
178.7064,76.9500
178.8936,76.9500
179.0500,76.9189
179.0500,78.2500
180.5978,78.2500
180.5978,78.2500
180.6574,78.2436
180.6574,78.2436
180.7921,78.1934
180.7921,78.1933
180.9072,78.1072
180.9072,78.1072
180.9933,77.9921
180.9934,77.9921
181.0436,77.8574
181.0436,77.8574
181.0500,77.7978
181.0500,77.7978
181.0500,76.2500
179.7189,76.2500
179.7500,76.0936
179.7500,75.9064
179.7189,75.7500
181.0500,75.7500
181.0500,74.2022
181.0500,74.2022
181.0436,74.1426
181.0436,74.1426
180.9934,74.0079
180.9933,74.0079
180.9072,73.8928
180.9072,73.8928
180.7921,73.8066
180.7921,73.8066
180.6574,73.7564
180.6574,73.7564
180.5978,73.7500
179.0500,73.7500
179.0500,75.0811
178.8936,75.0500
178.7064,75.0500
178.5500,75.0811
178.5500,73.7500
177.0022,73.7500
176.9426,73.7564
176.9426,73.7564
176.8079,73.8066
176.8079,73.8066
176.6928,73.8928
176.6928,73.8928
176.6066,74.0079
176.6066,74.0079
176.5564,74.1426
176.5564,74.1426
176.5500,74.2022
170.5005,74.2022
170.5005,71.0000
176.5447,71.0000
176.5447,71.0000
176.5640,71.2944
176.5640,71.2944
176.5640,71.2944
176.6049,71.5000
176.6215,71.5837
176.6215,71.5837
176.7163,71.8631
176.8468,72.1277
176.8468,72.1277
177.0107,72.3730
177.2052,72.5948
177.4270,72.7893
177.5874,72.8964
177.6723,72.9532
177.9369,73.0837
178.2163,73.1785
178.5056,73.2360
178.5339,73.2379
178.8000,73.2553
178.8000,73.2553
178.8000,73.2553
179.0357,73.2399
179.0944,73.2360
179.3837,73.1785
179.6631,73.0837
179.9277,72.9532
180.1730,72.7893
180.3948,72.5948
180.5893,72.3730
180.7532,72.1277
180.8837,71.8631
180.9785,71.5837
181.0360,71.2944
181.0518,71.0535
181.0553,71.0000
181.0553,71.0000
181.0363,70.7100
196.7327,70.7100
196.7327,70.7100
196.7519,70.9301
196.7519,70.9301
196.8091,71.1434
196.8091,71.1434
196.8091,71.1435
196.8697,71.2733
196.9025,71.3437
196.9025,71.3437
197.0292,71.5246
197.0292,71.5246
197.1854,71.6808
197.1854,71.6808
197.3663,71.8075
197.3663,71.8075
197.3663,71.8075
197.4855,71.8631
197.4958,71.8679
197.5482,71.9141
197.5674,71.9813
197.5472,72.0481
197.4958,72.0927
197.3666,72.1529
197.3018,72.1983
197.9726,72.8690
197.9498,72.8690
197.8529,72.8950
197.7661,72.9451
197.6951,73.0161
197.6450,73.1029
197.6190,73.1998
197.6190,73.2226
196.9483,72.5518
196.9029,72.6166
196.8096,72.8167
196.8096,72.8167
196.7524,73.0300
196.7524,73.0300
196.7332,73.2500
196.7332,73.2500
196.7524,73.4700
196.7524,73.4700
196.8096,73.6833
196.8096,73.6833
196.9029,73.8834
196.9029,73.8834
196.9483,73.9482
196.9483,73.9482
197.6190,73.2774
197.6190,73.3002
197.6450,73.3971
197.6951,73.4839
197.7661,73.5549
197.8529,73.6050
197.9498,73.6310
197.9726,73.6310
197.3018,74.3017
197.3666,74.3471
197.4958,74.4073
197.5482,74.4535
197.5674,74.5207
197.5472,74.5876
197.4958,74.6321
197.3663,74.6925
197.3663,74.6925
197.1854,74.8192
197.0292,74.9754
196.9025,75.1563
196.9025,75.1563
196.8091,75.3565
196.8091,75.3566
196.7519,75.5699
196.7519,75.5699
196.7327,75.7900
196.7327,75.7900
196.7519,76.0101
196.7519,76.0101
196.8091,76.2234
196.8091,76.2234
196.8091,76.2234
196.8324,76.2734
196.9025,76.4237
196.9025,76.4237
197.0292,76.6046
197.0292,76.6046
197.1854,76.7608
197.1854,76.7608
197.3663,76.8875
197.3663,76.8875
197.3663,76.8875
197.5665,76.9809
197.7799,77.0381
197.9371,77.0518
198.0000,77.0573
198.0000,77.0573
198.0000,77.0573
198.0550,77.0525
198.2201,77.0381
198.4334,76.9809
198.6337,76.8875
198.8146,76.7608
198.9708,76.6046
199.0441,76.5000
206.1950,76.5000
206.1950,76.5000
206.2149,76.7266
206.2149,76.7266
206.2737,76.9463
206.2737,76.9463
206.3699,77.1525
206.4210,77.2255
207.1000,76.5464
207.1000,76.5527
207.1273,76.6544
207.1799,76.7456
207.2544,76.8201
207.3456,76.8727
207.4473,76.9000
207.4536,76.9000
206.7745,77.5790
206.8475,77.6301
206.8475,77.6301
207.0537,77.7263
207.0537,77.7263
207.2734,77.7851
207.2734,77.7851
207.5000,77.8050
207.5000,77.8050
207.7266,77.7851
207.7266,77.7851
207.9463,77.7263
207.9463,77.7263
208.1525,77.6301
208.2255,77.5790
207.5464,76.9000
207.5527,76.9000
207.6544,76.8727
207.7456,76.8201
207.8201,76.7456
207.8727,76.6544
207.9000,76.5527
207.9000,76.5464
208.5790,77.2255
208.6301,77.1525
208.7263,76.9463
208.7263,76.9463
208.7851,76.7266
208.7851,76.7266
208.8050,76.5000
208.8050,76.5000
208.7851,76.2734
208.7851,76.2734
208.7263,76.0537
208.7263,76.0537
208.6301,75.8475
208.6301,75.8475
208.5790,75.7745
207.9000,76.4536
207.9000,76.4473
207.8727,76.3456
207.8201,76.2544
207.7456,76.1799
207.6544,76.1273
207.5527,76.1000
207.5464,76.1000
208.2255,75.4210
208.1525,75.3699
207.9463,75.2737
207.9463,75.2737
207.7266,75.2149
207.7266,75.2149
207.5000,75.1950
207.5000,75.1950
207.2734,75.2149
207.2734,75.2149
207.0537,75.2737
207.0537,75.2737
206.8475,75.3699
206.8475,75.3699
206.7745,75.4210
206.7745,75.4210
207.4536,76.1000
207.4473,76.1000
207.3456,76.1273
207.2544,76.1799
207.1799,76.2544
207.1273,76.3456
207.1000,76.4473
207.1000,76.4536
206.4210,75.7745
206.4210,75.7745
206.3699,75.8475
206.3699,75.8475
206.2737,76.0537
206.2737,76.0537
206.2149,76.2734
206.2149,76.2734
206.1950,76.5000
199.0441,76.5000
199.0975,76.4237
199.1909,76.2234
199.2481,76.0101
199.2673,75.7900
199.2481,75.5699
199.1909,75.3565
199.0975,75.1563
198.9708,74.9754
198.8146,74.8192
198.8146,74.8192
198.8146,74.8192
198.6337,74.6925
198.6337,74.6925
198.5042,74.6321
198.4518,74.5859
198.4326,74.5187
198.4528,74.4519
198.5042,74.4073
198.6334,74.3471
198.6334,74.3471
198.6982,74.3017
198.0274,73.6310
198.0502,73.6310
198.1471,73.6050
198.2339,73.5549
198.3049,73.4839
198.3550,73.3971
198.3810,73.3002
198.3810,73.2774
199.0517,73.9482
199.0971,73.8834
199.0971,73.8834
199.1904,73.6833
199.1904,73.6833
199.2476,73.4700
199.2476,73.4700
199.2668,73.2500
199.2668,73.2500
199.2476,73.0300
199.2476,73.0300
199.1904,72.8167
199.1904,72.8167
199.0971,72.6166
199.0517,72.5518
199.0517,72.5518
198.3810,73.2226
198.3810,73.1998
198.3550,73.1029
198.3049,73.0161
198.2339,72.9451
198.1471,72.8950
198.0502,72.8690
198.0274,72.8690
198.6982,72.1983
198.6982,72.1983
198.6334,72.1529
198.6334,72.1529
198.5042,72.0927
198.4518,72.0465
198.4326,71.9793
198.4528,71.9124
198.5042,71.8679
198.5145,71.8631
198.6337,71.8075
198.8146,71.6808
198.9708,71.5246
198.9881,71.5000
206.1945,71.5000
206.1945,71.5000
206.2144,71.7267
206.2144,71.7267
206.2733,71.9465
206.2733,71.9465
206.3694,72.1527
206.3694,72.1527
206.5000,72.3391
206.6609,72.5000
206.6609,72.5000
206.8473,72.6306
207.0535,72.7267
207.2733,72.7856
207.4352,72.7998
207.5000,72.8055
207.5000,72.8055
207.5000,72.8055
207.5567,72.8005
207.7267,72.7856
207.9465,72.7267
208.1527,72.6306
208.3391,72.5000
208.5000,72.3391
208.6306,72.1527
208.7267,71.9465
208.7856,71.7267
208.8055,71.5000
208.7856,71.2733
208.7267,71.0535
208.6306,70.8473
208.5000,70.6609
208.5000,70.6609
208.3391,70.5000
208.1527,70.3694
208.1527,70.3694
207.9465,70.2733
207.9465,70.2733
207.7267,70.2144
207.7267,70.2144
207.7267,70.2144
207.7267,70.2144
207.7267,70.2144
207.5000,70.1945
207.5000,70.1945
207.2733,70.2144
207.2733,70.2144
207.0535,70.2733
207.0535,70.2733
206.8473,70.3694
206.8473,70.3694
206.6609,70.5000
206.5000,70.6609
206.3694,70.8473
206.3694,70.8473
206.2733,71.0535
206.2733,71.0535
206.2144,71.2733
206.2144,71.2733
206.1945,71.5000
198.9881,71.5000
199.0975,71.3437
199.1909,71.1435
199.2481,70.9301
199.2673,70.7100
199.2481,70.4899
199.1909,70.2766
199.0975,70.0763
198.9708,69.8954
198.8146,69.7392
198.8146,69.7392
198.8146,69.7392
198.6337,69.6125
198.6337,69.6125
198.6337,69.6125
198.4334,69.5191
198.4334,69.5191
198.4334,69.5191
198.2201,69.4619
198.2201,69.4619
198.0000,69.4427
198.0000,69.4427
197.7799,69.4619
197.7799,69.4619
197.5666,69.5191
197.5665,69.5191
197.3663,69.6125
197.3663,69.6125
197.1854,69.7392
197.0292,69.8954
196.9025,70.0763
196.9025,70.0763
196.8091,70.2765
196.8091,70.2766
196.7519,70.4899
196.7519,70.4899
196.7327,70.7100
181.0363,70.7100
181.0360,70.7056
181.0360,70.7056
180.9785,70.4163
180.8837,70.1369
180.7532,69.8723
180.5893,69.6270
180.5467,69.5784
180.3948,69.4052
180.1730,69.2107
179.9277,69.0468
179.9277,69.0468
179.6631,68.9163
179.3837,68.8215
179.3837,68.8215
179.3837,68.8215
179.0944,68.7640
179.0944,68.7640
179.0944,68.7640
178.8000,68.7447
178.8000,68.7447
178.5056,68.7640
178.5056,68.7640
178.5056,68.7640
178.5056,68.7640
178.5056,68.7640
178.2163,68.8215
178.2163,68.8215
177.9369,68.9163
177.6723,69.0468
177.4270,69.2107
177.2052,69.4052
177.0107,69.6270
176.8468,69.8723
176.7163,70.1369
176.6215,70.4163
176.6215,70.4163
176.5640,70.7056
176.5640,70.7056
176.5447,71.0000
170.5005,71.0000
170.5005,68.0000
172.5944,68.0000
172.5944,68.0000
172.6149,68.2215
172.6149,68.2215
172.6758,68.4355
172.6758,68.4355
172.7749,68.6347
172.7749,68.6347
172.9090,68.8122
173.0734,68.9621
173.0734,68.9621
173.2626,69.0792
173.2626,69.0792
173.2626,69.0792
173.4701,69.1596
173.6888,69.2005
173.6888,69.2005
173.9112,69.2005
173.9112,69.2005
174.1299,69.1596
174.3374,69.0792
174.5266,68.9621
174.6910,68.8122
174.8251,68.6347
174.9242,68.4355
174.9851,68.2215
175.0056,68.0000
174.9851,67.7785
174.9242,67.5645
174.9242,67.5645
174.8251,67.3653
174.8251,67.3653
174.6910,67.1878
174.5266,67.0379
174.5266,67.0379
174.3374,66.9208
174.3374,66.9208
174.1299,66.8404
173.9112,66.7995
173.6888,66.7995
173.4701,66.8404
173.3389,66.8912
173.2626,66.9208
173.2626,66.9208
173.0734,67.0379
173.0734,67.0379
172.9090,67.1878
172.7749,67.3653
172.7749,67.3653
172.6758,67.5645
172.6758,67.5645
172.6149,67.7785
172.6149,67.7785
172.5944,68.0000
170.5005,68.0000
170.5005,63.0000
181.2445,63.0000
181.2445,63.0000
181.2646,63.3203
181.2646,63.3203
181.3247,63.6355
181.4239,63.9408
181.4239,63.9408
181.5606,64.2311
181.5606,64.2311
181.7325,64.5021
181.7325,64.5021
181.9033,64.7086
181.9371,64.7494
182.1180,64.9193
182.1710,64.9691
182.1710,64.9691
182.4307,65.1577
182.4307,65.1577
182.4307,65.1577
182.7119,65.3123
183.0103,65.4305
183.0103,65.4305
183.3211,65.5103
183.3211,65.5103
183.3879,65.5187
183.6395,65.5505
183.6395,65.5505
183.6395,65.5505
183.6395,65.5505
183.9605,65.5505
183.9605,65.5505
183.9605,65.5505
183.9605,65.5505
184.1505,65.5265
184.2789,65.5103
184.5897,65.4305
184.8881,65.3123
185.1693,65.1577
185.4290,64.9691
185.6629,64.7494
185.8675,64.5021
186.0394,64.2311
186.1761,63.9408
186.2753,63.6355
186.3354,63.3203
186.3354,63.3203
186.3555,63.0000
186.3555,63.0000
186.3354,62.6797
186.3354,62.6797
186.3354,62.6797
186.2753,62.3645
186.1761,62.0592
186.1702,62.0468
186.1034,61.9047
188.4500,61.9047
188.4500,62.7500
189.6728,62.7500
189.6500,62.8938
189.6500,63.1062
189.6728,63.2500
188.4500,63.2500
188.4500,64.0953
188.4602,64.2400
188.4602,64.2400
188.5143,64.4802
188.5143,64.4802
188.6062,64.7086
188.7336,64.9193
188.7336,64.9193
188.8932,65.1068
189.0807,65.2664
189.0807,65.2664
189.2914,65.3938
189.5198,65.4857
189.5198,65.4857
189.7600,65.5398
189.7600,65.5398
189.9047,65.5500
189.9047,65.5500
190.7500,65.5500
190.7500,64.3272
190.8938,64.3500
191.1062,64.3500
191.2500,64.3272
191.2500,65.5500
192.0953,65.5500
192.0953,65.5500
192.2400,65.5398
192.2400,65.5398
192.4802,65.4857
192.4802,65.4857
192.7086,65.3938
192.9193,65.2664
192.9193,65.2664
193.1068,65.1068
193.2664,64.9193
193.2664,64.9193
193.3938,64.7086
193.4857,64.4802
193.4857,64.4802
193.5398,64.2400
193.5398,64.2400
193.5500,64.0953
193.5500,64.0953
193.5500,63.2500
192.3272,63.2500
192.3500,63.1062
192.3500,62.8938
192.3272,62.7500
193.5500,62.7500
193.5500,62.2022
199.7500,62.2022
199.7500,63.7500
201.0811,63.7500
201.0500,63.9064
201.0500,64.0936
201.0811,64.2500
199.7500,64.2500
199.7500,65.7978
199.7564,65.8574
199.7564,65.8574
199.8066,65.9921
199.8066,65.9921
199.8928,66.1072
199.8928,66.1072
200.0079,66.1933
200.0079,66.1934
200.1426,66.2436
200.1426,66.2436
200.2022,66.2500
200.2022,66.2500
201.7500,66.2500
201.7500,64.9189
201.9064,64.9500
202.0936,64.9500
202.2500,64.9189
202.2500,66.2500
203.7978,66.2500
203.7978,66.2500
203.8574,66.2436
203.8574,66.2436
203.9921,66.1934
203.9921,66.1933
204.1072,66.1072
204.1072,66.1072
204.1933,65.9921
204.1934,65.9921
204.2436,65.8574
204.2436,65.8574
204.2500,65.7978
204.2500,65.7978
204.2500,64.2500
202.9189,64.2500
202.9500,64.0936
202.9500,64.0000
204.7447,64.0000
204.7447,64.0000
204.7640,64.2944
204.7640,64.2944
204.7640,64.2944
204.8009,64.4802
204.8215,64.5837
204.8215,64.5837
204.9163,64.8631
205.0468,65.1277
205.0468,65.1277
205.2107,65.3730
205.4052,65.5948
205.6270,65.7893
205.8723,65.9532
205.8723,65.9532
206.1369,66.0837
206.4163,66.1785
206.7056,66.2360
206.7339,66.2379
207.0000,66.2553
207.0000,66.2553
207.0000,66.2553
207.2425,66.2394
207.2944,66.2360
207.5837,66.1785
207.8631,66.0837
208.1277,65.9532
208.3730,65.7893
208.5948,65.5948
208.7893,65.3730
208.9532,65.1277
209.0837,64.8631
209.1785,64.5837
209.2360,64.2944
209.2553,64.0000
209.2553,64.0000
209.2360,63.7056
209.2360,63.7056
209.1785,63.4163
209.0837,63.1369
208.9938,62.9548
214.7500,62.9548
214.7500,63.7500
216.0811,63.7500
216.0500,63.9064
216.0500,64.0936
216.0811,64.2500
214.7500,64.2500
214.7500,65.0452
214.7606,65.1795
214.8164,65.4012
214.9110,65.6093
214.9110,65.6093
215.0412,65.7972
215.2028,65.9588
215.3907,66.0890
215.3907,66.0890
215.5988,66.1836
215.8205,66.2394
215.9548,66.2500
216.7500,66.2500
216.7500,66.2500
216.7500,64.9189
216.9064,64.9500
217.0936,64.9500
217.2500,64.9189
217.2500,66.2500
218.0452,66.2500
218.0452,66.2500
218.1795,66.2394
218.4012,66.1836
218.6093,66.0890
218.6093,66.0890
218.7972,65.9588
218.9588,65.7972
219.0890,65.6093
219.0890,65.6093
219.1836,65.4012
219.2394,65.1795
219.2500,65.0452
219.2500,65.0452
219.2500,64.2500
217.9189,64.2500
217.9500,64.0936
217.9500,64.0000
219.7447,64.0000
219.7447,64.0000
219.7640,64.2944
219.7640,64.2944
219.7640,64.2944
219.8009,64.4802
219.8215,64.5837
219.8215,64.5837
219.9163,64.8631
220.0468,65.1277
220.0468,65.1277
220.2107,65.3730
220.4052,65.5948
220.6270,65.7893
220.8723,65.9532
220.8723,65.9532
221.1369,66.0837
221.4163,66.1785
221.7056,66.2360
221.7339,66.2379
222.0000,66.2553
222.0000,66.2553
222.0000,66.2553
222.2425,66.2394
222.2944,66.2360
222.5837,66.1785
222.8631,66.0837
223.1277,65.9532
223.3730,65.7893
223.5948,65.5948
223.7893,65.3730
223.9532,65.1277
224.0837,64.8631
224.1785,64.5837
224.2360,64.2944
224.2553,64.0000
224.2553,64.0000
224.2360,63.7056
224.2360,63.7056
224.1785,63.4163
224.0837,63.1369
223.9532,62.8723
223.7893,62.6270
223.7467,62.5784
223.5948,62.4052
223.3730,62.2107
223.1277,62.0468
223.1277,62.0468
222.8631,61.9163
222.5837,61.8215
222.5837,61.8215
222.5837,61.8215
222.2944,61.7640
222.2944,61.7640
222.2944,61.7640
222.0000,61.7447
222.0000,61.7447
221.7056,61.7640
221.7056,61.7640
221.7056,61.7640
221.7056,61.7640
221.7056,61.7640
221.4163,61.8215
221.4163,61.8215
221.1369,61.9163
220.8723,62.0468
220.6270,62.2107
220.4052,62.4052
220.2107,62.6270
220.0468,62.8723
219.9163,63.1369
219.8215,63.4163
219.8215,63.4163
219.7640,63.7056
219.7640,63.7056
219.7447,64.0000
217.9500,64.0000
217.9500,63.9064
217.9189,63.7500
219.2500,63.7500
219.2500,62.9548
219.2500,62.9548
219.2394,62.8205
219.1836,62.5988
219.0890,62.3907
219.0890,62.3907
218.9588,62.2028
218.7972,62.0412
218.6093,61.9110
218.6093,61.9110
218.4012,61.8164
218.1795,61.7606
218.0452,61.7500
217.2500,61.7500
217.2500,63.0811
217.0936,63.0500
216.9064,63.0500
216.7500,63.0811
216.7500,61.7500
215.9548,61.7500
215.9548,61.7500
215.8205,61.7606
215.5988,61.8164
215.3907,61.9110
215.3907,61.9110
215.2028,62.0412
215.0412,62.2028
214.9110,62.3907
214.9110,62.3907
214.8164,62.5988
214.7606,62.8205
214.7500,62.9548
208.9938,62.9548
208.9532,62.8723
208.7893,62.6270
208.7467,62.5784
208.5948,62.4052
208.3730,62.2107
208.1277,62.0468
208.1277,62.0468
207.8631,61.9163
207.5837,61.8215
207.5837,61.8215
207.5837,61.8215
207.2944,61.7640
207.2944,61.7640
207.2944,61.7640
207.0000,61.7447
207.0000,61.7447
206.7056,61.7640
206.7056,61.7640
206.7056,61.7640
206.7056,61.7640
206.7056,61.7640
206.4163,61.8215
206.4163,61.8215
206.1369,61.9163
205.8723,62.0468
205.6270,62.2107
205.4052,62.4052
205.2107,62.6270
205.0468,62.8723
204.9163,63.1369
204.8215,63.4163
204.8215,63.4163
204.7640,63.7056
204.7640,63.7056
204.7447,64.0000
202.9500,64.0000
202.9500,63.9064
202.9189,63.7500
204.2500,63.7500
204.2500,62.2022
204.2500,62.2022
204.2436,62.1426
204.2436,62.1426
204.1934,62.0079
204.1933,62.0079
204.1072,61.8928
204.1072,61.8928
203.9921,61.8066
203.9921,61.8066
203.8574,61.7564
203.8574,61.7564
203.7978,61.7500
202.2500,61.7500
202.2500,63.0811
202.0936,63.0500
201.9064,63.0500
201.7500,63.0811
201.7500,61.7500
200.2022,61.7500
200.1426,61.7564
200.1426,61.7564
200.0079,61.8066
200.0079,61.8066
199.8928,61.8928
199.8928,61.8928
199.8066,62.0079
199.8066,62.0079
199.7564,62.1426
199.7564,62.1426
199.7500,62.2022
193.5500,62.2022
193.5500,61.9047
193.5500,61.9047
193.5398,61.7600
193.5398,61.7600
193.4857,61.5198
193.4857,61.5198
193.3938,61.2914
193.2664,61.0807
193.2664,61.0807
193.1068,60.8932
192.9193,60.7336
192.9193,60.7336
192.7086,60.6062
192.4802,60.5143
192.4802,60.5143
192.2400,60.4602
192.2400,60.4602
192.0953,60.4500
191.2500,60.4500
191.2500,61.6728
191.1062,61.6500
190.8938,61.6500
190.7500,61.6728
190.7500,60.4500
189.9047,60.4500
189.7600,60.4602
189.7600,60.4602
189.5198,60.5143
189.5198,60.5143
189.2914,60.6062
189.0807,60.7336
189.0807,60.7336
188.8932,60.8932
188.7336,61.0807
188.7336,61.0807
188.6062,61.2914
188.5143,61.5198
188.5143,61.5198
188.4602,61.7600
188.4602,61.7600
188.4500,61.9047
186.1034,61.9047
186.0394,61.7689
186.0394,61.7689
186.0338,61.7600
185.9640,61.6500
185.8675,61.4979
185.8675,61.4979
185.6629,61.2506
185.6332,61.2227
185.4290,61.0309
185.4290,61.0309
185.4290,61.0309
185.1693,60.8423
185.1693,60.8423
184.8881,60.6877
184.8881,60.6877
184.5897,60.5695
184.5897,60.5695
184.2789,60.4897
184.2789,60.4897
183.9605,60.4495
183.9605,60.4495
183.6395,60.4495
183.6395,60.4495
183.3211,60.4897
183.3211,60.4897
183.0103,60.5695
182.7119,60.6877
182.7119,60.6877
182.4307,60.8423
182.4307,60.8423
182.1710,61.0309
182.1710,61.0309
181.9371,61.2506
181.7325,61.4979
181.7325,61.4979
181.5606,61.7689
181.5606,61.7689
181.4239,62.0592
181.4239,62.0592
181.3247,62.3645
181.2646,62.6797
181.2646,62.6797
181.2445,63.0000
170.5005,63.0000
170.5005,59.8787
173.1495,59.8787
173.1495,60.1213
173.1812,60.3618
173.2439,60.5961
173.3009,60.7336
173.3368,60.8202
173.4581,61.0303
173.4581,61.0303
173.4581,61.0303
173.6057,61.2227
173.6057,61.2227
173.7773,61.3943
173.7773,61.3943
173.9697,61.5419
174.1798,61.6632
174.4039,61.7561
174.6382,61.8188
174.8186,61.8426
174.8787,61.8505
174.8787,61.8505
175.1213,61.8505
175.1694,61.8442
175.3618,61.8188
175.5961,61.7561
175.8202,61.6632
176.0303,61.5419
176.2227,61.3943
176.3943,61.2227
176.5419,61.0303
176.6632,60.8202
176.7561,60.5961
176.8188,60.3618
176.8505,60.1213
176.8505,59.8787
176.8188,59.6382
176.7561,59.4039
176.6632,59.1798
176.5594,59.0000
197.7944,59.0000
197.7944,59.0000
197.8149,59.2215
197.8149,59.2215
197.8758,59.4355
197.8758,59.4355
197.9749,59.6347
197.9749,59.6347
198.1090,59.8122
198.2734,59.9621
198.2734,59.9621
198.4626,60.0792
198.4626,60.0792
198.4626,60.0792
198.6701,60.1596
198.8888,60.2005
198.8888,60.2005
199.1112,60.2005
199.1112,60.2005
199.3299,60.1596
199.5374,60.0792
199.7266,59.9621
199.8910,59.8122
200.0251,59.6347
200.1242,59.4355
200.1851,59.2215
200.2056,59.0000
200.2056,59.0000
208.7944,59.0000
208.7944,59.0000
208.8149,59.2215
208.8149,59.2215
208.8758,59.4355
208.8758,59.4355
208.9749,59.6347
208.9749,59.6347
209.1090,59.8122
209.2734,59.9621
209.2734,59.9621
209.4626,60.0792
209.4626,60.0792
209.4626,60.0792
209.6701,60.1596
209.8888,60.2005
209.8888,60.2005
210.1112,60.2005
210.1112,60.2005
210.3299,60.1596
210.5374,60.0792
210.7266,59.9621
210.8910,59.8122
211.0251,59.6347
211.1242,59.4355
211.1851,59.2215
211.2056,59.0000
211.2056,59.0000
212.7944,59.0000
212.7944,59.0000
212.8149,59.2215
212.8149,59.2215
212.8758,59.4355
212.8758,59.4355
212.9749,59.6347
212.9749,59.6347
213.1090,59.8122
213.2734,59.9621
213.2734,59.9621
213.4626,60.0792
213.4626,60.0792
213.4626,60.0792
213.6701,60.1596
213.8888,60.2005
213.8888,60.2005
214.1112,60.2005
214.1112,60.2005
214.3299,60.1596
214.5374,60.0792
214.7266,59.9621
214.8910,59.8122
215.0251,59.6347
215.1242,59.4355
215.1851,59.2215
215.2056,59.0000
215.2056,59.0000
223.7944,59.0000
223.7944,59.0000
223.8149,59.2215
223.8149,59.2215
223.8758,59.4355
223.8758,59.4355
223.9749,59.6347
223.9749,59.6347
224.1090,59.8122
224.2734,59.9621
224.2734,59.9621
224.4626,60.0792
224.4626,60.0792
224.4626,60.0792
224.6701,60.1596
224.8888,60.2005
224.8888,60.2005
225.1112,60.2005
225.1112,60.2005
225.3299,60.1596
225.5374,60.0792
225.7266,59.9621
225.8181,59.8787
233.1495,59.8787
233.1495,60.1213
233.1812,60.3618
233.2439,60.5961
233.3009,60.7336
233.3368,60.8202
233.4581,61.0303
233.4581,61.0303
233.4581,61.0303
233.6057,61.2227
233.6057,61.2227
233.7773,61.3943
233.7773,61.3943
233.9697,61.5419
234.1798,61.6632
234.4039,61.7561
234.6382,61.8188
234.8186,61.8426
234.8787,61.8505
234.8787,61.8505
235.1213,61.8505
235.1694,61.8442
235.3618,61.8188
235.5961,61.7561
235.8202,61.6632
236.0303,61.5419
236.2227,61.3943
236.3943,61.2227
236.5419,61.0303
236.6632,60.8202
236.7561,60.5961
236.8188,60.3618
236.8505,60.1213
236.8505,59.8787
236.8188,59.6382
236.7561,59.4039
236.6632,59.1798
236.5419,58.9697
236.4810,58.8903
236.3943,58.7773
236.3943,58.7773
236.2227,58.6057
236.2227,58.6057
236.0303,58.4581
236.0303,58.4581
236.0303,58.4581
235.8202,58.3368
235.8202,58.3368
235.5961,58.2439
235.3864,58.1878
235.3618,58.1812
235.3618,58.1812
235.3618,58.1812
235.1213,58.1495
235.1213,58.1495
234.8787,58.1495
234.8787,58.1495
234.6382,58.1812
234.4039,58.2439
234.1798,58.3368
234.1798,58.3368
233.9697,58.4581
233.7773,58.6057
233.7773,58.6057
233.6057,58.7773
233.6057,58.7773
233.4581,58.9697
233.3368,59.1798
233.3368,59.1798
233.2439,59.4039
233.1812,59.6382
233.1495,59.8787
225.8181,59.8787
225.8910,59.8122
226.0251,59.6347
226.1242,59.4355
226.1851,59.2215
226.2056,59.0000
226.1851,58.7785
226.1242,58.5645
226.0924,58.5005
226.0251,58.3653
226.0251,58.3653
225.8910,58.1878
225.7266,58.0379
225.7266,58.0379
225.5374,57.9208
225.5374,57.9208
225.3299,57.8404
225.1112,57.7995
224.8888,57.7995
224.6701,57.8404
224.5389,57.8912
224.4626,57.9208
224.4626,57.9208
224.2734,58.0379
224.2734,58.0379
224.1090,58.1878
223.9749,58.3653
223.9749,58.3653
223.8758,58.5645
223.8758,58.5645
223.8149,58.7785
223.8149,58.7785
223.7944,59.0000
215.2056,59.0000
215.1851,58.7785
215.1242,58.5645
215.0924,58.5005
215.0251,58.3653
215.0251,58.3653
214.8910,58.1878
214.7266,58.0379
214.7266,58.0379
214.5374,57.9208
214.5374,57.9208
214.3299,57.8404
214.1112,57.7995
213.8888,57.7995
213.6701,57.8404
213.5389,57.8912
213.4626,57.9208
213.4626,57.9208
213.2734,58.0379
213.2734,58.0379
213.1090,58.1878
212.9749,58.3653
212.9749,58.3653
212.8758,58.5645
212.8758,58.5645
212.8149,58.7785
212.8149,58.7785
212.7944,59.0000
211.2056,59.0000
211.1851,58.7785
211.1242,58.5645
211.0924,58.5005
211.0251,58.3653
211.0251,58.3653
210.8910,58.1878
210.7266,58.0379
210.7266,58.0379
210.5374,57.9208
210.5374,57.9208
210.3299,57.8404
210.1112,57.7995
209.8888,57.7995
209.6701,57.8404
209.5389,57.8912
209.4626,57.9208
209.4626,57.9208
209.2734,58.0379
209.2734,58.0379
209.1090,58.1878
208.9749,58.3653
208.9749,58.3653
208.8758,58.5645
208.8758,58.5645
208.8149,58.7785
208.8149,58.7785
208.7944,59.0000
200.2056,59.0000
200.1851,58.7785
200.1242,58.5645
200.0924,58.5005
200.0251,58.3653
200.0251,58.3653
199.8910,58.1878
199.7266,58.0379
199.7266,58.0379
199.5374,57.9208
199.5374,57.9208
199.3299,57.8404
199.1112,57.7995
198.8888,57.7995
198.6701,57.8404
198.5389,57.8912
198.4626,57.9208
198.4626,57.9208
198.2734,58.0379
198.2734,58.0379
198.1090,58.1878
197.9749,58.3653
197.9749,58.3653
197.8758,58.5645
197.8758,58.5645
197.8149,58.7785
197.8149,58.7785
197.7944,59.0000
176.5594,59.0000
176.5419,58.9697
176.4810,58.8903
176.3943,58.7773
176.3943,58.7773
176.2227,58.6057
176.2227,58.6057
176.0303,58.4581
176.0303,58.4581
176.0303,58.4581
175.8202,58.3368
175.8202,58.3368
175.5961,58.2439
175.3864,58.1878
175.3618,58.1812
175.3618,58.1812
175.3618,58.1812
175.1213,58.1495
175.1213,58.1495
174.8787,58.1495
174.8787,58.1495
174.6382,58.1812
174.4039,58.2439
174.1798,58.3368
174.1798,58.3368
173.9697,58.4581
173.7773,58.6057
173.7773,58.6057
173.6057,58.7773
173.6057,58.7773
173.4581,58.9697
173.3368,59.1798
173.3368,59.1798
173.2439,59.4039
173.1812,59.6382
173.1495,59.8787
170.5005,59.8787
170.5005,55.6245
170.5202,55.5575
170.5730,55.5117
170.6245,55.5005
179.7010,55.5005
Z" /> 
</g>
<g style="fill:#FFFFFF; fill-opacity:1.0000; stroke:none;">
<circle cx="175.0000" cy="60.0000" r="1.6000" /> 
</g>
<g style="fill:#FFFFFF; fill-opacity:1.0000; stroke:none;">
<circle cx="235.0000" cy="60.0000" r="1.6000" /> 
</g>
<g style="fill:#FFFFFF; fill-opacity:1.0000; stroke:none;">
<circle cx="199.0000" cy="59.0000" r="0.5000" /> 
</g>
<g style="fill:#FFFFFF; fill-opacity:1.0000; stroke:none;">
<circle cx="210.0000" cy="59.0000" r="0.5000" /> 
</g>
<g style="fill:#FFFFFF; fill-opacity:1.0000; stroke:none;">
<circle cx="202.0000" cy="64.0000" r="0.9500" /> 
</g>
<g style="fill:#FFFFFF; fill-opacity:1.0000; stroke:none;">
<circle cx="207.0000" cy="64.0000" r="0.9500" /> 
</g>
<g style="fill:#FFFFFF; fill-opacity:1.0000; stroke:none;">
<circle cx="198.0000" cy="75.7900" r="0.3810" /> 
</g>
<g style="fill:#FFFFFF; fill-opacity:1.0000; stroke:none;">
<circle cx="198.0000" cy="73.2500" r="0.3810" /> 
</g>
<g style="fill:#FFFFFF; fill-opacity:1.0000; stroke:none;">
<circle cx="198.0000" cy="70.7100" r="0.3810" /> 
</g>
<g style="fill:#FFFFFF; fill-opacity:1.0000; stroke:none;">
<circle cx="198.4600" cy="87.2000" r="1.1500" /> 
</g>
<g style="fill:#FFFFFF; fill-opacity:1.0000; stroke:none;">
<circle cx="211.5400" cy="87.2000" r="1.1500" /> 
</g>
<g style="fill:#FFFFFF; fill-opacity:1.0000; stroke:none;">
<circle cx="201.5000" cy="84.5000" r="0.4600" /> 
</g>
<g style="fill:#FFFFFF; fill-opacity:1.0000; stroke:none;">
<circle cx="204.0000" cy="84.5000" r="0.4600" /> 
</g>
<g style="fill:#FFFFFF; fill-opacity:1.0000; stroke:none;">
<circle cx="206.0000" cy="84.5000" r="0.4600" /> 
</g>
<g style="fill:#FFFFFF; fill-opacity:1.0000; stroke:none;">
<circle cx="208.5000" cy="84.5000" r="0.4600" /> 
</g>
<g style="fill:#FFFFFF; fill-opacity:1.0000; stroke:none;">
<circle cx="173.8000" cy="79.0000" r="0.5000" /> 
</g>
<g style="fill:#FFFFFF; fill-opacity:1.0000; stroke:none;">
<circle cx="173.8000" cy="68.0000" r="0.5000" /> 
</g>
<g style="fill:#FFFFFF; fill-opacity:1.0000; stroke:none;">
<circle cx="178.8000" cy="76.0000" r="0.9500" /> 
</g>
<g style="fill:#FFFFFF; fill-opacity:1.0000; stroke:none;">
<circle cx="178.8000" cy="71.0000" r="0.9500" /> 
</g>
<g style="fill:#FFFFFF; fill-opacity:1.0000; stroke:none;">
<circle cx="175.0000" cy="85.0000" r="1.6000" /> 
</g>
<g style="fill:#FFFFFF; fill-opacity:1.0000; stroke:none;">
<circle cx="214.0000" cy="59.0000" r="0.5000" /> 
</g>
<g style="fill:#FFFFFF; fill-opacity:1.0000; stroke:none;">
<circle cx="225.0000" cy="59.0000" r="0.5000" /> 
</g>
<g style="fill:#FFFFFF; fill-opacity:1.0000; stroke:none;">
<circle cx="217.0000" cy="64.0000" r="0.9500" /> 
</g>
<g style="fill:#FFFFFF; fill-opacity:1.0000; stroke:none;">
<circle cx="222.0000" cy="64.0000" r="0.9500" /> 
</g>
<g style="fill:#FFFFFF; fill-opacity:1.0000; stroke:none;">
<circle cx="216.4600" cy="87.2000" r="1.1500" /> 
</g>
<g style="fill:#FFFFFF; fill-opacity:1.0000; stroke:none;">
<circle cx="229.5400" cy="87.2000" r="1.1500" /> 
</g>
<g style="fill:#FFFFFF; fill-opacity:1.0000; stroke:none;">
<circle cx="219.5000" cy="84.5000" r="0.4600" /> 
</g>
<g style="fill:#FFFFFF; fill-opacity:1.0000; stroke:none;">
<circle cx="222.0000" cy="84.5000" r="0.4600" /> 
</g>
<g style="fill:#FFFFFF; fill-opacity:1.0000; stroke:none;">
<circle cx="224.0000" cy="84.5000" r="0.4600" /> 
</g>
<g style="fill:#FFFFFF; fill-opacity:1.0000; stroke:none;">
<circle cx="226.5000" cy="84.5000" r="0.4600" /> 
</g>
<g style="fill:#FFFFFF; fill-opacity:1.0000; stroke:none;">
<circle cx="235.0000" cy="85.0000" r="1.6000" /> 
</g>
<g style="fill:#FFFFFF; fill-opacity:1.0000; stroke:none;">
<circle cx="207.5000" cy="71.5000" r="0.4000" /> 
</g>
<g style="fill:#FFFFFF; fill-opacity:1.0000; stroke:none;">
<circle cx="207.5000" cy="76.5000" r="0.4000" /> 
</g>
<g style="fill:#FFFFFF; fill-opacity:1.0000; stroke:none;">
<circle cx="194.0000" cy="86.0000" r="0.5000" /> 
</g>
<g style="fill:#FFFFFF; fill-opacity:1.0000; stroke:none;">
<circle cx="183.0000" cy="86.0000" r="0.5000" /> 
</g>
<g style="fill:#FFFFFF; fill-opacity:1.0000; stroke:none;">
<circle cx="191.0000" cy="81.0000" r="0.9500" /> 
</g>
<g style="fill:#FFFFFF; fill-opacity:1.0000; stroke:none;">
<circle cx="186.0000" cy="81.0000" r="0.9500" /> 
</g>
<g style="fill:none; 
stroke:#FFFFFF; stroke-width:0.6000; stroke-opacity:1; 
stroke-linecap:round; stroke-linejoin:round;">
<path d="M180.6500 56.4500
L180.6500 57.5500
" />
<path d="M194.1500 56.4500
L194.1500 57.5500
" />
</g>
<g style="fill:#FFFFFF; fill-opacity:1.0000; stroke:none;">
<circle cx="191.0000" cy="63.0000" r="1.3500" /> 
</g>
<g style="fill:#FFFFFF; fill-opacity:1.0000; stroke:none;">
<circle cx="183.8000" cy="63.0000" r="1.3500" /> 
</g> 
</svg>
