<?xml version="1.0" standalone="no"?>
 <!DOCTYPE svg PUBLIC "-//W3C//DTD SVG 1.1//EN" 
 "http://www.w3.org/Graphics/SVG/1.1/DTD/svg11.dtd"> 
<svg
  xmlns:svg="http://www.w3.org/2000/svg"
  xmlns="http://www.w3.org/2000/svg"
  xmlns:xlink="http://www.w3.org/1999/xlink"
  version="1.1"
  width="297.0022mm" height="210.0072mm" viewBox="0.0000 0.0000 297.0022 210.0072">
<title>SVG Image created as computer_sensor_board-F_Silkscreen.svg date 2024/12/17 00:58:49 </title>
  <desc>Image generated by PCBNEW </desc>
<g style="fill:#000000; fill-opacity:1.0000;stroke:#000000; stroke-opacity:1.0000;
stroke-linecap:round; stroke-linejoin:round;"
 transform="translate(0 0) scale(1 1)">
</g>
<g style="fill:none; 
stroke:#000000; stroke-width:0.1500; stroke-opacity:1; 
stroke-linecap:round; stroke-linejoin:round;">
<text x="175.0000" y="56.3000"
textLength="2.2500" font-size="1.3333" lengthAdjust="spacingAndGlyphs"
text-anchor="middle" opacity="0" stroke-opacity="0">H1</text>
<g class="stroked-text"><desc>H1</desc>
<path d="M174.2381 56.2548
L174.2381 55.2548
" />
<path d="M174.2381 55.7310
L174.8095 55.7310
" />
<path d="M174.8095 56.2548
L174.8095 55.2548
" />
<path d="M175.8095 56.2548
L175.2381 56.2548
" />
<path d="M175.5238 56.2548
L175.5238 55.2548
" />
<path d="M175.5238 55.2548
L175.4286 55.3977
" />
<path d="M175.4286 55.3977
L175.3333 55.4929
" />
<path d="M175.3333 55.4929
L175.2381 55.5405
" />
</g><text x="235.0000" y="56.3000"
textLength="2.2500" font-size="1.3333" lengthAdjust="spacingAndGlyphs"
text-anchor="middle" opacity="0" stroke-opacity="0">H2</text>
<g class="stroked-text"><desc>H2</desc>
<path d="M234.2381 56.2548
L234.2381 55.2548
" />
<path d="M234.2381 55.7310
L234.8095 55.7310
" />
<path d="M234.8095 56.2548
L234.8095 55.2548
" />
<path d="M235.2381 55.3501
L235.2857 55.3024
" />
<path d="M235.2857 55.3024
L235.3810 55.2548
" />
<path d="M235.3810 55.2548
L235.6190 55.2548
" />
<path d="M235.6190 55.2548
L235.7143 55.3024
" />
<path d="M235.7143 55.3024
L235.7619 55.3501
" />
<path d="M235.7619 55.3501
L235.8095 55.4453
" />
<path d="M235.8095 55.4453
L235.8095 55.5405
" />
<path d="M235.8095 55.5405
L235.7619 55.6834
" />
<path d="M235.7619 55.6834
L235.1905 56.2548
" />
<path d="M235.1905 56.2548
L235.8095 56.2548
" />
</g><text x="204.5000" y="49.0000"
textLength="1.9643" font-size="1.3333" lengthAdjust="spacingAndGlyphs"
text-anchor="middle" opacity="0" stroke-opacity="0">J7</text>
<g class="stroked-text"><desc>J7</desc>
<path d="M204.1667 47.9548
L204.1667 48.6691
" />
<path d="M204.1667 48.6691
L204.1190 48.8120
" />
<path d="M204.1190 48.8120
L204.0238 48.9072
" />
<path d="M204.0238 48.9072
L203.8810 48.9548
" />
<path d="M203.8810 48.9548
L203.7857 48.9548
" />
<path d="M204.5476 47.9548
L205.2143 47.9548
" />
<path d="M205.2143 47.9548
L204.7857 48.9548
" />
</g><text x="210.0000" y="64.7500"
textLength="2.0071" font-size="2.0000" lengthAdjust="spacingAndGlyphs"
text-anchor="middle" opacity="0" stroke-opacity="0">+</text>
<g class="stroked-text"><desc>+</desc>
<path d="M209.4286 64.1147
L210.5714 64.1147
" />
<path d="M210.0000 64.6861
L210.0000 63.5433
" />
</g><text x="199.0000" y="64.7500"
textLength="2.0071" font-size="2.0000" lengthAdjust="spacingAndGlyphs"
text-anchor="middle" opacity="0" stroke-opacity="0">-</text>
<g class="stroked-text"><desc>-</desc>
<path d="M198.4286 64.1147
L199.5714 64.1147
" />
</g></g>
<g style="fill:none; 
stroke:#000000; stroke-width:0.1000; stroke-opacity:1; 
stroke-linecap:round; stroke-linejoin:round;">
<g transform="rotate(-90.000000 199.5000 73.0000)">
<text x="199.5000" y="73.5000"
textLength="9.1000" font-size="1.3333" lengthAdjust="spacingAndGlyphs"
text-anchor="middle" opacity="0" stroke-opacity="0">M78AR05-1</text>
</g>
<g class="stroked-text"><desc>M78AR05-1</desc>
<path d="M199.9574 77.2619
L198.9574 77.2619
" />
<path d="M198.9574 77.2619
L199.6717 76.9286
" />
<path d="M199.6717 76.9286
L198.9574 76.5952
" />
<path d="M198.9574 76.5952
L199.9574 76.5952
" />
<path d="M198.9574 76.2143
L198.9574 75.5476
" />
<path d="M198.9574 75.5476
L199.9574 75.9762
" />
<path d="M199.3860 75.0238
L199.3384 75.1190
" />
<path d="M199.3384 75.1190
L199.2908 75.1667
" />
<path d="M199.2908 75.1667
L199.1955 75.2143
" />
<path d="M199.1955 75.2143
L199.1479 75.2143
" />
<path d="M199.1479 75.2143
L199.0527 75.1667
" />
<path d="M199.0527 75.1667
L199.0050 75.1190
" />
<path d="M199.0050 75.1190
L198.9574 75.0238
" />
<path d="M198.9574 75.0238
L198.9574 74.8333
" />
<path d="M198.9574 74.8333
L199.0050 74.7381
" />
<path d="M199.0050 74.7381
L199.0527 74.6905
" />
<path d="M199.0527 74.6905
L199.1479 74.6429
" />
<path d="M199.1479 74.6429
L199.1955 74.6429
" />
<path d="M199.1955 74.6429
L199.2908 74.6905
" />
<path d="M199.2908 74.6905
L199.3384 74.7381
" />
<path d="M199.3384 74.7381
L199.3860 74.8333
" />
<path d="M199.3860 74.8333
L199.3860 75.0238
" />
<path d="M199.3860 75.0238
L199.4336 75.1190
" />
<path d="M199.4336 75.1190
L199.4812 75.1667
" />
<path d="M199.4812 75.1667
L199.5765 75.2143
" />
<path d="M199.5765 75.2143
L199.7669 75.2143
" />
<path d="M199.7669 75.2143
L199.8622 75.1667
" />
<path d="M199.8622 75.1667
L199.9098 75.1190
" />
<path d="M199.9098 75.1190
L199.9574 75.0238
" />
<path d="M199.9574 75.0238
L199.9574 74.8333
" />
<path d="M199.9574 74.8333
L199.9098 74.7381
" />
<path d="M199.9098 74.7381
L199.8622 74.6905
" />
<path d="M199.8622 74.6905
L199.7669 74.6429
" />
<path d="M199.7669 74.6429
L199.5765 74.6429
" />
<path d="M199.5765 74.6429
L199.4812 74.6905
" />
<path d="M199.4812 74.6905
L199.4336 74.7381
" />
<path d="M199.4336 74.7381
L199.3860 74.8333
" />
<path d="M199.6717 74.2619
L199.6717 73.7857
" />
<path d="M199.9574 74.3571
L198.9574 74.0238
" />
<path d="M198.9574 74.0238
L199.9574 73.6905
" />
<path d="M199.9574 72.7857
L199.4812 73.1190
" />
<path d="M199.9574 73.3571
L198.9574 73.3571
" />
<path d="M198.9574 73.3571
L198.9574 72.9762
" />
<path d="M198.9574 72.9762
L199.0050 72.8810
" />
<path d="M199.0050 72.8810
L199.0527 72.8333
" />
<path d="M199.0527 72.8333
L199.1479 72.7857
" />
<path d="M199.1479 72.7857
L199.2908 72.7857
" />
<path d="M199.2908 72.7857
L199.3860 72.8333
" />
<path d="M199.3860 72.8333
L199.4336 72.8810
" />
<path d="M199.4336 72.8810
L199.4812 72.9762
" />
<path d="M199.4812 72.9762
L199.4812 73.3571
" />
<path d="M198.9574 72.1667
L198.9574 72.0714
" />
<path d="M198.9574 72.0714
L199.0050 71.9762
" />
<path d="M199.0050 71.9762
L199.0527 71.9286
" />
<path d="M199.0527 71.9286
L199.1479 71.8810
" />
<path d="M199.1479 71.8810
L199.3384 71.8333
" />
<path d="M199.3384 71.8333
L199.5765 71.8333
" />
<path d="M199.5765 71.8333
L199.7669 71.8810
" />
<path d="M199.7669 71.8810
L199.8622 71.9286
" />
<path d="M199.8622 71.9286
L199.9098 71.9762
" />
<path d="M199.9098 71.9762
L199.9574 72.0714
" />
<path d="M199.9574 72.0714
L199.9574 72.1667
" />
<path d="M199.9574 72.1667
L199.9098 72.2619
" />
<path d="M199.9098 72.2619
L199.8622 72.3095
" />
<path d="M199.8622 72.3095
L199.7669 72.3571
" />
<path d="M199.7669 72.3571
L199.5765 72.4048
" />
<path d="M199.5765 72.4048
L199.3384 72.4048
" />
<path d="M199.3384 72.4048
L199.1479 72.3571
" />
<path d="M199.1479 72.3571
L199.0527 72.3095
" />
<path d="M199.0527 72.3095
L199.0050 72.2619
" />
<path d="M199.0050 72.2619
L198.9574 72.1667
" />
<path d="M198.9574 70.9286
L198.9574 71.4048
" />
<path d="M198.9574 71.4048
L199.4336 71.4524
" />
<path d="M199.4336 71.4524
L199.3860 71.4048
" />
<path d="M199.3860 71.4048
L199.3384 71.3095
" />
<path d="M199.3384 71.3095
L199.3384 71.0714
" />
<path d="M199.3384 71.0714
L199.3860 70.9762
" />
<path d="M199.3860 70.9762
L199.4336 70.9286
" />
<path d="M199.4336 70.9286
L199.5288 70.8810
" />
<path d="M199.5288 70.8810
L199.7669 70.8810
" />
<path d="M199.7669 70.8810
L199.8622 70.9286
" />
<path d="M199.8622 70.9286
L199.9098 70.9762
" />
<path d="M199.9098 70.9762
L199.9574 71.0714
" />
<path d="M199.9574 71.0714
L199.9574 71.3095
" />
<path d="M199.9574 71.3095
L199.9098 71.4048
" />
<path d="M199.9098 71.4048
L199.8622 71.4524
" />
<path d="M199.5765 70.4524
L199.5765 69.6905
" />
<path d="M199.9574 68.6905
L199.9574 69.2619
" />
<path d="M199.9574 68.9762
L198.9574 68.9762
" />
<path d="M198.9574 68.9762
L199.1003 69.0714
" />
<path d="M199.1003 69.0714
L199.1955 69.1667
" />
<path d="M199.1955 69.1667
L199.2431 69.2619
" />
</g><text x="204.9700" y="79.4900"
textLength="2.1000" font-size="1.3333" lengthAdjust="spacingAndGlyphs"
text-anchor="middle" opacity="0" stroke-opacity="0">U2</text>
<g class="stroked-text"><desc>U2</desc>
<path d="M204.2081 78.4474
L204.2081 79.2569
" />
<path d="M204.2081 79.2569
L204.2557 79.3522
" />
<path d="M204.2557 79.3522
L204.3033 79.3998
" />
<path d="M204.3033 79.3998
L204.3986 79.4474
" />
<path d="M204.3986 79.4474
L204.5890 79.4474
" />
<path d="M204.5890 79.4474
L204.6843 79.3998
" />
<path d="M204.6843 79.3998
L204.7319 79.3522
" />
<path d="M204.7319 79.3522
L204.7795 79.2569
" />
<path d="M204.7795 79.2569
L204.7795 78.4474
" />
<path d="M205.2081 78.5427
L205.2557 78.4950
" />
<path d="M205.2557 78.4950
L205.3510 78.4474
" />
<path d="M205.3510 78.4474
L205.5890 78.4474
" />
<path d="M205.5890 78.4474
L205.6843 78.4950
" />
<path d="M205.6843 78.4950
L205.7319 78.5427
" />
<path d="M205.7319 78.5427
L205.7795 78.6379
" />
<path d="M205.7795 78.6379
L205.7795 78.7331
" />
<path d="M205.7795 78.7331
L205.7319 78.8760
" />
<path d="M205.7319 78.8760
L205.1605 79.4474
" />
<path d="M205.1605 79.4474
L205.7795 79.4474
" />
</g></g>
<g style="fill:none; 
stroke:#000000; stroke-width:0.1500; stroke-opacity:1; 
stroke-linecap:round; stroke-linejoin:round;">
<g transform="rotate(-90.000000 163.3000 73.5000)">
<text x="163.3000" y="74.0000"
textLength="1.9643" font-size="1.3333" lengthAdjust="spacingAndGlyphs"
text-anchor="middle" opacity="0" stroke-opacity="0">J5</text>
</g>
<g class="stroked-text"><desc>J5</desc>
<path d="M162.7548 73.8333
L163.4691 73.8333
" />
<path d="M163.4691 73.8333
L163.6120 73.8810
" />
<path d="M163.6120 73.8810
L163.7072 73.9762
" />
<path d="M163.7072 73.9762
L163.7548 74.1190
" />
<path d="M163.7548 74.1190
L163.7548 74.2143
" />
<path d="M162.7548 72.8810
L162.7548 73.3571
" />
<path d="M162.7548 73.3571
L163.2310 73.4048
" />
<path d="M163.2310 73.4048
L163.1834 73.3571
" />
<path d="M163.1834 73.3571
L163.1358 73.2619
" />
<path d="M163.1358 73.2619
L163.1358 73.0238
" />
<path d="M163.1358 73.0238
L163.1834 72.9286
" />
<path d="M163.1834 72.9286
L163.2310 72.8810
" />
<path d="M163.2310 72.8810
L163.3262 72.8333
" />
<path d="M163.3262 72.8333
L163.5643 72.8333
" />
<path d="M163.5643 72.8333
L163.6596 72.8810
" />
<path d="M163.6596 72.8810
L163.7072 72.9286
" />
<path d="M163.7072 72.9286
L163.7548 73.0238
" />
<path d="M163.7548 73.0238
L163.7548 73.2619
" />
<path d="M163.7548 73.2619
L163.7072 73.3571
" />
<path d="M163.7072 73.3571
L163.6596 73.4048
" />
</g><g transform="rotate(-90.000000 178.8000 79.0000)">
<text x="178.8000" y="79.7500"
textLength="2.0071" font-size="2.0000" lengthAdjust="spacingAndGlyphs"
text-anchor="middle" opacity="0" stroke-opacity="0">-</text>
</g>
<g class="stroked-text"><desc>-</desc>
<path d="M178.9147 79.5714
L178.9147 78.4286
" />
</g><g transform="rotate(-90.000000 178.8000 68.0000)">
<text x="178.8000" y="68.7500"
textLength="2.0071" font-size="2.0000" lengthAdjust="spacingAndGlyphs"
text-anchor="middle" opacity="0" stroke-opacity="0">+</text>
</g>
<g class="stroked-text"><desc>+</desc>
<path d="M178.9147 68.5714
L178.9147 67.4286
" />
<path d="M179.4861 68.0000
L178.3433 68.0000
" />
</g><text x="175.0000" y="81.3000"
textLength="2.2500" font-size="1.3333" lengthAdjust="spacingAndGlyphs"
text-anchor="middle" opacity="0" stroke-opacity="0">H3</text>
<g class="stroked-text"><desc>H3</desc>
<path d="M174.2381 81.2548
L174.2381 80.2548
" />
<path d="M174.2381 80.7310
L174.8095 80.7310
" />
<path d="M174.8095 81.2548
L174.8095 80.2548
" />
<path d="M175.1905 80.2548
L175.8095 80.2548
" />
<path d="M175.8095 80.2548
L175.4762 80.6358
" />
<path d="M175.4762 80.6358
L175.6190 80.6358
" />
<path d="M175.6190 80.6358
L175.7143 80.6834
" />
<path d="M175.7143 80.6834
L175.7619 80.7310
" />
<path d="M175.7619 80.7310
L175.8095 80.8262
" />
<path d="M175.8095 80.8262
L175.8095 81.0643
" />
<path d="M175.8095 81.0643
L175.7619 81.1596
" />
<path d="M175.7619 81.1596
L175.7143 81.2072
" />
<path d="M175.7143 81.2072
L175.6190 81.2548
" />
<path d="M175.6190 81.2548
L175.3333 81.2548
" />
<path d="M175.3333 81.2548
L175.2381 81.2072
" />
<path d="M175.2381 81.2072
L175.1905 81.1596
" />
</g><text x="219.5000" y="49.0000"
textLength="1.9643" font-size="1.3333" lengthAdjust="spacingAndGlyphs"
text-anchor="middle" opacity="0" stroke-opacity="0">J1</text>
<g class="stroked-text"><desc>J1</desc>
<path d="M219.1667 47.9548
L219.1667 48.6691
" />
<path d="M219.1667 48.6691
L219.1190 48.8120
" />
<path d="M219.1190 48.8120
L219.0238 48.9072
" />
<path d="M219.0238 48.9072
L218.8810 48.9548
" />
<path d="M218.8810 48.9548
L218.7857 48.9548
" />
<path d="M220.1667 48.9548
L219.5952 48.9548
" />
<path d="M219.8810 48.9548
L219.8810 47.9548
" />
<path d="M219.8810 47.9548
L219.7857 48.0977
" />
<path d="M219.7857 48.0977
L219.6905 48.1929
" />
<path d="M219.6905 48.1929
L219.5952 48.2405
" />
</g><text x="225.0000" y="64.7500"
textLength="2.0071" font-size="2.0000" lengthAdjust="spacingAndGlyphs"
text-anchor="middle" opacity="0" stroke-opacity="0">+</text>
<g class="stroked-text"><desc>+</desc>
<path d="M224.4286 64.1147
L225.5714 64.1147
" />
<path d="M225.0000 64.6861
L225.0000 63.5433
" />
</g><text x="214.0000" y="64.7500"
textLength="2.0071" font-size="2.0000" lengthAdjust="spacingAndGlyphs"
text-anchor="middle" opacity="0" stroke-opacity="0">-</text>
<g class="stroked-text"><desc>-</desc>
<path d="M213.4286 64.1147
L214.5714 64.1147
" />
</g></g>
<g style="fill:none; 
stroke:#000000; stroke-width:0.1000; stroke-opacity:1; 
stroke-linecap:round; stroke-linejoin:round;">
<text x="222.9700" y="79.4900"
textLength="2.1000" font-size="1.3333" lengthAdjust="spacingAndGlyphs"
text-anchor="middle" opacity="0" stroke-opacity="0">U1</text>
<g class="stroked-text"><desc>U1</desc>
<path d="M222.2081 78.4474
L222.2081 79.2569
" />
<path d="M222.2081 79.2569
L222.2557 79.3522
" />
<path d="M222.2557 79.3522
L222.3033 79.3998
" />
<path d="M222.3033 79.3998
L222.3986 79.4474
" />
<path d="M222.3986 79.4474
L222.5890 79.4474
" />
<path d="M222.5890 79.4474
L222.6843 79.3998
" />
<path d="M222.6843 79.3998
L222.7319 79.3522
" />
<path d="M222.7319 79.3522
L222.7795 79.2569
" />
<path d="M222.7795 79.2569
L222.7795 78.4474
" />
<path d="M223.7795 79.4474
L223.2081 79.4474
" />
<path d="M223.4938 79.4474
L223.4938 78.4474
" />
<path d="M223.4938 78.4474
L223.3986 78.5903
" />
<path d="M223.3986 78.5903
L223.3033 78.6855
" />
<path d="M223.3033 78.6855
L223.2081 78.7331
" />
</g></g>
<g style="fill:none; 
stroke:#000000; stroke-width:0.1500; stroke-opacity:1; 
stroke-linecap:round; stroke-linejoin:round;">
<text x="235.0000" y="81.3000"
textLength="2.2500" font-size="1.3333" lengthAdjust="spacingAndGlyphs"
text-anchor="middle" opacity="0" stroke-opacity="0">H4</text>
<g class="stroked-text"><desc>H4</desc>
<path d="M234.2381 81.2548
L234.2381 80.2548
" />
<path d="M234.2381 80.7310
L234.8095 80.7310
" />
<path d="M234.8095 81.2548
L234.8095 80.2548
" />
<path d="M235.7143 80.5882
L235.7143 81.2548
" />
<path d="M235.4762 80.2072
L235.2381 80.9215
" />
<path d="M235.2381 80.9215
L235.8571 80.9215
" />
</g><g transform="rotate(-90.000000 211.0000 74.0000)">
<text x="211.0000" y="74.5000"
textLength="2.2024" font-size="1.3333" lengthAdjust="spacingAndGlyphs"
text-anchor="middle" opacity="0" stroke-opacity="0">C1</text>
</g>
<g class="stroked-text"><desc>C1</desc>
<path d="M211.3596 74.1667
L211.4072 74.2143
" />
<path d="M211.4072 74.2143
L211.4548 74.3571
" />
<path d="M211.4548 74.3571
L211.4548 74.4524
" />
<path d="M211.4548 74.4524
L211.4072 74.5952
" />
<path d="M211.4072 74.5952
L211.3120 74.6905
" />
<path d="M211.3120 74.6905
L211.2167 74.7381
" />
<path d="M211.2167 74.7381
L211.0262 74.7857
" />
<path d="M211.0262 74.7857
L210.8834 74.7857
" />
<path d="M210.8834 74.7857
L210.6929 74.7381
" />
<path d="M210.6929 74.7381
L210.5977 74.6905
" />
<path d="M210.5977 74.6905
L210.5024 74.5952
" />
<path d="M210.5024 74.5952
L210.4548 74.4524
" />
<path d="M210.4548 74.4524
L210.4548 74.3571
" />
<path d="M210.4548 74.3571
L210.5024 74.2143
" />
<path d="M210.5024 74.2143
L210.5501 74.1667
" />
<path d="M211.4548 73.2143
L211.4548 73.7857
" />
<path d="M211.4548 73.5000
L210.4548 73.5000
" />
<path d="M210.4548 73.5000
L210.5977 73.5952
" />
<path d="M210.5977 73.5952
L210.6929 73.6905
" />
<path d="M210.6929 73.6905
L210.7405 73.7857
" />
</g><text x="188.5000" y="97.0000"
textLength="1.9643" font-size="1.3333" lengthAdjust="spacingAndGlyphs"
text-anchor="middle" opacity="0" stroke-opacity="0">J2</text>
<g class="stroked-text"><desc>J2</desc>
<path d="M188.1667 95.9548
L188.1667 96.6691
" />
<path d="M188.1667 96.6691
L188.1190 96.8120
" />
<path d="M188.1190 96.8120
L188.0238 96.9072
" />
<path d="M188.0238 96.9072
L187.8810 96.9548
" />
<path d="M187.8810 96.9548
L187.7857 96.9548
" />
<path d="M188.5952 96.0501
L188.6429 96.0024
" />
<path d="M188.6429 96.0024
L188.7381 95.9548
" />
<path d="M188.7381 95.9548
L188.9762 95.9548
" />
<path d="M188.9762 95.9548
L189.0714 96.0024
" />
<path d="M189.0714 96.0024
L189.1190 96.0501
" />
<path d="M189.1190 96.0501
L189.1667 96.1453
" />
<path d="M189.1667 96.1453
L189.1667 96.2405
" />
<path d="M189.1667 96.2405
L189.1190 96.3834
" />
<path d="M189.1190 96.3834
L188.5476 96.9548
" />
<path d="M188.5476 96.9548
L189.1667 96.9548
" />
</g><text x="183.0000" y="81.7500"
textLength="2.0071" font-size="2.0000" lengthAdjust="spacingAndGlyphs"
text-anchor="middle" opacity="0" stroke-opacity="0">+</text>
<g class="stroked-text"><desc>+</desc>
<path d="M182.4286 81.1147
L183.5714 81.1147
" />
<path d="M183.0000 81.6861
L183.0000 80.5433
" />
</g><text x="194.0000" y="81.7500"
textLength="2.0071" font-size="2.0000" lengthAdjust="spacingAndGlyphs"
text-anchor="middle" opacity="0" stroke-opacity="0">-</text>
<g class="stroked-text"><desc>-</desc>
<path d="M193.4286 81.1147
L194.5714 81.1147
" />
</g><text x="187.4000" y="47.0000"
textLength="1.9643" font-size="1.3333" lengthAdjust="spacingAndGlyphs"
text-anchor="middle" opacity="0" stroke-opacity="0">J6</text>
<g class="stroked-text"><desc>J6</desc>
<path d="M187.0667 45.9548
L187.0667 46.6691
" />
<path d="M187.0667 46.6691
L187.0190 46.8120
" />
<path d="M187.0190 46.8120
L186.9238 46.9072
" />
<path d="M186.9238 46.9072
L186.7810 46.9548
" />
<path d="M186.7810 46.9548
L186.6857 46.9548
" />
<path d="M187.9714 45.9548
L187.7810 45.9548
" />
<path d="M187.7810 45.9548
L187.6857 46.0024
" />
<path d="M187.6857 46.0024
L187.6381 46.0501
" />
<path d="M187.6381 46.0501
L187.5429 46.1929
" />
<path d="M187.5429 46.1929
L187.4952 46.3834
" />
<path d="M187.4952 46.3834
L187.4952 46.7643
" />
<path d="M187.4952 46.7643
L187.5429 46.8596
" />
<path d="M187.5429 46.8596
L187.5905 46.9072
" />
<path d="M187.5905 46.9072
L187.6857 46.9548
" />
<path d="M187.6857 46.9548
L187.8762 46.9548
" />
<path d="M187.8762 46.9548
L187.9714 46.9072
" />
<path d="M187.9714 46.9072
L188.0190 46.8596
" />
<path d="M188.0190 46.8596
L188.0667 46.7643
" />
<path d="M188.0667 46.7643
L188.0667 46.5262
" />
<path d="M188.0667 46.5262
L188.0190 46.4310
" />
<path d="M188.0190 46.4310
L187.9714 46.3834
" />
<path d="M187.9714 46.3834
L187.8762 46.3358
" />
<path d="M187.8762 46.3358
L187.6857 46.3358
" />
<path d="M187.6857 46.3358
L187.5905 46.3834
" />
<path d="M187.5905 46.3834
L187.5429 46.4310
" />
<path d="M187.5429 46.4310
L187.4952 46.5262
" />
</g><text x="181.5000" y="66.2500"
textLength="2.0071" font-size="2.0000" lengthAdjust="spacingAndGlyphs"
text-anchor="middle" opacity="0" stroke-opacity="0">+</text>
<g class="stroked-text"><desc>+</desc>
<path d="M180.9286 65.6147
L182.0714 65.6147
" />
<path d="M181.5000 66.1861
L181.5000 65.0433
" />
</g><text x="193.8000" y="66.0000"
textLength="1.4881" font-size="1.3333" lengthAdjust="spacingAndGlyphs"
text-anchor="middle" opacity="0" stroke-opacity="0">-</text>
<g class="stroked-text"><desc>-</desc>
<path d="M193.4190 65.5739
L194.1810 65.5739
" />
</g></g>
<g style="fill:none; 
stroke:#000000; stroke-width:0.1200; stroke-opacity:1; 
stroke-linecap:round; stroke-linejoin:round;">
<path d="M198.7400 57.8900
L199.4400 57.8900
" />
<path d="M198.7400 60.1100
L210.2600 60.1100
" />
<path d="M199.4400 55.8400
L199.4400 57.8900
" />
<path d="M199.4400 55.8400
L199.9700 55.8400
" />
<path d="M199.9700 49.8400
L199.9700 55.8400
" />
<path d="M199.9700 49.8400
L209.0000 49.8400
" />
<path d="M209.0300 49.8400
L209.0300 55.8400
" />
<path d="M209.0300 55.8400
L209.5600 55.8400
" />
<path d="M209.5600 55.8400
L209.5600 57.8900
" />
<path d="M209.5600 57.8900
L210.2600 57.8900
" />
<path d="M198.8500 57.8900 A1.1100 1.1100 0.0 0 0 198.6783 60.0966" />
<path d="M210.1500 60.1100 A1.1100 1.1100 0.0 0 0 210.1500 57.8900" />
<path style="fill:none; 
stroke:#000000; stroke-width:0.1000; stroke-opacity:1; 
stroke-linecap:round; stroke-linejoin:round;fill:none"
d="M 196.0000,79.0000
203.5500,79.0000
203.5500,67.5000
196.0000,67.5000
Z" /> 
</g>
<g style="fill:none; 
stroke:#000000; stroke-width:0.1200; stroke-opacity:1; 
stroke-linecap:round; stroke-linejoin:round;">
<path d="M164.6400 68.9700
L170.6400 68.9700
" />
<path d="M164.6400 78.0300
L164.6400 69.0000
" />
<path d="M164.6400 78.0300
L170.6400 78.0300
" />
<path d="M170.6400 68.4400
L172.6900 68.4400
" />
<path d="M170.6400 68.9700
L170.6400 68.4400
" />
<path d="M170.6400 78.5600
L170.6400 78.0300
" />
<path d="M170.6400 78.5600
L172.6900 78.5600
" />
<path d="M172.6900 68.4400
L172.6900 67.7400
" />
<path d="M172.6900 79.2600
L172.6900 78.5600
" />
<path d="M174.9100 79.2600
L174.9100 67.7400
" />
<path d="M174.9100 67.8500 A1.1100 1.1100 0.0 0 0 172.6900 67.8500" />
<path d="M172.6900 79.1500 A1.1100 1.1100 0.0 0 0 174.8966 79.3217" />
<path d="M213.7400 57.8900
L214.4400 57.8900
" />
<path d="M213.7400 60.1100
L225.2600 60.1100
" />
<path d="M214.4400 55.8400
L214.4400 57.8900
" />
<path d="M214.4400 55.8400
L214.9700 55.8400
" />
<path d="M214.9700 49.8400
L214.9700 55.8400
" />
<path d="M214.9700 49.8400
L224.0000 49.8400
" />
<path d="M224.0300 49.8400
L224.0300 55.8400
" />
<path d="M224.0300 55.8400
L224.5600 55.8400
" />
<path d="M224.5600 55.8400
L224.5600 57.8900
" />
<path d="M224.5600 57.8900
L225.2600 57.8900
" />
<path d="M213.8500 57.8900 A1.1100 1.1100 0.0 0 0 213.6783 60.0966" />
<path d="M225.1500 60.1100 A1.1100 1.1100 0.0 0 0 225.1500 57.8900" />
<path d="M205.1300 70.2800
L205.1300 77.7200
" />
<path d="M209.8700 70.2800
L205.1300 70.2800
" />
<path d="M209.8700 70.2800
L209.8700 77.7200
" />
<path d="M209.8700 77.7200
L205.1300 77.7200
" />
<path d="M183.4400 87.1100
L182.7400 87.1100
" />
<path d="M183.4400 89.1600
L183.4400 87.1100
" />
<path d="M183.9700 89.1600
L183.4400 89.1600
" />
<path d="M183.9700 95.1600
L183.9700 89.1600
" />
<path d="M193.0300 95.1600
L184.0000 95.1600
" />
<path d="M193.0300 95.1600
L193.0300 89.1600
" />
<path d="M193.5600 89.1600
L193.0300 89.1600
" />
<path d="M193.5600 89.1600
L193.5600 87.1100
" />
<path d="M194.2600 84.8900
L182.7400 84.8900
" />
<path d="M194.2600 87.1100
L193.5600 87.1100
" />
<path d="M182.8500 84.8900 A1.1100 1.1100 0.0 0 0 182.8500 87.1100" />
<path d="M194.1500 87.1100 A1.1100 1.1100 0.0 0 0 194.3217 84.9034" />
<path d="M179.5400 55.2400
L179.5400 60.8500
" />
<path d="M179.5400 55.2400
L180.3900 55.2400
" />
<path d="M180.3900 47.5400
L180.3900 55.2400
" />
<path d="M180.3900 47.5400
L194.4100 47.5400
" />
<path d="M184.9500 64.9600
L188.6900 64.9600
" />
<path d="M194.4100 47.5400
L194.4100 55.2400
" />
<path d="M194.4100 55.2400
L195.2600 55.2400
" />
<path d="M195.2600 55.2400
L195.2600 60.8500
" />
<path d="M179.5400 60.8500 A4.1102 4.1102 0.0 0 0 182.4101 64.8087" />
<path d="M193.2668 64.3730 A4.1100 4.1100 0.0 0 0 195.2600 60.8500" />
</g> 
</svg>
